<svg xmlns="http://www.w3.org/2000/svg" xmlns:xlink="http://www.w3.org/1999/xlink" width="105" height="105" viewBox="0 0 105 105">
  <defs>
    <clipPath id="clip-path">
      <rect id="Rect치ngulo_37610" data-name="Rect치ngulo 37610" width="68.385" height="68.362" fill="none"/>
    </clipPath>
  </defs>
  <g id="Grupo_159139" data-name="Grupo 159139" transform="translate(-3239 11178)">
    <rect id="Rect치ngulo_36241" data-name="Rect치ngulo 36241" width="105" height="105" rx="52.5" transform="translate(3239 -11178)" fill="#6b8dfc"/>
    <g id="Grupo_159134" data-name="Grupo 159134" transform="translate(3257 -11160)">
      <g id="Grupo_159133" data-name="Grupo 159133" transform="translate(0 0)" clip-path="url(#clip-path)">
        <path id="Trazado_136621" data-name="Trazado 136621" d="M50.347,28.173a1.12,1.12,0,0,1-.243,1.593Q35.463,44.394,20.832,59.034a2.549,2.549,0,0,1-.7.5Q11.2,63.84,2.274,68.144a1.46,1.46,0,0,1-2.21-.8A1.482,1.482,0,0,1,.2,66.188q4.351-9.017,8.7-18.034a2.522,2.522,0,0,1,.531-.677q22.447-22.448,44.892-44.9A8.175,8.175,0,0,1,59.016.109c.055-.008.1-.071.152-.108h2.138a6.947,6.947,0,0,1,3.748,1.365,7.672,7.672,0,0,1,3.332,5.581V9.218a12.8,12.8,0,0,1-1.058,2.9,10.041,10.041,0,0,1-1.474,1.887Q60.378,19.486,54.9,24.963c-.673.672-.92.71-1.688.294a1.017,1.017,0,0,1,.012-1.557q1.1-1.161,2.266-2.266c.389-.371.427-.649.016-1.039-1.559-1.479-1.056-1.481-2.536,0Q35.893,37.446,18.835,54.517c-.585.585-.586.586,0,1.175l.851.848a.42.42,0,0,0,.688-.009c.138-.145.284-.283.425-.424Q34.54,42.371,48.278,28.635a3.733,3.733,0,0,1,.8-.7.894.894,0,0,1,1.27.24" transform="translate(0 0)"/>
        <path id="Trazado_136622" data-name="Trazado 136622" d="M63.063,41.55c-.763-.431-1.025-.384-1.736.327L37.252,65.952c-1.369,1.369-2.748,2.728-4.1,4.115-.329.338-.535.441-.88.024a10.194,10.194,0,0,0-1.225-1.227c-.333-.287-.252-.449.022-.723Q48.807,50.426,66.523,32.689c.292-.292.477-.377.773-.016.474.579,1.457,1.017,1.43,1.639-.024.549-.91,1.063-1.421,1.587-.373.383-.744.768-1.136,1.131a1.137,1.137,0,0,0-.242,1.6L63.063,41.55" transform="translate(-12.716 -13.377)" fill="#fe8f1d"/>
        <path id="Trazado_136623" data-name="Trazado 136623" d="M25.727,55.841a1.141,1.141,0,0,0-1.546.269c-.866.9-1.766,1.759-2.634,2.653-.233.24-.381.281-.625.014-.435-.477-.9-.93-1.368-1.371-.24-.225-.317-.406-.019-.632a2.988,2.988,0,0,0,.286-.28Q37.36,38.954,54.888,21.4c.468-.469.722-.474,1.118.021a8.111,8.111,0,0,0,1.083,1.085c.327.279.273.445-.011.726-2.2,2.176-4.382,4.369-6.569,6.556L29.027,51.273c-.713.713-.748.927-.314,1.739a21.707,21.707,0,0,1-2.738,2.81.225.225,0,0,1-.248.02" transform="translate(-7.977 -8.682)" fill="#febe14"/>
        <path id="Trazado_136624" data-name="Trazado 136624" d="M28.1,58.2q1.192-1.157,2.386-2.312c.19-.183.4-.345.6-.518.825.363,1,.323,1.739-.413q13.906-13.906,27.8-27.826c.46-.461.712-.492,1.116.01a12.013,12.013,0,0,0,1.174,1.185c.209.2.239.348,0,.533a3.387,3.387,0,0,0-.285.281Q45.066,46.708,27.508,64.282c-.413.414-.665.508-1.06.012a8.3,8.3,0,0,0-1.13-1.133c-.338-.286-.257-.457.021-.724.881-.849,1.743-1.72,2.6-2.593.594-.6.617-.931.161-1.641" transform="translate(-10.35 -11.044)" fill="#feb023"/>
        <path id="Trazado_136625" data-name="Trazado 136625" d="M94.853,13.425q-2.418-2.395-4.838-4.786c-.189-.186-.26-.317-.03-.535,1.26-1.192,2.383-2.529,3.754-3.6a6.042,6.042,0,0,1,6.355-.442,1.971,1.971,0,0,1,.289,1.53,7.358,7.358,0,0,1-2.309,4.95c-.861.8-1.666,1.665-2.507,2.489-.2.192-.359.477-.714.4" transform="translate(-37.053 -1.384)" fill="#fe4c4c"/>
        <path id="Trazado_136626" data-name="Trazado 136626" d="M98.371,13.919a30.053,30.053,0,0,0,4.216-4.386,6.476,6.476,0,0,0,1.025-4.98,6.118,6.118,0,0,1,2.8,8.056,7.384,7.384,0,0,1-1.31,1.839c-.916.941-1.857,1.858-2.78,2.792-.206.209-.348.356-.634.058-1.091-1.14-2.21-2.255-3.319-3.378" transform="translate(-40.571 -1.878)" fill="#f23939"/>
        <path id="Trazado_136627" data-name="Trazado 136627" d="M20.55,92.062c1.308,1.292,2.611,2.589,3.927,3.873.26.253.143.324-.11.445q-3.054,1.46-6.095,2.947a.425.425,0,0,1-.581-.087c-.722-.75-1.455-1.488-2.185-2.231,1.552-1.663,3.192-3.239,4.807-4.839a.4.4,0,0,1,.237-.109" transform="translate(-6.395 -37.969)" fill="#f3c791"/>
        <path id="Trazado_136628" data-name="Trazado 136628" d="M19.034,89.3c-1.529,1.689-3.2,3.239-4.8,4.857-.055.055-.161.061-.243.09-.665-.652-1.325-1.309-2-1.953a.422.422,0,0,1-.086-.58q1.49-3.042,2.948-6.1c.124-.259.2-.361.445-.105,1.237,1.27,2.488,2.527,3.734,3.789" transform="translate(-4.879 -35.205)" fill="#fdd8a7"/>
        <path id="Trazado_136629" data-name="Trazado 136629" d="M88.313,21.828c-1.622-1.606-3.239-3.216-4.869-4.815-.215-.212-.189-.337.012-.532.652-.633,1.294-1.279,1.928-1.93.187-.193.315-.243.532-.021,1.6,1.63,3.209,3.248,4.815,4.869.019.042.043.1.022.126a10.43,10.43,0,0,1-2.314,2.322c-.03.022-.083,0-.126-.019" transform="translate(-34.352 -5.932)" fill="#21d7dd"/>
        <path id="Trazado_136630" data-name="Trazado 136630" d="M91.836,25.348a23.834,23.834,0,0,0,2.418-2.429c1.139,1.123,2.274,2.25,3.419,3.367.19.185.183.308,0,.488-.669.653-1.335,1.309-1.982,1.982-.226.234-.354.147-.535-.038-1.1-1.128-2.213-2.249-3.32-3.372" transform="translate(-37.875 -9.452)" fill="#11b8c0"/>
        <path id="Trazado_136631" data-name="Trazado 136631" d="M4.819,106.907c-.15.06-.344.17-.2-.152.15-.346.3-.692.464-1.031.832-1.717,1.679-3.428,2.5-5.153.2-.425.35-.571.718-.151.468.532.977,1.028,1.468,1.538a.908.908,0,0,1-.333.481q-1.94,1.948-3.886,3.89c-.22.22-.487.38-.723.578" transform="translate(-1.883 -41.312)" fill="#333"/>
        <path id="Trazado_136632" data-name="Trazado 136632" d="M5,108.163c1.589-1.708,3.243-3.351,4.943-4.949.5.476.987.955,1.488,1.425.232.217.279.382-.062.534-2.142.957-4.179,2.135-6.369,2.99" transform="translate(-2.06 -42.568)" fill="#1a1a1a"/>
      </g>
    </g>
  </g>
</svg>
