<svg xmlns="http://www.w3.org/2000/svg" xmlns:xlink="http://www.w3.org/1999/xlink" width="105" height="105" viewBox="0 0 105 105">
  <defs>
    <clipPath id="clip-path">
      <rect id="Rect치ngulo_37613" data-name="Rect치ngulo 37613" width="61.847" height="57.073" fill="none"/>
    </clipPath>
  </defs>
  <g id="Grupo_159157" data-name="Grupo 159157" transform="translate(-790 -908)">
    <rect id="Rect치ngulo_36021" data-name="Rect치ngulo 36021" width="105" height="105" rx="52.5" transform="translate(790 908)" fill="#6b8dfc"/>
    <g id="Grupo_159156" data-name="Grupo 159156">
      <g id="Grupo_159147" data-name="Grupo 159147" transform="translate(812 932)">
        <g id="Grupo_159146" data-name="Grupo 159146" clip-path="url(#clip-path)">
          <path id="Trazado_136715" data-name="Trazado 136715" d="M61.847,38.795V40a3.206,3.206,0,0,1-3.4,2.819c-1.416.015-1.407.018-1.762,1.393a9.469,9.469,0,0,0,.186,5.284.88.88,0,0,0,1,.726,3.973,3.973,0,0,1,3.2,1.109,2.925,2.925,0,0,1,.787,1.7v1.207a3.266,3.266,0,0,1-3.354,2.829c-.141,0-.282,0-.422,0H5.764a5.693,5.693,0,0,1-4.222-1.608A4.842,4.842,0,0,1,0,51.918q0-5.4,0-10.8a4.85,4.85,0,0,1,2.361-4.168.771.771,0,0,0,.379-1.069,3.382,3.382,0,0,1,3.1-4.492c.181-.015.362-.013.543-.014,1.041-.008,1.1-.05,1.389-1.026a9.163,9.163,0,0,0-.043-5.462c-.27-.852-.3-.875-1.178-.879a4.143,4.143,0,0,1-2.627-.72A3.21,3.21,0,0,1,2.606,20a3.249,3.249,0,0,1,2.4-2.677,5.668,5.668,0,0,0,.936-.242A12.719,12.719,0,0,1,4.7,15.772a9.569,9.569,0,0,1-.119-12,9.4,9.4,0,0,1,6.5-3.654A17.107,17.107,0,0,1,13.183,0q14.449,0,28.9,0A4.668,4.668,0,0,1,44.2.388a3.5,3.5,0,0,1,1.952,3.447,3.428,3.428,0,0,1-2.968,3.043c-1.421.2-1.4.208-1.673,1.631a7.4,7.4,0,0,0,.192,3.162.877.877,0,0,0,.959.774,3.447,3.447,0,0,1,3.491,3.115,2.528,2.528,0,0,1-.074,1.074c-.1.381.036.508.413.507a16.878,16.878,0,0,1,2.467.1,5.443,5.443,0,0,1,4.742,5.45c.008,3.3-.009,6.6.008,9.893a5.61,5.61,0,0,1-.774,2.934c-.3.508-.264.558.327.56,1.79.006,3.58.012,5.369,0a3.4,3.4,0,0,1,2.682,1.276,2.806,2.806,0,0,1,.539,1.439" transform="translate(0)"/>
          <path id="Trazado_136716" data-name="Trazado 136716" d="M34.939,138.09c.439.4.871.816,1.317,1.213s.911.753,1.553.477.715-.85.717-1.452a1.881,1.881,0,0,1,.03-.236,1.1,1.1,0,0,1,.8-.2q13.8-.005,27.609,0c.808,0,.866.069.814.718a11.89,11.89,0,0,0,.584,4.154c.107.331.072.489-.314.432a1.645,1.645,0,0,0-.241,0q-23.562,0-47.124-.006c-.241,0-.523.121-.723-.137-.11-1.541-.02-3.084-.047-4.626,0-.27.17-.391.394-.463a2.486,2.486,0,0,1,.776-.071q3.491,0,6.981,0c.957,0,.957.006,1.055.917.34,1.136,1.181,1.4,2.09.632.52-.439,1.009-.915,1.512-1.374a3.076,3.076,0,0,1,2.217.017" transform="translate(-13.394 -92.781)" fill="#f8f6f7"/>
          <path id="Trazado_136717" data-name="Trazado 136717" d="M8.682,133.193A3.348,3.348,0,0,1,5.7,129.941q-.046-5.184,0-10.369a3.341,3.341,0,0,1,3.262-3.307c3.4-.059,6.792-.023,10.189-.038.322,0,.415.113.4.421-.019.6-.033,1.207,0,1.808.028.457-.087.613-.583.607-2.693-.027-5.386-.014-8.079-.012a2.125,2.125,0,0,0-2.4,2.407q0,3.315,0,6.632a2.141,2.141,0,0,0,1.667,2.338,2.365,2.365,0,0,0,.718.036q19.326,0,38.653,0c.161,0,.322.009.482,0,.386-.025.469.184.351.489a10.191,10.191,0,0,1-1.126,2.057.525.525,0,0,1-.469.227c-.161,0-.322,0-.482,0q-19.477,0-38.954,0a1.713,1.713,0,0,1-.656-.043" transform="translate(-3.823 -78.214)" fill="#fedf7c"/>
          <path id="Trazado_136718" data-name="Trazado 136718" d="M35.062,9.171a1,1,0,0,0-.649.875,3.927,3.927,0,0,1-2.607,0,1.018,1.018,0,0,0-1.145-.9c-3.073.014-6.146-.02-9.219.017A4.69,4.69,0,0,0,16.757,13.4a4.766,4.766,0,0,0,3.366,5.029,5.879,5.879,0,0,0,1.3.215,2.124,2.124,0,0,0,.657.035q9.48,0,18.959,0c.772,0,.833.053.582.771a4.19,4.19,0,0,1-1.018,2.07c-.119.011-.239.031-.358.031-6.228,0-12.455.023-18.682-.007A7.6,7.6,0,0,1,14,15.592c-1.069-4.461,2.362-9.179,6.767-9.3a1.683,1.683,0,0,1,.6-.04c6.4,0,12.809.007,19.214-.015a.908.908,0,0,1,1.04.743c.136.482.307.957.415,1.447.126.575,0,.715-.594.716-1.907,0-3.815,0-5.722,0a2.407,2.407,0,0,0-.659.031" transform="translate(-9.291 -4.194)" fill="#fedf7c"/>
          <path id="Trazado_136719" data-name="Trazado 136719" d="M65.77,83.15c-.281.009-.561.026-.842.026q-9.38,0-18.759.012c-.473,0-.622-.115-.588-.59a11.7,11.7,0,0,0,0-1.808c-.044-.531.161-.62.643-.612,1.748.029,3.5.012,5.247.01a3.712,3.712,0,0,0,.6-.028.825.825,0,0,0,.74-.882.812.812,0,0,0-.7-.853,3.9,3.9,0,0,0-.719-.043q-9.983,0-19.966.009c-.589,0-1.021-.028-.956-.777a2.913,2.913,0,0,0-.068-.6c.013-.285.246-.281.433-.311a4.847,4.847,0,0,1,.783-.024H63.832c1.77,0,2.133.358,2.135,2.107,0,1.166,0,2.333,0,3.5a1.173,1.173,0,0,1-.195.86" transform="translate(-20.457 -51.601)" fill="#f8f6f7"/>
          <path id="Trazado_136720" data-name="Trazado 136720" d="M36.718,72.875c.179-.2.414-.093.618-.093q10.316-.008,20.632,0c1.744,0,2.5-.753,2.5-2.5q0-3.288,0-6.575A2.083,2.083,0,0,0,58.153,61.4q-20.059,0-40.118,0a1.617,1.617,0,0,1-.885-.094c.323-.294.723-.2,1.094-.2q11.459-.009,22.917,0h9.649c.2,0,.4,0,.6-.009.309-.012.445-.149.356-.464-.011-.039-.022-.077-.032-.116-.4-1.583-.517-1.675-2.159-1.675q-15.59,0-31.179-.005c-.389,0-.812.111-1.149-.208a1.221,1.221,0,0,1,.65-.069c13.838,0,27.675.02,41.512-.012a3.682,3.682,0,0,1,3.87,3.874q-.129,4.672,0,9.351a3.656,3.656,0,0,1-3.826,3.854c-7.4-.039-14.8-.01-22.2-.012-.172,0-.362.069-.519-.071.285-.267.643-.189.976-.189,3.919-.006,7.838-.026,11.757.014a1.454,1.454,0,0,0,1.559-.994c.571-1.311.6-1.3-.79-1.3q-6.27,0-12.54,0a1.309,1.309,0,0,1-.978-.192" transform="translate(-11.541 -39.396)" fill="#7edaad"/>
          <path id="Trazado_136721" data-name="Trazado 136721" d="M58.792,27.807a10.86,10.86,0,0,0,.474,3.31c-.158.13-.322.076-.473.076q-13.5,0-27,0a2.845,2.845,0,0,1-2.934-1.931.755.755,0,0,1,.351-.879,3.387,3.387,0,0,1,2.175-.768c1.347-.006,2.695,0,4.042,0q11.131,0,22.261,0a1.572,1.572,0,0,1,1.1.19" transform="translate(-19.392 -18.577)" fill="#f8f6f7"/>
          <path id="Trazado_136722" data-name="Trazado 136722" d="M15.017,58.791c.261.007.522.021.783.021q16.223,0,32.445-.014c.573,0,.884.165,1.05.69s.335,1.029.531,1.533c.125.321.051.456-.294.442-.161-.007-.322,0-.482,0H15.337c-.14,0-.281.006-.422.009a1.359,1.359,0,0,1,.1-2.68" transform="translate(-9.307 -39.563)" fill="#a6e8a5"/>
          <path id="Trazado_136723" data-name="Trazado 136723" d="M106.056,131.243c.046-.546-.309-.527-.7-.526q-14.263.007-28.526,0c-.011-.661.008-1.325-.041-1.983-.039-.523.09-.7.665-.7,3.916.03,7.831.008,11.747.023a1.1,1.1,0,0,0,1.23-.813c0-.258.2-.285.372-.3a12.59,12.59,0,0,1,1.865,0c.177.013.37.053.376.3a1.09,1.09,0,0,0,1.233.808c3.921-.014,7.842-.007,11.762-.007h.726a16.549,16.549,0,0,0-.714,3.188" transform="translate(-51.672 -85.407)" fill="#dcd9eb"/>
          <path id="Trazado_136724" data-name="Trazado 136724" d="M58.48,21.271q-13.716,0-27.432,0a3.293,3.293,0,0,0-2.055.723c-.234.18-.481.38-.445.736a2.874,2.874,0,0,1,2.2-3.871,6.139,6.139,0,0,1,.9-.048q4.342-.005,8.683,0c.826,0,1.019-.148,1.263-.912H44.2c.19.757.4.912,1.3.912,4.272,0,8.544.012,12.815-.012.572,0,.655.116.493.652a15.178,15.178,0,0,0-.334,1.826" transform="translate(-19.08 -12.04)" fill="#dedbec"/>
          <path id="Trazado_136725" data-name="Trazado 136725" d="M64.8,80.511q0-2.413,0-4.826c0-1.068-.381-1.443-1.45-1.444q-16.591,0-33.182,0c-.248,0-.529-.1-.739.135l-.471-1.609h.627q18.121,0,36.242-.013c.6,0,.8.132.787.762-.04,2.13-.026,4.261-.007,6.391,0,.458-.1.683-.605.633-.4-.04-.8-.024-1.2-.033" transform="translate(-19.488 -48.962)" fill="#dcd9eb"/>
          <path id="Trazado_136726" data-name="Trazado 136726" d="M93.049,120.054c-.194-.259-.478-.164-.714-.143-.633.057-1.289-.183-1.9.139-.158-.82-.375-1-1.211-1-3.938,0-7.877-.012-11.815.012-.515,0-.655-.139-.615-.634a11.333,11.333,0,0,0,0-1.686c-.03-.443.143-.521.546-.52,4.642.013,9.283,0,13.925.01,2.43,0,4.86.024,7.29.036a6.171,6.171,0,0,1,.795,2.3c.079.368-.147.428-.458.426-1.44-.009-2.881-.005-4.322,0a1.86,1.86,0,0,0-.6.034.972.972,0,0,0-.927,1.027" transform="translate(-51.673 -78.207)" fill="#fedf7c"/>
          <path id="Trazado_136727" data-name="Trazado 136727" d="M57.74,101.644c-1.305-1.062-1.3-1.06-2.544.132-.477.459-.961.912-1.434,1.359-.162-.032-.127-.149-.127-.239q0-7.56,0-15.12a1.75,1.75,0,0,1,.049-.292c1.278-.131,2.56-.023,3.84-.058.261-.007.344.164.387.374a3.558,3.558,0,0,1,.039.72q0,6.048,0,12.1c0,.351.083.731-.206,1.029" transform="translate(-36.091 -58.827)" fill="#ea5468"/>
          <path id="Trazado_136728" data-name="Trazado 136728" d="M14.856,162.409c.241-.006.482-.016.723-.016q19.427,0,38.853.015a1.061,1.061,0,0,0,1.107-.692c.24-.507.514-1,.8-1.484.247-.423.086-.527-.329-.49-.139.012-.281,0-.422,0q-19.245,0-38.491,0c-.252,0-.525.087-.756-.1.562,0,1.125.01,1.688.01q24.968,0,49.936.007a5.2,5.2,0,0,1,.959.063,1.368,1.368,0,0,1,1.111,1.319,1.411,1.411,0,0,1-.985,1.366,2.4,2.4,0,0,1-.774.085q-26.325,0-52.65,0a1.429,1.429,0,0,1-.766-.086" transform="translate(-9.997 -107.43)" fill="#fecf64"/>
          <path id="Trazado_136729" data-name="Trazado 136729" d="M76.863,102.365l14.4.007c.723,0,.718,0,.439.69-.264.651-.426,1.46-.954,1.842s-1.322.108-2,.11c-3.958.014-7.916.011-11.873.014a13.7,13.7,0,0,1-.017-2.664" transform="translate(-51.686 -68.885)" fill="#a6e7a5"/>
          <path id="Trazado_136730" data-name="Trazado 136730" d="M49.391,9.1c.192-.166.424-.094.637-.095C51.917,9,53.806,9,55.7,9c.614,0,.656-.066.475-.672-.149-.5-.328-.99-.443-1.5-.11-.484-.366-.609-.851-.608q-9.526.026-19.053.01c-.241,0-.482-.013-.722-.02a1.593,1.593,0,0,1,.77-.082q15.082,0,30.164,0c1.157,0,1.881.688,1.749,1.646a1.409,1.409,0,0,1-1.2,1.248,5.5,5.5,0,0,1-.841.047q-8.174.014-16.349.023" transform="translate(-23.62 -4.122)" fill="#fdcf63"/>
          <path id="Trazado_136731" data-name="Trazado 136731" d="M56.28,47a22.555,22.555,0,0,0,.93-2.342c.109-.331.068-.453-.32-.448-1.546.019-3.092.008-4.638.008q-7.228,0-14.455,0c-.233,0-.484.08-.7-.091.2-.007.4-.019.6-.019l29.564,0a2.5,2.5,0,0,1,.951.113,1.455,1.455,0,0,1,.911,1.539,1.413,1.413,0,0,1-1.267,1.251,6.655,6.655,0,0,1-.723.023q-5.129,0-10.257,0c-.2,0-.4-.021-.6-.031" transform="translate(-24.965 -29.682)" fill="#fecf64"/>
          <path id="Trazado_136732" data-name="Trazado 136732" d="M129.341,119.039a2,2,0,0,1,1.055-.088c1.2-.016,2.4-.043,3.6.009.615.026.63-.191.5-.679a15.626,15.626,0,0,1-.577-2c1.184-.012,2.368-.033,3.552-.035,2.672,0,5.344-.011,8.016,0a1.4,1.4,0,0,1,1.461,1.951,1.372,1.372,0,0,1-1.337.857q-8.136,0-16.272-.014" transform="translate(-87.038 -78.219)" fill="#fecf64"/>
          <path id="Trazado_136733" data-name="Trazado 136733" d="M19.987,102.061c1.528,0,3.056.012,4.584-.009.375,0,.491.106.475.477-.027.642-.019,1.287,0,1.93.008.3-.067.433-.4.432-3.116-.009-6.232.005-9.349-.014a1.382,1.382,0,0,1-1.466-1.424,1.415,1.415,0,0,1,1.51-1.387c1.548-.015,3.1,0,4.644,0" transform="translate(-9.308 -68.674)" fill="#a6e8a5"/>
          <path id="Trazado_136734" data-name="Trazado 136734" d="M57.845,101.567q.006-6.828.019-13.656c0-.407-.145-.511-.526-.5-1.183.017-2.366,0-3.55,0a4.223,4.223,0,0,1,1.478-.076c1.245-.018,2.49.007,3.734-.007.369,0,.534.074.532.495q-.022,7.5-.014,15c0,.074-.01.147-.027.379l-1.646-1.628" transform="translate(-36.196 -58.75)" fill="#e3384e"/>
          <path id="Trazado_136735" data-name="Trazado 136735" d="M29.023,133.757c-.026-.692-.446-.742-1.029-.735-2.429.032-4.859.012-7.289.014-.791,0-.818.032-.822.808q-.008,2.078-.019,4.155c-.158-.148-.087-.341-.087-.512,0-2.151.018-4.3-.007-6.452-.006-.535.166-.682.691-.677q4.01.036,8.02,0c.457,0,.577.116.559.566-.039.943-.015,1.888-.017,2.833" transform="translate(-13.298 -87.723)" fill="#dcd9eb"/>
          <path id="Trazado_136736" data-name="Trazado 136736" d="M28.945,90.394a12.54,12.54,0,0,0,.6-2.685c.019-.24.125-.3.341-.3q2.5.005,4.994,0c.272,0,.334.119.331.365-.011.762-.008,1.524,0,2.286,0,.206-.026.341-.284.341-1.98-.006-3.96,0-5.981,0" transform="translate(-19.478 -58.818)" fill="#f8f6f7"/>
          <path id="Trazado_136737" data-name="Trazado 136737" d="M61.31,136.6l-2.217-.017a.178.178,0,0,1,.024-.054c1.086-1.172,1.086-1.172,2.194.072" transform="translate(-39.766 -91.287)" fill="#d9d6e8"/>
        </g>
      </g>
    </g>
  </g>
</svg>
