<svg xmlns="http://www.w3.org/2000/svg" xmlns:xlink="http://www.w3.org/1999/xlink" width="105" height="105" viewBox="0 0 105 105">
  <defs>
    <clipPath id="clip-path">
      <rect id="Rect치ngulo_37615" data-name="Rect치ngulo 37615" width="63.97" height="57.546" fill="none"/>
    </clipPath>
  </defs>
  <g id="Grupo_159152" data-name="Grupo 159152" transform="translate(-790 -1042)">
    <rect id="Rect치ngulo_36022" data-name="Rect치ngulo 36022" width="105" height="105" rx="52.5" transform="translate(790 1042)" fill="#6b8dfc"/>
    <g id="Grupo_159151" data-name="Grupo 159151" transform="translate(811 1066.001)">
      <g id="Grupo_159150" data-name="Grupo 159150" transform="translate(0 -0.001)" clip-path="url(#clip-path)">
        <path id="Trazado_136761" data-name="Trazado 136761" d="M60.776,40.732a15.788,15.788,0,0,1-1.328,3.438c-.142.3-.262.612-.392.918-.294.132-.49-.085-.7-.21a5.122,5.122,0,0,0-6.928,7.234c.188.3.509.537.474.948a21.655,21.655,0,0,1-6.891,3.452.674.674,0,0,1-.362-.275c-.27-.311-.58-.54-1.012-.363a.937.937,0,0,0-.6.915c0,.125.02.261-.111.347a29.163,29.163,0,0,1-6.089.63c-.42-.1-.594-.475-.842-.761a.53.53,0,0,1,.017-.714c.123-.168.274-.312.4-.48a.875.875,0,0,0,.012-1.207c-.335-.364-.75-.266-1.15-.089a.362.362,0,0,0-.131.083c-.557.661-1.071.61-1.68.012a.848.848,0,0,0-1.264,0c-.415.446-.225.9.111,1.328.619.788.611.843-.047,1.211a23.8,23.8,0,0,1-9.139-4.091c-.035-.412.284-.652.473-.948a5.1,5.1,0,0,0-3.437-7.965,4.818,4.818,0,0,0-3.295.606c-.28.155-.51.469-.9.335-.468-1.084-.937-2.167-1.4-3.253a2.888,2.888,0,0,1-.319-1.1c.278-.267.632-.2.961-.2,1.168-.011,2.337.009,3.5-.008,1.328-.018,1.658-.442,1.485-1.729a7.431,7.431,0,0,0-3.311-5.315c-.608-.421-.613-.507-.128-1.086a5.035,5.035,0,0,0-1.307-7.924c-.234-.142-.546-.215-.586-.564a20.789,20.789,0,0,1,1.722-3.448c.308-.338.721-.239,1.1-.241,2.36-.01,4.72,0,7.079-.006a6.426,6.426,0,0,0,.855-.023,1.016,1.016,0,0,0,1.005-1.215,7.417,7.417,0,0,0-2.506-5.1c-.228-.2-.521-.362-.516-.731A5.072,5.072,0,0,1,25.229,12a24.01,24.01,0,0,1,8.91-3.081,24.966,24.966,0,0,1,10.231.755A27.128,27.128,0,0,1,50.659,12.5c.278.166.624.287.763.635.012.336-.242.5-.455.682a7.42,7.42,0,0,0-2.551,4.842c-.138,1.06.226,1.532,1.295,1.543,2.543.026,5.086,0,7.629.014.376,0,.789-.1,1.1.241l1.855,3.415c.024.363-.3.378-.51.49a5.04,5.04,0,0,0-1.517,8.029c.492.587.5.657-.187,1.136A7.455,7.455,0,0,0,54.8,38.95c-.129,1.061.21,1.53,1.278,1.567,1.245.042,2.492,0,3.738.017.329,0,.682-.069.961.2" transform="translate(-5.526 -3.375)" fill="#d1dcfe"/>
        <path id="Trazado_136762" data-name="Trazado 136762" d="M79.956,17.086,71.3,17.056c-1.384,0-1.73-.428-1.578-1.821a7.846,7.846,0,0,1,3.217-5.471,1.6,1.6,0,0,0,.693-.428A5.316,5.316,0,0,1,71.841,4.9a5.15,5.15,0,0,1,1.7-3.489,5.333,5.333,0,0,1,7.342.113,5.388,5.388,0,0,1-.212,7.841c.238.162.472.313.7.474a7.454,7.454,0,0,1,3.224,5.624c.11,1.149-.294,1.584-1.439,1.595l-3.2.029" transform="translate(-27.045 0)"/>
        <path id="Trazado_136763" data-name="Trazado 136763" d="M9.331,33.384a5.406,5.406,0,0,1,1.626,9.09A7.586,7.586,0,0,1,14.9,48.426c.146,1.284-.236,1.727-1.516,1.738q-2.334.019-4.668.045-3.547-.024-7.093-.046C.244,50.154-.133,49.715.039,48.339a7.573,7.573,0,0,1,3.94-5.864A5.336,5.336,0,0,1,8.872,33.3c.151.039.305.059.458.088" transform="translate(0 -12.851)"/>
        <path id="Trazado_136764" data-name="Trazado 136764" d="M86.348,50.241c-1.533-.015-3.067-.034-4.6-.044-1.379-.009-1.746-.444-1.574-1.83a7.537,7.537,0,0,1,3.856-5.811c.039-.2-.133-.265-.228-.367a5.293,5.293,0,0,1,1.869-8.68,1.234,1.234,0,0,0,.193-.124c3.247-.7,5.85.61,6.783,3.4.661,1.983.215,3.677-1.529,5.734a7.412,7.412,0,0,1,3.71,4.853c.521,2.348.363,2.921-2.163,2.839-2.1-.069-4.211.014-6.316.029" transform="translate(-31.098 -12.884)"/>
        <path id="Trazado_136765" data-name="Trazado 136765" d="M22.126,9.766a7.809,7.809,0,0,1,3.213,5.471c.151,1.4-.187,1.815-1.575,1.819l-8.653.03c-1.09-.01-2.18-.017-3.271-.031-1.049-.013-1.458-.446-1.371-1.506a7.432,7.432,0,0,1,3.4-5.828l.515-.345c-2.347-2.732-2.37-5.85-.075-7.968a5.331,5.331,0,1,1,7.151,7.907,1.134,1.134,0,0,0,.661.452" transform="translate(-4.059 0)"/>
        <path id="Trazado_136766" data-name="Trazado 136766" d="M73.414,75.373a5.427,5.427,0,0,1-1.523-4.712,5.321,5.321,0,0,1,8.361-3.471c.105.073.214.141.32.211,2.423,2.51,2.562,5.244.366,7.83-.285.337-.179.424.117.611a7.422,7.422,0,0,1,3.519,5.6c.176,1.366-.2,1.794-1.591,1.795q-5.883,0-11.767,0c-1.3,0-1.646-.418-1.5-1.73a7.458,7.458,0,0,1,3.46-5.635c.284-.188.283-.189.237-.493" transform="translate(-27.043 -25.688)"/>
        <path id="Trazado_136767" data-name="Trazado 136767" d="M14.488,67.4c2.508-1.674,5.036-1.611,7,.174a5.3,5.3,0,0,1,.731,7.065c-.182.251-.381.49-.572.733-.4.4.119.4.246.482A7.556,7.556,0,0,1,25.18,80.5c.012.05.034.1.045.149.459,2.172.13,2.577-2.085,2.577q-5.572,0-11.144,0c-1.293,0-1.668-.429-1.518-1.72a7.508,7.508,0,0,1,3.456-5.642c.19-.127.592-.133.239-.584-2.252-2.872-2.142-5.3.315-7.885" transform="translate(-4.054 -25.686)"/>
        <path id="Trazado_136768" data-name="Trazado 136768" d="M43.35,85.945c.756-.4.313-.736-.057-1.086A1.078,1.078,0,0,1,43,83.4a1.018,1.018,0,0,1,1.22-.445,1.575,1.575,0,0,1,.789.608c.276.33.5.381.781.012A2.084,2.084,0,0,1,46.3,83.1a1,1,0,0,1,1.351.108.986.986,0,0,1,.122,1.346,1.289,1.289,0,0,1-.309.348c-.551.391-.5.745.015,1.129a3.034,3.034,0,0,1,.45.527,1.093,1.093,0,0,1-.523,1.333,1.158,1.158,0,0,1-1.506-.43c-.3-.362-.526-.538-.944-.069-.637.715-1.246.8-1.745.379-.537-.452-.5-1.005.139-1.828" transform="translate(-16.619 -32.167)"/>
        <path id="Trazado_136769" data-name="Trazado 136769" d="M61.087,86.884c-.158-.8.059-1.307.677-1.48.756-.212,1.135.244,1.4.856a1.179,1.179,0,0,1-.833,1.179,1.1,1.1,0,0,1-1.248-.554" transform="translate(-23.687 -33.122)" fill="#4e2721"/>
        <path id="Trazado_136770" data-name="Trazado 136770" d="M64.851,4.57a1.062,1.062,0,1,1-1.068-1.106A1.094,1.094,0,0,1,64.851,4.57" transform="translate(-24.343 -1.344)" fill="#4e261f"/>
        <path id="Trazado_136771" data-name="Trazado 136771" d="M50.746,52.008c0,1.145.013,2.29,0,3.435-.012.833-.365,1.188-1.194,1.193q-3.045.017-6.089,0c-.863,0-1.2-.36-1.209-1.258-.02-2.081-.07-4.162-.026-6.24a8.1,8.1,0,0,0-2.3-6A8.824,8.824,0,0,1,38.567,32.6a8.652,8.652,0,0,1,8.53-4.678,8.524,8.524,0,0,1,7.677,5.405A8.591,8.591,0,0,1,53.355,42.8a9.3,9.3,0,0,0-2.582,5.619c-.05,1.194-.009,2.391-.009,3.587h-.019" transform="translate(-14.516 -10.826)"/>
        <path id="Trazado_136772" data-name="Trazado 136772" d="M52.637,21.334a7.9,7.9,0,0,1-.009,1.09,1.014,1.014,0,0,1-1.1.983.985.985,0,0,1-1.016-.983,15.467,15.467,0,0,1,0-2.259.976.976,0,0,1,1.016-.978,1.006,1.006,0,0,1,1.1.98,8.447,8.447,0,0,1,.01,1.168" transform="translate(-19.587 -7.445)" fill="#4d251e"/>
        <path id="Trazado_136773" data-name="Trazado 136773" d="M45.72,25.829a3.455,3.455,0,0,1-2.145-2.112.99.99,0,0,1,.559-.953.932.932,0,0,1,1.1.079,14.356,14.356,0,0,1,1.317,1.322.947.947,0,0,1,.067,1.1,1.031,1.031,0,0,1-.9.565" transform="translate(-16.91 -8.779)" fill="#4d251e"/>
        <path id="Trazado_136774" data-name="Trazado 136774" d="M57.885,22.637a1.082,1.082,0,0,1,.924.542.923.923,0,0,1-.047,1.1,12.76,12.76,0,0,1-1.374,1.372.9.9,0,0,1-1.1.026.991.991,0,0,1-.508-.9,3.306,3.306,0,0,1,2.1-2.134" transform="translate(-21.648 -8.784)" fill="#4d251e"/>
        <path id="Trazado_136775" data-name="Trazado 136775" d="M78.622,21.655c-1.533,0-3.067-.015-4.6.009-.536.008-.6-.154-.441-.639a5.329,5.329,0,0,1,10.088,0c.159.491.081.646-.447.639-1.533-.023-3.066-.008-4.6-.008" transform="translate(-28.526 -6.758)" fill="#bc53b4"/>
        <path id="Trazado_136776" data-name="Trazado 136776" d="M79.846,9.82a3.11,3.11,0,0,1-3.167-3.135,3.188,3.188,0,1,1,6.376-.053A3.152,3.152,0,0,1,79.846,9.82" transform="translate(-29.757 -1.34)" fill="#fee7db"/>
        <path id="Trazado_136777" data-name="Trazado 136777" d="M8.867,54.789c-1.505,0-3.011-.014-4.516.008-.509.007-.631-.127-.468-.631a5.351,5.351,0,0,1,10.125,0c.168.512.032.633-.469.626-1.557-.02-3.115-.007-4.672-.007" transform="translate(-1.481 -19.617)" fill="#a8b95a"/>
        <path id="Trazado_136778" data-name="Trazado 136778" d="M13.363,39.769a3.185,3.185,0,1,1-3.141-3.2,3.185,3.185,0,0,1,3.141,3.2" transform="translate(-2.714 -14.191)" fill="#fee7db"/>
        <path id="Trazado_136779" data-name="Trazado 136779" d="M89.1,54.79c-1.53,0-3.061-.02-4.592.01-.583.012-.654-.172-.472-.683A5.348,5.348,0,0,1,94.1,54.072c.2.538.14.742-.488.729-1.5-.032-3.009-.01-4.514-.01" transform="translate(-32.577 -19.618)" fill="#e56353"/>
        <path id="Trazado_136780" data-name="Trazado 136780" d="M87.126,39.743a3.184,3.184,0,1,1,3.12,3.22,3.183,3.183,0,0,1-3.12-3.22" transform="translate(-33.811 -14.191)" fill="#fee7db"/>
        <path id="Trazado_136781" data-name="Trazado 136781" d="M19.351,21.66c-1.505,0-3.012-.021-4.517.01-.577.012-.648-.149-.47-.671a5.334,5.334,0,0,1,10.088.032c.2.6-.012.642-.507.636-1.531-.02-3.063-.007-4.594-.007" transform="translate(-5.541 -6.758)" fill="#9cc0e3"/>
        <path id="Trazado_136782" data-name="Trazado 136782" d="M20.579,9.82A3.145,3.145,0,0,1,17.43,6.652a3.188,3.188,0,1,1,6.375.013A3.115,3.115,0,0,1,20.579,9.82" transform="translate(-6.764 -1.34)" fill="#fee7db"/>
        <path id="Trazado_136783" data-name="Trazado 136783" d="M78.614,87.878c-1.534,0-3.068-.014-4.6.008-.521.007-.617-.135-.455-.635a5.327,5.327,0,0,1,10.1-.075c.2.581.071.722-.516.711-1.507-.029-3.016-.01-4.524-.01" transform="translate(-28.518 -32.437)" fill="#fecd56"/>
        <path id="Trazado_136784" data-name="Trazado 136784" d="M79.868,76.037a3.17,3.17,0,1,1-.018-6.34,3.175,3.175,0,0,1,3.2,3.208,3.133,3.133,0,0,1-3.184,3.132" transform="translate(-29.757 -27.047)" fill="#fee7db"/>
        <path id="Trazado_136785" data-name="Trazado 136785" d="M19.413,87.9c-1.482,0-2.965-.027-4.446.012-.711.018-.8-.228-.565-.829a5.331,5.331,0,0,1,10.092.222c.161.479-.035.6-.477.6-1.534-.011-3.069,0-4.6,0" transform="translate(-5.544 -32.436)" fill="#6b4f5b"/>
        <path id="Trazado_136786" data-name="Trazado 136786" d="M20.607,69.7a3.15,3.15,0,0,1,3.2,3.2,3.188,3.188,0,0,1-6.376-.044A3.175,3.175,0,0,1,20.607,69.7" transform="translate(-6.764 -27.047)" fill="#fee7db"/>
        <path id="Trazado_136787" data-name="Trazado 136787" d="M48.947,46.01c-.61-1.812.461-3.3,2.058-4.57a5.525,5.525,0,0,0,.822-.831,1.012,1.012,0,0,0-.026-1.474.965.965,0,0,0-1.461-.018c-.65.6-1.294,1.21-1.881,1.869-.419.471-.7.545-1.15.026a24.136,24.136,0,0,0-1.764-1.767c-.6-.567-1.176-.583-1.641-.088a1.084,1.084,0,0,0,.14,1.593q1.169,1.2,2.375,2.37A1.121,1.121,0,0,1,46.8,44c-.018,1.613-.014,3.226,0,4.839,0,.357-.03.6-.49.576-.379-.016-.6-.042-.649-.525a9.787,9.787,0,0,0-2.8-5.863,6.859,6.859,0,0,1-1.134-7.951,6.915,6.915,0,0,1,12.96,2A6.565,6.565,0,0,1,53.13,42.75a11.206,11.206,0,0,0-3.059,6.264c-.058.51-.392.366-.676.395-.334.034-.459-.11-.453-.447.015-.858,0-1.717,0-2.952" transform="translate(-15.887 -12.164)" fill="#fecd56"/>
        <path id="Trazado_136788" data-name="Trazado 136788" d="M50.949,64.406c.494,0,.989.016,1.483-.006.41-.018.63.088.62.558-.023,1.067-.017,2.134,0,3.2.006.39-.124.57-.537.564-1.067-.015-2.134-.018-3.2,0-.444.009-.584-.165-.587-.6,0-.457.235-.5.59-.491.494.014.99.023,1.483,0a1.075,1.075,0,1,0,0-2.145c-.52-.016-1.041-.02-1.561,0-.365.014-.516-.113-.5-.491.01-.356.054-.611.5-.595.572.02,1.144,0,1.717,0" transform="translate(-18.909 -24.991)" fill="#b39f9a"/>
      </g>
    </g>
  </g>
</svg>
