<svg xmlns="http://www.w3.org/2000/svg" xmlns:xlink="http://www.w3.org/1999/xlink" width="105" height="105" viewBox="0 0 105 105">
  <defs>
    <clipPath id="clip-path">
      <rect id="Rect치ngulo_37616" data-name="Rect치ngulo 37616" width="58.745" height="58.761" fill="none"/>
    </clipPath>
  </defs>
  <g id="Grupo_159155" data-name="Grupo 159155" transform="translate(-790 -1176)">
    <rect id="Rect치ngulo_36023" data-name="Rect치ngulo 36023" width="105" height="105" rx="52.5" transform="translate(790 1176)" fill="#6b8dfc"/>
    <g id="Grupo_159154" data-name="Grupo 159154" transform="translate(813 1199)">
      <g id="Grupo_159153" data-name="Grupo 159153" clip-path="url(#clip-path)">
        <path id="Trazado_136789" data-name="Trazado 136789" d="M23.954,0h23.61a3.977,3.977,0,0,1,3.653,3.327,7.523,7.523,0,0,1,.061,2.285,3.874,3.874,0,0,0,.716,2.409c2.115,3.3,4.193,6.614,6.282,9.926a3,3,0,0,1,.468,1.673Q58.73,38.361,58.736,57.1a3.6,3.6,0,0,1-.038.741,1.017,1.017,0,0,1-.963.9c-.171.017-.344,0-.515,0q-25.129,0-50.257.016A7.211,7.211,0,0,1,.3,54.118,10.745,10.745,0,0,1,0,52.384v-23.5a1.517,1.517,0,0,1,1.6-.852q5.067,0,10.134,0c1.051,0,1.051,0,1.052-1.069,0-2.4.009-4.81-.007-7.215a3.05,3.05,0,0,1,.513-1.719c2.211-3.479,4.4-6.971,6.607-10.454a2.146,2.146,0,0,0,.342-1.186,19.033,19.033,0,0,1,.079-2.515A4.131,4.131,0,0,1,23.954,0"/>
        <path id="Trazado_136790" data-name="Trazado 136790" d="M99.12,20.219l3.729,5.912c.784,1.242,1.563,2.486,2.353,3.724a1.6,1.6,0,0,1,.275.9q-.013,17.9,0,35.807c0,.406-.064.586-.519.543a8.631,8.631,0,0,0-1.488,0c-.428.035-.538-.1-.535-.528.022-2.845.012-5.691.008-8.536a2.851,2.851,0,0,0-.061-.68,1.119,1.119,0,0,0-2.168,0,2.853,2.853,0,0,0-.059.68c0,2.845-.014,5.691.009,8.536,0,.442-.124.528-.539.524q-3.437-.032-6.874,0c-.44,0-.526-.121-.526-.539q.018-17.933.008-35.864A1.233,1.233,0,0,1,92.9,30q3.03-4.785,6.048-9.577a2.342,2.342,0,0,1,.168-.2" transform="translate(-49.08 -10.702)" fill="#4db9f5"/>
        <path id="Trazado_136791" data-name="Trazado 136791" d="M21.343,83.534c0,4.069.066,8.139-.008,12.206a4.772,4.772,0,0,1-4.874,4.749q-3.351.057-6.7,0a4.838,4.838,0,0,1-4.891-4.922c-.034-3.5,0-6.992-.019-10.488,0-.4.165-.41.469-.409,2.063.01,4.126.007,6.189,0,.951,0,1.266-.243,1.5-1.141a.9.9,0,0,1,.7-.174,16.411,16.411,0,0,1,1.99.041c.225.053.326.23.432.417.522.925,1.3.923,1.853,0a.936.936,0,0,1,.237-.316,6.36,6.36,0,0,1,3.123.036" transform="translate(-2.565 -44.101)" fill="#fefefe"/>
        <path id="Trazado_136792" data-name="Trazado 136792" d="M45.41,43.335c4.18,0,8.361.006,12.541-.01.418,0,.543.086.54.526q-.033,4.467,0,8.934c0,.431-.107.533-.534.532q-9.62-.023-19.241,0c-.442,0-.53-.121-.522-.537.022-1.322-.329-1.652-1.657-1.652-1.26,0-2.52-.01-3.78.007-.32,0-.417-.082-.415-.41.014-2.329.023-4.658-.006-6.987-.006-.483.253-.405.534-.405H45.41" transform="translate(-17.114 -22.931)" fill="#72d7fe"/>
        <path id="Trazado_136793" data-name="Trazado 136793" d="M63.316,22.6c-1.045,1.66-2.037,3.217-3,4.79-.187.3-.432.252-.687.252q-9.222,0-18.443,0H34.548c-.1-.173.045-.26.107-.359q2.8-4.452,5.6-8.9A.649.649,0,0,1,40.884,18q12.514.016,25.029.008c.07,0,.139.007.28.014-.464.744-.9,1.43-1.322,2.122-.146.238-.37.153-.565.153q-5.613.007-11.226,0a3.782,3.782,0,0,0-.571.02,1.133,1.133,0,0,0,.013,2.253,3.983,3.983,0,0,0,.571.018H63.316" transform="translate(-18.268 -9.529)" fill="#c8f2fe"/>
        <path id="Trazado_136794" data-name="Trazado 136794" d="M40.84,108.535a7.669,7.669,0,0,0,1.873-5.651c-.047-1.278.006-2.56-.018-3.839-.007-.364.1-.437.448-.437q9.683.016,19.366,0c.364,0,.483.08.481.467q-.025,4.527,0,9.054c0,.317-.03.469-.42.469q-10.771-.02-21.544-.012a1.079,1.079,0,0,1-.183-.051" transform="translate(-21.616 -52.192)" fill="#72d7fe"/>
        <path id="Trazado_136795" data-name="Trazado 136795" d="M21.344,73.711l-2.559,0a1,1,0,0,0-.6.108c-.177-.1-.161-.291-.227-.442a.961.961,0,0,0-.87-.638.924.924,0,0,0-.883.526c-.089.163-.122.369-.329.445l-2.861,0c-.229-.905-.542-1.149-1.493-1.15-2.063,0-4.126-.009-6.189.007-.358,0-.484-.069-.481-.46.02-2.311.016-4.623,0-6.935,0-.321.084-.412.409-.411q7.851.016,15.7,0c.26,0,.411.009.409.351-.02,2.865-.021,5.73-.027,8.6" transform="translate(-2.566 -34.277)" fill="#c8f2fe"/>
        <path id="Trazado_136796" data-name="Trazado 136796" d="M45.938,75.214c0,1.033-.019,2.005.006,2.977a1.143,1.143,0,0,0,1.511,1.2,1.052,1.052,0,0,0,.763-1.032q.018-3.266,0-6.531a1.036,1.036,0,0,0-.746-.986,1.026,1.026,0,0,0-1.2.294c-.346.379-.651.8-.964,1.183a.714.714,0,0,1-.539-.864,9.252,9.252,0,0,0,0-1.545c-.031-.418.077-.541.519-.536,2.329.026,4.659.012,6.988.012,4.087,0,8.173.008,12.259-.011.43,0,.532.1.53.532q-.029,5.213,0,10.427c0,.44-.118.526-.536.525q-9.624-.021-19.248,0c-.376,0-.523-.054-.515-.481.029-1.546.021-3.094,0-4.64,0-.337.042-.488.421-.381a1.17,1.17,0,0,0,.743-.145" transform="translate(-23.693 -36.72)" fill="#fefefe"/>
        <path id="Trazado_136797" data-name="Trazado 136797" d="M61.359,8.763c-4.162,0-8.324-.008-12.486.011-.468,0-.646-.1-.6-.59s-.011-.994.031-1.487a1.891,1.891,0,0,1,1.961-1.829c.8-.014,1.6,0,2.406,0H72.089c1.628,0,2.332.7,2.322,2.336,0,.506.225,1.181-.1,1.472-.283.251-.942.087-1.436.088q-5.756,0-11.512,0" transform="translate(-25.548 -2.573)" fill="#72d7fe"/>
        <path id="Trazado_136798" data-name="Trazado 136798" d="M111.863,89.584a1.139,1.139,0,0,1-2.279.013,1.139,1.139,0,1,1,2.279-.013" transform="translate(-58.002 -46.816)" fill="#010102"/>
        <path id="Trazado_136799" data-name="Trazado 136799" d="M28.268,82.481a1.475,1.475,0,0,1,.553-.946c.8-.506,1.654,0,1.755,1.055a1.208,1.208,0,0,1-1.109,1.029c-.565.016-.963-.361-1.2-1.138" transform="translate(-14.962 -43.051)" fill="#010101"/>
        <path id="Trazado_136800" data-name="Trazado 136800" d="M77.554,73.46c.212-.246.407-.5.635-.729a1.136,1.136,0,0,1,1.594-.11,1.122,1.122,0,0,1,.144,1.551c-.525.7-1.081,1.382-1.663,2.037-.305.343-.368.575-.019.944.548.581,1.035,1.221,1.536,1.846a1.162,1.162,0,1,1-1.766,1.459c-.148-.173-.292-.351-.435-.523-.155.043-.138.173-.171.272a1.123,1.123,0,0,1-1.213.819,1.11,1.11,0,0,1-.985-1.088c-.027-1.03-.014-2.06-.015-3.091s0-2.06,0-3.091c0-.829.325-1.285.97-1.4.6-.1,1.025.229,1.3,1,.012.032.048.056.086.1" transform="translate(-39.799 -38.289)"/>
        <path id="Trazado_136801" data-name="Trazado 136801" d="M63.652,76.666q0-1.374,0-2.748a4,4,0,0,1,.016-.457,1.167,1.167,0,0,1,1.14-1.13,1.14,1.14,0,0,1,1.118,1.147c.037.647.016,1.3.018,1.946,0,.725,0,1.45,0,2.175a2.551,2.551,0,0,0,.036,1.017c.15.31.585.078.889.157a1.2,1.2,0,0,1,.948,1.14A1.106,1.106,0,0,1,66.831,81a13.807,13.807,0,0,1-2.17,0c-.655-.053-.991-.526-1-1.306-.018-1.011,0-2.023,0-3.034" transform="translate(-33.688 -38.284)"/>
        <path id="Trazado_136802" data-name="Trazado 136802" d="M55.756,76.686c0-.991-.005-1.982,0-2.973.006-.829.454-1.363,1.134-1.372s1.152.529,1.155,1.35q.01,3,0,6c0,.818-.482,1.357-1.161,1.343a1.189,1.189,0,0,1-1.126-1.321c-.01-1.01,0-2.02,0-3.03" transform="translate(-29.51 -38.289)"/>
      </g>
    </g>
  </g>
</svg>
