<svg xmlns="http://www.w3.org/2000/svg" xmlns:xlink="http://www.w3.org/1999/xlink" width="105" height="105" viewBox="0 0 105 105">
  <defs>
    <clipPath id="clip-path">
      <rect id="Rect치ngulo_37619" data-name="Rect치ngulo 37619" width="55.684" height="63.244" fill="none"/>
    </clipPath>
  </defs>
  <g id="Grupo_159186" data-name="Grupo 159186" transform="translate(-3921 10504)">
    <rect id="Rect치ngulo_37510" data-name="Rect치ngulo 37510" width="105" height="105" rx="52.5" transform="translate(3921 -10504)" fill="#6b8dfc"/>
    <g id="Grupo_159168" data-name="Grupo 159168" transform="translate(3946 -10483)">
      <g id="Grupo_159167" data-name="Grupo 159167" clip-path="url(#clip-path)">
        <path id="Trazado_136859" data-name="Trazado 136859" d="M32.027,62.295a1.073,1.073,0,0,1-1.238.946Q16,63.227,1.215,63.233C.432,63.233,0,62.894,0,62.3s.431-.941,1.208-.944c1.255,0,2.51-.014,3.764.006.361.006.48-.1.55-.467a7.767,7.767,0,0,1,3.616-5.334,1.289,1.289,0,0,0,.523-.578,6.2,6.2,0,0,1,5.6-3.836.68.68,0,0,0,.612-.387,5.692,5.692,0,0,1,5.01-2.849.678.678,0,0,0,.619-.278,7.775,7.775,0,0,1,4.967-3.047c.4-.073.435-.228.433-.558-.012-2.151-.021-4.3.006-6.452.006-.467-.157-.544-.572-.54a17.3,17.3,0,0,1-5.655-.517,12.007,12.007,0,0,1-5.247-3.361c-.578-.635-.595-.943-.1-1.644a1.112,1.112,0,0,1,1.481.354,9.99,9.99,0,0,0,2.786,2.18c2.2,1.22,4.6,1.148,7,1.112.313,0,.294-.2.293-.4,0-.783.022-1.567,0-2.35a9.859,9.859,0,0,0-5.025-8.565c-2.257-1.369-4.765-1.38-7.285-1.328-.28.006-.335.137-.331.375a18.58,18.58,0,0,0,.3,4.74,1.06,1.06,0,0,1-.577,1.389A1.033,1.033,0,0,1,12.73,28.1a18.858,18.858,0,0,1-.358-4.872c0-.537-.008-1.075,0-1.612a.862.862,0,0,1,.842-.956c2.834-.049,5.688-.263,8.392.939A12.329,12.329,0,0,1,26.9,26.065c0-1.46,0-2.763,0-4.066,0-.23-.218-.325-.351-.465a28.992,28.992,0,0,1-3.353-3.657,11.545,11.545,0,0,1-1.683-3.771c-.178-.746-.04-1.019.685-1.362a.962.962,0,0,1,1.092.777c.585,2.682,2.361,4.559,4.264,6.358.237.224.378.22.6-.009.665-.7,1.39-1.337,2.015-2.067a9.824,9.824,0,0,0,2.283-8.621C31.9,6.321,30.029,4.359,28.03,2.467c-.152-.144-.255-.113-.392.019-1.848,1.775-3.671,3.567-4.272,6.2-.145.635-.456,1.065-1.178,1.037-.757-.389-.877-.635-.67-1.439a11.483,11.483,0,0,1,2.9-5.217Q25.732,1.714,27.079.4c.495-.485.97-.538,1.421-.092a37.592,37.592,0,0,1,3.634,3.774,11.8,11.8,0,0,1-.928,15.375c-.686.709-1.4,1.393-2.089,2.1-.15.152-.341.272-.339.544.012,1.265.005,2.531.005,3.964a12.727,12.727,0,0,1,2.576-2.83,11.866,11.866,0,0,1,7.329-2.6c1.143-.022,2.287-.015,3.43,0,.857.009,1.2.339,1.187,1.179a26.675,26.675,0,0,1-.386,6.42,11.846,11.846,0,0,1-11.012,8.8c-.874.027-1.749.023-2.623.006-.348-.007-.516.048-.512.462.02,2.2.016,4.393,0,6.59,0,.334.1.43.431.491a7.8,7.8,0,0,1,4.97,3.051.68.68,0,0,0,.62.279,5.7,5.7,0,0,1,5.011,2.854.681.681,0,0,0,.616.382A6.212,6.212,0,0,1,46,54.927a1.424,1.424,0,0,0,.556.633,7.779,7.779,0,0,1,3.6,5.347c.072.391.223.455.565.45,1.255-.016,2.511-.01,3.766-.005.764,0,1.206.367,1.19.964-.015.57-.444.916-1.169.917-3.587,0-7.174,0-10.761.006a1.007,1.007,0,0,1-1.16-.94c.095-.715.531-.965,1.217-.955,1.322.02,2.644-.011,3.966.015.476.009.578-.122.446-.578A6.024,6.024,0,0,0,45.3,57.014a1.593,1.593,0,0,1-.862-.883,4.235,4.235,0,0,0-3.64-3.066A4.3,4.3,0,0,0,36.582,54.9c-.424.557-.914.656-1.385.31a.96.96,0,0,1-.129-1.423,5.9,5.9,0,0,1,2.509-2.067c.439-.191.411-.358.122-.661a3.8,3.8,0,0,0-3.4-1.232,1.182,1.182,0,0,1-1.3-.576,6.02,6.02,0,0,0-10.343.02,1.138,1.138,0,0,1-1.24.561,3.811,3.811,0,0,0-3.408,1.2c-.306.312-.367.5.113.7a5.75,5.75,0,0,1,2.537,2.134.934.934,0,0,1-.509,1.5c-.558.148-.854-.211-1.16-.6a4.267,4.267,0,0,0-4.074-1.716,4.216,4.216,0,0,0-3.6,2.85,1.994,1.994,0,0,1-.968,1.126A5.857,5.857,0,0,0,7.53,60.555c-.249.792-.243.795.608.795q11.294,0,22.588-.007c.7,0,1.176.212,1.3.952M30.851,35.152a9.911,9.911,0,0,0,9.323-5.113c1.339-2.25,1.311-4.742,1.255-7.237-.007-.311-.207-.291-.412-.291-.806,0-1.614-.024-2.419.01a9.932,9.932,0,0,0-8.3,4.687c-1.545,2.341-1.6,4.973-1.517,7.636.009.3.171.311.39.309.56,0,1.12,0,1.68,0" transform="translate(0 0)" fill="#030302"/>
        <path id="Trazado_136860" data-name="Trazado 136860" d="M41.9,124.194c-.125-.74-.6-.954-1.3-.952q-11.294.017-22.588.007c-.85,0-.857,0-.607-.8a5.858,5.858,0,0,1,2.826-3.524A1.993,1.993,0,0,0,21.2,117.8a4.217,4.217,0,0,1,3.6-2.85,4.268,4.268,0,0,1,4.075,1.716c.306.386.6.746,1.16.6a.934.934,0,0,0,.509-1.5A5.751,5.751,0,0,0,28,113.632c-.48-.208-.419-.391-.113-.7a3.81,3.81,0,0,1,3.409-1.2,1.139,1.139,0,0,0,1.24-.561,6.02,6.02,0,0,1,10.343-.02,1.182,1.182,0,0,0,1.3.576,3.8,3.8,0,0,1,3.4,1.232c.289.3.317.47-.122.66a5.9,5.9,0,0,0-2.509,2.067.96.96,0,0,0,.128,1.423c.471.346.961.248,1.385-.309a4.3,4.3,0,0,1,4.213-1.836,4.235,4.235,0,0,1,3.64,3.066,1.593,1.593,0,0,0,.862.883,6.022,6.022,0,0,1,2.926,3.767c.132.457.03.587-.446.578-1.321-.026-2.644.005-3.966-.015-.686-.01-1.122.24-1.217.955h-3a1.02,1.02,0,0,0-1.214-.953c-.692.021-1.387.032-2.079,0a1.122,1.122,0,0,0-1.315.948l-2.955,0m-4.174-10.522c-.792,0-1.212.315-1.221.921-.009.589.456.964,1.2.966s1.214-.353,1.221-.943c.006-.609-.417-.942-1.2-.944m-5.674,5.38c-.781,0-1.2.336-1.2.945.007.59.467.946,1.221.942s1.207-.379,1.2-.967c-.01-.6-.432-.922-1.222-.92m11.357,0c-.836-.009-1.267.319-1.253.954.012.567.455.922,1.163.933.761.012,1.226-.326,1.253-.91.028-.611-.4-.969-1.163-.978" transform="translate(-9.872 -61.9)" fill="#b26515"/>
        <path id="Trazado_136861" data-name="Trazado 136861" d="M51.683,12.891c.722.029,1.033-.4,1.178-1.037.6-2.632,2.424-4.424,4.272-6.2.137-.131.239-.163.392-.018,2,1.892,3.87,3.854,4.411,6.715a9.823,9.823,0,0,1-2.283,8.621c-.624.729-1.35,1.371-2.015,2.067-.218.229-.36.233-.6.009-1.9-1.8-3.679-3.676-4.264-6.358a.962.962,0,0,0-1.092-.777,9.774,9.774,0,0,1,0-3.022" transform="translate(-29.495 -3.169)" fill="#a9e034"/>
        <path id="Trazado_136862" data-name="Trazado 136862" d="M32.658,59.066a1.06,1.06,0,0,0,.577-1.389,18.6,18.6,0,0,1-.3-4.741c0-.238.051-.369.331-.375,2.519-.051,5.027-.041,7.285,1.329a9.858,9.858,0,0,1,5.025,8.565c.027.782,0,1.566,0,2.35,0,.207.019.4-.294.4-2.4.036-4.8.108-7-1.112a9.987,9.987,0,0,1-2.786-2.18,1.111,1.111,0,0,0-1.48-.353,11.009,11.009,0,0,1-1.362-2.5" transform="translate(-18.679 -30.055)" fill="#aae034"/>
        <path id="Trazado_136863" data-name="Trazado 136863" d="M81.728,144.255a1.122,1.122,0,0,1,1.315-.948c.691.035,1.386.024,2.079,0a1.02,1.02,0,0,1,1.214.953,1,1,0,0,1-1.156.94c-.715-.015-1.432-.03-2.145,0a1.112,1.112,0,0,1-1.306-.952" transform="translate(-46.746 -81.966)" fill="#030302"/>
        <path id="Trazado_136864" data-name="Trazado 136864" d="M69.281,65.222c-.56,0-1.12,0-1.68,0-.219,0-.382-.012-.39-.309-.079-2.662-.028-5.295,1.517-7.636a9.932,9.932,0,0,1,8.3-4.687c.805-.034,1.612-.009,2.419-.01.205,0,.4-.02.412.291.056,2.5.084,4.987-1.255,7.237a9.911,9.911,0,0,1-9.323,5.113" transform="translate(-38.43 -30.07)" fill="#a9e034"/>
        <path id="Trazado_136865" data-name="Trazado 136865" d="M63.442,120.954c.781,0,1.2.336,1.2.944-.006.59-.467.946-1.221.943s-1.206-.378-1.2-.966c.009-.606.429-.923,1.221-.921" transform="translate(-35.588 -69.182)" fill="#070401"/>
        <path id="Trazado_136866" data-name="Trazado 136866" d="M50.218,133.524c.791,0,1.213.315,1.222.92.009.588-.456.964-1.2.967s-1.214-.352-1.221-.942c-.007-.61.415-.943,1.2-.945" transform="translate(-28.04 -76.372)" fill="#070401"/>
        <path id="Trazado_136867" data-name="Trazado 136867" d="M76.675,133.524c.765.008,1.191.366,1.163.978-.027.583-.492.921-1.253.91-.708-.01-1.151-.366-1.163-.933-.014-.635.417-.963,1.253-.954" transform="translate(-43.139 -76.372)" fill="#070401"/>
      </g>
    </g>
  </g>
</svg>
