<svg xmlns="http://www.w3.org/2000/svg" xmlns:xlink="http://www.w3.org/1999/xlink" width="105" height="105" viewBox="0 0 105 105">
  <defs>
    <clipPath id="clip-path">
      <rect id="Rect치ngulo_37620" data-name="Rect치ngulo 37620" width="59.923" height="62.001" fill="none"/>
    </clipPath>
  </defs>
  <g id="Grupo_159188" data-name="Grupo 159188" transform="translate(-3921 10370)">
    <rect id="Rect치ngulo_37511" data-name="Rect치ngulo 37511" width="105" height="105" rx="52.5" transform="translate(3921 -10370)" fill="#6b8dfc"/>
    <g id="Grupo_159171" data-name="Grupo 159171" transform="translate(3944 -10348)">
      <g id="Grupo_159170" data-name="Grupo 159170" clip-path="url(#clip-path)">
        <path id="Trazado_136868" data-name="Trazado 136868" d="M52.183,39.7c.658.071.864.49.862,1.092-.005,1.917,0,3.834,0,5.75,0,.822-.309,1.126-1.142,1.129-2.139.007-4.277,0-6.416,0h-.658c-.005.067-.026.121-.009.137,1.829,1.71,2.454,3.96,2.855,6.317.168.986.187.983,1.175.983H59.622c1.017,0,1.261.268,1.29,1.288a5.489,5.489,0,0,1-.86,3.569A4.7,4.7,0,0,1,56.071,62q-6.386.01-12.772,0Q26.14,62,8.98,62a4.748,4.748,0,0,1-4.832-3.756,7.913,7.913,0,0,1-.079-2.35c.04-.531.425-.783,1.1-.784q4.176-.005,8.353,0c1.049,0,2.1-.011,3.147.007.322.005.461-.08.509-.419.072-.511.122-1.064.711-1.306,1.029-.14,1.474.3,1.315,1.323-.059.378-.136.753-.225,1.126-.229.957-.577,1.248-1.557,1.257-1.451.014-2.9,0-4.353.005-.9,0-.925.023-.928.9,0,.464.013.927,0,1.39-.016.439.173.617.608.612.846-.01,1.693,0,2.539,0,1.672,0,3.345.006,5.018,0,1.181-.006,1.587-.4,1.633-1.6.028-.725-.006-1.451.014-2.176s.4-1.2.974-1.242a1.2,1.2,0,0,1,1.165,1.164c.07.662,0,1.329.039,1.993a5.545,5.545,0,0,1-.11,1.321c-.062.36.084.535.451.531.141,0,.282,0,.423,0H40.116c.891,0,.886-.009.777-.876a18.038,18.038,0,0,1-.036-2.9,1.534,1.534,0,0,1,.152-.582,1.079,1.079,0,0,1,1.114-.655,1.053,1.053,0,0,1,.873.951c.062.7.02,1.409.023,2.114a4.16,4.16,0,0,0,.122,1.2,1.166,1.166,0,0,0,1.153.732c2.66.034,5.321.014,7.981.014.387,0,.541-.189.55-.553.016-.625.005-1.25.006-1.874,0-.469-.32-.484-.666-.484-1.653,0-3.306.01-4.958,0a1.228,1.228,0,0,1-1.173-1.107c-.224-1.065-.459-2.128-.676-3.195a6.634,6.634,0,0,0-6.6-5.389,1.135,1.135,0,0,1-.181,0c-.754-.123-1.138.141-1.472.9a5.04,5.04,0,0,1-8.2,1.624,4.5,4.5,0,0,1-1.186-1.875.793.793,0,0,0-.971-.65,6.638,6.638,0,0,0-5.509,2.1,11.892,11.892,0,0,0-1.207,1.732c-.38.573-.794.678-1.3.378-.577-.5-.649-.812-.319-1.467A9.121,9.121,0,0,1,20.236,47.7c-.264-.013-.432-.027-.6-.027q-3.147,0-6.294,0c-1.225,0-1.426-.206-1.427-1.454q0-6.022.007-12.044a1.145,1.145,0,0,0-.4-.933,5.934,5.934,0,0,1-1.761-6.22,3.082,3.082,0,0,1,1.747-2.049.622.622,0,0,0,.409-.683c0-2.279-.041-4.561.026-6.838A18.32,18.32,0,0,1,26.747.336,6.389,6.389,0,0,0,28.422,0h.848A.926.926,0,0,0,30,0h4.965a.926.926,0,0,0,.727,0h.727c.815.159,1.633.3,2.443.479A18.35,18.35,0,0,1,52.785,15.214a35.38,35.38,0,0,1,.257,5.609c.01,1.19.006,2.379,0,3.569,0,.237.023.411.281.522A3.441,3.441,0,0,1,55.4,27.94a5.991,5.991,0,0,1-1.949,5.287,1.148,1.148,0,0,0-.419.984c.031.785-.024,1.574.019,2.358a1.118,1.118,0,0,1-.891,1.336.964.964,0,0,1-1.076-.864,8.586,8.586,0,0,1-.076-1.385c-.022-.268.16-.646-.266-.758a.924.924,0,0,0-1.009.584,14.4,14.4,0,0,1-.76,1.777A13.152,13.152,0,0,1,38.31,44.62a1.631,1.631,0,0,0-.24.03c-.189.052-.446.061-.434.327.013.284.28.263.466.253a11.307,11.307,0,0,1,3.644.445,2.7,2.7,0,0,0,.722.048q3.869,0,7.739,0c.774,0,.806-.035.809-.828,0-1.27,0-2.54,0-3.809a1.693,1.693,0,0,1,.279-1.093c.222-.281.493-.489.885-.3" transform="translate(-2.334)"/>
        <path id="Trazado_136869" data-name="Trazado 136869" d="M78.507,0a.55.55,0,0,1-.727,0Z" transform="translate(-45.152)" fill="#212121"/>
        <path id="Trazado_136870" data-name="Trazado 136870" d="M64.94,0a.55.55,0,0,1-.727,0Z" transform="translate(-37.276)" fill="#212121"/>
        <path id="Trazado_136871" data-name="Trazado 136871" d="M34.944,123.446c-.013-.644-.022-1.287-.042-1.93-.021-.662-.364-1.07-.894-1.082-.549-.013-.909.411-.917,1.108-.01.827.009,1.654-.006,2.48a1.316,1.316,0,0,1-1.5,1.481c-2.682,0-5.364-.007-8.047.01-.4,0-.572-.077-.548-.521a18.455,18.455,0,0,0,0-2.116c-.03-.49.1-.655.616-.644,1.653.035,3.307.015,4.961.012.8,0,1.029-.19,1.2-.968.085-.393.164-.788.243-1.183.207-1.032-.085-1.395-1.112-1.383a.753.753,0,0,0,.634-.8,5.537,5.537,0,0,1,.212-.995,1.071,1.071,0,0,0,1.343-.7,6.759,6.759,0,0,1,6.653-3.668c.146.226-.011.384-.134.536a9.027,9.027,0,0,0-1.744,4.64c-.236,1.717-.4,3.444-.615,5.163-.027.212.051.509-.3.555" transform="translate(-13.345 -65.321)" fill="#c5cfd9"/>
        <path id="Trazado_136872" data-name="Trazado 136872" d="M98.347,87.614c-.743.136-.969.4-.974,1.2-.008,1.453-.017,2.907.006,4.359.007.447-.082.638-.591.633-2.845-.024-5.691-.01-8.537-.014a1.852,1.852,0,0,1-.537-.065,10.733,10.733,0,0,0-3.585-.416c-.265.009-.561.093-.586-.377-.024-.454.245-.5.551-.525a12.327,12.327,0,0,0,3.19-.625,13.1,13.1,0,0,0,8.48-8.567,1.7,1.7,0,0,1,1.458-.646c.184.07.142.226.144.356.007.545,0,1.09.005,1.635.013.768.207,1.019.953,1.264q.011.9.021,1.791" transform="translate(-48.497 -47.917)" fill="#544f57"/>
        <path id="Trazado_136873" data-name="Trazado 136873" d="M120.873,8.265a.89.89,0,0,1-.889.881c-.543.024-1.089.023-1.632,0-.3-.011-.386.095-.375.381.018.5.017,1.008,0,1.511-.021.649-.389,1.027-.952,1.007-.539-.02-.847-.38-.859-1.023a10.013,10.013,0,0,1,.006-1.209c.052-.508-.073-.745-.643-.673a8.212,8.212,0,0,1-1.329.006.9.9,0,1,1-.071-1.794,14.594,14.594,0,0,1,1.631-.011c.315.011.425-.089.409-.409-.024-.5-.016-1.008,0-1.511a.892.892,0,0,1,.861-.968.924.924,0,0,1,.946.961,10.489,10.489,0,0,1,0,1.329c-.036.448.07.656.574.6a8.345,8.345,0,0,1,1.389,0,.93.93,0,0,1,.937.916" transform="translate(-65.752 -2.587)"/>
        <path id="Trazado_136874" data-name="Trazado 136874" d="M130.66,98.346c-1.189,0-1.188,0-1.19,1.2a7.577,7.577,0,0,1-.017.846.864.864,0,0,1-.919.846.847.847,0,0,1-.869-.889c-.026-.523-.029-1.05,0-1.573.017-.356-.12-.451-.456-.435-.5.023-1.008.019-1.512,0a.86.86,0,0,1-.928-.894.886.886,0,0,1,.926-.909,8.838,8.838,0,0,1,1.39,0c.513.055.614-.166.58-.615a11.259,11.259,0,0,1,0-1.33.9.9,0,1,1,1.8-.029,11.724,11.724,0,0,1,0,1.511c-.029.394.12.481.479.458.462-.029.928-.018,1.391,0,.648.021,1.038.392,1.018.945-.02.538-.381.846-1.024.867-.222.007-.444,0-.666,0" transform="translate(-72.428 -54.359)"/>
        <path id="Trazado_136875" data-name="Trazado 136875" d="M4.7,43.958c0,1.117,0,1.117,1.138,1.118.3,0,.607-.018.907.01a.884.884,0,0,1,.843.924.871.871,0,0,1-.888.876c-.524.021-1.05.027-1.573,0-.354-.019-.451.11-.435.445.024.5.021,1.008,0,1.512a.9.9,0,1,1-1.8.023c-.03-.543-.021-1.089-.006-1.633.007-.259-.075-.354-.341-.345-.524.017-1.049.015-1.573,0A.9.9,0,0,1,0,45.97a.9.9,0,0,1,.951-.889c.524-.018,1.049-.023,1.573,0,.3.014.38-.092.367-.378-.022-.483-.016-.968,0-1.452.017-.658.369-1.067.9-1.073s.89.4.912,1.053c.008.242,0,.484,0,.726" transform="translate(0 -24.485)"/>
        <path id="Trazado_136876" data-name="Trazado 136876" d="M50.657,43.964c2.025-.515,4.074-.938,6.072-1.563A35.522,35.522,0,0,0,66.546,38c.882-.609.876-.616,1.46.259a16.857,16.857,0,0,0,5.646,5.618,4.556,4.556,0,0,0,1.033.49c.581.151.685.484.678,1.042-.034,2.5-.011,5-.015,7.5a11.359,11.359,0,0,1-9.591,11.469,8.578,8.578,0,0,1-.9.07c-1.527.1-3.055.016-4.582.042a2.776,2.776,0,0,0-.422,0c-1.939.339-3.439-.581-4.821-1.738a12.243,12.243,0,0,1-4.166-6.633,1.07,1.07,0,0,1-.045-.593c.1-.218.33-.277.513-.39,1.028-.635,1.009-1.581-.035-2.2-.265-.158-.629-.187-.758-.539a.914.914,0,0,1,.053-.659c.194-.212.438-.151.678-.125a4.164,4.164,0,0,0,4.205-2.043,1.293,1.293,0,0,0,.218-.621.7.7,0,0,0-.412-.795.714.714,0,0,0-.862.252c-.173.2-.281.442-.434.655a2.74,2.74,0,0,1-2.907.982c-.284-.093-.521-.224-.578-.551-.078-1.659-.027-3.317-.029-4.976a.812.812,0,0,1,.184-.557" transform="translate(-29.292 -21.81)" fill="#fecabd"/>
        <path id="Trazado_136877" data-name="Trazado 136877" d="M58.194,4.309a60.161,60.161,0,0,1,7.072.121,15.932,15.932,0,0,1,8.326,3.579,16.315,16.315,0,0,1,5.722,9.359,12.476,12.476,0,0,1,.327,2.691c0,2.179.005,4.358.006,6.538a.776.776,0,0,1-.811.789c-.272-.02-.176-.23-.177-.363-.011-.747-.005-1.493-.006-2.24a.977.977,0,0,0-.728-1.057c-2.77-.757-4.617-2.7-6.273-4.879A18.7,18.7,0,0,1,70.1,16.4c-.479-.889-1-.971-1.766-.29a22.751,22.751,0,0,1-6.893,3.939,56.661,56.661,0,0,1-7.912,2.4,1.592,1.592,0,0,1-.3.015,3.565,3.565,0,0,1-.145-2.009c.129-1.644.1-3.3.333-4.934a26.921,26.921,0,0,1,2.52-8.9,14.027,14.027,0,0,1,1.009-1.576,1.523,1.523,0,0,1,1.246-.726" transform="translate(-30.775 -2.476)" fill="#544f57"/>
        <path id="Trazado_136878" data-name="Trazado 136878" d="M51.107,123.406a13.964,13.964,0,0,0,.368-2.582c.3-2.132.321-4.315,1.218-6.332a5.149,5.149,0,0,1,.977-1.574.576.576,0,0,0,.232-.405c.623-.159.917.017,1.133.7a4.89,4.89,0,0,0,9.271-.106c.164-.529.391-.633.909-.649a7.36,7.36,0,0,1,5.175,1.634,7.657,7.657,0,0,1,2.516,4.881c.13.774.331,1.535.465,2.308a1,1,0,0,0,.874.935c1.732.09,3.464.017,5.2.039.673.008.674,0,.674.693,0,.443-.016.888.005,1.33.016.341-.15.474-.454.51a4.521,4.521,0,0,1-.543.023q-4.022,0-8.044,0a1.375,1.375,0,0,1-.925-.2,13.189,13.189,0,0,1-.1-2.827c-.029-.936-.281-1.373-.879-1.393-.629-.021-.966.443-.937,1.4a12.528,12.528,0,0,0,.186,3.423c.054.176.009.267-.189.252-.08-.006-.161,0-.242,0H51.244c-.12,0-.239-.013-.413-.023a7.286,7.286,0,0,0,.276-2.035" transform="translate(-29.508 -65.281)" fill="#e6ebf0"/>
        <path id="Trazado_136879" data-name="Trazado 136879" d="M43.185,4.371c-1.107.365-1.53,1.374-2.03,2.261a22.049,22.049,0,0,0-2.32,7.314,37.549,37.549,0,0,0-.52,5.563c-.017,1-.081,2.006-.093,3.01a30.987,30.987,0,0,1-4.236.84,36.851,36.851,0,0,1-4.851.5.914.914,0,0,0-.956,1.014c-.014.685.008,1.371-.012,2.056-.005.175.148.542-.2.481-.279-.049-.737.005-.774-.492,0-.06,0-.121,0-.182.005-2.4-.094-4.8.041-7.2a15.559,15.559,0,0,1,3.475-8.91,16.38,16.38,0,0,1,7.636-5.4,15.48,15.48,0,0,1,4.844-.86" transform="translate(-15.766 -2.537)" fill="#454045"/>
        <path id="Trazado_136880" data-name="Trazado 136880" d="M41.3,64.326a12.178,12.178,0,0,0,5.617,8.146,5.067,5.067,0,0,0,3.074.822c1.751-.061,3.507,0,5.261,0a2.788,2.788,0,0,1-1.076.089c-2.906,0-5.812.011-8.718-.009A11.34,11.34,0,0,1,34.1,63.931a10.041,10.041,0,0,1-.17-1.8c-.019-2.623-.01-5.247-.008-7.871,0-.224-.089-.49.307-.515,2.3-.147,4.555-.576,6.823-.931q0,2.854,0,5.707c-.518.129-.662-.348-.937-.6a5.282,5.282,0,0,1-.438-.649.718.718,0,0,0-1-.258.727.727,0,0,0-.279,1A4.033,4.033,0,0,0,40.3,60.04c.268.133.641.143.756.512l-.006.746c-.261.227-.568.142-.863.123a3.528,3.528,0,0,0-2.138.476,1.061,1.061,0,0,0-.006,1.988,3.739,3.739,0,0,0,2.552.471c.233-.036.464-.156.7-.029" transform="translate(-19.687 -30.657)" fill="#e9ab9c"/>
        <path id="Trazado_136881" data-name="Trazado 136881" d="M38.5,93.407a13.881,13.881,0,0,1-2.889.477c-2.6-.045-5.2-.027-7.8,0-.483,0-.612-.141-.61-.615q.028-5.048,0-10.1c0-.452.081-.542.583-.487.759.083.972.492,1.219,1.131A12.975,12.975,0,0,0,38.1,92.088a.579.579,0,0,1,.148.1c.266.37.13.823.254,1.222" transform="translate(-15.793 -47.989)" fill="#454045"/>
        <path id="Trazado_136882" data-name="Trazado 136882" d="M68.13,110.934a3.055,3.055,0,0,1-3.667-2.738c-.034-.543.005-1.09-.023-1.633-.017-.331.113-.4.418-.4q2.693.018,5.386,0c.3,0,.456.056.42.395-.03.279-.021.563-.029.844a1.018,1.018,0,0,1-.747.17c-.948.005-1.9,0-2.843,0-.662.006-.78.141-.679.8a3.052,3.052,0,0,0,1.764,2.554" transform="translate(-37.407 -61.629)" fill="#e9ab9c"/>
        <path id="Trazado_136883" data-name="Trazado 136883" d="M70.5,112.629a1.181,1.181,0,0,1-1.079-.518,4.135,4.135,0,0,1-.9-2.373c-.032-.487.107-.668.626-.654,1.284.037,2.57.013,3.855.014a3.064,3.064,0,0,1-2.5,3.531" transform="translate(-39.773 -63.324)" fill="#fecabd"/>
        <path id="Trazado_136884" data-name="Trazado 136884" d="M24.923,69.485A4.282,4.282,0,0,1,21.59,64a1.673,1.673,0,0,1,3.188.4,3.166,3.166,0,0,0-1.9-.107c-.625.2-.946.631-.81,1.144.142.539.589.767,1.24.635a1.148,1.148,0,0,1,1.5,1.18,15.209,15.209,0,0,0,.11,2.231" transform="translate(-12.397 -36.566)" fill="#e9ab9c"/>
        <path id="Trazado_136885" data-name="Trazado 136885" d="M114.011,64.394a1.676,1.676,0,0,1,1.71-1.4,1.62,1.62,0,0,1,1.594,1.383,4.358,4.358,0,0,1-3,5.064c-.375.109-.474.039-.409-.335a10.7,10.7,0,0,0,.078-1.81,1.146,1.146,0,0,1,1.529-1.208.938.938,0,0,0,1.11-.389.821.821,0,0,0-.1-1.059,1.829,1.829,0,0,0-1.278-.45,4.533,4.533,0,0,0-1.234.208" transform="translate(-66.115 -36.566)" fill="#e9ab9c"/>
        <path id="Trazado_136886" data-name="Trazado 136886" d="M96.9,138.084c3.106,0,6.212-.007,9.318.013.455,0,.626-.128.571-.581-.066-.554.242-1.267-.132-1.627-.342-.328-1.039-.091-1.579-.1-1.17-.014-2.339,0-3.509-.007-.195,0-.407.063-.578-.1,1.834-.007,3.669-.007,5.5-.029.338,0,.4.132.4.428-.018.826-.025,1.654-.011,2.48.005.3-.1.373-.385.372-2.8-.009-5.606,0-8.409-.012a1.16,1.16,0,0,1-1.186-.845" transform="translate(-56.25 -78.753)" fill="#c5cfd9"/>
        <path id="Trazado_136887" data-name="Trazado 136887" d="M8.6,137.145a3.276,3.276,0,0,1-.154-.377c-.271-1-.207-1.081.821-1.081.986,0,1.972.013,2.957-.007.333-.007.465.08.447.432-.034.662-.029,1.325-.04,1.988a4.162,4.162,0,0,1-3.763-.718,1.348,1.348,0,0,0-.268-.237" transform="translate(-4.825 -78.763)" fill="#fecabd"/>
        <path id="Trazado_136888" data-name="Trazado 136888" d="M125.039,138.1c-.012-.7-.02-1.4-.039-2.105-.007-.234.085-.315.318-.313,1.226.008,2.452.01,3.678,0,.281,0,.342.115.324.36a1.987,1.987,0,0,1-.267,1.09,4.077,4.077,0,0,1-4.014.969" transform="translate(-72.563 -78.767)" fill="#fecabd"/>
        <path id="Trazado_136889" data-name="Trazado 136889" d="M9,139.173c.533.165.944.559,1.478.741a8.5,8.5,0,0,0,2.553.214c.074.847.073.823-.754.853A3.032,3.032,0,0,1,9,139.173" transform="translate(-5.227 -80.792)" fill="#e8ab9c"/>
        <path id="Trazado_136890" data-name="Trazado 136890" d="M125.047,140.112a5.816,5.816,0,0,0,4.014-.969,2.744,2.744,0,0,1-2.473,1.8,6.594,6.594,0,0,1-.784.01c-.837,0-.837,0-.757-.845" transform="translate(-72.572 -80.774)" fill="#e8ab9c"/>
        <path id="Trazado_136891" data-name="Trazado 136891" d="M53.746,106.58c-.538-.313-.122-.824-.254-1.222.777.081,1.539.278,2.326.289.344,0,.468.192.458.548-.012.424-.283.358-.538.361q-1,.013-1.992.023" transform="translate(-31.035 -61.162)" fill="#524e55"/>
        <path id="Trazado_136892" data-name="Trazado 136892" d="M84.372,66.12a4.4,4.4,0,0,1-3.925-2.408c-.331-.619-.214-1.162.269-1.425s.991-.071,1.322.55a2.552,2.552,0,0,0,4.6-.013c.32-.615.838-.807,1.332-.534a.943.943,0,0,1,.284,1.372,4.4,4.4,0,0,1-3.883,2.458" transform="translate(-46.591 -36.089)"/>
        <path id="Trazado_136893" data-name="Trazado 136893" d="M46.92,65.985a4.66,4.66,0,0,1-2.732-2.291c-.311-.629-.2-1.156.287-1.413s.991-.058,1.321.553a2.214,2.214,0,0,0,1.116,1.118,2.467,2.467,0,0,0,3.279-.784c.093-.154.172-.317.265-.471a.919.919,0,0,1,1.231-.425.907.907,0,0,1,.386,1.245,4.322,4.322,0,0,1-3.061,2.489,5.584,5.584,0,0,1-2.093-.021" transform="translate(-25.55 -36.091)"/>
        <path id="Trazado_136894" data-name="Trazado 136894" d="M66.179,81.835A4.311,4.311,0,0,1,62.3,79.4a.931.931,0,0,1,.331-1.4c.492-.245.947-.058,1.271.55a2.562,2.562,0,0,0,4.6.018c.341-.639.815-.827,1.317-.55a.949.949,0,0,1,.282,1.416,4.322,4.322,0,0,1-3.924,2.4" transform="translate(-36.063 -45.22)"/>
        <path id="Trazado_136895" data-name="Trazado 136895" d="M45.8,75.985a3.787,3.787,0,0,1-3.41-.341,1.205,1.205,0,0,1,.08-2.237,3.488,3.488,0,0,1,2.358-.466,4.727,4.727,0,0,0,.724.015c.3.155.609.288.889.469a1.271,1.271,0,0,1-.04,2.3,4.685,4.685,0,0,1-.6.256" transform="translate(-24.193 -42.316)" fill="#e38fb6"/>
        <path id="Trazado_136896" data-name="Trazado 136896" d="M91.62,76.223a3.522,3.522,0,0,1-2.089-.648,1.206,1.206,0,0,1,.02-2.065,4.01,4.01,0,0,1,4.144-.089,1.229,1.229,0,0,1-.06,2.286,3.753,3.753,0,0,1-2.016.516" transform="translate(-51.642 -42.312)" fill="#e38fb6"/>
        <path id="Trazado_136897" data-name="Trazado 136897" d="M68.389,68.072c.524,0,1.048-.013,1.572,0a.865.865,0,0,1,.926.835.875.875,0,0,1-.87.96q-1.661.047-3.325,0a.9.9,0,1,1,.065-1.795c.544-.017,1.088,0,1.632,0" transform="translate(-38.211 -39.514)" fill="#010100"/>
      </g>
    </g>
  </g>
</svg>
