<svg xmlns="http://www.w3.org/2000/svg" xmlns:xlink="http://www.w3.org/1999/xlink" width="105" height="105" viewBox="0 0 105 105">
  <defs>
    <clipPath id="clip-path">
      <rect id="Rect치ngulo_37626" data-name="Rect치ngulo 37626" width="52.611" height="66.166" fill="none"/>
    </clipPath>
  </defs>
  <g id="Grupo_159193" data-name="Grupo 159193" transform="translate(-3921 10236)">
    <rect id="Rect치ngulo_37513" data-name="Rect치ngulo 37513" width="105" height="105" rx="52.5" transform="translate(3921 -10236)" fill="#6b8dfc"/>
    <g id="Grupo_159174" data-name="Grupo 159174" transform="translate(3945 -10221.204)">
      <g id="Grupo_159190" data-name="Grupo 159190" transform="translate(2 4.204)" clip-path="url(#clip-path)">
        <path id="Trazado_136996" data-name="Trazado 136996" d="M51.389,27.621a.958.958,0,0,1,.8.827,42,42,0,0,1-.33,14.005C50.12,50.14,45.639,55.785,38.911,59.73a29.588,29.588,0,0,1-10.287,3.748.74.74,0,0,0-.648.515,3.834,3.834,0,0,1-1.88,2.173h-.9a2.35,2.35,0,0,1-1.777-1.418,1.03,1.03,0,0,0-1.154-.6,18.854,18.854,0,0,1-4.617,0,1.082,1.082,0,0,0-1.239.672,2.177,2.177,0,0,1-1.679,1.344h-.9A3.318,3.318,0,0,1,11.992,64.2a1.136,1.136,0,0,0-1.024-.769,15.129,15.129,0,0,1-5.226-1.714A7.019,7.019,0,0,1,2.07,55.281a36.944,36.944,0,0,1,1.078-7.707C3.8,44.4,4.619,41.266,5.435,38.131c.231-.887.487-1.074,1.406-1.036a.959.959,0,0,1,.743,1.211c-.073.468-.231.919-.348,1.377a127.241,127.241,0,0,0-2.85,12.993c-.057.385-.051.774-.123,1.155-.373,2.77.416,5.027,2.989,6.287a17.109,17.109,0,0,0,3.6,1.175,25.6,25.6,0,0,1-.577-2.7c-.425-2.18-.661-4.384-.909-6.587-.272-2.416-.428-4.841-.612-7.264-.116-1.521-.166-3.048-.248-4.572a1.219,1.219,0,0,1,1.03-1.29,1.172,1.172,0,0,1,1.244.988,5.826,5.826,0,0,1,.137,1.28,132.085,132.085,0,0,0,1.929,18.538,16.3,16.3,0,0,0,.968,3.345c.1.229.142.586.425.592.327.006.376-.372.47-.617a22.058,22.058,0,0,0,1.09-4.776c.35-2.45.548-4.915.689-7.388.146-2.578.274-5.155.245-7.738a2.085,2.085,0,0,1,.212-1.065,1.1,1.1,0,0,1,2.035.019,1.562,1.562,0,0,1,.17,1,16.962,16.962,0,0,0-.1,2.514A110.131,110.131,0,0,1,17.992,59.4c-.128.652-.22,1.311-.385,1.956-.084.329.04.458.377.5a18.154,18.154,0,0,0,3.91,0c.365-.035.426-.206.352-.514-.186-.771-.294-1.557-.43-2.338-.354-2.321-.553-4.657-.713-7-.2-2.962-.341-5.925-.368-8.894a3.43,3.43,0,0,1,.053-.836,1.161,1.161,0,0,1,1.107-.919,1.133,1.133,0,0,1,1.105.91,1.356,1.356,0,0,1,.048.384c-.05,1.444.1,2.881.143,4.321a85.343,85.343,0,0,0,1.276,13.609,13.786,13.786,0,0,0,.657,2.362c.1.269.152.68.491.684.3,0,.351-.392.455-.642a22.277,22.277,0,0,0,1.2-4.685c.617-3.392.957-6.818,1.234-10.253q.316-3.924.514-7.855a1.211,1.211,0,0,1,1.154-1.3c.679,0,1.149.527,1.154,1.35.013,1.83-.17,3.652-.289,5.475q-.217,3.347-.587,6.685c-.231,2.055-.488,4.1-.837,6.141-.234.89-.327,1.812-.615,2.732a13.82,13.82,0,0,0,3.825-1.243,4.837,4.837,0,0,0,2.785-4.756,27.279,27.279,0,0,0-.868-6.7c-1.349-6.4-3.1-12.706-4.934-18.986a1.283,1.283,0,0,1,1-1.863,5.415,5.415,0,0,0,2.277-1.293,7.415,7.415,0,0,0,1.9-7.666,32.5,32.5,0,0,0-3.88-8.262,3.825,3.825,0,0,1-.484-2.139,15.448,15.448,0,0,0-.565-5.414c-.3-.817-.546-.868-1.164-.244a11.356,11.356,0,0,0-2.539,4.156A2.393,2.393,0,0,1,23.5,8.716a10.037,10.037,0,0,0-1.676,0q-1.8.023-3.6,0a19.377,19.377,0,0,0-2.257-.006,2.08,2.08,0,0,1-2.3-1.538,16.459,16.459,0,0,0-2.232-3.988,5.424,5.424,0,0,0-.457-.543c-.6-.608-.845-.557-1.18.252a4.316,4.316,0,0,0-.225.807,21.884,21.884,0,0,0-.356,5.072,3.04,3.04,0,0,1-.491,1.763,41.243,41.243,0,0,0-3.3,6.5,9.39,9.39,0,0,0-.606,6.113,7.529,7.529,0,0,0,1.839,3.212A6.559,6.559,0,0,0,9.23,27.81a1.183,1.183,0,0,1,.86,1.615c-.48,1.654-.931,3.316-1.437,4.961-.244.793-.791,1.106-1.407.874-.722-.449-.831-.724-.6-1.549.346-1.218.69-2.437,1.056-3.649.1-.339.078-.534-.287-.694a7.76,7.76,0,0,1-3.67-3.4c-.215-.376-.387-.483-.764-.225a5.876,5.876,0,0,1-.965.514A.92.92,0,0,1,.76,25.829a.894.894,0,0,1,.327-1.24,6.868,6.868,0,0,1,1.125-.624c.416-.183.613-.4.422-.88a1.844,1.844,0,0,1-.147-.885c.109-.788-.361-.93-.967-.989A3.92,3.92,0,0,1,.7,21.064a.9.9,0,0,1-.674-1.093.944.944,0,0,1,1.025-.794c.021,0,.043.006.064.007.484.024,1.062.419,1.409.1.289-.263.239-.883.375-1.334A36.706,36.706,0,0,1,6.829,9.586a1.815,1.815,0,0,0,.28-1.026,21.267,21.267,0,0,1,.508-5.769,5.244,5.244,0,0,1,.735-1.705A2.228,2.228,0,0,1,11.51.376a7.116,7.116,0,0,1,2.266,2.433,18.568,18.568,0,0,1,1.658,3.125.812.812,0,0,0,.895.6q3.616-.041,7.233,0a.741.741,0,0,0,.821-.514,19.9,19.9,0,0,1,2.233-3.98A6.314,6.314,0,0,1,28.1.526a2.3,2.3,0,0,1,3.559.81,7.889,7.889,0,0,1,.888,3.009,25.664,25.664,0,0,1,.2,4.381,1.558,1.558,0,0,0,.309.89,35,35,0,0,1,4.055,8.94c.218.847.217.848,1.112.711,1.02-.156,1.529.083,1.615.761.083.657-.318,1.016-1.306,1.171l-.064.007c-1.007.159-1.027.157-1.119,1.185-.039.438-.394.932-.128,1.283.248.328.758.456,1.151.677a1.524,1.524,0,0,1,.7.548A.922.922,0,0,1,39,25.985a.879.879,0,0,1-1.094.3,7.514,7.514,0,0,1-1.081-.57c-.343-.222-.49-.133-.682.207a7.841,7.841,0,0,1-3.767,3.483c-.473.2-.269.456-.194.711C33.406,34.3,34.565,38.5,35.6,42.735c.737,3.027,1.46,6.058,1.9,9.148.018.127.059.25.108.455a13.587,13.587,0,0,0,2.607-2.667,1.2,1.2,0,0,1,1.5-.526,1,1,0,0,1,.335,1.6,15.232,15.232,0,0,1-1.9,2.188,14.263,14.263,0,0,1-1.67,1.415A1.123,1.123,0,0,0,38,55.2a10.4,10.4,0,0,1-.553,2.91,20.7,20.7,0,0,0,2.859-1.8,23.943,23.943,0,0,0,9.92-16.852,36.688,36.688,0,0,0,.148-7.337c-.078-1.072-.157-2.142-.261-3.212-.087-.9.385-1.357,1.281-1.293" transform="translate(0 0)"/>
        <path id="Trazado_136997" data-name="Trazado 136997" d="M8.439,62.859A49.6,49.6,0,0,1,9.805,55.08c.567-2.483,1.216-4.948,1.855-7.415a1.229,1.229,0,0,0-.491-1.559,18.263,18.263,0,0,0,.4-1.834,1.108,1.108,0,0,0,1.263-.931c.466-1.651.953-3.3,1.42-4.947.23-.812-.04-1.254-.873-1.473A5.233,5.233,0,0,1,10.916,35.5c0-.315.277-.288.457-.349a15.083,15.083,0,0,0,4.983-2.771A13.92,13.92,0,0,0,19.509,28.5a20.827,20.827,0,0,0,2.606-9.808,2.016,2.016,0,0,1,.284-1.171,37.448,37.448,0,0,1,3.882.011c.225.227.174.52.176.794a20.835,20.835,0,0,0,2.529,10.034,13.734,13.734,0,0,0,6.937,6.29c.4.165.8.317,1.2.482.182.075.447.085.432.39a4.889,4.889,0,0,1-2.414,1.4c-.88.242-1.112.635-.855,1.521,1.671,5.772,3.3,11.556,4.6,17.425a48.9,48.9,0,0,1,1.258,7.559,2.379,2.379,0,0,1-.023.9,5.227,5.227,0,0,1-2.611,2.365,12.1,12.1,0,0,1-3.034,1.058c-.246.052-.5.158-.726-.068.385-2.637.756-5.277,1-7.932.325-3.514.581-7.033.715-10.559a.975.975,0,0,0-.942-1.142c-.575-.01-.967.42-1,1.11-.22,4.859-.555,9.709-1.177,14.534a42.012,42.012,0,0,1-1.537,7.763,9.167,9.167,0,0,1-.379.956c-.122.267-.216.689-.5.689-.34,0-.415-.445-.539-.728a14.192,14.192,0,0,1-.9-3.283,113.973,113.973,0,0,1-1.29-17.1c-.023-.991-.316-1.458-.965-1.466-.666-.009-1,.484-.98,1.509a129.77,129.77,0,0,0,1.012,15.514c.023.17.021.343.03.514.128.312.006.537-.3.556a17.614,17.614,0,0,1-3.689-.039c-.066-.01-.1-.072-.152-.113.187-1.709.394-3.417.558-5.129.373-3.882.482-7.777.546-11.673a1.006,1.006,0,0,0-.969-1.138c-.563,0-.963.433-.976,1.133-.054,2.928-.119,5.856-.327,8.777a53.572,53.572,0,0,1-1.536,11.033,6.835,6.835,0,0,1-.558,1.368c-.215.4-.4.371-.6-.006a12.569,12.569,0,0,1-1.155-3.405,88.344,88.344,0,0,1-1.566-11.368q-.382-4.375-.572-8.763,0-.1-.015-.193c-.077-.695-.483-1.1-1.055-1.047a1.011,1.011,0,0,0-.888,1.205c.111,2.042.2,4.085.357,6.125.287,3.841.64,7.675,1.264,11.48.045.275.077.551.115.827a.546.546,0,0,1-.545.095,10.769,10.769,0,0,1-5.2-2.543,2.558,2.558,0,0,1-.59-2.372" transform="translate(-4.327 -9.01)" fill="#fee8c7"/>
        <path id="Trazado_136998" data-name="Trazado 136998" d="M82.6,73.3c.585-.674,1.186-1.335,1.75-2.027.53-.65.494-1.032-.083-1.672.267-.628.847-1.094.937-1.814,1.017.161,1.429-.467,1.774-1.281a25.017,25.017,0,0,0,2.158-11.183,20.412,20.412,0,0,0-1.554-6.174c-.561-1.467-1.213-2.9-1.789-4.359A14.347,14.347,0,0,1,85.248,43a2.817,2.817,0,0,1,1.519-3.064,2.656,2.656,0,0,1,3.077.634,6.808,6.808,0,0,1,1.379,1.936,10.21,10.21,0,0,1,.8,2.04A2.11,2.11,0,0,0,93.2,46.2c.088.522.19,1.042.26,1.566.043.322.372.141.485.317-.935.1-1.2.461-1.1,1.417a41.851,41.851,0,0,1-.038,11.438,23.886,23.886,0,0,1-9.782,15.913,1.252,1.252,0,0,1-.168.088.273.273,0,0,1-.277-.345c.172-1.1-.156-2.194.016-3.289" transform="translate(-42.557 -20.456)" fill="#fedba6"/>
        <path id="Trazado_136999" data-name="Trazado 136999" d="M94.134,44.293a1.112,1.112,0,0,1-1.164-.981,12.026,12.026,0,0,0-1.431-3.43,4.577,4.577,0,0,0-1.57-1.589,2.185,2.185,0,0,0-2.541.1,2.438,2.438,0,0,0-1.115,2.442A14.546,14.546,0,0,0,87.485,44.3,36.4,36.4,0,0,1,90,51.58a20.958,20.958,0,0,1-.694,9.62,25.377,25.377,0,0,1-1.529,4.093c-.391.83-.827.987-1.64.593a1.2,1.2,0,0,1-.1-1.486,22.671,22.671,0,0,0,2.28-10.541A21.709,21.709,0,0,0,86.3,46.5a31.748,31.748,0,0,1-1.8-4.748,4.488,4.488,0,0,1,7.965-3.865,12.4,12.4,0,0,1,2.438,5.131c.167.644-.059.956-.773,1.27" transform="translate(-43.49 -18.555)"/>
        <path id="Trazado_137000" data-name="Trazado 137000" d="M22.7,10.616a26.265,26.265,0,0,1-1.645,8.794,14.563,14.563,0,0,1-9.741,9.1c-.037.011-.064.054-.1.082a7.46,7.46,0,0,1-1.99-7.309,31.185,31.185,0,0,1,4.1-8.92,2.3,2.3,0,0,0,.361-1.331,21.68,21.68,0,0,1,.374-5.4,4.522,4.522,0,0,1,.464-1.265c.195-.344.431-.374.737-.154a5.315,5.315,0,0,1,1.221,1.321A20.966,20.966,0,0,1,18.675,9.7a1.25,1.25,0,0,0,1.319.892c.9-.016,1.806.016,2.708.027" transform="translate(-4.632 -2.104)" fill="#fead8a"/>
        <path id="Trazado_137001" data-name="Trazado 137001" d="M56.572,28.616a4.331,4.331,0,0,0-1.233-.52,14.5,14.5,0,0,1-8.465-8.6,21.526,21.526,0,0,1-1.575-8.87c.858-.015,1.716-.052,2.574-.038a1.218,1.218,0,0,0,1.279-.857,20.075,20.075,0,0,1,2.22-4.2,7.584,7.584,0,0,1,.873-1.03c.651-.631.936-.56,1.272.3a9.819,9.819,0,0,1,.559,2.9,23.109,23.109,0,0,1,.057,3.352,1.954,1.954,0,0,0,.318,1.214A36.108,36.108,0,0,1,58.444,20.6a7.836,7.836,0,0,1-1.373,7.527,5.489,5.489,0,0,1-.5.491" transform="translate(-23.347 -2.104)" fill="#fead8a"/>
        <path id="Trazado_137002" data-name="Trazado 137002" d="M8.375,111.153c-.277,1.526.664,2.395,1.761,3.119a10.857,10.857,0,0,0,4.572,1.7q.265,1.223.53,2.447c.051.235.032.358-.276.295a10.647,10.647,0,0,1-4.774-1.926c-1.815-1.472-2.12-3.464-1.813-5.636" transform="translate(-4.264 -57.304)" fill="#fedba6"/>
        <path id="Trazado_137003" data-name="Trazado 137003" d="M60.093,117.523a9.437,9.437,0,0,0,6.372-3.355,5.008,5.008,0,0,1-2.818,4.817,13.485,13.485,0,0,1-4.158,1.349l.6-2.811" transform="translate(-30.669 -58.858)" fill="#fedba6"/>
        <path id="Trazado_137004" data-name="Trazado 137004" d="M36.248,122.276c1.2,0,2.391,0,3.587,0,.3,0,.57,0,.558-.407.2.983.4,1.967.6,2.989-1.676.108-3.327.078-4.979.034-.28-.008-.318-.125-.265-.36.171-.752.331-1.506.5-2.259" transform="translate(-18.422 -62.83)" fill="#fedba6"/>
        <path id="Trazado_137005" data-name="Trazado 137005" d="M79.6,109.077a8.282,8.282,0,0,1,.183,2.649,1.208,1.208,0,0,0,.078.985,21.368,21.368,0,0,1-3.133,2,9.979,9.979,0,0,0,.633-3.662c0-.174.123-.257.243-.354.668-.538,1.331-1.081,2-1.622" transform="translate(-39.556 -56.233)" fill="#fdce85"/>
        <path id="Trazado_137006" data-name="Trazado 137006" d="M38.016,37.657a6.215,6.215,0,0,1,1.846.229,1.442,1.442,0,0,1,.761,2.323,2.636,2.636,0,0,1-1.308,1,.485.485,0,0,0-.377.562c.018.559.02,1.118,0,1.677a.962.962,0,0,1-.979,1.047c-.582,0-.935-.383-.96-1.05-.007-.172-.009-.344,0-.516.047-.9.141-1.793-1.057-2.1-.328-.085-.56-.452-.74-.78a1.415,1.415,0,0,1,.779-2.143,6.131,6.131,0,0,1,2.036-.25" transform="translate(-18.03 -19.414)"/>
        <path id="Trazado_137007" data-name="Trazado 137007" d="M24.145,33.71c0,1.422-.855,2.472-2,2.45-1.125-.021-1.944-1.1-1.92-2.532a2.2,2.2,0,0,1,1.968-2.369,2.221,2.221,0,0,1,1.952,2.451" transform="translate(-10.426 -16.115)"/>
        <path id="Trazado_137008" data-name="Trazado 137008" d="M57.89,33.713a2.749,2.749,0,0,1-.8,1.984,1.709,1.709,0,0,1-2.341.027,2.852,2.852,0,0,1,.044-4.039,1.693,1.693,0,0,1,2.289.063,2.746,2.746,0,0,1,.812,1.965" transform="translate(-27.802 -16.121)"/>
      </g>
    </g>
  </g>
</svg>
