<svg xmlns="http://www.w3.org/2000/svg" xmlns:xlink="http://www.w3.org/1999/xlink" width="105" height="105" viewBox="0 0 105 105">
  <defs>
    <clipPath id="clip-path">
      <rect id="Rect치ngulo_37628" data-name="Rect치ngulo 37628" width="68.255" height="62.364" fill="none"/>
    </clipPath>
  </defs>
  <g id="Grupo_161675" data-name="Grupo 161675" transform="translate(-5866 10101)">
    <rect id="Rect치ngulo_37514" data-name="Rect치ngulo 37514" width="105" height="105" rx="52.5" transform="translate(5866 -10101)" fill="#6b8dfc"/>
    <g id="Grupo_159195" data-name="Grupo 159195" transform="translate(5884 -10080)">
      <g id="Grupo_159194" data-name="Grupo 159194" clip-path="url(#clip-path)">
        <path id="Trazado_137022" data-name="Trazado 137022" d="M60.59,43.817a4.456,4.456,0,0,1-2.2-2.768A2.829,2.829,0,0,1,60.1,37.8a2.463,2.463,0,0,1,3.106,1.581,8.307,8.307,0,0,1,.525,2.445,6.164,6.164,0,0,0,2.706-4.493,8.949,8.949,0,0,0,.011-1.211c-.014-.6.159-1.075.852-1.09s.913.435.941,1.037a8.054,8.054,0,0,1-2.159,6.1,5.891,5.891,0,0,1-3.046,1.874.884.884,0,0,0-.5.312A8.7,8.7,0,0,1,58.5,46.92a.806.806,0,0,0-.651.906,26.041,26.041,0,0,1-2.136,9.76,3.481,3.481,0,0,1-3.406,2.324c-.151.008-.3.012-.454.016-1.906.048-2.529-.61-2.354-2.5.032-.35.083-.7.132-1.115-1.242.456-2.427.891-3.613,1.325-.3.109-.282.393-.34.624a25.344,25.344,0,0,1-.884,2.729,1.954,1.954,0,0,1-1.766,1.328,8.187,8.187,0,0,1-4.007-.576c-.976-.406-1.175-.811-.891-1.817.148-.522.167-.789-.551-.8a17.546,17.546,0,0,1-6.184-1.31c-.548-.218-.782-.256-.857.475a3.226,3.226,0,0,1-3.157,3c-2.765.219-3.814-.7-4.305-3.849a30.013,30.013,0,0,1,.676-12.387c.113-.428.139-.576-.394-.641a27.352,27.352,0,0,1-8.524-2.21c-4.515-2.142-6.709-5.792-6.9-10.7a48.964,48.964,0,0,1,.409-8.468.9.9,0,0,0-.557-1.055A14.526,14.526,0,0,1,.265,11.629,13.167,13.167,0,0,1,.58,5.112C1.6,1.872,3.486.777,6.808,1.45A26.829,26.829,0,0,1,15.02,4.815a1.907,1.907,0,0,0,2.586-.12A22.129,22.129,0,0,1,28.448.412a33.731,33.731,0,0,1,13.821.664,21.059,21.059,0,0,1,7.949,4.068.756.756,0,0,0,1.038.062,31.682,31.682,0,0,1,8.63-3.747,10.359,10.359,0,0,1,1.192-.213c2.7-.3,4.241.549,5.208,3.1,1.584,4.172.938,8.183-1.165,12.011a13.86,13.86,0,0,1-5.267,5.314.759.759,0,0,0-.443.939,39.153,39.153,0,0,1,.532,10.108,11.132,11.132,0,0,1-3.1,6.9.709.709,0,0,0-.183.908,14.126,14.126,0,0,1,1.012,4.1c.054.687.285.761.868.474a8.657,8.657,0,0,0,2.053-1.27" transform="translate(0 0)"/>
        <path id="Trazado_137023" data-name="Trazado 137023" d="M66.542,35.485a14.792,14.792,0,0,1-.62,7.011c-1.7,2.822-4.413,4.213-7.417,5.121a37.869,37.869,0,0,1-7.822,1.33,106.079,106.079,0,0,1-11.724.26,49.131,49.131,0,0,1-12.217-1.46,14.17,14.17,0,0,1-6.893-3.9c-.382-.418-.621-.913-.961-1.348a7.785,7.785,0,0,1-.659-2.841,28.574,28.574,0,0,1,.062-5.5,23.336,23.336,0,0,1,2.653-7.281,19.368,19.368,0,0,1,9.6-8.666,28.124,28.124,0,0,1,8.818-2.022,32.905,32.905,0,0,1,8.524.333A21.321,21.321,0,0,1,63.916,28.2a32.922,32.922,0,0,1,2.315,5.837c.143.479.049,1,.311,1.445" transform="translate(-8.412 -7.45)" fill="#feb5c5"/>
        <path id="Trazado_137024" data-name="Trazado 137024" d="M66.685,29.565a3.924,3.924,0,0,1-.6-1.7,25.1,25.1,0,0,0-7.264-12.084,21.251,21.251,0,0,0-9.946-4.829,30.86,30.86,0,0,0-8.107-.6c-4.569.248-8.991,1.129-12.927,3.635a19.246,19.246,0,0,0-6.5,6.906,27.13,27.13,0,0,0-2.651,6.8c-.046.183-.058.409-.25.535A32.769,32.769,0,0,1,21.669,14.2a18.175,18.175,0,0,1,11.2-9.443,30.779,30.779,0,0,1,17.335-.4c6.756,1.813,11.2,6.273,13.848,12.618a34.888,34.888,0,0,1,2.628,12.593" transform="translate(-8.554 -1.531)" fill="#fecfdb"/>
        <path id="Trazado_137025" data-name="Trazado 137025" d="M76.639,79.771a15.392,15.392,0,0,1,.569,5.311,21.458,21.458,0,0,1-2.255,9.106,2.568,2.568,0,0,1-2.347.931c-.258-.082-.208-.256-.188-.418.092-.726.2-1.45.295-2.176a.765.765,0,0,1,.493-.609,13.639,13.639,0,0,0,1.451-.81c.441-.3.771-.7.4-1.271s-.84-.458-1.317-.165A31.7,31.7,0,0,1,68.016,92.4c-.518.19-.7.18-.657-.45a7.663,7.663,0,0,0-.259-3.075c-.242-.716-.631-.976-1.213-.8s-.734.6-.532,1.345c.516,1.905.055,3.756-.342,5.605-.116.54-.359,1.056-.449,1.6-.141.852-.65,1.031-1.4.945a3.641,3.641,0,0,1-1.831-.36c-.52-.409-.06-1.107-.014-1.667.169-2.041.207-4.087.281-6.131.034-.933-.273-1.384-.9-1.379-.586,0-.9.448-.922,1.308-.047,1.49-.117,2.979-.139,4.47-.006.442-.154.542-.57.53a18.537,18.537,0,0,1-6.6-1.529c-.327-.136-.37-.3-.3-.63a23.859,23.859,0,0,1,.83-2.748c.218-.622.059-1.072-.537-1.28s-.974.117-1.162.668a18.363,18.363,0,0,0-1.279,5.73,2.092,2.092,0,0,1-2.777,2c-.39-.121-.541-.511-.691-.858a9.157,9.157,0,0,1-.643-2.791,28.838,28.838,0,0,1,.548-9.183,1.21,1.21,0,0,1,1.006-.2,96.9,96.9,0,0,0,11.72.244,50.984,50.984,0,0,0,10.583-1.194,18.8,18.8,0,0,0,6.038-2.541c.248-.166.482-.385.824-.265" transform="translate(-21.244 -37.003)" fill="#feb5c5"/>
        <path id="Trazado_137026" data-name="Trazado 137026" d="M19.548,65.393c.487.259.715.767,1.064,1.153a14.575,14.575,0,0,0,7.738,4.121,43.863,43.863,0,0,0,6.611.963,104.78,104.78,0,0,0,11.852.254,47.548,47.548,0,0,0,12.134-1.516,13.083,13.083,0,0,0,7.288-4.7,1.731,1.731,0,0,1,.347-.281,8.821,8.821,0,0,1-4.509,5.149,21.763,21.763,0,0,1-7.866,2.275,99.01,99.01,0,0,1-19.955.271,26.6,26.6,0,0,1-9.59-2.235,9.5,9.5,0,0,1-4.993-5.029,3.872,3.872,0,0,1-.121-.43" transform="translate(-9.071 -30.346)" fill="#fe96a8"/>
        <path id="Trazado_137027" data-name="Trazado 137027" d="M17.427,13.959a29.186,29.186,0,0,0-4.369,9.586,10.024,10.024,0,0,1-3.9-4.3,8.218,8.218,0,0,1-.347-5.833c.528-1.655,1.561-2.264,3.417-1.877a15.53,15.53,0,0,1,4.985,2.121.474.474,0,0,1,.215.3" transform="translate(-3.911 -5.302)" fill="#fe96a8"/>
        <path id="Trazado_137028" data-name="Trazado 137028" d="M77.23,78.546a18.925,18.925,0,0,1-5.337,2.618,36.155,36.155,0,0,1-6.2,1.194,104.509,104.509,0,0,1-13.138.431c-1.834-.019-3.666-.188-5.5-.288a.675.675,0,0,1,0-.151c.421-1.871.423-1.9,2.318-1.815a130.263,130.263,0,0,0,13.26-.021,34.143,34.143,0,0,0,11.752-2.271,15.933,15.933,0,0,0,1.945-1.006c.36-.216.517-.212.62.217a4.829,4.829,0,0,1,.28,1.093" transform="translate(-21.835 -35.777)" fill="#fe96a8"/>
        <path id="Trazado_137029" data-name="Trazado 137029" d="M104.648,22.8a38.092,38.092,0,0,0-2.72-6.094c-.59-.994-1.274-1.921-1.931-2.868a.4.4,0,0,1,.155-.252,12.167,12.167,0,0,1,5.773-2.076,2.072,2.072,0,0,1,2.057,1.262,7.256,7.256,0,0,1,.366,5.319,8.008,8.008,0,0,1-2.893,4.42c-.237.178-.457.419-.807.289" transform="translate(-46.405 -5.342)" fill="#fe96a8"/>
        <path id="Trazado_137030" data-name="Trazado 137030" d="M104.23,21.488a7.813,7.813,0,0,0,3.647-5.375,7.437,7.437,0,0,0-.108-3.575c-.511-1.894-1.491-2.483-3.418-2.041a20.214,20.214,0,0,0-4.773,2.03l-.483-.6a7.42,7.42,0,0,1,2.22-1.243,19.159,19.159,0,0,1,5.7-1.925,3.964,3.964,0,0,1,3.758,1.034,11.573,11.573,0,0,1-.319,7.615A12.483,12.483,0,0,1,104.9,24.1l-.668-2.611" transform="translate(-45.987 -4.028)" fill="#feb5c5"/>
        <path id="Trazado_137031" data-name="Trazado 137031" d="M15.129,12.629A24.779,24.779,0,0,0,10.664,10.6a7.5,7.5,0,0,0-1.552-.264c-1.619-.144-2.114.769-2.433,1.876a8.219,8.219,0,0,0,2.054,8.166,8.334,8.334,0,0,0,1.486,1.154c.259.181.5.342.54.681-.128.666-.256,1.331-.4,2.078a11.642,11.642,0,0,1-4.022-3.3A12.454,12.454,0,0,1,3.9,9.822a6.034,6.034,0,0,1,.267-.693c1.114-.849,2.374-.546,3.569-.361a17.545,17.545,0,0,1,5.123,1.822A19.742,19.742,0,0,1,15.6,12.03l-.473.6" transform="translate(-1.613 -3.972)" fill="#feb5c5"/>
        <path id="Trazado_137032" data-name="Trazado 137032" d="M16.2,10.63a2.081,2.081,0,0,1-1.049-.377,29.972,29.972,0,0,0-6.1-2.524,7.591,7.591,0,0,0-4.28,0C5.432,5.8,6.458,5.231,8.593,5.7a31.886,31.886,0,0,1,8.7,3.738L16.2,10.63" transform="translate(-2.216 -2.572)" fill="#fecfdb"/>
        <path id="Trazado_137033" data-name="Trazado 137033" d="M110.094,8.349c-.039.1-.066.327-.207.147-.959-1.225-2.273-1.149-3.584-.964a21.035,21.035,0,0,0-6.242,2.194,8.072,8.072,0,0,1-1.645.756c-1.082-1.056-1.088-1.068.234-1.768a28.631,28.631,0,0,1,7.364-3c2.377-.508,3.538.245,4.081,2.63" transform="translate(-45.306 -2.584)" fill="#fecfdb"/>
        <path id="Trazado_137034" data-name="Trazado 137034" d="M55.667,64.254a10.534,10.534,0,0,1-5.922-1.811,4.322,4.322,0,0,1-1.152-6.512c3.44-5.037,11.551-5.029,14.988.014a4.334,4.334,0,0,1-1.107,6.471,11.55,11.55,0,0,1-6.807,1.838" transform="translate(-22.088 -24.204)"/>
        <path id="Trazado_137035" data-name="Trazado 137035" d="M44.318,47a1.818,1.818,0,1,1-1.824,1.831A1.836,1.836,0,0,1,44.318,47" transform="translate(-19.72 -21.81)" fill="#010000"/>
        <path id="Trazado_137036" data-name="Trazado 137036" d="M80.543,47a1.818,1.818,0,1,1-1.828,1.826A1.837,1.837,0,0,1,80.543,47" transform="translate(-36.529 -21.81)" fill="#010000"/>
        <path id="Trazado_137037" data-name="Trazado 137037" d="M64.177,60.886a1.986,1.986,0,0,1-.608,2.248,6.473,6.473,0,0,1-3.529,1.741,10.736,10.736,0,0,1-6.721-.63,4.484,4.484,0,0,1-1.752-1.279,1.924,1.924,0,0,1-.456-2.082,2.225,2.225,0,0,0,.743-.623,8.5,8.5,0,0,1,11.58,0,2.272,2.272,0,0,0,.742.624" transform="translate(-23.65 -26.908)" fill="#fe7286"/>
        <path id="Trazado_137038" data-name="Trazado 137038" d="M64.306,59.735c-.278.531-.409-.039-.48-.113a7.973,7.973,0,0,0-3.615-2.23,8.093,8.093,0,0,0-8.156,1.924c-.205.187-.382.406-.6.576-.177.14-.179-.056-.217-.16a3.887,3.887,0,0,1,1.237-2.027,7.468,7.468,0,0,1,10.7.109,3.725,3.725,0,0,1,1.13,1.92" transform="translate(-23.778 -25.757)" fill="#fe96a8"/>
        <path id="Trazado_137039" data-name="Trazado 137039" d="M59.065,62.671a3.234,3.234,0,0,1-.511,1.731c-.424.62-.958.612-1.4.011a4.063,4.063,0,0,1-.024-3.9c.455-.652.99-.655,1.447-.007a4,4,0,0,1,.491,2.164" transform="translate(-26.285 -27.854)" fill="#010000"/>
        <path id="Trazado_137040" data-name="Trazado 137040" d="M68.125,62.493a3.515,3.515,0,0,1-.486,1.859c-.436.671-.984.679-1.443.042a4.061,4.061,0,0,1,0-3.9c.457-.641,1.007-.64,1.442.027a3.566,3.566,0,0,1,.491,1.97" transform="translate(-30.487 -27.853)" fill="#010000"/>
      </g>
    </g>
  </g>
</svg>
