<svg xmlns="http://www.w3.org/2000/svg" xmlns:xlink="http://www.w3.org/1999/xlink" width="105" height="105" viewBox="0 0 105 105">
  <defs>
    <clipPath id="clip-path">
      <rect id="Rect치ngulo_37631" data-name="Rect치ngulo 37631" width="64.018" height="62" fill="none"/>
    </clipPath>
  </defs>
  <g id="Grupo_161676" data-name="Grupo 161676" transform="translate(-5866 9967)">
    <rect id="Rect치ngulo_37516" data-name="Rect치ngulo 37516" width="105" height="105" rx="52.5" transform="translate(5866 -9967)" fill="#6b8dfc"/>
    <g id="Grupo_159199" data-name="Grupo 159199" transform="translate(5886 -9945)">
      <g id="Grupo_159198" data-name="Grupo 159198" transform="translate(0 0)" clip-path="url(#clip-path)">
        <path id="Trazado_137091" data-name="Trazado 137091" d="M85.167,13.317c-.8.911-1.441.844-2.069-.219A20.274,20.274,0,0,0,74.13,5.321a2.759,2.759,0,0,1-.6-.331.9.9,0,0,1-.259-1.175.882.882,0,0,1,1.133-.522,10.65,10.65,0,0,1,1.468.676,21.422,21.422,0,0,1,9.191,8.543c.016.028.065.036.1.054Z" transform="translate(-21.149 -0.935)"/>
        <path id="Trazado_137092" data-name="Trazado 137092" d="M28.7,64.433A28.007,28.007,0,1,1,56.009,35.945,28.026,28.026,0,0,1,28.7,64.433" transform="translate(0 -2.436)"/>
        <path id="Trazado_137093" data-name="Trazado 137093" d="M81.334,28.732a1,1,0,1,1-1.989.228c-.218-.951-.39-1.915-.651-2.855a27.134,27.134,0,0,0-8.4-13.729c-.252-.217-.524-.411-.789-.612-.592-.451-.723-1-.355-1.5a.991.991,0,0,1,1.488-.144,20.315,20.315,0,0,1,3.915,3.656,30.981,30.981,0,0,1,6.642,14.184c.058.284.1.572.139.769" transform="translate(-19.931 -2.85)"/>
        <path id="Trazado_137094" data-name="Trazado 137094" d="M64.411,0a20.109,20.109,0,0,1,3.337.882.879.879,0,0,1,.534,1.13.9.9,0,0,1-1.079.726c-1.093-.232-2.178-.513-3.25-.83a.872.872,0,0,1-.6-1.093A.994.994,0,0,1,64.411,0" transform="translate(-18.306 0)"/>
        <path id="Trazado_137095" data-name="Trazado 137095" d="M84.365,43.314c-.031-.476-.083-.953-.087-1.43a1,1,0,1,1,1.989-.053c.05.933.092,1.866.109,2.8a1.017,1.017,0,0,1-1,1.172c-.6,0-.982-.451-.994-1.182-.007-.436,0-.872,0-1.308h-.016" transform="translate(-24.364 -11.797)"/>
        <path id="Trazado_137096" data-name="Trazado 137096" d="M38.144,65.2A42.861,42.861,0,0,1,31.3,57.124a42.015,42.015,0,0,1-6.478-16.151c-.252-1.446-.267-1.437,1.022-2.105a10.223,10.223,0,0,0,4.909-5.284c.213-.518.483-.563.933-.495A41.676,41.676,0,0,1,46.9,38.567,47.216,47.216,0,0,1,59.4,49.482a1.878,1.878,0,0,1,.131.21c.18.25.051.478-.055.7A25.48,25.48,0,0,1,55,56.9a27.1,27.1,0,0,1-7.923,5.888A27.537,27.537,0,0,1,38.741,65.3a.8.8,0,0,1-.6-.106" transform="translate(-7.135 -9.559)" fill="#f8ba3d"/>
        <path id="Trazado_137097" data-name="Trazado 137097" d="M62.98,43.389c-.795-.9-1.5-1.74-2.256-2.537A45.984,45.984,0,0,0,37.61,27.233c-1.171-.279-2.364-.469-3.552-.667-.316-.053-.422-.159-.4-.473a5.088,5.088,0,0,0-1.115-3.551c-.321-.4.09-.468.258-.587a24.734,24.734,0,0,1,7.1-3.435,28.094,28.094,0,0,1,9.624-1.1c.83.039,1.656.162,2.484.238a1.318,1.318,0,0,1,.653.343A25.576,25.576,0,0,1,62.885,34.1a24.227,24.227,0,0,1,.095,9.287" transform="translate(-9.372 -5.025)" fill="#e54042"/>
        <path id="Trazado_137098" data-name="Trazado 137098" d="M9,56.971A25.8,25.8,0,0,1,13.479,41.3c.277-.409.466-.487.9-.147a4.339,4.339,0,0,0,3.028.95c.578-.038.743.189.811.7A40.473,40.473,0,0,0,21.15,53.2a46.868,46.868,0,0,0,9.3,14.012c.114.12.216.252.324.377-.217.228-.5.164-.764.168a24.467,24.467,0,0,1-8.719-1.59,27.171,27.171,0,0,1-11.016-7.509A7.615,7.615,0,0,1,9,56.971" transform="translate(-2.598 -11.835)" fill="#0e87cb"/>
        <path id="Trazado_137099" data-name="Trazado 137099" d="M9,63.49c1.1,1.186,2.133,2.431,3.324,3.53A26.853,26.853,0,0,0,19.778,71.9a28.306,28.306,0,0,0,6.41,1.919,20.382,20.382,0,0,0,4.582.286c1.362,1.275,2.691,2.588,4.219,3.823a14.7,14.7,0,0,1-3.508.4A25.957,25.957,0,0,1,9.493,67.529a2.067,2.067,0,0,1-.3-1.12A15.992,15.992,0,0,1,9,63.49" transform="translate(-2.597 -18.354)" fill="#0071bb"/>
        <path id="Trazado_137100" data-name="Trazado 137100" d="M44.859,13.6a28.21,28.21,0,0,0-14.707,3.9c-.786.466-1.53,1-2.28,1.528a.769.769,0,0,1-.738.189,6.568,6.568,0,0,0-4.51.249c-.577.228-.7.059-.788-.459a9.049,9.049,0,0,1,.46-4.6c.1-.3.347-.4.587-.515a26.2,26.2,0,0,1,9.067-2.549A25.642,25.642,0,0,1,44.155,13.2a1.614,1.614,0,0,1,.7.4" transform="translate(-6.277 -3.249)" fill="#0e87cb"/>
        <path id="Trazado_137101" data-name="Trazado 137101" d="M3.063,45.969a18.164,18.164,0,0,1-.213-4.722,26.1,26.1,0,0,1,2.556-9.83,1.4,1.4,0,0,1,.928-.821,8.593,8.593,0,0,1,4.425-.292c.359.08.5.157.335.564a7.016,7.016,0,0,0-.289,4.757.651.651,0,0,1-.171.626A27.463,27.463,0,0,0,5.478,48.738c-.077.492-.122.99-.181,1.485-.352.338-.459-.031-.562-.227a15.248,15.248,0,0,1-1.6-3.866.314.314,0,0,0-.075-.162" transform="translate(-0.807 -8.71)" fill="#e54042"/>
        <path id="Trazado_137102" data-name="Trazado 137102" d="M43.618,71.96a27.525,27.525,0,0,0,6.97-1.729,26.982,26.982,0,0,0,10.3-7.246,23.927,23.927,0,0,0,4-6.056A2.624,2.624,0,0,0,65,56.453a1.35,1.35,0,0,1,.407,1.74A25.751,25.751,0,0,1,48.088,75.226a.938.938,0,0,1-1.008-.215,40.423,40.423,0,0,1-3.462-3.051" transform="translate(-12.609 -16.32)" fill="#e7a42d"/>
        <path id="Trazado_137103" data-name="Trazado 137103" d="M19.748,26.441a6.01,6.01,0,0,1,4.838-1.488,2.857,2.857,0,0,1,2.443,2.618,4.94,4.94,0,0,1-.248,2.274,8.242,8.242,0,0,1-6.019,5.525c-2.78.674-4.644-1.069-4.245-3.9a6.293,6.293,0,0,1,1.5-3.293c.2.25.012.477-.051.7a1.748,1.748,0,0,0,.284,1.924,1.811,1.811,0,0,0,2.06.165,3.913,3.913,0,0,0,2.365-2.721c.336-1.41-.5-2.238-1.919-1.943-.327.069-.635.359-1,.135" transform="translate(-4.759 -7.193)" fill="#f2e1b2"/>
        <path id="Trazado_137104" data-name="Trazado 137104" d="M8.992,24.651A25.354,25.354,0,0,1,16.2,17.427a8.945,8.945,0,0,0,.048,3.812,1.616,1.616,0,0,1-.729,2.157,5.63,5.63,0,0,0-1.174,1.281.479.479,0,0,1-.579.219,9.806,9.806,0,0,0-4.777-.245" transform="translate(-2.599 -5.038)" fill="#f8ba3d"/>
        <path id="Trazado_137105" data-name="Trazado 137105" d="M20.22,26.927c.316-.091.63-.192.948-.272,1.463-.365,2.341.37,2.2,1.853-.168,1.73-2.256,3.437-3.6,3.324a1.583,1.583,0,0,1-1.611-2.045c.082-.381.221-.75.334-1.125a6.227,6.227,0,0,1,1.735-1.736" transform="translate(-5.231 -7.679)" fill="#fbf1d8"/>
        <path id="Trazado_137106" data-name="Trazado 137106" d="M3.173,52.409a3.572,3.572,0,0,1,.586,1.344c.355.906.792,1.768,1.223,2.635.081.163.114.446.425.277-.034.5-.081.993-.1,1.49s0,1-.072,1.516a21.35,21.35,0,0,1-2.064-7.261" transform="translate(-0.917 -15.151)" fill="#d12f37"/>
        <path id="Trazado_137107" data-name="Trazado 137107" d="M30.877,47.114c.482.027.736.4.894.929a33.917,33.917,0,0,0,3.9,8.536c.2.316.42.62.623.934a1.045,1.045,0,0,1-.156,1.541,1.014,1.014,0,0,1-1.491-.4,35.043,35.043,0,0,1-3.8-7.143,28.666,28.666,0,0,1-1.045-3.065,1,1,0,0,1,1.071-1.328" transform="translate(-8.603 -13.62)"/>
        <path id="Trazado_137108" data-name="Trazado 137108" d="M41.846,66.578a1.044,1.044,0,0,1-1.05,1.014,1.02,1.02,0,1,1,1.05-1.014" transform="translate(-11.496 -18.95)" fill="#272625"/>
        <path id="Trazado_137109" data-name="Trazado 137109" d="M61.482,23.92a1.181,1.181,0,0,1,.91.475,25.58,25.58,0,0,1,5.486,8.71c.151.387.3.776.427,1.172a1,1,0,0,1-.548,1.243.982.982,0,0,1-1.3-.547c-.294-.665-.535-1.353-.816-2.024A22.412,22.412,0,0,0,60.9,25.742a1.04,1.04,0,0,1-.331-1.182.962.962,0,0,1,.911-.641" transform="translate(-17.489 -6.915)"/>
        <path id="Trazado_137110" data-name="Trazado 137110" d="M57,20.114a1.1,1.1,0,0,1,1.024,1.062A1.04,1.04,0,1,1,57,20.114" transform="translate(-16.171 -5.815)" fill="#262525"/>
      </g>
    </g>
  </g>
</svg>
