<svg xmlns="http://www.w3.org/2000/svg" xmlns:xlink="http://www.w3.org/1999/xlink" width="105" height="105" viewBox="0 0 105 105">
  <defs>
    <clipPath id="clip-path">
      <rect id="Rect치ngulo_37632" data-name="Rect치ngulo 37632" width="84.18" height="61.551" fill="none"/>
    </clipPath>
  </defs>
  <g id="Grupo_159202" data-name="Grupo 159202" transform="translate(-3239 9833)">
    <rect id="Rect치ngulo_37517" data-name="Rect치ngulo 37517" width="105" height="105" rx="52.5" transform="translate(3239 -9833)" fill="#6b8dfc"/>
    <g id="Grupo_159201" data-name="Grupo 159201" transform="translate(3249 -9811)">
      <g id="Grupo_159200" data-name="Grupo 159200" transform="translate(0 0)" clip-path="url(#clip-path)">
        <path id="Trazado_137111" data-name="Trazado 137111" d="M0,32.584a8,8,0,0,0,.45-2.278A26.268,26.268,0,0,1,22.144,9.225a25.5,25.5,0,0,1,18.639,3.991,2.086,2.086,0,0,0,2.668-.02A24.691,24.691,0,0,1,54.9,9.063c.578-.058.716-.27.7-.813-.039-1.149-.028-2.3-.008-3.453A4.7,4.7,0,0,1,60.38.015q1.357-.023,2.714,0a1.241,1.241,0,0,1,1.39,1.19c.023.749-.514,1.255-1.4,1.273-.931.02-1.864-.017-2.795.013A2.214,2.214,0,0,0,58.066,4.75c-.023,1.178.014,2.358-.015,3.536-.011.447.1.616.577.62a23.6,23.6,0,0,1,7.019,1.15c.537.172.677.1.68-.489a45.379,45.379,0,0,1,.082-5.5A4.6,4.6,0,0,1,70.718.038C71.784-.021,72.855,0,73.924.02a1.213,1.213,0,0,1,1.3,1.187,1.231,1.231,0,0,1-1.312,1.27c-.9.028-1.809,0-2.713.01a2.241,2.241,0,0,0-2.4,2.346c-.038,1.973.009,3.948-.025,5.92-.008.478.277.6.6.755A26.345,26.345,0,0,1,83.928,31.687a25.8,25.8,0,0,1-3.886,17.647c-.558.889-.915,1-1.918.687a1.294,1.294,0,0,1-.461-1.955c.439-.821.928-1.614,1.356-2.443a21.912,21.912,0,0,0,2.476-10.785,23.265,23.265,0,0,0-6.649-16.006,21.485,21.485,0,0,0-5.152-4.04c-.711-.388-.639-.373-.738.455A3.737,3.737,0,0,0,70.729,19a19.742,19.742,0,0,1,7.8,14.29,19.723,19.723,0,0,1-5.632,16.149,20.56,20.56,0,0,1-16.346,6.531,19.244,19.244,0,0,1-9.659-3.154,8.535,8.535,0,0,0-4.7-1.762,7.007,7.007,0,0,0-3.879,1.157,21.767,21.767,0,0,1-8.868,3.514,20.213,20.213,0,0,1-17-5.2A20.384,20.384,0,0,1,6.186,40.208a19.192,19.192,0,0,1,.122-10.474c2.345-7.863,7.594-12.779,15.516-14.78a19.64,19.64,0,0,1,12.025.873c1.2.458,1.48.938,1.318,2.1a1.516,1.516,0,0,1-2.075.743,24.531,24.531,0,0,0-2.665-.831,17.552,17.552,0,0,0-15.855,3.994A16.737,16.737,0,0,0,10.18,27.7a18.881,18.881,0,0,0-1.6,6.08,16.451,16.451,0,0,0,.686,6.482,17.6,17.6,0,0,0,7.227,9.773,17.617,17.617,0,0,0,19.609.1,10.428,10.428,0,0,1,6.312-1.987,9.457,9.457,0,0,1,4.673,1.375,23.614,23.614,0,0,0,5.485,2.767,17.173,17.173,0,0,0,12.867-1.018,17.562,17.562,0,0,0,9.223-10.106c2.936-7.911-.843-16.391-5.51-19.633-.277.235-.157.558-.158.837-.01,2.494-.005,4.989-.007,7.482a3.907,3.907,0,0,1-.057.983,1.406,1.406,0,0,1-1.209,1.086,1.265,1.265,0,0,1-1.368-.7,3.955,3.955,0,0,1-.3-2.086c-.017-1.018-.063-1.078-1.067-1.081q-2.837-.009-5.674,0c-.953,0-1,.064-1.012,1.043-.006.466.025.933-.025,1.4a1.445,1.445,0,1,1-2.89-.011,8.652,8.652,0,0,1-.024-.986q0-5.385,0-10.773c0-1.118-.06-1.171-1.184-.951a17.087,17.087,0,0,0-5.052,1.914,25.678,25.678,0,0,1-3.6,1.98,9.616,9.616,0,0,1-7.52-.286A1.577,1.577,0,0,1,37,19.08a1.529,1.529,0,0,1,2.117-.4,6.894,6.894,0,0,0,5.436.218,9.074,9.074,0,0,0,1.658-.9,20.809,20.809,0,0,1,8.268-3.259.9.9,0,0,0,.907-1.08c-.047-2.151.2-2.078-2.024-1.661a22.037,22.037,0,0,0-8.047,3.194c-.069.044-.141.084-.206.135-2.046,1.565-3.971,1.361-6.115-.025a22.153,22.153,0,0,0-19.751-2.557C11,15.456,5.573,21.057,3.437,29.478A22.467,22.467,0,0,0,8.229,50.355,23.249,23.249,0,0,0,24.044,58.7a22.644,22.644,0,0,0,15.242-3.745,4.551,4.551,0,0,1,5.561-.055,22.62,22.62,0,0,0,9.672,3.68,23.08,23.08,0,0,0,18.46-5.292c.572-.469,1.1-.985,1.682-1.445A1.272,1.272,0,0,1,76.642,52a1.4,1.4,0,0,1-.357,1.955,25.851,25.851,0,0,1-13.931,7.187A25.221,25.221,0,0,1,44.1,57.571a3.137,3.137,0,0,0-3.953-.025,24.979,24.979,0,0,1-17.438,3.706A26.354,26.354,0,0,1,.783,41.476C.516,40.418.375,39.328.175,38.253c-.028-.147.047-.341-.175-.406Z" transform="translate(0 0)"/>
        <path id="Trazado_137112" data-name="Trazado 137112" d="M77.063,53.964c-.876-.6-1.308-.57-2.149.236a23.608,23.608,0,0,1-10.1,5.884,22.589,22.589,0,0,1-18.638-2.471c-2.625-1.63-4.6-1.7-7.231-.015-7.885,5.054-18.529,4.453-26.189-1.17A23.67,23.67,0,0,1,8.405,21.966a23.405,23.405,0,0,1,15.715-8.484,22.716,22.716,0,0,1,15.839,3.832,4.152,4.152,0,0,0,5.157-.018A23.05,23.05,0,0,1,54.91,13.54c1.1-.164,1.1-.163,1.1.963a10.884,10.884,0,0,0,.01,1.314c.084.692-.136,1-.872,1.091a19.56,19.56,0,0,0-8.406,3.27,7.16,7.16,0,0,1-6.328,1.028,6.06,6.06,0,0,1-.987-.4,1.423,1.423,0,0,0-1.862.267,3.391,3.391,0,0,1-2.114-1.192c.083-1.183-.06-1.408-1.161-1.842A20.53,20.53,0,1,0,22.675,57.264a19.859,19.859,0,0,0,14.892-2.652,9.9,9.9,0,0,1,4.258-1.8,7.957,7.957,0,0,1,5.238,1.54,19.949,19.949,0,0,0,11.467,3.387A20.693,20.693,0,0,0,78.716,39.125c.63-7.837-2.328-14.1-8.655-18.746a1.682,1.682,0,0,1-.868-1.664c.08-.858.018-1.729.018-2.694A20.932,20.932,0,0,1,73.9,19.168a23.555,23.555,0,0,1,8.2,16.71,22.7,22.7,0,0,1-2.885,12.627c-.277.5-.563,1-.869,1.487a1.4,1.4,0,0,0,.2,1.989,8.932,8.932,0,0,0-1.482,1.982" transform="translate(-0.422 -1.96)" fill="#d1d1d6"/>
        <path id="Trazado_137113" data-name="Trazado 137113" d="M36.725,20.886l2.113,1.192c-.35,1.1-.168,1.529.889,2.009a9.124,9.124,0,0,0,9.019-.488,21.093,21.093,0,0,1,8.06-3.281c.134-.02.268-.034.477-.06v1.657q0,5.589,0,11.179a1.556,1.556,0,0,0,.4,1.286,1.141,1.141,0,0,0,1.219.263,1.225,1.225,0,0,0,.847-1.194c.019-.739.024-1.48,0-2.219-.013-.382.1-.525.5-.523q3.617.024,7.233,0c.469,0,.541.2.528.589-.023.629-.017,1.261,0,1.89.022.951.5,1.53,1.246,1.533s1.222-.571,1.224-1.528c.008-3.068,0-6.134,0-9.327A9.756,9.756,0,0,1,72.9,25.977c4.5,5.281,5.845,11.244,3.792,17.918a3.146,3.146,0,0,1-.17.371,11.31,11.31,0,0,1-4.081,3.47A19.041,19.041,0,0,1,59.03,50.119c-.284-.05-.617-.021-.787-.344.141-.406.534-.434.855-.545a2.348,2.348,0,0,0,1.241-.889.874.874,0,0,0,0-1.072.793.793,0,0,0-1.071-.342c-1.027.652-1.865.29-2.8-.254a3.235,3.235,0,0,0-3.359.1,1.893,1.893,0,0,1-1.125.428,14.255,14.255,0,0,1-1.74-.9,7.97,7.97,0,0,0-7.631.46,22.1,22.1,0,0,1-6.919,3.132A19.072,19.072,0,0,1,18,45.34a18.859,18.859,0,0,1-5.966-10.076,9.589,9.589,0,0,1-.322-4.7,15.924,15.924,0,0,1,5.019-6.46,17.825,17.825,0,0,1,13.808-3.849,16.381,16.381,0,0,1,4.176,1.13,1.492,1.492,0,0,0,2.013-.5" transform="translate(-1.698 -2.962)" fill="#40c0f9"/>
        <path id="Trazado_137114" data-name="Trazado 137114" d="M58.007,51.486a6.772,6.772,0,0,0,2.448.483,20.027,20.027,0,0,0,8.225-1.016,19.437,19.437,0,0,0,6.968-4.334c.194-.19.407-.362.61-.543a16.248,16.248,0,0,1-4.715,7.089,18.053,18.053,0,0,1-12.7,4.9,16.646,16.646,0,0,1-9.2-2.842,10.58,10.58,0,0,0-6.759-2.079,8.626,8.626,0,0,0-4.035,1.234A23.425,23.425,0,0,1,31.4,57.686,18.112,18.112,0,0,1,10.972,33.319a2.91,2.91,0,0,1,.472-.941A19.348,19.348,0,0,0,14.4,42.863a18.932,18.932,0,0,0,12.577,8.778,18.767,18.767,0,0,0,14.737-2.987,8.342,8.342,0,0,1,4.752-1.539,7.955,7.955,0,0,1,4.7,1.4c.2.142.421.252.633.378-.252.49-.6.213-.9.093-1-.4-1.5-.329-1.76.274s.147,1.232,1,1.644a3.143,3.143,0,0,0,3.277-.246,1.92,1.92,0,0,1,2.552.031c.59.493,1.408.413,2.045.793" transform="translate(-1.434 -4.773)" fill="#07a8ef"/>
        <path id="Trazado_137115" data-name="Trazado 137115" d="M76.348,18.427a21.156,21.156,0,0,0-7.917-1.8c-.319-.01-.338-.18-.336-.421.006-.822.021-1.644-.006-2.465-.013-.407.189-.425.5-.416a23.819,23.819,0,0,1,7.381,1.4.473.473,0,0,1,.384.523c-.018,1.01-.007,2.022-.007,3.178" transform="translate(-10.036 -1.964)" fill="#d1d1d6"/>
        <path id="Trazado_137116" data-name="Trazado 137116" d="M72.207,23.911c-1.175,0-2.35-.02-3.524.01-.464.012-.614-.129-.6-.6.033-.9.032-1.8,0-2.7-.016-.448.139-.541.563-.516a19.278,19.278,0,0,1,7.244,1.842c.83.4.408,1.1.422,1.65.014.567-.541.288-.83.3-1.092.036-2.185.014-3.278.014" transform="translate(-10.036 -2.963)" fill="#40c0f9"/>
        <path id="Trazado_137117" data-name="Trazado 137117" d="M72.2,29.32c-1.151,0-2.3-.029-3.45.013-.556.02-.685-.173-.674-.7.024-1.154,0-1.155,1.109-1.155,2.163,0,4.326.038,6.488-.017.934-.025.621.582.668,1.032.054.507.033.884-.692.842-1.147-.067-2.3-.018-3.449-.018" transform="translate(-10.035 -4.048)" fill="#3fbdf5"/>
        <path id="Trazado_137118" data-name="Trazado 137118" d="M54.555,33.542a3.147,3.147,0,0,1-2.173-.725,1.339,1.339,0,0,0-1.849,0,3.517,3.517,0,0,1-4.138.148c-.762-.518-1.015-1.194-.669-1.792.392-.68,1.076-.826,1.913-.335a1.331,1.331,0,0,0,1.589-.108,3.465,3.465,0,0,1,4.467,0,1.362,1.362,0,0,0,1.662.067,1.226,1.226,0,1,1,1.365,2.027,3.177,3.177,0,0,1-2.166.717" transform="translate(-6.718 -4.409)"/>
        <path id="Trazado_137119" data-name="Trazado 137119" d="M25.454,36.558a3.258,3.258,0,0,1-2-.645,1.542,1.542,0,0,0-2.195.008,3.509,3.509,0,0,1-4-.009c-.747-.538-.965-1.218-.583-1.816a1.247,1.247,0,0,1,1.855-.291,1.352,1.352,0,0,0,1.594-.081A3.509,3.509,0,0,1,24.6,33.7a1.389,1.389,0,0,0,1.665.087,1.206,1.206,0,0,1,1.79.285c.409.624.216,1.29-.521,1.824a3.789,3.789,0,0,1-2.077.664" transform="translate(-2.431 -4.85)"/>
        <path id="Trazado_137120" data-name="Trazado 137120" d="M64.759,54.156a3.718,3.718,0,0,1-2.379-.748,1.386,1.386,0,0,0-1.924-.009,3.526,3.526,0,0,1-4.272.014,1.343,1.343,0,0,1-.627-1.339,1.23,1.23,0,0,1,.929-.942,1.265,1.265,0,0,1,1.011.2c.325.17.633.471,1.052.234.335.012.544-.232.789-.4a3.492,3.492,0,0,1,4.142.005,1.488,1.488,0,0,0,1.936.126,1.2,1.2,0,0,1,1.465,1.884,3.678,3.678,0,0,1-2.122.968" transform="translate(-8.185 -7.443)"/>
        <path id="Trazado_137121" data-name="Trazado 137121" d="M77.216,42.031a3.064,3.064,0,0,1-2.13-.707,1.382,1.382,0,0,0-1.918,0,3.512,3.512,0,0,1-4.2.061,1.3,1.3,0,0,1-.544-1.761,1.229,1.229,0,0,1,1.855-.32,1.343,1.343,0,0,0,1.654-.112,3.439,3.439,0,0,1,4.394,0,1.4,1.4,0,0,0,1.731.079,1.206,1.206,0,1,1,1.415,1.952,3.126,3.126,0,0,1-2.256.808" transform="translate(-10.061 -5.66)"/>
        <path id="Trazado_137122" data-name="Trazado 137122" d="M38.688,46.7a2.842,2.842,0,0,1-2.068-.628,1.5,1.5,0,0,0-2.124.021,3.5,3.5,0,0,1-4,.031c-.753-.527-1-1.21-.641-1.8.4-.674,1.048-.795,1.914-.307a1.275,1.275,0,0,0,1.519-.084,3.528,3.528,0,0,1,4.538-.027,1.322,1.322,0,0,0,1.59.095c.816-.47,1.45-.35,1.853.292.375.6.152,1.293-.581,1.815a3.219,3.219,0,0,1-2,.594" transform="translate(-4.377 -6.351)"/>
      </g>
    </g>
  </g>
</svg>
