<svg xmlns="http://www.w3.org/2000/svg" xmlns:xlink="http://www.w3.org/1999/xlink" width="105" height="105" viewBox="0 0 105 105">
  <defs>
    <clipPath id="clip-path">
      <rect id="Rect치ngulo_37625" data-name="Rect치ngulo 37625" width="70.529" height="70.512" fill="none"/>
    </clipPath>
  </defs>
  <g id="Grupo_159169" data-name="Grupo 159169" transform="translate(-3921 10504)">
    <rect id="Rect치ngulo_37510" data-name="Rect치ngulo 37510" width="105" height="105" rx="52.5" transform="translate(3921 -10504)" fill="#6b8dfc"/>
    <g id="Grupo_159187" data-name="Grupo 159187" transform="translate(3938.236 -10492)">
      <g id="Grupo_159184" data-name="Grupo 159184" clip-path="url(#clip-path)">
        <path id="Trazado_136979" data-name="Trazado 136979" d="M35.225,73.578H1.734c-1.4,0-1.727-.321-1.727-1.721Q.006,60.619,0,49.382a3.2,3.2,0,0,1,.31-1.411q3.456-7.313,6.9-14.633a5.834,5.834,0,0,1,8.362-2.776c.461.25.592.108.809-.257,1.862-3.128,3.818-6.2,5.594-9.377a5.93,5.93,0,0,1,9.4-1.587c.435.443.536-.049.691-.235q4.378-5.286,8.727-10.6A6.235,6.235,0,0,1,44.778,6a5.822,5.822,0,0,1,5.771,2.429q4.2,5.472,8.411,10.936,5.526,7.183,11.057,14.363a2.276,2.276,0,0,1,.511,1.477q-.018,18.4-.01,36.8c0,1.2-.378,1.573-1.581,1.573H35.225M38.5,59.044c-.21-.142-.3-.217-.408-.276a64.045,64.045,0,0,0-14.53-6.157,35.162,35.162,0,0,0-20.512.406c-.365.116-.706.156-.7.729q.039,8.477.007,16.954c0,.412.107.536.529.536q10.9-.018,21.8,0a.712.712,0,0,0,.7-.4A29.674,29.674,0,0,1,33.1,62.494a44.287,44.287,0,0,1,5.391-3.45M27.916,71.226h.516q19.57,0,39.141.011c.475,0,.609-.117.607-.6q-.027-7.637,0-15.274c0-.505-.161-.6-.622-.581-2.226.087-4.448.2-6.667.407a59.62,59.62,0,0,0-17.134,4.006,36.791,36.791,0,0,0-13.728,9.293,19.5,19.5,0,0,0-2.113,2.741M13.777,48.871a9.826,9.826,0,0,0,1.972-.028,11.946,11.946,0,0,0,1.9-.763c2.654-1.061,5.3-2.148,7.969-3.166,5.251-2,10.584-3.769,15.975-5.36.318-.094.8-.07.395-.667q-3.26-4.749-6.476-9.528c-.254-.376-.428-.339-.73-.076q-1.023.892-2.089,1.734a3.337,3.337,0,0,1-4.331.157,1.851,1.851,0,0,0-2.651,0,3.35,3.35,0,0,1-4.333-.159c-.462-.363-.929-.723-1.351-1.129-.36-.346-.535-.249-.757.14-.557.977-1.14,1.94-1.731,2.9a1.178,1.178,0,0,1-1.805.454c-.34-.193-.666-.411-1-.61A3.567,3.567,0,0,0,9.3,34.408c-2.2,4.663-4.386,9.335-6.592,14a3.922,3.922,0,0,0-.369,1.616c-.019.648.162.709.749.533a40.061,40.061,0,0,1,10.687-1.682M67.113,33.882c-.155-.227-.268-.41-.4-.58q-4.028-5.234-8.058-10.466-1.813-2.355-3.618-4.717c-.619-.808-.618-.809-1.312-.115-.277.277-.55.558-.832.829a3.512,3.512,0,0,1-4.739.365c-.657-.469-1.306-.951-1.934-1.457a.5.5,0,0,0-.753-.011q-1.059.848-2.173,1.627a3.445,3.445,0,0,1-4.34-.17A20.83,20.83,0,0,1,37.234,17.7c-.465-.479-.716-.34-1.07.113-.844,1.079-1.7,2.147-2.614,3.171a.852.852,0,0,0-.056,1.26q5.184,7.566,10.33,15.16c.115.169.171.415.5.463q.755-2.55,1.511-5.1c.4-1.359.791-2.72,1.194-4.078a1.152,1.152,0,0,1,1.162-.936,1.164,1.164,0,0,1,1.162.937c.058.186.107.376.162.564.689,2.343,1.384,4.684,2.059,7.032.123.428.278.57.756.439,1.059-.289,2.134-.524,3.214-.726a.825.825,0,0,0,.742-.668c.389-1.337.821-2.661,1.219-3.995.193-.648.455-1.219,1.242-1.233.744-.013,1.039.5,1.265,1.12.387,1.055.819,2.094,1.212,3.147.107.288.222.472.57.412,1.75-.3,3.5-.594,5.319-.9M20.458,49.458c.3.094.407.14.521.161a47.893,47.893,0,0,1,6.088,1.606A67.581,67.581,0,0,1,40.473,57.44a.951.951,0,0,0,1.006.173,42.143,42.143,0,0,1,5.13-1.961.508.508,0,0,0,.412-.578c-.015-1.493-.021-2.986,0-4.478.007-.422-.126-.539-.539-.532-1.3.024-2.594.014-3.891.007-1.168-.007-1.649-.641-1.327-1.757.6-2.065,1.2-4.126,1.8-6.19.051-.174.211-.349.029-.559a224.332,224.332,0,0,0-22.642,7.892m47.71-5.166c0-2.518-.01-5.037.009-7.555,0-.481-.091-.608-.6-.512-1.511.282-3.029.55-4.556.712-.773.083-.691.337-.472.895,1.04,2.633,2.044,5.279,3.056,7.923.494,1.288.019,1.964-1.375,1.968-1.174,0-2.349.034-3.52-.013-.589-.024-.808.1-.779.744a36.263,36.263,0,0,1,0,3.666c-.04.706.218.805.826.732a60.041,60.041,0,0,1,6.729-.4c.61-.005.706-.216.7-.755-.025-2.469-.011-4.938-.011-7.408m-17.743-26.7a1.194,1.194,0,0,0,.465-.172c.648-.592,1.271-1.212,1.9-1.822.214-.208.026-.355-.086-.5-1.429-1.859-2.82-3.75-4.307-5.562a3.431,3.431,0,0,0-5.331-.056c-1.579,1.833-3.081,3.729-4.629,5.587-.221.265-.235.414.049.639.592.471,1.153.982,1.729,1.474a1.3,1.3,0,0,0,1.955.091c.9-.666,1.8-1.347,2.7-2.017.815-.6,1.13-.6,1.959.013q1.3.961,2.581,1.932a1.6,1.6,0,0,0,1.011.393m-23.1,2.419a3.47,3.47,0,0,0-3.016,1.661c-1.107,1.787-2.166,3.6-3.261,5.4-.19.311-.181.5.119.726.563.43,1.1.9,1.639,1.356a1.224,1.224,0,0,0,1.614.1c.609-.409,1.227-.8,1.83-1.223a1.253,1.253,0,0,1,1.563-.009c.6.416,1.224.808,1.83,1.221a1.193,1.193,0,0,0,1.555-.034c.8-.647,1.579-1.316,2.376-1.964.232-.189.276-.339.091-.606-1.227-1.767-2.414-3.564-3.665-5.314a3.328,3.328,0,0,0-2.675-1.312M43.885,47.723h.79c2.347,0,4.7-.02,7.042.014.618.009.787-.073.586-.736-1.134-3.735-2.222-7.484-3.326-11.228q-.356-1.206-.712-2.411l-.155,0c-1.4,4.758-2.8,9.515-4.224,14.357M58.979,35.1l-.165.011L55.667,45.349h7.254L58.979,35.1m-4,12.625c.043.177.07.294.1.409.364,1.385-.054,1.938-1.47,1.94-1.248,0-2.5.013-3.744-.007-.379-.006-.51.1-.5.492.023,1.248.018,2.5,0,3.744,0,.372.052.535.487.42A57.387,57.387,0,0,1,57.1,53.277c.338-.044.506-.165.5-.555-.023-1.517-.013-3.034-.006-4.552,0-.281-.035-.462-.388-.452-.73.02-1.461.006-2.232.006m-1.312-4.348.143.006q.7-2.265,1.407-4.53c.1-.308-.007-.4-.325-.313-.663.171-1.328.334-2,.461-.381.071-.468.192-.344.583.4,1.256.749,2.528,1.119,3.794" transform="translate(0 -3.066)" fill="#020201"/>
        <path id="Trazado_136980" data-name="Trazado 136980" d="M15.758,0a6.75,6.75,0,0,1,4.528,1.937,1.315,1.315,0,0,0,1.015.425,4.686,4.686,0,1,1,.027,9.372,1.411,1.411,0,0,0-1.072.464,7,7,0,0,1-9.623-.037,1.309,1.309,0,0,0-1.014-.423,4.689,4.689,0,1,1-.026-9.378,1.293,1.293,0,0,0,1.023-.4A7.133,7.133,0,0,1,15.758,0M9.608,4.684A2.383,2.383,0,0,0,7.5,5.99,2.2,2.2,0,0,0,7.73,8.472a2.172,2.172,0,0,0,2.338.865,1.442,1.442,0,0,1,1.623.5,4.649,4.649,0,0,0,7.555-.016,1.368,1.368,0,0,1,1.487-.511,2.338,2.338,0,0,0,2.526-3.593,2.3,2.3,0,0,0-2.514-.923,1.3,1.3,0,0,1-1.486-.5,4.7,4.7,0,0,0-7.612.021,1.237,1.237,0,0,1-1.424.49c-.212-.054-.43-.082-.614-.115" transform="translate(-2.527 -0.001)" fill="#030303"/>
        <path id="Trazado_136981" data-name="Trazado 136981" d="M62.967,6.125A1.167,1.167,0,0,1,62.053,7.2a7.317,7.317,0,0,0-1.406.606,2.324,2.324,0,0,0-1.2,1.737c-.125.815-.556,1.242-1.212,1.2a1.17,1.17,0,0,1-1.154-1.187,2.449,2.449,0,0,0-1.643-1.982c-.353-.162-.731-.269-1.087-.425a1.168,1.168,0,0,1,.775-2.2,6.91,6.91,0,0,1,2.766,1.439c.31.283.473.243.763-.016a7.07,7.07,0,0,1,2.772-1.429,1.183,1.183,0,0,1,1.543,1.188" transform="translate(-27.701 -2.524)" fill="#060606"/>
        <path id="Trazado_136982" data-name="Trazado 136982" d="M131.093,18.273a1.179,1.179,0,0,1-.867,1.076,8.229,8.229,0,0,0-1.407.6,2.338,2.338,0,0,0-1.244,1.787c-.109.766-.532,1.165-1.166,1.171a1.164,1.164,0,0,1-1.184-1.151,2.333,2.333,0,0,0-1.357-1.868c-.476-.24-.993-.4-1.476-.626a1.126,1.126,0,0,1-.616-1.46,1.147,1.147,0,0,1,1.421-.721,6.994,6.994,0,0,1,2.663,1.325c.386.332.618.432,1.052.029a6.422,6.422,0,0,1,2.652-1.34,1.184,1.184,0,0,1,1.528,1.179" transform="translate(-62.931 -8.806)" fill="#060606"/>
        <path id="Trazado_136983" data-name="Trazado 136983" d="M41,107.606a44.289,44.289,0,0,0-5.391,3.45,29.688,29.688,0,0,0-7.728,8.345.711.711,0,0,1-.7.4q-10.9-.014-21.8,0c-.422,0-.529-.124-.528-.536q.019-8.477-.007-16.954c0-.572.339-.613.7-.729a35.162,35.162,0,0,1,20.512-.406A64.036,64.036,0,0,1,40.6,107.33c.1.059.2.133.408.276" transform="translate(-2.509 -51.629)" fill="#b0bc6f"/>
        <path id="Trazado_136984" data-name="Trazado 136984" d="M57.811,123.539a19.533,19.533,0,0,1,2.113-2.741A36.785,36.785,0,0,1,73.652,111.5,59.62,59.62,0,0,1,90.786,107.5c2.219-.207,4.442-.319,6.667-.407.462-.018.624.076.622.581q-.03,7.637,0,15.274c0,.484-.132.6-.607.6q-19.57-.019-39.14-.01h-.516" transform="translate(-29.895 -55.379)" fill="#ceda8b"/>
        <path id="Trazado_136985" data-name="Trazado 136985" d="M16.283,73.663A40.08,40.08,0,0,0,5.6,75.345c-.588.177-.768.115-.749-.532A3.921,3.921,0,0,1,5.215,73.2c2.206-4.661,4.389-9.334,6.592-14a3.567,3.567,0,0,1,5.429-1.64c.337.2.663.418,1,.61a1.178,1.178,0,0,0,1.805-.454c.592-.956,1.174-1.919,1.731-2.9.222-.39.4-.487.757-.141a17.494,17.494,0,0,0,1.351,1.129,3.349,3.349,0,0,0,4.332.16,1.851,1.851,0,0,1,2.651,0,3.337,3.337,0,0,0,4.331-.157q1.066-.84,2.089-1.734c.3-.263.476-.3.73.076q3.218,4.777,6.476,9.528c.41.6-.077.573-.395.667-5.391,1.591-10.724,3.357-15.976,5.36-2.67,1.018-5.315,2.105-7.969,3.166a11.947,11.947,0,0,1-1.9.763,9.826,9.826,0,0,1-1.972.028" transform="translate(-2.506 -27.858)" fill="#699b71"/>
        <path id="Trazado_136986" data-name="Trazado 136986" d="M102.713,46.17c-1.816.307-3.568.6-5.319.9-.348.059-.463-.125-.57-.413-.392-1.053-.825-2.091-1.211-3.147-.226-.616-.522-1.133-1.265-1.12-.788.014-1.049.586-1.242,1.233-.4,1.334-.83,2.658-1.219,3.995a.824.824,0,0,1-.742.668c-1.079.2-2.155.437-3.214.726-.478.13-.633-.011-.756-.439-.675-2.347-1.371-4.689-2.06-7.032-.055-.187-.1-.377-.162-.563a1.165,1.165,0,0,0-1.162-.938,1.152,1.152,0,0,0-1.162.936c-.4,1.358-.794,2.72-1.195,4.078q-.752,2.552-1.511,5.1c-.327-.047-.384-.293-.5-.462q-5.164-7.581-10.33-15.161a.853.853,0,0,1,.056-1.26c.91-1.023,1.77-2.091,2.614-3.17.354-.452.6-.592,1.07-.113a20.66,20.66,0,0,0,1.722,1.484,3.444,3.444,0,0,0,4.34.17q1.112-.777,2.173-1.627a.5.5,0,0,1,.753.01c.628.506,1.277.988,1.934,1.458a3.511,3.511,0,0,0,4.738-.365c.282-.272.555-.553.832-.83.694-.693.693-.692,1.312.116q1.807,2.359,3.617,4.716,4.028,5.235,8.059,10.466c.13.169.243.353.4.579" transform="translate(-35.601 -15.354)" fill="#5e8b65"/>
        <path id="Trazado_136987" data-name="Trazado 136987" d="M42.368,87.622A224.214,224.214,0,0,1,65.01,79.729c.181.211.02.385-.03.559-.6,2.064-1.208,4.125-1.8,6.191-.323,1.115.158,1.749,1.326,1.757,1.3.008,2.595.017,3.891-.007.413-.008.546.11.539.532-.024,1.493-.018,2.986,0,4.479a.508.508,0,0,1-.412.577,42.153,42.153,0,0,0-5.13,1.961.952.952,0,0,1-1.006-.173,67.537,67.537,0,0,0-13.406-6.215,47.913,47.913,0,0,0-6.088-1.606c-.113-.022-.223-.068-.52-.161" transform="translate(-21.909 -41.229)" fill="#9ea964"/>
        <path id="Trazado_136988" data-name="Trazado 136988" d="M132.337,76.7c0,2.469-.014,4.939.011,7.408.006.538-.091.749-.7.755a60.041,60.041,0,0,0-6.729.4c-.608.074-.865-.026-.826-.732a36.251,36.251,0,0,0,0-3.666c-.029-.64.19-.768.779-.744,1.171.047,2.346.016,3.52.013,1.394,0,1.869-.68,1.375-1.968-1.012-2.644-2.016-5.29-3.056-7.923-.22-.557-.3-.812.472-.895,1.527-.162,3.045-.43,4.556-.712.513-.1.608.031.6.512-.02,2.518-.009,5.036-.009,7.555" transform="translate(-64.169 -35.478)" fill="#9faa64"/>
        <path id="Trazado_136989" data-name="Trazado 136989" d="M91.413,20.064a1.6,1.6,0,0,1-1.011-.393q-1.286-.973-2.581-1.932c-.829-.616-1.144-.618-1.959-.014-.9.67-1.8,1.351-2.7,2.017a1.3,1.3,0,0,1-1.955-.091c-.576-.492-1.137-1-1.729-1.474-.284-.226-.269-.375-.049-.639,1.549-1.858,3.051-3.755,4.629-5.587a3.431,3.431,0,0,1,5.331.056c1.487,1.812,2.877,3.7,4.307,5.562.112.145.3.293.086.5-.632.61-1.255,1.23-1.9,1.822a1.2,1.2,0,0,1-.465.173" transform="translate(-40.989 -5.537)" fill="#86c58f"/>
        <path id="Trazado_136990" data-name="Trazado 136990" d="M49.723,35.093A3.329,3.329,0,0,1,52.4,36.4c1.251,1.75,2.438,3.547,3.665,5.314a.375.375,0,0,1-.091.606c-.8.648-1.578,1.317-2.376,1.964a1.193,1.193,0,0,1-1.555.033c-.606-.413-1.226-.805-1.83-1.221a1.253,1.253,0,0,0-1.563.01c-.6.418-1.221.813-1.83,1.222a1.224,1.224,0,0,1-1.614-.1c-.544-.456-1.076-.926-1.64-1.357-.3-.229-.309-.414-.119-.725,1.1-1.794,2.154-3.611,3.261-5.4a3.469,3.469,0,0,1,3.016-1.661" transform="translate(-22.401 -18.147)" fill="#86c58f"/>
        <path id="Trazado_136991" data-name="Trazado 136991" d="M90.882,77.1l4.224-14.357.155,0q.356,1.206.712,2.411c1.1,3.744,2.192,7.493,3.326,11.228.2.662.032.745-.586.735-2.347-.034-4.695-.014-7.042-.014h-.79" transform="translate(-46.997 -32.444)" fill="#86c48f"/>
        <path id="Trazado_136992" data-name="Trazado 136992" d="M118.593,66.336l3.942,10.251h-7.254l3.148-10.239.164-.011" transform="translate(-59.614 -34.304)" fill="#86c48f"/>
        <path id="Trazado_136993" data-name="Trazado 136993" d="M107.832,92.475c.77,0,1.5.014,2.231-.006.353-.01.389.171.388.452-.007,1.518-.016,3.035.006,4.552.006.39-.162.51-.5.554a57.354,57.354,0,0,0-7.254,1.446c-.436.115-.491-.048-.487-.42.015-1.248.02-2.5,0-3.744-.007-.394.125-.5.5-.492,1.248.02,2.5.009,3.744.007,1.417,0,1.835-.555,1.47-1.94-.03-.115-.057-.232-.1-.409" transform="translate(-52.857 -47.818)" fill="#9ea964"/>
        <path id="Trazado_136994" data-name="Trazado 136994" d="M109.874,78.265c-.369-1.266-.72-2.538-1.119-3.794-.124-.391-.036-.511.344-.583.672-.127,1.337-.29,2-.461.318-.082.421.005.325.313q-.7,2.266-1.407,4.53l-.143-.006" transform="translate(-56.212 -37.955)" fill="#9aa561"/>
        <path id="Trazado_136995" data-name="Trazado 136995" d="M12.109,7.207c.184.034.4.061.614.115a1.237,1.237,0,0,0,1.424-.49,4.7,4.7,0,0,1,7.612-.021,1.3,1.3,0,0,0,1.486.5,2.337,2.337,0,1,1-.012,4.516,1.368,1.368,0,0,0-1.487.511,4.649,4.649,0,0,1-7.555.016,1.442,1.442,0,0,0-1.623-.5,2.172,2.172,0,0,1-2.338-.865A2.2,2.2,0,0,1,10,8.512a2.383,2.383,0,0,1,2.106-1.306" transform="translate(-5.028 -2.523)" fill="#a1d1f4"/>
      </g>
    </g>
  </g>
</svg>
