<svg xmlns="http://www.w3.org/2000/svg" xmlns:xlink="http://www.w3.org/1999/xlink" width="105" height="105" viewBox="0 0 105 105">
  <defs>
    <clipPath id="clip-path">
      <rect id="Rect치ngulo_37610" data-name="Rect치ngulo 37610" width="52.344" height="52.327" fill="none"/>
    </clipPath>
  </defs>
  <g id="Grupo_159138" data-name="Grupo 159138" transform="translate(-3239 11044)">
    <rect id="Rect치ngulo_36242" data-name="Rect치ngulo 36242" width="105" height="105" rx="52.5" transform="translate(3239 -11044)" fill="#6b8dfc"/>
    <g id="Grupo_159137" data-name="Grupo 159137" transform="translate(9 10)">
      <g id="Grupo_159135" data-name="Grupo 159135" transform="translate(3251 -11032)">
        <g id="Grupo_159133" data-name="Grupo 159133" transform="translate(0 0)" clip-path="url(#clip-path)">
          <path id="Trazado_136621" data-name="Trazado 136621" d="M38.537,21.565a.858.858,0,0,1-.186,1.219q-11.207,11.2-22.405,22.4a1.951,1.951,0,0,1-.536.384q-6.835,3.3-13.67,6.59a1.118,1.118,0,0,1-1.692-.613,1.134,1.134,0,0,1,.106-.884q3.331-6.9,6.662-13.8a1.93,1.93,0,0,1,.406-.519Q24.4,19.157,41.585,1.973A6.257,6.257,0,0,1,45.173.084c.042-.006.078-.054.116-.083h1.636a5.318,5.318,0,0,1,2.868,1.045,5.872,5.872,0,0,1,2.551,4.272V7.056a9.8,9.8,0,0,1-.81,2.223,7.686,7.686,0,0,1-1.128,1.444q-4.191,4.193-8.385,8.385c-.515.515-.7.543-1.292.225a.779.779,0,0,1,.009-1.192q.845-.888,1.734-1.734c.3-.284.327-.5.012-.8-1.194-1.132-.808-1.134-1.941,0Q27.474,28.663,14.417,41.73c-.448.448-.448.448,0,.9l.651.649a.322.322,0,0,0,.527-.007c.106-.111.217-.216.326-.325q10.515-10.515,21.03-21.028a2.857,2.857,0,0,1,.612-.537.684.684,0,0,1,.972.184" transform="translate(0 -0.001)"/>
          <path id="Trazado_136622" data-name="Trazado 136622" d="M55.5,39.412c-.584-.33-.784-.294-1.329.251L35.746,58.09c-1.048,1.048-2.1,2.088-3.137,3.15-.252.259-.409.338-.673.018a7.8,7.8,0,0,0-.937-.94c-.255-.22-.193-.344.017-.553Q44.591,46.206,58.151,32.63c.224-.224.365-.289.591-.013.363.443,1.115.778,1.094,1.254-.018.421-.7.814-1.087,1.215-.286.293-.569.588-.869.865a.871.871,0,0,0-.185,1.228L55.5,39.412" transform="translate(-16.965 -17.847)" fill="#fe8f1d"/>
          <path id="Trazado_136623" data-name="Trazado 136623" d="M24.229,47.681a.873.873,0,0,0-1.183.206c-.663.686-1.352,1.347-2.016,2.031-.179.184-.291.215-.479.011-.333-.365-.686-.712-1.047-1.049-.184-.172-.242-.311-.014-.483a2.287,2.287,0,0,0,.219-.215Q33.134,34.755,46.55,21.32c.358-.359.553-.363.855.016a6.208,6.208,0,0,0,.829.831c.251.214.209.34-.009.555-1.683,1.665-3.354,3.344-5.028,5.018L26.755,44.184c-.546.546-.573.71-.24,1.331a16.615,16.615,0,0,1-2.1,2.151.172.172,0,0,1-.19.015" transform="translate(-10.642 -11.583)" fill="#febe14"/>
          <path id="Trazado_136624" data-name="Trazado 136624" d="M27.4,50.832q.912-.886,1.826-1.77c.146-.14.306-.264.46-.4.631.277.769.247,1.331-.316q10.644-10.644,21.279-21.3c.352-.353.545-.376.854.008a9.2,9.2,0,0,0,.9.907c.16.149.183.267,0,.408a2.593,2.593,0,0,0-.218.215q-13.447,13.445-26.886,26.9c-.316.317-.509.389-.811.009a6.357,6.357,0,0,0-.865-.868c-.259-.219-.2-.35.016-.555.675-.65,1.334-1.316,1.991-1.985.455-.463.472-.712.123-1.256" transform="translate(-13.809 -14.735)" fill="#feb023"/>
          <path id="Trazado_136625" data-name="Trazado 136625" d="M93.677,11.063q-1.85-1.833-3.7-3.664c-.145-.143-.2-.243-.023-.409.965-.912,1.824-1.936,2.873-2.758a4.625,4.625,0,0,1,4.864-.338,1.509,1.509,0,0,1,.221,1.171,5.632,5.632,0,0,1-1.768,3.789c-.659.614-1.275,1.274-1.919,1.905-.15.147-.275.365-.546.3" transform="translate(-49.435 -1.846)" fill="#fe4c4c"/>
          <path id="Trazado_136626" data-name="Trazado 136626" d="M98.371,11.722A23,23,0,0,0,101.6,8.365a4.957,4.957,0,0,0,.785-3.812,4.683,4.683,0,0,1,2.145,6.166,5.652,5.652,0,0,1-1,1.408c-.7.72-1.421,1.422-2.128,2.137-.157.16-.266.273-.485.044-.835-.873-1.692-1.726-2.541-2.586" transform="translate(-54.129 -2.505)" fill="#f23939"/>
          <path id="Trazado_136627" data-name="Trazado 136627" d="M19.367,92.062c1,.989,2,1.982,3.006,2.964.2.194.109.248-.085.341q-2.338,1.118-4.665,2.256a.325.325,0,0,1-.444-.067c-.553-.574-1.114-1.139-1.673-1.708,1.188-1.273,2.443-2.479,3.679-3.7a.3.3,0,0,1,.181-.083" transform="translate(-8.532 -50.657)" fill="#f3c791"/>
          <path id="Trazado_136628" data-name="Trazado 136628" d="M17.344,88.375c-1.171,1.293-2.449,2.479-3.674,3.718-.042.042-.123.047-.186.069-.509-.5-1.014-1-1.529-1.495a.323.323,0,0,1-.066-.444q1.14-2.328,2.256-4.668c.095-.2.15-.276.341-.081.947.972,1.9,1.934,2.858,2.9" transform="translate(-6.509 -46.971)" fill="#fdd8a7"/>
          <path id="Trazado_136629" data-name="Trazado 136629" d="M87.135,20.081c-1.241-1.23-2.479-2.462-3.727-3.686-.165-.162-.144-.258.009-.407.5-.484.99-.979,1.476-1.477.143-.148.241-.186.407-.016,1.224,1.248,2.456,2.486,3.686,3.727.014.032.033.073.017.1A7.983,7.983,0,0,1,87.232,20.1c-.023.017-.064,0-.1-.014" transform="translate(-45.832 -7.914)" fill="#21d7dd"/>
          <path id="Trazado_136630" data-name="Trazado 136630" d="M91.836,24.778a18.244,18.244,0,0,0,1.851-1.859c.872.86,1.741,1.723,2.617,2.578.145.142.14.236,0,.374-.512.5-1.022,1-1.517,1.517-.173.179-.271.112-.41-.029-.844-.864-1.694-1.721-2.541-2.581" transform="translate(-50.533 -12.611)" fill="#11b8c0"/>
          <path id="Trazado_136631" data-name="Trazado 136631" d="M4.76,105.326c-.115.046-.263.13-.157-.116.115-.265.23-.53.355-.789.637-1.315,1.285-2.624,1.911-3.944.154-.325.268-.437.55-.116.358.407.748.787,1.124,1.177a.7.7,0,0,1-.255.368Q6.8,103.4,5.313,104.884c-.168.169-.372.291-.554.442" transform="translate(-2.513 -55.118)" fill="#333"/>
          <path id="Trazado_136632" data-name="Trazado 136632" d="M5,107c1.216-1.307,2.483-2.565,3.783-3.788.38.364.756.731,1.139,1.091.178.166.213.292-.047.408-1.639.733-3.2,1.634-4.875,2.289" transform="translate(-2.749 -56.794)" fill="#1a1a1a"/>
        </g>
      </g>
      <g id="Grupo_159136" data-name="Grupo 159136" transform="translate(3262.481 -11022.327)">
        <g id="Grupo_159133-2" data-name="Grupo 159133" transform="translate(0 0)" clip-path="url(#clip-path)">
          <path id="Trazado_136621-2" data-name="Trazado 136621" d="M38.537,21.565a.858.858,0,0,1-.186,1.219q-11.207,11.2-22.405,22.4a1.951,1.951,0,0,1-.536.384q-6.835,3.3-13.67,6.59a1.118,1.118,0,0,1-1.692-.613,1.134,1.134,0,0,1,.106-.884q3.331-6.9,6.662-13.8a1.93,1.93,0,0,1,.406-.519Q24.4,19.157,41.585,1.973A6.257,6.257,0,0,1,45.173.084c.042-.006.078-.054.116-.083h1.636a5.318,5.318,0,0,1,2.868,1.045,5.872,5.872,0,0,1,2.551,4.272V7.056a9.8,9.8,0,0,1-.81,2.223,7.686,7.686,0,0,1-1.128,1.444q-4.191,4.193-8.385,8.385c-.515.515-.7.543-1.292.225a.779.779,0,0,1,.009-1.192q.845-.888,1.734-1.734c.3-.284.327-.5.012-.8-1.194-1.132-.808-1.134-1.941,0Q27.474,28.663,14.417,41.73c-.448.448-.448.448,0,.9l.651.649a.322.322,0,0,0,.527-.007c.106-.111.217-.216.326-.325q10.515-10.515,21.03-21.028a2.857,2.857,0,0,1,.612-.537.684.684,0,0,1,.972.184" transform="translate(0 -0.001)"/>
          <path id="Trazado_136622-2" data-name="Trazado 136622" d="M55.5,39.412c-.584-.33-.784-.294-1.329.251L35.746,58.09c-1.048,1.048-2.1,2.088-3.137,3.15-.252.259-.409.338-.673.018a7.8,7.8,0,0,0-.937-.94c-.255-.22-.193-.344.017-.553Q44.591,46.206,58.151,32.63c.224-.224.365-.289.591-.013.363.443,1.115.778,1.094,1.254-.018.421-.7.814-1.087,1.215-.286.293-.569.588-.869.865a.871.871,0,0,0-.185,1.228L55.5,39.412" transform="translate(-16.965 -17.847)" fill="#fe8f1d"/>
          <path id="Trazado_136623-2" data-name="Trazado 136623" d="M24.229,47.681a.873.873,0,0,0-1.183.206c-.663.686-1.352,1.347-2.016,2.031-.179.184-.291.215-.479.011-.333-.365-.686-.712-1.047-1.049-.184-.172-.242-.311-.014-.483a2.287,2.287,0,0,0,.219-.215Q33.134,34.755,46.55,21.32c.358-.359.553-.363.855.016a6.208,6.208,0,0,0,.829.831c.251.214.209.34-.009.555-1.683,1.665-3.354,3.344-5.028,5.018L26.755,44.184c-.546.546-.573.71-.24,1.331a16.615,16.615,0,0,1-2.1,2.151.172.172,0,0,1-.19.015" transform="translate(-10.642 -11.583)" fill="#febe14"/>
          <path id="Trazado_136624-2" data-name="Trazado 136624" d="M27.4,50.832q.912-.886,1.826-1.77c.146-.14.306-.264.46-.4.631.277.769.247,1.331-.316q10.644-10.644,21.279-21.3c.352-.353.545-.376.854.008a9.2,9.2,0,0,0,.9.907c.16.149.183.267,0,.408a2.593,2.593,0,0,0-.218.215q-13.447,13.445-26.886,26.9c-.316.317-.509.389-.811.009a6.357,6.357,0,0,0-.865-.868c-.259-.219-.2-.35.016-.555.675-.65,1.334-1.316,1.991-1.985.455-.463.472-.712.123-1.256" transform="translate(-13.809 -14.735)" fill="#feb023"/>
          <path id="Trazado_136625-2" data-name="Trazado 136625" d="M93.677,11.063q-1.85-1.833-3.7-3.664c-.145-.143-.2-.243-.023-.409.965-.912,1.824-1.936,2.873-2.758a4.625,4.625,0,0,1,4.864-.338,1.509,1.509,0,0,1,.221,1.171,5.632,5.632,0,0,1-1.768,3.789c-.659.614-1.275,1.274-1.919,1.905-.15.147-.275.365-.546.3" transform="translate(-49.435 -1.846)" fill="#fe4c4c"/>
          <path id="Trazado_136626-2" data-name="Trazado 136626" d="M98.371,11.722A23,23,0,0,0,101.6,8.365a4.957,4.957,0,0,0,.785-3.812,4.683,4.683,0,0,1,2.145,6.166,5.652,5.652,0,0,1-1,1.408c-.7.72-1.421,1.422-2.128,2.137-.157.16-.266.273-.485.044-.835-.873-1.692-1.726-2.541-2.586" transform="translate(-54.129 -2.505)" fill="#f23939"/>
          <path id="Trazado_136627-2" data-name="Trazado 136627" d="M19.367,92.062c1,.989,2,1.982,3.006,2.964.2.194.109.248-.085.341q-2.338,1.118-4.665,2.256a.325.325,0,0,1-.444-.067c-.553-.574-1.114-1.139-1.673-1.708,1.188-1.273,2.443-2.479,3.679-3.7a.3.3,0,0,1,.181-.083" transform="translate(-8.532 -50.657)" fill="#f3c791"/>
          <path id="Trazado_136628-2" data-name="Trazado 136628" d="M17.344,88.375c-1.171,1.293-2.449,2.479-3.674,3.718-.042.042-.123.047-.186.069-.509-.5-1.014-1-1.529-1.495a.323.323,0,0,1-.066-.444q1.14-2.328,2.256-4.668c.095-.2.15-.276.341-.081.947.972,1.9,1.934,2.858,2.9" transform="translate(-6.509 -46.971)" fill="#fdd8a7"/>
          <path id="Trazado_136629-2" data-name="Trazado 136629" d="M87.135,20.081c-1.241-1.23-2.479-2.462-3.727-3.686-.165-.162-.144-.258.009-.407.5-.484.99-.979,1.476-1.477.143-.148.241-.186.407-.016,1.224,1.248,2.456,2.486,3.686,3.727.014.032.033.073.017.1A7.983,7.983,0,0,1,87.232,20.1c-.023.017-.064,0-.1-.014" transform="translate(-45.832 -7.914)" fill="#21d7dd"/>
          <path id="Trazado_136630-2" data-name="Trazado 136630" d="M91.836,24.778a18.244,18.244,0,0,0,1.851-1.859c.872.86,1.741,1.723,2.617,2.578.145.142.14.236,0,.374-.512.5-1.022,1-1.517,1.517-.173.179-.271.112-.41-.029-.844-.864-1.694-1.721-2.541-2.581" transform="translate(-50.533 -12.611)" fill="#11b8c0"/>
          <path id="Trazado_136631-2" data-name="Trazado 136631" d="M4.76,105.326c-.115.046-.263.13-.157-.116.115-.265.23-.53.355-.789.637-1.315,1.285-2.624,1.911-3.944.154-.325.268-.437.55-.116.358.407.748.787,1.124,1.177a.7.7,0,0,1-.255.368Q6.8,103.4,5.313,104.884c-.168.169-.372.291-.554.442" transform="translate(-2.513 -55.118)" fill="#333"/>
          <path id="Trazado_136632-2" data-name="Trazado 136632" d="M5,107c1.216-1.307,2.483-2.565,3.783-3.788.38.364.756.731,1.139,1.091.178.166.213.292-.047.408-1.639.733-3.2,1.634-4.875,2.289" transform="translate(-2.749 -56.794)" fill="#1a1a1a"/>
        </g>
      </g>
    </g>
  </g>
</svg>
