<svg xmlns="http://www.w3.org/2000/svg" xmlns:xlink="http://www.w3.org/1999/xlink" width="105" height="105" viewBox="0 0 105 105">
  <defs>
    <clipPath id="clip-path">
      <rect id="Rect치ngulo_37620" data-name="Rect치ngulo 37620" width="42.884" height="44.371" fill="none"/>
    </clipPath>
  </defs>
  <g id="Grupo_159172" data-name="Grupo 159172" transform="translate(-3921 10370)">
    <rect id="Rect치ngulo_37511" data-name="Rect치ngulo 37511" width="105" height="105" rx="52.5" transform="translate(3921 -10370)" fill="#6b8dfc"/>
    <g id="Grupo_159171" data-name="Grupo 159171" transform="translate(3936 -10348.294)">
      <g id="Grupo_159170" data-name="Grupo 159170" clip-path="url(#clip-path)">
        <path id="Trazado_136868" data-name="Trazado 136868" d="M38.488,28.409c.471.051.618.35.617.781,0,1.372,0,2.744,0,4.115,0,.588-.221.806-.817.808-1.53.005-3.061,0-4.591,0h-.471c0,.048-.018.087-.006.1a7.525,7.525,0,0,1,2.043,4.521c.12.705.134.7.841.7h7.711c.728,0,.9.192.923.922a3.928,3.928,0,0,1-.615,2.554,3.364,3.364,0,0,1-2.849,1.455q-4.57.007-9.14,0-12.28,0-24.561,0a3.4,3.4,0,0,1-3.458-2.688A5.663,5.663,0,0,1,4.055,40c.029-.38.3-.56.786-.561q2.989,0,5.978,0c.751,0,1.5-.008,2.252,0,.231,0,.33-.057.364-.3.052-.366.087-.762.509-.935.736-.1,1.055.218.941.947-.042.27-.1.539-.161.806-.164.685-.413.893-1.114.9-1.038.01-2.077,0-3.115,0-.648,0-.662.016-.664.645,0,.332.009.664,0,.995-.011.314.124.441.435.438.606-.007,1.211,0,1.817,0,1.2,0,2.394,0,3.591,0,.845,0,1.136-.289,1.169-1.143.02-.519,0-1.038.01-1.557s.285-.862.7-.889a.862.862,0,0,1,.834.833c.05.473,0,.951.028,1.427a3.968,3.968,0,0,1-.079.946c-.044.258.06.383.322.38.1,0,.2,0,.3,0h10.9c.637,0,.634-.006.556-.627a12.909,12.909,0,0,1-.026-2.072,1.1,1.1,0,0,1,.109-.416.772.772,0,0,1,.8-.469.754.754,0,0,1,.625.681c.044.5.014,1.008.017,1.513a2.977,2.977,0,0,0,.088.856.834.834,0,0,0,.825.524c1.9.024,3.808.01,5.712.01.277,0,.387-.135.394-.4.011-.447,0-.894,0-1.341,0-.336-.229-.346-.476-.346-1.183,0-2.366.007-3.548,0a.879.879,0,0,1-.84-.792c-.16-.763-.328-1.523-.484-2.286a4.748,4.748,0,0,0-4.72-3.857.812.812,0,0,1-.13,0c-.539-.088-.815.1-1.053.647a3.607,3.607,0,0,1-5.87,1.162,3.22,3.22,0,0,1-.849-1.342.567.567,0,0,0-.695-.465,4.751,4.751,0,0,0-3.943,1.5,8.511,8.511,0,0,0-.864,1.24c-.272.41-.568.485-.932.271-.413-.356-.465-.581-.228-1.05a6.527,6.527,0,0,1,1.3-1.739c-.189-.009-.31-.02-.43-.02h-4.5c-.877,0-1.021-.147-1.021-1.04q0-4.309,0-8.619a.82.82,0,0,0-.283-.668,4.247,4.247,0,0,1-1.26-4.451,2.206,2.206,0,0,1,1.25-1.467.445.445,0,0,0,.293-.489c0-1.631-.029-3.264.019-4.894A13.111,13.111,0,0,1,20.285.24a4.572,4.572,0,0,0,1.2-.24h.607a.663.663,0,0,0,.52,0h3.553a.663.663,0,0,0,.52,0h.52c.583.114,1.169.214,1.748.343a13.132,13.132,0,0,1,9.967,10.545A25.32,25.32,0,0,1,39.1,14.9c.008.851,0,1.7,0,2.554,0,.169.017.294.2.374A2.463,2.463,0,0,1,40.792,20,4.287,4.287,0,0,1,39.4,23.779a.822.822,0,0,0-.3.7c.023.562-.017,1.127.014,1.688a.8.8,0,0,1-.638.956.69.69,0,0,1-.77-.618,6.145,6.145,0,0,1-.054-.991c-.016-.192.115-.463-.191-.543a.661.661,0,0,0-.722.418,10.307,10.307,0,0,1-.544,1.272,9.413,9.413,0,0,1-7.632,5.267,1.167,1.167,0,0,0-.172.021c-.135.037-.319.044-.311.234s.2.188.334.181a8.092,8.092,0,0,1,2.608.318,1.932,1.932,0,0,0,.517.034q2.769,0,5.538,0c.554,0,.577-.025.579-.593,0-.909,0-1.817,0-2.726a1.211,1.211,0,0,1,.2-.782c.159-.2.353-.35.633-.211" transform="translate(-2.813)"/>
        <path id="Trazado_136869" data-name="Trazado 136869" d="M78.3,0a.394.394,0,0,1-.52,0Z" transform="translate(-54.43)" fill="#212121"/>
        <path id="Trazado_136870" data-name="Trazado 136870" d="M64.733,0a.394.394,0,0,1-.52,0Z" transform="translate(-44.936)" fill="#212121"/>
        <path id="Trazado_136871" data-name="Trazado 136871" d="M31.544,120.34c-.01-.461-.016-.921-.03-1.382s-.261-.766-.64-.774-.651.294-.657.793c-.007.592.007,1.184,0,1.775a.942.942,0,0,1-1.071,1.06c-1.92,0-3.839,0-5.759.008-.289,0-.409-.055-.392-.373a13.206,13.206,0,0,0,0-1.515c-.021-.35.069-.469.441-.461,1.183.025,2.367.011,3.551.009.572,0,.736-.136.857-.693.061-.282.117-.564.174-.847.148-.739-.061-1-.8-.99a.539.539,0,0,0,.454-.571,3.963,3.963,0,0,1,.152-.712.766.766,0,0,0,.961-.5,4.837,4.837,0,0,1,4.761-2.625c.1.162-.008.275-.1.383a6.46,6.46,0,0,0-1.248,3.321c-.169,1.229-.283,2.464-.44,3.695-.019.152.037.364-.216.4" transform="translate(-16.087 -78.743)" fill="#c5cfd9"/>
        <path id="Trazado_136872" data-name="Trazado 136872" d="M94.137,86.172c-.532.1-.693.286-.7.856-.006,1.04-.012,2.08,0,3.12,0,.32-.059.457-.423.453-2.036-.017-4.073-.008-6.109-.01a1.326,1.326,0,0,1-.384-.047,7.681,7.681,0,0,0-2.566-.3c-.19.007-.4.066-.419-.27s.176-.36.394-.376a8.822,8.822,0,0,0,2.283-.448,9.373,9.373,0,0,0,6.069-6.131,1.217,1.217,0,0,1,1.044-.462c.132.05.1.162.1.255,0,.39,0,.78,0,1.17.009.55.148.729.682.9q.008.641.015,1.282" transform="translate(-58.462 -57.763)" fill="#544f57"/>
        <path id="Trazado_136873" data-name="Trazado 136873" d="M118.71,7.182a.637.637,0,0,1-.636.631c-.389.017-.779.017-1.168,0-.212-.008-.276.068-.269.273.013.36.012.721,0,1.082-.015.465-.278.735-.681.72-.386-.014-.606-.272-.615-.732a7.165,7.165,0,0,1,0-.865c.037-.363-.053-.533-.46-.482a5.877,5.877,0,0,1-.951,0,.642.642,0,1,1-.051-1.284,10.444,10.444,0,0,1,1.168-.008c.226.008.3-.064.293-.293-.017-.36-.011-.721,0-1.082a.638.638,0,0,1,.616-.693.662.662,0,0,1,.677.688,7.505,7.505,0,0,1,0,.951c-.026.321.05.47.411.431a5.972,5.972,0,0,1,.994,0,.666.666,0,0,1,.67.655" transform="translate(-79.263 -3.118)"/>
        <path id="Trazado_136874" data-name="Trazado 136874" d="M128.984,97.008c-.851,0-.851,0-.851.859a5.422,5.422,0,0,1-.012.605.618.618,0,0,1-.657.605.606.606,0,0,1-.622-.636c-.019-.374-.021-.751,0-1.125.012-.255-.086-.323-.326-.312-.36.017-.722.014-1.082,0a.616.616,0,0,1-.664-.639.634.634,0,0,1,.663-.651,6.324,6.324,0,0,1,.995,0c.367.039.439-.119.415-.44a8.054,8.054,0,0,1,0-.952.644.644,0,1,1,1.287-.02,8.389,8.389,0,0,1,0,1.082c-.02.282.086.344.343.328.331-.021.664-.013,1,0,.464.015.743.281.728.676s-.273.605-.733.621c-.159.005-.318,0-.476,0" transform="translate(-87.31 -65.528)"/>
        <path id="Trazado_136875" data-name="Trazado 136875" d="M3.364,43.452c0,.8,0,.8.814.8.216,0,.434-.013.649.007a.633.633,0,0,1,.6.661.623.623,0,0,1-.635.627c-.375.015-.751.02-1.125,0-.253-.014-.322.079-.311.319.017.36.015.722,0,1.082a.644.644,0,1,1-1.288.017c-.021-.388-.015-.779,0-1.169,0-.185-.054-.253-.244-.247-.375.012-.751.011-1.125,0a.641.641,0,0,1-.7-.658.647.647,0,0,1,.681-.636c.375-.013.751-.016,1.125,0,.217.01.272-.066.263-.271-.016-.346-.012-.693,0-1.039.012-.471.264-.763.644-.768s.637.289.652.754c.006.173,0,.346,0,.52" transform="translate(0 -29.516)"/>
        <path id="Trazado_136876" data-name="Trazado 136876" d="M50.6,42.146c1.449-.368,2.915-.672,4.345-1.118a25.421,25.421,0,0,0,7.026-3.149c.631-.436.627-.441,1.045.185a12.063,12.063,0,0,0,4.041,4.02,3.26,3.26,0,0,0,.739.35c.416.108.491.346.485.745-.024,1.79-.008,3.58-.011,5.37a8.129,8.129,0,0,1-6.864,8.208,6.139,6.139,0,0,1-.645.05c-1.092.069-2.186.011-3.279.03a1.987,1.987,0,0,0-.3,0,4.139,4.139,0,0,1-3.45-1.243A8.762,8.762,0,0,1,50.75,50.85a.766.766,0,0,1-.032-.424c.074-.156.236-.2.367-.279.735-.455.722-1.132-.025-1.576-.19-.113-.45-.134-.542-.386a.654.654,0,0,1,.038-.472c.139-.152.313-.108.485-.089a2.98,2.98,0,0,0,3.01-1.462.925.925,0,0,0,.156-.445.5.5,0,0,0-.295-.569.511.511,0,0,0-.617.18c-.124.142-.2.316-.31.469a1.961,1.961,0,0,1-2.08.7c-.2-.066-.373-.16-.413-.394-.056-1.187-.02-2.374-.021-3.561a.581.581,0,0,1,.131-.4" transform="translate(-35.311 -26.292)" fill="#fecabd"/>
        <path id="Trazado_136877" data-name="Trazado 136877" d="M56.72,4.3a43.054,43.054,0,0,1,5.061.086A11.4,11.4,0,0,1,67.74,6.944a11.676,11.676,0,0,1,4.095,6.7,8.93,8.93,0,0,1,.234,1.926c0,1.56,0,3.119,0,4.679a.556.556,0,0,1-.581.565c-.195-.014-.126-.165-.127-.26-.008-.534,0-1.069,0-1.6a.7.7,0,0,0-.521-.757,8.572,8.572,0,0,1-4.49-3.492,13.386,13.386,0,0,1-1.108-1.755c-.343-.636-.717-.695-1.264-.208a16.282,16.282,0,0,1-4.933,2.819,40.549,40.549,0,0,1-5.662,1.716,1.139,1.139,0,0,1-.216.011,2.551,2.551,0,0,1-.1-1.438c.092-1.176.07-2.358.238-3.531a19.266,19.266,0,0,1,1.8-6.372,10.038,10.038,0,0,1,.722-1.128A1.09,1.09,0,0,1,56.72,4.3" transform="translate(-37.098 -2.985)" fill="#544f57"/>
        <path id="Trazado_136878" data-name="Trazado 136878" d="M51.028,120.292a9.993,9.993,0,0,0,.264-1.848,16.366,16.366,0,0,1,.872-4.532,3.685,3.685,0,0,1,.7-1.127.412.412,0,0,0,.166-.29c.446-.114.657.012.811.5a3.5,3.5,0,0,0,6.635-.076c.117-.378.28-.453.651-.464a5.267,5.267,0,0,1,3.7,1.169,5.48,5.48,0,0,1,1.8,3.493c.093.554.237,1.1.333,1.652a.719.719,0,0,0,.626.669c1.239.065,2.479.012,3.719.028.482.006.482,0,.482.5,0,.317-.011.635,0,.952.012.244-.107.339-.325.365a3.235,3.235,0,0,1-.389.017q-2.878,0-5.756,0a.984.984,0,0,1-.662-.143,9.439,9.439,0,0,1-.074-2.023c-.021-.67-.2-.982-.629-1-.45-.015-.691.317-.671,1a8.965,8.965,0,0,0,.133,2.45c.039.126.007.191-.135.18-.057,0-.115,0-.173,0H51.127c-.086,0-.171-.01-.3-.017a5.214,5.214,0,0,0,.2-1.456" transform="translate(-35.571 -78.695)" fill="#e6ebf0"/>
        <path id="Trazado_136879" data-name="Trazado 136879" d="M38.628,4.371c-.793.261-1.1.983-1.453,1.618a15.78,15.78,0,0,0-1.66,5.234,26.872,26.872,0,0,0-.372,3.981c-.012.716-.058,1.435-.067,2.154a22.176,22.176,0,0,1-3.031.6,26.372,26.372,0,0,1-3.472.358.654.654,0,0,0-.684.726c-.01.49.006.981-.008,1.471,0,.125.106.388-.145.344-.2-.035-.527,0-.554-.352,0-.043,0-.087,0-.13,0-1.717-.067-3.438.029-5.149A11.135,11.135,0,0,1,29.7,8.851a11.723,11.723,0,0,1,5.464-3.865,11.078,11.078,0,0,1,3.467-.615" transform="translate(-19.005 -3.059)" fill="#454045"/>
        <path id="Trazado_136880" data-name="Trazado 136880" d="M39.2,61.052a8.715,8.715,0,0,0,4.02,5.829,3.626,3.626,0,0,0,2.2.588c1.253-.044,2.51,0,3.765,0a2,2,0,0,1-.77.064c-2.08,0-4.16.008-6.239-.006a8.115,8.115,0,0,1-8.127-6.761,7.186,7.186,0,0,1-.122-1.291c-.014-1.878-.007-3.755-.006-5.633,0-.161-.064-.35.219-.368,1.643-.105,3.26-.412,4.883-.666q0,2.042,0,4.084c-.371.092-.474-.249-.671-.427A3.781,3.781,0,0,1,38.036,56a.514.514,0,0,0-.717-.184.52.52,0,0,0-.2.718,2.886,2.886,0,0,0,1.365,1.446c.192.095.459.1.541.366l0,.534c-.187.162-.406.1-.618.088a2.525,2.525,0,0,0-1.53.34.759.759,0,0,0,0,1.423,2.676,2.676,0,0,0,1.826.337c.167-.026.332-.112.5-.02" transform="translate(-23.733 -36.957)" fill="#e9ab9c"/>
        <path id="Trazado_136881" data-name="Trazado 136881" d="M35.292,90.353a9.936,9.936,0,0,1-2.068.342c-1.86-.032-3.721-.019-5.581,0-.346,0-.438-.1-.436-.44q.02-3.613,0-7.226c0-.323.058-.388.417-.349.543.059.7.352.872.809A9.286,9.286,0,0,0,35,89.409a.414.414,0,0,1,.106.07c.191.264.093.589.182.874" transform="translate(-19.039 -57.85)" fill="#454045"/>
        <path id="Trazado_136882" data-name="Trazado 136882" d="M67.08,109.578a2.186,2.186,0,0,1-2.624-1.959c-.024-.388,0-.78-.017-1.169-.012-.237.081-.287.3-.286q1.927.013,3.854,0c.213,0,.327.04.3.282-.022.2-.015.4-.021.6a.729.729,0,0,1-.534.122c-.678,0-1.357,0-2.035,0-.473,0-.558.1-.486.575a2.184,2.184,0,0,0,1.263,1.828" transform="translate(-45.094 -74.293)" fill="#e9ab9c"/>
        <path id="Trazado_136883" data-name="Trazado 136883" d="M69.933,111.621a.845.845,0,0,1-.772-.371,2.959,2.959,0,0,1-.643-1.7c-.023-.349.076-.478.448-.468.919.026,1.839.01,2.759.01a2.193,2.193,0,0,1-1.792,2.527" transform="translate(-47.946 -76.335)" fill="#fecabd"/>
        <path id="Trazado_136884" data-name="Trazado 136884" d="M23.908,67.638a3.064,3.064,0,0,1-2.385-3.926A1.2,1.2,0,0,1,23.8,64a2.265,2.265,0,0,0-1.359-.076c-.447.142-.677.452-.58.819.1.385.421.549.887.455a.821.821,0,0,1,1.077.845,10.885,10.885,0,0,0,.079,1.6" transform="translate(-14.944 -44.079)" fill="#e9ab9c"/>
        <path id="Trazado_136885" data-name="Trazado 136885" d="M113.977,63.994a1.2,1.2,0,0,1,1.224-1.005,1.159,1.159,0,0,1,1.141.99A3.119,3.119,0,0,1,114.2,67.6c-.268.078-.339.028-.292-.24a7.655,7.655,0,0,0,.056-1.3.82.82,0,0,1,1.094-.865.671.671,0,0,0,.794-.278.588.588,0,0,0-.073-.758,1.309,1.309,0,0,0-.915-.322,3.244,3.244,0,0,0-.883.149" transform="translate(-79.7 -44.079)" fill="#e9ab9c"/>
        <path id="Trazado_136886" data-name="Trazado 136886" d="M96.9,137.4c2.223,0,4.446,0,6.668.01.326,0,.448-.092.409-.415-.047-.4.174-.907-.094-1.164-.245-.235-.744-.065-1.13-.07-.837-.01-1.674,0-2.512-.005-.139,0-.291.045-.414-.069,1.313-.005,2.626-.005,3.938-.02.242,0,.289.094.284.307-.013.591-.018,1.183-.008,1.775,0,.213-.073.267-.276.266-2.006-.007-4.012,0-6.018-.009a.83.83,0,0,1-.849-.6" transform="translate(-67.809 -94.934)" fill="#c5cfd9"/>
        <path id="Trazado_136887" data-name="Trazado 136887" d="M8.519,136.728a2.343,2.343,0,0,1-.11-.27c-.194-.714-.148-.774.587-.774.705,0,1.411.009,2.116,0,.238,0,.333.057.32.31-.024.473-.021.948-.029,1.422a2.979,2.979,0,0,1-2.693-.514.964.964,0,0,0-.192-.169" transform="translate(-5.816 -94.947)" fill="#fecabd"/>
        <path id="Trazado_136888" data-name="Trazado 136888" d="M125.027,137.417c-.009-.5-.014-1-.028-1.507,0-.168.061-.225.228-.224.877.006,1.755.008,2.632,0,.2,0,.245.082.232.258a1.422,1.422,0,0,1-.191.78,2.918,2.918,0,0,1-2.873.694" transform="translate(-87.474 -94.951)" fill="#fecabd"/>
        <path id="Trazado_136889" data-name="Trazado 136889" d="M9,139.173c.381.118.676.4,1.058.53a6.085,6.085,0,0,0,1.827.153c.053.606.053.589-.539.61A2.17,2.17,0,0,1,9,139.173" transform="translate(-6.301 -97.392)" fill="#e8ab9c"/>
        <path id="Trazado_136890" data-name="Trazado 136890" d="M125.037,139.837a4.162,4.162,0,0,0,2.873-.694,1.964,1.964,0,0,1-1.77,1.291,4.716,4.716,0,0,1-.561.007c-.6,0-.6,0-.542-.6" transform="translate(-87.484 -97.371)" fill="#e8ab9c"/>
        <path id="Trazado_136891" data-name="Trazado 136891" d="M53.666,106.232c-.385-.224-.088-.59-.182-.874.556.058,1.1.2,1.665.207.246,0,.335.137.328.392-.008.3-.2.256-.385.258l-1.425.017" transform="translate(-37.412 -73.729)" fill="#524e55"/>
        <path id="Trazado_136892" data-name="Trazado 136892" d="M83.2,65a3.147,3.147,0,0,1-2.809-1.723c-.237-.443-.153-.832.192-1.02s.709-.051.946.394a1.826,1.826,0,0,0,3.293-.009c.229-.44.6-.578.953-.382a.675.675,0,0,1,.2.982A3.146,3.146,0,0,1,83.2,65" transform="translate(-56.165 -43.505)"/>
        <path id="Trazado_136893" data-name="Trazado 136893" d="M46.093,64.9a3.335,3.335,0,0,1-1.955-1.64c-.222-.45-.145-.827.205-1.011s.709-.041.946.4a1.584,1.584,0,0,0,.8.8,1.765,1.765,0,0,0,2.347-.561c.066-.11.123-.227.189-.337a.658.658,0,0,1,.881-.3.649.649,0,0,1,.276.891,3.093,3.093,0,0,1-2.19,1.781,4,4,0,0,1-1.5-.015" transform="translate(-30.8 -43.507)"/>
        <path id="Trazado_136894" data-name="Trazado 136894" d="M65.025,80.715a3.085,3.085,0,0,1-2.778-1.741.666.666,0,0,1,.237-1c.352-.175.678-.042.91.393a1.833,1.833,0,0,0,3.3.013c.244-.458.583-.592.943-.393a.679.679,0,0,1,.2,1.013,3.093,3.093,0,0,1-2.808,1.715" transform="translate(-43.473 -54.512)"/>
        <path id="Trazado_136895" data-name="Trazado 136895" d="M44.631,75.106a2.71,2.71,0,0,1-2.44-.244.862.862,0,0,1,.057-1.6,2.5,2.5,0,0,1,1.687-.333,3.383,3.383,0,0,0,.518.011c.213.111.436.206.636.335a.91.91,0,0,1-.029,1.649,3.354,3.354,0,0,1-.43.183" transform="translate(-29.164 -51.011)" fill="#e38fb6"/>
        <path id="Trazado_136896" data-name="Trazado 136896" d="M90.864,75.274a2.52,2.52,0,0,1-1.495-.464.863.863,0,0,1,.014-1.478,2.87,2.87,0,0,1,2.966-.064.879.879,0,0,1-.043,1.636,2.686,2.686,0,0,1-1.443.369" transform="translate(-62.253 -51.006)" fill="#e38fb6"/>
        <path id="Trazado_136897" data-name="Trazado 136897" d="M67.66,68.071c.375,0,.75-.01,1.125,0a.619.619,0,0,1,.663.6.626.626,0,0,1-.623.687q-1.189.034-2.379,0a.643.643,0,1,1,.046-1.285c.389-.012.779,0,1.168,0" transform="translate(-46.063 -47.633)" fill="#010100"/>
      </g>
    </g>
    <g id="Grupo_159189" data-name="Grupo 159189" transform="translate(3962.227 -10326.108)">
      <g id="Grupo_159170-2" data-name="Grupo 159170" clip-path="url(#clip-path)">
        <path id="Trazado_136868-2" data-name="Trazado 136868" d="M38.488,28.409c.471.051.618.35.617.781,0,1.372,0,2.744,0,4.115,0,.588-.221.806-.817.808-1.53.005-3.061,0-4.591,0h-.471c0,.048-.018.087-.006.1a7.525,7.525,0,0,1,2.043,4.521c.12.705.134.7.841.7h7.711c.728,0,.9.192.923.922a3.928,3.928,0,0,1-.615,2.554,3.364,3.364,0,0,1-2.849,1.455q-4.57.007-9.14,0-12.28,0-24.561,0a3.4,3.4,0,0,1-3.458-2.688A5.663,5.663,0,0,1,4.055,40c.029-.38.3-.56.786-.561q2.989,0,5.978,0c.751,0,1.5-.008,2.252,0,.231,0,.33-.057.364-.3.052-.366.087-.762.509-.935.736-.1,1.055.218.941.947-.042.27-.1.539-.161.806-.164.685-.413.893-1.114.9-1.038.01-2.077,0-3.115,0-.648,0-.662.016-.664.645,0,.332.009.664,0,.995-.011.314.124.441.435.438.606-.007,1.211,0,1.817,0,1.2,0,2.394,0,3.591,0,.845,0,1.136-.289,1.169-1.143.02-.519,0-1.038.01-1.557s.285-.862.7-.889a.862.862,0,0,1,.834.833c.05.473,0,.951.028,1.427a3.968,3.968,0,0,1-.079.946c-.044.258.06.383.322.38.1,0,.2,0,.3,0h10.9c.637,0,.634-.006.556-.627a12.909,12.909,0,0,1-.026-2.072,1.1,1.1,0,0,1,.109-.416.772.772,0,0,1,.8-.469.754.754,0,0,1,.625.681c.044.5.014,1.008.017,1.513a2.977,2.977,0,0,0,.088.856.834.834,0,0,0,.825.524c1.9.024,3.808.01,5.712.01.277,0,.387-.135.394-.4.011-.447,0-.894,0-1.341,0-.336-.229-.346-.476-.346-1.183,0-2.366.007-3.548,0a.879.879,0,0,1-.84-.792c-.16-.763-.328-1.523-.484-2.286a4.748,4.748,0,0,0-4.72-3.857.812.812,0,0,1-.13,0c-.539-.088-.815.1-1.053.647a3.607,3.607,0,0,1-5.87,1.162,3.22,3.22,0,0,1-.849-1.342.567.567,0,0,0-.695-.465,4.751,4.751,0,0,0-3.943,1.5,8.511,8.511,0,0,0-.864,1.24c-.272.41-.568.485-.932.271-.413-.356-.465-.581-.228-1.05a6.527,6.527,0,0,1,1.3-1.739c-.189-.009-.31-.02-.43-.02h-4.5c-.877,0-1.021-.147-1.021-1.04q0-4.309,0-8.619a.82.82,0,0,0-.283-.668,4.247,4.247,0,0,1-1.26-4.451,2.206,2.206,0,0,1,1.25-1.467.445.445,0,0,0,.293-.489c0-1.631-.029-3.264.019-4.894A13.111,13.111,0,0,1,20.285.24a4.572,4.572,0,0,0,1.2-.24h.607a.663.663,0,0,0,.52,0h3.553a.663.663,0,0,0,.52,0h.52c.583.114,1.169.214,1.748.343a13.132,13.132,0,0,1,9.967,10.545A25.32,25.32,0,0,1,39.1,14.9c.008.851,0,1.7,0,2.554,0,.169.017.294.2.374A2.463,2.463,0,0,1,40.792,20,4.287,4.287,0,0,1,39.4,23.779a.822.822,0,0,0-.3.7c.023.562-.017,1.127.014,1.688a.8.8,0,0,1-.638.956.69.69,0,0,1-.77-.618,6.145,6.145,0,0,1-.054-.991c-.016-.192.115-.463-.191-.543a.661.661,0,0,0-.722.418,10.307,10.307,0,0,1-.544,1.272,9.413,9.413,0,0,1-7.632,5.267,1.167,1.167,0,0,0-.172.021c-.135.037-.319.044-.311.234s.2.188.334.181a8.092,8.092,0,0,1,2.608.318,1.932,1.932,0,0,0,.517.034q2.769,0,5.538,0c.554,0,.577-.025.579-.593,0-.909,0-1.817,0-2.726a1.211,1.211,0,0,1,.2-.782c.159-.2.353-.35.633-.211" transform="translate(-2.813)"/>
        <path id="Trazado_136869-2" data-name="Trazado 136869" d="M78.3,0a.394.394,0,0,1-.52,0Z" transform="translate(-54.43)" fill="#212121"/>
        <path id="Trazado_136870-2" data-name="Trazado 136870" d="M64.733,0a.394.394,0,0,1-.52,0Z" transform="translate(-44.936)" fill="#212121"/>
        <path id="Trazado_136871-2" data-name="Trazado 136871" d="M31.544,120.34c-.01-.461-.016-.921-.03-1.382s-.261-.766-.64-.774-.651.294-.657.793c-.007.592.007,1.184,0,1.775a.942.942,0,0,1-1.071,1.06c-1.92,0-3.839,0-5.759.008-.289,0-.409-.055-.392-.373a13.206,13.206,0,0,0,0-1.515c-.021-.35.069-.469.441-.461,1.183.025,2.367.011,3.551.009.572,0,.736-.136.857-.693.061-.282.117-.564.174-.847.148-.739-.061-1-.8-.99a.539.539,0,0,0,.454-.571,3.963,3.963,0,0,1,.152-.712.766.766,0,0,0,.961-.5,4.837,4.837,0,0,1,4.761-2.625c.1.162-.008.275-.1.383a6.46,6.46,0,0,0-1.248,3.321c-.169,1.229-.283,2.464-.44,3.695-.019.152.037.364-.216.4" transform="translate(-16.087 -78.743)" fill="#c5cfd9"/>
        <path id="Trazado_136872-2" data-name="Trazado 136872" d="M94.137,86.172c-.532.1-.693.286-.7.856-.006,1.04-.012,2.08,0,3.12,0,.32-.059.457-.423.453-2.036-.017-4.073-.008-6.109-.01a1.326,1.326,0,0,1-.384-.047,7.681,7.681,0,0,0-2.566-.3c-.19.007-.4.066-.419-.27s.176-.36.394-.376a8.822,8.822,0,0,0,2.283-.448,9.373,9.373,0,0,0,6.069-6.131,1.217,1.217,0,0,1,1.044-.462c.132.05.1.162.1.255,0,.39,0,.78,0,1.17.009.55.148.729.682.9q.008.641.015,1.282" transform="translate(-58.462 -57.763)" fill="#544f57"/>
        <path id="Trazado_136873-2" data-name="Trazado 136873" d="M118.71,7.182a.637.637,0,0,1-.636.631c-.389.017-.779.017-1.168,0-.212-.008-.276.068-.269.273.013.36.012.721,0,1.082-.015.465-.278.735-.681.72-.386-.014-.606-.272-.615-.732a7.165,7.165,0,0,1,0-.865c.037-.363-.053-.533-.46-.482a5.877,5.877,0,0,1-.951,0,.642.642,0,1,1-.051-1.284,10.444,10.444,0,0,1,1.168-.008c.226.008.3-.064.293-.293-.017-.36-.011-.721,0-1.082a.638.638,0,0,1,.616-.693.662.662,0,0,1,.677.688,7.505,7.505,0,0,1,0,.951c-.026.321.05.47.411.431a5.972,5.972,0,0,1,.994,0,.666.666,0,0,1,.67.655" transform="translate(-79.263 -3.118)"/>
        <path id="Trazado_136874-2" data-name="Trazado 136874" d="M128.984,97.008c-.851,0-.851,0-.851.859a5.422,5.422,0,0,1-.012.605.618.618,0,0,1-.657.605.606.606,0,0,1-.622-.636c-.019-.374-.021-.751,0-1.125.012-.255-.086-.323-.326-.312-.36.017-.722.014-1.082,0a.616.616,0,0,1-.664-.639.634.634,0,0,1,.663-.651,6.324,6.324,0,0,1,.995,0c.367.039.439-.119.415-.44a8.054,8.054,0,0,1,0-.952.644.644,0,1,1,1.287-.02,8.389,8.389,0,0,1,0,1.082c-.02.282.086.344.343.328.331-.021.664-.013,1,0,.464.015.743.281.728.676s-.273.605-.733.621c-.159.005-.318,0-.476,0" transform="translate(-87.31 -65.528)"/>
        <path id="Trazado_136875-2" data-name="Trazado 136875" d="M3.364,43.452c0,.8,0,.8.814.8.216,0,.434-.013.649.007a.633.633,0,0,1,.6.661.623.623,0,0,1-.635.627c-.375.015-.751.02-1.125,0-.253-.014-.322.079-.311.319.017.36.015.722,0,1.082a.644.644,0,1,1-1.288.017c-.021-.388-.015-.779,0-1.169,0-.185-.054-.253-.244-.247-.375.012-.751.011-1.125,0a.641.641,0,0,1-.7-.658.647.647,0,0,1,.681-.636c.375-.013.751-.016,1.125,0,.217.01.272-.066.263-.271-.016-.346-.012-.693,0-1.039.012-.471.264-.763.644-.768s.637.289.652.754c.006.173,0,.346,0,.52" transform="translate(0 -29.516)"/>
        <path id="Trazado_136876-2" data-name="Trazado 136876" d="M50.6,42.146c1.449-.368,2.915-.672,4.345-1.118a25.421,25.421,0,0,0,7.026-3.149c.631-.436.627-.441,1.045.185a12.063,12.063,0,0,0,4.041,4.02,3.26,3.26,0,0,0,.739.35c.416.108.491.346.485.745-.024,1.79-.008,3.58-.011,5.37a8.129,8.129,0,0,1-6.864,8.208,6.139,6.139,0,0,1-.645.05c-1.092.069-2.186.011-3.279.03a1.987,1.987,0,0,0-.3,0,4.139,4.139,0,0,1-3.45-1.243A8.762,8.762,0,0,1,50.75,50.85a.766.766,0,0,1-.032-.424c.074-.156.236-.2.367-.279.735-.455.722-1.132-.025-1.576-.19-.113-.45-.134-.542-.386a.654.654,0,0,1,.038-.472c.139-.152.313-.108.485-.089a2.98,2.98,0,0,0,3.01-1.462.925.925,0,0,0,.156-.445.5.5,0,0,0-.295-.569.511.511,0,0,0-.617.18c-.124.142-.2.316-.31.469a1.961,1.961,0,0,1-2.08.7c-.2-.066-.373-.16-.413-.394-.056-1.187-.02-2.374-.021-3.561a.581.581,0,0,1,.131-.4" transform="translate(-35.311 -26.292)" fill="#fecabd"/>
        <path id="Trazado_136877-2" data-name="Trazado 136877" d="M56.72,4.3a43.054,43.054,0,0,1,5.061.086A11.4,11.4,0,0,1,67.74,6.944a11.676,11.676,0,0,1,4.095,6.7,8.93,8.93,0,0,1,.234,1.926c0,1.56,0,3.119,0,4.679a.556.556,0,0,1-.581.565c-.195-.014-.126-.165-.127-.26-.008-.534,0-1.069,0-1.6a.7.7,0,0,0-.521-.757,8.572,8.572,0,0,1-4.49-3.492,13.386,13.386,0,0,1-1.108-1.755c-.343-.636-.717-.695-1.264-.208a16.282,16.282,0,0,1-4.933,2.819,40.549,40.549,0,0,1-5.662,1.716,1.139,1.139,0,0,1-.216.011,2.551,2.551,0,0,1-.1-1.438c.092-1.176.07-2.358.238-3.531a19.266,19.266,0,0,1,1.8-6.372,10.038,10.038,0,0,1,.722-1.128A1.09,1.09,0,0,1,56.72,4.3" transform="translate(-37.098 -2.985)" fill="#544f57"/>
        <path id="Trazado_136878-2" data-name="Trazado 136878" d="M51.028,120.292a9.993,9.993,0,0,0,.264-1.848,16.366,16.366,0,0,1,.872-4.532,3.685,3.685,0,0,1,.7-1.127.412.412,0,0,0,.166-.29c.446-.114.657.012.811.5a3.5,3.5,0,0,0,6.635-.076c.117-.378.28-.453.651-.464a5.267,5.267,0,0,1,3.7,1.169,5.48,5.48,0,0,1,1.8,3.493c.093.554.237,1.1.333,1.652a.719.719,0,0,0,.626.669c1.239.065,2.479.012,3.719.028.482.006.482,0,.482.5,0,.317-.011.635,0,.952.012.244-.107.339-.325.365a3.235,3.235,0,0,1-.389.017q-2.878,0-5.756,0a.984.984,0,0,1-.662-.143,9.439,9.439,0,0,1-.074-2.023c-.021-.67-.2-.982-.629-1-.45-.015-.691.317-.671,1a8.965,8.965,0,0,0,.133,2.45c.039.126.007.191-.135.18-.057,0-.115,0-.173,0H51.127c-.086,0-.171-.01-.3-.017a5.214,5.214,0,0,0,.2-1.456" transform="translate(-35.571 -78.695)" fill="#e6ebf0"/>
        <path id="Trazado_136879-2" data-name="Trazado 136879" d="M38.628,4.371c-.793.261-1.1.983-1.453,1.618a15.78,15.78,0,0,0-1.66,5.234,26.872,26.872,0,0,0-.372,3.981c-.012.716-.058,1.435-.067,2.154a22.176,22.176,0,0,1-3.031.6,26.372,26.372,0,0,1-3.472.358.654.654,0,0,0-.684.726c-.01.49.006.981-.008,1.471,0,.125.106.388-.145.344-.2-.035-.527,0-.554-.352,0-.043,0-.087,0-.13,0-1.717-.067-3.438.029-5.149A11.135,11.135,0,0,1,29.7,8.851a11.723,11.723,0,0,1,5.464-3.865,11.078,11.078,0,0,1,3.467-.615" transform="translate(-19.005 -3.059)" fill="#454045"/>
        <path id="Trazado_136880-2" data-name="Trazado 136880" d="M39.2,61.052a8.715,8.715,0,0,0,4.02,5.829,3.626,3.626,0,0,0,2.2.588c1.253-.044,2.51,0,3.765,0a2,2,0,0,1-.77.064c-2.08,0-4.16.008-6.239-.006a8.115,8.115,0,0,1-8.127-6.761,7.186,7.186,0,0,1-.122-1.291c-.014-1.878-.007-3.755-.006-5.633,0-.161-.064-.35.219-.368,1.643-.105,3.26-.412,4.883-.666q0,2.042,0,4.084c-.371.092-.474-.249-.671-.427A3.781,3.781,0,0,1,38.036,56a.514.514,0,0,0-.717-.184.52.52,0,0,0-.2.718,2.886,2.886,0,0,0,1.365,1.446c.192.095.459.1.541.366l0,.534c-.187.162-.406.1-.618.088a2.525,2.525,0,0,0-1.53.34.759.759,0,0,0,0,1.423,2.676,2.676,0,0,0,1.826.337c.167-.026.332-.112.5-.02" transform="translate(-23.733 -36.957)" fill="#e9ab9c"/>
        <path id="Trazado_136881-2" data-name="Trazado 136881" d="M35.292,90.353a9.936,9.936,0,0,1-2.068.342c-1.86-.032-3.721-.019-5.581,0-.346,0-.438-.1-.436-.44q.02-3.613,0-7.226c0-.323.058-.388.417-.349.543.059.7.352.872.809A9.286,9.286,0,0,0,35,89.409a.414.414,0,0,1,.106.07c.191.264.093.589.182.874" transform="translate(-19.039 -57.85)" fill="#454045"/>
        <path id="Trazado_136882-2" data-name="Trazado 136882" d="M67.08,109.578a2.186,2.186,0,0,1-2.624-1.959c-.024-.388,0-.78-.017-1.169-.012-.237.081-.287.3-.286q1.927.013,3.854,0c.213,0,.327.04.3.282-.022.2-.015.4-.021.6a.729.729,0,0,1-.534.122c-.678,0-1.357,0-2.035,0-.473,0-.558.1-.486.575a2.184,2.184,0,0,0,1.263,1.828" transform="translate(-45.094 -74.293)" fill="#e9ab9c"/>
        <path id="Trazado_136883-2" data-name="Trazado 136883" d="M69.933,111.621a.845.845,0,0,1-.772-.371,2.959,2.959,0,0,1-.643-1.7c-.023-.349.076-.478.448-.468.919.026,1.839.01,2.759.01a2.193,2.193,0,0,1-1.792,2.527" transform="translate(-47.946 -76.335)" fill="#fecabd"/>
        <path id="Trazado_136884-2" data-name="Trazado 136884" d="M23.908,67.638a3.064,3.064,0,0,1-2.385-3.926A1.2,1.2,0,0,1,23.8,64a2.265,2.265,0,0,0-1.359-.076c-.447.142-.677.452-.58.819.1.385.421.549.887.455a.821.821,0,0,1,1.077.845,10.885,10.885,0,0,0,.079,1.6" transform="translate(-14.944 -44.079)" fill="#e9ab9c"/>
        <path id="Trazado_136885-2" data-name="Trazado 136885" d="M113.977,63.994a1.2,1.2,0,0,1,1.224-1.005,1.159,1.159,0,0,1,1.141.99A3.119,3.119,0,0,1,114.2,67.6c-.268.078-.339.028-.292-.24a7.655,7.655,0,0,0,.056-1.3.82.82,0,0,1,1.094-.865.671.671,0,0,0,.794-.278.588.588,0,0,0-.073-.758,1.309,1.309,0,0,0-.915-.322,3.244,3.244,0,0,0-.883.149" transform="translate(-79.7 -44.079)" fill="#e9ab9c"/>
        <path id="Trazado_136886-2" data-name="Trazado 136886" d="M96.9,137.4c2.223,0,4.446,0,6.668.01.326,0,.448-.092.409-.415-.047-.4.174-.907-.094-1.164-.245-.235-.744-.065-1.13-.07-.837-.01-1.674,0-2.512-.005-.139,0-.291.045-.414-.069,1.313-.005,2.626-.005,3.938-.02.242,0,.289.094.284.307-.013.591-.018,1.183-.008,1.775,0,.213-.073.267-.276.266-2.006-.007-4.012,0-6.018-.009a.83.83,0,0,1-.849-.6" transform="translate(-67.809 -94.934)" fill="#c5cfd9"/>
        <path id="Trazado_136887-2" data-name="Trazado 136887" d="M8.519,136.728a2.343,2.343,0,0,1-.11-.27c-.194-.714-.148-.774.587-.774.705,0,1.411.009,2.116,0,.238,0,.333.057.32.31-.024.473-.021.948-.029,1.422a2.979,2.979,0,0,1-2.693-.514.964.964,0,0,0-.192-.169" transform="translate(-5.816 -94.947)" fill="#fecabd"/>
        <path id="Trazado_136888-2" data-name="Trazado 136888" d="M125.027,137.417c-.009-.5-.014-1-.028-1.507,0-.168.061-.225.228-.224.877.006,1.755.008,2.632,0,.2,0,.245.082.232.258a1.422,1.422,0,0,1-.191.78,2.918,2.918,0,0,1-2.873.694" transform="translate(-87.474 -94.951)" fill="#fecabd"/>
        <path id="Trazado_136889-2" data-name="Trazado 136889" d="M9,139.173c.381.118.676.4,1.058.53a6.085,6.085,0,0,0,1.827.153c.053.606.053.589-.539.61A2.17,2.17,0,0,1,9,139.173" transform="translate(-6.301 -97.392)" fill="#e8ab9c"/>
        <path id="Trazado_136890-2" data-name="Trazado 136890" d="M125.037,139.837a4.162,4.162,0,0,0,2.873-.694,1.964,1.964,0,0,1-1.77,1.291,4.716,4.716,0,0,1-.561.007c-.6,0-.6,0-.542-.6" transform="translate(-87.484 -97.371)" fill="#e8ab9c"/>
        <path id="Trazado_136891-2" data-name="Trazado 136891" d="M53.666,106.232c-.385-.224-.088-.59-.182-.874.556.058,1.1.2,1.665.207.246,0,.335.137.328.392-.008.3-.2.256-.385.258l-1.425.017" transform="translate(-37.412 -73.729)" fill="#524e55"/>
        <path id="Trazado_136892-2" data-name="Trazado 136892" d="M83.2,65a3.147,3.147,0,0,1-2.809-1.723c-.237-.443-.153-.832.192-1.02s.709-.051.946.394a1.826,1.826,0,0,0,3.293-.009c.229-.44.6-.578.953-.382a.675.675,0,0,1,.2.982A3.146,3.146,0,0,1,83.2,65" transform="translate(-56.165 -43.505)"/>
        <path id="Trazado_136893-2" data-name="Trazado 136893" d="M46.093,64.9a3.335,3.335,0,0,1-1.955-1.64c-.222-.45-.145-.827.205-1.011s.709-.041.946.4a1.584,1.584,0,0,0,.8.8,1.765,1.765,0,0,0,2.347-.561c.066-.11.123-.227.189-.337a.658.658,0,0,1,.881-.3.649.649,0,0,1,.276.891,3.093,3.093,0,0,1-2.19,1.781,4,4,0,0,1-1.5-.015" transform="translate(-30.8 -43.507)"/>
        <path id="Trazado_136894-2" data-name="Trazado 136894" d="M65.025,80.715a3.085,3.085,0,0,1-2.778-1.741.666.666,0,0,1,.237-1c.352-.175.678-.042.91.393a1.833,1.833,0,0,0,3.3.013c.244-.458.583-.592.943-.393a.679.679,0,0,1,.2,1.013,3.093,3.093,0,0,1-2.808,1.715" transform="translate(-43.473 -54.512)"/>
        <path id="Trazado_136895-2" data-name="Trazado 136895" d="M44.631,75.106a2.71,2.71,0,0,1-2.44-.244.862.862,0,0,1,.057-1.6,2.5,2.5,0,0,1,1.687-.333,3.383,3.383,0,0,0,.518.011c.213.111.436.206.636.335a.91.91,0,0,1-.029,1.649,3.354,3.354,0,0,1-.43.183" transform="translate(-29.164 -51.011)" fill="#e38fb6"/>
        <path id="Trazado_136896-2" data-name="Trazado 136896" d="M90.864,75.274a2.52,2.52,0,0,1-1.495-.464.863.863,0,0,1,.014-1.478,2.87,2.87,0,0,1,2.966-.064.879.879,0,0,1-.043,1.636,2.686,2.686,0,0,1-1.443.369" transform="translate(-62.253 -51.006)" fill="#e38fb6"/>
        <path id="Trazado_136897-2" data-name="Trazado 136897" d="M67.66,68.071c.375,0,.75-.01,1.125,0a.619.619,0,0,1,.663.6.626.626,0,0,1-.623.687q-1.189.034-2.379,0a.643.643,0,1,1,.046-1.285c.389-.012.779,0,1.168,0" transform="translate(-46.063 -47.633)" fill="#010100"/>
      </g>
    </g>
  </g>
</svg>
