<svg xmlns="http://www.w3.org/2000/svg" xmlns:xlink="http://www.w3.org/1999/xlink" width="105" height="105" viewBox="0 0 105 105">
  <defs>
    <clipPath id="clip-path">
      <rect id="Rect치ngulo_37621" data-name="Rect치ngulo 37621" width="34.199" height="43.01" fill="none"/>
    </clipPath>
  </defs>
  <g id="Grupo_159192" data-name="Grupo 159192" transform="translate(-3921 10236)">
    <rect id="Rect치ngulo_37513" data-name="Rect치ngulo 37513" width="105" height="105" rx="52.5" transform="translate(3921 -10236)" fill="#6b8dfc"/>
    <g id="Grupo_159174" data-name="Grupo 159174" transform="translate(3945 -10221.204)">
      <g id="Grupo_159173" data-name="Grupo 159173" transform="translate(-6 3.204)" clip-path="url(#clip-path)">
        <path id="Trazado_136898" data-name="Trazado 136898" d="M33.4,17.954a.623.623,0,0,1,.519.538,27.3,27.3,0,0,1-.215,9.1,16.948,16.948,0,0,1-8.415,11.23,19.233,19.233,0,0,1-6.687,2.436.481.481,0,0,0-.421.335,2.492,2.492,0,0,1-1.222,1.412h-.588a1.527,1.527,0,0,1-1.155-.922.67.67,0,0,0-.75-.389,12.256,12.256,0,0,1-3,0,.7.7,0,0,0-.806.437,1.415,1.415,0,0,1-1.091.874H8.984A2.157,2.157,0,0,1,7.8,41.732a.738.738,0,0,0-.666-.5,9.834,9.834,0,0,1-3.4-1.114,4.563,4.563,0,0,1-2.386-4.185,24.015,24.015,0,0,1,.7-5.01c.424-2.063.956-4.1,1.486-6.138.15-.576.316-.7.914-.674a.623.623,0,0,1,.483.787c-.047.3-.15.6-.226.9a82.71,82.71,0,0,0-1.853,8.446c-.037.25-.033.5-.08.751a3.577,3.577,0,0,0,1.943,4.087,11.122,11.122,0,0,0,2.34.764,16.639,16.639,0,0,1-.375-1.755c-.276-1.417-.43-2.85-.591-4.282-.177-1.57-.278-3.147-.4-4.722-.076-.989-.108-1.981-.161-2.972a.792.792,0,0,1,.67-.838.762.762,0,0,1,.808.642,3.787,3.787,0,0,1,.089.832A85.859,85.859,0,0,0,8.35,38.8a10.592,10.592,0,0,0,.63,2.174c.064.149.093.381.276.385.213,0,.245-.242.305-.4a14.338,14.338,0,0,0,.708-3.1c.228-1.593.356-3.195.448-4.8.1-1.676.178-3.351.159-5.03a1.356,1.356,0,0,1,.138-.692.714.714,0,0,1,1.323.012,1.015,1.015,0,0,1,.111.652,11.026,11.026,0,0,0-.062,1.634,71.588,71.588,0,0,1-.69,8.984c-.083.424-.143.852-.25,1.271-.055.214.026.3.245.324a11.8,11.8,0,0,0,2.541,0c.237-.023.277-.134.229-.334-.121-.5-.191-1.012-.279-1.52-.23-1.509-.36-3.027-.464-4.549-.132-1.925-.221-3.851-.239-5.781a2.23,2.23,0,0,1,.035-.544.755.755,0,0,1,.72-.6.736.736,0,0,1,.718.591.881.881,0,0,1,.031.249c-.033.938.063,1.872.093,2.809a55.475,55.475,0,0,0,.829,8.846,8.961,8.961,0,0,0,.427,1.536c.068.175.1.442.319.444.2,0,.228-.255.3-.417a14.481,14.481,0,0,0,.777-3.046c.4-2.2.622-4.432.8-6.665q.205-2.551.334-5.106a.787.787,0,0,1,.75-.847c.442,0,.747.342.75.878.008,1.189-.111,2.374-.188,3.559q-.141,2.176-.381,4.346c-.15,1.336-.317,2.668-.544,3.992-.152.578-.213,1.178-.4,1.776a8.983,8.983,0,0,0,2.487-.808,3.144,3.144,0,0,0,1.81-3.092,17.732,17.732,0,0,0-.564-4.357c-.877-4.163-2.014-8.26-3.207-12.341a.834.834,0,0,1,.649-1.211,3.52,3.52,0,0,0,1.48-.84,4.82,4.82,0,0,0,1.235-4.983,21.123,21.123,0,0,0-2.522-5.371A2.487,2.487,0,0,1,19.9,5.431a10.041,10.041,0,0,0-.368-3.519c-.193-.531-.355-.564-.756-.158a7.382,7.382,0,0,0-1.65,2.7,1.556,1.556,0,0,1-1.849,1.211,6.525,6.525,0,0,0-1.09,0q-1.17.015-2.338,0a12.6,12.6,0,0,0-1.467,0,1.352,1.352,0,0,1-1.495-1A10.7,10.7,0,0,0,7.436,2.075a3.526,3.526,0,0,0-.3-.353c-.393-.4-.55-.362-.767.164a2.805,2.805,0,0,0-.146.524,14.225,14.225,0,0,0-.231,3.3,1.976,1.976,0,0,1-.319,1.146,26.809,26.809,0,0,0-2.143,4.222,6.1,6.1,0,0,0-.394,3.974,4.894,4.894,0,0,0,1.2,2.088A4.264,4.264,0,0,0,6,18.078a.769.769,0,0,1,.559,1.05c-.312,1.075-.605,2.155-.934,3.225-.158.516-.514.719-.915.568-.47-.292-.54-.47-.388-1.007.225-.792.448-1.584.686-2.372.066-.22.051-.347-.187-.451A5.044,5.044,0,0,1,2.436,16.88c-.14-.245-.252-.314-.5-.146a3.82,3.82,0,0,1-.627.334.6.6,0,0,1-.818-.278.581.581,0,0,1,.212-.806,4.464,4.464,0,0,1,.731-.405c.271-.119.4-.26.274-.572a1.2,1.2,0,0,1-.1-.575c.071-.512-.235-.6-.628-.643a2.548,2.548,0,0,1-.535-.1.583.583,0,0,1-.438-.71.614.614,0,0,1,.666-.516c.014,0,.028,0,.042,0,.315.015.69.272.916.068.188-.171.155-.574.244-.867a23.86,23.86,0,0,1,2.557-5.44,1.18,1.18,0,0,0,.182-.667,13.824,13.824,0,0,1,.33-3.75A3.409,3.409,0,0,1,5.429.706,1.448,1.448,0,0,1,7.482.245,4.625,4.625,0,0,1,8.955,1.826a12.07,12.07,0,0,1,1.078,2.031.528.528,0,0,0,.582.389q2.351-.026,4.7,0a.482.482,0,0,0,.534-.334A12.935,12.935,0,0,1,17.3,1.325a4.1,4.1,0,0,1,.966-.983,1.493,1.493,0,0,1,2.313.527,5.128,5.128,0,0,1,.577,1.956,16.682,16.682,0,0,1,.131,2.848,1.013,1.013,0,0,0,.2.578,22.748,22.748,0,0,1,2.636,5.811c.142.551.141.551.723.462.663-.1.994.054,1.05.494s-.207.661-.849.761l-.042,0c-.655.1-.667.1-.727.771-.026.285-.256.606-.083.834.161.213.493.3.748.44a.991.991,0,0,1,.455.356.6.6,0,0,1-.05.706.571.571,0,0,1-.711.2,4.884,4.884,0,0,1-.7-.37c-.223-.144-.319-.086-.443.135a5.1,5.1,0,0,1-2.448,2.264c-.307.132-.175.3-.126.462.8,2.719,1.55,5.45,2.221,8.2.479,1.968.949,3.938,1.233,5.947.012.083.038.163.07.3a8.832,8.832,0,0,0,1.695-1.734.779.779,0,0,1,.976-.342.653.653,0,0,1,.218,1.04A9.9,9.9,0,0,1,26.1,34.408a9.271,9.271,0,0,1-1.086.92.73.73,0,0,0-.312.556,6.761,6.761,0,0,1-.36,1.892A13.453,13.453,0,0,0,26.2,36.606a15.563,15.563,0,0,0,6.448-10.954,23.848,23.848,0,0,0,.1-4.769c-.051-.7-.1-1.393-.169-2.088-.057-.588.25-.882.833-.84" transform="translate(0 0)"/>
        <path id="Trazado_136899" data-name="Trazado 136899" d="M8.423,46.977a32.239,32.239,0,0,1,.888-5.057c.368-1.614.791-3.217,1.205-4.82a.8.8,0,0,0-.319-1.014,11.871,11.871,0,0,0,.262-1.192.72.72,0,0,0,.821-.605c.3-1.073.62-2.143.923-3.216.149-.528-.026-.815-.567-.958a3.4,3.4,0,0,1-1.6-.921c0-.205.18-.187.3-.227a9.8,9.8,0,0,0,3.239-1.8,9.049,9.049,0,0,0,2.049-2.524,13.538,13.538,0,0,0,1.694-6.375,1.31,1.31,0,0,1,.185-.761,24.343,24.343,0,0,1,2.523.007c.146.148.113.338.114.516a13.544,13.544,0,0,0,1.644,6.523,8.927,8.927,0,0,0,4.51,4.089c.259.107.521.206.779.313.118.049.29.055.281.253a3.178,3.178,0,0,1-1.569.908c-.572.157-.723.413-.556.989,1.086,3.752,2.146,7.512,2.993,11.327a31.785,31.785,0,0,1,.818,4.913,1.547,1.547,0,0,1-.015.583,3.4,3.4,0,0,1-1.7,1.537,7.863,7.863,0,0,1-1.972.688c-.16.034-.327.1-.472-.044.25-1.714.491-3.43.65-5.156.211-2.284.378-4.572.464-6.864a.634.634,0,0,0-.613-.742c-.374-.007-.628.273-.649.722-.143,3.158-.361,6.311-.765,9.447a27.309,27.309,0,0,1-1,5.047,5.96,5.96,0,0,1-.246.622c-.079.174-.14.448-.324.448-.221,0-.27-.289-.351-.473a9.225,9.225,0,0,1-.588-2.134,74.086,74.086,0,0,1-.839-11.116c-.015-.644-.206-.948-.627-.953s-.649.315-.637.981a84.354,84.354,0,0,0,.658,10.084c.015.11.014.223.02.334.083.2,0,.349-.2.361a11.45,11.45,0,0,1-2.4-.026c-.043-.006-.067-.047-.1-.073.122-1.111.256-2.221.363-3.334.242-2.523.313-5.055.355-7.588a.654.654,0,0,0-.63-.739c-.366,0-.626.282-.635.736-.035,1.9-.077,3.806-.213,5.705a34.823,34.823,0,0,1-1,7.172,4.443,4.443,0,0,1-.363.889c-.14.259-.258.241-.393,0a8.17,8.17,0,0,1-.751-2.214,57.426,57.426,0,0,1-1.018-7.39q-.248-2.844-.372-5.7,0-.063-.009-.126c-.05-.452-.314-.714-.686-.681a.657.657,0,0,0-.577.784c.072,1.327.133,2.656.232,3.981.186,2.5.416,4.989.822,7.462.029.179.05.358.075.538a.355.355,0,0,1-.354.062,7,7,0,0,1-3.379-1.653,1.663,1.663,0,0,1-.383-1.542" transform="translate(-5.751 -11.973)" fill="#fee8c7"/>
        <path id="Trazado_136900" data-name="Trazado 136900" d="M82.583,61.534c.38-.438.771-.868,1.137-1.317.345-.423.321-.671-.054-1.087.174-.408.55-.711.609-1.179.661.1.929-.3,1.153-.833a16.262,16.262,0,0,0,1.4-7.269,13.268,13.268,0,0,0-1.01-4.014c-.365-.954-.788-1.884-1.163-2.834A9.325,9.325,0,0,1,84.3,41.84a1.831,1.831,0,0,1,.987-1.992,1.727,1.727,0,0,1,2,.412,4.426,4.426,0,0,1,.9,1.259,6.637,6.637,0,0,1,.521,1.326,1.372,1.372,0,0,0,.765,1.07c.057.339.123.677.169,1.018.028.209.242.092.315.206-.608.065-.782.3-.714.921a27.2,27.2,0,0,1-.025,7.435,15.527,15.527,0,0,1-6.358,10.344.814.814,0,0,1-.109.057.177.177,0,0,1-.18-.225c.111-.713-.1-1.426.01-2.138" transform="translate(-56.553 -27.184)" fill="#fedba6"/>
        <path id="Trazado_136901" data-name="Trazado 136901" d="M90.713,41.388a.723.723,0,0,1-.756-.637,7.817,7.817,0,0,0-.93-2.23,2.975,2.975,0,0,0-1.021-1.033,1.42,1.42,0,0,0-1.652.063,1.585,1.585,0,0,0-.725,1.587,9.455,9.455,0,0,0,.761,2.252,23.659,23.659,0,0,1,1.634,4.734,13.623,13.623,0,0,1-.451,6.253,16.5,16.5,0,0,1-.994,2.66c-.254.54-.538.641-1.066.385a.782.782,0,0,1-.068-.966,14.737,14.737,0,0,0,1.482-6.852,14.111,14.111,0,0,0-1.305-4.78,20.637,20.637,0,0,1-1.17-3.086,2.917,2.917,0,0,1,5.178-2.512,8.061,8.061,0,0,1,1.585,3.336c.109.419-.038.621-.5.825" transform="translate(-57.792 -24.657)"/>
        <path id="Trazado_136902" data-name="Trazado 136902" d="M17.9,8.329a17.073,17.073,0,0,1-1.069,5.717A9.466,9.466,0,0,1,10.5,19.964c-.024.007-.042.035-.063.054a4.849,4.849,0,0,1-1.293-4.751,20.271,20.271,0,0,1,2.664-5.8,1.5,1.5,0,0,0,.235-.865,14.092,14.092,0,0,1,.243-3.508,2.939,2.939,0,0,1,.3-.823c.127-.224.28-.243.479-.1a3.455,3.455,0,0,1,.794.858,13.629,13.629,0,0,1,1.423,2.7.812.812,0,0,0,.858.58c.587-.01,1.174.01,1.76.018" transform="translate(-6.155 -2.796)" fill="#fead8a"/>
        <path id="Trazado_136903" data-name="Trazado 136903" d="M52.622,20.029a2.815,2.815,0,0,0-.8-.338,9.427,9.427,0,0,1-5.5-5.591A13.993,13.993,0,0,1,45.3,8.335c.558-.01,1.116-.034,1.673-.025a.792.792,0,0,0,.831-.557,13.049,13.049,0,0,1,1.443-2.732,4.93,4.93,0,0,1,.567-.67c.423-.41.608-.364.827.2A6.383,6.383,0,0,1,51,6.433a15.022,15.022,0,0,1,.037,2.179,1.27,1.27,0,0,0,.207.789,23.471,23.471,0,0,1,2.595,5.417,5.094,5.094,0,0,1-.892,4.893,3.569,3.569,0,0,1-.324.319" transform="translate(-31.025 -2.796)" fill="#fead8a"/>
        <path id="Trazado_136904" data-name="Trazado 136904" d="M8.339,111.153c-.18.992.431,1.557,1.145,2.027a7.057,7.057,0,0,0,2.972,1.106q.172.795.344,1.59c.033.153.021.232-.18.191a6.921,6.921,0,0,1-3.1-1.252,3.672,3.672,0,0,1-1.178-3.664" transform="translate(-5.666 -76.149)" fill="#fedba6"/>
        <path id="Trazado_136905" data-name="Trazado 136905" d="M59.881,116.349a6.134,6.134,0,0,0,4.142-2.181,3.256,3.256,0,0,1-1.832,3.132,8.766,8.766,0,0,1-2.7.877l.392-1.827" transform="translate(-40.755 -78.215)" fill="#fedba6"/>
        <path id="Trazado_136906" data-name="Trazado 136906" d="M36.068,122.134c.777,0,1.554,0,2.332,0,.2,0,.37,0,.362-.265l.393,1.943c-1.089.07-2.163.05-3.237.022-.182-.005-.207-.081-.172-.234.111-.489.215-.979.322-1.468" transform="translate(-24.48 -83.493)" fill="#fedba6"/>
        <path id="Trazado_136907" data-name="Trazado 136907" d="M78.594,109.077a5.384,5.384,0,0,1,.119,1.722.785.785,0,0,0,.051.64,13.891,13.891,0,0,1-2.036,1.3,6.486,6.486,0,0,0,.412-2.38c0-.113.08-.167.158-.23.434-.35.865-.7,1.3-1.055" transform="translate(-52.565 -74.727)" fill="#fdce85"/>
        <path id="Trazado_136908" data-name="Trazado 136908" d="M36.951,37.657a4.04,4.04,0,0,1,1.2.149.937.937,0,0,1,.494,1.51,1.713,1.713,0,0,1-.85.653.315.315,0,0,0-.245.365c.012.363.013.727,0,1.09a.625.625,0,0,1-.636.681c-.378,0-.608-.249-.624-.683,0-.112-.006-.224,0-.335.031-.585.091-1.166-.687-1.367-.214-.055-.364-.294-.481-.507a.92.92,0,0,1,.506-1.393,3.986,3.986,0,0,1,1.323-.162" transform="translate(-23.959 -25.798)"/>
        <path id="Trazado_136909" data-name="Trazado 136909" d="M22.773,32.852c0,.924-.556,1.607-1.3,1.593s-1.263-.715-1.248-1.646a1.431,1.431,0,0,1,1.279-1.54,1.444,1.444,0,0,1,1.269,1.593" transform="translate(-13.855 -21.415)"/>
        <path id="Trazado_136910" data-name="Trazado 136910" d="M56.5,32.858a1.787,1.787,0,0,1-.523,1.29,1.111,1.111,0,0,1-1.522.018,1.854,1.854,0,0,1,.028-2.626,1.1,1.1,0,0,1,1.488.041,1.785,1.785,0,0,1,.528,1.277" transform="translate(-36.946 -21.423)"/>
      </g>
      <g id="Grupo_159191" data-name="Grupo 159191" transform="translate(28.199 3.204)" clip-path="url(#clip-path)">
        <path id="Trazado_137009" data-name="Trazado 137009" d="M33.4,17.954a.623.623,0,0,1,.519.538,27.3,27.3,0,0,1-.215,9.1,16.948,16.948,0,0,1-8.415,11.23,19.233,19.233,0,0,1-6.687,2.436.481.481,0,0,0-.421.335,2.492,2.492,0,0,1-1.222,1.412h-.588a1.527,1.527,0,0,1-1.155-.922.67.67,0,0,0-.75-.389,12.256,12.256,0,0,1-3,0,.7.7,0,0,0-.806.437,1.415,1.415,0,0,1-1.091.874H8.984A2.157,2.157,0,0,1,7.8,41.732a.738.738,0,0,0-.666-.5,9.834,9.834,0,0,1-3.4-1.114,4.563,4.563,0,0,1-2.386-4.185,24.015,24.015,0,0,1,.7-5.01c.424-2.063.956-4.1,1.486-6.138.15-.576.316-.7.914-.674a.623.623,0,0,1,.483.787c-.047.3-.15.6-.226.9a82.71,82.71,0,0,0-1.853,8.446c-.037.25-.033.5-.08.751a3.577,3.577,0,0,0,1.943,4.087,11.122,11.122,0,0,0,2.34.764,16.639,16.639,0,0,1-.375-1.755c-.276-1.417-.43-2.85-.591-4.282-.177-1.57-.278-3.147-.4-4.722-.076-.989-.108-1.981-.161-2.972a.792.792,0,0,1,.67-.838.762.762,0,0,1,.808.642,3.787,3.787,0,0,1,.089.832A85.859,85.859,0,0,0,8.35,38.8a10.592,10.592,0,0,0,.63,2.174c.064.149.093.381.276.385.213,0,.245-.242.305-.4a14.338,14.338,0,0,0,.708-3.1c.228-1.593.356-3.195.448-4.8.1-1.676.178-3.351.159-5.03a1.356,1.356,0,0,1,.138-.692.714.714,0,0,1,1.323.012,1.015,1.015,0,0,1,.111.652,11.026,11.026,0,0,0-.062,1.634,71.588,71.588,0,0,1-.69,8.984c-.083.424-.143.852-.25,1.271-.055.214.026.3.245.324a11.8,11.8,0,0,0,2.541,0c.237-.023.277-.134.229-.334-.121-.5-.191-1.012-.279-1.52-.23-1.509-.36-3.027-.464-4.549-.132-1.925-.221-3.851-.239-5.781a2.23,2.23,0,0,1,.035-.544.755.755,0,0,1,.72-.6.736.736,0,0,1,.718.591.881.881,0,0,1,.031.249c-.033.938.063,1.872.093,2.809a55.475,55.475,0,0,0,.829,8.846,8.961,8.961,0,0,0,.427,1.536c.068.175.1.442.319.444.2,0,.228-.255.3-.417a14.481,14.481,0,0,0,.777-3.046c.4-2.2.622-4.432.8-6.665q.205-2.551.334-5.106a.787.787,0,0,1,.75-.847c.442,0,.747.342.75.878.008,1.189-.111,2.374-.188,3.559q-.141,2.176-.381,4.346c-.15,1.336-.317,2.668-.544,3.992-.152.578-.213,1.178-.4,1.776a8.983,8.983,0,0,0,2.487-.808,3.144,3.144,0,0,0,1.81-3.092,17.732,17.732,0,0,0-.564-4.357c-.877-4.163-2.014-8.26-3.207-12.341a.834.834,0,0,1,.649-1.211,3.52,3.52,0,0,0,1.48-.84,4.82,4.82,0,0,0,1.235-4.983,21.123,21.123,0,0,0-2.522-5.371A2.487,2.487,0,0,1,19.9,5.431a10.041,10.041,0,0,0-.368-3.519c-.193-.531-.355-.564-.756-.158a7.382,7.382,0,0,0-1.65,2.7,1.556,1.556,0,0,1-1.849,1.211,6.525,6.525,0,0,0-1.09,0q-1.17.015-2.338,0a12.6,12.6,0,0,0-1.467,0,1.352,1.352,0,0,1-1.495-1A10.7,10.7,0,0,0,7.436,2.075a3.526,3.526,0,0,0-.3-.353c-.393-.4-.55-.362-.767.164a2.805,2.805,0,0,0-.146.524,14.225,14.225,0,0,0-.231,3.3,1.976,1.976,0,0,1-.319,1.146,26.809,26.809,0,0,0-2.143,4.222,6.1,6.1,0,0,0-.394,3.974,4.894,4.894,0,0,0,1.2,2.088A4.264,4.264,0,0,0,6,18.078a.769.769,0,0,1,.559,1.05c-.312,1.075-.605,2.155-.934,3.225-.158.516-.514.719-.915.568-.47-.292-.54-.47-.388-1.007.225-.792.448-1.584.686-2.372.066-.22.051-.347-.187-.451A5.044,5.044,0,0,1,2.436,16.88c-.14-.245-.252-.314-.5-.146a3.82,3.82,0,0,1-.627.334.6.6,0,0,1-.818-.278.581.581,0,0,1,.212-.806,4.464,4.464,0,0,1,.731-.405c.271-.119.4-.26.274-.572a1.2,1.2,0,0,1-.1-.575c.071-.512-.235-.6-.628-.643a2.548,2.548,0,0,1-.535-.1.583.583,0,0,1-.438-.71.614.614,0,0,1,.666-.516c.014,0,.028,0,.042,0,.315.015.69.272.916.068.188-.171.155-.574.244-.867a23.86,23.86,0,0,1,2.557-5.44,1.18,1.18,0,0,0,.182-.667,13.824,13.824,0,0,1,.33-3.75A3.409,3.409,0,0,1,5.429.706,1.448,1.448,0,0,1,7.482.245,4.625,4.625,0,0,1,8.955,1.826a12.07,12.07,0,0,1,1.078,2.031.528.528,0,0,0,.582.389q2.351-.026,4.7,0a.482.482,0,0,0,.534-.334A12.935,12.935,0,0,1,17.3,1.325a4.1,4.1,0,0,1,.966-.983,1.493,1.493,0,0,1,2.313.527,5.128,5.128,0,0,1,.577,1.956,16.682,16.682,0,0,1,.131,2.848,1.013,1.013,0,0,0,.2.578,22.748,22.748,0,0,1,2.636,5.811c.142.551.141.551.723.462.663-.1.994.054,1.05.494s-.207.661-.849.761l-.042,0c-.655.1-.667.1-.727.771-.026.285-.256.606-.083.834.161.213.493.3.748.44a.991.991,0,0,1,.455.356.6.6,0,0,1-.05.706.571.571,0,0,1-.711.2,4.884,4.884,0,0,1-.7-.37c-.223-.144-.319-.086-.443.135a5.1,5.1,0,0,1-2.448,2.264c-.307.132-.175.3-.126.462.8,2.719,1.55,5.45,2.221,8.2.479,1.968.949,3.938,1.233,5.947.012.083.038.163.07.3a8.832,8.832,0,0,0,1.695-1.734.779.779,0,0,1,.976-.342.653.653,0,0,1,.218,1.04A9.9,9.9,0,0,1,26.1,34.408a9.271,9.271,0,0,1-1.086.92.73.73,0,0,0-.312.556,6.761,6.761,0,0,1-.36,1.892A13.453,13.453,0,0,0,26.2,36.606a15.563,15.563,0,0,0,6.448-10.954,23.848,23.848,0,0,0,.1-4.769c-.051-.7-.1-1.393-.169-2.088-.057-.588.25-.882.833-.84" transform="translate(0 0)"/>
        <path id="Trazado_137010" data-name="Trazado 137010" d="M8.423,46.977a32.239,32.239,0,0,1,.888-5.057c.368-1.614.791-3.217,1.205-4.82a.8.8,0,0,0-.319-1.014,11.871,11.871,0,0,0,.262-1.192.72.72,0,0,0,.821-.605c.3-1.073.62-2.143.923-3.216.149-.528-.026-.815-.567-.958a3.4,3.4,0,0,1-1.6-.921c0-.205.18-.187.3-.227a9.8,9.8,0,0,0,3.239-1.8,9.049,9.049,0,0,0,2.049-2.524,13.538,13.538,0,0,0,1.694-6.375,1.31,1.31,0,0,1,.185-.761,24.343,24.343,0,0,1,2.523.007c.146.148.113.338.114.516a13.544,13.544,0,0,0,1.644,6.523,8.927,8.927,0,0,0,4.51,4.089c.259.107.521.206.779.313.118.049.29.055.281.253a3.178,3.178,0,0,1-1.569.908c-.572.157-.723.413-.556.989,1.086,3.752,2.146,7.512,2.993,11.327a31.785,31.785,0,0,1,.818,4.913,1.547,1.547,0,0,1-.015.583,3.4,3.4,0,0,1-1.7,1.537,7.863,7.863,0,0,1-1.972.688c-.16.034-.327.1-.472-.044.25-1.714.491-3.43.65-5.156.211-2.284.378-4.572.464-6.864a.634.634,0,0,0-.613-.742c-.374-.007-.628.273-.649.722-.143,3.158-.361,6.311-.765,9.447a27.309,27.309,0,0,1-1,5.047,5.96,5.96,0,0,1-.246.622c-.079.174-.14.448-.324.448-.221,0-.27-.289-.351-.473a9.225,9.225,0,0,1-.588-2.134,74.086,74.086,0,0,1-.839-11.116c-.015-.644-.206-.948-.627-.953s-.649.315-.637.981a84.354,84.354,0,0,0,.658,10.084c.015.11.014.223.02.334.083.2,0,.349-.2.361a11.45,11.45,0,0,1-2.4-.026c-.043-.006-.067-.047-.1-.073.122-1.111.256-2.221.363-3.334.242-2.523.313-5.055.355-7.588a.654.654,0,0,0-.63-.739c-.366,0-.626.282-.635.736-.035,1.9-.077,3.806-.213,5.705a34.823,34.823,0,0,1-1,7.172,4.443,4.443,0,0,1-.363.889c-.14.259-.258.241-.393,0a8.17,8.17,0,0,1-.751-2.214,57.426,57.426,0,0,1-1.018-7.39q-.248-2.844-.372-5.7,0-.063-.009-.126c-.05-.452-.314-.714-.686-.681a.657.657,0,0,0-.577.784c.072,1.327.133,2.656.232,3.981.186,2.5.416,4.989.822,7.462.029.179.05.358.075.538a.355.355,0,0,1-.354.062,7,7,0,0,1-3.379-1.653,1.663,1.663,0,0,1-.383-1.542" transform="translate(-5.751 -11.973)" fill="#fee8c7"/>
        <path id="Trazado_137011" data-name="Trazado 137011" d="M82.583,61.534c.38-.438.771-.868,1.137-1.317.345-.423.321-.671-.054-1.087.174-.408.55-.711.609-1.179.661.1.929-.3,1.153-.833a16.262,16.262,0,0,0,1.4-7.269,13.268,13.268,0,0,0-1.01-4.014c-.365-.954-.788-1.884-1.163-2.834A9.325,9.325,0,0,1,84.3,41.84a1.831,1.831,0,0,1,.987-1.992,1.727,1.727,0,0,1,2,.412,4.426,4.426,0,0,1,.9,1.259,6.637,6.637,0,0,1,.521,1.326,1.372,1.372,0,0,0,.765,1.07c.057.339.123.677.169,1.018.028.209.242.092.315.206-.608.065-.782.3-.714.921a27.2,27.2,0,0,1-.025,7.435,15.527,15.527,0,0,1-6.358,10.344.814.814,0,0,1-.109.057.177.177,0,0,1-.18-.225c.111-.713-.1-1.426.01-2.138" transform="translate(-56.553 -27.184)" fill="#fedba6"/>
        <path id="Trazado_137012" data-name="Trazado 137012" d="M90.713,41.388a.723.723,0,0,1-.756-.637,7.817,7.817,0,0,0-.93-2.23,2.975,2.975,0,0,0-1.021-1.033,1.42,1.42,0,0,0-1.652.063,1.585,1.585,0,0,0-.725,1.587,9.455,9.455,0,0,0,.761,2.252,23.659,23.659,0,0,1,1.634,4.734,13.623,13.623,0,0,1-.451,6.253,16.5,16.5,0,0,1-.994,2.66c-.254.54-.538.641-1.066.385a.782.782,0,0,1-.068-.966,14.737,14.737,0,0,0,1.482-6.852,14.111,14.111,0,0,0-1.305-4.78,20.637,20.637,0,0,1-1.17-3.086,2.917,2.917,0,0,1,5.178-2.512,8.061,8.061,0,0,1,1.585,3.336c.109.419-.038.621-.5.825" transform="translate(-57.792 -24.657)"/>
        <path id="Trazado_137013" data-name="Trazado 137013" d="M17.9,8.329a17.073,17.073,0,0,1-1.069,5.717A9.466,9.466,0,0,1,10.5,19.964c-.024.007-.042.035-.063.054a4.849,4.849,0,0,1-1.293-4.751,20.271,20.271,0,0,1,2.664-5.8,1.5,1.5,0,0,0,.235-.865,14.092,14.092,0,0,1,.243-3.508,2.939,2.939,0,0,1,.3-.823c.127-.224.28-.243.479-.1a3.455,3.455,0,0,1,.794.858,13.629,13.629,0,0,1,1.423,2.7.812.812,0,0,0,.858.58c.587-.01,1.174.01,1.76.018" transform="translate(-6.155 -2.796)" fill="#fead8a"/>
        <path id="Trazado_137014" data-name="Trazado 137014" d="M52.622,20.029a2.815,2.815,0,0,0-.8-.338,9.427,9.427,0,0,1-5.5-5.591A13.993,13.993,0,0,1,45.3,8.335c.558-.01,1.116-.034,1.673-.025a.792.792,0,0,0,.831-.557,13.049,13.049,0,0,1,1.443-2.732,4.93,4.93,0,0,1,.567-.67c.423-.41.608-.364.827.2A6.383,6.383,0,0,1,51,6.433a15.022,15.022,0,0,1,.037,2.179,1.27,1.27,0,0,0,.207.789,23.471,23.471,0,0,1,2.595,5.417,5.094,5.094,0,0,1-.892,4.893,3.569,3.569,0,0,1-.324.319" transform="translate(-31.025 -2.796)" fill="#fead8a"/>
        <path id="Trazado_137015" data-name="Trazado 137015" d="M8.339,111.153c-.18.992.431,1.557,1.145,2.027a7.057,7.057,0,0,0,2.972,1.106q.172.795.344,1.59c.033.153.021.232-.18.191a6.921,6.921,0,0,1-3.1-1.252,3.672,3.672,0,0,1-1.178-3.664" transform="translate(-5.666 -76.149)" fill="#fedba6"/>
        <path id="Trazado_137016" data-name="Trazado 137016" d="M59.881,116.349a6.134,6.134,0,0,0,4.142-2.181,3.256,3.256,0,0,1-1.832,3.132,8.766,8.766,0,0,1-2.7.877l.392-1.827" transform="translate(-40.755 -78.215)" fill="#fedba6"/>
        <path id="Trazado_137017" data-name="Trazado 137017" d="M36.068,122.134c.777,0,1.554,0,2.332,0,.2,0,.37,0,.362-.265l.393,1.943c-1.089.07-2.163.05-3.237.022-.182-.005-.207-.081-.172-.234.111-.489.215-.979.322-1.468" transform="translate(-24.48 -83.493)" fill="#fedba6"/>
        <path id="Trazado_137018" data-name="Trazado 137018" d="M78.594,109.077a5.384,5.384,0,0,1,.119,1.722.785.785,0,0,0,.051.64,13.891,13.891,0,0,1-2.036,1.3,6.486,6.486,0,0,0,.412-2.38c0-.113.08-.167.158-.23.434-.35.865-.7,1.3-1.055" transform="translate(-52.565 -74.727)" fill="#fdce85"/>
        <path id="Trazado_137019" data-name="Trazado 137019" d="M36.951,37.657a4.04,4.04,0,0,1,1.2.149.937.937,0,0,1,.494,1.51,1.713,1.713,0,0,1-.85.653.315.315,0,0,0-.245.365c.012.363.013.727,0,1.09a.625.625,0,0,1-.636.681c-.378,0-.608-.249-.624-.683,0-.112-.006-.224,0-.335.031-.585.091-1.166-.687-1.367-.214-.055-.364-.294-.481-.507a.92.92,0,0,1,.506-1.393,3.986,3.986,0,0,1,1.323-.162" transform="translate(-23.959 -25.798)"/>
        <path id="Trazado_137020" data-name="Trazado 137020" d="M22.773,32.852c0,.924-.556,1.607-1.3,1.593s-1.263-.715-1.248-1.646a1.431,1.431,0,0,1,1.279-1.54,1.444,1.444,0,0,1,1.269,1.593" transform="translate(-13.855 -21.415)"/>
        <path id="Trazado_137021" data-name="Trazado 137021" d="M56.5,32.858a1.787,1.787,0,0,1-.523,1.29,1.111,1.111,0,0,1-1.522.018,1.854,1.854,0,0,1,.028-2.626,1.1,1.1,0,0,1,1.488.041,1.785,1.785,0,0,1,.528,1.277" transform="translate(-36.946 -21.423)"/>
      </g>
      <g id="Grupo_159190" data-name="Grupo 159190" transform="translate(16 29.204)" clip-path="url(#clip-path)">
        <path id="Trazado_136996" data-name="Trazado 136996" d="M33.4,17.954a.623.623,0,0,1,.519.538,27.3,27.3,0,0,1-.215,9.1,16.948,16.948,0,0,1-8.415,11.23,19.233,19.233,0,0,1-6.687,2.436.481.481,0,0,0-.421.335,2.492,2.492,0,0,1-1.222,1.412h-.588a1.527,1.527,0,0,1-1.155-.922.67.67,0,0,0-.75-.389,12.256,12.256,0,0,1-3,0,.7.7,0,0,0-.806.437,1.415,1.415,0,0,1-1.091.874H8.984A2.157,2.157,0,0,1,7.8,41.732a.738.738,0,0,0-.666-.5,9.834,9.834,0,0,1-3.4-1.114,4.563,4.563,0,0,1-2.386-4.185,24.015,24.015,0,0,1,.7-5.01c.424-2.063.956-4.1,1.486-6.138.15-.576.316-.7.914-.674a.623.623,0,0,1,.483.787c-.047.3-.15.6-.226.9a82.71,82.71,0,0,0-1.853,8.446c-.037.25-.033.5-.08.751a3.577,3.577,0,0,0,1.943,4.087,11.122,11.122,0,0,0,2.34.764,16.639,16.639,0,0,1-.375-1.755c-.276-1.417-.43-2.85-.591-4.282-.177-1.57-.278-3.147-.4-4.722-.076-.989-.108-1.981-.161-2.972a.792.792,0,0,1,.67-.838.762.762,0,0,1,.808.642,3.787,3.787,0,0,1,.089.832A85.859,85.859,0,0,0,8.35,38.8a10.592,10.592,0,0,0,.63,2.174c.064.149.093.381.276.385.213,0,.245-.242.305-.4a14.338,14.338,0,0,0,.708-3.1c.228-1.593.356-3.195.448-4.8.1-1.676.178-3.351.159-5.03a1.356,1.356,0,0,1,.138-.692.714.714,0,0,1,1.323.012,1.015,1.015,0,0,1,.111.652,11.026,11.026,0,0,0-.062,1.634,71.588,71.588,0,0,1-.69,8.984c-.083.424-.143.852-.25,1.271-.055.214.026.3.245.324a11.8,11.8,0,0,0,2.541,0c.237-.023.277-.134.229-.334-.121-.5-.191-1.012-.279-1.52-.23-1.509-.36-3.027-.464-4.549-.132-1.925-.221-3.851-.239-5.781a2.23,2.23,0,0,1,.035-.544.755.755,0,0,1,.72-.6.736.736,0,0,1,.718.591.881.881,0,0,1,.031.249c-.033.938.063,1.872.093,2.809a55.475,55.475,0,0,0,.829,8.846,8.961,8.961,0,0,0,.427,1.536c.068.175.1.442.319.444.2,0,.228-.255.3-.417a14.481,14.481,0,0,0,.777-3.046c.4-2.2.622-4.432.8-6.665q.205-2.551.334-5.106a.787.787,0,0,1,.75-.847c.442,0,.747.342.75.878.008,1.189-.111,2.374-.188,3.559q-.141,2.176-.381,4.346c-.15,1.336-.317,2.668-.544,3.992-.152.578-.213,1.178-.4,1.776a8.983,8.983,0,0,0,2.487-.808,3.144,3.144,0,0,0,1.81-3.092,17.732,17.732,0,0,0-.564-4.357c-.877-4.163-2.014-8.26-3.207-12.341a.834.834,0,0,1,.649-1.211,3.52,3.52,0,0,0,1.48-.84,4.82,4.82,0,0,0,1.235-4.983,21.123,21.123,0,0,0-2.522-5.371A2.487,2.487,0,0,1,19.9,5.431a10.041,10.041,0,0,0-.368-3.519c-.193-.531-.355-.564-.756-.158a7.382,7.382,0,0,0-1.65,2.7,1.556,1.556,0,0,1-1.849,1.211,6.525,6.525,0,0,0-1.09,0q-1.17.015-2.338,0a12.6,12.6,0,0,0-1.467,0,1.352,1.352,0,0,1-1.495-1A10.7,10.7,0,0,0,7.436,2.075a3.526,3.526,0,0,0-.3-.353c-.393-.4-.55-.362-.767.164a2.805,2.805,0,0,0-.146.524,14.225,14.225,0,0,0-.231,3.3,1.976,1.976,0,0,1-.319,1.146,26.809,26.809,0,0,0-2.143,4.222,6.1,6.1,0,0,0-.394,3.974,4.894,4.894,0,0,0,1.2,2.088A4.264,4.264,0,0,0,6,18.078a.769.769,0,0,1,.559,1.05c-.312,1.075-.605,2.155-.934,3.225-.158.516-.514.719-.915.568-.47-.292-.54-.47-.388-1.007.225-.792.448-1.584.686-2.372.066-.22.051-.347-.187-.451A5.044,5.044,0,0,1,2.436,16.88c-.14-.245-.252-.314-.5-.146a3.82,3.82,0,0,1-.627.334.6.6,0,0,1-.818-.278.581.581,0,0,1,.212-.806,4.464,4.464,0,0,1,.731-.405c.271-.119.4-.26.274-.572a1.2,1.2,0,0,1-.1-.575c.071-.512-.235-.6-.628-.643a2.548,2.548,0,0,1-.535-.1.583.583,0,0,1-.438-.71.614.614,0,0,1,.666-.516c.014,0,.028,0,.042,0,.315.015.69.272.916.068.188-.171.155-.574.244-.867a23.86,23.86,0,0,1,2.557-5.44,1.18,1.18,0,0,0,.182-.667,13.824,13.824,0,0,1,.33-3.75A3.409,3.409,0,0,1,5.429.706,1.448,1.448,0,0,1,7.482.245,4.625,4.625,0,0,1,8.955,1.826a12.07,12.07,0,0,1,1.078,2.031.528.528,0,0,0,.582.389q2.351-.026,4.7,0a.482.482,0,0,0,.534-.334A12.935,12.935,0,0,1,17.3,1.325a4.1,4.1,0,0,1,.966-.983,1.493,1.493,0,0,1,2.313.527,5.128,5.128,0,0,1,.577,1.956,16.682,16.682,0,0,1,.131,2.848,1.013,1.013,0,0,0,.2.578,22.748,22.748,0,0,1,2.636,5.811c.142.551.141.551.723.462.663-.1.994.054,1.05.494s-.207.661-.849.761l-.042,0c-.655.1-.667.1-.727.771-.026.285-.256.606-.083.834.161.213.493.3.748.44a.991.991,0,0,1,.455.356.6.6,0,0,1-.05.706.571.571,0,0,1-.711.2,4.884,4.884,0,0,1-.7-.37c-.223-.144-.319-.086-.443.135a5.1,5.1,0,0,1-2.448,2.264c-.307.132-.175.3-.126.462.8,2.719,1.55,5.45,2.221,8.2.479,1.968.949,3.938,1.233,5.947.012.083.038.163.07.3a8.832,8.832,0,0,0,1.695-1.734.779.779,0,0,1,.976-.342.653.653,0,0,1,.218,1.04A9.9,9.9,0,0,1,26.1,34.408a9.271,9.271,0,0,1-1.086.92.73.73,0,0,0-.312.556,6.761,6.761,0,0,1-.36,1.892A13.453,13.453,0,0,0,26.2,36.606a15.563,15.563,0,0,0,6.448-10.954,23.848,23.848,0,0,0,.1-4.769c-.051-.7-.1-1.393-.169-2.088-.057-.588.25-.882.833-.84" transform="translate(0 0)"/>
        <path id="Trazado_136997" data-name="Trazado 136997" d="M8.423,46.977a32.239,32.239,0,0,1,.888-5.057c.368-1.614.791-3.217,1.205-4.82a.8.8,0,0,0-.319-1.014,11.871,11.871,0,0,0,.262-1.192.72.72,0,0,0,.821-.605c.3-1.073.62-2.143.923-3.216.149-.528-.026-.815-.567-.958a3.4,3.4,0,0,1-1.6-.921c0-.205.18-.187.3-.227a9.8,9.8,0,0,0,3.239-1.8,9.049,9.049,0,0,0,2.049-2.524,13.538,13.538,0,0,0,1.694-6.375,1.31,1.31,0,0,1,.185-.761,24.343,24.343,0,0,1,2.523.007c.146.148.113.338.114.516a13.544,13.544,0,0,0,1.644,6.523,8.927,8.927,0,0,0,4.51,4.089c.259.107.521.206.779.313.118.049.29.055.281.253a3.178,3.178,0,0,1-1.569.908c-.572.157-.723.413-.556.989,1.086,3.752,2.146,7.512,2.993,11.327a31.785,31.785,0,0,1,.818,4.913,1.547,1.547,0,0,1-.015.583,3.4,3.4,0,0,1-1.7,1.537,7.863,7.863,0,0,1-1.972.688c-.16.034-.327.1-.472-.044.25-1.714.491-3.43.65-5.156.211-2.284.378-4.572.464-6.864a.634.634,0,0,0-.613-.742c-.374-.007-.628.273-.649.722-.143,3.158-.361,6.311-.765,9.447a27.309,27.309,0,0,1-1,5.047,5.96,5.96,0,0,1-.246.622c-.079.174-.14.448-.324.448-.221,0-.27-.289-.351-.473a9.225,9.225,0,0,1-.588-2.134,74.086,74.086,0,0,1-.839-11.116c-.015-.644-.206-.948-.627-.953s-.649.315-.637.981a84.354,84.354,0,0,0,.658,10.084c.015.11.014.223.02.334.083.2,0,.349-.2.361a11.45,11.45,0,0,1-2.4-.026c-.043-.006-.067-.047-.1-.073.122-1.111.256-2.221.363-3.334.242-2.523.313-5.055.355-7.588a.654.654,0,0,0-.63-.739c-.366,0-.626.282-.635.736-.035,1.9-.077,3.806-.213,5.705a34.823,34.823,0,0,1-1,7.172,4.443,4.443,0,0,1-.363.889c-.14.259-.258.241-.393,0a8.17,8.17,0,0,1-.751-2.214,57.426,57.426,0,0,1-1.018-7.39q-.248-2.844-.372-5.7,0-.063-.009-.126c-.05-.452-.314-.714-.686-.681a.657.657,0,0,0-.577.784c.072,1.327.133,2.656.232,3.981.186,2.5.416,4.989.822,7.462.029.179.05.358.075.538a.355.355,0,0,1-.354.062,7,7,0,0,1-3.379-1.653,1.663,1.663,0,0,1-.383-1.542" transform="translate(-5.751 -11.973)" fill="#fee8c7"/>
        <path id="Trazado_136998" data-name="Trazado 136998" d="M82.583,61.534c.38-.438.771-.868,1.137-1.317.345-.423.321-.671-.054-1.087.174-.408.55-.711.609-1.179.661.1.929-.3,1.153-.833a16.262,16.262,0,0,0,1.4-7.269,13.268,13.268,0,0,0-1.01-4.014c-.365-.954-.788-1.884-1.163-2.834A9.325,9.325,0,0,1,84.3,41.84a1.831,1.831,0,0,1,.987-1.992,1.727,1.727,0,0,1,2,.412,4.426,4.426,0,0,1,.9,1.259,6.637,6.637,0,0,1,.521,1.326,1.372,1.372,0,0,0,.765,1.07c.057.339.123.677.169,1.018.028.209.242.092.315.206-.608.065-.782.3-.714.921a27.2,27.2,0,0,1-.025,7.435,15.527,15.527,0,0,1-6.358,10.344.814.814,0,0,1-.109.057.177.177,0,0,1-.18-.225c.111-.713-.1-1.426.01-2.138" transform="translate(-56.553 -27.184)" fill="#fedba6"/>
        <path id="Trazado_136999" data-name="Trazado 136999" d="M90.713,41.388a.723.723,0,0,1-.756-.637,7.817,7.817,0,0,0-.93-2.23,2.975,2.975,0,0,0-1.021-1.033,1.42,1.42,0,0,0-1.652.063,1.585,1.585,0,0,0-.725,1.587,9.455,9.455,0,0,0,.761,2.252,23.659,23.659,0,0,1,1.634,4.734,13.623,13.623,0,0,1-.451,6.253,16.5,16.5,0,0,1-.994,2.66c-.254.54-.538.641-1.066.385a.782.782,0,0,1-.068-.966,14.737,14.737,0,0,0,1.482-6.852,14.111,14.111,0,0,0-1.305-4.78,20.637,20.637,0,0,1-1.17-3.086,2.917,2.917,0,0,1,5.178-2.512,8.061,8.061,0,0,1,1.585,3.336c.109.419-.038.621-.5.825" transform="translate(-57.792 -24.657)"/>
        <path id="Trazado_137000" data-name="Trazado 137000" d="M17.9,8.329a17.073,17.073,0,0,1-1.069,5.717A9.466,9.466,0,0,1,10.5,19.964c-.024.007-.042.035-.063.054a4.849,4.849,0,0,1-1.293-4.751,20.271,20.271,0,0,1,2.664-5.8,1.5,1.5,0,0,0,.235-.865,14.092,14.092,0,0,1,.243-3.508,2.939,2.939,0,0,1,.3-.823c.127-.224.28-.243.479-.1a3.455,3.455,0,0,1,.794.858,13.629,13.629,0,0,1,1.423,2.7.812.812,0,0,0,.858.58c.587-.01,1.174.01,1.76.018" transform="translate(-6.155 -2.796)" fill="#fead8a"/>
        <path id="Trazado_137001" data-name="Trazado 137001" d="M52.622,20.029a2.815,2.815,0,0,0-.8-.338,9.427,9.427,0,0,1-5.5-5.591A13.993,13.993,0,0,1,45.3,8.335c.558-.01,1.116-.034,1.673-.025a.792.792,0,0,0,.831-.557,13.049,13.049,0,0,1,1.443-2.732,4.93,4.93,0,0,1,.567-.67c.423-.41.608-.364.827.2A6.383,6.383,0,0,1,51,6.433a15.022,15.022,0,0,1,.037,2.179,1.27,1.27,0,0,0,.207.789,23.471,23.471,0,0,1,2.595,5.417,5.094,5.094,0,0,1-.892,4.893,3.569,3.569,0,0,1-.324.319" transform="translate(-31.025 -2.796)" fill="#fead8a"/>
        <path id="Trazado_137002" data-name="Trazado 137002" d="M8.339,111.153c-.18.992.431,1.557,1.145,2.027a7.057,7.057,0,0,0,2.972,1.106q.172.795.344,1.59c.033.153.021.232-.18.191a6.921,6.921,0,0,1-3.1-1.252,3.672,3.672,0,0,1-1.178-3.664" transform="translate(-5.666 -76.149)" fill="#fedba6"/>
        <path id="Trazado_137003" data-name="Trazado 137003" d="M59.881,116.349a6.134,6.134,0,0,0,4.142-2.181,3.256,3.256,0,0,1-1.832,3.132,8.766,8.766,0,0,1-2.7.877l.392-1.827" transform="translate(-40.755 -78.215)" fill="#fedba6"/>
        <path id="Trazado_137004" data-name="Trazado 137004" d="M36.068,122.134c.777,0,1.554,0,2.332,0,.2,0,.37,0,.362-.265l.393,1.943c-1.089.07-2.163.05-3.237.022-.182-.005-.207-.081-.172-.234.111-.489.215-.979.322-1.468" transform="translate(-24.48 -83.493)" fill="#fedba6"/>
        <path id="Trazado_137005" data-name="Trazado 137005" d="M78.594,109.077a5.384,5.384,0,0,1,.119,1.722.785.785,0,0,0,.051.64,13.891,13.891,0,0,1-2.036,1.3,6.486,6.486,0,0,0,.412-2.38c0-.113.08-.167.158-.23.434-.35.865-.7,1.3-1.055" transform="translate(-52.565 -74.727)" fill="#fdce85"/>
        <path id="Trazado_137006" data-name="Trazado 137006" d="M36.951,37.657a4.04,4.04,0,0,1,1.2.149.937.937,0,0,1,.494,1.51,1.713,1.713,0,0,1-.85.653.315.315,0,0,0-.245.365c.012.363.013.727,0,1.09a.625.625,0,0,1-.636.681c-.378,0-.608-.249-.624-.683,0-.112-.006-.224,0-.335.031-.585.091-1.166-.687-1.367-.214-.055-.364-.294-.481-.507a.92.92,0,0,1,.506-1.393,3.986,3.986,0,0,1,1.323-.162" transform="translate(-23.959 -25.798)"/>
        <path id="Trazado_137007" data-name="Trazado 137007" d="M22.773,32.852c0,.924-.556,1.607-1.3,1.593s-1.263-.715-1.248-1.646a1.431,1.431,0,0,1,1.279-1.54,1.444,1.444,0,0,1,1.269,1.593" transform="translate(-13.855 -21.415)"/>
        <path id="Trazado_137008" data-name="Trazado 137008" d="M56.5,32.858a1.787,1.787,0,0,1-.523,1.29,1.111,1.111,0,0,1-1.522.018,1.854,1.854,0,0,1,.028-2.626,1.1,1.1,0,0,1,1.488.041,1.785,1.785,0,0,1,.528,1.277" transform="translate(-36.946 -21.423)"/>
      </g>
    </g>
  </g>
</svg>
