<svg xmlns="http://www.w3.org/2000/svg" xmlns:xlink="http://www.w3.org/1999/xlink" width="105" height="105" viewBox="0 0 105 105">
  <defs>
    <clipPath id="clip-path">
      <rect id="Rect치ngulo_37622" data-name="Rect치ngulo 37622" width="33.816" height="51.814" fill="none"/>
    </clipPath>
  </defs>
  <g id="Grupo_159177" data-name="Grupo 159177" transform="translate(-3921 10102)">
    <rect id="Rect치ngulo_37515" data-name="Rect치ngulo 37515" width="105" height="105" rx="52.5" transform="translate(3921 -10102)" fill="#6b8dfc"/>
    <g id="Grupo_159176" data-name="Grupo 159176" transform="translate(3952 -10082)">
      <g id="Grupo_159175" data-name="Grupo 159175" transform="translate(-8 -4.104)" clip-path="url(#clip-path)">
        <path id="Trazado_136911" data-name="Trazado 136911" d="M33.745,24.14a3.629,3.629,0,0,0-1.31-2.534.759.759,0,0,1-.284-.5c-.426-2.658-.867-5.314-1.3-7.972-.118-.727-.273-.91-.906-1a.8.8,0,0,0-.626,1.028c.3,1.8.586,3.6.875,5.4.029.181.042.365.062.547a1.157,1.157,0,0,1,.109.537c.167,1.07.167,1.067-.886.874a69.529,69.529,0,0,0-16.441-.966c-.739.041-1.476.12-2.214.173s-.941.283-.928,1.014c.251.583.75.535,1.247.489a66.337,66.337,0,0,1,7.772-.262A67.444,67.444,0,0,1,30.2,22.193a2.317,2.317,0,0,1,2.058,2.516,12.18,12.18,0,0,1-.108,2.817,2.2,2.2,0,0,1-2.005,1.651,5.933,5.933,0,0,1-.655.034q-12.583,0-25.166,0a3.912,3.912,0,0,1-1.151-.118,2.314,2.314,0,0,1-1.634-2.2c-.018-.791-.021-1.584,0-2.375a2.3,2.3,0,0,1,1.945-2.252c.794-.14,1.591-.261,2.387-.39.461-.072.922-.151,1.384-.216.644-.089.8-.242.922-.909-.29-.587-.486-.7-1.165-.593-1.13.173-2.261.346-3.385.555-.413.077-.468-.012-.4-.411.721-4.33,1.373-8.673,2.148-12.993a7.194,7.194,0,0,1,6.874-5.78c.471-.012.942.005,1.414.009,2.68,0,5.362-.079,8.039.015A7.229,7.229,0,0,1,28.426,7.7q.158.946.308,1.894c.1.626.281.8.919.85a.826.826,0,0,0,.589-1.067c-.1-.581-.206-1.161-.29-1.744A8.849,8.849,0,0,0,21.192.009q-4.349-.018-8.7,0A8.888,8.888,0,0,0,3.746,7.6c-.707,4.54-1.472,9.071-2.2,13.608a.878.878,0,0,1-.3.551A3.625,3.625,0,0,0,.076,23.989a20.06,20.06,0,0,0-.054,2.777,3.792,3.792,0,0,0,3.91,3.93c.447,0,.48.153.422.519-.326,2.079-.636,4.16-.952,6.241Q2.459,43.673,1.519,49.89a1.473,1.473,0,0,0,1.013,1.924H3.949A1.3,1.3,0,0,0,5.1,50.774c.054-.16.109-.319.157-.481Q7.441,43,9.636,35.717c.054-.178.086-.386.243-.49a3.884,3.884,0,0,1,2.255-.994c3.016.041,6.034.047,9.05,0a3.848,3.848,0,0,1,2.4.725,1.385,1.385,0,0,1,.587.784c.184.648.357,1.3.6,1.931a.908.908,0,0,0,1,.668c.018-.008.032-.017.049-.025-.014-.026-.023-.054-.038-.08.6-.322.7-.564.5-1.229q-.742-2.512-1.487-5.022c-.1-.316-.2-.637-.317-.947s.016-.334.272-.331c.92.01,1.84.014,2.76,0,.262,0,.359.1.384.337.034.315.075.629.113.943.339,2.177.683,4.354,1.016,6.532q.855,5.587,1.686,11.178c.031.207.337.647-.279.606-.274-.018-.234-.252-.28-.406q-1.276-4.22-2.539-8.444c-.1-.322-.192-.644-.295-.964-.179-.558-.42-.708-1.014-.644-.009-.036-.018-.072-.027-.107h0c-.58.313-.715.655-.508,1.34q.56,1.859,1.116,3.719c.572,1.917,1.163,3.828,1.736,5.745.177.591.4,1.157,1.123,1.278h1.518a1.482,1.482,0,0,0,1.013-1.924c-.169-1.216-.356-2.431-.541-3.645q-1.14-7.487-2.291-14.971c-.066-.423-.008-.553.472-.571a3.747,3.747,0,0,0,3.824-3.432,16.689,16.689,0,0,0,0-3.13M9.313,31.034c-.119.31-.212.631-.317.947q-1.1,3.718-2.21,7.435Q5.22,44.655,3.645,49.891a.375.375,0,0,0-.01.049c-.044.272-.18.429-.475.352s-.123-.312-.1-.449c.238-1.648.5-3.294.747-4.94q.883-5.813,1.764-11.627c.066-.432.144-.862.216-1.293.081-1.274.081-1.274,1.3-1.274.653,0,1.3.008,1.957,0,.255,0,.387.034.273.33M22,32.559q-5.076.011-10.153,0a1.972,1.972,0,0,0-1.542.449c.239-.8.441-1.429.614-2.068.061-.225.2-.234.375-.234q5.607,0,11.213,0c.258,0,.343.106.4.333.163.6.353,1.187.571,1.912A2.272,2.272,0,0,0,22,32.559" transform="translate(0 0)"/>
        <path id="Trazado_136912" data-name="Trazado 136912" d="M42.8,12.7c-.131-.626-.221-1.261-.322-1.893a7.151,7.151,0,0,0-7.237-6.182q-3.688,0-7.376,0l-.231,0a8.793,8.793,0,0,0-2.875,2.561,9.21,9.21,0,0,0-1.472,3.974c-.231,1.571-.538,3.131-.758,4.7a17.361,17.361,0,0,0-.347,2.534,3.089,3.089,0,0,0,2.987,2.965q4.663-.28,9.328-.164a49.878,49.878,0,0,1,5.5.458c1.359.186,2.716.368,4.064.622a.361.361,0,0,0,.3-.034c-.007-.04-.012-.079-.021-.119q-.46-2.784-.921-5.568a1.933,1.933,0,0,1-.015-.9c.108-.344.244-.689.729-.558a13.543,13.543,0,0,1-.3-1.693c-.539.137-.91-.1-1.035-.7" transform="translate(-14.182 -2.956)" fill="#c49090"/>
        <path id="Trazado_136913" data-name="Trazado 136913" d="M52.585,12.277q-.151-.948-.308-1.894A7.23,7.23,0,0,0,45.55,4.235c-2.676-.094-5.359-.017-8.039-.015-.071.04-.14.083-.21.125l.231,0q3.688,0,7.376,0a7.151,7.151,0,0,1,7.237,6.182c.1.632.192,1.267.322,1.893.125.6.5.842,1.035.7-.638-.055-.819-.224-.918-.85" transform="translate(-23.852 -2.679)" fill="#c49090"/>
        <path id="Trazado_136914" data-name="Trazado 136914" d="M80.953,34.183a1.933,1.933,0,0,0,.015.9q.465,2.784.921,5.568c.009.039.014.079.021.119a.259.259,0,0,0,.083-.17c-.021-.182-.034-.366-.063-.547-.289-1.8-.575-3.6-.874-5.4a.8.8,0,0,1,.626-1.028c-.485-.131-.621.215-.729.559" transform="translate(-51.735 -21.483)" fill="#c49090"/>
        <path id="Trazado_136915" data-name="Trazado 136915" d="M18.741,57.33a2.24,2.24,0,0,1-.452.03l0,.011c-.071.6-.324.924-.859,1.01s-1.052.2-1.586.24l-.111.021a.207.207,0,0,0-.05.123A6.066,6.066,0,0,0,16.646,63,2.65,2.65,0,0,0,18.8,64.133q11.605.007,23.211,0c.006-.015.014-.028.02-.044a12.75,12.75,0,0,0,.072-3.176,2.036,2.036,0,0,0-1.747-1.9,49.075,49.075,0,0,0-5.592-.882,65.759,65.759,0,0,0-8.524-.411c-1.649.035-3.3.1-4.941.273-.893.092-1.2-.032-1.475-.621,0-.017,0-.031,0-.048a1.936,1.936,0,0,0-1.082.008" transform="translate(-10.016 -36.607)" fill="#c49090"/>
        <path id="Trazado_136916" data-name="Trazado 136916" d="M15.864,58.839l.111-.021c.535-.044,1.059-.156,1.587-.24s.787-.408.859-1.01l-.005-.011-.1,0c-.119.668-.279.82-.923.909-.462.064-.922.143-1.384.216-.043.057-.1.1-.149.154" transform="translate(-10.144 -36.806)" fill="#c49090"/>
        <path id="Trazado_136917" data-name="Trazado 136917" d="M27.2,57.5c.275.588.582.712,1.475.621,1.643-.169,3.292-.238,4.941-.273a65.82,65.82,0,0,1,8.524.411,49.132,49.132,0,0,1,5.592.882,2.036,2.036,0,0,1,1.747,1.9,12.767,12.767,0,0,1-.073,3.176c-.006.015-.014.028-.02.044h.154a12.18,12.18,0,0,0,.108-2.817,2.317,2.317,0,0,0-2.058-2.516A67.407,67.407,0,0,0,36.31,57.715a66.336,66.336,0,0,0-7.772.262c-.5.046-1,.094-1.247-.489-.031-.013-.061-.023-.092-.034,0,.017,0,.031,0,.048" transform="translate(-17.393 -36.74)" fill="#c49090"/>
        <path id="Trazado_136918" data-name="Trazado 136918" d="M35.764,22.367c-.819-.1-1.629-.263-2.446-.38-1.983-.284-3.975-.465-5.975-.593-2.374-.151-4.747-.064-7.12-.068-.988,0-1.978.175-2.97.18a3.27,3.27,0,0,1-3.337-3.91c.379-2.362.751-4.725,1.151-7.083A8.2,8.2,0,0,1,18.4,5.108a3.854,3.854,0,0,1,.852-.5,8.617,8.617,0,0,0-2.435.212,6.876,6.876,0,0,0-5.342,5.646c-.78,4.17-1.394,8.372-2.066,12.561-.075.468-.035.513.43.435q1.52-.254,3.043-.482c.787-.118,1.142.071,1.374.686A1.525,1.525,0,0,1,15.8,23.63a.909.909,0,0,1,.931-1.084c1.12-.116,2.244-.178,3.37-.231,1.26-.06,2.52-.1,3.781-.086a68.837,68.837,0,0,1,11.636,1.095c.132.025.265.048.4.075.282.058.434-.029.37-.339-.048-.232-.06-.469-.092-.7-.1.088-.3.027-.433.01" transform="translate(-5.998 -2.944)" fill="#b87f7f"/>
        <path id="Trazado_136919" data-name="Trazado 136919" d="M12.559,22.747q-1.523.229-3.043.483c-.465.078-.505.033-.43-.435.672-4.19,1.286-8.391,2.066-12.561a6.875,6.875,0,0,1,5.342-5.646,8.621,8.621,0,0,1,2.436-.212,2.142,2.142,0,0,1,.4-.122c-.471,0-.942-.021-1.413-.009a7.194,7.194,0,0,0-6.874,5.78c-.776,4.32-1.427,8.662-2.148,12.993-.066.4-.011.488.4.411,1.124-.209,2.255-.381,3.385-.555.679-.1.875.006,1.165.593l.084-.032c-.232-.615-.587-.8-1.374-.686" transform="translate(-5.674 -2.711)" fill="#b87f7f"/>
        <path id="Trazado_136920" data-name="Trazado 136920" d="M47.588,53.317c.032.234.044.471.092.7.065.31-.087.4-.37.339-.132-.027-.264-.05-.4-.075a68.837,68.837,0,0,0-11.636-1.095c-1.261-.018-2.521.026-3.781.086-1.126.053-2.249.115-3.37.231A.909.909,0,0,0,27.2,54.59c.031.022.061.037.092.063-.013-.732.2-.963.928-1.014s1.475-.131,2.214-.172a69.488,69.488,0,0,1,16.44.966c1.054.193,1.054.2.887-.874a1.152,1.152,0,0,0-.109-.537c.023.163-.006.249-.06.3" transform="translate(-17.39 -33.904)" fill="#b87f7f"/>
        <path id="Trazado_136921" data-name="Trazado 136921" d="M26.359,5.113a8.2,8.2,0,0,0-3.335,5.406c-.4,2.358-.772,4.721-1.15,7.083a3.269,3.269,0,0,0,3.336,3.91c.992-.005,1.982-.181,2.97-.18,2.373,0,4.746-.084,7.12.068,2,.128,3.992.308,5.975.593.817.117,1.627.28,2.446.38.134.017.33.078.433-.01-.006-.042-.015-.084-.022-.126a.361.361,0,0,1-.3.034c-1.348-.253-2.706-.436-4.064-.622a49.966,49.966,0,0,0-5.5-.458q-4.663-.118-9.328.164a3.09,3.09,0,0,1-2.987-2.965,17.363,17.363,0,0,1,.347-2.534c.22-1.572.527-3.133.758-4.7A9.213,9.213,0,0,1,24.53,7.177,8.8,8.8,0,0,1,27.4,4.617l-.193,0a3.862,3.862,0,0,0-.852.5" transform="translate(-13.956 -2.95)" fill="#b87f7f"/>
        <path id="Trazado_136922" data-name="Trazado 136922" d="M83.695,53.19c.008.042.017.084.022.126.054-.047.084-.133.06-.3a.257.257,0,0,1-.083.17" transform="translate(-53.519 -33.904)" fill="#b87f7f"/>
        <path id="Trazado_136923" data-name="Trazado 136923" d="M36.958,4.4c.07-.041.139-.084.211-.125a2.182,2.182,0,0,0-.4.122l.193,0" transform="translate(-23.509 -2.734)" fill="#b87f7f"/>
        <path id="Trazado_136924" data-name="Trazado 136924" d="M22.908,57.051c0,.011.009.019.013.03a2.215,2.215,0,0,0,.452-.029,1.936,1.936,0,0,1,1.082-.008c0-.01,0-.019,0-.029a1.524,1.524,0,0,0-1.547.036" transform="translate(-14.649 -36.329)" fill="#b87f7f"/>
        <path id="Trazado_136925" data-name="Trazado 136925" d="M22.758,57.474l-.084.032.1,0c0-.011-.009-.019-.013-.03" transform="translate(-14.499 -36.752)" fill="#b87f7f"/>
        <path id="Trazado_136926" data-name="Trazado 136926" d="M27.2,57.4c.031.011.061.02.092.034-.031-.026-.062-.041-.092-.063,0,.01,0,.019,0,.03" transform="translate(-17.392 -36.687)" fill="#b87f7f"/>
        <path id="Trazado_136927" data-name="Trazado 136927" d="M11.861,66.8a2.9,2.9,0,0,1-2.516-1.36,4.947,4.947,0,0,1-.9-2.85c0-.354-.007-.708.007-1.062a.749.749,0,0,1,.082-.358c-.667.126-1.341.216-2.006.352a2.223,2.223,0,0,0-1.905,2.167,20.452,20.452,0,0,0,0,2.274,2.207,2.207,0,0,0,2.005,2.173,7.26,7.26,0,0,0,1.108.076H31.952c.337,0,.672-.028,1.008-.061a2.221,2.221,0,0,0,1.924-1.4,1.464,1.464,0,0,1-.471.054q-11.276,0-22.551,0" transform="translate(-2.937 -39.118)" fill="#b87f7f"/>
        <path id="Trazado_136928" data-name="Trazado 136928" d="M32.722,67.84c-.336.033-.67.061-1.008.061H7.5a7.261,7.261,0,0,1-1.108-.076,2.206,2.206,0,0,1-2.005-2.173,20.279,20.279,0,0,1,0-2.274,2.222,2.222,0,0,1,1.905-2.166c.665-.136,1.339-.226,2.006-.352a.382.382,0,0,1,.27-.177c-.8.129-1.593.251-2.387.39a2.3,2.3,0,0,0-1.944,2.251c-.022.791-.019,1.584,0,2.375A2.314,2.314,0,0,0,5.87,67.9a3.911,3.911,0,0,0,1.151.118q12.583,0,25.166,0a6.03,6.03,0,0,0,.655-.034,2.2,2.2,0,0,0,2.005-1.651.623.623,0,0,1-.2.107,2.221,2.221,0,0,1-1.924,1.4" transform="translate(-2.7 -38.805)" fill="#b87f7f"/>
        <path id="Trazado_136929" data-name="Trazado 136929" d="M16.4,65.469a6.068,6.068,0,0,1-.959-4.234.207.207,0,0,1,.05-.123l-.121.023a.749.749,0,0,0-.083.358c-.014.354,0,.708-.007,1.062a4.945,4.945,0,0,0,.9,2.85,2.9,2.9,0,0,0,2.515,1.36q11.276.006,22.551,0a1.462,1.462,0,0,0,.471-.054c.016-.036.034-.07.049-.107q-11.605,0-23.211,0A2.652,2.652,0,0,1,16.4,65.469" transform="translate(-9.77 -39.078)" fill="#b87f7f"/>
        <path id="Trazado_136930" data-name="Trazado 136930" d="M88.6,76.454a.631.631,0,0,0,.2-.107h-.154c-.015.037-.032.071-.049.107" transform="translate(-56.658 -48.82)" fill="#b87f7f"/>
        <path id="Trazado_136931" data-name="Trazado 136931" d="M15.528,60.861l.121-.023c.044-.056.106-.1.149-.154a.384.384,0,0,0-.27.177" transform="translate(-9.929 -38.805)" fill="#b87f7f"/>
        <path id="Trazado_136932" data-name="Trazado 136932" d="M71.68,97.234c.437,1.436.865,2.874,1.3,4.311.475,1.582.944,3.167,1.428,4.747a.772.772,0,0,0,.264.5c.183-.149.105-.336.08-.5q-1.156-7.626-2.317-15.252c-.117-.767-.228-1.534-.346-2.3,0-.01,0-.017,0-.027H69.116c.476,1.674,1.008,3.332,1.5,5a.932.932,0,0,1-.591,1.328,6.071,6.071,0,0,1,.456,1.419.95.95,0,0,1,1.2.779" transform="translate(-44.196 -56.723)" fill="#fcddaf"/>
        <path id="Trazado_136933" data-name="Trazado 136933" d="M73.933,97.206c.1.32.2.642.295.964q1.267,4.223,2.539,8.444c.047.155.006.388.28.406.616.041.31-.4.279-.605q-.825-5.592-1.686-11.178c-.333-2.178-.677-4.355-1.017-6.532H74.5c0,.009,0,.017,0,.027.118.766.229,1.534.346,2.3q1.166,7.625,2.317,15.252c.026.168.1.356-.08.5a.773.773,0,0,1-.264-.5c-.485-1.58-.953-3.165-1.428-4.747-.432-1.437-.86-2.875-1.3-4.311a.951.951,0,0,0-1.2-.779c.009.036.017.072.027.108.594-.065.835.085,1.014.644" transform="translate(-46.611 -56.723)" fill="#fcddaf"/>
        <path id="Trazado_136934" data-name="Trazado 136934" d="M70.4,93.708c-.488-1.671-1.02-3.329-1.5-5h-.12q.744,2.511,1.487,5.022c.2.665.1.906-.5,1.229.015.026.024.053.038.079a.932.932,0,0,0,.591-1.328" transform="translate(-43.982 -56.723)" fill="#fcddaf"/>
        <path id="Trazado_136935" data-name="Trazado 136935" d="M10.863,90Q9.979,95.812,9.1,101.626c-.25,1.647-.509,3.292-.747,4.94-.02.138-.2.371.1.45s.431-.08.475-.352a.334.334,0,0,1,.01-.049q1.571-5.237,3.142-10.474,1.111-3.715,2.21-7.435H11.079c-.072.431-.151.862-.216,1.294" transform="translate(-5.296 -56.723)" fill="#fcddaf"/>
        <path id="Trazado_136936" data-name="Trazado 136936" d="M19.3,85.16c-.652.012-1.3,0-1.957,0-1.219,0-1.219,0-1.3,1.274a.3.3,0,0,1,.166-.106,15.467,15.467,0,0,1,2.883,0,.273.273,0,0,1,.164.107c.1-.316.2-.637.317-.947s-.018-.335-.273-.33" transform="translate(-10.257 -54.456)" fill="#fad499"/>
        <path id="Trazado_136937" data-name="Trazado 136937" d="M16.206,88.291a.3.3,0,0,0-.166.106h3.213a.272.272,0,0,0-.164-.107,15.436,15.436,0,0,0-2.883,0" transform="translate(-10.257 -56.414)" fill="#fad499"/>
        <path id="Trazado_136938" data-name="Trazado 136938" d="M71.631,86.565c-.184-1.335-.115-1.107-1.346-1.127-.47-.008-.94-.009-1.41,0s-.517.066-.4.546c.048.2.118.385.18.577l0,.009a8.5,8.5,0,0,1,2.972-.005" transform="translate(-43.751 -54.63)" fill="#fad499"/>
        <path id="Trazado_136939" data-name="Trazado 136939" d="M68.251,86.386c-.062-.192-.131-.381-.18-.577-.119-.48-.083-.535.4-.546s.94-.009,1.41,0c1.232.021,1.163-.208,1.346,1.127a.783.783,0,0,1,.132.047c-.038-.314-.079-.628-.113-.944-.025-.235-.123-.341-.385-.336-.92.016-1.84.012-2.76,0-.256,0-.387.034-.272.331s.212.631.317.947a.753.753,0,0,1,.109-.041l0-.009" transform="translate(-43.346 -54.453)" fill="#fad499"/>
        <path id="Trazado_136940" data-name="Trazado 136940" d="M69.082,88.354l.012.041h2.967l-.006-.047a8.511,8.511,0,0,0-2.972.005" transform="translate(-44.175 -56.413)" fill="#fad499"/>
        <path id="Trazado_136941" data-name="Trazado 136941" d="M77.332,88.623h.125a.786.786,0,0,0-.132-.047c0,.016,0,.03.006.047" transform="translate(-49.446 -56.64)" fill="#fad499"/>
        <path id="Trazado_136942" data-name="Trazado 136942" d="M68.89,88.591a.711.711,0,0,0-.109.041h.12l-.012-.041" transform="translate(-43.982 -56.65)" fill="#fad499"/>
      </g>
      <g id="Grupo_159197" data-name="Grupo 159197" transform="translate(14 19.896)" clip-path="url(#clip-path)">
        <path id="Trazado_137059" data-name="Trazado 137059" d="M33.745,24.14a3.629,3.629,0,0,0-1.31-2.534.759.759,0,0,1-.284-.5c-.426-2.658-.867-5.314-1.3-7.972-.118-.727-.273-.91-.906-1a.8.8,0,0,0-.626,1.028c.3,1.8.586,3.6.875,5.4.029.181.042.365.062.547a1.157,1.157,0,0,1,.109.537c.167,1.07.167,1.067-.886.874a69.529,69.529,0,0,0-16.441-.966c-.739.041-1.476.12-2.214.173s-.941.283-.928,1.014c.251.583.75.535,1.247.489a66.337,66.337,0,0,1,7.772-.262A67.444,67.444,0,0,1,30.2,22.193a2.317,2.317,0,0,1,2.058,2.516,12.18,12.18,0,0,1-.108,2.817,2.2,2.2,0,0,1-2.005,1.651,5.933,5.933,0,0,1-.655.034q-12.583,0-25.166,0a3.912,3.912,0,0,1-1.151-.118,2.314,2.314,0,0,1-1.634-2.2c-.018-.791-.021-1.584,0-2.375a2.3,2.3,0,0,1,1.945-2.252c.794-.14,1.591-.261,2.387-.39.461-.072.922-.151,1.384-.216.644-.089.8-.242.922-.909-.29-.587-.486-.7-1.165-.593-1.13.173-2.261.346-3.385.555-.413.077-.468-.012-.4-.411.721-4.33,1.373-8.673,2.148-12.993a7.194,7.194,0,0,1,6.874-5.78c.471-.012.942.005,1.414.009,2.68,0,5.362-.079,8.039.015A7.229,7.229,0,0,1,28.426,7.7q.158.946.308,1.894c.1.626.281.8.919.85a.826.826,0,0,0,.589-1.067c-.1-.581-.206-1.161-.29-1.744A8.849,8.849,0,0,0,21.192.009q-4.349-.018-8.7,0A8.888,8.888,0,0,0,3.746,7.6c-.707,4.54-1.472,9.071-2.2,13.608a.878.878,0,0,1-.3.551A3.625,3.625,0,0,0,.076,23.989a20.06,20.06,0,0,0-.054,2.777,3.792,3.792,0,0,0,3.91,3.93c.447,0,.48.153.422.519-.326,2.079-.636,4.16-.952,6.241Q2.459,43.673,1.519,49.89a1.473,1.473,0,0,0,1.013,1.924H3.949A1.3,1.3,0,0,0,5.1,50.774c.054-.16.109-.319.157-.481Q7.441,43,9.636,35.717c.054-.178.086-.386.243-.49a3.884,3.884,0,0,1,2.255-.994c3.016.041,6.034.047,9.05,0a3.848,3.848,0,0,1,2.4.725,1.385,1.385,0,0,1,.587.784c.184.648.357,1.3.6,1.931a.908.908,0,0,0,1,.668c.018-.008.032-.017.049-.025-.014-.026-.023-.054-.038-.08.6-.322.7-.564.5-1.229q-.742-2.512-1.487-5.022c-.1-.316-.2-.637-.317-.947s.016-.334.272-.331c.92.01,1.84.014,2.76,0,.262,0,.359.1.384.337.034.315.075.629.113.943.339,2.177.683,4.354,1.016,6.532q.855,5.587,1.686,11.178c.031.207.337.647-.279.606-.274-.018-.234-.252-.28-.406q-1.276-4.22-2.539-8.444c-.1-.322-.192-.644-.295-.964-.179-.558-.42-.708-1.014-.644-.009-.036-.018-.072-.027-.107h0c-.58.313-.715.655-.508,1.34q.56,1.859,1.116,3.719c.572,1.917,1.163,3.828,1.736,5.745.177.591.4,1.157,1.123,1.278h1.518a1.482,1.482,0,0,0,1.013-1.924c-.169-1.216-.356-2.431-.541-3.645q-1.14-7.487-2.291-14.971c-.066-.423-.008-.553.472-.571a3.747,3.747,0,0,0,3.824-3.432,16.689,16.689,0,0,0,0-3.13M9.313,31.034c-.119.31-.212.631-.317.947q-1.1,3.718-2.21,7.435Q5.22,44.655,3.645,49.891a.375.375,0,0,0-.01.049c-.044.272-.18.429-.475.352s-.123-.312-.1-.449c.238-1.648.5-3.294.747-4.94q.883-5.813,1.764-11.627c.066-.432.144-.862.216-1.293.081-1.274.081-1.274,1.3-1.274.653,0,1.3.008,1.957,0,.255,0,.387.034.273.33M22,32.559q-5.076.011-10.153,0a1.972,1.972,0,0,0-1.542.449c.239-.8.441-1.429.614-2.068.061-.225.2-.234.375-.234q5.607,0,11.213,0c.258,0,.343.106.4.333.163.6.353,1.187.571,1.912A2.272,2.272,0,0,0,22,32.559" transform="translate(0 0)"/>
        <path id="Trazado_137060" data-name="Trazado 137060" d="M42.8,12.7c-.131-.626-.221-1.261-.322-1.893a7.151,7.151,0,0,0-7.237-6.182q-3.688,0-7.376,0l-.231,0a8.793,8.793,0,0,0-2.875,2.561,9.21,9.21,0,0,0-1.472,3.974c-.231,1.571-.538,3.131-.758,4.7a17.361,17.361,0,0,0-.347,2.534,3.089,3.089,0,0,0,2.987,2.965q4.663-.28,9.328-.164a49.878,49.878,0,0,1,5.5.458c1.359.186,2.716.368,4.064.622a.361.361,0,0,0,.3-.034c-.007-.04-.012-.079-.021-.119q-.46-2.784-.921-5.568a1.933,1.933,0,0,1-.015-.9c.108-.344.244-.689.729-.558a13.543,13.543,0,0,1-.3-1.693c-.539.137-.91-.1-1.035-.7" transform="translate(-14.182 -2.956)" fill="#c49090"/>
        <path id="Trazado_137061" data-name="Trazado 137061" d="M52.585,12.277q-.151-.948-.308-1.894A7.23,7.23,0,0,0,45.55,4.235c-2.676-.094-5.359-.017-8.039-.015-.071.04-.14.083-.21.125l.231,0q3.688,0,7.376,0a7.151,7.151,0,0,1,7.237,6.182c.1.632.192,1.267.322,1.893.125.6.5.842,1.035.7-.638-.055-.819-.224-.918-.85" transform="translate(-23.852 -2.679)" fill="#c49090"/>
        <path id="Trazado_137062" data-name="Trazado 137062" d="M80.953,34.183a1.933,1.933,0,0,0,.015.9q.465,2.784.921,5.568c.009.039.014.079.021.119a.259.259,0,0,0,.083-.17c-.021-.182-.034-.366-.063-.547-.289-1.8-.575-3.6-.874-5.4a.8.8,0,0,1,.626-1.028c-.485-.131-.621.215-.729.559" transform="translate(-51.735 -21.483)" fill="#c49090"/>
        <path id="Trazado_137063" data-name="Trazado 137063" d="M18.741,57.33a2.24,2.24,0,0,1-.452.03l0,.011c-.071.6-.324.924-.859,1.01s-1.052.2-1.586.24l-.111.021a.207.207,0,0,0-.05.123A6.066,6.066,0,0,0,16.646,63,2.65,2.65,0,0,0,18.8,64.133q11.605.007,23.211,0c.006-.015.014-.028.02-.044a12.75,12.75,0,0,0,.072-3.176,2.036,2.036,0,0,0-1.747-1.9,49.075,49.075,0,0,0-5.592-.882,65.759,65.759,0,0,0-8.524-.411c-1.649.035-3.3.1-4.941.273-.893.092-1.2-.032-1.475-.621,0-.017,0-.031,0-.048a1.936,1.936,0,0,0-1.082.008" transform="translate(-10.016 -36.607)" fill="#c49090"/>
        <path id="Trazado_137064" data-name="Trazado 137064" d="M15.864,58.839l.111-.021c.535-.044,1.059-.156,1.587-.24s.787-.408.859-1.01l-.005-.011-.1,0c-.119.668-.279.82-.923.909-.462.064-.922.143-1.384.216-.043.057-.1.1-.149.154" transform="translate(-10.144 -36.806)" fill="#c49090"/>
        <path id="Trazado_137065" data-name="Trazado 137065" d="M27.2,57.5c.275.588.582.712,1.475.621,1.643-.169,3.292-.238,4.941-.273a65.82,65.82,0,0,1,8.524.411,49.132,49.132,0,0,1,5.592.882,2.036,2.036,0,0,1,1.747,1.9,12.767,12.767,0,0,1-.073,3.176c-.006.015-.014.028-.02.044h.154a12.18,12.18,0,0,0,.108-2.817,2.317,2.317,0,0,0-2.058-2.516A67.407,67.407,0,0,0,36.31,57.715a66.336,66.336,0,0,0-7.772.262c-.5.046-1,.094-1.247-.489-.031-.013-.061-.023-.092-.034,0,.017,0,.031,0,.048" transform="translate(-17.393 -36.74)" fill="#c49090"/>
        <path id="Trazado_137066" data-name="Trazado 137066" d="M35.764,22.367c-.819-.1-1.629-.263-2.446-.38-1.983-.284-3.975-.465-5.975-.593-2.374-.151-4.747-.064-7.12-.068-.988,0-1.978.175-2.97.18a3.27,3.27,0,0,1-3.337-3.91c.379-2.362.751-4.725,1.151-7.083A8.2,8.2,0,0,1,18.4,5.108a3.854,3.854,0,0,1,.852-.5,8.617,8.617,0,0,0-2.435.212,6.876,6.876,0,0,0-5.342,5.646c-.78,4.17-1.394,8.372-2.066,12.561-.075.468-.035.513.43.435q1.52-.254,3.043-.482c.787-.118,1.142.071,1.374.686A1.525,1.525,0,0,1,15.8,23.63a.909.909,0,0,1,.931-1.084c1.12-.116,2.244-.178,3.37-.231,1.26-.06,2.52-.1,3.781-.086a68.837,68.837,0,0,1,11.636,1.095c.132.025.265.048.4.075.282.058.434-.029.37-.339-.048-.232-.06-.469-.092-.7-.1.088-.3.027-.433.01" transform="translate(-5.998 -2.944)" fill="#b87f7f"/>
        <path id="Trazado_137067" data-name="Trazado 137067" d="M12.559,22.747q-1.523.229-3.043.483c-.465.078-.505.033-.43-.435.672-4.19,1.286-8.391,2.066-12.561a6.875,6.875,0,0,1,5.342-5.646,8.621,8.621,0,0,1,2.436-.212,2.142,2.142,0,0,1,.4-.122c-.471,0-.942-.021-1.413-.009a7.194,7.194,0,0,0-6.874,5.78c-.776,4.32-1.427,8.662-2.148,12.993-.066.4-.011.488.4.411,1.124-.209,2.255-.381,3.385-.555.679-.1.875.006,1.165.593l.084-.032c-.232-.615-.587-.8-1.374-.686" transform="translate(-5.674 -2.711)" fill="#b87f7f"/>
        <path id="Trazado_137068" data-name="Trazado 137068" d="M47.588,53.317c.032.234.044.471.092.7.065.31-.087.4-.37.339-.132-.027-.264-.05-.4-.075a68.837,68.837,0,0,0-11.636-1.095c-1.261-.018-2.521.026-3.781.086-1.126.053-2.249.115-3.37.231A.909.909,0,0,0,27.2,54.59c.031.022.061.037.092.063-.013-.732.2-.963.928-1.014s1.475-.131,2.214-.172a69.488,69.488,0,0,1,16.44.966c1.054.193,1.054.2.887-.874a1.152,1.152,0,0,0-.109-.537c.023.163-.006.249-.06.3" transform="translate(-17.39 -33.904)" fill="#b87f7f"/>
        <path id="Trazado_137069" data-name="Trazado 137069" d="M26.359,5.113a8.2,8.2,0,0,0-3.335,5.406c-.4,2.358-.772,4.721-1.15,7.083a3.269,3.269,0,0,0,3.336,3.91c.992-.005,1.982-.181,2.97-.18,2.373,0,4.746-.084,7.12.068,2,.128,3.992.308,5.975.593.817.117,1.627.28,2.446.38.134.017.33.078.433-.01-.006-.042-.015-.084-.022-.126a.361.361,0,0,1-.3.034c-1.348-.253-2.706-.436-4.064-.622a49.966,49.966,0,0,0-5.5-.458q-4.663-.118-9.328.164a3.09,3.09,0,0,1-2.987-2.965,17.363,17.363,0,0,1,.347-2.534c.22-1.572.527-3.133.758-4.7A9.213,9.213,0,0,1,24.53,7.177,8.8,8.8,0,0,1,27.4,4.617l-.193,0a3.862,3.862,0,0,0-.852.5" transform="translate(-13.956 -2.95)" fill="#b87f7f"/>
        <path id="Trazado_137070" data-name="Trazado 137070" d="M83.695,53.19c.008.042.017.084.022.126.054-.047.084-.133.06-.3a.257.257,0,0,1-.083.17" transform="translate(-53.519 -33.904)" fill="#b87f7f"/>
        <path id="Trazado_137071" data-name="Trazado 137071" d="M36.958,4.4c.07-.041.139-.084.211-.125a2.182,2.182,0,0,0-.4.122l.193,0" transform="translate(-23.509 -2.734)" fill="#b87f7f"/>
        <path id="Trazado_137072" data-name="Trazado 137072" d="M22.908,57.051c0,.011.009.019.013.03a2.215,2.215,0,0,0,.452-.029,1.936,1.936,0,0,1,1.082-.008c0-.01,0-.019,0-.029a1.524,1.524,0,0,0-1.547.036" transform="translate(-14.649 -36.329)" fill="#b87f7f"/>
        <path id="Trazado_137073" data-name="Trazado 137073" d="M22.758,57.474l-.084.032.1,0c0-.011-.009-.019-.013-.03" transform="translate(-14.499 -36.752)" fill="#b87f7f"/>
        <path id="Trazado_137074" data-name="Trazado 137074" d="M27.2,57.4c.031.011.061.02.092.034-.031-.026-.062-.041-.092-.063,0,.01,0,.019,0,.03" transform="translate(-17.392 -36.687)" fill="#b87f7f"/>
        <path id="Trazado_137075" data-name="Trazado 137075" d="M11.861,66.8a2.9,2.9,0,0,1-2.516-1.36,4.947,4.947,0,0,1-.9-2.85c0-.354-.007-.708.007-1.062a.749.749,0,0,1,.082-.358c-.667.126-1.341.216-2.006.352a2.223,2.223,0,0,0-1.905,2.167,20.452,20.452,0,0,0,0,2.274,2.207,2.207,0,0,0,2.005,2.173,7.26,7.26,0,0,0,1.108.076H31.952c.337,0,.672-.028,1.008-.061a2.221,2.221,0,0,0,1.924-1.4,1.464,1.464,0,0,1-.471.054q-11.276,0-22.551,0" transform="translate(-2.937 -39.118)" fill="#b87f7f"/>
        <path id="Trazado_137076" data-name="Trazado 137076" d="M32.722,67.84c-.336.033-.67.061-1.008.061H7.5a7.261,7.261,0,0,1-1.108-.076,2.206,2.206,0,0,1-2.005-2.173,20.279,20.279,0,0,1,0-2.274,2.222,2.222,0,0,1,1.905-2.166c.665-.136,1.339-.226,2.006-.352a.382.382,0,0,1,.27-.177c-.8.129-1.593.251-2.387.39a2.3,2.3,0,0,0-1.944,2.251c-.022.791-.019,1.584,0,2.375A2.314,2.314,0,0,0,5.87,67.9a3.911,3.911,0,0,0,1.151.118q12.583,0,25.166,0a6.03,6.03,0,0,0,.655-.034,2.2,2.2,0,0,0,2.005-1.651.623.623,0,0,1-.2.107,2.221,2.221,0,0,1-1.924,1.4" transform="translate(-2.7 -38.805)" fill="#b87f7f"/>
        <path id="Trazado_137077" data-name="Trazado 137077" d="M16.4,65.469a6.068,6.068,0,0,1-.959-4.234.207.207,0,0,1,.05-.123l-.121.023a.749.749,0,0,0-.083.358c-.014.354,0,.708-.007,1.062a4.945,4.945,0,0,0,.9,2.85,2.9,2.9,0,0,0,2.515,1.36q11.276.006,22.551,0a1.462,1.462,0,0,0,.471-.054c.016-.036.034-.07.049-.107q-11.605,0-23.211,0A2.652,2.652,0,0,1,16.4,65.469" transform="translate(-9.77 -39.078)" fill="#b87f7f"/>
        <path id="Trazado_137078" data-name="Trazado 137078" d="M88.6,76.454a.631.631,0,0,0,.2-.107h-.154c-.015.037-.032.071-.049.107" transform="translate(-56.658 -48.82)" fill="#b87f7f"/>
        <path id="Trazado_137079" data-name="Trazado 137079" d="M15.528,60.861l.121-.023c.044-.056.106-.1.149-.154a.384.384,0,0,0-.27.177" transform="translate(-9.929 -38.805)" fill="#b87f7f"/>
        <path id="Trazado_137080" data-name="Trazado 137080" d="M71.68,97.234c.437,1.436.865,2.874,1.3,4.311.475,1.582.944,3.167,1.428,4.747a.772.772,0,0,0,.264.5c.183-.149.105-.336.08-.5q-1.156-7.626-2.317-15.252c-.117-.767-.228-1.534-.346-2.3,0-.01,0-.017,0-.027H69.116c.476,1.674,1.008,3.332,1.5,5a.932.932,0,0,1-.591,1.328,6.071,6.071,0,0,1,.456,1.419.95.95,0,0,1,1.2.779" transform="translate(-44.196 -56.723)" fill="#fcddaf"/>
        <path id="Trazado_137081" data-name="Trazado 137081" d="M73.933,97.206c.1.32.2.642.295.964q1.267,4.223,2.539,8.444c.047.155.006.388.28.406.616.041.31-.4.279-.605q-.825-5.592-1.686-11.178c-.333-2.178-.677-4.355-1.017-6.532H74.5c0,.009,0,.017,0,.027.118.766.229,1.534.346,2.3q1.166,7.625,2.317,15.252c.026.168.1.356-.08.5a.773.773,0,0,1-.264-.5c-.485-1.58-.953-3.165-1.428-4.747-.432-1.437-.86-2.875-1.3-4.311a.951.951,0,0,0-1.2-.779c.009.036.017.072.027.108.594-.065.835.085,1.014.644" transform="translate(-46.611 -56.723)" fill="#fcddaf"/>
        <path id="Trazado_137082" data-name="Trazado 137082" d="M70.4,93.708c-.488-1.671-1.02-3.329-1.5-5h-.12q.744,2.511,1.487,5.022c.2.665.1.906-.5,1.229.015.026.024.053.038.079a.932.932,0,0,0,.591-1.328" transform="translate(-43.982 -56.723)" fill="#fcddaf"/>
        <path id="Trazado_137083" data-name="Trazado 137083" d="M10.863,90Q9.979,95.812,9.1,101.626c-.25,1.647-.509,3.292-.747,4.94-.02.138-.2.371.1.45s.431-.08.475-.352a.334.334,0,0,1,.01-.049q1.571-5.237,3.142-10.474,1.111-3.715,2.21-7.435H11.079c-.072.431-.151.862-.216,1.294" transform="translate(-5.296 -56.723)" fill="#fcddaf"/>
        <path id="Trazado_137084" data-name="Trazado 137084" d="M19.3,85.16c-.652.012-1.3,0-1.957,0-1.219,0-1.219,0-1.3,1.274a.3.3,0,0,1,.166-.106,15.467,15.467,0,0,1,2.883,0,.273.273,0,0,1,.164.107c.1-.316.2-.637.317-.947s-.018-.335-.273-.33" transform="translate(-10.257 -54.456)" fill="#fad499"/>
        <path id="Trazado_137085" data-name="Trazado 137085" d="M16.206,88.291a.3.3,0,0,0-.166.106h3.213a.272.272,0,0,0-.164-.107,15.436,15.436,0,0,0-2.883,0" transform="translate(-10.257 -56.414)" fill="#fad499"/>
        <path id="Trazado_137086" data-name="Trazado 137086" d="M71.631,86.565c-.184-1.335-.115-1.107-1.346-1.127-.47-.008-.94-.009-1.41,0s-.517.066-.4.546c.048.2.118.385.18.577l0,.009a8.5,8.5,0,0,1,2.972-.005" transform="translate(-43.751 -54.63)" fill="#fad499"/>
        <path id="Trazado_137087" data-name="Trazado 137087" d="M68.251,86.386c-.062-.192-.131-.381-.18-.577-.119-.48-.083-.535.4-.546s.94-.009,1.41,0c1.232.021,1.163-.208,1.346,1.127a.783.783,0,0,1,.132.047c-.038-.314-.079-.628-.113-.944-.025-.235-.123-.341-.385-.336-.92.016-1.84.012-2.76,0-.256,0-.387.034-.272.331s.212.631.317.947a.753.753,0,0,1,.109-.041l0-.009" transform="translate(-43.346 -54.453)" fill="#fad499"/>
        <path id="Trazado_137088" data-name="Trazado 137088" d="M69.082,88.354l.012.041h2.967l-.006-.047a8.511,8.511,0,0,0-2.972.005" transform="translate(-44.175 -56.413)" fill="#fad499"/>
        <path id="Trazado_137089" data-name="Trazado 137089" d="M77.332,88.623h.125a.786.786,0,0,0-.132-.047c0,.016,0,.03.006.047" transform="translate(-49.446 -56.64)" fill="#fad499"/>
        <path id="Trazado_137090" data-name="Trazado 137090" d="M68.89,88.591a.711.711,0,0,0-.109.041h.12l-.012-.041" transform="translate(-43.982 -56.65)" fill="#fad499"/>
      </g>
    </g>
  </g>
</svg>
