<svg xmlns="http://www.w3.org/2000/svg" xmlns:xlink="http://www.w3.org/1999/xlink" width="105" height="105" viewBox="0 0 105 105">
  <defs>
    <clipPath id="clip-path">
      <rect id="Rect치ngulo_37623" data-name="Rect치ngulo 37623" width="38.352" height="38.347" fill="none"/>
    </clipPath>
  </defs>
  <g id="Grupo_159180" data-name="Grupo 159180" transform="translate(-3921 9968)">
    <rect id="Rect치ngulo_37518" data-name="Rect치ngulo 37518" width="105" height="105" rx="52.5" transform="translate(3921 -9968)" fill="#6b8dfc"/>
    <g id="Grupo_159179" data-name="Grupo 159179" transform="translate(3942 -9947)">
      <g id="Grupo_159178" data-name="Grupo 159178" clip-path="url(#clip-path)">
        <path id="Trazado_136943" data-name="Trazado 136943" d="M5.141,0h.374A5.494,5.494,0,0,1,7.6,1.111,10.844,10.844,0,0,1,9.889,3.354a.652.652,0,0,0,.792.269,13.571,13.571,0,0,1,6.871,0,.656.656,0,0,0,.792-.27A11.343,11.343,0,0,1,21.985.25,3.3,3.3,0,0,1,22.719,0h.374c.314.08.409.328.472.606a15.921,15.921,0,0,1,.361,2.7,12.208,12.208,0,0,1-.188,3.422.484.484,0,0,0,.229.568c1.215.871,2.409,1.771,3.623,2.644.111.08.223.16.326.25a.736.736,0,0,1,.211,1.056,12.5,12.5,0,0,1-2.747,3.512,19.937,19.937,0,0,1-3.434,2.507c-.505.295-1.014.588-1.547.831-.267.122-.213.245-.063.416.337.383.683.759,1,1.157.205.255.39.171.605.01A9.649,9.649,0,0,1,25.6,17.954a10.4,10.4,0,0,1,12.618,7.871c.088.388.047.789.131,1.177v2.02a8.9,8.9,0,0,1-.8,3.223A9.282,9.282,0,0,1,36.238,34.4c-.319.385-.559.409-1,.132a.721.721,0,0,1,.01-1.011,8.883,8.883,0,0,0,1.763-4.146A9.071,9.071,0,0,0,29.32,19.056c-.223-.034-.447-.023-.67-.036a6.892,6.892,0,0,0-2.661.208,8.578,8.578,0,0,0-3.174,1.451c-.332.239-.334.26-.072.568.9,1.063,1.815,2.12,2.611,3.268a16.552,16.552,0,0,1,1.335,2.2c.129.282.29.549.4.838.078.2.156.229.3.059a4.62,4.62,0,0,0,1.223-2.538,5.923,5.923,0,0,0,.057-1.155c.015-.5.222-.745.634-.755a.676.676,0,0,1,.691.724,5.983,5.983,0,0,1-1.64,4.54,10.456,10.456,0,0,1-3.646,2.417,21.181,21.181,0,0,1-2.638.938c-.1.028-.253.019-.266.154-.01.1.121.146.2.206a2.237,2.237,0,0,1,.388.348.677.677,0,0,1,.083.738,8.66,8.66,0,0,1-.428.871.464.464,0,0,0,.159.7,8.862,8.862,0,0,1,.675.59.7.7,0,0,1,.142,1.025,1.658,1.658,0,0,0-.1.157c-.069.151-.31.265-.214.435.076.135.3.055.458.055q2.577.005,5.155,0a9.12,9.12,0,0,0,4.572-1.391c.127-.078.247-.167.374-.244.481-.294.677-.26,1.049.181a.627.627,0,0,1-.258.872,8.031,8.031,0,0,1-1.8,1.049,9.54,9.54,0,0,1-3.883.8q-8.539-.011-17.079.011a1.293,1.293,0,0,1-1.3-.745,25.666,25.666,0,0,1-3.2-9.074,18.758,18.758,0,0,1,1.134-9.756c.192-.476.193-.482-.267-.707a18.267,18.267,0,0,1-2.918-1.736c-.367-.274-.406-.426-.282-.869.34-.439.671-.48,1.153-.142A23.937,23.937,0,0,0,12.151,18.4a1.875,1.875,0,0,1-.026-1.409c.067-.165-.041-.282-.137-.4A13.412,13.412,0,0,0,9.279,14.2,15.116,15.116,0,0,0,2.521,11.57a1.733,1.733,0,0,0-.26-.025.873.873,0,0,0-.317.017.908.908,0,0,0,.236.4c.345.458.708.9,1.093,1.325a.691.691,0,0,1,.006,1.055.715.715,0,0,1-.947-.141A15.454,15.454,0,0,1,.138,11.285.827.827,0,0,1,.42,10.111c1.207-.88,2.4-1.784,3.62-2.64a.849.849,0,0,0,.42-.982A16.007,16.007,0,0,1,4.683.522.593.593,0,0,1,5.141,0" transform="translate(0)" fill="#060606"/>
        <path id="Trazado_136944" data-name="Trazado 136944" d="M83.561,85.658H77.606c.2-.288.384-.534.556-.785a.576.576,0,0,0-.1-.884c-.3-.265-.593-.533-.907-.778a.284.284,0,0,1-.078-.436c.187-.337.354-.685.519-1.033a.57.57,0,0,0-.208-.841c-.215-.166-.436-.325-.677-.5a1.99,1.99,0,0,1,.684-.243,15.136,15.136,0,0,0,5.374-2.585,6.026,6.026,0,0,0,2.36-5.156c-.019-.43-.2-.645-.553-.652A.506.506,0,0,0,84,72.3a5.1,5.1,0,0,1-.081,1.337,4,4,0,0,1-1.89,1.67.152.152,0,0,1-.174-.025,28.547,28.547,0,0,0-4.065-5.558c-.237-.267-.178-.367.072-.548a9.251,9.251,0,0,1,5.206-1.8,2.727,2.727,0,0,1,.779.042,8.956,8.956,0,0,1,5.461,5.243,9.521,9.521,0,0,1-1.556,10.229,8.529,8.529,0,0,1-3.719,2.678,2.5,2.5,0,0,1-.475.086" transform="translate(-55.226 -48.505)" fill="#fc9d35"/>
        <path id="Trazado_136945" data-name="Trazado 136945" d="M30.356,14.217c-.721.226-1.46.393-2.171.658A17.834,17.834,0,0,0,21.2,19.6a1.01,1.01,0,0,1-.7.309,2.18,2.18,0,0,1-2.021-.885A16.342,16.342,0,0,0,8.319,13.983c0-.159.145-.186.233-.251,1.753-1.295,3.49-2.613,5.357-3.745.385-.234.442-.456.249-.885A12.577,12.577,0,0,0,11.9,5.735c-.082-.088-.208-.157-.193-.3.011-.108.006-.249.071-.311s.179.042.259.09a11.3,11.3,0,0,1,3.3,3.106c.366.5.49.537,1.065.336a11.573,11.573,0,0,1,4.607-.533,7.777,7.777,0,0,1,2.02.318,24.048,24.048,0,0,1,5.158,3.509c.659.568,1.311,1.144,1.915,1.771.132.137.318.257.257.5" transform="translate(-5.989 -3.67)" fill="#fc9d35"/>
        <path id="Trazado_136946" data-name="Trazado 136946" d="M56.759,80.571A20.943,20.943,0,0,1,53.537,81.6a11.42,11.42,0,0,0-4.812,2.435,6.432,6.432,0,0,0-2.13,3.634c-.059.306-.25.2-.414.221s-.262.007-.289-.216A26.234,26.234,0,0,1,46.5,76.908a14.046,14.046,0,0,1,3.465-6.1c.131-.131.281-.243.422-.364.4.173.594.56.863.861A50.661,50.661,0,0,1,54.5,75.216a15.02,15.02,0,0,1,2.262,4.193,1.553,1.553,0,0,1,0,1.162" transform="translate(-32.841 -50.719)" fill="#fc9d35"/>
        <path id="Trazado_136947" data-name="Trazado 136947" d="M36.114,67.875a17.592,17.592,0,0,0-4.139,9.993c-.059.507-.087,1.018-.106,1.528-.01.262-.084.29-.3.169a6.419,6.419,0,0,1-3.487-5,14.421,14.421,0,0,1,.768-6.027c.148-.486.36-.953.522-1.435.076-.226.179-.239.38-.158,1.293.52,2.628.909,3.964,1.3a2.272,2.272,0,0,0,1.307-.071c.334-.091.668-.179,1.093-.293" transform="translate(-20.161 -48.163)" fill="#f1eaea"/>
        <path id="Trazado_136948" data-name="Trazado 136948" d="M101.186,85.787a9.52,9.52,0,0,0,5.021-4.057,8.988,8.988,0,0,0,1.386-4.05,9.75,9.75,0,0,0-5.973-10.019.689.689,0,0,1-.145-.111,8.559,8.559,0,0,1,5.346,2.11A9.1,9.1,0,0,1,108.2,82.192c-.243.322-.326.607-.043.931a9.807,9.807,0,0,1-1.1,1.091c-.359-.323-.494-.332-.912-.045a8.867,8.867,0,0,1-4.954,1.617" transform="translate(-72.851 -48.634)" fill="#f6880f"/>
        <path id="Trazado_136949" data-name="Trazado 136949" d="M8.861,44.782,7.547,43.615c.288-.415.28-.567-.063-.943a15.042,15.042,0,0,1-1.506-1.916,10.361,10.361,0,0,1,2.08.27,15.54,15.54,0,0,1,8.388,4.917c.09.1.218.167.122.374a1.421,1.421,0,0,0,.116,1.582,25.1,25.1,0,0,1-2.827-.992,20.209,20.209,0,0,1-4.085-2.223c-.373-.268-.549-.241-.911.1" transform="translate(-4.305 -29.343)" fill="#f1eaea"/>
        <path id="Trazado_136950" data-name="Trazado 136950" d="M56.658,47.824a1.406,1.406,0,0,0,.106-1.543c-.088-.162,0-.224.087-.313a16.4,16.4,0,0,1,8.564-4.991,12.49,12.49,0,0,1,1.958-.272c-.861,2.343-7.057,6.459-10.714,7.118" transform="translate(-40.792 -29.307)" fill="#f1eaea"/>
        <path id="Trazado_136951" data-name="Trazado 136951" d="M69.035,78.082a6.252,6.252,0,0,0-1.194-3.537,27.383,27.383,0,0,0-3.478-4.622c-.573-.649-1.132-1.311-1.7-1.967a6.8,6.8,0,0,1,1.175-.909.193.193,0,0,1,.309.041c1.916,2.3,4.113,4.371,5.744,6.911a14.362,14.362,0,0,1,1.368,2.685c.052.139.108.258-.081.37a10.851,10.851,0,0,1-2.144,1.027" transform="translate(-45.117 -48.23)" fill="#f6880f"/>
        <path id="Trazado_136952" data-name="Trazado 136952" d="M53.05,120.132a5.7,5.7,0,0,1,1.759-3.034,8.707,8.707,0,0,1,3.253-1.842.318.318,0,0,1,.337.055c.267.2.535.408.813.6.145.1.161.181.078.334-.19.349-.356.71-.536,1.065a.6.6,0,0,0,.162.8c.294.25.578.513.88.753.153.122.177.223.036.358a.211.211,0,0,0-.044.06,1.507,1.507,0,0,1-1.666.878c-1.678-.072-3.361-.022-5.072-.022" transform="translate(-38.195 -82.963)" fill="#f1eaea"/>
        <path id="Trazado_136953" data-name="Trazado 136953" d="M68.17,14.217a4.54,4.54,0,0,0-1.051-1.146,31.184,31.184,0,0,0-3.046-2.539,24.721,24.721,0,0,0-2.785-1.775,1.121,1.121,0,0,1-.448-.318,2.861,2.861,0,0,1,.788.216c.563.2.691.162,1.038-.314a11.382,11.382,0,0,1,3.226-3.073c.109-.067.263-.267.37-.116a.411.411,0,0,1-.078.541,8.411,8.411,0,0,0-.642.728,12.342,12.342,0,0,0-1.61,2.552c-.278.592-.226.764.326,1.1,1.889,1.144,3.631,2.5,5.409,3.8a.96.96,0,0,1,.1.11l-1.6.236" transform="translate(-43.803 -3.67)" fill="#f6880f"/>
        <path id="Trazado_136954" data-name="Trazado 136954" d="M30.165,108.739a7.4,7.4,0,0,0,2.577,2,.944.944,0,0,1,.63,1.036,23.863,23.863,0,0,0,.246,3.387c.039.271-.052.292-.282.308a.642.642,0,0,1-.691-.4,26.2,26.2,0,0,1-2.472-6.062.323.323,0,0,1-.008-.273" transform="translate(-21.697 -78.289)" fill="#f6880f"/>
        <path id="Trazado_136955" data-name="Trazado 136955" d="M19.84,15.017a11.862,11.862,0,0,1-.16-3.062,11.311,11.311,0,0,1,1.4,2.09.141.141,0,0,1-.062.214c-.386.245-.77.494-1.179.758" transform="translate(-14.152 -8.607)" fill="#f0e9e9"/>
        <path id="Trazado_136956" data-name="Trazado 136956" d="M77.423,11.978a11.844,11.844,0,0,1-.152,3.046c-.409-.263-.8-.515-1.191-.764a.126.126,0,0,1-.05-.188,11.686,11.686,0,0,1,1.393-2.095" transform="translate(-54.724 -8.624)" fill="#f0e9e9"/>
        <path id="Trazado_136957" data-name="Trazado 136957" d="M95.1,91.4a4.867,4.867,0,0,0,1.915-1.484c.047-.055.1-.107.148-.161a4.688,4.688,0,0,1-1.52,2.834L95.1,91.4" transform="translate(-68.471 -64.621)" fill="#f5880f"/>
        <path id="Trazado_136958" data-name="Trazado 136958" d="M48.1,61.984c.187,0,.374,0,.561,0a.3.3,0,0,1,.211.525c-.778.94-.775.94-1.573.018-.1-.112-.171-.22-.1-.366a.335.335,0,0,1,.342-.179c.187,0,.374,0,.561,0" transform="translate(-33.964 -44.626)" fill="#99582d"/>
        <path id="Trazado_136959" data-name="Trazado 136959" d="M39.171,38.17a.534.534,0,1,1-1.065-.019.533.533,0,1,1,1.065.019" transform="translate(-27.435 -27.085)" fill="#080706"/>
        <path id="Trazado_136960" data-name="Trazado 136960" d="M59.435,37.62a.509.509,0,0,1,.534.541.534.534,0,1,1-1.066,0,.5.5,0,0,1,.532-.541" transform="translate(-42.409 -27.085)" fill="#080706"/>
      </g>
      <g id="Grupo_159196" data-name="Grupo 159196" transform="translate(28.176 25.173)" clip-path="url(#clip-path)">
        <path id="Trazado_137041" data-name="Trazado 137041" d="M5.141,0h.374A5.494,5.494,0,0,1,7.6,1.111,10.844,10.844,0,0,1,9.889,3.354a.652.652,0,0,0,.792.269,13.571,13.571,0,0,1,6.871,0,.656.656,0,0,0,.792-.27A11.343,11.343,0,0,1,21.985.25,3.3,3.3,0,0,1,22.719,0h.374c.314.08.409.328.472.606a15.921,15.921,0,0,1,.361,2.7,12.208,12.208,0,0,1-.188,3.422.484.484,0,0,0,.229.568c1.215.871,2.409,1.771,3.623,2.644.111.08.223.16.326.25a.736.736,0,0,1,.211,1.056,12.5,12.5,0,0,1-2.747,3.512,19.937,19.937,0,0,1-3.434,2.507c-.505.295-1.014.588-1.547.831-.267.122-.213.245-.063.416.337.383.683.759,1,1.157.205.255.39.171.605.01A9.649,9.649,0,0,1,25.6,17.954a10.4,10.4,0,0,1,12.618,7.871c.088.388.047.789.131,1.177v2.02a8.9,8.9,0,0,1-.8,3.223A9.282,9.282,0,0,1,36.238,34.4c-.319.385-.559.409-1,.132a.721.721,0,0,1,.01-1.011,8.883,8.883,0,0,0,1.763-4.146A9.071,9.071,0,0,0,29.32,19.056c-.223-.034-.447-.023-.67-.036a6.892,6.892,0,0,0-2.661.208,8.578,8.578,0,0,0-3.174,1.451c-.332.239-.334.26-.072.568.9,1.063,1.815,2.12,2.611,3.268a16.552,16.552,0,0,1,1.335,2.2c.129.282.29.549.4.838.078.2.156.229.3.059a4.62,4.62,0,0,0,1.223-2.538,5.923,5.923,0,0,0,.057-1.155c.015-.5.222-.745.634-.755a.676.676,0,0,1,.691.724,5.983,5.983,0,0,1-1.64,4.54,10.456,10.456,0,0,1-3.646,2.417,21.181,21.181,0,0,1-2.638.938c-.1.028-.253.019-.266.154-.01.1.121.146.2.206a2.237,2.237,0,0,1,.388.348.677.677,0,0,1,.083.738,8.66,8.66,0,0,1-.428.871.464.464,0,0,0,.159.7,8.862,8.862,0,0,1,.675.59.7.7,0,0,1,.142,1.025,1.658,1.658,0,0,0-.1.157c-.069.151-.31.265-.214.435.076.135.3.055.458.055q2.577.005,5.155,0a9.12,9.12,0,0,0,4.572-1.391c.127-.078.247-.167.374-.244.481-.294.677-.26,1.049.181a.627.627,0,0,1-.258.872,8.031,8.031,0,0,1-1.8,1.049,9.54,9.54,0,0,1-3.883.8q-8.539-.011-17.079.011a1.293,1.293,0,0,1-1.3-.745,25.666,25.666,0,0,1-3.2-9.074,18.758,18.758,0,0,1,1.134-9.756c.192-.476.193-.482-.267-.707a18.267,18.267,0,0,1-2.918-1.736c-.367-.274-.406-.426-.282-.869.34-.439.671-.48,1.153-.142A23.937,23.937,0,0,0,12.151,18.4a1.875,1.875,0,0,1-.026-1.409c.067-.165-.041-.282-.137-.4A13.412,13.412,0,0,0,9.279,14.2,15.116,15.116,0,0,0,2.521,11.57a1.733,1.733,0,0,0-.26-.025.873.873,0,0,0-.317.017.908.908,0,0,0,.236.4c.345.458.708.9,1.093,1.325a.691.691,0,0,1,.006,1.055.715.715,0,0,1-.947-.141A15.454,15.454,0,0,1,.138,11.285.827.827,0,0,1,.42,10.111c1.207-.88,2.4-1.784,3.62-2.64a.849.849,0,0,0,.42-.982A16.007,16.007,0,0,1,4.683.522.593.593,0,0,1,5.141,0" transform="translate(0)" fill="#060606"/>
        <path id="Trazado_137042" data-name="Trazado 137042" d="M83.561,85.658H77.606c.2-.288.384-.534.556-.785a.576.576,0,0,0-.1-.884c-.3-.265-.593-.533-.907-.778a.284.284,0,0,1-.078-.436c.187-.337.354-.685.519-1.033a.57.57,0,0,0-.208-.841c-.215-.166-.436-.325-.677-.5a1.99,1.99,0,0,1,.684-.243,15.136,15.136,0,0,0,5.374-2.585,6.026,6.026,0,0,0,2.36-5.156c-.019-.43-.2-.645-.553-.652A.506.506,0,0,0,84,72.3a5.1,5.1,0,0,1-.081,1.337,4,4,0,0,1-1.89,1.67.152.152,0,0,1-.174-.025,28.547,28.547,0,0,0-4.065-5.558c-.237-.267-.178-.367.072-.548a9.251,9.251,0,0,1,5.206-1.8,2.727,2.727,0,0,1,.779.042,8.956,8.956,0,0,1,5.461,5.243,9.521,9.521,0,0,1-1.556,10.229,8.529,8.529,0,0,1-3.719,2.678,2.5,2.5,0,0,1-.475.086" transform="translate(-55.226 -48.505)" fill="#fc9d35"/>
        <path id="Trazado_137043" data-name="Trazado 137043" d="M30.356,14.217c-.721.226-1.46.393-2.171.658A17.834,17.834,0,0,0,21.2,19.6a1.01,1.01,0,0,1-.7.309,2.18,2.18,0,0,1-2.021-.885A16.342,16.342,0,0,0,8.319,13.983c0-.159.145-.186.233-.251,1.753-1.295,3.49-2.613,5.357-3.745.385-.234.442-.456.249-.885A12.577,12.577,0,0,0,11.9,5.735c-.082-.088-.208-.157-.193-.3.011-.108.006-.249.071-.311s.179.042.259.09a11.3,11.3,0,0,1,3.3,3.106c.366.5.49.537,1.065.336a11.573,11.573,0,0,1,4.607-.533,7.777,7.777,0,0,1,2.02.318,24.048,24.048,0,0,1,5.158,3.509c.659.568,1.311,1.144,1.915,1.771.132.137.318.257.257.5" transform="translate(-5.989 -3.67)" fill="#fc9d35"/>
        <path id="Trazado_137044" data-name="Trazado 137044" d="M56.759,80.571A20.943,20.943,0,0,1,53.537,81.6a11.42,11.42,0,0,0-4.812,2.435,6.432,6.432,0,0,0-2.13,3.634c-.059.306-.25.2-.414.221s-.262.007-.289-.216A26.234,26.234,0,0,1,46.5,76.908a14.046,14.046,0,0,1,3.465-6.1c.131-.131.281-.243.422-.364.4.173.594.56.863.861A50.661,50.661,0,0,1,54.5,75.216a15.02,15.02,0,0,1,2.262,4.193,1.553,1.553,0,0,1,0,1.162" transform="translate(-32.841 -50.719)" fill="#fc9d35"/>
        <path id="Trazado_137045" data-name="Trazado 137045" d="M36.114,67.875a17.592,17.592,0,0,0-4.139,9.993c-.059.507-.087,1.018-.106,1.528-.01.262-.084.29-.3.169a6.419,6.419,0,0,1-3.487-5,14.421,14.421,0,0,1,.768-6.027c.148-.486.36-.953.522-1.435.076-.226.179-.239.38-.158,1.293.52,2.628.909,3.964,1.3a2.272,2.272,0,0,0,1.307-.071c.334-.091.668-.179,1.093-.293" transform="translate(-20.161 -48.163)" fill="#f1eaea"/>
        <path id="Trazado_137046" data-name="Trazado 137046" d="M101.186,85.787a9.52,9.52,0,0,0,5.021-4.057,8.988,8.988,0,0,0,1.386-4.05,9.75,9.75,0,0,0-5.973-10.019.689.689,0,0,1-.145-.111,8.559,8.559,0,0,1,5.346,2.11A9.1,9.1,0,0,1,108.2,82.192c-.243.322-.326.607-.043.931a9.807,9.807,0,0,1-1.1,1.091c-.359-.323-.494-.332-.912-.045a8.867,8.867,0,0,1-4.954,1.617" transform="translate(-72.851 -48.634)" fill="#f6880f"/>
        <path id="Trazado_137047" data-name="Trazado 137047" d="M8.861,44.782,7.547,43.615c.288-.415.28-.567-.063-.943a15.042,15.042,0,0,1-1.506-1.916,10.361,10.361,0,0,1,2.08.27,15.54,15.54,0,0,1,8.388,4.917c.09.1.218.167.122.374a1.421,1.421,0,0,0,.116,1.582,25.1,25.1,0,0,1-2.827-.992,20.209,20.209,0,0,1-4.085-2.223c-.373-.268-.549-.241-.911.1" transform="translate(-4.305 -29.343)" fill="#f1eaea"/>
        <path id="Trazado_137048" data-name="Trazado 137048" d="M56.658,47.824a1.406,1.406,0,0,0,.106-1.543c-.088-.162,0-.224.087-.313a16.4,16.4,0,0,1,8.564-4.991,12.49,12.49,0,0,1,1.958-.272c-.861,2.343-7.057,6.459-10.714,7.118" transform="translate(-40.792 -29.307)" fill="#f1eaea"/>
        <path id="Trazado_137049" data-name="Trazado 137049" d="M69.035,78.082a6.252,6.252,0,0,0-1.194-3.537,27.383,27.383,0,0,0-3.478-4.622c-.573-.649-1.132-1.311-1.7-1.967a6.8,6.8,0,0,1,1.175-.909.193.193,0,0,1,.309.041c1.916,2.3,4.113,4.371,5.744,6.911a14.362,14.362,0,0,1,1.368,2.685c.052.139.108.258-.081.37a10.851,10.851,0,0,1-2.144,1.027" transform="translate(-45.117 -48.23)" fill="#f6880f"/>
        <path id="Trazado_137050" data-name="Trazado 137050" d="M53.05,120.132a5.7,5.7,0,0,1,1.759-3.034,8.707,8.707,0,0,1,3.253-1.842.318.318,0,0,1,.337.055c.267.2.535.408.813.6.145.1.161.181.078.334-.19.349-.356.71-.536,1.065a.6.6,0,0,0,.162.8c.294.25.578.513.88.753.153.122.177.223.036.358a.211.211,0,0,0-.044.06,1.507,1.507,0,0,1-1.666.878c-1.678-.072-3.361-.022-5.072-.022" transform="translate(-38.195 -82.963)" fill="#f1eaea"/>
        <path id="Trazado_137051" data-name="Trazado 137051" d="M68.17,14.217a4.54,4.54,0,0,0-1.051-1.146,31.184,31.184,0,0,0-3.046-2.539,24.721,24.721,0,0,0-2.785-1.775,1.121,1.121,0,0,1-.448-.318,2.861,2.861,0,0,1,.788.216c.563.2.691.162,1.038-.314a11.382,11.382,0,0,1,3.226-3.073c.109-.067.263-.267.37-.116a.411.411,0,0,1-.078.541,8.411,8.411,0,0,0-.642.728,12.342,12.342,0,0,0-1.61,2.552c-.278.592-.226.764.326,1.1,1.889,1.144,3.631,2.5,5.409,3.8a.96.96,0,0,1,.1.11l-1.6.236" transform="translate(-43.803 -3.67)" fill="#f6880f"/>
        <path id="Trazado_137052" data-name="Trazado 137052" d="M30.165,108.739a7.4,7.4,0,0,0,2.577,2,.944.944,0,0,1,.63,1.036,23.863,23.863,0,0,0,.246,3.387c.039.271-.052.292-.282.308a.642.642,0,0,1-.691-.4,26.2,26.2,0,0,1-2.472-6.062.323.323,0,0,1-.008-.273" transform="translate(-21.697 -78.289)" fill="#f6880f"/>
        <path id="Trazado_137053" data-name="Trazado 137053" d="M19.84,15.017a11.862,11.862,0,0,1-.16-3.062,11.311,11.311,0,0,1,1.4,2.09.141.141,0,0,1-.062.214c-.386.245-.77.494-1.179.758" transform="translate(-14.152 -8.607)" fill="#f0e9e9"/>
        <path id="Trazado_137054" data-name="Trazado 137054" d="M77.423,11.978a11.844,11.844,0,0,1-.152,3.046c-.409-.263-.8-.515-1.191-.764a.126.126,0,0,1-.05-.188,11.686,11.686,0,0,1,1.393-2.095" transform="translate(-54.724 -8.624)" fill="#f0e9e9"/>
        <path id="Trazado_137055" data-name="Trazado 137055" d="M95.1,91.4a4.867,4.867,0,0,0,1.915-1.484c.047-.055.1-.107.148-.161a4.688,4.688,0,0,1-1.52,2.834L95.1,91.4" transform="translate(-68.471 -64.621)" fill="#f5880f"/>
        <path id="Trazado_137056" data-name="Trazado 137056" d="M48.1,61.984c.187,0,.374,0,.561,0a.3.3,0,0,1,.211.525c-.778.94-.775.94-1.573.018-.1-.112-.171-.22-.1-.366a.335.335,0,0,1,.342-.179c.187,0,.374,0,.561,0" transform="translate(-33.964 -44.626)" fill="#99582d"/>
        <path id="Trazado_137057" data-name="Trazado 137057" d="M39.171,38.17a.534.534,0,1,1-1.065-.019.533.533,0,1,1,1.065.019" transform="translate(-27.435 -27.085)" fill="#080706"/>
        <path id="Trazado_137058" data-name="Trazado 137058" d="M59.435,37.62a.509.509,0,0,1,.534.541.534.534,0,1,1-1.066,0,.5.5,0,0,1,.532-.541" transform="translate(-42.409 -27.085)" fill="#080706"/>
      </g>
    </g>
  </g>
</svg>
