<svg xmlns="http://www.w3.org/2000/svg" xmlns:xlink="http://www.w3.org/1999/xlink" width="105" height="105" viewBox="0 0 105 105">
  <defs>
    <clipPath id="clip-path">
      <rect id="Rect치ngulo_37624" data-name="Rect치ngulo 37624" width="45.323" height="64.332" fill="none"/>
    </clipPath>
  </defs>
  <g id="Grupo_159183" data-name="Grupo 159183" transform="translate(-3921 9834)">
    <rect id="Rect치ngulo_37519" data-name="Rect치ngulo 37519" width="105" height="105" rx="52.5" transform="translate(3921 -9834)" fill="#6b8dfc"/>
    <g id="Grupo_159182" data-name="Grupo 159182" transform="translate(3951 -9814)">
      <g id="Grupo_159181" data-name="Grupo 159181" clip-path="url(#clip-path)">
        <path id="Trazado_136961" data-name="Trazado 136961" d="M44.372,57.712c.794.334.967.656.794,1.485A6.431,6.431,0,0,1,39,64.311q-16.314.041-32.629,0A6.418,6.418,0,0,1,.012,58.1C0,57.873,0,57.645,0,57.416Q0,36.223,0,15.032a6.516,6.516,0,0,1,4.78-6.575,11.081,11.081,0,0,1,3.208-.2c.438.006.533-.126.524-.538C8.486,6.549,8.5,5.381,8.5,4.213c0-.96.315-1.282,1.27-1.284,2.565-.005,5.129-.011,7.694.007a.852.852,0,0,0,.863-.47,5.028,5.028,0,0,1,8.652,0,.854.854,0,0,0,.862.473c2.541-.018,5.083-.011,7.625-.008,1.046,0,1.342.3,1.344,1.35,0,1.122.024,2.245-.011,3.366-.014.468.093.624.59.613a12.234,12.234,0,0,1,2.737.111,6.51,6.51,0,0,1,5.178,6.048,1.056,1.056,0,0,1-.683,1.142c-.823.216-1.2,0-1.392-.818-.079-.334-.121-.676-.2-1.01a4.207,4.207,0,0,0-4.17-3.332q-16.176-.021-32.352,0a4.322,4.322,0,0,0-4.372,4.228c-.02.251-.016.5-.016.755q0,20.915,0,41.831a6.745,6.745,0,0,0,.106,1.366,4.3,4.3,0,0,0,4.379,3.6q9.926.014,19.851,0,5.976,0,11.952,0a4.366,4.366,0,0,0,4.668-3.446c.292-.933.58-1.162,1.3-1.026" transform="translate(0 0)"/>
        <path id="Trazado_136962" data-name="Trazado 136962" d="M47,71.612a1.112,1.112,0,0,0-1.094,1.023A4.485,4.485,0,0,1,41.331,76.3q-16.044.01-32.088,0a4.52,4.52,0,0,1-4.685-4.679q-.013-21.438,0-42.876a4.508,4.508,0,0,1,4.679-4.674q16.044-.01,32.088,0a4.524,4.524,0,0,1,4.685,4.252c.1.942.319,1.146,1.245,1.137-.274.169-.264.435-.263.711C47,31.342,47,32.516,47,33.691a2.22,2.22,0,0,0-.764,2.067c.032,2.264.038,4.529,0,6.793a1.773,1.773,0,0,0,.89,1.886A3.992,3.992,0,0,0,47,46.122c-.027.844,0,1.689,0,2.534a1.981,1.981,0,0,0-.759,1.915q.03,7.431,0,14.862c0,.826.081,1.535.883,1.962A3.342,3.342,0,0,0,47,68.942c-.025.889,0,1.779,0,2.669" transform="translate(-2.629 -13.9)" fill="#98bbe6"/>
        <path id="Trazado_136963" data-name="Trazado 136963" d="M103.829,101.026c-.837-.074-1.1-.333-1.1-1.154q-.006-8.21-.007-16.42a1.027,1.027,0,0,1,.984-1.165,1.077,1.077,0,0,1,.947,1.216q-.009,8.174,0,16.349a1.047,1.047,0,0,1-.824,1.174" transform="translate(-59.335 -47.531)"/>
        <path id="Trazado_136964" data-name="Trazado 136964" d="M103.821,57.6c-.833-.075-1.094-.335-1.1-1.151-.006-2.784.01-5.568-.011-8.353a1.088,1.088,0,0,1,.985-1.241,1.134,1.134,0,0,1,.954,1.286c-.016,2.74-.011,5.481,0,8.222,0,.613-.18,1.074-.828,1.237" transform="translate(-59.329 -27.065)"/>
        <path id="Trazado_136965" data-name="Trazado 136965" d="M52.486,7.756a3.153,3.153,0,1,1-3.1-3.183,3.178,3.178,0,0,1,3.1,3.183" transform="translate(-26.674 -2.641)" fill="#edd98c"/>
        <path id="Trazado_136966" data-name="Trazado 136966" d="M32.907,14.868c-2.669,0-5.209,0-7.749.005-.323,0-.506-.036-.492-.434.028-.846.021-1.694,0-2.54-.008-.333.111-.43.435-.429,2.106.011,4.211.006,6.316.005.217,0,.411-.006.414.3a5.47,5.47,0,0,0,1.074,3.089" transform="translate(-14.247 -6.625)" fill="#9baeca"/>
        <path id="Trazado_136967" data-name="Trazado 136967" d="M63.109,14.868a5.494,5.494,0,0,0,1.075-3.09c0-.311.2-.3.415-.3,2.106,0,4.211.006,6.316-.005.325,0,.441.1.434.429-.019.846-.026,1.694,0,2.54.014.4-.171.435-.493.433-2.54-.009-5.08-.005-7.749-.005" transform="translate(-36.453 -6.625)" fill="#9baeca"/>
        <path id="Trazado_136968" data-name="Trazado 136968" d="M46.73,52.826q0,10.544,0,21.087c0,2.111-.993,3.095-3.114,3.095H12.088a2.662,2.662,0,0,1-2.981-2.95q0-21.259,0-42.518a2.639,2.639,0,0,1,2.94-2.916q15.867,0,31.734,0A2.655,2.655,0,0,1,46.73,31.6q0,10.612,0,21.225" transform="translate(-5.26 -16.533)"/>
        <path id="Trazado_136969" data-name="Trazado 136969" d="M47.44,55.382q0,10.579,0,21.159c0,1.035-.143,1.174-1.2,1.174h-31.4c-1.04,0-1.182-.141-1.182-1.186q0-21.09,0-42.181c0-1.036.137-1.169,1.195-1.169h31.4c1.054,0,1.183.128,1.183,1.182q0,10.51,0,21.021" transform="translate(-7.894 -19.164)" fill="#f4f2f7"/>
        <path id="Trazado_136970" data-name="Trazado 136970" d="M60.565,46.826c1.806,0,3.613,0,5.419,0,.766,0,1.173.332,1.183.931.011.623-.422.989-1.208.99q-5.385.006-10.769,0c-.787,0-1.226-.365-1.219-.98s.417-.939,1.243-.941c1.783,0,3.567,0,5.35,0" transform="translate(-31.175 -27.047)"/>
        <path id="Trazado_136971" data-name="Trazado 136971" d="M60.563,79.757c-1.806,0-3.612,0-5.418,0-.769,0-1.168-.329-1.175-.935s.418-.981,1.151-.983q5.453-.013,10.905,0c.729,0,1.151.4,1.14.993s-.414.922-1.185.924c-1.806.005-3.612,0-5.418,0" transform="translate(-31.174 -44.956)" fill="#010101"/>
        <path id="Trazado_136972" data-name="Trazado 136972" d="M60.566,108.971q2.675,0,5.35,0c.838,0,1.241.3,1.25.927s-.423.992-1.21.993q-5.384.009-10.769,0c-.786,0-1.225-.372-1.217-.988s.419-.932,1.246-.933q2.675,0,5.35,0" transform="translate(-31.175 -62.944)"/>
        <path id="Trazado_136973" data-name="Trazado 136973" d="M60.554,60.2c-1.783,0-3.567,0-5.35,0-.808,0-1.231-.337-1.233-.956s.437-.965,1.23-.966q5.385,0,10.769,0c.781,0,1.216.373,1.2,1-.019.593-.433.922-1.194.924-1.806.005-3.613,0-5.419,0" transform="translate(-31.175 -33.663)"/>
        <path id="Trazado_136974" data-name="Trazado 136974" d="M60.577,91.3q-2.572,0-5.143,0a3.292,3.292,0,0,1-.681-.044.879.879,0,0,1-.769-.976.867.867,0,0,1,.865-.887c.34-.03.685-.015,1.028-.015,3.36,0,6.721,0,10.081,0,.582,0,1.056.135,1.2.767.15.659-.337,1.151-1.162,1.157-1.806.013-3.612,0-5.417,0" transform="translate(-31.181 -51.624)" fill="#010101"/>
        <path id="Trazado_136975" data-name="Trazado 136975" d="M60.638,120.41q2.641,0,5.282,0c.8,0,1.235.335,1.246.947s-.415.974-1.212.975q-5.385.005-10.769,0c-.8,0-1.224-.354-1.214-.974s.444-.945,1.247-.947q2.71,0,5.419,0" transform="translate(-31.175 -69.55)"/>
        <path id="Trazado_136976" data-name="Trazado 136976" d="M23.278,49.457a1.371,1.371,0,0,1,1.089.5c.449.408.816,1.193,1.33,1.152.454-.037.855-.755,1.276-1.175.892-.889,1.779-1.783,2.674-2.669.533-.528,1.079-.593,1.5-.2.469.436.435.989-.125,1.553q-2.252,2.266-4.519,4.516c-.628.623-1.074.62-1.7,0-.686-.675-1.369-1.352-2.038-2.042a.882.882,0,0,1-.2-1.07.921.921,0,0,1,.708-.568" transform="translate(-12.978 -27.04)"/>
        <path id="Trazado_136977" data-name="Trazado 136977" d="M31.251,78.746a1.178,1.178,0,0,1-.4.912c-1.535,1.535-3.062,3.076-4.605,4.6a.981.981,0,0,1-1.6-.006q-1.006-.98-1.986-1.987A.972.972,0,1,1,24,80.887a11.846,11.846,0,0,1,1.013,1.021c.3.365.5.368.845.016,1.206-1.249,2.447-2.463,3.676-3.689a.946.946,0,0,1,1.117-.264.993.993,0,0,1,.6.776" transform="translate(-12.865 -44.988)"/>
        <path id="Trazado_136978" data-name="Trazado 136978" d="M31.015,109.941a.981.981,0,0,1-.365.748c-1.553,1.552-3.1,3.111-4.661,4.653a.959.959,0,0,1-1.553-.01q-1.012-.977-1.992-1.985a.985.985,0,0,1-.09-1.5c.416-.392.94-.343,1.453.134.033.031.063.066.1.1.46.4.817,1.19,1.338,1.158.45-.028.862-.739,1.283-1.156q1.412-1.4,2.815-2.812a.959.959,0,0,1,1.13-.226.882.882,0,0,1,.544.906" transform="translate(-12.734 -62.926)"/>
      </g>
    </g>
  </g>
</svg>
