<svg xmlns="http://www.w3.org/2000/svg" xmlns:xlink="http://www.w3.org/1999/xlink" width="105" height="105" viewBox="0 0 105 105">
  <defs>
    <clipPath id="clip-path">
      <rect id="Rect치ngulo_37611" data-name="Rect치ngulo 37611" width="65.965" height="65.964" fill="none"/>
    </clipPath>
  </defs>
  <g id="Grupo_159142" data-name="Grupo 159142" transform="translate(-3239 10910)">
    <rect id="Rect치ngulo_36243" data-name="Rect치ngulo 36243" width="105" height="105" rx="52.5" transform="translate(3239 -10910)" fill="#6b8dfc"/>
    <g id="Grupo_159141" data-name="Grupo 159141" transform="translate(3259 -10890)">
      <g id="Grupo_159140" data-name="Grupo 159140" clip-path="url(#clip-path)">
        <path id="Trazado_136633" data-name="Trazado 136633" d="M60.228,65.964H5.663c-.205-.134-.434-.036-.65-.067A5.562,5.562,0,0,1,.068,61.438C.053,61.315.1,61.18,0,61.073V44.343c.289-.678.451-.78,1.215-.767a1.245,1.245,0,0,1,.911,1.258c.015.278.011.558.011.836q0,6.982,0,13.963a3.856,3.856,0,0,0,4.218,4.193q23.872,0,47.743,0a1.179,1.179,0,0,0,.628-.07c.057-.171-.052-.291-.13-.413a6.941,6.941,0,0,1-1.014-3.862q.011-23.422,0-46.843c0-2.022-.3-2.321-2.293-2.321H4.323c-.258,0-.515-.009-.772.009A1.406,1.406,0,0,0,2.171,11.6a7.07,7.07,0,0,0-.033,1.028q0,13.222,0,26.446c0,.3,0,.6-.01.9a1.252,1.252,0,0,1-.9,1.269c-.76.026-.938-.085-1.226-.765V11.011a3.43,3.43,0,0,1,3.676-3.03c1.507-.011,1.383.155,1.405-1.442A21.119,21.119,0,0,1,5.2,3.074,3.428,3.428,0,0,1,8.847.01H39.834c.948,0,1.169.163,1.376.99a1.207,1.207,0,0,1-1.257,1.193c-.321.028-.643.015-.965.015H9.722c-1.885,0-2.3.416-2.308,2.3,0,.921.005,1.844,0,2.766,0,.487.211.706.694.694.278-.007.557,0,.836,0q21.484,0,42.968-.008a3.763,3.763,0,0,1,3.574,1.956,3.982,3.982,0,0,1,.449,2.046q-.009,9.07,0,18.14,0,9.649,0,19.3c0,.236.006.472.006.707,0,.4.2.557.592.588,1.414.113,2.1-.463,2.195-1.872.02-.3.011-.6.012-.9V30.88c0-.278-.01-.558.014-.835a1.165,1.165,0,0,1,1.05-1.181,1.145,1.145,0,0,1,1.172.985,3.861,3.861,0,0,1,.1,1.086q0,8.783,0,17.566c0,.193,0,.386-.015.579a3.872,3.872,0,0,1-4.215,3.959c-.879.011-.916.04-.916.9,0,2.038-.036,4.076.011,6.112a3.784,3.784,0,0,0,3.291,3.715,3.9,3.9,0,0,0,4.292-2.427,4.712,4.712,0,0,0,.239-1.772q0-19.529,0-39.057,0-8.075,0-16.15a4.032,4.032,0,0,0-.066-1.024,1.379,1.379,0,0,0-1.409-1.08,1.322,1.322,0,0,0-1.2,1.3c-.024.278-.013.558-.013.836q0,10.006,0,20.011a4.271,4.271,0,0,1-.11,1.277,1.138,1.138,0,0,1-1.138.947A1.17,1.17,0,0,1,58.747,25.4c-.02-.257-.011-.515-.011-.772q0-10.328,0-20.655a5.67,5.67,0,0,1,.048-1.156c.1-.471-.1-.611-.539-.608-1.437.009-2.874,0-4.311,0-2.96,0-5.92.007-8.88,0-1,0-1.331-.242-1.58-1.071C43.568.3,43.842.014,44.647.013,50.671.007,56.7.025,62.719,0a3.36,3.36,0,0,1,3.234,3.253c0,.15,0,.3,0,.45q0,28.233.013,56.467a5.664,5.664,0,0,1-3.4,5.363,3.654,3.654,0,0,1-1.551.363c-.26.032-.532-.069-.784.067" transform="translate(0 0)"/>
        <path id="Trazado_136634" data-name="Trazado 136634" d="M8.734,114.857a.114.114,0,0,0-.018-.115.731.731,0,0,1,.661.115Z" transform="translate(-3.715 -48.893)" fill="#505050"/>
        <path id="Trazado_136635" data-name="Trazado 136635" d="M105.628,114.742a.11.11,0,0,0-.018.115h-.643a.731.731,0,0,1,.661-.115" transform="translate(-44.739 -48.893)" fill="#505050"/>
        <path id="Trazado_136636" data-name="Trazado 136636" d="M1.791,51.155V48.621c.716-.165.912-.646.911-1.335q-.017-13.832-.007-27.664c0-1.533.547-2.077,2.1-2.077q23.835,0,47.671,0a2.058,2.058,0,0,1,1.663.506,1.94,1.94,0,0,1,.45,1.428q-.01,7.946,0,15.891,0,15.859-.007,31.717a6.189,6.189,0,0,0,1.487,4.324c-.168.188-.372.1-.546.1q-24.221.008-48.443.022a4.235,4.235,0,0,1-4.4-4.375c.09-4.909.02-9.821.032-14.732a1.1,1.1,0,0,0-.909-1.266" transform="translate(-0.763 -7.477)" fill="#e6ebf5"/>
        <path id="Trazado_136637" data-name="Trazado 136637" d="M46.459,1.7a10.6,10.6,0,0,0,2.536.125c.171.706.642.916,1.335.913,4.5-.017,9-.009,13.5-.009h.774a9.028,9.028,0,0,0-.318,3.569q-.019,9.774-.005,19.548c0,.923.139,1.117.94,1.353a3.473,3.473,0,0,1,0,2.538c-.8.235-.94.427-.94,1.354q0,9.168,0,18.336a2.119,2.119,0,0,1-2.956,2.209.231.231,0,0,1-.2-.265c0-.171,0-.343,0-.515q0-19.075,0-38.151a3.569,3.569,0,0,0-2.7-3.738,5.832,5.832,0,0,0-1.471-.1q-21.745,0-43.49,0c-.927,0-.822.118-.826-.817,0-1.158-.01-2.316,0-3.474a1.626,1.626,0,0,1,1.865-1.841q15.311,0,30.623,0c.913,0,1.177-.207,1.33-1.029" transform="translate(-5.385 -0.723)" fill="#d7e1f0"/>
        <path id="Trazado_136638" data-name="Trazado 136638" d="M101.237,30.5V27.962c.818-.215.989-.448.989-1.387q0-10.423,0-20.845c0-.236-.006-.472.009-.707A1.566,1.566,0,0,1,103.757,3.5a1.629,1.629,0,0,1,1.582,1.413,3.567,3.567,0,0,1,.018.514q0,27.986,0,55.972a3.814,3.814,0,0,1-2.236,3.679,4.041,4.041,0,0,1-4.424-.417,3.665,3.665,0,0,1-1.553-3.035c-.025-2.273,0-4.547-.02-6.819,0-.425.15-.5.52-.484a7.97,7.97,0,0,0,1.54-.045,3.575,3.575,0,0,0,3.037-3.794q.013-7.012,0-14.025c0-1.566.006-3.131,0-4.7,0-.814-.2-1.055-.987-1.258" transform="translate(-41.398 -1.49)" fill="#a1b8e1"/>
        <path id="Trazado_136639" data-name="Trazado 136639" d="M31.009,21.2H53.267c1.131,0,1.412.277,1.412,1.392q0,8.3,0,16.6c0,1.051-.29,1.351-1.322,1.351q-22.387,0-44.774,0c-1.051,0-1.35-.294-1.351-1.325q0-8.331,0-16.662c0-1.067.3-1.352,1.39-1.352H31.009" transform="translate(-3.082 -9.036)"/>
        <path id="Trazado_136640" data-name="Trazado 136640" d="M27.383,72.047q0,4.954,0,9.909c0,1.119-.277,1.393-1.409,1.393q-8.686,0-17.372,0c-1.09,0-1.37-.28-1.37-1.369q0-9.973,0-19.946c0-1.125.271-1.39,1.409-1.39H26.012c1.084,0,1.369.284,1.37,1.366q0,5.019,0,10.037" transform="translate(-3.082 -25.847)"/>
        <path id="Trazado_136641" data-name="Trazado 136641" d="M31.023,104.14H53.208c1,0,1.459.29,1.478.928.02.669-.473,1-1.487,1H8.7a2.081,2.081,0,0,1-.825-.087.9.9,0,0,1-.61-.956.877.877,0,0,1,.8-.865,5.463,5.463,0,0,1,.706-.021H31.023" transform="translate(-3.095 -44.386)"/>
        <path id="Trazado_136642" data-name="Trazado 136642" d="M60.021,69.8H49.469a3.655,3.655,0,0,1-.578-.014.958.958,0,0,1-.033-1.9,3.019,3.019,0,0,1,.577-.017H70.666a3.025,3.025,0,0,1,.578.016.958.958,0,0,1-.03,1.9,3.522,3.522,0,0,1-.578.014H60.021" transform="translate(-20.477 -28.923)"/>
        <path id="Trazado_136643" data-name="Trazado 136643" d="M60.02,91.545H49.4a2.61,2.61,0,0,1-.577-.02.922.922,0,0,1-.787-.958.91.91,0,0,1,.751-.921,2.761,2.761,0,0,1,.64-.031q10.616,0,21.231,0a3.073,3.073,0,0,1,.578.017.959.959,0,0,1-.027,1.9,3.531,3.531,0,0,1-.578.012H60.02" transform="translate(-20.476 -38.194)"/>
        <path id="Trazado_136644" data-name="Trazado 136644" d="M60.085,60.642h10.55a5.55,5.55,0,0,1,.578.012.884.884,0,0,1,.838.832.9.9,0,0,1-.629,1,2.12,2.12,0,0,1-.826.081q-10.549,0-21.1,0a2.088,2.088,0,0,1-.826-.083.9.9,0,0,1-.623-1.008.885.885,0,0,1,.843-.828c.191-.018.386-.011.578-.011H60.085" transform="translate(-20.475 -25.846)"/>
        <path id="Trazado_136645" data-name="Trazado 136645" d="M60.021,77.025q-5.371,0-10.742,0a1.169,1.169,0,0,1-1-.32.945.945,0,0,1,.388-1.527,2.259,2.259,0,0,1,.826-.085h21.1c.107,0,.215,0,.322,0,.724.031,1.179.436,1.15,1.02-.028.564-.457.907-1.173.908q-5.435.005-10.87,0" transform="translate(-20.473 -32.006)"/>
        <path id="Trazado_136646" data-name="Trazado 136646" d="M60.047,82.383q5.339,0,10.678,0a1.38,1.38,0,0,1,.927.177.924.924,0,0,1,.4.893.938.938,0,0,1-.6.772,2.128,2.128,0,0,1-.825.086H49.461c-.129,0-.258.006-.386,0a1,1,0,0,1-1.048-.989.979.979,0,0,1,1.085-.935c2.38-.01,4.76,0,7.14-.005h3.795" transform="translate(-20.47 -35.112)"/>
        <path id="Trazado_136647" data-name="Trazado 136647" d="M60.017,98.78q-5.371,0-10.742,0a1.14,1.14,0,0,1-1.079-.425.929.929,0,0,1,.532-1.436,2.831,2.831,0,0,1,.762-.069q10.549-.005,21.1,0c.129,0,.258-.005.386,0,.674.038,1.113.451,1.086,1.016a.982.982,0,0,1-1.108.909q-5.468.009-10.935,0" transform="translate(-20.47 -41.278)"/>
        <path id="Trazado_136648" data-name="Trazado 136648" d="M32.435,24.553c7.012,0,14.024.01,21.036-.016.611,0,.718.183.715.744q-.033,7.076,0,14.152c0,.464-.089.613-.589.613q-21.2-.022-42.393,0c-.528,0-.628-.163-.626-.65q.026-7.108,0-14.217c0-.5.121-.638.632-.637q10.615.027,21.229.011" transform="translate(-4.507 -10.458)" fill="#fedf7c"/>
        <path id="Trazado_136649" data-name="Trazado 136649" d="M10.586,73.418c0-2.938.01-5.877-.011-8.815,0-.472.107-.616.6-.615q7.56.029,15.12,0c.5,0,.594.157.593.62q-.022,8.815,0,17.63c0,.468-.1.619-.6.617q-7.56-.028-15.12,0c-.5,0-.6-.159-.6-.622.02-2.938.01-5.877.01-8.815" transform="translate(-4.507 -27.273)" fill="#de75a4"/>
        <path id="Trazado_136650" data-name="Trazado 136650" d="M54.757,35.186c.376-1.878.713-3.554,1.049-5.229.042-.21.078-.421.129-.629a.953.953,0,0,1,1.153-.83.968.968,0,0,1,.734,1.226c-.343,1.742-.694,3.483-1.043,5.224-.231,1.153-.473,2.305-.694,3.461a1.178,1.178,0,0,1-2.324.123c-.578-1.873-1.153-3.746-1.734-5.637-.274.152-.252.421-.318.628-.519,1.63-1.016,3.265-1.527,4.9-.235.75-.658,1.095-1.257,1.054s-.956-.419-1.113-1.207q-.844-4.249-1.68-8.5c-.136-.694.131-1.157.707-1.293.557-.13,1.016.2,1.161.9.344,1.654.663,3.314.994,4.972.045.225.1.449.183.8l1.731-5.558c.032-.1.068-.2.094-.307a.956.956,0,0,1,.944-.814,1.011,1.011,0,0,1,1,.838q.727,2.359,1.448,4.72c.1.326.2.651.361,1.156" transform="translate(-19.647 -12.124)"/>
        <path id="Trazado_136651" data-name="Trazado 136651" d="M20.2,35.469V30.253c0-.3-.015-.6,0-.9a.948.948,0,0,1,1.864-.182,2.1,2.1,0,0,1,.057.571q.036,4.082.066,8.165a1.672,1.672,0,0,1-.195.991,1.064,1.064,0,0,1-1.82-.078c-.807-1.133-1.588-2.285-2.379-3.429-.618-.895-1.235-1.79-1.968-2.854v1.608c0,1.372,0,2.743,0,4.115,0,.783-.385,1.241-1,1.22-.588-.02-.927-.458-.928-1.22,0-2.851,0-5.7-.005-8.551,0-.535.1-.989.668-1.176.608-.2.958.152,1.27.606,1.418,2.064,2.844,4.124,4.368,6.332" transform="translate(-5.92 -12.13)"/>
        <path id="Trazado_136652" data-name="Trazado 136652" d="M73.495,39.478a5.181,5.181,0,0,1-3.488-1.527.958.958,0,0,1-.1-1.468.98.98,0,0,1,1.43.081,3.116,3.116,0,0,0,3.06.868A1.309,1.309,0,0,0,75.49,36.31c.068-.648-.407-.966-.9-1.189-.817-.369-1.661-.678-2.487-1.026a2.72,2.72,0,0,1-1.964-2.879,3.1,3.1,0,0,1,2.638-2.682,4.957,4.957,0,0,1,3.82.928.968.968,0,0,1,.382,1.428.992.992,0,0,1-1.469.16,3.06,3.06,0,0,0-2.541-.577,1.057,1.057,0,0,0-.9.955c-.038.522.337.723.768.886.839.318,1.678.641,2.494,1.012,1.862.846,2.6,2.577,1.819,4.186a3.854,3.854,0,0,1-3.648,1.967" transform="translate(-29.669 -12.127)"/>
        <path id="Trazado_136653" data-name="Trazado 136653" d="M32.1,33.868c0-1.371,0-2.743,0-4.115,0-1,.32-1.324,1.3-1.328,1.092-.005,2.186-.008,3.279,0,.749.006,1.191.374,1.2.966s-.436.955-1.184.961c-.729.006-1.458.018-2.186-.006-.356-.011-.5.087-.479.464a16.067,16.067,0,0,1,0,1.671c-.02.383.087.538.5.517.62-.032,1.243-.014,1.864-.006.755.009,1.2.363,1.211.943.01.6-.46.977-1.246.985-.6.006-1.2.03-1.8-.009-.444-.029-.557.144-.522.55.059.675-.283,1.581.138,1.966.368.335,1.26.1,1.92.11.3.005.6-.023.9.011a.9.9,0,0,1,.878.932.859.859,0,0,1-.839.961c-1.348.047-2.7.042-4.049.005-.57-.016-.868-.456-.872-1.143-.009-1.479,0-2.957,0-4.436" transform="translate(-13.68 -12.113)"/>
      </g>
    </g>
  </g>
</svg>
