<svg xmlns="http://www.w3.org/2000/svg" width="397.271" height="429.035" viewBox="0 0 397.271 429.035">
  <g id="Grupo_80932" data-name="Grupo 80932" transform="translate(0)">
    <path id="Trazado_141266" data-name="Trazado 141266" d="M429.008,102.18C425.743,51.665,387,3.434,334.518.442c-60.274-4.617-115.6,28.436-175.638,28.786-30.615,2.625-59.327-9.1-89.163-12.883C2.332,13.872-7.935,93.06,4.632,144.1,57.633,384.735,432.678,352,429.008,102.18Z" transform="translate(345.874 0.001) rotate(90)" fill="#ffe891"/>
    <path id="Trazado_114646" data-name="Trazado 114646" d="M71.039,211.439c2.462,38.1,31.684,74.472,71.261,76.728,45.457,3.482,87.181-21.446,132.461-21.71,23.089-1.979,44.743,6.861,67.244,9.716,50.82,1.865,58.563-57.856,49.085-96.351C351.118-1.656,68.271,23.035,71.039,211.439Z" transform="translate(-16.115 -19.933)" fill="#6b8dff"/>
    <g id="Grupo_80927" data-name="Grupo 80927" transform="translate(0 0)">
      <path id="Trazado_114647" data-name="Trazado 114647" d="M475.336,376.821l60.707,3.105,16.189,107.73H492.785l-13.347-82.483L448.66,487.656H390.27l30.377-123.97Z" transform="translate(-329.849 -62.077)" fill="#af3737"/>
      <g id="Grupo_80925" data-name="Grupo 80925">
        <path id="Trazado_114648" data-name="Trazado 114648" d="M411.98,355.73c37.842,28.557,75.693,12.059,75.693,12.059l13.078-167.32a17.824,17.824,0,0,1-6.584,4.793c-7.421,3.074-14.724-.109-14.724-.109-10.413-3.865-13.914-9.849-15.079-13.587l-.318-1.155v-.036c-.309-1.373-.427-1.746-.427-1.746l1.573-.118-6.2-1.6Z" transform="translate(-298.111 -46.069)" fill="#6bb2ab"/>
        <path id="Trazado_114649" data-name="Trazado 114649" d="M405.591,212.721a2.1,2.1,0,0,1,2.309-1.843l54,12.493,15.43,3.57a2.154,2.154,0,0,1,1.842,2.309,2.1,2.1,0,0,1-2.308,1.842l-54-12.494-15.43-3.57A2.154,2.154,0,0,1,405.591,212.721Z" transform="translate(-270.726 -48.236)" fill="#f4e9dc"/>
        <path id="Trazado_114650" data-name="Trazado 114650" d="M406.179,233.883l57.882,19.37,16.4,5.487c2.549.854,1.03,4.745-1.518,3.892l-57.882-19.369-16.4-5.487C402.112,236.921,403.631,233.031,406.179,233.883Z" transform="translate(-271.281 -50.311)" fill="#f4e9dc"/>
        <path id="Trazado_114651" data-name="Trazado 114651" d="M407.676,269.621a2.107,2.107,0,0,1,2.308-1.843l66.968,11.6,18.9,3.274a2.138,2.138,0,0,1,1.843,2.309,2.109,2.109,0,0,1-2.309,1.843l-66.968-11.6-18.9-3.274A2.138,2.138,0,0,1,407.676,269.621Z" transform="translate(-291.141 -53.39)" fill="#f4e9dc"/>
        <path id="Trazado_114652" data-name="Trazado 114652" d="M415.965,295.977a2.139,2.139,0,0,1,2.7-1.187l62.263,16.957,17.674,4.814a2.1,2.1,0,0,1,1.187,2.7,2.139,2.139,0,0,1-2.7,1.187L434.827,303.5l-17.675-4.814A2.1,2.1,0,0,1,415.965,295.977Z" transform="translate(-300.79 -55.829)" fill="#f4e9dc"/>
        <path id="Trazado_114653" data-name="Trazado 114653" d="M424.008,330.889q29.81,4.2,59.863,6.307,8.433.591,16.877,1.014c2.682.136,2.214,4.287-.467,4.152q-30.065-1.517-59.976-5.126-8.392-1.015-16.764-2.2C420.888,334.666,421.336,330.512,424.008,330.889Z" transform="translate(-308.799 -59.105)" fill="#f4e9dc"/>
        <path id="Trazado_114654" data-name="Trazado 114654" d="M426.266,350.438q31.752,4.829,63.187,11.5,8.86,1.881,17.69,3.909a2.153,2.153,0,0,1,1.843,2.309,2.1,2.1,0,0,1-2.309,1.842q-31.3-7.181-62.989-12.537-8.931-1.507-17.888-2.868C423.152,354.188,423.6,350.033,426.266,350.438Z" transform="translate(-317.314 -60.875)" fill="#f4e9dc"/>
        <path id="Trazado_114655" data-name="Trazado 114655" d="M578.425,53.613a82.068,82.068,0,0,0,13.408,16.45A80.953,80.953,0,0,0,604.786,95.4c2.2-2.337,9.261-8.789,19.8-8.575,1.628-5.914.417-12.345,1.641-18.4.968-4.806,3.48-9.357,3.4-14.26a2.835,2.835,0,0,0-.856-2.334,2.047,2.047,0,0,0-2.014-.113,5.013,5.013,0,0,0-1.635,1.309c-2.654,2.942-4.316,6.606-5.878,10.241A145.548,145.548,0,0,0,602.437,33.9a4.766,4.766,0,0,0-1.855-1.722,1.657,1.657,0,0,0-2.174.738,2.4,2.4,0,0,0,.223,1.676q4.385,11.137,8.766,22.29l-.043.016a124.585,124.585,0,0,0-12.047-19.647,20.869,20.869,0,0,0-3.739-4.1,2.378,2.378,0,0,0-1.984-.647,1.747,1.747,0,0,0-1.127,1.625,5.051,5.051,0,0,0,.444,2.044c2.42,6.426,5.264,12.689,8.161,18.909q-5.282-8.358-11.178-16.321c-.711-.963-1.836-2.04-2.928-1.547-.912.4-1.072,1.63-.944,2.621a18.325,18.325,0,0,0,2.508,6.3c2.678,4.827,5.432,9.609,8.193,14.388a49.865,49.865,0,0,0-11.431-9.566,4.827,4.827,0,0,0-1.633-.719,1.718,1.718,0,0,0-1.638.521C577.375,51.564,577.885,52.738,578.425,53.613Z" transform="translate(-577.716 -32.045)" fill="#f99958"/>
        <path id="Trazado_114656" data-name="Trazado 114656" d="M362.183,197.476l2.89-13.423s7.476,6.783,8.453,16.3c0,0,26.989,21.593,33.5,30.647s20.382,72.313,20.482,79.88c.158,12.772-51.372,58.288-51.372,58.288,7.317,8.47,1.554,21.283,1.554,21.283-20.44,8.98-37.773,3.091-37.773,3.091Zm23.085,111.4-12.619-42.292-2.666,66.569Z" transform="translate(-159.325 -45.81)" fill="#f2b34e"/>
        <path id="Trazado_114657" data-name="Trazado 114657" d="M440.98,96.83s15.17,67.29,29.411,78.749,49.847,47.573,49.847,47.573l-6.5,58.123-14.551,57.531s-6.657,5.247-5.884,16.861,37.769,26.01,37.769,26.01L550.9,279.5l32.322-96.974.919-2.747,9.185-14.76c-4.756-1.173-14.56,3.647-14.56,3.647l-43.353-4.029-41.789-17.871-26.629-55.2c-.5-.136-.991-.264-1.473-.373-11.459-2.61-20.617,2.847-23.546,4.9C441.326,96.548,440.98,96.83,440.98,96.83Z" transform="translate(-417.055 -37.338)" fill="#f2b34e"/>
        <path id="Trazado_114658" data-name="Trazado 114658" d="M459.05,218.777a122.378,122.378,0,0,1,6.858-26.742,119.592,119.592,0,0,1,6.553-14.276c.253-.467,1.034-.17.778.3a120.91,120.91,0,0,0-14.422,52.777,118.957,118.957,0,0,0,.419,15.591c.05.533-.775.668-.825.131A120.935,120.935,0,0,1,459.05,218.777Z" transform="translate(-312.411 -45.219)" fill="#ea8c11"/>
        <path id="Trazado_114659" data-name="Trazado 114659" d="M399.182,271.829A151.934,151.934,0,0,0,417.2,203.763c.013-.537.843-.442.83.094a152.516,152.516,0,0,1-18.072,68.276C399.709,272.6,398.928,272.3,399.182,271.829Z" transform="translate(-203.707 -47.562)" fill="#ea8c11"/>
        <path id="Trazado_114660" data-name="Trazado 114660" d="M519.179,200.333q.552,10.979,1.1,21.958l.313,6.215c.026.531-.8.668-.826.13q-.553-10.979-1.1-21.959l-.313-6.214C518.327,199.932,519.151,199.8,519.179,200.333Z" transform="translate(-414.698 -47.253)" fill="#ea8c11"/>
        <path id="Trazado_114661" data-name="Trazado 114661" d="M523.42,205.683q3.73,10.8,6.5,21.9c.13.521-.7.649-.825.131q-2.735-10.982-6.431-21.69C522.485,205.524,523.244,205.176,523.42,205.683Z" transform="translate(-427.923 -47.746)" fill="#ea8c11"/>
        <path id="Trazado_114662" data-name="Trazado 114662" d="M551.964,158.923a28.7,28.7,0,0,1,6.5-6.037c.444-.3.976.346.529.646a28.018,28.018,0,0,0-6.355,5.882C552.306,159.835,551.63,159.346,551.964,158.923Z" transform="translate(-483.749 -42.981)" fill="#ea8c11"/>
        <path id="Trazado_114663" data-name="Trazado 114663" d="M400.918,261.22,401,273.6c0,.536-.827.439-.83-.094l-.078-12.384C400.084,260.591,400.915,260.687,400.918,261.22Z" transform="translate(-187.542 -52.757)" fill="#ea8c11"/>
        <path id="Trazado_114664" data-name="Trazado 114664" d="M405.373,400.918c2.79,1.044,8.687-15.144,8.687-15.144s3.583,10.5,11.535,13.164l2.447-14.284.167-.936a2,2,0,0,1-.209-.158,51.585,51.585,0,0,1-13.214-15.913c.092-.125.184-.242.276-.367-.351.217-.693.459-1.036.709a18.1,18.1,0,0,0-6.19,8.955C403.309,390.309,402.583,399.874,405.373,400.918Z" transform="translate(-218.068 -62.402)" fill="#f99958"/>
        <path id="Trazado_114665" data-name="Trazado 114665" d="M396.7,366.04c.034.059.066.125.1.184a53.629,53.629,0,0,0,3.032,5,52.57,52.57,0,0,0,10.984,11.661c1.387,1.078,2.832,2.088,4.319,3.024a.914.914,0,0,0,.659-.05c.493-.385.986-.76,1.479-1.144a.416.416,0,0,0-.527-.644c-.442.343-.885.677-1.328,1.02a49.37,49.37,0,0,1-4.435-3.141,2,2,0,0,1-.209-.158,51.583,51.583,0,0,1-13.214-15.913c.092-.126.184-.242.276-.367q6.566-8.758,13.666-17.082c.35-.409-.326-.9-.677-.493q-7.293,8.545-14.017,17.558a.391.391,0,0,0-.058.117A.346.346,0,0,0,396.7,366.04Z" transform="translate(-200.842 -60.637)" fill="#ea8c11"/>
        <path id="Trazado_114666" data-name="Trazado 114666" d="M401.078,387.912c1.476,5.964,6.365,10.2,11.437,13.225,1.576.939,3.2,1.793,4.834,2.628.475.242.176,1.023-.3.778-5.653-2.888-11.434-6.2-14.821-11.776a16.926,16.926,0,0,1-1.972-4.724C400.124,387.521,400.95,387.394,401.078,387.912Z" transform="translate(-204.272 -64.241)" fill="#ea8c11"/>
        <path id="Trazado_114667" data-name="Trazado 114667" d="M612.808,57.054a28.388,28.388,0,0,1,1.3,3.651.419.419,0,0,1-.346.477.428.428,0,0,1-.478-.347,26.618,26.618,0,0,0-1.24-3.435A.418.418,0,0,1,612.808,57.054Z" transform="translate(-593.398 -34.288)" fill="#d36d29"/>
        <path id="Trazado_114668" data-name="Trazado 114668" d="M600.83,64.708a46.3,46.3,0,0,1,15.793-5.731.418.418,0,0,1,.131.825,45.653,45.653,0,0,0-15.579,5.667C600.712,65.741,600.371,64.977,600.83,64.708Z" transform="translate(-586.004 -34.483)" fill="#d36d29"/>
        <path id="Trazado_114669" data-name="Trazado 114669" d="M588.745,71.923A34.591,34.591,0,0,1,591.4,65.79a.421.421,0,0,1,.584-.093.427.427,0,0,1,.092.584,33.46,33.46,0,0,0-2.555,5.945C589.358,72.738,588.581,72.435,588.745,71.923Z" transform="translate(-550.25 -35.085)" fill="#d36d29"/>
        <path id="Trazado_114670" data-name="Trazado 114670" d="M606.6,69.639c.355-.4,1.034.09.676.491a24.7,24.7,0,0,0-5.89,11.992c-.1.525-.927.437-.83-.094A25.494,25.494,0,0,1,606.6,69.639Z" transform="translate(-576.235 -35.436)" fill="#d36d29"/>
        <path id="Trazado_114671" data-name="Trazado 114671" d="M512.221,375.581a54.339,54.339,0,0,0,18.865-11.327,53.422,53.422,0,0,0,4.393-4.567c.347-.407,1.026.081.676.491A55.134,55.134,0,0,1,518.436,373.9a54.4,54.4,0,0,1-5.87,2.443C512.062,376.518,511.714,375.758,512.221,375.581Z" transform="translate(-424.551 -61.701)" fill="#ea8c11"/>
      </g>
      <g id="Grupo_80926" data-name="Grupo 80926" transform="translate(166.162 66.078)">
        <path id="Trazado_114672" data-name="Trazado 114672" d="M379.735,123.919l-4.76,12.5,46,17.521,4.76-12.5a26.712,26.712,0,0,0,1.83-10.109,7.815,7.815,0,0,0,3.828-1.742,3.084,3.084,0,0,0,1.141-3.418,3.958,3.958,0,0,0-2.646-2.064c1.4-1.014,2.714-2.479,1.851-4.273s-2.839-2.118-4.644-2.171c1.051-1.914,1.978-4.324.44-6.223a3.342,3.342,0,0,0-3.115-1.115,6.7,6.7,0,0,0-2.585,1.036,10.329,10.329,0,0,0-.267-5.259,1.957,1.957,0,0,0-1.618-1.385,3.155,3.155,0,0,0-2.266.835,23.1,23.1,0,0,1-4.38,2.864,20.253,20.253,0,0,1-2.559.992C398.261,105.035,385.009,110.07,379.735,123.919Z" transform="translate(-362.581 -104.702)" fill="#af3737"/>
        <path id="Trazado_114673" data-name="Trazado 114673" d="M386.036,146.058c.308.153.629.294.973.424l-1.4,3.685a19.93,19.93,0,0,0-1.294,7.364,20.279,20.279,0,0,0,1.348,6.975l0,.008a17.7,17.7,0,0,0,.785,1.764,20,20,0,0,0,25.2,9.8,20.549,20.549,0,0,0,2.059-.923,20.038,20.038,0,0,0,9.559-10.688l1.4-3.687a11.778,11.778,0,0,0,1.676.5c9.4,2.086,14.178-9.768,11.016-14.136-.087-.123-.185-.241-.279-.348a4.237,4.237,0,0,0-4.639-1.525,6.836,6.836,0,0,0-1.886.846l.331-12.343a52.288,52.288,0,0,1-15.091-3.514c-1.686-.642-3.168-1.278-4.47-1.9a31.431,31.431,0,0,1-7.617-4.689,68.614,68.614,0,0,1-6.55,5.72c-.076.06-.161.117-.227.173a20.055,20.055,0,0,1-2.326,1.554c-.16.091-.308.177-.466.26a9.681,9.681,0,0,1-1.5.688,1.563,1.563,0,0,1-.166.062,6.893,6.893,0,0,0-.518-1.574,4.574,4.574,0,0,0-2.927-2.687,4.955,4.955,0,0,0-2.44,0C381.192,129.044,376.8,141.636,386.036,146.058Z" transform="translate(-373.372 -106.42)" fill="#f99958"/>
        <path id="Trazado_114674" data-name="Trazado 114674" d="M407.74,189.6l.091.309c1.164,3.738,4.665,9.722,15.079,13.587,0,0,7.3,3.183,14.724.109a17.824,17.824,0,0,0,6.584-4.793l.218-2.737.982-4.565,2.656-12.287a20.051,20.051,0,0,1-28.047-10.641l-2.183,3.51-9.185,14.76Z" transform="translate(-407.74 -110.487)" fill="#f99958"/>
        <path id="Trazado_114675" data-name="Trazado 114675" d="M407.747,168.582s.525,21.73,25.393,22.926l2.651-12.288a20.05,20.05,0,0,1-28.045-10.638Z" transform="translate(-395.464 -110.487)" fill="#d36d29"/>
        <path id="Trazado_114676" data-name="Trazado 114676" d="M409.256,156.2q3.228,1.813,6.523,3.5,1.648-8.023,3.53-15.994c.132-.559.984-.288.852.269q-1.948,8.235-3.642,16.526c-.064.311-.439.358-.669.24q-3.577-1.827-7.078-3.794C408.269,156.671,408.756,155.921,409.256,156.2Z" transform="translate(-380.586 -108.207)" fill="#d36d29"/>
        <ellipse id="Elipse_4728" data-name="Elipse 4728" cx="3.511" cy="3.511" rx="3.511" ry="3.511" transform="translate(41.022 48.824)" fill="#d36d29"/>
        <ellipse id="Elipse_4729" data-name="Elipse 4729" cx="3.511" cy="3.511" rx="3.511" ry="3.511" transform="translate(15.771 36.226)" fill="#d36d29"/>
        <ellipse id="Elipse_4730" data-name="Elipse 4730" cx="2.516" cy="3.107" rx="2.516" ry="3.107" transform="translate(46.921 46.513) rotate(-153.485)" fill="#36344c"/>
        <ellipse id="Elipse_4731" data-name="Elipse 4731" cx="2.516" cy="3.107" rx="2.516" ry="3.107" transform="translate(29.548 38.607) rotate(-153.485)" fill="#36344c"/>
        <path id="Trazado_114677" data-name="Trazado 114677" d="M394.468,143.12a1.806,1.806,0,0,1,1.267-.462l.472.083a1.777,1.777,0,0,1,.788.5l3.091,2.715a1.788,1.788,0,0,1,.462,1.267,1.828,1.828,0,0,1-.586,1.26,1.806,1.806,0,0,1-1.267.462l-.473-.082a1.78,1.78,0,0,1-.787-.5l-3.092-2.715a1.79,1.79,0,0,1-.462-1.266A1.832,1.832,0,0,1,394.468,143.12Z" transform="translate(-347.611 -108.139)" fill="#36344c"/>
        <path id="Trazado_114678" data-name="Trazado 114678" d="M421.151,136.4a1.8,1.8,0,0,0-.393-1.29l-.349-.327a1.772,1.772,0,0,0-.877-.326l-4.028-.838a1.79,1.79,0,0,0-1.29.392,1.826,1.826,0,0,0-.654,1.227,1.807,1.807,0,0,0,.392,1.29l.35.327a1.772,1.772,0,0,0,.877.326l4.028.838a1.79,1.79,0,0,0,1.29-.392A1.827,1.827,0,0,0,421.151,136.4Z" transform="translate(-386.111 -107.32)" fill="#36344c"/>
        <path id="Trazado_114679" data-name="Trazado 114679" d="M419.193,163.364a7.268,7.268,0,0,0,5.1,5.1c2.089.567,5.087.284,5.471-2.331.376-2.539-2-4.184-4.268-4.335-.008,0-.016.009-.026.009a6.619,6.619,0,0,0-.9-2.874,3.147,3.147,0,0,0-3.041-1.821C418.858,157.584,418.633,161.3,419.193,163.364Z" transform="translate(-399.662 -109.446)" fill="#f4e9dc"/>
      </g>
    </g>
    <g id="Grupo_80931" data-name="Grupo 80931" transform="translate(179.849 84.612)">
      <g id="Grupo_80928" data-name="Grupo 80928" transform="translate(45.739 193.233)">
        <path id="Trazado_114680" data-name="Trazado 114680" d="M252.845,485.29h48.427l13.046-81.615,14.158,81.615H373.4s2.879-51.874-.223-92.227c-1.639-21.422-7.955-36.734-13.514-46.391,0,0-3.919,9.405-11.373,12.269-15.034,5.783-33.634,7.362-51.619-19.317L272.8,337.556a28.762,28.762,0,0,0-1.862,2.339,57.109,57.109,0,0,0-7.008,14.954v.016C251.954,391.3,252.845,485.29,252.845,485.29Z" transform="translate(-252.83 -337.556)" fill="#6bb2ab"/>
        <path id="Trazado_114681" data-name="Trazado 114681" d="M311.053,343.666l.241,27.478.064,7.246,5.684.087q-.437-13.247-.873-26.493-.126-3.8-.251-7.6c-.017-.53.808-.668.825-.131q.445,13.49.889,26.981l.251,7.6a.428.428,0,0,1-.459.481l-6.523-.1c-.245,0-.367-.255-.369-.462l-.241-27.479-.067-7.7C310.218,343.037,311.048,343.133,311.053,343.666Z" transform="translate(-248.289 -338.069)" fill="#389688"/>
        <path id="Trazado_114682" data-name="Trazado 114682" d="M292.619,403.383l15.012-15.465,4.279-4.407c.375-.387.9.265.529.646l-15.012,15.465-4.279,4.408C292.773,404.417,292.248,403.766,292.619,403.383Z" transform="translate(-226.847 -341.707)" fill="#389688"/>
        <path id="Trazado_114683" data-name="Trazado 114683" d="M293.29,404.959q6.679-2.507,13.571-4.377c.517-.141.645.686.13.825q-6.776,1.84-13.355,4.313C293.134,405.907,292.787,405.148,293.29,404.959Z" transform="translate(-222.102 -343.262)" fill="#389688"/>
      </g>
      <g id="Grupo_80929" data-name="Grupo 80929" transform="translate(21.921)">
        <path id="Trazado_114684" data-name="Trazado 114684" d="M286.965,228.569c4.377,12.947,21.25,11.895,28.567,22.378,15.954,18.026,21.7,5.112,36.252-4.385,11.193-4.954,26.02,1.2,35.3-8.5,8.228-11.778-1.7-21.367,11.886-33.8,6.783-9.188-2.565-18.845-4.2-28.133-2.264-11.886-.334-25.168-6.924-35.877-9.681-15.712-31.625-20.691-45.173-7.843-6.574,5.112-7.928,13.239-10.525,20.682A26.662,26.662,0,0,1,322.54,165.9c-12.847,9.246-8.653,7.133-12.195,26.019C302.661,206.366,279.974,204.963,286.965,228.569Z" transform="translate(-285.645 -125.082)" fill="#36344c"/>
        <path id="Trazado_114685" data-name="Trazado 114685" d="M291.43,231.658c76.188,20.415,100.019-15.62,103.845-22.594.167-.309.292-.577.385-.76a3.451,3.451,0,0,0,.184-.376l-22.662-1.938-.016-2-.15-12.83a18.615,18.615,0,0,1-26.178-.71l-4.06,14.977c-7.209,1.044-21.793,3.283-30,5.438-11.2,2.949-18.059,15.337-18.059,15.337Z" transform="translate(-285.34 -131.002)" fill="#d36d29"/>
        <path id="Trazado_114686" data-name="Trazado 114686" d="M367.907,239.327l-12.364-29.811-2.912.517,1.072,29.294S357.457,243.971,367.907,239.327Z" transform="translate(-313.063 -132.728)" fill="#f2b34e"/>
        <path id="Trazado_114687" data-name="Trazado 114687" d="M316.41,190.457s6.934,10.973,26.288,10.46l-.113-9.757a18.607,18.607,0,0,1-26.176-.7Z" transform="translate(-254.913 -131.002)" fill="#aa3617"/>
        <path id="Trazado_114688" data-name="Trazado 114688" d="M308.78,169.511l-.227,3.49a17.9,17.9,0,0,0,35.717,2.309l.227-3.49c9.961.641,11.265-11.86,7.216-14.9-3.034-2.278-5.409.126-6.111,1-.149.176-17.611-9.325-24.385-16.413-.87-.913-1.714-1.84-2.527-2.8l-.1.088c-.217.841-.467,1.671-.741,2.5a41.809,41.809,0,0,1-8.16,14.307l-.022.3s-2.138-4.333-6.113-2.09a5.46,5.46,0,0,0-2.16,2.636c-.072.167-.137.345-.2.522C299.559,161.561,301.171,169.018,308.78,169.511Z" transform="translate(-251.704 -126.315)" fill="#d36d29"/>
        <path id="Trazado_114689" data-name="Trazado 114689" d="M325.419,173.76q3.269.372,6.55.622-1.415-7.14-2.62-14.318c-.085-.5.707-.576.791-.074q1.241,7.417,2.71,14.794c.055.276-.236.445-.465.427q-3.56-.265-7.106-.669C324.772,174.484,324.912,173.7,325.419,173.76Z" transform="translate(-252.849 -128.212)" fill="#aa3617"/>
        <ellipse id="Elipse_4732" data-name="Elipse 4732" cx="3.12" cy="3.12" rx="3.12" ry="3.12" transform="translate(83.939 40.516)" fill="#aa3617"/>
        <ellipse id="Elipse_4733" data-name="Elipse 4733" cx="3.12" cy="3.12" rx="3.12" ry="3.12" transform="translate(58.912 38.897)" fill="#aa3617"/>
        <ellipse id="Elipse_4734" data-name="Elipse 4734" cx="2.236" cy="2.761" rx="2.236" ry="2.761" transform="translate(87.01 38.044) rotate(-176.299)" fill="#36344c"/>
        <ellipse id="Elipse_4735" data-name="Elipse 4735" cx="2.236" cy="2.761" rx="2.236" ry="2.761" transform="translate(70.053 37.554) rotate(-176.299)" fill="#36344c"/>
        <path id="Trazado_114690" data-name="Trazado 114690" d="M314.694,156.459a1.609,1.609,0,0,1,.878-.815l.416-.1a1.576,1.576,0,0,1,.818.143l3.469,1.158a1.592,1.592,0,0,1,.815.879,1.626,1.626,0,0,1-.046,1.234,1.6,1.6,0,0,1-.879.815l-.416.1a1.585,1.585,0,0,1-.818-.142l-3.468-1.159a1.589,1.589,0,0,1-.815-.879A1.622,1.622,0,0,1,314.694,156.459Z" transform="translate(-231.71 -127.84)" fill="#36344c"/>
        <path id="Trazado_114691" data-name="Trazado 114691" d="M341.18,155.607a1.607,1.607,0,0,0-.767-.921l-.4-.148a1.589,1.589,0,0,0-.83.035l-3.589.7a1.594,1.594,0,0,0-.921.766,1.626,1.626,0,0,0-.113,1.23,1.608,1.608,0,0,0,.766.921l.4.148a1.585,1.585,0,0,0,.829-.035l3.589-.7a1.589,1.589,0,0,0,.921-.766A1.627,1.627,0,0,0,341.18,155.607Z" transform="translate(-269.908 -127.746)" fill="#36344c"/>
        <path id="Trazado_114692" data-name="Trazado 114692" d="M328.816,183.7a6.429,6.429,0,0,0,6.209,2.4c2.076-.357,5.151-2.345,4.007-4.854-.895-1.941-3.465-1.834-5.209-1.048a5.662,5.662,0,0,0-1.17-1.277,3.568,3.568,0,0,0-3.229-.578,2.534,2.534,0,0,0-1.705,2.255A4.638,4.638,0,0,0,328.816,183.7Z" transform="translate(-261.769 -129.89)" fill="#f4e9dc"/>
      </g>
      <g id="Grupo_80930" data-name="Grupo 80930" transform="translate(0 51.157)">
        <path id="Trazado_114693" data-name="Trazado 114693" d="M197.969,269.607l.451,31.182c6.2,12.663,15.829,19.059,26.077,18.209,18.52-1.536,30.882-80.289,30.882-80.28.008-.008.008-.017.016-.025,3.132-4.26,4.677-9.472,6.5-14.459a124.17,124.17,0,0,1,10.29-21.5c.435-.736.886-1.688.393-2.381a1.834,1.834,0,0,0-2.013-.451c-1.9.535-3.266,2.18-4.485,3.742q-3.671,4.686-7.334,9.364a136.65,136.65,0,0,0,4.853-20.156,15.642,15.642,0,0,0-.108-6.415,1.793,1.793,0,0,0-1-1.336,1.283,1.283,0,0,0-1.211.367,3.394,3.394,0,0,0-.718,1.1,60.506,60.506,0,0,0-2.707,7.276q-2.4,7.418-4.8,14.852h-.016c1.7-8.2,3.391-16.431,3.725-24.784a3.7,3.7,0,0,0-.125-1.394,1.278,1.278,0,0,0-1-.869,1.658,1.658,0,0,0-1.3.686,12.268,12.268,0,0,0-2.021,3.441,87,87,0,0,0-3.467,10.391c-1.036,3.608-2.08,7.208-3.108,10.809,1.111-7.878,2.172-15.88,1.02-23.748-.117-.769-.393-1.7-1.161-1.871-.751-.167-1.4.551-1.787,1.22-1.487,2.589-2.005,5.6-2.531,8.537q-2.119,12.028-4.862,23.923a90.381,90.381,0,0,0-8.27-13.9,4.781,4.781,0,0,0-1.353-1.394,1.653,1.653,0,0,0-1.829,0,2.417,2.417,0,0,0-.493,2.314c.81,5.078,3.132,9.781,4.477,14.743.919,3.4,1.37,6.9,2.264,10.3a21.332,21.332,0,0,0,4.252,8.787l-12.9,30.029-3.918-9.857A92.628,92.628,0,0,1,197.969,269.607Z" transform="translate(-55.371 -181.333)" fill="#d36d29"/>
        <path id="Trazado_114694" data-name="Trazado 114694" d="M356.363,319.177c12.9,9.585,50.886,30.345,50.886,30.345v.016l-.716,18.518c8.329-.962,14.008-10.492,14.008-10.492s2.418,17.053,5.361,16.616,4.216-9.957,2.554-23.966-14.2-15.646-14.2-15.646l-28.488-30.935,5.426-10.229c-7.891-2.124-19.823-6.443-29.273-14.677l-6.37,12.148S343.469,309.6,356.363,319.177Z" transform="translate(-350.414 -190.153)" fill="#d36d29"/>
        <path id="Trazado_114695" data-name="Trazado 114695" d="M252.2,272.473c9.45,8.233,21.382,12.552,29.272,14.677a75.177,75.177,0,0,0,8.456,1.822l9.76-13.452,10.858,50.455,23.879,2.069c17.985,26.679,33.971,30.187,53.733,19.941,7.088-3.675,9.259-12.894,9.259-12.894-4.924-8.543-9.259-12.656-9.259-12.656l-.271-19.083-.446-31.181a92.8,92.8,0,0,0,20.682-13.546,41.087,41.087,0,0,0,4.821-4.885,304.181,304.181,0,0,0-13.117-29.487c-7.446-14.295-22.559-14.588-22.559-14.588s-.056.135-.184.381c-.095.184-.222.446-.389.756-3.826,6.976-27.658,43.01-103.846,22.6Z" transform="translate(-244.841 -183.899)" fill="#f4e9dc"/>
        <path id="Trazado_114696" data-name="Trazado 114696" d="M213.073,209.7a53.527,53.527,0,0,1,15.248,6.2c.462.276-.033.95-.491.676a52.243,52.243,0,0,0-14.85-6.043C212.464,210.405,212.549,209.573,213.073,209.7Z" transform="translate(-24.421 -183.9)" fill="#aa3617"/>
        <path id="Trazado_114697" data-name="Trazado 114697" d="M223.708,239.636a49.683,49.683,0,0,1,9.213,4.724c.451.294-.042.969-.491.676a48.666,48.666,0,0,0-9.025-4.622A.418.418,0,0,1,223.708,239.636Z" transform="translate(-38.577 -186.61)" fill="#aa3617"/>
        <path id="Trazado_114698" data-name="Trazado 114698" d="M253.546,296.588l11.514-21.409c.251-.467,1.033-.17.779.3l-11.514,21.409C254.073,297.359,253.291,297.062,253.546,296.588Z" transform="translate(-98.965 -189.81)" fill="#aa3617"/>
        <path id="Trazado_114699" data-name="Trazado 114699" d="M360,361.076a.427.427,0,0,1,.478.347l.929,3.638a.421.421,0,0,1-.347.477.426.426,0,0,1-.477-.347l-.929-3.638A.42.42,0,0,1,360,361.076Z" transform="translate(-291.025 -197.609)" fill="#aa3617"/>
        <path id="Trazado_114700" data-name="Trazado 114700" d="M369.47,351.786q1.305-2.752,2.613-5.5c.229-.483,1.009-.184.778.3l-2.613,5.5C370.019,352.572,369.238,352.273,369.47,351.786Z" transform="translate(-311.414 -196.248)" fill="#aa3617"/>
        <path id="Trazado_114701" data-name="Trazado 114701" d="M359.459,376.117a27.627,27.627,0,0,0,16.833-10.828.418.418,0,0,1,.676.491,28.281,28.281,0,0,1-17.379,11.162C359.062,377.047,358.932,376.222,359.459,376.117Z" transform="translate(-306.188 -197.976)" fill="#389688"/>
        <path id="Trazado_114702" data-name="Trazado 114702" d="M279.325,249.613c0-.536.832-.44.829.094q-.052,11.261-.1,22.523c0,.537-.833.441-.83-.093Q279.273,260.875,279.325,249.613Z" transform="translate(-136.626 -187.484)" fill="#e2cab0"/>
        <path id="Trazado_114703" data-name="Trazado 114703" d="M283.94,276.373a21.634,21.634,0,0,0,12.139,7.457,21.415,21.415,0,0,0,20.553-6.954c.348-.4,1.027.083.676.491a22.535,22.535,0,0,1-12.95,7.419,22.265,22.265,0,0,1-21.065-7.885A.418.418,0,0,1,283.94,276.373Z" transform="translate(-177.496 -189.926)" fill="#e2cab0"/>
        <path id="Trazado_114704" data-name="Trazado 114704" d="M332.349,276.777a21.624,21.624,0,0,0,12.139,7.457,21.418,21.418,0,0,0,20.553-6.953c.348-.406,1.027.082.676.49a22.535,22.535,0,0,1-12.951,7.419,22.264,22.264,0,0,1-21.064-7.885A.418.418,0,0,1,332.349,276.777Z" transform="translate(-269.93 -189.962)" fill="#e2cab0"/>
        <path id="Trazado_114705" data-name="Trazado 114705" d="M366.273,279.3q4.157-8.182,9.1-15.928c.29-.454.965.039.676.491q-4.881,7.645-9,15.74C366.81,280.075,366.029,279.777,366.273,279.3Z" transform="translate(-311.717 -188.745)" fill="#e2cab0"/>
        <path id="Trazado_114706" data-name="Trazado 114706" d="M339.337,328.638l5.669,8.091c.307.438-.337.97-.647.529l-5.669-8.091C338.383,328.729,339.027,328.2,339.337,328.638Z" transform="translate(-255.568 -194.657)" fill="#e2cab0"/>
        <path id="Trazado_114707" data-name="Trazado 114707" d="M276.317,344.134c5.018,5.522,11.19,10.177,18.377,12.422,7.095,2.215,14.995,1.929,21.512-1.842a21.322,21.322,0,0,0,7.894-7.865c.266-.467.939.028.676.491a23.451,23.451,0,0,1-16.767,11.137c-7.895,1.241-15.942-1.122-22.573-5.4a49.606,49.606,0,0,1-9.765-8.418C275.309,344.264,275.957,343.737,276.317,344.134Z" transform="translate(-177.983 -196.063)" fill="#e2cab0"/>
        <path id="Trazado_114708" data-name="Trazado 114708" d="M398.615,302.759a.426.426,0,0,1,.583-.093l3.8,2.255a.421.421,0,0,1,.093.584.428.428,0,0,1-.584.092l-3.8-2.255A.421.421,0,0,1,398.615,302.759Z" transform="translate(-368.155 -192.314)" fill="#aa3617"/>
      </g>
      <path id="Trazado_114709" data-name="Trazado 114709" d="M315.771,205.9a25.35,25.35,0,0,0,31.5.879c.43-.322.96.324.529.647a26.188,26.188,0,0,1-32.516-.85C314.868,206.234,315.357,205.557,315.771,205.9Z" transform="translate(-237.08 -132.392)" fill="#eddac5"/>
      <ellipse id="Elipse_4736" data-name="Elipse 4736" cx="3.967" cy="3.967" rx="3.967" ry="3.967" transform="translate(91.743 79.839)" fill="#f2b34e"/>
    </g>
  </g>
</svg>
