<svg xmlns="http://www.w3.org/2000/svg" xmlns:xlink="http://www.w3.org/1999/xlink" width="133" height="133" viewBox="0 0 133 133">
  <defs>
    <clipPath id="clip-path">
      <rect id="Rect치ngulo_38403" data-name="Rect치ngulo 38403" width="79.782" height="82.32" fill="none"/>
    </clipPath>
  </defs>
  <g id="Grupo_161429" data-name="Grupo 161429" transform="translate(-3920.715 9834.285)">
    <rect id="Rect치ngulo_37519" data-name="Rect치ngulo 37519" width="133" height="133" rx="66.5" transform="translate(3920.715 -9834.285)" fill="#6b8dfc"/>
    <g id="Grupo_161430" data-name="Grupo 161430" transform="translate(3947.714 -9809.285)">
      <g id="Grupo_161430-2" data-name="Grupo 161430" clip-path="url(#clip-path)">
        <path id="Trazado_141268" data-name="Trazado 141268" d="M74.523,28.739a8.578,8.578,0,0,0,.005,2.528c.063,1.408.15,2.814.227,4.221A110.428,110.428,0,0,1,74.915,57.7a24.446,24.446,0,0,1-2.975,9.652,19.437,19.437,0,0,1-2.228,3.606,8.386,8.386,0,0,0-1.176,3.285q-1.248,5.179-2.424,10.373c-.149.663-.411.675-.919.425a3.876,3.876,0,0,1-1.831-2.145,9.992,9.992,0,0,1-.78-4.3c.035-.8-.165-1.144-.988-.986a1.217,1.217,0,0,1-.318-.022c-1.292.068-1.322.069-1.279,1.4.092,2.876.746,5.551,2.885,7.661a5.737,5.737,0,0,0,2.047,1.052c.37.084.4.265.322.57-.353,1.451-.711,2.9-1.038,4.358-.074.331-.213.438-.535.425-.64-.025-1.281-.022-1.922-.031q-8.477.014-16.955.025c-1.526,0-3.052-.016-4.579-.025-2.357.123-2.355.123-2.87-2.1-.2-.857-.384-1.719-.606-2.57-.1-.382-.06-.579.379-.676a5.406,5.406,0,0,0,1.97-1.023c2.392-2.4,2.919-5.415,2.9-8.623,0-.306-.1-.433-.411-.416-.292.016-.586-.013-.879-.022-1.271.067-1.252.068-1.291,1.327a10.516,10.516,0,0,1-.961,4.347,3.634,3.634,0,0,1-1.8,1.855c-.455.2-.648.083-.761-.408-.9-3.874-1.828-7.74-2.715-11.615a5.976,5.976,0,0,0-.906-2.11A29.617,29.617,0,0,1,29.978,67.3a24.857,24.857,0,0,1-2.916-9.6,89.26,89.26,0,0,1-.5-11.313c.086-3.588.363-7.167.65-10.744q.162-3.025.322-6.049a1.3,1.3,0,0,0-.083-.855h0L26.237,28.7c-1.246,0-1.232,0-1.295,1.26-.066,1.311-.177,2.619-.242,3.929-.27,5.428-.888,10.841-.7,16.288a74.32,74.32,0,0,0,.854,10.237A28.7,28.7,0,0,0,30,72.22a4.187,4.187,0,0,1,.694,1.511q2.357,10.11,4.724,20.217a2.446,2.446,0,0,0,.944,1.664H65.616a2.55,2.55,0,0,0,.907-1.508c1.4-6.039,2.86-12.063,4.219-18.111A14.706,14.706,0,0,1,73.015,70.6a25.438,25.438,0,0,0,3.725-8.458,42.757,42.757,0,0,0,1.016-7.626,81.057,81.057,0,0,0,.166-10.278c-.27-4.759-.6-9.514-.888-14.272-.076-1.256-.05-1.258-1.3-1.262l-1.215.036" transform="translate(-11.099 -13.292)"/>
        <path id="Trazado_141269" data-name="Trazado 141269" d="M79.758,11.744a3.583,3.583,0,0,1,0-.8c.068-.514-.107-.748-.644-.651-.514.094-.667-.1-.661-.638.029-2.679.016-5.359.012-8.038,0-1.155-.451-1.609-1.6-1.611Q73.334,0,69.8,0c-1.161,0-1.613.445-1.616,1.589,0,2.251,0,4.5,0,6.753,0,1.99,0,1.965-1.994,1.963-.542,0-.6-.2-.587-.647.028-1.071.021-2.143.006-3.215a3.843,3.843,0,0,0-3.881-3.869c-1.232-.015-2.464-.009-3.7,0a3.838,3.838,0,0,0-3.957,3.363c-.061.379-.11.515-.551.513A3.142,3.142,0,0,0,50.192,9.69c-.008.5-.124.615-.619.613q-9.685-.027-19.368,0c-.493,0-.612-.115-.62-.613a3.14,3.14,0,0,0-3.247-3.238c-.512.007-.574-.148-.648-.594a3.817,3.817,0,0,0-3.86-3.283c-1.286-.012-2.573-.021-3.858,0a3.845,3.845,0,0,0-3.8,3.786c-.016.67,0,1.34,0,2.01,0,1.943,0,1.917-1.944,1.932-.556,0-.643-.182-.639-.677.023-2.652.013-5.305.01-7.958C11.6.423,11.167,0,9.9,0Q6.482,0,3.067,0C1.705,0,1.311.4,1.311,1.775c0,2.626.005,5.252-.011,7.878,0,.23.208.714-.315.624C-.06,10.1-.033,10.719.02,11.423a4.579,4.579,0,0,1,0,.883c-.057.466.132.641.576.556.617-.119.739.148.731.733-.034,2.652-.018,5.306-.013,7.958,0,1.147.456,1.6,1.609,1.6q3.5.006,6.992,0c1.255,0,1.683-.429,1.685-1.686,0-2.679.011-5.359-.01-8.039,0-.453.117-.592.573-.575,1.043.04,2.088.026,3.132.034,2.913-.008,5.826-.027,8.738-.014a1.95,1.95,0,0,0,1.522-.55,5.475,5.475,0,0,0,.188-2.133c.023-.494-.123-1.144.623-1.154.812-.012.656.676.662,1.19.01.828-.045,1.66.018,2.484a1.314,1.314,0,0,1-.673,1.311c-.964.67-1.858,1.443-2.835,2.091a3.142,3.142,0,0,0-1.793,2.7,12.151,12.151,0,0,1-.2,2.412c-.149,1.741-.294,3.483-.447,5.224-.1,1.171-.126,2.357-.337,3.508-.4,2.189.268,4.23.716,6.305.484,2.242,1.058,4.466,1.475,6.72a5.862,5.862,0,0,0,1.211,2.462,20.238,20.238,0,0,1,3.489,7.89,15.1,15.1,0,0,1,.524,3.708,15.858,15.858,0,0,1,.137,3.331c.024,1.324,0,1.324,1.291,1.392,1.286-.068,1.3-.068,1.283-1.394-.02-2.008.81-3.838,1.184-5.764.135-.7.373-1.378.563-2.067l.33-1.57c.573.37,1.064.695,1.564,1.008.214.134.214.329.226.547.03.5.086,1,.13,1.494.972,2.556,2.729,3.888,5.087,3.86,2.274-.027,3.973-1.358,4.928-3.86.045-.5.109-.994.128-1.493a.614.614,0,0,1,.3-.586c.472-.287.925-.6,1.417-.93a4.5,4.5,0,0,1,.409,1.53c.658,2.888,1.866,5.668,1.738,8.711-.016.383.107.529.493.494a6.608,6.608,0,0,1,.8.02c1.286-.068,1.284-.068,1.286-1.4a22.193,22.193,0,0,1,.3-4.772A20.957,20.957,0,0,1,55.615,45.44c1.313-1.342,1.3-3.163,1.7-4.822.554-2.257.958-4.551,1.553-6.8a12.193,12.193,0,0,0,.072-4.374c-.233-2.474-.488-4.947-.725-7.42a6.785,6.785,0,0,1,.017-.8,12.151,12.151,0,0,1-.2-2.412,3.153,3.153,0,0,0-1.787-2.7c-1.04-.7-2-1.507-3.02-2.239a.975.975,0,0,1-.489-.914c.035-1.04.019-2.082.009-3.123,0-.466.149-.817.659-.807s.613.379.639.833c.052.888-.246,1.823.327,2.646a2.3,2.3,0,0,0,1.363.366c2.917-.009,5.834.008,8.751.016,1.017-.008,2.036.013,3.052-.037.528-.026.662.134.657.657-.027,2.679-.016,5.359-.011,8.039,0,1.15.454,1.6,1.6,1.6q3.456.006,6.912,0c1.37,0,1.771-.4,1.771-1.761,0-2.653,0-5.305.008-7.958,0-.22-.158-.645.3-.558,1.026.191,1.049-.4.978-1.132M8.384,20.586c-.366,0-.674.03-.655-.514.043-1.172.028-2.346.036-3.518q-.013-3.73-.025-7.459c0-1.334,0-1.334-1.286-1.4-1.285.068-1.283.068-1.286,1.4q-.009,3.73-.026,7.46c.01,1.173-.006,2.347.036,3.519.021.549-.292.51-.655.512s-.668.028-.652-.515c.043-1.386.033-2.773.044-4.159q0-5.767-.008-11.535l0-.822c-.1-.6-.133-1.117.767-1,.365.048.537.112.5.5a6.707,6.707,0,0,0,0,.72c0,1.327,0,1.327,1.285,1.394,1.286-.068,1.286-.068,1.286-1.4a5.766,5.766,0,0,0,0-.721c-.063-.494.238-.517.585-.476.3.035.716-.188.713.433-.026,4.3-.031,8.6-.042,12.9.012,1.386,0,2.773.044,4.157.017.543-.283.518-.651.517M22.681,10.3c-.91-.025-1.82-.008-2.731-.008-.884,0-1.768-.014-2.651.006-.38.009-.583-.041-.569-.506.035-1.1-.005-2.2.017-3.294a1.26,1.26,0,0,1,1.368-1.346q1.848-.03,3.695,0a1.267,1.267,0,0,1,1.356,1.361c.022,1.1-.01,2.194.014,3.291.009.388-.116.505-.5.495m7.935,39.51c-.2.716-.365,1.439-.544,2.16-.43-1.269-.885-2.452-1.4-3.872.728.481,1.249.831,1.777,1.169.219.141.232.3.166.542m11.838,3.006a2.567,2.567,0,0,1-5.133,0c-.013-.345.015-.692.024-1.038-.005-.586-.235-1.333.042-1.714.31-.427,1.036.045,1.584.077a7.366,7.366,0,0,0,2.62-.149c.914-.283.961.149.843.83.009.666.043,1.334.02,2m1.169-6.325a6.765,6.765,0,0,1-7.122.17,7.442,7.442,0,0,1-4.3-6.63c-.12-2-.006-4.006-.043-6.01-.01-.534.2-.592.649-.61a30.735,30.735,0,0,0,5.326-.574,12,12,0,0,0,4.854-2.158c.376-.289.643-.422.74.2l.331.336h0a8.175,8.175,0,0,0,3.177,2.008c.723.232.25.889.344,1.348a39.542,39.542,0,0,1-.143,6.568,7.324,7.324,0,0,1-3.815,5.352M28.515,32.256c-.158.063-.183-.209-.19-.366a11.3,11.3,0,0,1,1.592-6.813h0A10.739,10.739,0,0,1,35.665,20.1,11.462,11.462,0,0,1,48.8,23.489a16.058,16.058,0,0,1,1.058,1.588,11.369,11.369,0,0,1,1.594,6.813c-.005.157-.017.417-.194.367-.359-.1-.892.1-1.057-.351a1.6,1.6,0,0,0-1.676-1.068,3.946,3.946,0,0,1-2.949-2c-1.562-2.257-1.531-2.281-3.731-.509a10.748,10.748,0,0,1-5.651,2.213,37.5,37.5,0,0,1-5.183.323,1.259,1.259,0,0,0-1.358.9c-.2.626-.759.339-1.139.49M29.6,35.095c0,.106,0,.213,0,.32v2.878a2.377,2.377,0,0,1-1.262-2.849,1.141,1.141,0,0,1,.993-.7c.3-.055.271.164.271.352m20.562.133c-.02-.558.2-.566.614-.394a.975.975,0,0,1,.7.955,2.238,2.238,0,0,1-1.3,2.5c0-1.092.025-2.078-.01-3.063m-.4,16.971c-.235-.948-.4-1.671-.6-2.386-.066-.238-.057-.4.165-.54.529-.338,1.048-.692,1.773-1.173a38.484,38.484,0,0,0-1.34,4.1M54.84,18.283a1.331,1.331,0,0,1,.612,1.048c.362,4.135.774,8.266,1.1,12.4a11.91,11.91,0,0,1-.62,3.3c-.506,2.433-1.071,4.855-1.6,7.283a1.488,1.488,0,0,1-.689,1c-2.852,1.874-5.684,3.78-8.577,5.712-.031-.388.183-.439.328-.539a10.636,10.636,0,0,0,4.566-6.908.738.738,0,0,1,.607-.673,4.572,4.572,0,0,0,3.463-4.716,69.042,69.042,0,0,0-.134-7.226A14.14,14.14,0,0,0,25.979,28.3a29.608,29.608,0,0,0-.225,5.851,13.794,13.794,0,0,0,.113,3.283,4.416,4.416,0,0,0,3.168,3.406,1.054,1.054,0,0,1,.841.943A10.423,10.423,0,0,0,34.3,48.422c.2.14.2.141.47.632-1.784-1.186-3.46-2.3-5.136-3.414-1.158-.77-2.3-1.559-3.476-2.307a1.468,1.468,0,0,1-.708-.992q-1.083-4.976-2.192-9.946A7.878,7.878,0,0,1,23.375,30c.288-3.55.636-7.095.946-10.643a1.322,1.322,0,0,1,.594-1.057c1.215-.877,2.377-1.829,3.608-2.681a2.056,2.056,0,0,0,1.079-2.14c-.074-.469.066-.634.589-.632l19.369,0c.575,0,.685.209.618.684a1.965,1.965,0,0,0,.991,2.021c1.252.869,2.438,1.834,3.673,2.729m7.7-7.984c-.91-.023-1.821-.008-2.731-.008-.884,0-1.768-.016-2.651.008-.389.01-.576-.058-.562-.514.033-1.1-.007-2.194.017-3.29a1.264,1.264,0,0,1,1.374-1.342q1.847-.03,3.695,0a1.264,1.264,0,0,1,1.35,1.365c.02,1.1-.011,2.2.014,3.293.01.4-.132.5-.505.488M75.232,20.586c-.4.021-.7-.018-.627-.54a5.591,5.591,0,0,0,0-.723c0-1.274,0-1.274-1.285-1.342-1.287.068-1.287.068-1.288,1.421a4.006,4.006,0,0,0,0,.562c.072.5-.136.65-.627.629-.426-.017-.7-.026-.675-.588.05-1.364.035-2.73.047-4.095-.011-4.279-.011-8.557-.046-12.836-.005-.645.39-.464.731-.506.461-.056.579.131.577.578-.017,3.638-.01,7.275-.01,10.912,0,1.335,0,1.335,1.286,1.4,1.286-.068,1.284-.068,1.287-1.4q.01-4.844.025-9.689l0-.821c-.1-.609-.125-1.116.774-1,.375.049.493.133.492.512q-.034,6.422-.04,12.844h0c.011,1.393,0,2.786.042,4.177.017.57-.329.479-.674.5" transform="translate(0 0)"/>
        <path id="Trazado_141270" data-name="Trazado 141270" d="M29.52,26.361a2.744,2.744,0,0,1,.227,1.1.319.319,0,0,0,.05.055,2.546,2.546,0,0,1,2.834-2.411c1.227,0,2.455.016,3.682-.005a2.332,2.332,0,0,0,2.183-1.443,1.908,1.908,0,0,1-1.274.409q-4.018.017-8.035,0a1.235,1.235,0,0,1-.835-.224,12.679,12.679,0,0,1-.155,2.523,1.16,1.16,0,0,1,1.325-.006" transform="translate(-13.057 -10.956)" fill="#e58d79"/>
        <path id="Trazado_141271" data-name="Trazado 141271" d="M29.411,28.558h0c.459.232.064.761.336,1.058a2.743,2.743,0,0,0-.227-1.1,1.16,1.16,0,0,0-1.325.006l1.215.037h0" transform="translate(-13.057 -13.11)" fill="#e58d79"/>
        <path id="Trazado_141272" data-name="Trazado 141272" d="M37.355,23.741a1.909,1.909,0,0,0,1.274-.409,2.309,2.309,0,0,0,.115-.379,1.95,1.95,0,0,1-1.522.55c-2.912-.013-5.826.006-8.738.014a1.231,1.231,0,0,0,.835.223q4.018.014,8.035,0" transform="translate(-13.19 -10.629)" fill="#e58d79"/>
        <path id="Trazado_141273" data-name="Trazado 141273" d="M110.372,24.155q-3.763.008-7.526,0a2.394,2.394,0,0,1-1.439-.318,2.235,2.235,0,0,0,2.066,1.346c1.255.021,2.511,0,3.766.005A2.524,2.524,0,0,1,110,27.762a.446.446,0,0,0,.107-.133c0-.056-.006-.112-.008-.168a1.537,1.537,0,0,1,.17-1,1.141,1.141,0,0,1,1.332-.006,12.674,12.674,0,0,1-.155-2.522,1.576,1.576,0,0,1-1.072.228" transform="translate(-46.96 -11.039)" fill="#e58d79"/>
        <path id="Trazado_141274" data-name="Trazado 141274" d="M117.755,28.526a1.536,1.536,0,0,0-.171,1.005c0,.056.006.112.008.168.187-.352-.174-.871.279-1.143l1.215-.036h0a1.139,1.139,0,0,0-1.331.006" transform="translate(-54.447 -13.109)" fill="#e58d79"/>
        <path id="Trazado_141275" data-name="Trazado 141275" d="M101.265,23.292a1.429,1.429,0,0,0,.077.293,2.392,2.392,0,0,0,1.439.318q3.762.006,7.525,0a1.577,1.577,0,0,0,1.073-.228c-2.917-.008-5.835-.025-8.752-.017a2.3,2.3,0,0,1-1.362-.366" transform="translate(-46.894 -10.786)" fill="#e58d79"/>
        <path id="Trazado_141276" data-name="Trazado 141276" d="M53.816,109.733a5.319,5.319,0,0,1,.8.02c.364.035.628.215.636.594.068,3.264-.429,6.344-2.912,8.761-.042.033-.086.062-.129.094q.526,2.974,1.051,5.948c.085,0,.17,0,.255-.007q10.545-.034,21.084,0c.09.006.18,0,.271.009l1.05-5.946c-.04-.03-.082-.059-.122-.09a8.186,8.186,0,0,1-2.381-4.006,12.976,12.976,0,0,1-.58-3.946c.027-1.365.073-1.427,1.464-1.428h.052v-2.121c-.235,0-.469,0-.7-.009-.517-.025-.808-.293-.791-.8.088-2.616-.94-5.014-1.456-7.51-.05-.244-.1-.487-.168-.728a.446.446,0,0,1-.226.206c-.59.257-1.133.617-1.744.828-.006.039-.016.077-.02.116a5.331,5.331,0,0,1-6.444,3.853,5.244,5.244,0,0,1-3.909-3.848c-.009-.04-.017-.082-.025-.123-.61-.212-1.152-.57-1.74-.826a.451.451,0,0,1-.225-.2c-.409,1.69-.835,3.375-1.26,5.06a9.436,9.436,0,0,0-.351,2.445c.018,1.462-.066,1.551-1.511,1.545v2.121h.036" transform="translate(-24.179 -45.642)" fill="#2b8efb"/>
        <path id="Trazado_141277" data-name="Trazado 141277" d="M52.308,128.741c2.483-2.418,2.979-5.5,2.912-8.762-.008-.379-.272-.559-.636-.594a5.39,5.39,0,0,0-.8-.019h-.036v.194c.293.009.587.038.879.022.316-.017.409.111.411.417.023,3.208-.5,6.227-2.9,8.623.013.071.025.143.038.214.042-.032.086-.061.129-.094" transform="translate(-24.146 -55.273)" fill="#2b8efb"/>
        <path id="Trazado_141278" data-name="Trazado 141278" d="M92.092,119.37c-1.391,0-1.437.062-1.464,1.428a12.972,12.972,0,0,0,.58,3.946,8.18,8.18,0,0,0,2.381,4.006c.04.031.082.06.122.09.013-.071.025-.143.038-.215-2.139-2.11-2.793-4.785-2.885-7.661-.042-1.331-.013-1.332,1.279-1.4v-.194h-.052" transform="translate(-41.967 -55.278)" fill="#2b8efb"/>
        <path id="Trazado_141279" data-name="Trazado 141279" d="M75.508,148.052q-10.539-.032-21.084,0c-.085.006-.17,0-.255.007.012.071.025.141.038.212,1.526.009,3.053.026,4.579.025q8.478-.007,16.956-.025l.038-.214c-.091,0-.181,0-.271-.009" transform="translate(-25.085 -68.554)" fill="#2b8efb"/>
        <path id="Trazado_141280" data-name="Trazado 141280" d="M64.632,100.606a5.245,5.245,0,0,0,3.909,3.848,5.331,5.331,0,0,0,6.444-3.853c0-.039.013-.078.02-.117-.064.022-.125.05-.191.069-.955,2.5-2.653,3.833-4.927,3.86-2.359.028-4.114-1.3-5.087-3.86-.067-.019-.128-.047-.192-.07.008.041.017.083.025.123" transform="translate(-29.918 -46.532)" fill="#2b8efb"/>
        <path id="Trazado_141281" data-name="Trazado 141281" d="M87.81,98.962c.516,2.5,1.544,4.894,1.456,7.51-.017.512.274.779.791.8.236.011.47.011.7.009v-.2a6.5,6.5,0,0,0-.8-.021c-.387.035-.51-.111-.494-.494.128-3.044-1.079-5.823-1.738-8.711a.937.937,0,0,1-.091.379c.063.241.118.484.168.728" transform="translate(-40.586 -45.316)" fill="#2b8efb"/>
        <path id="Trazado_141282" data-name="Trazado 141282" d="M56.644,105.743A9.436,9.436,0,0,1,57,103.3c.425-1.685.852-3.37,1.26-5.06a.908.908,0,0,1-.092-.38c-.191.688-.427,1.368-.563,2.067-.374,1.925-1.2,3.756-1.183,5.764.013,1.327,0,1.327-1.283,1.395v.2c1.445.006,1.529-.082,1.511-1.545" transform="translate(-25.531 -45.316)" fill="#2b8efb"/>
        <path id="Trazado_141283" data-name="Trazado 141283" d="M34.086,73.177a1.257,1.257,0,0,0,.018-.315c-.123-.653.128-.925.788-.794.379-.01.748-.021.895-.479a44.5,44.5,0,0,0,1.54-5.642,5.122,5.122,0,0,1-2.187.839A2.481,2.481,0,0,1,32.7,64.766a23.039,23.039,0,0,1-.352-2.927c-.226-2.651-.429-5.3-.641-7.956-.006-.08-.006-.161-.006-.241,0-3.45-.283-6.9-.154-10.349.024-.65,0-1.2-.812-1.3-.341.052-.6-.172-.9-.273-.222,2.974-.4,5.952-.567,8.93a58.841,58.841,0,0,0,.032,7.216c.118,1.733.221,3.466.358,5.2A26.911,26.911,0,0,0,32.5,73.115c.038.076.083.148.122.223a3.56,3.56,0,0,0,1.468-.161" transform="translate(-13.509 -19.319)" fill="#f9a491"/>
        <path id="Trazado_141284" data-name="Trazado 141284" d="M32.306,73.074a26.9,26.9,0,0,1-2.839-10.052c-.137-1.732-.241-3.465-.358-5.2a58.841,58.841,0,0,1-.033-7.216c.165-2.978.345-5.956.567-8.93a.839.839,0,0,0-.21-.047c-.287,3.577-.564,7.156-.65,10.744a89.359,89.359,0,0,0,.5,11.313,24.86,24.86,0,0,0,2.917,9.6c.077,0,.154,0,.23.006-.04-.076-.084-.148-.122-.223" transform="translate(-13.319 -19.279)" fill="#f9a491"/>
        <path id="Trazado_141285" data-name="Trazado 141285" d="M109.377,41.742h0a8.793,8.793,0,0,1,.645,3.267c-.013,1.658.075,3.32-.02,4.972-.187,3.263-.223,6.533-.6,9.788-.185,1.606-.25,3.228-.512,4.827a2.538,2.538,0,0,1-4.172,1.663.8.8,0,0,0-.488-.242c.454,1.707.893,3.419,1.369,5.121.14.5.41.936,1.06.839,1.094-.23.71.615.807,1.109a4,4,0,0,0,1.415.184c.032-.062.068-.122.1-.185a24.818,24.818,0,0,0,2.866-9.543,97.027,97.027,0,0,0,.5-11.448c-.055-2.457-.283-4.906-.427-7.358-.063-1.071-.154-2.141-.208-3.213a6.3,6.3,0,0,1-2.337.218" transform="translate(-48.269 -19.229)" fill="#f9a491"/>
        <path id="Trazado_141286" data-name="Trazado 141286" d="M115.932,44.651c.145,2.453.373,4.9.427,7.358a96.908,96.908,0,0,1-.5,11.448A24.8,24.8,0,0,1,112.993,73c-.031.063-.067.122-.1.185.075,0,.151.005.226.014a24.446,24.446,0,0,0,2.975-9.652,110.388,110.388,0,0,0-.159-22.208,2.051,2.051,0,0,1-.212.1c.054,1.072.144,2.142.208,3.213" transform="translate(-52.28 -19.143)" fill="#f9a491"/>
        <path id="Trazado_141287" data-name="Trazado 141287" d="M93.6,110.639c.117,0,.234,0,.351,0,.928.039,1.065.158,1.068,1.095a11.286,11.286,0,0,0,.732,4.159,3.834,3.834,0,0,0,1.635,2.112c.432.239.657.192.781-.341.62-2.655,1.25-5.306,1.866-7.962.259-1.119.573-2.227.781-3.358a5.684,5.684,0,0,1,.971-2.263,30.47,30.47,0,0,0,2.108-3.37,1.549,1.549,0,0,1-1.33-.171c-.01-.009-.015-.019-.024-.028a2.837,2.837,0,0,0-.01.527c.066.551-.064.834-.71.912a1.907,1.907,0,0,0-1.5,1.4,6.806,6.806,0,0,0-.292,1.158c-.211,1.165-.2,1.166-1.367,1.226.081.417.146.838.245,1.251a4.738,4.738,0,0,1-1.9,4.483c-.4.238-.377-.091-.452-.3a20.075,20.075,0,0,1-.913-3.962c-.209-1.4-.322-2.822-.453-4.238a40.145,40.145,0,0,0-.135,4.153c0,1.282-.137,1.4-1.438,1.387H93.6a2.852,2.852,0,0,1,0,2.12" transform="translate(-43.344 -46.546)" fill="#d37b69"/>
        <path id="Trazado_141288" data-name="Trazado 141288" d="M101.716,104.16a5.689,5.689,0,0,0-.971,2.263c-.207,1.131-.521,2.238-.781,3.357-.616,2.656-1.246,5.308-1.866,7.962-.124.533-.349.58-.781.341a3.836,3.836,0,0,1-1.635-2.112,11.3,11.3,0,0,1-.733-4.159c0-.936-.14-1.056-1.068-1.1-.117,0-.234,0-.351,0-.025.064-.048.129-.078.194a1.245,1.245,0,0,0,.319.022c.823-.158,1.022.19.987.986a9.984,9.984,0,0,0,.78,4.3,3.873,3.873,0,0,0,1.83,2.145c.508.25.77.237.919-.425q1.167-5.2,2.424-10.373a8.4,8.4,0,0,1,1.176-3.285,19.437,19.437,0,0,0,2.228-3.606,1.853,1.853,0,0,1-.293.112,30.522,30.522,0,0,1-2.108,3.37" transform="translate(-43.277 -46.622)" fill="#d37b69"/>
        <path id="Trazado_141289" data-name="Trazado 141289" d="M93.547,109.921c1.3.014,1.434-.106,1.438-1.387a39.988,39.988,0,0,1,.135-4.153c-.026-.28-.051-.559-.079-.838h0a22.159,22.159,0,0,0-.3,4.772c0,1.334,0,1.334-1.286,1.4.031.068.056.136.082.2h.012" transform="translate(-43.277 -47.949)" fill="#d37b69"/>
        <path id="Trazado_141290" data-name="Trazado 141290" d="M93.531,117.541a2.852,2.852,0,0,0,0-2.12l-.082,0v2.121h.078" transform="translate(-43.277 -53.449)" fill="#d37b69"/>
        <path id="Trazado_141291" data-name="Trazado 141291" d="M93.453,119.37v.194c.03-.064.053-.129.078-.194h-.078" transform="translate(-43.277 -55.278)" fill="#d37b69"/>
        <path id="Trazado_141292" data-name="Trazado 141292" d="M93.535,115.246c-.026-.068-.051-.136-.082-.2v.2h.082" transform="translate(-43.277 -53.274)" fill="#d37b69"/>
        <path id="Trazado_141293" data-name="Trazado 141293" d="M110.247,100.419a.3.3,0,0,0,.024.028,1.547,1.547,0,0,0,1.33.171c.022-.042.046-.083.067-.126a4,4,0,0,1-1.415-.184c0,.037,0,.074-.007.11" transform="translate(-51.054 -46.451)" fill="#d37b69"/>
        <path id="Trazado_141294" data-name="Trazado 141294" d="M112.77,100.776a1.829,1.829,0,0,0,.292-.112c-.075-.009-.15-.01-.225-.014-.022.042-.045.084-.067.126" transform="translate(-52.222 -46.609)" fill="#d37b69"/>
        <path id="Trazado_141295" data-name="Trazado 141295" d="M42.09,111.518A5.511,5.511,0,0,1,40.448,109c-.213-.675.216-1.389.3-2.1.049-.392.171-.776.259-1.163-1.165-.061-1.162-.061-1.364-1.227-.23-1.329-.641-2.512-2.26-2.658-.294-.027-.226-.244-.234-.415-.014-.308-.016-.616-.022-.923a1.539,1.539,0,0,1-1.391.194,40.477,40.477,0,0,0,2.23,3.5,5.706,5.706,0,0,1,.84,1.975c.876,3.834,1.809,7.654,2.695,11.485.121.521.31.6.76.353a3.257,3.257,0,0,0,1.178-1.175,9.778,9.778,0,0,0,1.2-4.449c.021-.239,0-.481.008-.722.033-.872.159-.995,1.053-1.033.123,0,.245,0,.368,0a2.855,2.855,0,0,1,0-2.121h0c-1.311.017-1.413-.094-1.43-1.373-.005-.412,0-.824.009-1.235a30.543,30.543,0,0,1-.921,5.073c-.322,1.237-.664,1.368-1.634.532" transform="translate(-16.551 -46.55)" fill="#d37b69"/>
        <path id="Trazado_141296" data-name="Trazado 141296" d="M45.439,110.681c-.895.038-1.02.161-1.053,1.033-.009.241.013.483-.009.722a9.777,9.777,0,0,1-1.2,4.449A3.257,3.257,0,0,1,42,118.061c-.45.252-.639.169-.76-.353-.885-3.831-1.819-7.652-2.695-11.485a5.707,5.707,0,0,0-.841-1.975,40.747,40.747,0,0,1-2.23-3.5,1.624,1.624,0,0,1-.31-.152,29.547,29.547,0,0,0,2.284,3.67,5.99,5.99,0,0,1,.906,2.11c.888,3.875,1.819,7.741,2.715,11.615.114.491.307.607.762.408a3.631,3.631,0,0,0,1.8-1.855,10.508,10.508,0,0,0,.961-4.347c.04-1.26.021-1.26,1.292-1.327-.03-.064-.053-.129-.078-.193-.123,0-.245,0-.368,0" transform="translate(-16.283 -46.585)" fill="#d37b69"/>
        <path id="Trazado_141297" data-name="Trazado 141297" d="M52.317,108.563c-.006.412-.014.823-.009,1.235.017,1.279.119,1.391,1.43,1.373h0c.026-.068.051-.136.082-.2-1.287-.068-1.268-.069-1.292-1.392a15.857,15.857,0,0,0-.136-3.331,20.575,20.575,0,0,1-.078,2.319" transform="translate(-24.222 -49.2)" fill="#d37b69"/>
        <path id="Trazado_141298" data-name="Trazado 141298" d="M54.81,117.542h.078v-2.121h-.082a2.855,2.855,0,0,0,0,2.121" transform="translate(-25.286 -53.45)" fill="#d37b69"/>
        <path id="Trazado_141299" data-name="Trazado 141299" d="M54.988,119.372c.025.064.048.129.078.193v-.194h-.078" transform="translate(-25.464 -55.279)" fill="#d37b69"/>
        <path id="Trazado_141300" data-name="Trazado 141300" d="M55.061,115.246v-.2c-.031.068-.056.136-.082.2h.082" transform="translate(-25.46 -53.274)" fill="#d37b69"/>
        <path id="Trazado_141301" data-name="Trazado 141301" d="M37.061,100.422c0-.038,0-.076,0-.113a3.554,3.554,0,0,1-1.468.161c.026.049.054.1.081.147a1.536,1.536,0,0,0,1.391-.194" transform="translate(-16.481 -46.451)" fill="#d37b69"/>
        <path id="Trazado_141302" data-name="Trazado 141302" d="M35.392,100.6l-.23-.006a1.661,1.661,0,0,0,.31.153c-.026-.049-.054-.1-.08-.147" transform="translate(-16.283 -46.585)" fill="#d37b69"/>
        <path id="Trazado_141303" data-name="Trazado 141303" d="M30.834,33.42c-.027-.842-.008-1.686-.008-2.53a.379.379,0,0,1-.047-.008c0,.4-.048.792-.081,1.18-.128,1.507-.14,3.02-.28,4.524.37-.052.689.233,1.049.26a1.211,1.211,0,0,1,.442.135A8.381,8.381,0,0,0,34.537,36c.283-.126.569-.249.853-.372.009-.047.019-.093.024-.14a17.839,17.839,0,0,0,.2-2.293c-1.008.356-1.914.93-2.879,1.377a1.371,1.371,0,0,1-1.9-1.155" transform="translate(-14.087 -14.301)" fill="#e58d79"/>
        <path id="Trazado_141304" data-name="Trazado 141304" d="M30.511,31.086c.033-.388.083-.784.081-1.18-.261-.042-.154-.28-.191-.445-.052-.229.137-.511-.148-.689a1.306,1.306,0,0,1,.083.855q-.156,3.025-.322,6.049a.659.659,0,0,1,.217-.067c.14-1.5.151-3.017.28-4.524" transform="translate(-13.899 -13.324)" fill="#e58d79"/>
        <path id="Trazado_141305" data-name="Trazado 141305" d="M39.7,37.418c-.006.047-.016.093-.024.14l.238-.1a12.151,12.151,0,0,0,.2-2.412c-.074.023-.143.057-.216.083a17.829,17.829,0,0,1-.2,2.293" transform="translate(-18.374 -16.228)" fill="#e58d79"/>
        <path id="Trazado_141306" data-name="Trazado 141306" d="M31.088,30.818a.378.378,0,0,0,.047.008V30.8a.319.319,0,0,1-.05-.055c0,.025,0,.05,0,.075" transform="translate(-14.395 -14.237)" fill="#e58d79"/>
        <path id="Trazado_141307" data-name="Trazado 141307" d="M30.607,29.46c.037.164-.07.4.191.445,0-.025,0-.05,0-.076-.272-.3.122-.826-.336-1.058h0c.286.178.1.459.148.688" transform="translate(-14.105 -13.323)" fill="#e58d79"/>
        <path id="Trazado_141308" data-name="Trazado 141308" d="M31.3,41.889a2.823,2.823,0,0,0,.6.006,1.217,1.217,0,0,0-.443-.135c-.36-.027-.678-.312-1.049-.259v.007c0,.035,0,.071-.007.107.3.1.557.325.9.273" transform="translate(-14.08 -19.216)" fill="#e58d79"/>
        <path id="Trazado_141309" data-name="Trazado 141309" d="M30.23,41.513v-.007a.66.66,0,0,0-.218.067.839.839,0,0,1,.21.047c0-.036,0-.071.008-.107" transform="translate(-13.899 -19.221)" fill="#e58d79"/>
        <path id="Trazado_141310" data-name="Trazado 141310" d="M95.734,137.741q-.441,2.383-.866,4.769a1.532,1.532,0,0,1-.2.561c.45.014.9.011,1.352.016a.733.733,0,0,0,.794-.631c.314-1.189.548-2.4.858-3.587a.622.622,0,0,0-.479-.849,5.634,5.634,0,0,1-1.434-.769,1.557,1.557,0,0,1-.03.491" transform="translate(-43.842 -63.558)" fill="#2864ef"/>
        <path id="Trazado_141311" data-name="Trazado 141311" d="M95.612,136.953a5.657,5.657,0,0,0,1.433.769.622.622,0,0,1,.48.849c-.311,1.189-.544,2.4-.859,3.587a.733.733,0,0,1-.793.631c-.451-.005-.9,0-1.352-.016a.891.891,0,0,1-.176.209c.641.009,1.282.006,1.922.031.322.013.461-.094.535-.425.327-1.457.685-2.907,1.038-4.358.074-.3.048-.486-.322-.57a5.725,5.725,0,0,1-2.047-1.053h0a.677.677,0,0,1,.14.345" transform="translate(-43.69 -63.261)" fill="#2864ef"/>
        <path id="Trazado_141312" data-name="Trazado 141312" d="M94.555,142.958a1.529,1.529,0,0,0,.195-.56q.422-2.387.866-4.769a1.569,1.569,0,0,0,.03-.49c-.06-.043-.119-.086-.178-.13q-.526,2.973-1.051,5.946l.138,0" transform="translate(-43.723 -63.446)" fill="#2864ef"/>
        <path id="Trazado_141313" data-name="Trazado 141313" d="M94.385,148.082l-.038.214a.917.917,0,0,0,.176-.209l-.138,0" transform="translate(-43.691 -68.574)" fill="#2864ef"/>
        <path id="Trazado_141314" data-name="Trazado 141314" d="M96.373,136.823l.178.13a.677.677,0,0,0-.14-.345h0c-.013.072-.026.143-.038.215" transform="translate(-44.629 -63.261)" fill="#2864ef"/>
        <path id="Trazado_141315" data-name="Trazado 141315" d="M50.226,137.74a1.547,1.547,0,0,1-.03-.492,5.87,5.87,0,0,1-1.5.8.584.584,0,0,0-.418.807c.308,1.189.548,2.4.855,3.586a.765.765,0,0,0,.86.65c.43-.01.861-.006,1.292-.017a1.525,1.525,0,0,1-.2-.562q-.421-2.386-.866-4.769" transform="translate(-22.341 -63.557)" fill="#2864ef"/>
        <path id="Trazado_141316" data-name="Trazado 141316" d="M49.735,142.792a.765.765,0,0,1-.86-.651c-.308-1.19-.548-2.4-.855-3.586a.584.584,0,0,1,.418-.806,5.9,5.9,0,0,0,1.5-.8.679.679,0,0,1,.14-.344,5.414,5.414,0,0,1-1.97,1.023c-.439.1-.479.294-.379.675.222.852.408,1.712.606,2.57.514,2.228.513,2.228,2.87,2.1a.9.9,0,0,1-.175-.208c-.431.012-.862.007-1.292.018" transform="translate(-22.08 -63.261)" fill="#2864ef"/>
        <path id="Trazado_141317" data-name="Trazado 141317" d="M51.873,137.136a1.563,1.563,0,0,0,.03.492q.441,2.383.866,4.769a1.525,1.525,0,0,0,.2.562l.137,0q-.525-2.974-1.051-5.948c-.059.044-.118.087-.178.129" transform="translate(-24.017 -63.446)" fill="#2864ef"/>
        <path id="Trazado_141318" data-name="Trazado 141318" d="M53.913,148.089a.9.9,0,0,0,.175.208c-.012-.071-.025-.141-.038-.212l-.137,0" transform="translate(-24.966 -68.576)" fill="#2864ef"/>
        <path id="Trazado_141319" data-name="Trazado 141319" d="M52.059,136.823c-.013-.071-.025-.143-.038-.214a.679.679,0,0,0-.14.344c.06-.042.119-.085.178-.129" transform="translate(-24.025 -63.261)" fill="#2864ef"/>
        <path id="Trazado_141320" data-name="Trazado 141320" d="M113.678,36.626c0-.018,0-.037,0-.055-.1-1.809-.22-3.617-.285-5.427a.376.376,0,0,1-.1.03c-.006,0-.009-.01-.014-.015a20.138,20.138,0,0,0,.013,2.061c.093.9-.523,1.261-1.118,1.667-.263.179-.453-.034-.658-.125-1.021-.453-1.969-1.063-3.025-1.442.02.774.1,1.542.187,2.31l.008.112,2.654,1.188a6.006,6.006,0,0,1,2.341-.3" transform="translate(-50.239 -14.423)" fill="#e58d79"/>
        <path id="Trazado_141321" data-name="Trazado 141321" d="M117.744,29.57c-.039.161.068.384-.125.475.065,1.81.183,3.618.285,5.427,0,.018,0,.037,0,.055.072,0,.146,0,.217-.008-.077-1.407-.164-2.813-.227-4.221a8.578,8.578,0,0,1-.005-2.528c-.3.219-.084.536-.148.8" transform="translate(-54.467 -13.323)" fill="#e58d79"/>
        <path id="Trazado_141322" data-name="Trazado 141322" d="M108.487,37.436c-.086-.768-.168-1.536-.188-2.31-.072-.026-.142-.06-.215-.084a12.192,12.192,0,0,0,.2,2.412l.209.093-.008-.112" transform="translate(-50.05 -16.227)" fill="#e58d79"/>
        <path id="Trazado_141323" data-name="Trazado 141323" d="M117.42,31.061a.382.382,0,0,0,.1-.03c0-.044,0-.088-.006-.133a.448.448,0,0,1-.107.133v.014a.192.192,0,0,0,.014.015" transform="translate(-54.369 -14.308)" fill="#e58d79"/>
        <path id="Trazado_141324" data-name="Trazado 141324" d="M117.739,29.57c.064-.264-.157-.581.148-.8h0c-.454.272-.092.79-.28,1.143,0,.045,0,.089.006.133.193-.091.086-.314.125-.475" transform="translate(-54.462 -13.323)" fill="#e58d79"/>
        <path id="Trazado_141325" data-name="Trazado 141325" d="M113.8,41.663h0a6.3,6.3,0,0,0,2.337-.218c0-.031,0-.061-.005-.091a6.009,6.009,0,0,0-2.341.3l.01,0" transform="translate(-52.696 -19.15)" fill="#e58d79"/>
        <path id="Trazado_141326" data-name="Trazado 141326" d="M118.16,41.438a2.105,2.105,0,0,0,.212-.1c-.072,0-.145.006-.217.009,0,.031,0,.061.005.091" transform="translate(-54.716 -19.143)" fill="#e58d79"/>
        <path id="Trazado_141327" data-name="Trazado 141327" d="M55.425,48.608a37.592,37.592,0,0,0,5.183-.324,10.736,10.736,0,0,0,5.651-2.213c2.2-1.771,2.169-1.747,3.732.509a3.945,3.945,0,0,0,2.949,2,1.6,1.6,0,0,1,1.676,1.067c.165.449.7.249,1.057.351.177.05.188-.209.194-.367a11.369,11.369,0,0,0-1.594-6.813c-.206.181-.283-.039-.368-.138A12.177,12.177,0,0,0,66.4,38.5a12.51,12.51,0,0,0-9.861,2.44A5.823,5.823,0,0,0,54.7,42.683c-.058.106-.16.319-.365.136h0a11.3,11.3,0,0,0-1.592,6.813c.008.157.032.43.191.366.38-.151.939.136,1.138-.49a1.259,1.259,0,0,1,1.358-.9" transform="translate(-24.413 -17.743)" fill="#333940"/>
        <path id="Trazado_141328" data-name="Trazado 141328" d="M72.6,72.694a9.606,9.606,0,0,0,2.562-6.675c0-1.493-.006-2.986,0-4.478,0-.28-.106-.594.16-.827A5.563,5.563,0,0,1,72.9,57.845l-.331-.336a12.224,12.224,0,0,1-5.424,3.242c-.934.27-1.9.194-2.828.434a2.458,2.458,0,0,0-2,2.3,14.719,14.719,0,0,0,.778,6.531,15.766,15.766,0,0,0,2.245,3.275,6.766,6.766,0,0,0,7.122-.17c-.258-.234.038-.32.134-.426" transform="translate(-28.844 -26.631)" fill="#f9a491"/>
        <path id="Trazado_141329" data-name="Trazado 141329" d="M104,65.169c.3-.087.509.1.742.222a2.314,2.314,0,0,0,3.659-1.743c.329-1.844.447-3.718.591-5.583.332-4.318.558-8.643.521-12.978a12.509,12.509,0,0,0-.4-3.414,1.208,1.208,0,0,1-.057-.709l.028-.011a5.418,5.418,0,0,1-2.644-1.127c.181,2.5.338,5,.7,7.475a19.3,19.3,0,0,1-.613,7.515c-.575,2.335-1.086,4.686-1.567,7.042a4.828,4.828,0,0,1-1.139,2.082c-.063.078-.12.161-.18.24a2.356,2.356,0,0,0,.312,1.04.455.455,0,0,1,.05-.052" transform="translate(-47.995 -18.443)" fill="#f19a86"/>
        <path id="Trazado_141330" data-name="Trazado 141330" d="M103.8,63.805a4.823,4.823,0,0,0,1.139-2.082c.481-2.357.992-4.707,1.567-7.042a19.3,19.3,0,0,0,.613-7.515c-.359-2.47-.515-4.978-.7-7.475-.071-.052-.143-.1-.213-.157a6.563,6.563,0,0,0-.017.8c.236,2.474.492,4.946.724,7.421a12.165,12.165,0,0,1-.073,4.373c-.594,2.245-1,4.54-1.553,6.8-.406,1.658-.389,3.479-1.7,4.822.01.1.02.2.032.3.061-.08.117-.162.18-.241" transform="translate(-47.968 -18.308)" fill="#f19a86"/>
        <path id="Trazado_141331" data-name="Trazado 141331" d="M104.716,66.445a2.538,2.538,0,0,0,4.172-1.663c.261-1.6.327-3.221.512-4.827.374-3.255.41-6.526.6-9.788.094-1.653.007-3.315.02-4.972a8.794,8.794,0,0,0-.645-3.267l-.016,0c-.01,0-.019.006-.028.011a1.212,1.212,0,0,0,.057.709,12.527,12.527,0,0,1,.4,3.414c.037,4.335-.19,8.659-.521,12.978-.143,1.865-.262,3.739-.591,5.582a2.313,2.313,0,0,1-3.659,1.743c-.233-.124-.446-.309-.742-.222a.415.415,0,0,0-.05.052l.005.01a.8.8,0,0,1,.488.242" transform="translate(-48.264 -19.415)" fill="#f19a86"/>
        <path id="Trazado_141332" data-name="Trazado 141332" d="M111.506,40.9l-2.653-1.188c0,.021,0,.042,0,.064A5.416,5.416,0,0,0,111.5,40.9l.006,0" transform="translate(-50.408 -18.389)" fill="#f19a86"/>
        <path id="Trazado_141333" data-name="Trazado 141333" d="M108.672,39.627l-.209-.093c.07.054.142.105.213.157,0-.021,0-.042,0-.064" transform="translate(-50.227 -18.308)" fill="#f19a86"/>
        <path id="Trazado_141334" data-name="Trazado 141334" d="M113.8,41.926l-.01,0-.005,0,.016,0" transform="translate(-52.692 -19.413)" fill="#f19a86"/>
        <path id="Trazado_141335" data-name="Trazado 141335" d="M33.738,42.18c-.019.8,0,1.6,0,2.406a178.527,178.527,0,0,0,1,18.158,6.514,6.514,0,0,0,.213,1.183,2.26,2.26,0,0,0,3.38,1.414c.278-.147.517-.4.874-.339a.68.68,0,0,1,.089.068A1.553,1.553,0,0,0,39.6,64.2c-.059-.079-.114-.162-.175-.24a4.949,4.949,0,0,1-1.266-2.626c-.653-3.117-1.325-6.233-2.086-9.325a11.436,11.436,0,0,1-.05-3.747c.208-2.585.57-5.157.623-7.754a3.718,3.718,0,0,1,.112-.667A5.968,5.968,0,0,1,33.4,41.207a1.131,1.131,0,0,1,.339.973" transform="translate(-15.467 -18.45)" fill="#f19a86"/>
        <path id="Trazado_141336" data-name="Trazado 141336" d="M38.8,40.367c-.053,2.6-.415,5.169-.623,7.754a11.421,11.421,0,0,0,.05,3.747c.761,3.092,1.433,6.208,2.085,9.325a4.956,4.956,0,0,0,1.266,2.626c.062.078.116.161.176.24.011-.1.018-.2.025-.3a5.869,5.869,0,0,1-1.211-2.462c-.416-2.253-.991-4.477-1.474-6.72-.447-2.075-1.116-4.116-.716-6.305.21-1.151.235-2.337.337-3.507q.228-2.612.447-5.225l-.249.165a3.718,3.718,0,0,0-.112.667" transform="translate(-17.617 -18.308)" fill="#f19a86"/>
        <path id="Trazado_141337" data-name="Trazado 141337" d="M32.078,42.229c.813.1.837.65.812,1.3-.13,3.452.152,6.9.154,10.349,0,.08,0,.161.006.241.212,2.652.414,5.3.641,7.955A23.048,23.048,0,0,0,34.043,65a2.481,2.481,0,0,0,2.442,2.019,5.13,5.13,0,0,0,2.187-.839l0,0a.639.639,0,0,0-.089-.069c-.358-.058-.6.192-.875.339a2.26,2.26,0,0,1-3.38-1.414,6.545,6.545,0,0,1-.213-1.183,178.535,178.535,0,0,1-1-18.158c0-.8-.016-1.605,0-2.407a1.13,1.13,0,0,0-.34-.973,3.574,3.574,0,0,1-.709-.083" transform="translate(-14.855 -19.556)" fill="#f19a86"/>
        <path id="Trazado_141338" data-name="Trazado 141338" d="M33.2,41.077a.8.8,0,0,1,.108.077,5.964,5.964,0,0,0,3.361-1.365c0-.02.007-.041.011-.061-.285.123-.57.246-.853.372a8.4,8.4,0,0,1-2.626.977" transform="translate(-15.373 -18.397)" fill="#f19a86"/>
        <path id="Trazado_141339" data-name="Trazado 141339" d="M39.658,39.7l.249-.165-.238.1c0,.02-.007.041-.011.061" transform="translate(-18.365 -18.308)" fill="#f19a86"/>
        <path id="Trazado_141340" data-name="Trazado 141340" d="M32.078,42.229a3.574,3.574,0,0,0,.709.083.79.79,0,0,0-.107-.077,2.823,2.823,0,0,1-.6-.006" transform="translate(-14.855 -19.556)" fill="#f19a86"/>
        <path id="Trazado_141341" data-name="Trazado 141341" d="M42.664,86.255c.245.218.168.52.093.785-.435,1.562-.8,3.144-1.344,4.676a1.178,1.178,0,0,1-.729.814c2.54.886,3.625,2.426,3.884,5.383.055.628,0,1.052-.792.892a1.5,1.5,0,0,0-.42.014,1.136,1.136,0,0,1-.014.851,8.674,8.674,0,0,1-.2.941c-.571,1.7.394,2.821,1.48,3.857.586.558.916.434,1.127-.333a25.149,25.149,0,0,0,1.038-6.4,1.9,1.9,0,0,1,.081-.856,25.024,25.024,0,0,0-2.208-8.65,16.139,16.139,0,0,0-1.533-2.646.583.583,0,0,1-.457.675" transform="translate(-18.84 -39.631)" fill="#e58c79"/>
        <path id="Trazado_141342" data-name="Trazado 141342" d="M46.652,87.792a25.012,25.012,0,0,1,2.208,8.65.689.689,0,0,1,.151-.2,15.134,15.134,0,0,0-.524-3.709A20.248,20.248,0,0,0,45,84.642a3.287,3.287,0,0,1,.121.5,16.062,16.062,0,0,1,1.533,2.646" transform="translate(-20.838 -39.196)" fill="#e58c79"/>
        <path id="Trazado_141343" data-name="Trazado 141343" d="M40.721,92.481c-.146.459-.516.47-.895.479.159.048.312.1.461.15a1.179,1.179,0,0,0,.73-.814c.541-1.532.908-3.114,1.344-4.676.074-.265.151-.567-.094-.785l-.006,0a44.5,44.5,0,0,1-1.54,5.642" transform="translate(-18.443 -40.212)" fill="#e58c79"/>
        <path id="Trazado_141344" data-name="Trazado 141344" d="M48.5,107.475a25.173,25.173,0,0,1-1.038,6.4c-.211.767-.541.891-1.128.333-1.086-1.035-2.05-2.159-1.48-3.857a8.674,8.674,0,0,0,.2-.941,1.132,1.132,0,0,0,.014-.85l-.055.005c-.089.388-.21.771-.259,1.163-.089.706-.517,1.421-.3,2.1a5.509,5.509,0,0,0,1.641,2.517c.971.837,1.312.7,1.635-.532a30.559,30.559,0,0,0,.921-5.074,15.047,15.047,0,0,0-.072-2.11v-.008a1.9,1.9,0,0,0-.08.856" transform="translate(-20.561 -49.374)" fill="#e58c79"/>
        <path id="Trazado_141345" data-name="Trazado 141345" d="M52.193,106.453a14.972,14.972,0,0,1,.072,2.11,20.839,20.839,0,0,0,.078-2.32.691.691,0,0,0-.151.2v.008" transform="translate(-24.169 -49.199)" fill="#e58c79"/>
        <path id="Trazado_141346" data-name="Trazado 141346" d="M44.369,86.084a.583.583,0,0,0,.457-.675c-.048-.067-.1-.133-.146-.2a1.558,1.558,0,0,1-.315.871l0,0" transform="translate(-20.545 -39.459)" fill="#e58c79"/>
        <path id="Trazado_141347" data-name="Trazado 141347" d="M44.952,84.946c.049.066.1.132.146.2a3.287,3.287,0,0,0-.121-.5c-.007.1-.014.2-.025.3" transform="translate(-20.817 -39.196)" fill="#e58c79"/>
        <path id="Trazado_141348" data-name="Trazado 141348" d="M44.365,86.835l0,0,0,0,.006,0" transform="translate(-20.542 -40.211)" fill="#e58c79"/>
        <path id="Trazado_141349" data-name="Trazado 141349" d="M97.953,103.457c.067.251.067.6.336.689.337.106.481-.268.675-.465a7.844,7.844,0,0,0,.843-1.167,2.451,2.451,0,0,0,.374-2.2,2.194,2.194,0,0,1-.15-1.5c-1.35-.07-1.34-.089-1.119-1.541a5.48,5.48,0,0,1,2.677-4.373,4.9,4.9,0,0,1,1.107-.382,1.09,1.09,0,0,1-.7-.706c-.594-1.592-.943-3.255-1.383-4.891a.507.507,0,0,1,.11-.517.741.741,0,0,1-.459-.843,19.247,19.247,0,0,0-2.674,5.631,22.573,22.573,0,0,0-.908,4.232c0,.026,0,.053-.009.079a6.5,6.5,0,0,1,.251,1.8,40.118,40.118,0,0,0,1.031,6.155" transform="translate(-44.767 -39.622)" fill="#e58c79"/>
        <path id="Trazado_141350" data-name="Trazado 141350" d="M96.56,94.995a22.557,22.557,0,0,1,.908-4.231,19.262,19.262,0,0,1,2.674-5.632,2.946,2.946,0,0,1,.12-.5,20.939,20.939,0,0,0-3.851,10.154,2.023,2.023,0,0,1,.14.287c0-.026,0-.053.009-.079" transform="translate(-44.646 -39.192)" fill="#e58c79"/>
        <path id="Trazado_141351" data-name="Trazado 141351" d="M106.537,93.1c-.65.1-.92-.339-1.06-.839-.476-1.7-.915-3.413-1.369-5.121l-.01-.006a.508.508,0,0,0-.111.517c.44,1.636.79,3.3,1.384,4.891a1.09,1.09,0,0,0,.7.706c.157-.043.314-.089.467-.148" transform="translate(-48.143 -40.349)" fill="#e58c79"/>
        <path id="Trazado_141352" data-name="Trazado 141352" d="M97.924,112.828c.075.206.055.535.452.3a4.738,4.738,0,0,0,1.9-4.483c-.1-.413-.164-.834-.245-1.251l-.054,0a2.187,2.187,0,0,0,.15,1.5,2.452,2.452,0,0,1-.374,2.2,7.838,7.838,0,0,1-.843,1.167c-.194.2-.337.571-.675.464-.268-.084-.269-.438-.335-.689a39.976,39.976,0,0,1-1.031-6.155,6.544,6.544,0,0,0-.251-1.8c-.027.184-.041.367-.061.55.131,1.416.244,2.834.453,4.238a20.075,20.075,0,0,0,.913,3.962" transform="translate(-44.714 -48.197)" fill="#e58c79"/>
        <path id="Trazado_141353" data-name="Trazado 141353" d="M96.49,104.382c.02-.184.034-.367.061-.55a2.023,2.023,0,0,0-.14-.287c.028.279.053.558.079.838" transform="translate(-44.646 -47.95)" fill="#e58c79"/>
        <path id="Trazado_141354" data-name="Trazado 141354" d="M103.81,86.231l0,0a2.357,2.357,0,0,1-.312-1.04c-.051.067-.1.134-.151.2a.741.741,0,0,0,.459.843" transform="translate(-47.856 -39.449)" fill="#e58c79"/>
        <path id="Trazado_141355" data-name="Trazado 141355" d="M103.511,84.93c-.011-.1-.021-.2-.032-.3a2.994,2.994,0,0,0-.12.5q.075-.1.151-.2" transform="translate(-47.864 -39.192)" fill="#e58c79"/>
        <path id="Trazado_141356" data-name="Trazado 141356" d="M104.22,87.123l0,0,.01.006,0-.011" transform="translate(-48.26 -40.345)" fill="#e58c79"/>
        <path id="Trazado_141357" data-name="Trazado 141357" d="M104.584,27.005c.722.339,1.424.72,2.144,1.063a1.158,1.158,0,0,0,1.75-1.02c.043-.477,0-.957.018-1.436.009-.283-.035-.585.2-.813a1.248,1.248,0,0,1-.306-.6,2.361,2.361,0,0,0-2.4-1.742c-1.2-.033-2.394-.009-3.591-.01a2.893,2.893,0,0,1-2.2-.963c-.2-.219-.4-.462-.263-.762a1.89,1.89,0,0,1-.459-1.359,9.886,9.886,0,0,0-.043-1.518c-.037-.219-.135-.425-.4-.419a.369.369,0,0,0-.353.374A18.711,18.711,0,0,0,98.7,21.23c.037.338.333.533.59.728.935.71,1.845,1.462,2.826,2.1a3.335,3.335,0,0,1,1.79,2.731c.245-.053.464.113.679.215" transform="translate(-45.667 -8.068)" fill="#f19a86"/>
        <path id="Trazado_141358" data-name="Trazado 141358" d="M101.933,23.776c-.981-.639-1.891-1.391-2.826-2.1-.256-.195-.553-.39-.59-.728a18.758,18.758,0,0,1-.011-3.434.369.369,0,0,1,.353-.374c.266-.006.364.2.4.419a9.954,9.954,0,0,1,.044,1.518,1.887,1.887,0,0,0,.459,1.359.744.744,0,0,1,.093-.146c-.573-.823-.275-1.759-.327-2.646-.026-.454-.127-.824-.639-.833s-.663.341-.659.807c.01,1.041.026,2.083-.009,3.123a.974.974,0,0,0,.489.914c1.016.733,1.98,1.544,3.02,2.239a3.153,3.153,0,0,1,1.787,2.706.512.512,0,0,1,.2-.093,3.335,3.335,0,0,0-1.79-2.731" transform="translate(-45.485 -7.785)" fill="#f19a86"/>
        <path id="Trazado_141359" data-name="Trazado 141359" d="M101.051,23.563c-.142.3.059.543.262.762a2.892,2.892,0,0,0,2.2.963c1.2,0,2.395-.022,3.591.01a2.362,2.362,0,0,1,2.4,1.742,1.249,1.249,0,0,0,.306.6s0-.006.006-.009a2.524,2.524,0,0,0-2.759-2.572c-1.255,0-2.511.016-3.766-.005a2.235,2.235,0,0,1-2.066-1.346L101.2,23.7a1.572,1.572,0,0,1-.151-.139" transform="translate(-46.773 -10.912)" fill="#f19a86"/>
        <path id="Trazado_141360" data-name="Trazado 141360" d="M101.243,23.576c.006,0,.012.005.018.01a1.506,1.506,0,0,1-.077-.294.739.739,0,0,0-.092.146,1.449,1.449,0,0,0,.151.139" transform="translate(-46.814 -10.786)" fill="#f19a86"/>
        <path id="Trazado_141361" data-name="Trazado 141361" d="M112.162,34.9c.594-.405,1.21-.762,1.117-1.666a19.985,19.985,0,0,1-.012-2.061l-.006-.006c-.238.228-.193.53-.2.813-.015.478.025.959-.018,1.436a1.158,1.158,0,0,1-1.75,1.021c-.721-.343-1.422-.724-2.144-1.064-.215-.1-.434-.267-.679-.215,0,.056.011.108.01.166v.01c1.056.379,2,.988,3.025,1.441.206.091.395.3.659.125" transform="translate(-50.229 -14.431)" fill="#f19a86"/>
        <path id="Trazado_141362" data-name="Trazado 141362" d="M108.3,35.047v-.01c0-.058-.008-.11-.01-.166a.519.519,0,0,0-.2.093c.074.024.142.057.215.084" transform="translate(-50.053 -16.148)" fill="#f19a86"/>
        <path id="Trazado_141363" data-name="Trazado 141363" d="M117.4,31.161v-.015s0,.006-.006.009l.006.006" transform="translate(-54.364 -14.423)" fill="#f19a86"/>
        <path id="Trazado_141364" data-name="Trazado 141364" d="M39.835,21.331a2.775,2.775,0,0,1-2.3,1.12c-1.1.011-2.2.027-3.295,0a2.552,2.552,0,0,0-2.783,1.826.786.786,0,0,1-.258.385c.306.359.171.8.195,1.2s-.02.8.017,1.2a1.159,1.159,0,0,0,1.751,1.021c.721-.341,1.422-.724,2.143-1.063.216-.1.434-.266.679-.214a3.354,3.354,0,0,1,1.793-2.735c.985-.639,1.89-1.4,2.839-2.1a1.457,1.457,0,0,0,.645-1.3c-.019-.83.012-1.66-.013-2.49-.01-.311,0-.744-.428-.73-.418.013-.39.442-.407.756-.024.427,0,.856-.013,1.284a1.9,1.9,0,0,1-.309,1.074c.12.3-.085.539-.259.768" transform="translate(-14.45 -8.08)" fill="#f19a86"/>
        <path id="Trazado_141365" data-name="Trazado 141365" d="M44.532,19.2c.012-.428-.01-.857.013-1.285.018-.314-.01-.742.408-.756.433-.014.418.418.428.73.025.83-.005,1.66.013,2.489a1.454,1.454,0,0,1-.645,1.3c-.948.7-1.853,1.462-2.838,2.1a3.35,3.35,0,0,0-1.793,2.734.52.52,0,0,1,.205.093,3.14,3.14,0,0,1,1.792-2.7c.977-.649,1.87-1.422,2.834-2.091a1.315,1.315,0,0,0,.674-1.311c-.063-.823-.008-1.655-.018-2.483-.006-.514.15-1.2-.662-1.19-.746.011-.6.661-.623,1.154a5.478,5.478,0,0,1-.187,2.134.646.646,0,0,1,.091.158,1.888,1.888,0,0,0,.309-1.074" transform="translate(-18.578 -7.794)" fill="#f19a86"/>
        <path id="Trazado_141366" data-name="Trazado 141366" d="M31.45,26.962a2.553,2.553,0,0,1,2.783-1.826c1.1.028,2.2.012,3.295,0a2.776,2.776,0,0,0,2.3-1.121c.174-.229.38-.472.259-.768a.524.524,0,0,1-.207.22,2.332,2.332,0,0,1-2.183,1.443c-1.227.021-2.454,0-3.682.005a2.546,2.546,0,0,0-2.834,2.411c.006.006.009.013.014.019a.789.789,0,0,0,.257-.385" transform="translate(-14.438 -10.766)" fill="#f19a86"/>
        <path id="Trazado_141367" data-name="Trazado 141367" d="M47.5,23.234a1.373,1.373,0,0,0,.084-.122.636.636,0,0,0-.091-.158,2.358,2.358,0,0,1-.116.378,1.478,1.478,0,0,0,.122-.1" transform="translate(-21.94 -10.63)" fill="#f19a86"/>
        <path id="Trazado_141368" data-name="Trazado 141368" d="M35.292,33.237c-.722.339-1.423.722-2.143,1.063A1.159,1.159,0,0,1,31.4,33.279c-.037-.4.006-.8-.017-1.2s.111-.842-.194-1.2c0,0,0,.006-.008.009h-.006c0,.843-.02,1.688.008,2.53a1.371,1.371,0,0,0,1.9,1.155c.965-.448,1.872-1.021,2.879-1.377v0c0-.06.008-.114.011-.172-.245-.052-.464.113-.679.214" transform="translate(-14.432 -14.301)" fill="#f19a86"/>
        <path id="Trazado_141369" data-name="Trazado 141369" d="M40.1,35.042v0c.072-.026.142-.059.216-.082a.515.515,0,0,0-.2-.093c0,.058-.011.112-.011.172" transform="translate(-18.568 -16.148)" fill="#f19a86"/>
        <path id="Trazado_141370" data-name="Trazado 141370" d="M31.184,30.875l.008-.009c-.005-.006-.008-.013-.014-.019v.027h.006" transform="translate(-14.438 -14.285)" fill="#f19a86"/>
        <path id="Trazado_141371" data-name="Trazado 141371" d="M110.494,9.583q-1.847-.032-3.695,0a1.264,1.264,0,0,0-1.374,1.342c-.024,1.1.016,2.194-.017,3.291-.014.456.173.524.562.514.883-.024,1.767-.008,2.651-.008.91,0,1.821-.016,2.731.008.374.01.515-.09.506-.488-.025-1.1.006-2.2-.014-3.294a1.264,1.264,0,0,0-1.35-1.365" transform="translate(-48.813 -4.431)" fill="#f9a491"/>
        <path id="Trazado_141372" data-name="Trazado 141372" d="M36.239,9.583q-1.847-.033-3.7,0a1.259,1.259,0,0,0-1.367,1.346c-.023,1.1.017,2.2-.017,3.294-.015.466.188.515.568.506.883-.021,1.768-.006,2.651-.006.911,0,1.821-.017,2.731.008.383.011.507-.106.5-.494-.024-1.1.008-2.194-.014-3.291a1.267,1.267,0,0,0-1.356-1.361" transform="translate(-14.429 -4.43)" fill="#f9a491"/>
        <path id="Trazado_141373" data-name="Trazado 141373" d="M60.978,66.122c-.062-.85-.023-1.71-.007-2.564a2.891,2.891,0,0,1,2.9-3.092,10.787,10.787,0,0,0,6.9-3.015c.188-.18.374-.4.688-.324-.1-.623-.364-.49-.74-.2a12.009,12.009,0,0,1-4.854,2.158,30.792,30.792,0,0,1-5.326.573c-.444.019-.659.077-.649.61.037,2-.077,4.013.043,6.01a7.442,7.442,0,0,0,4.3,6.63,8.883,8.883,0,0,1-3.248-6.787" transform="translate(-27.725 -26.25)" fill="#e58c78"/>
        <path id="Trazado_141374" data-name="Trazado 141374" d="M62.13,63.472a2.459,2.459,0,0,1,2-2.3c.929-.24,1.894-.164,2.828-.434A12.219,12.219,0,0,0,72.38,57.5c-.314-.072-.5.144-.688.324a10.787,10.787,0,0,1-6.9,3.015,2.891,2.891,0,0,0-2.9,3.092c-.016.855-.055,1.713.008,2.564a8.882,8.882,0,0,0,3.248,6.787A15.777,15.777,0,0,1,62.908,70a14.721,14.721,0,0,1-.778-6.532" transform="translate(-28.652 -26.619)" fill="#e58c78"/>
        <path id="Trazado_141375" data-name="Trazado 141375" d="M63.905,37.151a12.8,12.8,0,0,1,10.042,2.8c.659.515,1.118,1.2,1.715,1.766A15.962,15.962,0,0,0,74.6,40.126,11.462,11.462,0,0,0,61.469,36.74a10.741,10.741,0,0,0-5.749,4.971,12.372,12.372,0,0,1,8.185-4.561" transform="translate(-25.803 -16.636)" fill="#404851"/>
        <path id="Trazado_141376" data-name="Trazado 141376" d="M56.084,42.514a5.829,5.829,0,0,1,1.848-1.741,12.514,12.514,0,0,1,9.861-2.44,12.178,12.178,0,0,1,7.5,4.181c.085.1.162.319.368.138-.6-.563-1.056-1.251-1.715-1.766a12.8,12.8,0,0,0-10.042-2.8,12.373,12.373,0,0,0-8.185,4.561h0c.2.183.307-.03.364-.136" transform="translate(-25.803 -17.574)" fill="#404851"/>
        <path id="Trazado_141377" data-name="Trazado 141377" d="M14.558,18.122c.011-4.3.016-8.6.041-12.9,0-.621-.416-.4-.712-.433-.348-.041-.649-.019-.586.476a5.765,5.765,0,0,1,0,.721c0,1.332,0,1.332-1.285,1.4V9.9c1.285.068,1.283.068,1.286,1.4q.01,3.729.025,7.458a2.838,2.838,0,0,0,1.227-.641" transform="translate(-5.567 -2.21)" fill="#7f52fe"/>
        <path id="Trazado_141378" data-name="Trazado 141378" d="M9.784,7.364C8.5,7.3,8.5,7.3,8.5,5.969a6.559,6.559,0,0,1,0-.719c.041-.39-.132-.453-.5-.5-.9-.12-.866.4-.768,1L7.4,5.722a.791.791,0,0,1,.933.561.444.444,0,0,1-.117.576c-.426.273-.674-.112-.975-.292h0L7.245,18.1c.424.187.728.6,1.227.644q.013-3.73.025-7.46c0-1.335,0-1.335,1.287-1.4a2.891,2.891,0,0,1,0-2.519" transform="translate(-3.33 -2.191)" fill="#2b8efb"/>
        <path id="Trazado_141379" data-name="Trazado 141379" d="M11.772,12.155V9.636a2.891,2.891,0,0,0,0,2.519" transform="translate(-5.318 -4.462)" fill="#2b8efb"/>
        <path id="Trazado_141380" data-name="Trazado 141380" d="M134.317,18.938l.034-.021-.014-1.246c-1.286-.068-1.286-.068-1.286-1.4,0-3.638-.008-7.275.009-10.913,0-.447-.115-.635-.577-.578-.341.041-.736-.139-.731.506.035,4.278.035,8.557.047,12.836a3.439,3.439,0,0,0,2.518.818" transform="translate(-61.012 -2.208)" fill="#7e52fe"/>
        <path id="Trazado_141381" data-name="Trazado 141381" d="M71.337,94.982a1.769,1.769,0,0,0-1.806.616c-.009.346-.038.693-.024,1.039a2.567,2.567,0,0,0,5.133,0c.024-.665-.012-1.333-.02-2a5.81,5.81,0,0,1-3.283.34" transform="translate(-32.186 -43.827)" fill="#e58c78"/>
        <path id="Trazado_141382" data-name="Trazado 141382" d="M136.7,18.8a.465.465,0,0,1-.063.106,3.423,3.423,0,0,0,2.471-.8h0q.016-6.422.04-12.844c0-.379-.117-.462-.492-.512-.9-.118-.876.389-.774,1l.158-.023a.791.791,0,0,1,.933.56.445.445,0,0,1-.117.577c-.426.272-.674-.112-.976-.292q-.013,4.844-.025,9.689c0,1.33,0,1.33-1.287,1.4A1.213,1.213,0,0,1,136.7,18.8" transform="translate(-63.241 -2.19)" fill="#2b8efb"/>
        <path id="Trazado_141383" data-name="Trazado 141383" d="M136.632,30.05a.464.464,0,0,0,.063-.106,1.215,1.215,0,0,0-.13-1.145l.014,1.246c.018,0,.035,0,.053,0" transform="translate(-63.241 -13.337)" fill="#2b8efb"/>
        <path id="Trazado_141384" data-name="Trazado 141384" d="M85.062,70.561a39.479,39.479,0,0,0,.143-6.567l-1.022-.454a.548.548,0,0,1,0,.094c-.04,1.418-.061,2.837-.009,4.252a10.186,10.186,0,0,1-2.93,8.027,7.32,7.32,0,0,0,3.814-5.352" transform="translate(-37.625 -29.424)" fill="#feb7a7"/>
        <path id="Trazado_141385" data-name="Trazado 141385" d="M84.091,67.857c-.052-1.415-.031-2.834.009-4.252a.681.681,0,0,0,0-.094l-.076-.034c-.266.234-.158.548-.16.827-.01,1.493-.005,2.986,0,4.478a9.606,9.606,0,0,1-2.562,6.675c-.1.106-.391.193-.134.426a10.186,10.186,0,0,0,2.93-8.027" transform="translate(-37.536 -29.395)" fill="#feb7a7"/>
        <path id="Trazado_141386" data-name="Trazado 141386" d="M139.088,29.637a2.027,2.027,0,0,1-2.48.812.485.485,0,0,1-.077.07q.01.594.019,1.187c1.285.068,1.285.068,1.285,1.342a5.591,5.591,0,0,1-.005.723c-.069.521.23.56.627.54.345-.018.69.074.674-.5-.042-1.392-.032-2.785-.043-4.177" transform="translate(-63.225 -13.724)" fill="#2357d0"/>
        <path id="Trazado_141387" data-name="Trazado 141387" d="M136.529,31.141c0,.022,0,.043,0,.066a.485.485,0,0,0,.077-.071c-.015-.006-.03-.009-.045-.016Z" transform="translate(-63.224 -14.411)" fill="#2357d0"/>
        <path id="Trazado_141388" data-name="Trazado 141388" d="M136.683,30.438l-.009.011a2.028,2.028,0,0,0,2.481-.812,3.424,3.424,0,0,1-2.472.8" transform="translate(-63.292 -13.724)" fill="#2357d0"/>
        <path id="Trazado_141389" data-name="Trazado 141389" d="M136.645,31.125c-.018,0-.034,0-.053,0,.014.007.03.01.044.016l.009-.011" transform="translate(-63.254 -14.411)" fill="#2357d0"/>
        <path id="Trazado_141390" data-name="Trazado 141390" d="M134.266,30.54a2.232,2.232,0,0,1-2.469-.9c-.011,1.365,0,2.731-.047,4.095-.021.563.25.571.675.589.491.02.7-.128.627-.63a4,4,0,0,1,0-.562c0-1.354,0-1.354,1.288-1.421a.988.988,0,0,1-.07-1.166" transform="translate(-61.011 -13.723)" fill="#5931c1"/>
        <path id="Trazado_141391" data-name="Trazado 141391" d="M134.307,30.54c.016-.028.031-.057.049-.086a3.44,3.44,0,0,1-2.519-.818,2.232,2.232,0,0,0,2.469.9" transform="translate(-61.052 -13.723)" fill="#5931c1"/>
        <path id="Trazado_141392" data-name="Trazado 141392" d="M136.335,31.3l-.033.005a.988.988,0,0,0,.07,1.166l-.019-1.187c-.006,0-.011.011-.017.016" transform="translate(-63.046 -14.486)" fill="#5931c1"/>
        <path id="Trazado_141393" data-name="Trazado 141393" d="M136.437,31.245l.033-.005c.006,0,.011-.011.017-.016,0-.022,0-.043,0-.066-.019.029-.033.058-.049.086" transform="translate(-63.182 -14.429)" fill="#5931c1"/>
        <path id="Trazado_141394" data-name="Trazado 141394" d="M73.72,93.005a7.364,7.364,0,0,1-2.62.149c-.549-.032-1.275-.5-1.584-.077-.276.381-.047,1.128-.041,1.713a1.219,1.219,0,0,1,1.389-.834,8.757,8.757,0,0,0,3.314-.181.532.532,0,0,1,.386.059c.118-.68.071-1.112-.843-.829" transform="translate(-32.129 -43.02)" fill="#d37c69"/>
        <path id="Trazado_141395" data-name="Trazado 141395" d="M74.258,94.519a8.757,8.757,0,0,1-3.314.181,1.219,1.219,0,0,0-1.389.835,1.769,1.769,0,0,1,1.806-.616,5.8,5.8,0,0,0,3.283-.34.532.532,0,0,0-.386-.06" transform="translate(-32.21 -43.764)" fill="#d37c69"/>
        <path id="Trazado_141396" data-name="Trazado 141396" d="M7.253,29.635c-.011,1.386,0,2.774-.043,4.159-.017.544.284.517.652.515s.675.037.655-.512c-.043-1.172-.027-2.346-.036-3.519-.625.2-.936-.2-1.227-.643" transform="translate(-3.338 -13.723)" fill="#2357d0"/>
        <path id="Trazado_141397" data-name="Trazado 141397" d="M8.518,30.278c-.5-.042-.8-.456-1.227-.643.291.44.6.841,1.227.643" transform="translate(-3.376 -13.723)" fill="#2357d0"/>
        <path id="Trazado_141398" data-name="Trazado 141398" d="M15.657,29.637c-.261.5-.605.834-1.226.641-.008,1.173.007,2.347-.035,3.518-.019.544.288.514.654.515s.669.026.652-.517C15.659,32.409,15.668,31.023,15.657,29.637Z" transform="translate(-6.666 -13.724)" fill="#5931c1"/>
        <path id="Trazado_141399" data-name="Trazado 141399" d="M15.688,29.637a2.837,2.837,0,0,1-1.226.641c.621.193.965-.144,1.226-.641" transform="translate(-6.697 -13.724)" fill="#5931c1"/>
        <path id="Trazado_141400" data-name="Trazado 141400" d="M62.946,98.048c0-.017,0-.033,0-.049a2.363,2.363,0,0,0-1.621-2.474,7.449,7.449,0,0,1-.264,1.392,5.662,5.662,0,0,0,1.389.837,2.86,2.86,0,0,1,.5.295" transform="translate(-28.274 -44.236)" fill="#2bb3fc"/>
        <path id="Trazado_141401" data-name="Trazado 141401" d="M61.191,95.251a2.362,2.362,0,0,1,1.621,2.474c0,.017,0,.033,0,.05a1.052,1.052,0,0,1,.208.209c-.045-.5-.1-1-.13-1.495-.013-.217-.012-.412-.226-.547-.5-.312-.99-.637-1.563-1.008-.125.6-.228,1.083-.33,1.57h0c.046.052.1.091.151.137a7.444,7.444,0,0,0,.264-1.391" transform="translate(-28.144 -43.962)" fill="#2bb3fc"/>
        <path id="Trazado_141402" data-name="Trazado 141402" d="M61.172,98.56c.589.256,1.13.615,1.74.826a1.032,1.032,0,0,1-.016-.139,2.9,2.9,0,0,0-.5-.3,5.636,5.636,0,0,1-1.389-.837l0,.021c-.018.074-.037.147-.054.221a.451.451,0,0,0,.225.2" transform="translate(-28.224 -45.435)" fill="#2bb3fc"/>
        <path id="Trazado_141403" data-name="Trazado 141403" d="M64.576,100.224a1.021,1.021,0,0,0,.016.139c.064.023.126.051.192.07a1.066,1.066,0,0,0-.208-.209" transform="translate(-29.904 -46.412)" fill="#2bb3fc"/>
        <path id="Trazado_141404" data-name="Trazado 141404" d="M60.922,98.017c0-.007,0-.014,0-.021-.05-.046-.1-.086-.151-.137a.9.9,0,0,0,.092.38c.018-.074.037-.147.054-.221" transform="translate(-28.144 -45.317)" fill="#2bb3fc"/>
        <path id="Trazado_141405" data-name="Trazado 141405" d="M85.9,96.87a6.007,6.007,0,0,1-.248-1.416c-.257.118-.48.36-.761.509a1.256,1.256,0,0,0-.759,1.284,2.711,2.711,0,0,1-.114.763,4.411,4.411,0,0,1,.928-.5,4.175,4.175,0,0,0,.954-.642" transform="translate(-38.908 -44.203)" fill="#2bb3fc"/>
        <path id="Trazado_141406" data-name="Trazado 141406" d="M83.947,97.039a1.256,1.256,0,0,1,.76-1.284c.281-.149.5-.391.761-.509a6.006,6.006,0,0,0,.248,1.416c.05-.044.106-.079.154-.127a4.514,4.514,0,0,0-.408-1.53c-.492.326-.946.644-1.417.931a.613.613,0,0,0-.3.586c-.02.5-.083,1-.129,1.493a1.313,1.313,0,0,1,.216-.214,2.729,2.729,0,0,0,.113-.763" transform="translate(-38.722 -43.996)" fill="#2bb3fc"/>
        <path id="Trazado_141407" data-name="Trazado 141407" d="M85.942,98.344c-.018-.068-.033-.137-.053-.2,0-.016-.007-.031-.01-.047a4.166,4.166,0,0,1-.955.642,4.42,4.42,0,0,0-.928.5c-.011.048-.017.1-.025.146.612-.211,1.154-.571,1.744-.827a.448.448,0,0,0,.226-.206" transform="translate(-38.886 -45.425)" fill="#2bb3fc"/>
        <path id="Trazado_141408" data-name="Trazado 141408" d="M83.808,100.359c.009-.048.015-.1.025-.146a1.332,1.332,0,0,0-.215.214c.066-.018.126-.047.19-.069" transform="translate(-38.722 -46.407)" fill="#2bb3fc"/>
        <path id="Trazado_141409" data-name="Trazado 141409" d="M87.535,98.03c.02.067.035.136.053.2a.938.938,0,0,0,.091-.379c-.048.047-.1.082-.154.127,0,.016.008.031.01.047" transform="translate(-40.531 -45.316)" fill="#2bb3fc"/>
        <path id="Trazado_141410" data-name="Trazado 141410" d="M94.744,65.748a.975.975,0,0,0-.7-.955c-.412-.173-.632-.164-.613.393.035.985.01,1.972.01,3.063a2.238,2.238,0,0,0,1.3-2.5" transform="translate(-43.267 -29.959)" fill="#e58d79"/>
        <path id="Trazado_141411" data-name="Trazado 141411" d="M52.68,65.4a2.378,2.378,0,0,0,1.262,2.849V65.373c0-.107,0-.214,0-.321,0-.188.025-.408-.271-.352a1.142,1.142,0,0,0-.993.7" transform="translate(-24.341 -29.958)" fill="#e58d7a"/>
        <path id="Trazado_141412" data-name="Trazado 141412" d="M84.377,60.715a.4.4,0,0,1,.181.286,1.029,1.029,0,0,1,1.024.489c-.094-.459.38-1.115-.344-1.347a8.19,8.19,0,0,1-3.177-2.009,9.634,9.634,0,0,0,2.316,2.58" transform="translate(-38.001 -26.921)" fill="#e48c78"/>
        <path id="Trazado_141413" data-name="Trazado 141413" d="M84.484,61h0c.026,0,.048,0,.074,0a.4.4,0,0,0-.181-.286,9.634,9.634,0,0,1-2.317-2.58A5.562,5.562,0,0,0,84.484,61" transform="translate(-38.001 -26.922)" fill="#e48c78"/>
        <path id="Trazado_141414" data-name="Trazado 141414" d="M86.712,63.469c0,.011,0,.024,0,.035l1.022.454a1.029,1.029,0,0,0-1.024-.489" transform="translate(-40.155 -29.389)" fill="#e48c78"/>
        <path id="Trazado_141415" data-name="Trazado 141415" d="M86.575,63.476h0l.076.034c0-.012,0-.024,0-.035-.025,0-.048,0-.074,0" transform="translate(-40.091 -29.394)" fill="#e48c78"/>
        <path id="Trazado_141416" data-name="Trazado 141416" d="M55.179,90.749c-.528-.338-1.048-.688-1.776-1.169.514,1.421.97,2.6,1.4,3.872.179-.721.347-1.444.544-2.159.066-.239.053-.4-.166-.543" transform="translate(-24.73 -41.483)" fill="#b4776e"/>
        <path id="Trazado_141417" data-name="Trazado 141417" d="M91.536,91.3c.2.715.364,1.438.6,2.386a38.437,38.437,0,0,1,1.339-4.1c-.726.482-1.245.835-1.773,1.173-.222.142-.23.3-.165.54" transform="translate(-42.372 -41.485)" fill="#b4776e"/>
        <path id="Trazado_141418" data-name="Trazado 141418" d="M8.089,7.377c.159-.5-.38-.513-.684-.666a.592.592,0,0,1-.126-.091l0,.822c.266-.2.672.374.812-.065" transform="translate(-3.37 -3.066)" fill="#eef5fc"/>
        <path id="Trazado_141419" data-name="Trazado 141419" d="M8.253,7.7a.444.444,0,0,0,.117-.576.791.791,0,0,0-.933-.561L7.28,6.59a.614.614,0,0,0,.126.091c.3.154.843.165.684.666-.14.439-.546-.139-.812.065.3.18.549.565.975.292" transform="translate(-3.37 -3.036)" fill="#eef5fc"/>
        <path id="Trazado_141420" data-name="Trazado 141420" d="M139.819,7.377c.159-.5-.38-.513-.684-.666a.582.582,0,0,1-.127-.091l0,.821c.266-.2.672.374.812-.064" transform="translate(-64.372 -3.066)" fill="#eef5fc"/>
        <path id="Trazado_141421" data-name="Trazado 141421" d="M139.983,7.7a.445.445,0,0,0,.117-.577.791.791,0,0,0-.933-.56l-.157.023a.585.585,0,0,0,.126.091c.3.154.843.165.684.666-.14.439-.546-.138-.811.064.3.18.549.565.975.292" transform="translate(-64.372 -3.036)" fill="#eef5fc"/>
        <path id="Trazado_141422" data-name="Trazado 141422" d="M38.408,99.586a13.773,13.773,0,0,0,1.524,1.647,3.028,3.028,0,0,1,1.1,2.139c.1.8.369,1.326,1.225,1.406.009.012.014.024.022.035a.056.056,0,0,1,.018-.018c1.067-.457,1.064-.456.861-1.721a5.222,5.222,0,0,0-2-3.62,4.226,4.226,0,0,0-1.37-.646c-.178-.05-.411-.038-.534-.191-.774-.108-.574.634-.841.97" transform="translate(-17.786 -45.662)"/>
        <path id="Trazado_141423" data-name="Trazado 141423" d="M39.2,98.42a.394.394,0,0,1-.079-.2c-.661-.13-.912.141-.788.794a1.309,1.309,0,0,1-.018.315c.007.014.03.043.045.065.267-.336.067-1.079.841-.97" transform="translate(-17.737 -45.467)"/>
        <path id="Trazado_141424" data-name="Trazado 141424" d="M42.22,105.623c-.857-.081-1.123-.609-1.226-1.406a3.028,3.028,0,0,0-1.1-2.139,13.81,13.81,0,0,1-1.523-1.647c-.011.012-.017.028-.028.039l-.014.008c.006.308.008.616.022.924.008.171-.061.388.234.414,1.62.147,2.03,1.328,2.26,2.658.2,1.166.2,1.166,1.364,1.227.011-.014.021-.031.032-.045-.008-.012-.013-.024-.021-.035" transform="translate(-17.75 -46.508)"/>
        <path id="Trazado_141425" data-name="Trazado 141425" d="M38.37,100.376c-.015-.022-.037-.051-.045-.066,0,.038,0,.075,0,.113l.015-.008c.011-.011.017-.027.027-.04" transform="translate(-17.748 -46.452)"/>
        <path id="Trazado_141426" data-name="Trazado 141426" d="M39.974,98.577c.123.152.355.14.534.191a4.226,4.226,0,0,1,1.37.646,5.222,5.222,0,0,1,2,3.62c.2,1.265.207,1.264-.861,1.721a.062.062,0,0,0-.018.018c.009.013.017.026.024.039a1.48,1.48,0,0,1,.42-.015c.792.161.847-.264.792-.892-.258-2.957-1.344-4.5-3.884-5.383a1.188,1.188,0,0,1-.371.054h-.01" transform="translate(-18.511 -45.624)"/>
        <path id="Trazado_141427" data-name="Trazado 141427" d="M39.905,98.448h.01a1.187,1.187,0,0,0,.371-.054c-.149-.052-.3-.1-.461-.15a.394.394,0,0,0,.079.2" transform="translate(-18.443 -45.495)"/>
        <path id="Trazado_141428" data-name="Trazado 141428" d="M45.557,110.211l.055-.006c-.008-.013-.015-.026-.024-.039-.011.014-.021.031-.032.045" transform="translate(-21.097 -51.016)"/>
        <path id="Trazado_141429" data-name="Trazado 141429" d="M105.113,98.629h-.008c-.107.126-.3.13-.456.171a4.465,4.465,0,0,0-3.225,3.27,12.279,12.279,0,0,0-.346,1.568c-.1.566-.054,1.035.7,1.035a.378.378,0,0,1,.292.155.187.187,0,0,0,.007-.018c.816-.115,1.136-.579,1.246-1.406a2.8,2.8,0,0,1,2.019-2.611.553.553,0,0,0,.405-.533,1.028,1.028,0,0,1,.194-.67,1.137,1.137,0,0,1-.19-.544c-.064-.37-.337-.409-.635-.416" transform="translate(-46.789 -45.673)"/>
        <path id="Trazado_141430" data-name="Trazado 141430" d="M108.621,98.417c.3.007.571.046.635.416a1.137,1.137,0,0,0,.19.544.4.4,0,0,1,.052-.058c-.1-.494.287-1.34-.806-1.11a.35.35,0,0,1-.078.207h.008" transform="translate(-50.297 -45.461)"/>
        <path id="Trazado_141431" data-name="Trazado 141431" d="M106.63,101.087a.553.553,0,0,1-.405.533,2.8,2.8,0,0,0-2.019,2.61c-.11.828-.43,1.291-1.246,1.407,0,.006,0,.012-.007.018.012.016.03.023.041.041,1.163-.061,1.155-.062,1.366-1.226a6.856,6.856,0,0,1,.292-1.158,1.907,1.907,0,0,1,1.5-1.4c.647-.078.776-.361.71-.912a2.938,2.938,0,0,1,.01-.527.51.51,0,0,1-.045-.052,1.029,1.029,0,0,0-.194.67" transform="translate(-47.676 -46.501)"/>
        <path id="Trazado_141432" data-name="Trazado 141432" d="M110.163,100.367a.572.572,0,0,0,.045.052c0-.037.006-.074.008-.11a.434.434,0,0,0-.052.058" transform="translate(-51.015 -46.451)"/>
        <path id="Trazado_141433" data-name="Trazado 141433" d="M101.589,104.621c-.752,0-.8-.469-.7-1.035a12.259,12.259,0,0,1,.346-1.568,4.465,4.465,0,0,1,3.225-3.27c.156-.04.35-.045.456-.171a1.281,1.281,0,0,1-.389-.059,4.907,4.907,0,0,0-1.107.382,5.48,5.48,0,0,0-2.676,4.373c-.221,1.452-.231,1.471,1.119,1.541,0-.013.008-.025.013-.038a.379.379,0,0,0-.292-.155" transform="translate(-46.603 -45.623)"/>
        <path id="Trazado_141434" data-name="Trazado 141434" d="M108.356,98.243c-.152.059-.309.1-.467.148a1.284,1.284,0,0,0,.389.059.351.351,0,0,0,.078-.207" transform="translate(-49.962 -45.495)"/>
        <path id="Trazado_141435" data-name="Trazado 141435" d="M102.928,110.211l.054,0c-.011-.017-.028-.025-.041-.04-.005.012-.008.025-.013.038" transform="translate(-47.664 -51.019)"/>
      </g>
    </g>
  </g>
</svg>
