<svg xmlns="http://www.w3.org/2000/svg" xmlns:xlink="http://www.w3.org/1999/xlink" width="133" height="133" viewBox="0 0 133 133">
  <defs>
    <clipPath id="clip-path">
      <rect id="Rect치ngulo_38405" data-name="Rect치ngulo 38405" width="96.087" height="79.214" fill="none"/>
    </clipPath>
  </defs>
  <g id="Grupo_161432" data-name="Grupo 161432" transform="translate(-3920.715 9834.285)">
    <rect id="Rect치ngulo_37519" data-name="Rect치ngulo 37519" width="133" height="133" rx="66.5" transform="translate(3920.715 -9834.285)" fill="#6b8dfc"/>
    <g id="Grupo_161436" data-name="Grupo 161436" transform="translate(3938.714 -9807.285)">
      <g id="Grupo_161436-2" data-name="Grupo 161436" clip-path="url(#clip-path)">
        <path id="Trazado_141484" data-name="Trazado 141484" d="M133.255,77.73a4.046,4.046,0,0,1,1.624,4.163c-.078.371.133.612.3.887A11.4,11.4,0,0,1,125.1,100.314a5.3,5.3,0,0,1-2.011-.3,6.213,6.213,0,0,0-4.286.024A15.4,15.4,0,0,1,99.892,86.81a1.536,1.536,0,0,1-.031-.291c.09-1.065-.326-1.486-1.457-1.672a3.907,3.907,0,0,1,.729-7.688c.2-.016.624.221.571-.239-.057-.5-.465-.183-.692-.152-.48.063-.946.227-1.424.31a1.143,1.143,0,0,1-1.486-.9A1.068,1.068,0,0,1,97.122,74.8c.97-.079,1.066-.563,1.072-1.394a74.445,74.445,0,0,1,.15-8.184A18.092,18.092,0,0,1,133.976,63.9a22,22,0,0,1,.391,4.847c0,2.438-.008,4.877.012,7.315.007.794-.184,1.422-1.124,1.666" transform="translate(-40.972 -21.278)"/>
        <path id="Trazado_141485" data-name="Trazado 141485" d="M35.386,76.728a9.778,9.778,0,0,1,2.039.372,3.954,3.954,0,0,1,2.334,3.926,3.811,3.811,0,0,1-3.119,3.526c-.939.132-1.123.5-1.219,1.368-.8,7.3-5.5,12.507-12.511,13.966A15.491,15.491,0,0,1,4.673,86.567c-.01-.1-.03-.193-.031-.291-.013-.985-.16-1.639-1.466-1.784A3.736,3.736,0,0,1,.239,80.921,3.8,3.8,0,0,1,2.7,77.093c.775-.263.64-.574.407-1.1a35.77,35.77,0,0,1-3-9.932,9.411,9.411,0,0,1,.467-4.794,4.379,4.379,0,0,1,2.147-2.426,4.662,4.662,0,0,0,1.589-1.361,12.056,12.056,0,0,1,10.731-4.587,1.887,1.887,0,0,0,1.03-.162,6.853,6.853,0,0,1,6.02-.137,1.25,1.25,0,0,0,1.011.021,7.059,7.059,0,0,1,8.064,2,7.341,7.341,0,0,0,2.916,2.122,5.113,5.113,0,0,1,3.354,4.827c.035.553.174.751.705.9a3.932,3.932,0,0,1,2.72,5.343c-1.134,3.345-2.564,6.507-5.48,8.923" transform="translate(0 -22.304)"/>
        <path id="Trazado_141486" data-name="Trazado 141486" d="M69.271,0q7.169,0,14.336,0a5.138,5.138,0,0,1,5.411,5.369q.017,7.752,0,15.505a5.091,5.091,0,0,1-5.294,5.274c-4.681.011-9.362.022-14.044-.015-.833-.007-1.117.153-1.175,1.075a10.009,10.009,0,0,1-6.452,9.067c-.565.248-1.167.492-1.748.031S59.885,35.2,60,34.6a14.114,14.114,0,0,0,.141-5.228c-.418-2.227-1.565-3.194-3.808-3.218a11.4,11.4,0,0,1-2.909-.17A5.061,5.061,0,0,1,49.6,21.145c-.025-5.363-.035-10.727,0-16.09A5.081,5.081,0,0,1,54.739.01C59.583-.009,64.427,0,69.271,0" transform="translate(-21.282 0)"/>
        <path id="Trazado_141487" data-name="Trazado 141487" d="M98.875,51.244c-1.463,0-2.927.007-4.39,0-.97-.007-1.469-.416-1.469-1.169s.5-1.166,1.469-1.168c2.927-.007,5.854,0,8.78-.008.8,0,1.337.307,1.431,1.128.082.713-.519,1.208-1.43,1.216-1.463.013-2.927,0-4.39,0" transform="translate(-39.926 -20.988)"/>
        <path id="Trazado_141488" data-name="Trazado 141488" d="M86.649,51.248c-1.041,0-1.576-.384-1.59-1.15s.515-1.189,1.546-1.193c1.015,0,1.594.409,1.61,1.149s-.565,1.191-1.566,1.194" transform="translate(-36.511 -20.992)" fill="#294369"/>
        <path id="Trazado_141489" data-name="Trazado 141489" d="M107.046,94.923c0-1.82.022-3.348-.013-4.875a.753.753,0,0,1,.626-.889A37.849,37.849,0,0,0,122.777,81c.624-.571.737-.019.967.321,2.082,3.077,4.489,5.887,7.846,7.557a2.87,2.87,0,0,1,1.833,3.26c-.186,2.752.184,5.525-.207,8.274a13.171,13.171,0,0,1-25.779,1.2c-.575-2.312-.316-4.654-.393-6.693" transform="translate(-45.942 -34.663)" fill="#fed7b6"/>
        <path id="Trazado_141490" data-name="Trazado 141490" d="M135.756,76.849A15.765,15.765,0,0,1,128.413,73a23.834,23.834,0,0,1-4.315-5.245.8.8,0,0,1,.089-1.1,23.681,23.681,0,0,0,3.443-5.736,1.326,1.326,0,0,0-.546-1.887c-.617-.289-1.256.078-1.623.979a21.324,21.324,0,0,1-5.626,7.85,33.87,33.87,0,0,1-10.677,6.289q-2.044.785-4.145,1.4c-.6.175-.721,0-.711-.568.029-1.529.024-3.058,0-4.586-.007-.473.146-.658.624-.779,1.255-.317,2.493-.708,3.726-1.1.921-.3,1.3-.884,1.038-1.551-.334-.843-.957-.942-1.753-.668-.919.316-1.864.552-2.784.866-.566.193-.729-.007-.621-.527a15.822,15.822,0,0,1,7.42-10.723,15.66,15.66,0,0,1,8.922-2.256c.761.028.908.208.574.906a21.779,21.779,0,0,1-9.18,9.774,5.7,5.7,0,0,0-.841.486c-.507.417-.868.913-.442,1.6a1.131,1.131,0,0,0,1.62.373,22.637,22.637,0,0,0,4.249-2.731,22.892,22.892,0,0,0,7.027-9.294c.189-.459.425-.525.9-.363a15.265,15.265,0,0,1,10.749,12.3c.529,2.761.124,5.577.219,8.366.019.577,0,1.155,0,1.774" transform="translate(-44.77 -23.026)" fill="#6d7485"/>
        <path id="Trazado_141491" data-name="Trazado 141491" d="M147.336,124.228c-.4-.094-1.106.258-1.282-.215-.166-.446.565-.677.9-.961a15.237,15.237,0,0,0,5.183-8.869,10.6,10.6,0,0,0,.3-2c.005-.625.252-.872.82-.941a1.615,1.615,0,0,0,.744-.193c.989-.734,1.352-.153,1.7.7a9.082,9.082,0,0,1-8.374,12.477" transform="translate(-62.681 -47.522)" fill="#4a5160"/>
        <path id="Trazado_141492" data-name="Trazado 141492" d="M101.507,103.643a5.388,5.388,0,0,1-.006.679c-.038.3.186.72-.187.868a1.137,1.137,0,0,1-1.076-.3,1.587,1.587,0,0,1-.442-2.08,1.173,1.173,0,0,1,1.348-.707c.628.147.278.688.357,1.053a2.325,2.325,0,0,1,.006.485" transform="translate(-42.745 -43.813)" fill="#ecc396"/>
        <path id="Trazado_141493" data-name="Trazado 141493" d="M157.314,103.665a5.536,5.536,0,0,1,.005-.675c.04-.317-.191-.747.316-.891a1.053,1.053,0,0,1,1.054.314,1.639,1.639,0,0,1-.345,2.622c-.757.4-1.018.252-1.03-.6,0-.257,0-.514,0-.772" transform="translate(-67.519 -43.807)" fill="#ebc296"/>
        <path id="Trazado_141494" data-name="Trazado 141494" d="M19.966,75.822a3.5,3.5,0,0,0,.8-.55c1.118-1.366,2.38-1.329,3.986-.828a10.546,10.546,0,0,0,7.932-.954c.933-.456,1.827-.99,2.763-1.438,3.052-1.463,5.665.249,5.879,3.626.369,5.846.309,11.694.292,17.542a13.18,13.18,0,0,1-10.9,12.786,7.638,7.638,0,0,1-.777.051c-2.1.5-3.623-.637-5.052-1.876A14.313,14.313,0,0,1,19.7,92.813a34.522,34.522,0,0,1,.094-4.655,15.48,15.48,0,0,0,.619-1.424,1.5,1.5,0,0,1,1.484-1.183,1.517,1.517,0,0,1,1.461,1.215,2.806,2.806,0,0,0,.2.546.822.822,0,0,0,.938.526.836.836,0,0,0,.66-.849,3.239,3.239,0,0,0-3.9-3.242c-.455.091-.922.408-1.38-.012a1.843,1.843,0,0,1-.219-1.026q-.02-2.9,0-5.794a1.715,1.715,0,0,1,.312-1.092" transform="translate(-8.433 -30.702)" fill="#fed7b6"/>
        <path id="Trazado_141495" data-name="Trazado 141495" d="M19.923,57.007a4.118,4.118,0,0,0,2.419-.506,4.194,4.194,0,0,1,4.2.139,2.082,2.082,0,0,0,2.187.023,4.725,4.725,0,0,1,5.41.884c.421.4.791.86,1.182,1.294a4.581,4.581,0,0,0,2.536,1.639,3.085,3.085,0,0,1,2.172,3.961c-.337,1.241.1,1.848,1.382,1.927a10.4,10.4,0,0,1,1.07.05c.832.139,1.591,1,1.368,1.733a18.445,18.445,0,0,1-3.005,6.463,5.537,5.537,0,0,1-.406-2.152c-.132-1.257-.171-2.526-.2-3.792A6.108,6.108,0,0,0,31.68,63a16.038,16.038,0,0,0-2.336,1.2c-3.781,2.268-7.527,2.014-11.257-.118-.338-.193-.68-.382-1.02-.571a1.1,1.1,0,0,0-1.6.407,1.081,1.081,0,0,0,.394,1.6c.958.715.986.76-.1,1.341-1.135.608-2.312,1.185-3.672.706a5.372,5.372,0,0,1,2.221-6.322A4.083,4.083,0,0,0,15.7,60.082a13.609,13.609,0,0,1,2.883-2.724,1.383,1.383,0,0,1,1.341-.351" transform="translate(-5.052 -24.039)" fill="#c1684f"/>
        <path id="Trazado_141496" data-name="Trazado 141496" d="M16.656,91.333c0,1.655-.038,3.31,0,4.963.144,5.826,2.9,10.051,7.967,12.82.632.345,1.345.045,2.01.173a11.484,11.484,0,0,1-7.519-1.355,12.683,12.683,0,0,1-7.129-11.587c-.091-5.2-.008-10.407-.035-15.611,0-.675.132-.872.851-.82a8,8,0,0,0,3.855-.862c0,2.357-.008,4.713,0,7.07,0,.309-.106.655.2.9.058.405-.3.535-.517.741a3.785,3.785,0,0,0-1.055,1.694c-.3,1.015-.013,1.489,1.035,1.715a.552.552,0,0,1,.338.155" transform="translate(-5.127 -33.933)" fill="#e4bca0"/>
        <path id="Trazado_141497" data-name="Trazado 141497" d="M16.62,57.654a4.6,4.6,0,0,0-2.334,1.478,10.1,10.1,0,0,0-2.094,2.293.977.977,0,0,1-.494.448c-2.236.822-2.861,2.626-2.91,4.778-.012.52,0,1.04,0,1.56a4.869,4.869,0,0,1-2.5-.7,1.547,1.547,0,0,0-2.039.17c-.527-2.351.141-3.754,2.248-4.785a3.532,3.532,0,0,0,1.162-1.284,10.11,10.11,0,0,1,8.412-4.105,2.094,2.094,0,0,1,.55.143" transform="translate(-1.749 -24.686)" fill="#9f5847"/>
        <path id="Trazado_141498" data-name="Trazado 141498" d="M4.354,77.773c.652.33,1.152.607,1.672.837.4.178.34.506.341.822,0,1.491,0,2.982-.08,4.494a32.888,32.888,0,0,1-1.934-6.153" transform="translate(-1.869 -33.383)" fill="#9e5747"/>
        <path id="Trazado_141499" data-name="Trazado 141499" d="M6.435,101.336a2.309,2.309,0,0,1,0,.388c-.063.358.218.894-.2,1.044a1.242,1.242,0,0,1-1.343-.568,1.522,1.522,0,0,1-.159-1.808,1.189,1.189,0,0,1,1.255-.723c.7.1.385.688.445,1.086a3.866,3.866,0,0,1,.005.581" transform="translate(-1.934 -42.776)" fill="#ebc296"/>
        <path id="Trazado_141500" data-name="Trazado 141500" d="M62.227,101.277a5.545,5.545,0,0,1,.005-.682c.041-.321-.193-.758.312-.908a1.039,1.039,0,0,1,1.128.389,1.525,1.525,0,0,1,.18,1.969,1.293,1.293,0,0,1-1.373.729c-.515-.135-.165-.728-.248-1.108a1.844,1.844,0,0,1,0-.389" transform="translate(-26.695 -42.77)" fill="#ebc296"/>
        <path id="Trazado_141501" data-name="Trazado 141501" d="M64.382,34.914a15.9,15.9,0,0,0-.315-4.8A5.567,5.567,0,0,0,58.3,25.579c-.618-.005-1.237.019-1.853-.007a2.727,2.727,0,0,1-2.732-2.742q-.041-7.951,0-15.9a2.74,2.74,0,0,1,2.865-2.813q14.489-.015,28.978,0a2.738,2.738,0,0,1,2.871,2.807q.049,7.951,0,15.9a2.734,2.734,0,0,1-3.014,2.752q-7.513.013-15.025,0c-1.784,0-2.417.611-2.407,2.4a8.1,8.1,0,0,1-2.752,6.506,5.932,5.932,0,0,1-.542.409c-.043.029-.119.011-.31.023" transform="translate(-23.047 -1.763)" fill="#f2cd7d"/>
        <path id="Trazado_141502" data-name="Trazado 141502" d="M126.13,119.3a7.149,7.149,0,0,1-4.673-1.845c-.582-.528-.834-1.123-.29-1.775s1.153-.529,1.786-.027c2.209,1.752,4.175,1.747,6.418-.012.64-.5,1.248-.6,1.785.053a1.14,1.14,0,0,1-.245,1.709,7.115,7.115,0,0,1-4.781,1.9" transform="translate(-51.88 -49.464)"/>
        <path id="Trazado_141503" data-name="Trazado 141503" d="M115.9,94.728a3.622,3.622,0,0,1,3.578,3.4c.023.758-.257,1.3-1.039,1.38a1.1,1.1,0,0,1-1.266-1.065c-.112-.816-.479-1.373-1.345-1.357a1.244,1.244,0,0,0-1.259,1.238c-.1.818-.523,1.254-1.348,1.172-.719-.071-1.1-.766-.97-1.631a3.677,3.677,0,0,1,3.649-3.138" transform="translate(-48.169 -40.661)"/>
        <path id="Trazado_141504" data-name="Trazado 141504" d="M138.967,94.759a3.7,3.7,0,0,1,3.617,3.3c.068.741-.2,1.319-.971,1.446a1.077,1.077,0,0,1-1.342-1.052c-.1-.766-.477-1.313-1.283-1.336s-1.219.481-1.329,1.265c-.1.742-.517,1.232-1.3,1.141-.845-.1-1.067-.712-1.01-1.494a3.637,3.637,0,0,1,3.617-3.266" transform="translate(-58.093 -40.674)"/>
        <path id="Trazado_141505" data-name="Trazado 141505" d="M31.1,116.9a7.135,7.135,0,0,1-4.7-1.86c-.587-.541-.778-1.151-.227-1.784.525-.6,1.118-.481,1.72-.017,2.285,1.759,4.181,1.764,6.423.014.638-.5,1.251-.6,1.789.05a1.139,1.139,0,0,1-.244,1.709A7.124,7.124,0,0,1,31.1,116.9" transform="translate(-11.095 -48.436)"/>
        <path id="Trazado_141506" data-name="Trazado 141506" d="M43.918,92.332a3.674,3.674,0,0,1,3.611,3.284A1.227,1.227,0,0,1,46.487,97.1,1.133,1.133,0,0,1,45.2,95.963a1.254,1.254,0,0,0-1.32-1.274A1.218,1.218,0,0,0,42.618,95.9c-.1.772-.5,1.3-1.348,1.185s-1.03-.755-.975-1.518a3.608,3.608,0,0,1,3.623-3.24" transform="translate(-17.292 -39.632)"/>
        <path id="Trazado_141507" data-name="Trazado 141507" d="M18.9,97.089c-1.373.2-1.946-.439-1.651-1.789A4.069,4.069,0,0,1,19.1,92.785c2.233-.748,4.02-.168,4.941,1.595a3.233,3.233,0,0,1,.374,1.69,1.139,1.139,0,0,1-2.223.3,5.618,5.618,0,0,1-.131-.57,1.274,1.274,0,0,0-2.515.033,1.83,1.83,0,0,1-.644,1.254" transform="translate(-7.372 -39.689)"/>
        <path id="Trazado_141508" data-name="Trazado 141508" d="M92.975,10.947c1.591,0,3.181.009,4.772,0,.813-.006,1.429.225,1.481,1.151.043.763-.47,1.189-1.434,1.191q-4.918.013-9.837,0c-.963,0-1.478-.43-1.433-1.192.054-.925.672-1.156,1.483-1.15,1.656.012,3.312,0,4.967,0" transform="translate(-37.139 -4.697)"/>
        <path id="Trazado_141509" data-name="Trazado 141509" d="M92.938,23.2c-1.656,0-3.312.007-4.967,0-.967-.006-1.461-.418-1.456-1.177s.5-1.158,1.473-1.159c3.246-.007,6.493,0,9.74-.007.808,0,1.434.208,1.5,1.135.054.787-.481,1.2-1.514,1.209-1.591.007-3.181,0-4.772,0" transform="translate(-37.135 -8.953)"/>
        <path id="Trazado_141510" data-name="Trazado 141510" d="M92.867,30.78c1.623,0,3.247.009,4.87,0,.81-.006,1.431.219,1.487,1.144.048.787-.483,1.2-1.524,1.2q-4.821.008-9.642,0c-1.051,0-1.554-.4-1.543-1.188s.511-1.148,1.58-1.151c1.591-.005,3.181,0,4.772,0" transform="translate(-37.135 -13.21)"/>
        <path id="Trazado_141511" data-name="Trazado 141511" d="M73,30.778c.681,0,1.365-.025,2.044.007a1.1,1.1,0,0,1,1.189,1.146A1.079,1.079,0,0,1,75.082,33.1q-2.043.058-4.089,0a1.085,1.085,0,0,1-1.146-1.189,1.115,1.115,0,0,1,1.209-1.133c.648-.021,1.3,0,1.947,0" transform="translate(-29.981 -13.207)"/>
        <path id="Trazado_141512" data-name="Trazado 141512" d="M73.045,23.206H71.2c-.805,0-1.353-.375-1.341-1.2.01-.767.535-1.14,1.3-1.142,1.265,0,2.531-.009,3.8,0,.751.006,1.279.354,1.286,1.146.007.849-.55,1.184-1.342,1.191-.616.005-1.233,0-1.85,0" transform="translate(-29.984 -8.954)"/>
        <path id="Trazado_141513" data-name="Trazado 141513" d="M73,13.285c-.616,0-1.233,0-1.85,0-.763,0-1.283-.374-1.3-1.142A1.112,1.112,0,0,1,71.1,10.95c1.3-.017,2.6-.019,3.894,0,.755.012,1.26.392,1.247,1.184s-.535,1.134-1.286,1.148c-.649.013-1.3,0-1.947,0" transform="translate(-29.983 -4.694)"/>
        <path id="Trazado_141514" data-name="Trazado 141514" d="M60.97,10.949c.895.009,1.463.482,1.443,1.2s-.592,1.148-1.5,1.141c-.93-.007-1.437-.437-1.419-1.2.018-.75.537-1.15,1.481-1.14" transform="translate(-25.535 -4.7)" fill="#2a4368"/>
        <path id="Trazado_141515" data-name="Trazado 141515" d="M60.958,30.781c.9.005,1.468.471,1.455,1.19s-.571,1.158-1.492,1.153-1.442-.427-1.431-1.19.526-1.159,1.468-1.153" transform="translate(-25.535 -13.212)" fill="#2a4368"/>
        <path id="Trazado_141516" data-name="Trazado 141516" d="M60.893,23.208c-.925-.011-1.431-.45-1.4-1.217.026-.746.547-1.139,1.495-1.126.888.013,1.459.5,1.428,1.217s-.607,1.137-1.519,1.126" transform="translate(-25.535 -8.956)" fill="#2a4368"/>
      </g>
    </g>
  </g>
</svg>
