<svg xmlns="http://www.w3.org/2000/svg" xmlns:xlink="http://www.w3.org/1999/xlink" width="133" height="133" viewBox="0 0 133 133">
  <defs>
    <clipPath id="clip-path">
      <rect id="Rect치ngulo_38404" data-name="Rect치ngulo 38404" width="91.192" height="72.468" fill="none"/>
    </clipPath>
  </defs>
  <g id="Grupo_161438" data-name="Grupo 161438" transform="translate(-3920.715 9834.285)">
    <rect id="Rect치ngulo_37519" data-name="Rect치ngulo 37519" width="133" height="133" rx="66.5" transform="translate(3920.715 -9834.285)" fill="#6b8dfc"/>
    <g id="Grupo_161440" data-name="Grupo 161440" transform="translate(3941.619 -9804.52)">
      <g id="Grupo_161434" data-name="Grupo 161434" clip-path="url(#clip-path)">
        <path id="Trazado_141436" data-name="Trazado 141436" d="M0,.525A1.31,1.31,0,0,1,1.872.352c6.89,3.938,13.8,7.835,20.7,11.767a1.255,1.255,0,0,0,1.439-.008Q34.457,6.134,44.926.194A1.214,1.214,0,0,1,46.254.2c6.947,3.957,13.9,7.895,20.84,11.87a1.467,1.467,0,0,0,1.678-.029Q78.917,6.248,89.087.5a6.144,6.144,0,0,1,.781-.42.917.917,0,0,1,1.276.708,4.955,4.955,0,0,1,.026.888q0,28.225.022,56.45a1.961,1.961,0,0,1-1.144,1.965Q79.286,66.145,68.564,72.27a1.211,1.211,0,0,1-1.325,0Q56.778,66.314,46.315,60.363a1.256,1.256,0,0,0-1.438-.008q-10.451,5.972-20.926,11.9a1.208,1.208,0,0,1-1.324.024Q11.857,66.15,1.079,60.033C.7,59.818.359,59.541,0,59.293V.525" transform="translate(0 0)" fill="#302d3d"/>
        <path id="Trazado_141437" data-name="Trazado 141437" d="M166.143,52.335c.733,2.458-.578,3.711-2.626,4.627a21.3,21.3,0,0,0-2.823,1.677.718.718,0,0,1-1.063-.1q-3.677-3.485-7.4-6.917c-.365-.336-.315-.615-.132-1.008a10.778,10.778,0,0,0,1.272-5.111,9.026,9.026,0,0,0-3.293-6.724c-.534-.453-.64-.707.045-1.059.79-.406,1.569-.836,2.324-1.3a.611.611,0,0,1,.9.111q6.208,6.242,12.445,12.455a1.186,1.186,0,0,1,.356.95c-.018.8-.006,1.6-.006,2.4" transform="translate(-80.67 -19.552)" fill="#43d177"/>
        <path id="Trazado_141438" data-name="Trazado 141438" d="M24.495,72.941,12.606,66.2c-2.6-1.476-5.2-2.963-7.813-4.416a1.092,1.092,0,0,1-.665-1.094q.022-27.157.014-54.314c0-.2.023-.4.042-.7.817.46,1.559.874,2.3,1.293,5.616,3.187,11.218,6.4,16.859,9.538.9.5,1.361,1.026,1.16,2.051a3.368,3.368,0,0,0-.006.626c-.4.106-.632-.185-.892-.332q-7.815-4.41-15.618-8.844C6.612,9.231,6.01,9.58,6.009,11.155q0,11.219,0,22.438c0,8.488.012,16.976-.017,25.463A1.837,1.837,0,0,0,7.064,60.89C12.7,64.044,18.3,67.246,23.929,70.415a.889.889,0,0,1,.576.963c-.048.466-.01.94-.01,1.563" transform="translate(-2.225 -3.06)" fill="#f0f1f1"/>
        <path id="Trazado_141439" data-name="Trazado 141439" d="M169.795,5.618V6.644q0,26.883.015,53.765a1.412,1.412,0,0,1-.835,1.441c-6.248,3.509-12.471,7.061-18.705,10.593-.246.14-.462.38-.862.329,0-.467.028-.938-.008-1.4a.84.84,0,0,1,.535-.891c5.676-3.194,11.335-6.417,17.012-9.608a1.784,1.784,0,0,0,1.039-1.758q-.034-24.034-.017-48.068c0-1.521-.644-1.887-1.99-1.125q-7.814,4.426-15.626,8.856c-.275.156-.56.293-.945.493,0-.633.015-1.158-.005-1.681a.626.626,0,0,1,.384-.625c6.618-3.748,13.232-7.5,20.008-11.345" transform="translate(-80.538 -3.029)" fill="#f0f1f1"/>
        <path id="Trazado_141440" data-name="Trazado 141440" d="M52.576,58.835v-8.7c0-4.3.012-8.6-.013-12.9A1.2,1.2,0,0,1,53.3,36c1.568-.835,3.108-1.723,4.632-2.635a1.093,1.093,0,0,1,1.29.035c1.718,1.05,3.442,2.092,5.188,3.095.487.28.578.475.284,1q-4.739,8.444-9.427,16.916-1.247,2.243-2.5,4.484l-.189-.057" transform="translate(-28.336 -17.882)" fill="#43d177"/>
        <path id="Trazado_141441" data-name="Trazado 141441" d="M52.592,106.761c0-4.12,0-8.211,0-12.3a.95.95,0,0,1,.092-.51c2.457-3.533,4.244-7.452,6.418-11.147,1.067-1.812,2.067-3.664,3.067-5.513.259-.478.478-.6,1.016-.348,3.03,1.417,6.078,2.8,9.13,4.166a.886.886,0,0,1,.6.945q-.025,6.36,0,12.721a.988.988,0,0,1-.563.99q-9.555,5.4-19.1,10.814a.81.81,0,0,1-.664.185" transform="translate(-28.352 -41.409)" fill="#43d177"/>
        <path id="Trazado_141442" data-name="Trazado 141442" d="M106.454,85.555c.272-.246.472-.116.672.113q4,4.581,8,9.157c1.894,2.158,3.8,4.3,5.7,6.455.23.261.568.449.61.847a12.386,12.386,0,0,1,.169,4.225c-.014.624-.472.453-.841.273-1.2-.584-2.338-1.283-3.492-1.949-3.283-1.9-6.6-3.732-9.891-5.619a1.662,1.662,0,0,1-.989-1.617c.029-1.568.032-3.138-.065-4.707.09-2.04.019-4.081.038-6.121a3.8,3.8,0,0,1,.083-1.057" transform="translate(-57.324 -46.05)" fill="#2f7877"/>
        <path id="Trazado_141443" data-name="Trazado 141443" d="M122.051,49a7.282,7.282,0,0,1,14.474-1.089,6.971,6.971,0,0,1-.654,4.049,56.1,56.1,0,0,1-6.19,10.14c-.289.4-.47.312-.717-.032A54.005,54.005,0,0,1,122.633,51.6,5.94,5.94,0,0,1,122.051,49" transform="translate(-65.793 -22.518)" fill="#fb3349"/>
        <path id="Trazado_141444" data-name="Trazado 141444" d="M117.183,31.649a11.1,11.1,0,0,0-3.515,2.771,8.949,8.949,0,0,0-1.228,9.256,10.063,10.063,0,0,0,.684,1.534c.431.685.148.868-.5,1-2.046.406-4.085.848-6.126,1.276a1.56,1.56,0,0,1-.107-.783c.029-3.911-.032-7.823.031-11.733q-.021-4.071,0-8.143c.007-1.225.3-1.391,1.358-.823.779.42,1.531.889,2.323,1.284,2.128,1.284,4.307,2.483,6.46,3.727.258.149.655.193.624.637" transform="translate(-57.351 -13.848)" fill="#2f7877"/>
        <path id="Trazado_141445" data-name="Trazado 141445" d="M18.22,95.388c1.734.831,3.37,1.839,5.038,2.789q3.005,1.71,6.007,3.426c.142,2.1.031,4.2.058,6.305.014,1.1.037,2.193-.014,3.289-.04.855-.318,1.025-1.065.6q-4.794-2.716-9.6-5.407a1.379,1.379,0,0,1-.687-1.344c0-1.54-.007-3.081,0-4.623q-.05-1.939-.023-3.878a1.452,1.452,0,0,1,.288-1.159" transform="translate(-9.663 -51.423)" fill="#2f7877"/>
        <path id="Trazado_141446" data-name="Trazado 141446" d="M149.543,81.227c2.99,2.8,5.914,5.485,8.778,8.238a1.473,1.473,0,0,0,2.107.208c1.8-1.126,3.642-2.2,5.454-3.282.242.224.154.442.154.632q.01,5.964,0,11.927A1.509,1.509,0,0,1,164,100.515q-4.4-1.055-8.8-2.129c-1.581-.384-3.159-.782-4.743-1.153a1.151,1.151,0,0,1-1.014-1.239q0-7.209.006-14.419a2.046,2.046,0,0,1,.087-.348" transform="translate(-80.568 -43.789)" fill="#43d177"/>
        <path id="Trazado_141447" data-name="Trazado 141447" d="M50.6,62c1.434-2.622,2.854-5.252,4.305-7.864q5.329-9.592,10.68-19.171c.681-1.222.608-1.481-.586-2.2l-5.777-3.458c.613-.349,1.125-.615,1.61-.925.341-.217.554.009.8.154,2.193,1.3,4.37,2.619,6.584,3.878.6.339.61.6.294,1.16C66.369,37.374,64.269,41.187,62.159,45c-.615,1.109-.5,1.47.632,1.99q4.961,2.273,9.926,4.541a1.866,1.866,0,0,1-.026,1.981c-2.115-.754-4.1-1.815-6.149-2.71-1.544-.672-3.068-1.391-4.6-2.088-1.343-.611-1.547-.545-2.242.7q-4.266,7.674-8.541,15.344c-.134.24-.163.587-.524.654A4.573,4.573,0,0,1,50.6,62" transform="translate(-27.108 -15.256)" fill="#fbbe49"/>
        <path id="Trazado_141448" data-name="Trazado 141448" d="M86.867,15.246v2.225q0,11.753,0,23.507c0,.956,0,.956-.89.554q-2.874-1.3-5.747-2.608c-.993-.453-.985-.455-.438-1.442q3.065-5.521,6.121-11.047c.641-1.161.558-1.441-.6-2.127Q82.1,22.4,78.88,20.51c-.373-.219-.627-.395-.075-.706,2.629-1.481,5.254-2.97,8.062-4.559" transform="translate(-42.311 -8.219)" fill="#43d177"/>
        <path id="Trazado_141449" data-name="Trazado 141449" d="M15.183,104.885c0,1.541.014,3.082.006,4.622a.9.9,0,0,0,.468.946c3.283,1.825,6.549,3.678,9.822,5.52.149.084.315.141.584.259v-3.439c0-1.986-.005-3.971.005-5.956,0-.311-.117-.66.181-.919,2.657,1.355,2.657,1.355,2.657,4.263v11.037c-1.86-1.048-3.606-2.028-5.349-3.014-3.5-1.982-7-3.979-10.509-5.942a1.148,1.148,0,0,1-.719-1.161c.046-2.429.034-4.857.042-7.286A1.694,1.694,0,0,1,15,104.3a3.706,3.706,0,0,0,.184.58" transform="translate(-6.647 -55.738)" fill="#43c7b7"/>
        <path id="Trazado_141450" data-name="Trazado 141450" d="M103.515,100.118a20.922,20.922,0,0,1,.151,4.593,1.359,1.359,0,0,0,.83,1.366c4.092,2.291,8.151,4.639,12.225,6.962.534.3,1.089.569,1.76.916v-4.578c1.082.69,1.531,2.043,2.734,2.619.092.044.1.326.1.5.006,2.045,0,4.089,0,6.3-1.211-.671-2.331-1.279-3.44-1.907q-4.939-2.8-9.871-5.606c-2.237-1.27-4.47-2.547-6.717-3.8a.849.849,0,0,1-.449-.873c.014-2.58.017-5.159.024-7.738a3.641,3.641,0,0,1,1.959.325c.331.232.736.407.695.92" transform="translate(-54.361 -53.302)" fill="#20506d"/>
        <path id="Trazado_141451" data-name="Trazado 141451" d="M12.433,34.162V19.8c1.426.8,2.787,1.56,4.143,2.328q5.839,3.309,11.677,6.62c.395.223.727.4.724.979-.032,5.28-.031,10.56-.04,15.841-.159.727-.58.774-1.14.43a1.7,1.7,0,0,1-.757-.684,3.973,3.973,0,0,1-.1-1.321c0-3.938-.039-7.875.02-11.812a2.478,2.478,0,0,0-1.447-2.549c-3.157-1.689-6.237-3.52-9.365-5.264-.6-.332-1.162-.516-1.585.245a2.145,2.145,0,0,0-.127,1.044q-.006,4.073,0,8.146a3.978,3.978,0,0,1-.052.882c-.082.36-.3.5-.651.361a2.645,2.645,0,0,1-1.293-.887" transform="translate(-6.703 -10.675)" fill="#43c7b7"/>
        <path id="Trazado_141452" data-name="Trazado 141452" d="M98.9,78.053q.013-.99.026-1.981l9.549-1.991c.145-.03.289-.065.434-.092,1.662-.313,1.662-.313,2.453,1.413-1.167.251-2.316.5-3.465.745-1.532.326-1.755.973-.711,2.16q6.958,7.915,13.929,15.819c.2.222.381.452.571.678a2.7,2.7,0,0,1-.152,1.921,1.87,1.87,0,0,1-1.326-.774q-7.9-9.037-15.812-18.067a1.634,1.634,0,0,0-1.859-.6c-1.2.311-2.423.521-3.637.773" transform="translate(-53.315 -39.802)" fill="#fb6a35"/>
        <path id="Trazado_141453" data-name="Trazado 141453" d="M107.269,21.788a15.049,15.049,0,0,1-2.807-1.5c-.582-.34-.74-.253-.737.425.014,2.783-.009,5.567-.018,8.351a1.615,1.615,0,0,1-1.041,1.216c-1.179.409-1.726.052-1.7-1.173a39.475,39.475,0,0,1,.07-4.145c-.23-2.945-.1-5.895-.132-8.842,0-.316,0-.632,0-1.159l8.7,5.02c.324,1.371-.78,2.227-2.327,1.8" transform="translate(-54.39 -8.068)" fill="#43c7b7"/>
        <path id="Trazado_141454" data-name="Trazado 141454" d="M172.238,43.557c-1.364-1.381-2.545-2.585-3.734-3.778q-3.613-3.626-7.242-7.237c-.386-.382-.488-.587.089-.87.822-.4,1.642-1.284,2.394-1.214.69.064,1.3,1.108,1.927,1.734,2.018,2.011,4.021,4.038,6.051,6.036a1.531,1.531,0,0,1,.527,1.236c-.035,1.272-.012,2.547-.012,4.093" transform="translate(-86.765 -16.418)" fill="#fbbe49"/>
        <path id="Trazado_141455" data-name="Trazado 141455" d="M121.256,135.7c-.925-.522-1.717-.966-2.507-1.415q-8.611-4.885-17.22-9.773a2.208,2.208,0,0,1-.682-2.3c.236-.373.475.006.651.1,2.145,1.2,4.275,2.421,6.411,3.633,4.067,2.308,8.118,4.645,12.217,6.895.867.476,1.317.973,1.137,1.963a6.015,6.015,0,0,0-.006.889" transform="translate(-54.302 -65.802)" fill="#f0f1f1"/>
        <path id="Trazado_141456" data-name="Trazado 141456" d="M121.322,19.361a1.881,1.881,0,0,1-1.014-.43C114.206,15.48,108.123,12,102,8.591a1.743,1.743,0,0,1-1.115-2,4.532,4.532,0,0,0,.006-.691,1.594,1.594,0,0,1,.943.378c6.125,3.47,12.233,6.969,18.38,10.4.872.487,1.284,1.008,1.117,1.981a4.3,4.3,0,0,0-.006.7" transform="translate(-54.367 -3.181)" fill="#f0f1f1"/>
        <path id="Trazado_141457" data-name="Trazado 141457" d="M52.609,19.493c-.5-1.562.137-2.328,1.451-3.051C60.1,13.116,66.073,9.664,72.074,6.263c.222-.125.422-.334.715-.3a1.489,1.489,0,0,1,.055.173A2.333,2.333,0,0,1,71.38,8.915c-6.093,3.348-12.117,6.822-18.166,10.251-.2.113-.405.218-.606.326" transform="translate(-28.269 -3.213)" fill="#f0f1f1"/>
        <path id="Trazado_141458" data-name="Trazado 141458" d="M72.845,122.234c.02.083.037.139.048.2.251,1.3-.263,2.025-1.462,2.686-6.012,3.313-11.959,6.746-17.929,10.135-.277.157-.561.3-.97.516,0-.663.019-1.212-.007-1.758a.612.612,0,0,1,.383-.619Q62.8,127.8,72.7,122.21c.02-.012.057.008.15.024" transform="translate(-28.316 -65.881)" fill="#f0f1f1"/>
        <path id="Trazado_141459" data-name="Trazado 141459" d="M30.109,91.146q.019,1.7.038,3.408l-16.322-9.21-.078-.043c-1.593-.917-1.593-.917-1.344-2.944,1.468.83,2.9,1.64,4.338,2.453,3.837,2.177,7.681,4.344,11.5,6.546.725.418,1.312.479,1.863-.211" transform="translate(-6.621 -44.398)" fill="#fb6a35"/>
        <path id="Trazado_141460" data-name="Trazado 141460" d="M166.489,77.3c.039.171.053.226.064.282a2.33,2.33,0,0,1-1.517,2.848,50.469,50.469,0,0,0-4.508,2.659.619.619,0,0,1-.9-.077c-2.946-2.79-5.914-5.558-8.871-8.337-.175-.165-.5-.3-.258-.639.3-.424.419-.99.883-1.272.077-.047.406.289.6.47,2.44,2.291,4.9,4.564,7.3,6.891a1.481,1.481,0,0,0,2.111.225c1.649-1.036,3.341-2,5.1-3.049" transform="translate(-81.084 -39.223)" fill="#fbbe49"/>
        <path id="Trazado_141461" data-name="Trazado 141461" d="M177.81,19.791V30.062c-.277.1-.362-.153-.49-.28-1.891-1.88-3.765-3.775-5.665-5.645-.4-.4-.522-.607.084-.935,2-1.085,3.965-2.222,6.072-3.411" transform="translate(-92.357 -10.669)" fill="#2a92fe"/>
        <path id="Trazado_141462" data-name="Trazado 141462" d="M100.986,36.665q.007,2,.013,4c0,1.159.76,1.568,1.805.984a3.849,3.849,0,0,0,.856-.883q.006,5.894.013,11.787a1.383,1.383,0,0,1-.187.848c-.692.149-1.393.265-2.073.458-.473.134-.593-.038-.571-.459.007-.147,0-.3,0-.444q-.008-7.636-.01-15.272c0-.341-.127-.714.152-1.019" transform="translate(-54.343 -19.766)" fill="#2fa98f"/>
        <path id="Trazado_141463" data-name="Trazado 141463" d="M12.292,39.512c.621.1,1.048.625,1.746.818V36.315c0-1.916,0-3.832,0-5.749,0-.285-.087-.6.156-.84a1.278,1.278,0,0,1,.29,1.078c-.014,4.954.031,9.908-.045,14.862-.021,1.331.066,2.668.052,4-.008.674.489,1.053.766,1.562a3.129,3.129,0,0,1,.094,1.375c-.029.271-.025.6-.43.639-.866-.5-2.043-.817-2.508-1.57-.441-.712-.154-1.886-.154-2.858,0-3.1.018-6.2.029-9.3" transform="translate(-6.562 -16.025)" fill="#2fa98f"/>
        <path id="Trazado_141464" data-name="Trazado 141464" d="M129.812,90.9c-1-1.09-2.008-2.166-2.985-3.272-1.567-1.774-3.1-3.579-4.675-5.346-.382-.428-.377-.616.2-.73.694-.137,1.385-.291,2.079-.432.451-.091.7.171.94.509.986,1.367,2,2.711,2.992,4.075a1.029,1.029,0,0,0,1.451.4.843.843,0,0,1,.26.635q.068,1.76,0,3.521a.84.84,0,0,1-.26.635" transform="translate(-65.709 -43.72)" fill="#2f7776"/>
        <path id="Trazado_141465" data-name="Trazado 141465" d="M149.453,134.695c0-2.077,0-3.994,0-5.911,0-.389.124-.522.535-.422,2.407.587,4.82,1.154,7.48,1.786l-8.012,4.547" transform="translate(-80.568 -69.182)" fill="#43d176"/>
        <path id="Trazado_141466" data-name="Trazado 141466" d="M114.727,27.66c1.656-.046,2.081-.375,2.327-1.8L126,30.848a17.181,17.181,0,0,0-4.322.892q-2.925-1.686-5.849-3.376c-.377-.219-.737-.469-1.1-.7" transform="translate(-61.849 -13.939)" fill="#2fa98f"/>
        <path id="Trazado_141467" data-name="Trazado 141467" d="M147.978,121.256c.07-.638-.178-1.3.152-1.92l13.376,3.242c-1.283.711-2.218,1.53-3.79,1.075-3.208-.929-6.488-1.612-9.738-2.4" transform="translate(-79.761 -64.333)" fill="#fbbe49"/>
        <path id="Trazado_141468" data-name="Trazado 141468" d="M139.08,92.449q0-2.4,0-4.791l2.794-3.679v11.66a34.317,34.317,0,0,1-2.794-3.189" transform="translate(-74.977 -45.273)" fill="#20506d"/>
        <path id="Trazado_141469" data-name="Trazado 141469" d="M18.147,78.333c.388-.631.075-1.332.2-1.989.4-.222.674.069.973.233,3.011,1.659,5.971,3.409,8.975,5.081.43.239.993.219,1.3.678-.282.713.05,1.537-.406,2.217L18.147,78.333" transform="translate(-9.783 -41.113)" fill="#2f7776"/>
        <path id="Trazado_141470" data-name="Trazado 141470" d="M42.076,84.047c.15-.76-.354-1.623.365-2.292.764-1.609.311-3.324.435-4.989.036-.49-.117-1.018.27-1.444a4.866,4.866,0,0,1,.662.4c.472.394.816.292,1.09-.221V85.716l-2.823-1.668" transform="translate(-22.665 -40.606)" fill="#2fa98f"/>
        <path id="Trazado_141471" data-name="Trazado 141471" d="M103.53,93.022c-.534-.687-1.138-1.221-2.1-.92-.32.1-.4-.163-.554-.325,0-1.6.019-3.2-.011-4.805-.011-.554.179-.808.729-.885.643-.089,1.275-.248,1.912-.376a.6.6,0,0,1,.2.556q0,3.142,0,6.283a.5.5,0,0,1-.173.473" transform="translate(-54.376 -46.206)" fill="#2fa98f"/>
        <path id="Trazado_141472" data-name="Trazado 141472" d="M15.193,98.787c-.89-1.337-1.456-1.552-2.812-1.071-.009-1.711-.005-3.423-.034-5.134-.009-.555.18-.615.6-.346a21.051,21.051,0,0,1,2.262,1.369l-.021,5.182" transform="translate(-6.656 -49.641)" fill="#2fa98f"/>
        <path id="Trazado_141473" data-name="Trazado 141473" d="M73.319,91.576c0,1.6-.022,3.2.011,4.8a1.376,1.376,0,0,1-.777,1.365c-4.773,2.691-9.536,5.4-14.311,8.087-.845.476-1.492.109-1.5-.847-.023-2.194,0-4.388-.005-6.583a1.984,1.984,0,0,1,.344-.99q3.948-7.107,7.889-14.219a1.1,1.1,0,0,1,1.674-.543c1.926.912,3.872,1.783,5.818,2.651a1.319,1.319,0,0,1,.871,1.383c-.033,1.63-.011,3.262-.011,4.893" transform="translate(-30.583 -44.455)" fill="#302d3d"/>
        <path id="Trazado_141474" data-name="Trazado 141474" d="M132.416,56.818a4.555,4.555,0,0,1-4.636-4.678,4.654,4.654,0,1,1,4.636,4.678" transform="translate(-68.885 -25.61)" fill="#302d3d"/>
        <path id="Trazado_141475" data-name="Trazado 141475" d="M153.439,97.6c0-.979.005-1.959,0-2.938,0-.583.015-1.151.669-1.413.594-.237.937.18,1.3.523,1.734,1.621,3.48,3.228,5.192,4.872a.786.786,0,0,0,1.148.141c.922-.593,1.873-1.144,2.822-1.692,1.012-.586,1.678-.212,1.685.952q.018,2.76,0,5.52c-.007.948-.449,1.3-1.367,1.081-3.457-.809-6.91-1.633-10.367-2.443a1.263,1.263,0,0,1-1.085-1.4c.015-1.068,0-2.137,0-3.206" transform="translate(-82.716 -50.231)" fill="#302d3d"/>
        <path id="Trazado_141476" data-name="Trazado 141476" d="M29.386,50c-.008,1.707-.03,3.413-.016,5.12a1.285,1.285,0,0,1-.689,1.313,4.842,4.842,0,0,1-2.562-1.084c-2.761-1.533-5.494-3.115-8.24-4.675a2.921,2.921,0,0,0-.409-.159,1.855,1.855,0,0,1-.952-1.907c.037-6.541.023-13.082.024-19.623.4-.729.949-.786,1.635-.4q5.207,2.962,10.427,5.9a1.478,1.478,0,0,1,.759,1.474c-.012,4.324-.007,8.648-.005,12.971,0,.355.019.71.029,1.065" transform="translate(-8.905 -15.282)" fill="#302d3d"/>
        <path id="Trazado_141477" data-name="Trazado 141477" d="M60.753,106.158c0-1.68-.013-3.183.013-4.685a1.725,1.725,0,0,1,.284-.732c2.369-4.271,4.75-8.534,7.108-12.81.257-.466.45-.658,1.006-.377,1.24.625,2.515,1.185,3.789,1.739a.856.856,0,0,1,.63.909c-.029,2.7-.015,5.4-.011,8.093,0,.336-.012.612-.372.814-4.1,2.308-8.186,4.632-12.448,7.048" transform="translate(-32.75 -47.129)" fill="#fdd8b6"/>
        <path id="Trazado_141478" data-name="Trazado 141478" d="M137.349,54.4a2.772,2.772,0,0,1-2.8,2.817,2.82,2.82,0,0,1-2.751-2.8,2.777,2.777,0,0,1,2.776-2.75,2.717,2.717,0,0,1,2.774,2.729" transform="translate(-71.053 -27.855)" fill="#fefefe"/>
        <path id="Trazado_141479" data-name="Trazado 141479" d="M157.613,99.984c1.639,1.519,3.173,2.889,4.643,4.325a1.4,1.4,0,0,0,2.035.183c.607-.418,1.261-.768,1.888-1.156.333-.206.489-.134.473.265,0,.029,0,.059,0,.089-.011.8.286,1.879-.117,2.315-.438.475-1.447-.147-2.2-.312-2.046-.449-4.079-.963-6.122-1.431-.436-.1-.635-.268-.617-.76.041-1.111.013-2.225.013-3.518" transform="translate(-84.961 -53.901)" fill="#fcd8b6"/>
        <path id="Trazado_141480" data-name="Trazado 141480" d="M29.572,42.648c-1.032-.581-1.952-1.1-2.87-1.615-1.856-1.05-3.7-2.112-5.569-3.146a1.031,1.031,0,0,1-.627-1.055c.036-.739.021-1.482.006-2.223-.009-.425.12-.547.511-.324q4.089,2.333,8.183,4.659a.654.654,0,0,1,.372.642c-.015.971-.006,1.941-.006,3.062" transform="translate(-11.053 -18.424)" fill="#4395a3"/>
        <path id="Trazado_141481" data-name="Trazado 141481" d="M29.556,53.15c-.069.358.218.97-.131,1.177s-.774-.282-1.15-.494c-2.266-1.277-4.508-2.6-6.8-3.826a1.613,1.613,0,0,1-1-1.722c.073-1.726.026-1.737,1.531-.888,2.111,1.191,4.213,2.4,6.322,3.6,1.225.7,1.227.691,1.227,2.157" transform="translate(-11.037 -25.254)" fill="#4395a3"/>
        <path id="Trazado_141482" data-name="Trazado 141482" d="M29.526,65.448,23.3,61.926a6.716,6.716,0,0,0-1.24-.686c-1.66-.508-1.727-1.761-1.6-3.161.047-.512.215-.533.607-.308q4.007,2.294,8.028,4.565a.772.772,0,0,1,.436.786c-.017.709-.005,1.42-.005,2.328" transform="translate(-11.007 -31.07)" fill="#4395a3"/>
        <path id="Trazado_141483" data-name="Trazado 141483" d="M29.442,75.543c-1.948-1.1-3.872-2.181-5.794-3.266a21.56,21.56,0,0,0-2.086-1.169,1.675,1.675,0,0,1-1.1-1.939c.053-.657.2-.674.707-.381,2.071,1.2,4.155,2.378,6.234,3.564.283.161.565.322.85.479,1.484.815,1.485.815,1.191,2.712" transform="translate(-11.024 -36.986)" fill="#4395a3"/>
      </g>
    </g>
  </g>
</svg>
