<svg xmlns="http://www.w3.org/2000/svg" xmlns:xlink="http://www.w3.org/1999/xlink" width="133" height="133" viewBox="0 0 133 133">
  <defs>
    <clipPath id="clip-path">
      <rect id="Rect치ngulo_38406" data-name="Rect치ngulo 38406" width="85.917" height="92.026" fill="none"/>
    </clipPath>
  </defs>
  <g id="Grupo_161443" data-name="Grupo 161443" transform="translate(-3920.715 9834.285)">
    <rect id="Rect치ngulo_37519" data-name="Rect치ngulo 37519" width="133" height="133" rx="66.5" transform="translate(3920.715 -9834.285)" fill="#6b8dfc"/>
    <g id="Grupo_161444" data-name="Grupo 161444" transform="translate(3944.256 -9814.299)">
      <g id="Grupo_161444-2" data-name="Grupo 161444" transform="translate(0 0)" clip-path="url(#clip-path)">
        <path id="Trazado_141517" data-name="Trazado 141517" d="M75.821,92.026H12.292a8.788,8.788,0,0,1-6.347-4.039A10.863,10.863,0,0,1,4.332,81.93c-.051-2.119-.032-4.241,0-6.361a1.494,1.494,0,0,0-.91-1.547,5.953,5.953,0,0,1-3.4-5.485c-.033-1.941-.028-3.882,0-5.824a1.7,1.7,0,0,1,1.547-1.955A1.688,1.688,0,0,1,3.213,62.7c.037,1.876.01,3.753.011,5.629a2.958,2.958,0,0,0,.728,2.142,3.4,3.4,0,0,0,2.587,1.025c4.9,0,9.8.028,14.7-.011A9.118,9.118,0,0,0,22.608,53.31a4,4,0,0,1-.533-.071,13.859,13.859,0,0,0-2.86-.089q-6.051.013-12.1.015a6.354,6.354,0,0,0-1.6.145,2.769,2.769,0,0,0-2.268,2.742c-.01.179,0,.358-.016.538-.076,1.143-.567,1.635-1.733,1.742A1.7,1.7,0,0,1,.042,56.654a6.054,6.054,0,0,1,3.4-6.015,1.345,1.345,0,0,0,.9-1.446c-.032-1.944.01-3.889-.015-5.833-.046-3.508.8-6.641,3.657-8.955.409-.331.336-.7.166-1.123-.624-1.558-1.429-3.03-2.131-4.55S4.607,25.7,3.869,24.193A11.588,11.588,0,0,1,9.439,8.649c3.778-1.733,7.505-3.572,11.25-5.375C22.278,2.508,23.9,1.813,25.463.991a10.885,10.885,0,0,1,6.124-.92,10.8,10.8,0,0,1,9.138,6.319c1.178,2.287,2.248,4.626,3.325,6.961a1.16,1.16,0,0,0,.386.519C45.1,12.561,45.746,11.3,46.345,10a24.947,24.947,0,0,1,2.94-5.327A11.573,11.573,0,0,1,62.674,1.351c2.1.889,4.1,1.96,6.153,2.934,3.592,1.7,7.226,3.332,10.748,5.178a11.286,11.286,0,0,1,6.342,10.653,12.648,12.648,0,0,1-1.648,5.639q-1.9,3.815-3.748,7.655a.985.985,0,0,0,.238,1.392,9.579,9.579,0,0,1,3.214,7.676c-.024,13.4-.006,26.8-.014,40.2a9.541,9.541,0,0,1-6.049,8.954c-.683.265-1.408.177-2.088.39" transform="translate(0 0)"/>
        <path id="Trazado_141518" data-name="Trazado 141518" d="M24.481,81.944c5.188-.96,8.7-3.893,10.037-9.028a11.992,11.992,0,0,0-11.794-15c-4.4-.047-8.791-.032-13.187.011-.813.008-1.022-.231-.978-1.006.065-1.163.035-2.332.009-3.5-.011-.5.15-.731.665-.669a3.726,3.726,0,0,0,.448,0H81.088c1.178,0,1.178,0,1.178,1.2q0,16.151.018,32.3c0,.759-.2.928-.94.927q-30.1-.031-60.195-.018c-.268,0-.536-.026-.8-.039-.129-.258.009-.467.144-.659,1-1.415,2.141-2.712,3.255-4.033a1.814,1.814,0,0,1,.736-.492" transform="translate(-1.241 -7.654)" fill="#de8957"/>
        <path id="Trazado_141519" data-name="Trazado 141519" d="M45.143,33.189c1.8-3.679,3.522-7.212,5.244-10.747,2.168-4.451,4.321-8.911,6.5-13.357A8.539,8.539,0,0,1,68.8,4.96l15.409,7.388c4.886,2.342,6.606,7.212,4.254,12.068-1.364,2.819-2.765,5.622-4.1,8.456-.3.646-.592.751-1.278.575a24.464,24.464,0,0,0-5.537-.254c-.866-.021-1.889.277-2.559-.089-.734-.4-.266-1.543-.427-2.351A9.837,9.837,0,0,0,55.2,30.635a9.184,9.184,0,0,0-.146,1.961c.01.492-.158.6-.612.6-3.049-.015-6.1-.008-9.3-.008" transform="translate(-6.551 -0.574)" fill="#6be2d2"/>
        <path id="Trazado_141520" data-name="Trazado 141520" d="M45.4,48.408q-17.892,0-35.785.021c-.911,0-1.092-.25-1-1.116a6.49,6.49,0,0,1,6.54-6q30.268-.014,60.538,0a6.543,6.543,0,0,1,6.582,6.165c.045.756-.158.946-.913.945q-17.981-.036-35.964-.017" transform="translate(-1.247 -5.994)" fill="#de8957"/>
        <path id="Trazado_141521" data-name="Trazado 141521" d="M83.261,96.295a6.474,6.474,0,0,1-6.241,6.989c-.807.024-1.615.008-2.422.008q-28.8,0-57.6,0c-.388,0-.775-.022-1.164-.034-.223-.331-.047-.638.075-.934a49.154,49.154,0,0,1,2.735-5.444,1.469,1.469,0,0,1,1.518-.682q17.168.017,34.336.008,13.9,0,27.791,0a1.829,1.829,0,0,1,.967.087" transform="translate(-2.283 -13.957)" fill="#de8957"/>
        <path id="Trazado_141522" data-name="Trazado 141522" d="M9.818,28.245a46.663,46.663,0,0,1-2.774-5.894A8.389,8.389,0,0,1,11.47,11.9c4.2-2.061,8.435-4.061,12.657-6.082,1.345-.644,2.671-1.334,4.049-1.9a8.062,8.062,0,0,1,7.318.475,1.376,1.376,0,0,1-.247,1.1,51.818,51.818,0,0,1-7,10.148,48.865,48.865,0,0,1-9.534,8.36A40.77,40.77,0,0,1,10.758,28.1c-.3.116-.6.3-.94.144" transform="translate(-0.949 -0.474)" fill="#6be2d2"/>
        <path id="Trazado_141523" data-name="Trazado 141523" d="M10.375,28.438a42.965,42.965,0,0,0,11.942-6.709,50.364,50.364,0,0,0,9.51-10A40.56,40.56,0,0,0,36.05,4.592,7.817,7.817,0,0,1,39.628,8.34c1.512,3.145,2.993,6.3,4.493,9.455a1.031,1.031,0,0,1,.045,1.006c-1.348,2.727-2.67,5.467-4,8.2a2.125,2.125,0,0,1-.233.311A9.85,9.85,0,0,0,21.87,30.9c-.05.325-.11.649-.139.975-.124,1.407-.121,1.372-1.5,1.416-2.382.075-4.782-.271-7.142.306-.275.068-.378-.091-.469-.29q-1.123-2.433-2.244-4.868" transform="translate(-1.505 -0.666)" fill="#17d8be"/>
        <path id="Trazado_141524" data-name="Trazado 141524" d="M22.838,62.048a9.224,9.224,0,0,1,8.588,7.423,9.332,9.332,0,0,1-9.254,11.2c-5.135.066-10.272.019-15.409.009a2.7,2.7,0,0,1-2.294-.976,1.247,1.247,0,0,1,.136-1.114,45.812,45.812,0,0,1,8.437-12.563,42.479,42.479,0,0,1,3.555-3.4,2.506,2.506,0,0,1,1.782-.665c1.485.069,2.974-.077,4.459.078" transform="translate(-0.636 -8.992)" fill="#fcd2a5"/>
        <path id="Trazado_141525" data-name="Trazado 141525" d="M22.439,62.042a20.713,20.713,0,0,1-3.038,0,4.722,4.722,0,0,0-4.043,1.572A47.416,47.416,0,0,0,4.446,78.606a10.659,10.659,0,0,0-.375,1.1,2.682,2.682,0,0,1-.864-2.162c-.005-1.971,0-3.944,0-5.915,0-1.1-.306-1.447-1.425-1.686a10.542,10.542,0,0,0-.144-2.8c1.186-.085,1.556-.48,1.571-1.68.03-2.378,1.154-3.513,3.509-3.516q7.29-.013,14.579-.008a2.657,2.657,0,0,1,1.146.109" transform="translate(-0.237 -8.985)" fill="#f8c18f"/>
        <path id="Trazado_141526" data-name="Trazado 141526" d="M66.98,36.81c-2.152,0-4.3-.015-6.454.011-.5.006-.656-.138-.677-.638a7.146,7.146,0,1,1,14.289.035c-.024.555-.249.6-.7.6-2.151-.02-4.3-.009-6.454-.009" transform="translate(-8.684 -4.195)" fill="#fef08e"/>
        <path id="Trazado_141527" data-name="Trazado 141527" d="M33.2,36.807c-1.882,0-3.766-.03-5.647.016-.661.016-.785-.223-.78-.819a7.333,7.333,0,0,1,6.136-7.021,7.212,7.212,0,0,1,7.7,4.44c.242.6-.052,1-.189,1.51-.427,1.587-1.4,2.086-3.007,1.906a37.961,37.961,0,0,0-4.209-.032" transform="translate(-3.885 -4.191)" fill="#fedd82"/>
        <path id="Trazado_141528" data-name="Trazado 141528" d="M24.48,86.9a42.049,42.049,0,0,0-4.135,5.184c-3.73.012-7.459.017-11.188.043-.495,0-.6-.217-.6-.651.017-1.194.044-2.39-.009-3.582-.031-.7.177-.91.893-.9,4.149.034,8.3.023,12.446.012.863,0,1.726-.066,2.589-.1" transform="translate(-1.241 -12.61)" fill="#c66d33"/>
        <path id="Trazado_141529" data-name="Trazado 141529" d="M82.221,96.282q-31.4,0-62.8-.021a1.76,1.76,0,0,0-1.778,1.106,48.763,48.763,0,0,0-2.84,5.875,6.524,6.524,0,0,1-6.232-6.493c0-.679.4-.6.824-.6,3.228-.005,6.456-.016,9.683-.016q31.113,0,62.226.008c.3,0,.654-.158.921.144" transform="translate(-1.243 -13.944)" fill="#c66c33"/>
        <path id="Trazado_141530" data-name="Trazado 141530" d="M65.649,75.816a8.2,8.2,0,0,1-4.594-1.5,1.334,1.334,0,1,1,1.413-2.261,5.382,5.382,0,0,0,3.895.963,6.718,6.718,0,0,0,2.051-.856c.891-.521,1.688-.39,2.111.314s.16,1.443-.733,2a8.278,8.278,0,0,1-4.142,1.333" transform="translate(-8.76 -10.423)"/>
        <path id="Trazado_141531" data-name="Trazado 141531" d="M50.039,71.685c0-.358-.021-.718.006-1.074a1.21,1.21,0,0,1,1.179-1.231,1.192,1.192,0,0,1,1.43,1.046,10.934,10.934,0,0,1,.014,2.584,1.2,1.2,0,0,1-1.387,1.1,1.224,1.224,0,0,1-1.239-1.267c-.027-.386-.005-.775,0-1.164" transform="translate(-7.26 -10.066)" fill="#010100"/>
        <path id="Trazado_141532" data-name="Trazado 141532" d="M82.364,71.746c0,.358.015.717,0,1.075a1.244,1.244,0,0,1-1.217,1.293,1.266,1.266,0,0,1-1.436-1.163,14.89,14.89,0,0,1,0-2.415,1.274,1.274,0,0,1,1.44-1.16,1.241,1.241,0,0,1,1.215,1.3c.02.357,0,.716,0,1.075" transform="translate(-11.559 -10.066)" fill="#010000"/>
        <path id="Trazado_141533" data-name="Trazado 141533" d="M28.954,72.085a5.064,5.064,0,1,1-5.045-5.106,5.1,5.1,0,0,1,5.045,5.106" transform="translate(-2.732 -9.719)"/>
        <path id="Trazado_141534" data-name="Trazado 141534" d="M24.339,74.88a2.377,2.377,0,1,1,2.383-2.412,2.449,2.449,0,0,1-2.383,2.412" transform="translate(-3.189 -10.176)" fill="#ac582a"/>
      </g>
    </g>
  </g>
</svg>
