<svg xmlns="http://www.w3.org/2000/svg" width="88.258" height="126.904" viewBox="0 0 88.258 126.904">
  <g id="Grupo_157019" data-name="Grupo 157019" transform="matrix(0.966, 0.259, -0.259, 0.966, -7.215, -268.329)">
    <g id="Grupo_81073" data-name="Grupo 81073">
      <g id="Grupo_81070" data-name="Grupo 81070" style="mix-blend-mode: multiply;isolation: isolate">
        <path id="Trazado_115025" data-name="Trazado 115025" d="M128.411,298.814a2.088,2.088,0,0,1-2.028-1.631L120.7,270.665l-.113-.047-.066.114a2.105,2.105,0,0,1-1.872,1.17,2.062,2.062,0,0,1-1.093-.314l-3.977-2.483a2.093,2.093,0,0,1-.933-1.33,2.028,2.028,0,0,1,.3-1.568,21.949,21.949,0,0,0,3.665-11.226,2.077,2.077,0,0,1,1.637-1.952l5.047-1.085a2.029,2.029,0,0,1,.436-.046,2.071,2.071,0,0,1,1.978,1.441c4.3,13.368,8.5,27.165,12.5,41.008a2.081,2.081,0,0,1-1.523,2.6l-7.8,1.814A2.117,2.117,0,0,1,128.411,298.814Z" fill="#e8e8e8"/>
        <path id="Trazado_115026" data-name="Trazado 115026" d="M123.735,252.9a1.083,1.083,0,0,1,1.027.749q6.553,20.385,12.488,40.978a1.081,1.081,0,0,1-.789,1.348l-7.8,1.813a1.112,1.112,0,0,1-.248.029,1.075,1.075,0,0,1-1.051-.845q-2.844-13.256-5.681-26.514a1.054,1.054,0,0,0-1.049-.843,1.068,1.068,0,0,0-.977.621c0,.017-.018.028-.022.045a1.09,1.09,0,0,1-.98.624,1.063,1.063,0,0,1-.565-.163c-1.325-.825-2.652-1.658-3.977-2.483a1.065,1.065,0,0,1-.33-1.49,23.1,23.1,0,0,0,3.835-11.743,1.084,1.084,0,0,1,.85-1.016c1.679-.358,3.364-.726,5.044-1.085a1.039,1.039,0,0,1,.227-.025m0-2a3.052,3.052,0,0,0-.653.071c-.833.178-1.675.359-2.516.541s-1.681.363-2.52.542a3.1,3.1,0,0,0-2.429,2.864,21.271,21.271,0,0,1-3.5,10.741,3.051,3.051,0,0,0-.444,2.327,3.089,3.089,0,0,0,1.381,1.97l1.989,1.242,1.988,1.242a3.055,3.055,0,0,0,3.053.108q1.242,5.79,2.482,11.586,1.419,6.628,2.84,13.258a3.076,3.076,0,0,0,3.708,2.344l7.8-1.813a3.082,3.082,0,0,0,2.259-3.845c-4-13.866-8.209-27.672-12.507-41.041a3.071,3.071,0,0,0-2.931-2.137Z" fill="#e8e8e8"/>
      </g>
      <g id="Grupo_81072" data-name="Grupo 81072">
        <g id="Grupo_81071" data-name="Grupo 81071">
          <path id="Trazado_115027" data-name="Trazado 115027" d="M126.04,296.442a2.087,2.087,0,0,1-2.028-1.631l-5.682-26.517-.112-.047-.067.113a2.1,2.1,0,0,1-1.871,1.171,2.066,2.066,0,0,1-1.094-.314l-3.977-2.484a2.085,2.085,0,0,1-.932-1.33,2.025,2.025,0,0,1,.3-1.567,21.942,21.942,0,0,0,3.666-11.227,2.075,2.075,0,0,1,1.636-1.951l5.048-1.085a2.03,2.03,0,0,1,.436-.047,2.072,2.072,0,0,1,1.978,1.442c4.3,13.368,8.5,27.165,12.5,41.008a2.082,2.082,0,0,1-1.524,2.6l-7.8,1.814A2.122,2.122,0,0,1,126.04,296.442Z" fill="#ff5f65"/>
          <path id="Trazado_115028" data-name="Trazado 115028" d="M121.364,250.526a1.081,1.081,0,0,1,1.026.748q6.555,20.386,12.489,40.979a1.082,1.082,0,0,1-.789,1.348l-7.8,1.813a1.116,1.116,0,0,1-.248.028,1.074,1.074,0,0,1-1.051-.844q-2.844-13.257-5.681-26.514a1.054,1.054,0,0,0-1.049-.843,1.068,1.068,0,0,0-.978.621c0,.017-.017.028-.021.044a1.089,1.089,0,0,1-.98.625,1.063,1.063,0,0,1-.565-.163c-1.325-.826-2.652-1.658-3.977-2.484a1.064,1.064,0,0,1-.33-1.489,23.1,23.1,0,0,0,3.834-11.743,1.084,1.084,0,0,1,.85-1.016c1.68-.359,3.365-.727,5.044-1.085a1.048,1.048,0,0,1,.228-.025m0-2a3.116,3.116,0,0,0-.653.07c-.833.178-1.675.36-2.517.542s-1.68.363-2.52.542a3.1,3.1,0,0,0-2.429,2.863,21.261,21.261,0,0,1-3.5,10.742,3.055,3.055,0,0,0-.445,2.327,3.094,3.094,0,0,0,1.382,1.97l1.988,1.242,1.988,1.241a3.053,3.053,0,0,0,3.054.109q1.242,5.79,2.482,11.586,1.419,6.628,2.84,13.258a3.08,3.08,0,0,0,3.707,2.344l7.8-1.813A3.082,3.082,0,0,0,136.8,291.7c-4-13.865-8.209-27.672-12.508-41.041a3.069,3.069,0,0,0-2.93-2.136Z"/>
        </g>
      </g>
    </g>
    <g id="Grupo_81077" data-name="Grupo 81077">
      <g id="Grupo_81074" data-name="Grupo 81074" style="mix-blend-mode: overlay;isolation: isolate">
        <path id="Trazado_115029" data-name="Trazado 115029" d="M155.835,327.245a2.084,2.084,0,0,1-.745-.138c-6.213-2.419-12.345-5.071-18.23-7.881l-.612-.293.784-11.679.648-.207c4.065-1.3,8.4-2.736,12.562-4.437,3.166-1.283,6.428-2.807,8.865-5.249.791-.794,1.694-1.986,1.5-3.135a3.072,3.072,0,0,0-2.011-2.087,6.309,6.309,0,0,0-2.362-.429,9.3,9.3,0,0,0-2.6.393,19.115,19.115,0,0,0-3.511,1.5,2.09,2.09,0,0,1-.967.239A2.068,2.068,0,0,1,147.3,292.7l-2.379-4.845a2.035,2.035,0,0,1,.106-2.013,13.1,13.1,0,0,1,6-4.958,15.861,15.861,0,0,1,6.137-1.178,18.991,18.991,0,0,1,3.045.251,16.215,16.215,0,0,1,8.329,3.862,11.828,11.828,0,0,1,3.975,8.387,13.067,13.067,0,0,1-2.729,7.833,27.783,27.783,0,0,1-5.829,5.559,69.675,69.675,0,0,1-12.192,7.308l-.333,1.073.336-.943,7.943,2.84a2.074,2.074,0,0,1,1.2,2.781l-3.167,7.331A2.069,2.069,0,0,1,155.835,327.245Z" fill="#3c384f"/>
        <path id="Trazado_115030" data-name="Trazado 115030" d="M157.169,280.7a17.826,17.826,0,0,1,2.882.238,15.3,15.3,0,0,1,7.816,3.613,10.9,10.9,0,0,1,3.65,7.668,12.052,12.052,0,0,1-2.535,7.223,26.805,26.805,0,0,1-5.624,5.351,68.546,68.546,0,0,1-12.015,7.2,1.07,1.07,0,0,0,.091,1.979q3.973,1.418,7.943,2.841a1.073,1.073,0,0,1,.619,1.44l-3.168,7.332a1.076,1.076,0,0,1-1.376.588q-9.222-3.59-18.16-7.85c.338-5.02.354-5.306.692-10.325,4.263-1.362,8.5-2.771,12.636-4.463,3.331-1.35,6.659-2.927,9.2-5.468,1.072-1.08,2.029-2.511,1.778-4.008a4.013,4.013,0,0,0-2.629-2.85,7.283,7.283,0,0,0-2.729-.5,10.357,10.357,0,0,0-2.877.433,19.84,19.84,0,0,0-3.7,1.576,1.082,1.082,0,0,1-1.467-.472q-1.184-2.409-2.374-4.838a1.039,1.039,0,0,1,.045-1.025,12.117,12.117,0,0,1,5.548-4.582,14.94,14.94,0,0,1,5.754-1.1m0-2h0a16.852,16.852,0,0,0-6.523,1.255,14.129,14.129,0,0,0-6.467,5.354,3.029,3.029,0,0,0-.145,3l2.367,4.823a3.08,3.08,0,0,0,4.188,1.362,18.267,18.267,0,0,1,3.326-1.427,8.335,8.335,0,0,1,2.321-.354,5.282,5.282,0,0,1,1.982.355,2.126,2.126,0,0,1,1.4,1.323c.1.565-.352,1.391-1.225,2.271-2.307,2.312-5.462,3.781-8.527,5.024-4.132,1.688-8.446,3.118-12.494,4.411l-1.295.414-.092,1.356-.346,5.167-.346,5.158-.091,1.354,1.225.585c5.906,2.822,12.062,5.483,18.3,7.909a3.035,3.035,0,0,0,1.109.208,3.07,3.07,0,0,0,2.837-1.885l1.689-3.908,1.471-3.4a3.074,3.074,0,0,0-1.771-4.113c-1.336-.476-2.66-.95-3.984-1.424l-1.89-.677a70.725,70.725,0,0,0,10.368-6.437,28.709,28.709,0,0,0,6.038-5.768,14.061,14.061,0,0,0,2.924-8.445,12.833,12.833,0,0,0-4.3-9.107,17.187,17.187,0,0,0-8.836-4.109,19.846,19.846,0,0,0-3.212-.266Z" fill="#3c384f"/>
      </g>
      <g id="Grupo_81076" data-name="Grupo 81076">
        <g id="Grupo_81075" data-name="Grupo 81075">
          <path id="Trazado_115031" data-name="Trazado 115031" d="M153.463,324.874a2.058,2.058,0,0,1-.744-.139c-6.213-2.419-12.346-5.07-18.23-7.881l-.612-.293.784-11.678.647-.207c4.066-1.3,8.4-2.737,12.563-4.437,3.165-1.283,6.428-2.807,8.865-5.249.79-.795,1.694-1.986,1.5-3.136a3.072,3.072,0,0,0-2.012-2.086,6.284,6.284,0,0,0-2.361-.429,9.339,9.339,0,0,0-2.6.392,19.144,19.144,0,0,0-3.51,1.5,2.075,2.075,0,0,1-2.825-.908l-2.379-4.846a2.028,2.028,0,0,1,.106-2.012,13.1,13.1,0,0,1,6-4.958,15.859,15.859,0,0,1,6.136-1.178,18.993,18.993,0,0,1,3.046.251,16.218,16.218,0,0,1,8.328,3.861,11.829,11.829,0,0,1,3.976,8.388,13.076,13.076,0,0,1-2.729,7.833,27.789,27.789,0,0,1-5.83,5.559,69.658,69.658,0,0,1-12.192,7.307l-.332,1.074.336-.943,7.943,2.84a2.076,2.076,0,0,1,1.2,2.781l-3.167,7.33A2.068,2.068,0,0,1,153.463,324.874Z" fill="#3c3fa7"/>
          <path id="Trazado_115032" data-name="Trazado 115032" d="M154.8,278.33a17.845,17.845,0,0,1,2.882.238,15.3,15.3,0,0,1,7.816,3.613,10.907,10.907,0,0,1,3.65,7.668,12.052,12.052,0,0,1-2.535,7.223,26.786,26.786,0,0,1-5.625,5.351,68.56,68.56,0,0,1-12.014,7.2,1.07,1.07,0,0,0,.091,1.979q3.974,1.418,7.943,2.84a1.074,1.074,0,0,1,.619,1.44l-3.168,7.332a1.078,1.078,0,0,1-.993.66,1.057,1.057,0,0,1-.384-.072c-6.147-2.393-12.215-5.01-18.16-7.85.339-5.019.354-5.3.693-10.324,4.263-1.363,8.5-2.771,12.636-4.463,3.331-1.351,6.659-2.928,9.2-5.468,1.073-1.08,2.03-2.511,1.779-4.008a4.018,4.018,0,0,0-2.629-2.851,7.3,7.3,0,0,0-2.73-.5,10.354,10.354,0,0,0-2.876.432,19.907,19.907,0,0,0-3.7,1.576,1.079,1.079,0,0,1-1.467-.471q-1.184-2.409-2.375-4.838a1.041,1.041,0,0,1,.046-1.026,12.121,12.121,0,0,1,5.548-4.581,14.936,14.936,0,0,1,5.754-1.1m0-2h0a16.858,16.858,0,0,0-6.524,1.255,14.12,14.12,0,0,0-6.466,5.354,3.029,3.029,0,0,0-.145,3l2.367,4.822a3.079,3.079,0,0,0,4.188,1.363,18.168,18.168,0,0,1,3.326-1.427,8.291,8.291,0,0,1,2.32-.354,5.291,5.291,0,0,1,1.983.355,2.124,2.124,0,0,1,1.4,1.323c.1.565-.352,1.391-1.225,2.27-2.307,2.312-5.462,3.782-8.527,5.024-4.132,1.689-8.446,3.118-12.494,4.411l-1.295.414-.092,1.357-.346,5.167-.346,5.158-.091,1.354,1.224.585c5.907,2.821,12.063,5.482,18.3,7.909a3.074,3.074,0,0,0,3.946-1.677l1.688-3.908,1.472-3.4a3.076,3.076,0,0,0-1.771-4.113c-1.337-.477-2.66-.951-3.984-1.425l-1.89-.676a70.7,70.7,0,0,0,10.368-6.438,28.726,28.726,0,0,0,6.038-5.767,14.062,14.062,0,0,0,2.924-8.446,12.83,12.83,0,0,0-4.3-9.106,17.18,17.18,0,0,0-8.835-4.109,19.846,19.846,0,0,0-3.212-.266Z"/>
        </g>
      </g>
    </g>
    <g id="Grupo_81081" data-name="Grupo 81081">
      <g id="Grupo_81078" data-name="Grupo 81078" style="mix-blend-mode: overlay;isolation: isolate">
        <path id="Trazado_115033" data-name="Trazado 115033" d="M131.557,367.991a2.072,2.072,0,0,1-1.841-1.127l-2.178-4.259a2.064,2.064,0,0,1,.86-2.766,18.717,18.717,0,0,0,5.563-4.051c1.57-1.819,2.653-4.727,1.539-7.129a3.807,3.807,0,0,0-2.576-2.174,2.935,2.935,0,0,0-.554-.051,4.738,4.738,0,0,0-3.229,1.535,10.435,10.435,0,0,0-1.714,2.464,2.079,2.079,0,0,1-3.173.6l-2.643-2.245a2.088,2.088,0,0,1-.39-2.711c1.851-2.85,3.838-6.2,4-9.828a5.316,5.316,0,0,0-.313-2.294,2.32,2.32,0,0,0-1.307-1.336,1.823,1.823,0,0,0-.584-.093,3.5,3.5,0,0,0-1.677.519,7.5,7.5,0,0,0-2.856,3.361,14.329,14.329,0,0,0-.888,2.7,2.059,2.059,0,0,1-2.61,1.527l-4.411-1.288a2.091,2.091,0,0,1-1.475-2.3c.66-4.235,1.685-8.576,4.687-11.688a12.26,12.26,0,0,1,8.816-3.717,11.734,11.734,0,0,1,1.742.129,12.119,12.119,0,0,1,9.819,15.426l.057.087a11.25,11.25,0,0,1,2.483-.277,11.754,11.754,0,0,1,6.346,1.874,13.489,13.489,0,0,1,5.8,9.527,16.552,16.552,0,0,1-2.539,10.828,19.225,19.225,0,0,1-14.608,8.746Z" fill="#3c384f"/>
        <path id="Trazado_115034" data-name="Trazado 115034" d="M122.6,322.644a10.643,10.643,0,0,1,1.594.119,11.119,11.119,0,0,1,9.006,14.162,1.065,1.065,0,0,0,1.018,1.362,1.119,1.119,0,0,0,.241-.027,10.046,10.046,0,0,1,2.242-.25,10.709,10.709,0,0,1,5.8,1.712,12.487,12.487,0,0,1,5.358,8.819,15.628,15.628,0,0,1-2.394,10.167,18.21,18.21,0,0,1-13.835,8.281c-.025,0-.049,0-.073,0a1.081,1.081,0,0,1-.954-.589c-.724-1.415-1.451-2.837-2.174-4.253a1.069,1.069,0,0,1,.446-1.431,19.919,19.919,0,0,0,5.844-4.277c1.928-2.235,2.932-5.522,1.688-8.2a4.808,4.808,0,0,0-3.29-2.735,4.028,4.028,0,0,0-.748-.069,5.729,5.729,0,0,0-3.943,1.836,11.635,11.635,0,0,0-1.881,2.692,1.068,1.068,0,0,1-.946.563,1.082,1.082,0,0,1-.7-.257c-.874-.743-1.759-1.489-2.637-2.24a1.075,1.075,0,0,1-.2-1.405c2.068-3.185,3.993-6.57,4.157-10.329a6.31,6.31,0,0,0-.39-2.725,3.3,3.3,0,0,0-1.91-1.9,2.785,2.785,0,0,0-.9-.145,4.471,4.471,0,0,0-2.177.652,8.429,8.429,0,0,0-3.264,3.809,15.369,15.369,0,0,0-.954,2.893,1.06,1.06,0,0,1-1.347.8c-1.467-.431-2.941-.858-4.418-1.291a1.082,1.082,0,0,1-.768-1.192c.634-4.063,1.6-8.216,4.418-11.14a11.344,11.344,0,0,1,8.1-3.413m0-2a13.264,13.264,0,0,0-9.538,4.029c-3.191,3.306-4.266,7.825-4.951,12.215a3.1,3.1,0,0,0,2.176,3.419l2.024.591,2.4.7a3.061,3.061,0,0,0,3.862-2.274,13.235,13.235,0,0,1,.823-2.507,6.507,6.507,0,0,1,2.455-2.912,2.521,2.521,0,0,1,1.166-.378.8.8,0,0,1,.257.038,1.355,1.355,0,0,1,.711.774,4.381,4.381,0,0,1,.237,1.867c-.148,3.38-2.058,6.587-3.836,9.327a3.088,3.088,0,0,0,.574,4.011c.521.445,1.039.884,1.555,1.322l1.089.925a3.107,3.107,0,0,0,2,.733,3.07,3.07,0,0,0,2.707-1.615,9.574,9.574,0,0,1,1.551-2.244,3.787,3.787,0,0,1,2.512-1.232,2.014,2.014,0,0,1,.375.034,2.836,2.836,0,0,1,1.851,1.618c.925,1.99-.032,4.473-1.39,6.049a17.874,17.874,0,0,1-5.279,3.823,3.058,3.058,0,0,0-1.28,4.1l1.065,2.083,1.111,2.173a3.075,3.075,0,0,0,2.735,1.679c.07,0,.14,0,.211-.007a20.242,20.242,0,0,0,15.389-9.211,17.548,17.548,0,0,0,2.686-11.487,14.5,14.5,0,0,0-6.251-10.241,12.767,12.767,0,0,0-6.892-2.035,12.257,12.257,0,0,0-1.259.065,13.1,13.1,0,0,0-10.947-15.289,12.724,12.724,0,0,0-1.9-.142Z" fill="#3c384f"/>
      </g>
      <g id="Grupo_81080" data-name="Grupo 81080">
        <g id="Grupo_81079" data-name="Grupo 81079">
          <path id="Trazado_115035" data-name="Trazado 115035" d="M129.185,365.62a2.072,2.072,0,0,1-1.84-1.127l-2.178-4.26a2.064,2.064,0,0,1,.859-2.765,18.709,18.709,0,0,0,5.564-4.051c1.57-1.819,2.653-4.728,1.538-7.129a3.8,3.8,0,0,0-2.575-2.175,3.02,3.02,0,0,0-.555-.051,4.739,4.739,0,0,0-3.228,1.536,10.428,10.428,0,0,0-1.714,2.463,2.075,2.075,0,0,1-1.829,1.093,2.1,2.1,0,0,1-1.344-.491l-2.643-2.245a2.088,2.088,0,0,1-.39-2.711c1.851-2.851,3.838-6.2,4-9.828a5.316,5.316,0,0,0-.313-2.294,2.32,2.32,0,0,0-1.307-1.336,1.8,1.8,0,0,0-.585-.093,3.5,3.5,0,0,0-1.676.519,7.494,7.494,0,0,0-2.856,3.361,14.317,14.317,0,0,0-.888,2.7,2.063,2.063,0,0,1-2.61,1.528l-4.411-1.288a2.093,2.093,0,0,1-1.476-2.3c.661-4.236,1.686-8.576,4.688-11.688a12.261,12.261,0,0,1,8.815-3.718,11.737,11.737,0,0,1,1.743.129,12.119,12.119,0,0,1,9.818,15.427l.058.087a11.181,11.181,0,0,1,2.482-.277,11.755,11.755,0,0,1,6.347,1.874,13.487,13.487,0,0,1,5.8,9.527,16.552,16.552,0,0,1-2.539,10.828,19.225,19.225,0,0,1-14.608,8.746Z" fill="#ffe891"/>
          <path id="Trazado_115036" data-name="Trazado 115036" d="M120.228,320.273a10.643,10.643,0,0,1,1.594.119,11.118,11.118,0,0,1,9.006,14.162,1.065,1.065,0,0,0,1.018,1.362,1.119,1.119,0,0,0,.241-.027,10.039,10.039,0,0,1,2.242-.25,10.711,10.711,0,0,1,5.8,1.712,12.485,12.485,0,0,1,5.358,8.818,15.631,15.631,0,0,1-2.394,10.168,18.213,18.213,0,0,1-13.836,8.281l-.072,0a1.085,1.085,0,0,1-.955-.589c-.723-1.415-1.45-2.838-2.174-4.253a1.07,1.07,0,0,1,.446-1.431,19.929,19.929,0,0,0,5.845-4.277c1.928-2.235,2.932-5.522,1.687-8.2a4.8,4.8,0,0,0-3.289-2.735,4.032,4.032,0,0,0-.749-.07,5.732,5.732,0,0,0-3.943,1.836,11.651,11.651,0,0,0-1.88,2.692,1.068,1.068,0,0,1-.947.564,1.086,1.086,0,0,1-.7-.257c-.874-.744-1.758-1.49-2.637-2.24a1.076,1.076,0,0,1-.2-1.4c2.067-3.185,3.992-6.571,4.157-10.329a6.317,6.317,0,0,0-.39-2.726,3.308,3.308,0,0,0-1.91-1.895,2.758,2.758,0,0,0-.9-.145,4.457,4.457,0,0,0-2.177.652,8.42,8.42,0,0,0-3.264,3.808,15.356,15.356,0,0,0-.954,2.894,1.06,1.06,0,0,1-1.347.8c-1.467-.431-2.941-.858-4.419-1.291a1.084,1.084,0,0,1-.768-1.193c.635-4.063,1.6-8.215,4.419-11.139a11.34,11.34,0,0,1,8.095-3.413m0-2a13.261,13.261,0,0,0-9.538,4.028c-3.192,3.307-4.266,7.826-4.952,12.216a3.1,3.1,0,0,0,2.177,3.419l2.024.591q1.2.35,2.4.7a3.061,3.061,0,0,0,3.862-2.274,13.308,13.308,0,0,1,.822-2.507,6.508,6.508,0,0,1,2.455-2.912,2.516,2.516,0,0,1,1.167-.378.8.8,0,0,1,.257.037,1.364,1.364,0,0,1,.711.775,4.4,4.4,0,0,1,.237,1.867c-.148,3.38-2.058,6.587-3.837,9.327a3.09,3.09,0,0,0,.575,4.011c.52.445,1.038.884,1.555,1.322l1.089.924a3.08,3.08,0,0,0,4.7-.882,9.556,9.556,0,0,1,1.551-2.243A3.786,3.786,0,0,1,130,345.062a2.016,2.016,0,0,1,.376.035,2.833,2.833,0,0,1,1.851,1.618c.924,1.99-.032,4.473-1.39,6.048a17.865,17.865,0,0,1-5.28,3.823,3.058,3.058,0,0,0-1.279,4.1l1.065,2.083,1.11,2.173a3.077,3.077,0,0,0,2.736,1.679c.07,0,.14,0,.211-.007a20.248,20.248,0,0,0,15.389-9.211,17.55,17.55,0,0,0,2.686-11.487,14.5,14.5,0,0,0-6.252-10.241,12.761,12.761,0,0,0-6.891-2.035,12.533,12.533,0,0,0-1.259.064,13.1,13.1,0,0,0-10.947-15.289,12.874,12.874,0,0,0-1.9-.141Z"/>
        </g>
      </g>
    </g>
  </g>
</svg>
