<svg xmlns="http://www.w3.org/2000/svg" xmlns:xlink="http://www.w3.org/1999/xlink" width="105" height="105" viewBox="0 0 105 105">
  <defs>
    <clipPath id="clip-path">
      <rect id="Rect치ngulo_37612" data-name="Rect치ngulo 37612" width="50.594" height="61.616" fill="none"/>
    </clipPath>
  </defs>
  <g id="Grupo_159145" data-name="Grupo 159145" transform="translate(-3239 10776)">
    <rect id="Rect치ngulo_36244" data-name="Rect치ngulo 36244" width="105" height="105" rx="52.5" transform="translate(3239 -10776)" fill="#6b8dfc"/>
    <g id="Grupo_159144" data-name="Grupo 159144" transform="translate(3265.832 -10754.115)">
      <g id="Grupo_159143" data-name="Grupo 159143" transform="translate(0 0)" clip-path="url(#clip-path)">
        <path id="Trazado_136654" data-name="Trazado 136654" d="M41.054,0a1.489,1.489,0,0,1,.706,1.406q-.017,29.391-.01,58.782c0,1.168-.312,1.427-1.719,1.427q-7.4,0-14.806,0c-1.276,0-1.628-.284-1.628-1.318q0-29.482-.012-58.963A1.4,1.4,0,0,1,24.322,0Z" transform="translate(-7.683 0)"/>
        <path id="Trazado_136655" data-name="Trazado 136655" d="M65.5,0a1.207,1.207,0,0,1,.779,1.247q-.017,29.571-.011,59.141c0,.93-.364,1.225-1.5,1.226q-7.551,0-15.1,0c-1.138,0-1.508-.3-1.508-1.22q0-29.57-.011-59.14A1.229,1.229,0,0,1,48.916,0Z" transform="translate(-15.685 0)"/>
        <path id="Trazado_136656" data-name="Trazado 136656" d="M17.362,0a1.23,1.23,0,0,1,.768,1.253q-.019,29.54-.011,59.08c0,1-.345,1.28-1.582,1.28q-7.476,0-14.953,0c-1.235,0-1.573-.275-1.573-1.286Q.009,30.818,0,1.308A1.235,1.235,0,0,1,.779,0Z" transform="translate(0 0)"/>
        <path id="Trazado_136657" data-name="Trazado 136657" d="M27.016,58.379c2.542-2.954,3.393-6.346,3.861-9.837a35.463,35.463,0,0,0,.158-7.868,21.286,21.286,0,0,0-2.8-9.634,2.041,2.041,0,0,0-.318-.473,3.517,3.517,0,0,1-1.021-2.951c.055-4.01.018-8.021.022-12.033,0-.212-.092-.441.09-.639.333.256.247.595.248.906.009,2.3,0,4.609.005,6.914a2.859,2.859,0,0,0,.005.481c.044.255-.142.633.336.7a.984.984,0,0,0,.942-.482,1.5,1.5,0,0,0,.175-.939q.007-4.028,0-8.057a5.672,5.672,0,0,1,.136-1.433,19.628,19.628,0,0,0,3.469-9.78c.02-.184-.1-.483.188-.529a3.937,3.937,0,0,1,1.242.02c.222.038.082.286.04.425a63.057,63.057,0,0,0-1.63,7.08,80.445,80.445,0,0,0-1.137,9.57,83.761,83.761,0,0,0,.121,11.243,88.785,88.785,0,0,0,2.611,14.918c.689,2.725,1.328,5.459,1.986,8.189a2.366,2.366,0,0,1,.033.359.676.676,0,0,1-.293.756,13.829,13.829,0,0,1-7.816,3.439c-.294.034-.753.167-.652-.343" transform="translate(-8.761 -0.874)" fill="#ed8600"/>
        <path id="Trazado_136658" data-name="Trazado 136658" d="M40.582,52.018c-.794-3.236-1.6-6.471-2.379-9.71a75.042,75.042,0,0,1-1.851-12.331,81.531,81.531,0,0,1,.029-11.115A77.749,77.749,0,0,1,38.2,6.707c.275-1.2.616-2.388.945-3.578.053-.189.042-.5.459-.42.382.074.173.331.152.5a138.589,138.589,0,0,0-.87,22.636A71.749,71.749,0,0,0,40.57,38.733c.264,1.139.6,2.267.9,3.4.429,2.16.136,4.337.213,6.505a6.472,6.472,0,0,1-.5,2.768c-.105.25-.154.564-.594.612" transform="translate(-11.785 -0.878)" fill="#ed8600"/>
        <path id="Trazado_136659" data-name="Trazado 136659" d="M43.765,10.988c0-1.484.206-2.958.327-4.435.092-1.119.309-2.232.355-3.35.029-.7.571-.465,1-.516.581-.067.561.231.561.553q-.006,6.434,0,12.869V40.731a19.17,19.17,0,0,1-1.154-4.078,60,60,0,0,1-1.087-8.111,27.929,27.929,0,0,0-.05-3.41c-.044-1.3-.023-2.6-.047-3.9-.054-2.86.067-5.719.076-8.578a6.436,6.436,0,0,0,.018-1.669" transform="translate(-14.222 -0.872)" fill="#cb7400"/>
        <path id="Trazado_136660" data-name="Trazado 136660" d="M42.711,71.072a4.863,4.863,0,0,0,.856-2.922c.053-2.32.024-4.641.029-6.962.652,1.63,1.228,3.282,2.036,4.87a1.453,1.453,0,0,1,.066.653q.005,6.184-.007,12.37c0,.247.233.624-.423.659-.556.029-.842-.068-.914-.571-.388-2.72-1.1-5.4-1.644-8.1" transform="translate(-13.913 -19.932)" fill="#cb7400"/>
        <path id="Trazado_136661" data-name="Trazado 136661" d="M26.969,48.19c2.662,4.65,2.633,16.492,0,21.063Z" transform="translate(-8.785 -15.698)" fill="#ec8600"/>
        <path id="Trazado_136662" data-name="Trazado 136662" d="M27.017,83.428c.043.24.228.266.485.235a14.156,14.156,0,0,0,7.931-3.5,1.086,1.086,0,0,0,.345-.588c.522,1.935.881,3.892,1.224,5.852.038.217-.038.3-.3.292s-.495-.015-.74,0c-1.088.078-1.969.058-2.4-1.063a2.444,2.444,0,0,0-2.536-1.266,2.783,2.783,0,0,0-2.614,1.773c-.224.543-.576.6-1.132.558-.234-.017-.385-.07-.367-.278a7.5,7.5,0,0,1,.1-2.017" transform="translate(-8.761 -25.922)" fill="#cb7300"/>
        <path id="Trazado_136663" data-name="Trazado 136663" d="M28.91,18.031c.141.138.1.3.1.461,0,3.163-.006,6.326,0,9.488,0,.611-.382.964-1.033,1.169-.667.21-.9.082-.9-.5q-.005-3.994,0-7.987c0-.24-.011-.48-.018-.72a22.3,22.3,0,0,0,1.847-1.913" transform="translate(-8.816 -5.874)" fill="#ef9b2d"/>
        <path id="Trazado_136664" data-name="Trazado 136664" d="M29.093,7.732a10,10,0,0,1-2.17,4.112v-.5c0-2.706.009-5.411-.011-8.117,0-.406.107-.591.648-.545.463.04.934.023,1.4.03.289.245.227.557.227.849a38.574,38.574,0,0,1-.1,4.169" transform="translate(-8.767 -0.872)" fill="#ee9b2d"/>
        <path id="Trazado_136665" data-name="Trazado 136665" d="M43.655,15c.216.187.122.42.123.632q.008,8.145,0,16.289c0,.212.091.444-.119.633a114.794,114.794,0,0,1,0-17.554" transform="translate(-14.112 -4.887)" fill="#e98400"/>
        <path id="Trazado_136666" data-name="Trazado 136666" d="M30.078,7.74c-.215-.187-.124-.419-.125-.632-.009-1.462-.005-2.924-.006-4.386,1.107-.056,1.121-.055,1.038.8a15.411,15.411,0,0,1-.907,4.215" transform="translate(-9.751 -0.88)" fill="#ec8702"/>
        <path id="Trazado_136667" data-name="Trazado 136667" d="M33.487,88.422a2.879,2.879,0,0,1-1.011.016.469.469,0,0,1,.492-.448.478.478,0,0,1,.519.432" transform="translate(-10.579 -28.664)" fill="#b26500"/>
        <path id="Trazado_136668" data-name="Trazado 136668" d="M61.2,55.5q.387-2.35.774-4.7a74.239,74.239,0,0,0,.9-11.093,80.923,80.923,0,0,0-.665-11.528,107.342,107.342,0,0,0-2.534-12.2C58.6,11.742,57.6,7.5,56.8,3.22c-.08-.427.024-.606.575-.543a2.374,2.374,0,0,0,.518,0,1.948,1.948,0,0,1,2.286,1c.872,1.6,2.847,1.74,4.571.514a.547.547,0,0,1,.23.485,9.783,9.783,0,0,1-.2,3.192,23.376,23.376,0,0,0-1.707,5.689,38.123,38.123,0,0,0-.141,10.77,24.99,24.99,0,0,0,1.848,6.7A5.11,5.11,0,0,1,65,32.58q-.01,7.876,0,15.753a5.235,5.235,0,0,1-.545,2.581q-.795,1.514-1.589,3.029a5.751,5.751,0,0,1-1.186,1.35c-.134.11-.235.27-.481.2" transform="translate(-18.495 -0.862)" fill="#ed8600"/>
        <path id="Trazado_136669" data-name="Trazado 136669" d="M56.513,59.929c.169-2.361.374-4.719.5-7.081.191-3.706.312-7.413.154-11.122-.1-2.325-.233-4.646-.477-6.964A57.248,57.248,0,0,0,54.32,23.108c-.279-4.217-.061-8.436-.123-12.654,0-.293-.057-.609.252-.845q.643,2.708,1.287,5.418c.864,3.635,1.847,7.252,2.587,10.907a72.545,72.545,0,0,1,1.141,7.936,82.174,82.174,0,0,1,.15,12.5,84.715,84.715,0,0,1-1.8,12.405c-.059.274-.324.5-.276.793a.876.876,0,0,1-1.023.36" transform="translate(-17.648 -3.13)" fill="#ed8600"/>
        <path id="Trazado_136670" data-name="Trazado 136670" d="M51.507,68.967c-.008-.16-.023-.32-.023-.48q0-16.814,0-33.628c0-.14.012-.28.02-.42a.543.543,0,0,1,.558.113,40.656,40.656,0,0,1,1.055,5.084,89.992,89.992,0,0,1,.951,15.413,120.7,120.7,0,0,1-.829,13.682,1.785,1.785,0,0,1-1.73.237" transform="translate(-16.771 -11.207)" fill="#ed8600"/>
        <path id="Trazado_136671" data-name="Trazado 136671" d="M68.164,64.63c.667-6.34.128-12.693.3-19.038.007-.28.013-.561.021-.841A13.821,13.821,0,0,0,70.4,47.515a.693.693,0,0,1,.146.572q0,6.8,0,13.6c0,.215.049.438-.187.616a14.258,14.258,0,0,0-2.191,2.331" transform="translate(-22.205 -14.578)" fill="#cb7400"/>
        <path id="Trazado_136672" data-name="Trazado 136672" d="M53.568,7.352q-.008,6.4-.021,12.8c0,.233.092.483-.109.7a38.678,38.678,0,0,0-1.85-4.42,1.255,1.255,0,0,1-.111-.586q0-6.3,0-12.61c0-.26-.128-.581.465-.551.456.023.814-.036.888.516.185,1.389.483,2.768.735,4.151" transform="translate(-16.766 -0.874)" fill="#f09c2e"/>
        <path id="Trazado_136673" data-name="Trazado 136673" d="M70.452,32.959a31.577,31.577,0,0,1,0-20.835h.221V32.932l-.225.028" transform="translate(-22.375 -3.949)" fill="#cb7300"/>
        <path id="Trazado_136674" data-name="Trazado 136674" d="M70.186,75.134v4c0,1.543-.013,3.086.009,4.629.006.381-.1.54-.609.515-.688-.034-1.381-.021-2.071,0-.363.009-.477-.1-.447-.386a16.4,16.4,0,0,1,3.117-8.757" transform="translate(-21.847 -24.475)" fill="#cb7300"/>
        <path id="Trazado_136675" data-name="Trazado 136675" d="M62.7,80.281l1.667-1.554a25.5,25.5,0,0,0-1.293,5.266,7.474,7.474,0,0,0-.084.953c.007.386-.171.521-.656.506-1.245-.039-.97.062-.76-.792.359-1.462.749-2.919,1.126-4.379" transform="translate(-20 -25.646)" fill="#ca7300"/>
        <path id="Trazado_136676" data-name="Trazado 136676" d="M68.628,7.876Q68.614,6.038,68.6,4.2a4.616,4.616,0,0,0,.749-1.221c.164-.511.681-.257,1.044-.283.4-.029.283.258.288.435.013.5.006,1,0,1.493a.565.565,0,0,1-.121.455,13.946,13.946,0,0,0-1.935,2.8" transform="translate(-22.347 -0.865)" fill="#cb7300"/>
        <path id="Trazado_136677" data-name="Trazado 136677" d="M51.5,85.553a9.819,9.819,0,0,0,1.73-.237c-.059.614-.122,1.228-.177,1.843-.06.676-.694.369-1.107.427-.5.071-.481-.206-.473-.481.015-.518.019-1.036.027-1.553" transform="translate(-16.769 -27.792)" fill="#ca7300"/>
        <path id="Trazado_136678" data-name="Trazado 136678" d="M57.48,84.068a4.286,4.286,0,0,0,1.023-.36,21.889,21.889,0,0,1-.774,3.1.3.3,0,0,1-.349.246c-.314-.025-.232-.223-.216-.366.1-.875.209-1.749.316-2.623" transform="translate(-18.615 -27.269)" fill="#c67100"/>
        <path id="Trazado_136679" data-name="Trazado 136679" d="M52.072,33.7a1.067,1.067,0,0,1-.558-.113V31.81l.094-.013q.233.953.464,1.905" transform="translate(-16.781 -10.358)" fill="#e1922a"/>
        <path id="Trazado_136680" data-name="Trazado 136680" d="M65.713,2.748c-.436.593-.624.591-1.033,0Z" transform="translate(-21.07 -0.895)" fill="#d87a00"/>
        <path id="Trazado_136681" data-name="Trazado 136681" d="M13.06,55.38c.3-1.864.627-3.725.907-5.591a74.5,74.5,0,0,0,.746-9.77A78.661,78.661,0,0,0,13.329,23.8c-.7-3.616-1.678-7.191-2.552-10.781C9.984,9.758,9.251,6.491,8.641,3.207c-.065-.354-.03-.6.529-.526a1.441,1.441,0,0,0,.3,0c1.18-.091,2.041-.009,2.652,1.122.82,1.516,2.824,1.587,4.486.382a.591.591,0,0,1,.239.543,9.423,9.423,0,0,1-.216,3.134,23.191,23.191,0,0,0-1.691,5.577A37.878,37.878,0,0,0,14.782,24.4a25.222,25.222,0,0,0,1.845,6.65,5.834,5.834,0,0,1,.234,1.839q-.014,7.623,0,15.245a6.226,6.226,0,0,1-.516,2.709l-1.637,3.1a4.986,4.986,0,0,1-.937,1.114c-.2.156-.349.4-.711.326" transform="translate(-2.807 -0.865)" fill="#ed8600"/>
        <path id="Trazado_136682" data-name="Trazado 136682" d="M6.322,9.764q.719,3,1.437,6c.817,3.419,1.733,6.823,2.421,10.261a75.353,75.353,0,0,1,1.29,9.855,81.226,81.226,0,0,1,.013,10.161A80.927,80.927,0,0,1,9.53,59.34a1.614,1.614,0,0,1-.125.281.89.89,0,0,1-1.038.362c.169-2.421.366-4.84.5-7.263.189-3.466.285-6.934.174-10.4-.086-2.706-.233-5.411-.548-8.105a56.869,56.869,0,0,0-2.28-10.943c-.333-4.2-.07-8.4-.147-12.6-.005-.311-.077-.65.258-.9" transform="translate(-1.967 -3.181)" fill="#ed8600"/>
        <path id="Trazado_136683" data-name="Trazado 136683" d="M3.924,34.579a40.961,40.961,0,0,1,1.052,5.146,108.7,108.7,0,0,1,.711,21.96c-.116,2.361-.3,4.72-.592,7.071a1.78,1.78,0,0,1-1.728.237c-.008-.16-.025-.32-.025-.479q0-16.758,0-33.515c0-.14.015-.28.022-.42a.46.46,0,0,1,.559,0" transform="translate(-1.089 -11.234)" fill="#ed8600"/>
        <path id="Trazado_136684" data-name="Trazado 136684" d="M20.077,64.565c-.029-.9.291-1.767.287-2.671-.028-5.707-.008-11.415,0-17.122a13.553,13.553,0,0,0,1.913,2.758.632.632,0,0,1,.148.512q0,6.848,0,13.7c0,.2.028.4-.185.556a14.062,14.062,0,0,0-2.159,2.271" transform="translate(-6.54 -14.584)" fill="#cb7400"/>
        <path id="Trazado_136685" data-name="Trazado 136685" d="M5.44,7.455q-.012,6.4-.027,12.8c0,.236.074.481-.084.707A38.6,38.6,0,0,0,3.46,16.475a1.488,1.488,0,0,1-.123-.705q0-6.253,0-12.507c0-.285-.123-.6.506-.587.517.013.778.072.85.563.2,1.41.491,2.811.746,4.216" transform="translate(-1.084 -0.871)" fill="#f09c2e"/>
        <path id="Trazado_136686" data-name="Trazado 136686" d="M22.545,12V33h-.208A31.317,31.317,0,0,1,22.344,12h.2" transform="translate(-6.687 -3.908)" fill="#cb7300"/>
        <path id="Trazado_136687" data-name="Trazado 136687" d="M22.042,74.874v3.2c0,1.88-.011,3.76.009,5.641,0,.361-.109.5-.576.477-.687-.031-1.377-.014-2.067-.005-.311,0-.478-.031-.494-.352-.107-2.236,1.441-6.823,3.127-8.965" transform="translate(-6.16 -24.391)" fill="#cb7300"/>
        <path id="Trazado_136688" data-name="Trazado 136688" d="M14.592,80.159c.736-.339,1.009-1.028,1.648-1.44a25.726,25.726,0,0,0-1.276,5.166,6.67,6.67,0,0,0-.088.957c.013.451-.171.638-.771.61-.873-.04-.87-.005-.685-.719q.592-2.287,1.173-4.575" transform="translate(-4.339 -25.643)" fill="#ca7300"/>
        <path id="Trazado_136689" data-name="Trazado 136689" d="M20.486,7.863q-.011-1.839-.023-3.677a4.894,4.894,0,0,0,.75-1.23c.169-.475.651-.231,1-.264.456-.042.32.266.336.462a3.29,3.29,0,0,1-.9,2.913,8.731,8.731,0,0,0-1.154,1.8" transform="translate(-6.666 -0.866)" fill="#cb7300"/>
        <path id="Trazado_136690" data-name="Trazado 136690" d="M3.366,85.553a9.6,9.6,0,0,0,1.728-.237c-.063.593-.156,1.186-.181,1.78-.029.707-.658.45-1.105.494-.576.057-.466-.282-.465-.545,0-.5.014-.994.023-1.491" transform="translate(-1.086 -27.792)" fill="#c97300"/>
        <path id="Trazado_136691" data-name="Trazado 136691" d="M9.33,84.071a4.424,4.424,0,0,0,1.037-.362,23.744,23.744,0,0,1-.773,3.04c-.04.15-.093.33-.365.307-.306-.025-.233-.22-.217-.367.1-.873.211-1.746.318-2.619" transform="translate(-2.929 -27.269)" fill="#c87200"/>
        <path id="Trazado_136692" data-name="Trazado 136692" d="M3.935,33.751H3.376V31.958l.1-.017q.231.905.462,1.81" transform="translate(-1.1 -10.405)" fill="#e2932b"/>
        <path id="Trazado_136693" data-name="Trazado 136693" d="M16.552,2.723a3.127,3.127,0,0,1,.984-.007.448.448,0,0,1-.477.447.47.47,0,0,1-.506-.44" transform="translate(-5.392 -0.873)" fill="#d87a00"/>
        <path id="Trazado_136694" data-name="Trazado 136694" d="M43.31,56.509H12.625c-.115-.076-.244-.02-.365-.037a3.129,3.129,0,0,1-2.781-2.508c-.008-.069.018-.145-.038-.206V44.351c.162-.382.254-.439.684-.431a.7.7,0,0,1,.512.707c.009.157.006.314.006.471q0,3.926,0,7.852a2.169,2.169,0,0,0,2.372,2.358q13.424,0,26.848,0a.665.665,0,0,0,.353-.039c.032-.1-.03-.163-.073-.232a3.9,3.9,0,0,1-.57-2.172q.006-13.171,0-26.341c0-1.137-.166-1.305-1.289-1.305H11.872c-.145,0-.29,0-.434,0a.791.791,0,0,0-.776.719,3.948,3.948,0,0,0-.019.578q0,7.436,0,14.871c0,.169,0,.338-.005.506a.7.7,0,0,1-.507.714c-.427.014-.527-.048-.689-.43V25.608a1.929,1.929,0,0,1,2.067-1.7c.848-.007.778.087.79-.811a11.828,11.828,0,0,1,.065-1.948,1.927,1.927,0,0,1,2.053-1.723H31.841c.533,0,.657.092.774.557a.679.679,0,0,1-.707.671c-.18.016-.361.009-.542.009H14.908c-1.06,0-1.3.234-1.3,1.295,0,.518,0,1.037,0,1.555,0,.274.118.4.39.39.156,0,.314,0,.47,0q12.081,0,24.162,0a2.118,2.118,0,0,1,2.01,1.1,2.246,2.246,0,0,1,.252,1.151q-.005,5.1,0,10.2V47.2c0,.132,0,.265,0,.4,0,.226.111.313.332.33.8.064,1.183-.26,1.235-1.052.011-.169.007-.338.007-.506V36.781c0-.157-.006-.314.008-.47a.654.654,0,0,1,.59-.664.643.643,0,0,1,.659.554,2.161,2.161,0,0,1,.057.61v9.878c0,.109,0,.217-.009.325a2.176,2.176,0,0,1-2.37,2.226c-.494.006-.514.023-.515.506,0,1.146-.02,2.292.007,3.437a2.127,2.127,0,0,0,1.851,2.089,2.191,2.191,0,0,0,2.414-1.365,2.648,2.648,0,0,0,.134-1q0-10.981,0-21.963V21.867a2.264,2.264,0,0,0-.038-.576.774.774,0,0,0-.792-.607.743.743,0,0,0-.674.728c-.013.156-.007.314-.007.47V33.135a2.407,2.407,0,0,1-.062.718.64.64,0,0,1-.64.533.658.658,0,0,1-.605-.688c-.011-.144-.007-.289-.007-.434V21.648A3.16,3.16,0,0,1,42.5,21c.055-.265-.055-.344-.3-.343-.808,0-1.616,0-2.424,0-1.665,0-3.329,0-4.993,0-.565,0-.749-.136-.889-.6.053-.471.207-.629.66-.629,3.387,0,6.775.007,10.162-.007a1.89,1.89,0,0,1,1.819,1.829c0,.084,0,.169,0,.253q0,15.877.007,31.754a3.184,3.184,0,0,1-1.913,3.015,2.06,2.06,0,0,1-.872.2c-.146.018-.3-.039-.441.037" transform="translate(-3.075 -6.325)"/>
        <path id="Trazado_136695" data-name="Trazado 136695" d="M13.623,74.392a.063.063,0,0,0-.01-.065.411.411,0,0,1,.372.065Z" transform="translate(-4.435 -24.208)" fill="#505050"/>
        <path id="Trazado_136696" data-name="Trazado 136696" d="M60.046,74.327a.063.063,0,0,0-.01.065h-.361a.41.41,0,0,1,.371-.065" transform="translate(-19.439 -24.208)" fill="#505050"/>
        <path id="Trazado_136697" data-name="Trazado 136697" d="M10.3,46.712V45.287c.4-.093.512-.363.512-.75q-.01-7.778,0-15.557c0-.862.307-1.168,1.181-1.168H38.794a1.155,1.155,0,0,1,.935.285,1.088,1.088,0,0,1,.254.8q-.006,4.467,0,8.936,0,8.917,0,17.836a3.485,3.485,0,0,0,.836,2.431c-.094.106-.209.055-.307.055q-13.62,0-27.241.012a2.381,2.381,0,0,1-2.472-2.46c.051-2.761.011-5.523.018-8.284a.62.62,0,0,0-.512-.712" transform="translate(-3.355 -9.06)" fill="#e6ebf5"/>
        <path id="Trazado_136698" data-name="Trazado 136698" d="M34.509,20.227a5.943,5.943,0,0,0,1.426.07c.1.4.361.515.75.514,2.531-.009,5.062,0,7.593,0h.436a5.073,5.073,0,0,0-.179,2.007q-.01,5.5,0,10.993c0,.519.078.628.529.761a1.957,1.957,0,0,1,0,1.427c-.451.132-.529.24-.529.761q0,5.156,0,10.311a1.192,1.192,0,0,1-1.662,1.242.13.13,0,0,1-.114-.148c0-.1,0-.193,0-.289q0-10.728,0-21.454a2.007,2.007,0,0,0-1.517-2.1,3.27,3.27,0,0,0-.827-.057H15.955c-.521,0-.462.067-.464-.459,0-.651-.005-1.3,0-1.954a.915.915,0,0,1,1.048-1.036H33.761c.514,0,.662-.117.748-.578" transform="translate(-5.046 -6.589)" fill="#d7e1f0"/>
        <path id="Trazado_136699" data-name="Trazado 136699" d="M58.233,36.274V34.847c.46-.121.556-.251.556-.78q0-5.861,0-11.722c0-.133,0-.266.005-.4a.88.88,0,0,1,.855-.858.915.915,0,0,1,.889.794,1.97,1.97,0,0,1,.01.289q0,15.738,0,31.475a2.144,2.144,0,0,1-1.257,2.069,2.271,2.271,0,0,1-2.487-.234,2.06,2.06,0,0,1-.873-1.707c-.014-1.278,0-2.557-.011-3.834,0-.239.084-.28.292-.272a4.529,4.529,0,0,0,.866-.025,2.011,2.011,0,0,0,1.708-2.133q.007-3.943,0-7.887c0-.88,0-1.76,0-2.641,0-.457-.115-.593-.556-.707" transform="translate(-18.217 -6.87)" fill="#a1b8e1"/>
        <path id="Trazado_136700" data-name="Trazado 136700" d="M26.274,29.562H38.79c.636,0,.794.156.794.783q0,4.666,0,9.334c0,.591-.163.759-.743.759H13.663c-.591,0-.759-.165-.76-.746q0-4.685,0-9.369c0-.6.167-.761.782-.761H26.274" transform="translate(-4.203 -9.63)"/>
        <path id="Trazado_136701" data-name="Trazado 136701" d="M24.234,54.85q0,2.786,0,5.572c0,.63-.156.783-.793.783H13.673c-.613,0-.77-.157-.771-.77V49.219c0-.632.152-.782.793-.782h9.768c.61,0,.77.16.771.769q0,2.822,0,5.644" transform="translate(-4.203 -15.779)"/>
        <path id="Trazado_136702" data-name="Trazado 136702" d="M26.279,69.252H38.755c.561,0,.821.163.831.522.011.376-.266.564-.837.564H13.726a1.163,1.163,0,0,1-.464-.049.506.506,0,0,1-.343-.537.493.493,0,0,1,.451-.487,3.116,3.116,0,0,1,.4-.011H26.279" transform="translate(-4.208 -22.559)"/>
        <path id="Trazado_136703" data-name="Trazado 136703" d="M39.168,52.979H33.235a2.006,2.006,0,0,1-.325-.008.539.539,0,0,1-.019-1.068,1.683,1.683,0,0,1,.325-.009H45.155a1.683,1.683,0,0,1,.325.009.539.539,0,0,1-.017,1.068,2.006,2.006,0,0,1-.325.008h-5.97" transform="translate(-10.565 -16.904)"/>
        <path id="Trazado_136704" data-name="Trazado 136704" d="M39.168,63.386H33.2a1.441,1.441,0,0,1-.324-.011.518.518,0,0,1-.442-.538.511.511,0,0,1,.422-.518,1.523,1.523,0,0,1,.36-.018H45.154a1.729,1.729,0,0,1,.324.01.539.539,0,0,1-.015,1.068,1.932,1.932,0,0,1-.325.007h-5.97" transform="translate(-10.565 -20.294)"/>
        <path id="Trazado_136705" data-name="Trazado 136705" d="M39.2,48.437h5.933c.109,0,.218,0,.325.007a.5.5,0,0,1,.471.469.508.508,0,0,1-.353.564,1.193,1.193,0,0,1-.465.045H33.251a1.168,1.168,0,0,1-.465-.047.508.508,0,0,1-.35-.566.5.5,0,0,1,.474-.465c.108-.011.217-.007.326-.007H39.2" transform="translate(-10.564 -15.778)"/>
        <path id="Trazado_136706" data-name="Trazado 136706" d="M39.169,56.438q-3.02,0-6.041,0a.658.658,0,0,1-.562-.18.531.531,0,0,1,.218-.858,1.261,1.261,0,0,1,.465-.048H45.113c.061,0,.121,0,.181,0,.407.018.663.245.647.574s-.257.51-.659.511q-3.056,0-6.113,0" transform="translate(-10.564 -18.031)"/>
        <path id="Trazado_136707" data-name="Trazado 136707" d="M39.184,58.841q3,0,6,0a.776.776,0,0,1,.521.1.519.519,0,0,1,.224.5.527.527,0,0,1-.338.434,1.188,1.188,0,0,1-.464.049h-11.9c-.072,0-.145,0-.217,0a.562.562,0,0,1-.589-.556.551.551,0,0,1,.61-.526c1.338-.005,2.677,0,4.015,0h2.134" transform="translate(-10.563 -19.167)"/>
        <path id="Trazado_136708" data-name="Trazado 136708" d="M39.168,66.849q-3.02,0-6.041,0a.64.64,0,0,1-.607-.239.522.522,0,0,1,.3-.808,1.589,1.589,0,0,1,.428-.039q5.933,0,11.865,0c.072,0,.145,0,.217,0,.379.021.626.254.61.571a.551.551,0,0,1-.623.511q-3.075.005-6.149,0" transform="translate(-10.563 -21.423)"/>
        <path id="Trazado_136709" data-name="Trazado 136709" d="M26.8,31.168c3.943,0,7.886.005,11.829-.009.344,0,.4.1.4.417q-.018,3.98,0,7.959c0,.26-.05.345-.331.345q-11.919-.013-23.839,0c-.3,0-.353-.092-.352-.365q.014-4,0-8c0-.282.068-.359.355-.358q5.968.015,11.937.007" transform="translate(-4.724 -10.15)" fill="#fedf7c"/>
        <path id="Trazado_136710" data-name="Trazado 136710" d="M14.509,55.34c0-1.653.006-3.3-.006-4.957,0-.265.06-.347.338-.345q4.251.016,8.5,0c.283,0,.334.088.333.349q-.012,4.957,0,9.914c0,.263-.057.348-.336.347q-4.251-.016-8.5,0c-.283,0-.336-.09-.334-.35.011-1.653.005-3.3.005-4.957" transform="translate(-4.724 -16.3)" fill="#de75a4"/>
        <path id="Trazado_136711" data-name="Trazado 136711" d="M36.371,36.819c.212-1.056.4-2,.59-2.941.024-.118.044-.237.072-.353a.536.536,0,0,1,.649-.467.544.544,0,0,1,.413.689c-.193.98-.39,1.959-.587,2.938-.13.649-.266,1.3-.39,1.946a.663.663,0,0,1-1.307.069c-.325-1.053-.649-2.107-.976-3.17-.154.086-.141.236-.178.353-.292.916-.572,1.837-.859,2.754-.132.422-.37.616-.707.593s-.538-.236-.626-.679q-.474-2.389-.945-4.78c-.076-.39.073-.651.4-.727s.571.113.653.507c.193.93.372,1.864.559,2.8.025.127.057.252.1.451l.974-3.126c.018-.057.038-.114.053-.172a.536.536,0,0,1,.531-.458.567.567,0,0,1,.564.471q.41,1.327.814,2.654c.056.183.114.366.2.65" transform="translate(-10.262 -10.759)"/>
        <path id="Trazado_136712" data-name="Trazado 136712" d="M19.635,36.976V34.043c0-.169-.009-.338,0-.506a.533.533,0,0,1,1.048-.1,1.183,1.183,0,0,1,.032.321q.02,2.3.036,4.592a.934.934,0,0,1-.109.558.6.6,0,0,1-1.023-.044c-.454-.637-.893-1.285-1.338-1.928l-1.107-1.605v.9c0,.771,0,1.543,0,2.314,0,.44-.216.7-.562.686-.33-.011-.521-.258-.522-.686,0-1.6,0-3.206,0-4.809,0-.3.054-.556.376-.661.342-.112.539.086.714.34.8,1.161,1.6,2.319,2.456,3.561" transform="translate(-5.241 -10.761)"/>
        <path id="Trazado_136713" data-name="Trazado 136713" d="M44.938,39.231a2.914,2.914,0,0,1-1.961-.858.539.539,0,0,1-.056-.826.551.551,0,0,1,.8.046,1.753,1.753,0,0,0,1.721.488.737.737,0,0,0,.614-.632c.038-.364-.229-.543-.508-.669-.459-.207-.934-.381-1.4-.577a1.529,1.529,0,0,1-1.1-1.619,1.739,1.739,0,0,1,1.483-1.508,2.785,2.785,0,0,1,2.149.522.544.544,0,0,1,.214.8.557.557,0,0,1-.826.09,1.72,1.72,0,0,0-1.429-.324.6.6,0,0,0-.508.537c-.022.294.19.407.432.5.472.179.943.361,1.4.569a1.715,1.715,0,0,1,1.023,2.354,2.167,2.167,0,0,1-2.051,1.106" transform="translate(-13.927 -10.76)"/>
        <path id="Trazado_136714" data-name="Trazado 136714" d="M24.8,36.08c0-.771,0-1.543,0-2.313,0-.561.18-.745.728-.748.614,0,1.229,0,1.843,0,.421,0,.67.21.673.543s-.245.537-.665.54-.82.01-1.229,0c-.2-.007-.28.049-.269.261a9.091,9.091,0,0,1,0,.939c-.011.216.049.3.278.291.349-.018.7-.008,1.048,0,.424.005.676.2.681.531s-.259.549-.7.554c-.337,0-.676.017-1.011,0-.25-.016-.314.081-.294.309.033.38-.159.889.078,1.105.207.189.709.055,1.08.062.169,0,.339-.013.506.007a.505.505,0,0,1,.494.524.482.482,0,0,1-.471.54c-.758.027-1.518.024-2.277,0-.32-.009-.488-.256-.49-.643,0-.832,0-1.663,0-2.495" transform="translate(-8.079 -10.755)"/>
      </g>
    </g>
  </g>
</svg>
