<svg xmlns="http://www.w3.org/2000/svg" xmlns:xlink="http://www.w3.org/1999/xlink" width="133" height="133" viewBox="0 0 133 133">
  <defs>
    <clipPath id="clip-path">
      <rect id="Rect치ngulo_38407" data-name="Rect치ngulo 38407" width="91.071" height="73" fill="none"/>
    </clipPath>
  </defs>
  <g id="Grupo_161447" data-name="Grupo 161447" transform="translate(-3920.715 9834.285)">
    <rect id="Rect치ngulo_37519" data-name="Rect치ngulo 37519" width="133" height="133" rx="66.5" transform="translate(3920.715 -9834.285)" fill="#6b8dfc"/>
    <g id="Grupo_161448" data-name="Grupo 161448" transform="translate(3944.758 -9804.285)">
      <g id="Grupo_161448-2" data-name="Grupo 161448" transform="translate(0 0)" clip-path="url(#clip-path)">
        <path id="Trazado_141535" data-name="Trazado 141535" d="M91.071,19.775a3.53,3.53,0,0,1-4.054,2.447c1.086,3.405.509,6.831.638,10.214a2.418,2.418,0,0,0,.5,1.518,4.29,4.29,0,0,1-1.276,5.909.636.636,0,0,0-.385.692c.006.652.023,1.305-.018,1.955a3.018,3.018,0,0,1-2.945,2.876q-4.178.055-8.358,0a3.075,3.075,0,0,1-2.943-2.9c-.029-.413-.011-.83-.011-1.244,0-1.183,0-1.183-1.137-1.183-1.232,0-1.232,0-1.232,1.254,0,.741,0,1.482,0,2.223-.016,2.408-1.322,3.7-3.752,3.735a1.262,1.262,0,0,0-.8.105c1.243,3.414.574,6.967.726,10.464a4.909,4.909,0,0,0,.752,2.956,4.407,4.407,0,0,1-1.666,6.113.555.555,0,0,0-.34.623c0,.711.013,1.422,0,2.134a3.246,3.246,0,0,1-3.238,3.308q-4.534.055-9.07,0a3.229,3.229,0,0,1-3.21-3.241c-.022-.681-.03-1.365,0-2.045.021-.442-.081-.63-.577-.622-1.867.027-3.735.009-5.6.012-.147,0-.331-.028-.435.046-1.134.813-2.435.609-3.695.614-3.438.013-6.877,0-10.315.006a3.66,3.66,0,0,1-2.291-.536,1.047,1.047,0,0,0-.681-.13c-1.808,0-3.616.024-5.423-.017-.564-.013-.716.151-.676.692a17.706,17.706,0,0,1,.006,1.955,3.282,3.282,0,0,1-3.3,3.269q-4.49.049-8.981,0a3.214,3.214,0,0,1-3.248-3.018,22.694,22.694,0,0,1-.037-2.309c0-.377-.035-.614-.488-.786a2.829,2.829,0,0,1-1.943-2.88c.009-1.435-.249-2.937,1.062-4.043.208-.175.085-.509.09-.769.066-3.021-.129-6.045.116-9.064a8.518,8.518,0,0,1,.554-2.322c.137-.364.067-.472-.338-.55a3.3,3.3,0,0,1-3.04-3.686c0-1.037-.018-2.075,0-3.112a3.259,3.259,0,0,1,3.2-3.259,22.9,22.9,0,0,1,2.4,0c.593.038.733-.2.812-.744a20.29,20.29,0,0,1,3.324-8.794,9.961,9.961,0,0,1,8.895-4.74c3.762.1,7.528.022,11.293.022.207,0,.415,0,.622-.008.276-.018.292-.275.346-.451.089-.287-.184-.222-.328-.267-2.087-.65-2.714-1.491-2.719-3.661,0-.86-.024-1.721.009-2.579a3.077,3.077,0,0,1,3.18-3.117c.8-.016,1.786.257,2.343-.116s.382-1.463.576-2.228a16.4,16.4,0,0,1,4.274-8.039A8.107,8.107,0,0,1,44.052,0q14.85,0,29.7,0a8.436,8.436,0,0,1,6.112,2.615c.91.895.941,1.345.19,2.366-.46.616-1.021.469-1.585.2a4.46,4.46,0,0,1-.905-.713,5.959,5.959,0,0,0-4.063-1.5Q59.274,3,45.05,2.972c-2.834-.346-4.763,1.074-6.206,3.3a15.9,15.9,0,0,0-2.489,9.461c.007.209-.077.573.313.478.472-.116,1.039-.187,1.131-.827.077-.528.006-1.065.035-1.6a13.414,13.414,0,0,1,2.437-7.3,5.6,5.6,0,0,1,3.04-2.184,2.579,2.579,0,0,1,.633-.064q15.078,0,30.153,0a4.525,4.525,0,0,1,3.23,1.815,12.419,12.419,0,0,1,2.781,7.884c.006.384-.014.77.008,1.154a1.265,1.265,0,0,0,1.3,1.16c.506-.066.335-.491.307-.771a26.81,26.81,0,0,0-.849-5.426,1.619,1.619,0,0,1,.141-1.531c.192-.263.388-.536.778-.491,1.222-.077,1.519.123,1.873,1.258a14.672,14.672,0,0,1,.642,2.934c.048.493.237.654.722.626.649-.038,1.305.042,1.95-.019a3.654,3.654,0,0,1,4.089,2.328Z" transform="translate(0 0)" fill="#050402"/>
        <path id="Trazado_141536" data-name="Trazado 141536" d="M56.239,3.41c1.6-.011,3.2-.032,4.8-.032,7.912,0,15.824.021,23.736-.019a6.173,6.173,0,0,1,4.7,1.92,1.577,1.577,0,0,0,2,.4,13.753,13.753,0,0,1,1.741,3.043,1.6,1.6,0,0,0-.665,2.142,21.551,21.551,0,0,1,.824,6.544c-.631-.207-1.184-.392-1.739-.572-.491-.159-.341-.574-.33-.9A13.745,13.745,0,0,0,90,9.129c-.928-1.828-2.044-3.494-4.247-3.979a1.748,1.748,0,0,0-.7-.059q-14.58,0-29.16,0a2.14,2.14,0,0,0-.706.047l-.545.051c.177-.913.935-1.3,1.6-1.78" transform="translate(-11.412 -0.702)" fill="#00b965"/>
        <path id="Trazado_141537" data-name="Trazado 141537" d="M24.114,37.575c3.685-.017,7.37-.044,11.055-.045.937,0,1.619-.279,1.807-1.29a4.216,4.216,0,0,1,3.486-.006c.251,1.014.943,1.307,1.926,1.3,4-.026,8,.044,12-.04a3.429,3.429,0,0,1,3.13,1.631,12.513,12.513,0,0,1,2.16,6.93c.051,1.854.041,1.854-1.8,1.854q-17.913,0-35.826,0c-.325,0-.65-.021-.975-.033-.35-.4-.246-.894-.241-1.354a14.5,14.5,0,0,1,2.072-7.57,3.44,3.44,0,0,1,1.208-1.377" transform="translate(-4.348 -7.49)" fill="#60b7fd"/>
        <path id="Trazado_141538" data-name="Trazado 141538" d="M17.755,54.489c2.709-.147,2.709-.148,4.086,2.1.835,1.362,1.659,2.733,2.506,4.087A6.39,6.39,0,0,0,30.017,63.9q6.978.03,13.956.006a6.45,6.45,0,0,0,5.8-3.313c1.111-1.818,2.256-3.616,3.326-5.458a1.2,1.2,0,0,1,1.27-.688,43.162,43.162,0,0,1,4.612.141,8.267,8.267,0,0,1,7,7.9c.065,2.517.01,5.037.035,7.556,0,.464-.137.6-.6.6q-9.824-.02-19.646-.01c-.147,0-.331.036-.437-.036-1.372-.916-2.919-.609-4.408-.623-3.259-.031-6.519-.008-9.778-.01a3.663,3.663,0,0,0-2.125.507.991.991,0,0,1-.584.164L12.97,70.61a4.66,4.66,0,0,1-.161-2.839c.312-.509.748-.248,1.107-.124a5.013,5.013,0,1,0,2-9.763,3.487,3.487,0,0,1-1.487-.15c-.3-.327-.062-.6.108-.861A9.318,9.318,0,0,1,16.5,54.782c.385-.313.838-.184,1.25-.294" transform="translate(-2.646 -11.37)" fill="#fe656f"/>
        <path id="Trazado_141539" data-name="Trazado 141539" d="M58.232,9.03c.3-.013.59-.039.885-.039,8.565,0,17.13.011,25.694-.021a2.377,2.377,0,0,1,2.106,1.043,10.406,10.406,0,0,1,1.839,7.568,2.232,2.232,0,0,1-.88.061q-15.517.006-31.035,0c-1.094,0-1.176-.069-1.2-1.125a12.192,12.192,0,0,1,1.589-6.391,2.4,2.4,0,0,1,1-1.1" transform="translate(-11.62 -1.874)" fill="#60b7fd"/>
        <path id="Trazado_141540" data-name="Trazado 141540" d="M76.2,35.656c1.941,0,3.658.007,5.375,0a1.34,1.34,0,0,0,1.373-.921,1.253,1.253,0,0,0-.407-1.438,1.588,1.588,0,0,0-1.172-.3c-1.867,0-3.737-.051-5.6.024-.844.034-1.232-.338-1.577-1.134,1.44,0,2.79.006,4.138,0,.948-.006,1.9-.008,2.843-.059a5.921,5.921,0,0,0,4.922-3.047c.979-1.587,1.964-3.172,2.911-4.778a1.087,1.087,0,0,1,1.12-.648,25.847,25.847,0,0,1,4.692.216,7.332,7.332,0,0,1,5.652,6.818c.09,2.219.015,4.445.04,6.668,0,.468-.15.608-.61.607q-8.759-.018-17.518-.007c-1.678-.764-3.467-.493-5.221-.6-.725-.043-.468-.892-.959-1.394" transform="translate(-15.495 -4.875)" fill="#43ca8d"/>
        <path id="Trazado_141541" data-name="Trazado 141541" d="M31.906,54.5q7.067-.017,14.133-.032c2.725,0,5.451,0,8.236,0a4.082,4.082,0,0,1-.738,1.412c-.693,1.172-1.409,2.33-2.131,3.484a3.5,3.5,0,0,1-2.962,1.851c-4.147.039-8.294,0-12.442,0a2.267,2.267,0,0,1-.978-.987c-.924-1.544-1.869-3.075-2.819-4.6-.2-.329-.543-.658-.3-1.122" transform="translate(-6.646 -11.375)" fill="#fe4756"/>
        <path id="Trazado_141542" data-name="Trazado 141542" d="M40.389,35.5,36.9,35.5c-.244-1.109-.551-1.376-1.685-1.377-4.308-.006-8.615,0-12.923-.006a6.325,6.325,0,0,0-1.824.3c.113-.96.9-1.349,1.57-1.829.114-.081.278-.089.385-.2.325-.015.65-.043.975-.043,10.4,0,20.8.028,31.2-.024a7.052,7.052,0,0,1,6.042,2.953c2.782,3.721,3.654,8.014,3.6,12.56,0,.132.046.3-.138.376-.449.192-1.839-.8-1.821-1.318a17.33,17.33,0,0,0-1.436-7.876A11.846,11.846,0,0,0,59.3,36.437a5.7,5.7,0,0,0-4.82-2.342c-4.087.088-8.178.024-12.267.028-1.241,0-1.453.17-1.82,1.372" transform="translate(-4.276 -6.751)" fill="#fe4756"/>
        <path id="Trazado_141543" data-name="Trazado 141543" d="M64.05,23.379q9.066-.017,18.134-.025c.576,0,1.419-.287,1.664.146s-.456,1-.737,1.5c-.416.75-.913,1.455-1.331,2.2A3.663,3.663,0,0,1,78.36,29.2c-2.934.007-5.868.029-8.8-.01-1.063-.014-1.866-.837-2.856-1.121a23.676,23.676,0,0,1-2.7-4.2.393.393,0,0,1,.049-.491" transform="translate(-13.354 -4.859)" fill="#00b966"/>
        <path id="Trazado_141544" data-name="Trazado 141544" d="M11.742,67.587q0,1.515-.006,3.031c-1.451.01-2.9.014-4.354.037-.385.006-.605-.066-.594-.529.066-2.753-.173-5.517.116-8.261a8.314,8.314,0,0,1,8.108-7.392c.5-.012,1.006.015,1.509.024a5.7,5.7,0,0,0-3.363,3.138c-.1.354-.426.365-.691.476a5.023,5.023,0,0,0-3.283,4.273,4.8,4.8,0,0,0,2.027,4.555c.226.169.536.285.531.65" transform="translate(-1.411 -11.377)" fill="#fe4756"/>
        <path id="Trazado_141545" data-name="Trazado 141545" d="M65.623,78.29c3.172,0,6.343.025,9.514-.018.781-.01,1.032.2,1,.992-.074,1.693.187,1.485-1.458,1.487-6.135.006-12.271-.012-18.406.02-.751,0-1.021-.127-.979-.948.078-1.53.021-1.533,1.529-1.533h8.8" transform="translate(-11.547 -16.348)" fill="#deeaf8"/>
        <path id="Trazado_141546" data-name="Trazado 141546" d="M57.36,9.016a12.508,12.508,0,0,0-2.234,5.7c0,.029-.025.056-.026.085-.054.877-.363,1.9.123,2.581.347.491,1.335.152,2.034.153q15.314.027,30.629.028c-.263.212-.57.1-.854.1q-17.3.007-34.593.019c-.782,0-.978-.185-.977-.972a11.974,11.974,0,0,1,1.3-5.739c.714-1.343,1.634-2.334,3.362-2.009a8.166,8.166,0,0,0,1.24.05" transform="translate(-10.748 -1.86)" fill="#23a7fd"/>
        <path id="Trazado_141547" data-name="Trazado 141547" d="M94.586,46.74c-2.81,0-5.622-.04-8.43.022-.992.022-.7-.59-.738-1.089-.038-.525-.069-.911.73-.905q8.475.062,16.951,0c.918-.007.8.475.816,1.046.019.593.006.966-.81.949-2.839-.058-5.679-.022-8.519-.022" transform="translate(-17.838 -9.351)" fill="#deeaf8"/>
        <path id="Trazado_141548" data-name="Trazado 141548" d="M23.306,38a15.277,15.277,0,0,0-2.585,5.3,19.2,19.2,0,0,0-.454,5.006c-.915.011-1.829.009-2.742.04-.4.013-.575-.1-.579-.54a15,15,0,0,1,1.574-7.265C19.549,38.568,21,37.505,23.306,38" transform="translate(-3.539 -7.911)" fill="#23a7fd"/>
        <path id="Trazado_141549" data-name="Trazado 141549" d="M20.467,32.4a11.1,11.1,0,0,0-1.955,2.029c-2.947,1.617-4.16,4.4-4.967,7.439a19.83,19.83,0,0,0-.49,5.11c0,.471-1.381,1.422-1.8,1.256-.175-.07-.166-.226-.165-.369.044-4.994.831-9.755,4.523-13.511A5.876,5.876,0,0,1,20.467,32.4" transform="translate(-2.316 -6.762)" fill="#fb2d39"/>
        <path id="Trazado_141550" data-name="Trazado 141550" d="M49.468,77.573a6.91,6.91,0,0,1,0,3.569c-1.7.18-3.415.039-5.122.077-.827.018-1.654-.019-2.48.011-.509.019-.79-.166-.827-.677a15.236,15.236,0,0,1,0-2.388c.032-.38.169-.683.645-.673,2.593.052,5.187-.1,7.779.082" transform="translate(-8.563 -16.183)" fill="#afd9f9"/>
        <path id="Trazado_141551" data-name="Trazado 141551" d="M54.348,3.413l-1.6,1.78c-2.691,1.085-3.813,3.4-4.607,5.942a12.727,12.727,0,0,0-.54,4.649c.046.693-.1,1.127-.868,1.234a6.713,6.713,0,0,0-1.141.4,23.755,23.755,0,0,1,.217-4.252,14.907,14.907,0,0,1,3.17-7.407,5.919,5.919,0,0,1,5.368-2.345" transform="translate(-9.522 -0.705)" fill="#00a86b"/>
        <path id="Trazado_141552" data-name="Trazado 141552" d="M50.412,23.41l3.006-.051c.24,0,.475,0,.613.25a37.687,37.687,0,0,1,2.375,4.1c-2.922.132-5.846.022-8.771.059-.713.009-.607-.43-.422-.83a6.56,6.56,0,0,1,3.2-3.525" transform="translate(-9.833 -4.879)" fill="#42c98d"/>
        <path id="Trazado_141553" data-name="Trazado 141553" d="M30.81,54.5a51.091,51.091,0,0,0,2.823,4.8c.381.663.846,1.277,1.272,1.913-.737.009-1.474.037-2.21.023a3.337,3.337,0,0,1-2.807-1.449c-1.137-1.679-2.162-3.434-3.316-5.287Z" transform="translate(-5.55 -11.384)" fill="#fb2d39"/>
        <path id="Trazado_141554" data-name="Trazado 141554" d="M48.208,77.564c-2.46,0-4.919.026-7.378,0-.622-.007-.85.184-.806.808a14.019,14.019,0,0,1,0,1.955c-.044.627.191.812.809.805,2.46-.026,4.919,0,7.379,0-.256.229-.566.116-.848.116-3.79.006-7.58-.017-11.369.013-.751.006-1.1-.164-1.02-.981a14.406,14.406,0,0,0,.006-2.041c-.026-.555.142-.8.744-.8,4.027.015,8.054,0,12.081,0,.146,0,.3-.014.4.121" transform="translate(-7.302 -16.175)" fill="#8bc9fe"/>
        <path id="Trazado_141555" data-name="Trazado 141555" d="M15.767,80.751c-3.169,0-6.339-.016-9.508.013-.661.006-.963-.112-.935-.867.072-1.924-.191-1.6,1.6-1.6,6.1-.016,12.2,0,18.305-.03.73,0,.956.174.93.922-.055,1.571-.013,1.573-1.594,1.573h-8.8v-.008" transform="translate(-1.112 -16.347)" fill="#b0dafb"/>
        <path id="Trazado_141556" data-name="Trazado 141556" d="M14.544,84.819c1.57-.011,3.14-.011,4.709-.039.446-.008.652.12.625.6-.032.591-.006,1.185-.009,1.778a.767.767,0,0,1-.887.857C17.56,88,16.139,88,14.717,87.99a3.261,3.261,0,0,1-.173-3.171" transform="translate(-2.97 -17.708)" fill="#665e68"/>
        <path id="Trazado_141557" data-name="Trazado 141557" d="M71.869,84.813c1.5-.009,3.01,0,4.514-.036.5-.011.668.153.661.656-.038,2.875.316,2.58-2.434,2.581-.915,0-1.829-.017-2.744-.026a4.007,4.007,0,0,1,0-3.175" transform="translate(-14.942 -17.707)" fill="#665e68"/>
        <path id="Trazado_141558" data-name="Trazado 141558" d="M13.323,84.822a13.144,13.144,0,0,0,.173,3.171c-1.392.006-2.785,0-4.176.025-.485.008-.857-.162-.9-.65-.064-.735-.049-1.478-.041-2.217,0-.392.327-.356.589-.355q2.176.008,4.354.026" transform="translate(-1.749 -17.711)" fill="#544e55"/>
        <path id="Trazado_141559" data-name="Trazado 141559" d="M70.625,84.817q0,1.588,0,3.175c-1.362.007-2.724,0-4.085.028-.629.013-.9-.221-.924-.877-.09-2.35-.107-2.352,2.259-2.349.918,0,1.835.014,2.753.022" transform="translate(-13.698 -17.711)" fill="#544e55"/>
        <path id="Trazado_141560" data-name="Trazado 141560" d="M49.485,23.422a10.477,10.477,0,0,0-2.884,3.39c-.4.888-.427.879.567.882q4.156.013,8.312.022c-.195.2-.445.116-.67.117-3.84,0-7.68-.012-11.52,0-.569,0-.874-.045-.469-.688a7.109,7.109,0,0,1,6.665-3.722" transform="translate(-8.905 -4.89)" fill="#00b965"/>
        <path id="Trazado_141561" data-name="Trazado 141561" d="M63.2,23.4a29.624,29.624,0,0,0,2.154,3.776,3.171,3.171,0,0,1,.5.914,11.921,11.921,0,0,0-2.906-.273.8.8,0,0,1-.8-.433c-.7-1.166-1.407-2.328-2.131-3.48-.3-.479-.07-.544.347-.536.946.016,1.892.022,2.839.032" transform="translate(-12.507 -4.881)" fill="#00a86b"/>
        <path id="Trazado_141562" data-name="Trazado 141562" d="M99.454,53.27c-1.332.009-2.664.007-4,.032-.547.011-.8-.172-.824-.761-.084-1.915-.1-1.917,1.8-1.912,1.006,0,2.012.02,3.018.03a2.975,2.975,0,0,1,0,2.611" transform="translate(-19.76 -10.575)" fill="#544e55"/>
        <path id="Trazado_141563" data-name="Trazado 141563" d="M81.541,50.386c3.1-.139,2.569-.18,2.612,2.4.008.47.006.94,0,1.409-.006.359-.029.718-.48.821a2.205,2.205,0,0,1-.963.073c-1.443.009-1.448,0-1.455-1.488,0-.769-.011-1.539.007-2.308a1.309,1.309,0,0,1,.28-.911" transform="translate(-16.97 -10.513)" fill="#dce8f7"/>
        <path id="Trazado_141564" data-name="Trazado 141564" d="M100.734,53.268q0-1.305,0-2.611c1.179-.01,2.358-.011,3.536-.036.4-.009.619.121.577.551a.829.829,0,0,0,0,.089c-.011,2.434.211,2-1.905,2.036-.737.011-1.473-.018-2.21-.029" transform="translate(-21.04 -10.573)" fill="#655d67"/>
        <path id="Trazado_141565" data-name="Trazado 141565" d="M5.836,55.012a4.453,4.453,0,0,1-1.825.074c-.525-.025-.639-.43-.634-.9.01-.977.016-1.956,0-2.933-.011-.633.258-.945.9-.912.354.017.707.029,1.062.044.337.4.241.878.267,1.336a10.6,10.6,0,0,0,.233,3.287" transform="translate(-0.705 -10.515)" fill="#b0d9fa"/>
        <path id="Trazado_141566" data-name="Trazado 141566" d="M81.1,50.383c0,1.245.04,2.492-.018,3.734-.033.718.211.96.906.886a10.036,10.036,0,0,1,1.243.014,7.169,7.169,0,0,1-2.8.044,1.531,1.531,0,0,1-1.252-1.488c-.038-.824.033-1.654-.025-2.476-.045-.646.2-.836.8-.763.378.046.763.035,1.145.05" transform="translate(-16.533 -10.51)" fill="#b0d9fa"/>
        <path id="Trazado_141567" data-name="Trazado 141567" d="M40.788,23.335c-.552.638-1.272.353-1.877.223-.563-.121-.309-.747-.33-1.158-.034-.679.009-1.362-.013-2.042-.017-.572.222-.813.8-.772.472.034.945.023,1.419.032a5.406,5.406,0,0,1,0,3.718" transform="translate(-8.05 -4.09)" fill="#b0dafa"/>
        <path id="Trazado_141568" data-name="Trazado 141568" d="M109.372,19.623c1.778-.1,1.778-.1,1.778,1.68,0,.53,0,1.061,0,1.592,0,.261.045.549-.3.651-1.782.167-1.938.041-1.921-1.746.007-.746-.182-1.551.446-2.177" transform="translate(-22.746 -4.092)" fill="#dce9f8"/>
        <path id="Trazado_141569" data-name="Trazado 141569" d="M108.96,19.621a9.8,9.8,0,0,0-.172,2.619c0,1.229.011,1.237,1.209,1.268.146,0,.293.023.438.036a5.459,5.459,0,0,1-2.439.067,1.259,1.259,0,0,1-1.048-1.324c0-.709.029-1.419-.011-2.125-.028-.489.162-.616.609-.578.469.04.943.027,1.415.037" transform="translate(-22.335 -4.089)" fill="#b0dafb"/>
        <path id="Trazado_141570" data-name="Trazado 141570" d="M6.352,55.012c-.54.018-.506-.355-.5-.722.006-1.3,0-2.6.006-3.9,1.474-.116,1.474-.116,1.474,1.319a8.243,8.243,0,0,0,.009,1.145,2.1,2.1,0,0,1-.983,2.16" transform="translate(-1.221 -10.515)" fill="#deeaf9"/>
        <path id="Trazado_141571" data-name="Trazado 141571" d="M55.329,5.567c.286-.235.627-.131.941-.132q14.346-.008,28.691,0c.314,0,.656-.107.937.143L55.329,5.567" transform="translate(-11.556 -1.131)" fill="#00a86b"/>
        <path id="Trazado_141572" data-name="Trazado 141572" d="M79.505,44.112a6.751,6.751,0,0,1,1.782.019,7.175,7.175,0,0,1,.083,1.49c.061.539-.137.711-.691.711-1.5,0-1.906-.737-1.174-2.22" transform="translate(-16.532 -9.203)" fill="#add6f7"/>
        <path id="Trazado_141573" data-name="Trazado 141573" d="M41.38,23.335q0-1.858,0-3.718c.319-.041.66-.15.648.392-.017.816,0,1.634-.009,2.45,0,.434-.341.644-.635.876" transform="translate(-8.642 -4.09)" fill="#ccd7e5"/>
        <path id="Trazado_141574" data-name="Trazado 141574" d="M79.383,44.109a10.9,10.9,0,0,1-.011,1.236c-.082.7.192.913.889.9.663-.009,1-.146.909-.884a9.606,9.606,0,0,1-.006-1.236c.37.626.079,1.3.151,1.955.025.224-.165.285-.361.285-.562,0-1.124-.009-1.686,0-.294,0-.415-.124-.439-.419a4.432,4.432,0,0,0-.172-1.048c-.247-.741,0-.976.726-.789" transform="translate(-16.409 -9.2)" fill="#8ac9fd"/>
        <path id="Trazado_141575" data-name="Trazado 141575" d="M12.318,68.411a5.593,5.593,0,0,1-2.7-3.664,5.28,5.28,0,0,1,3.53-6.088c.2-.065.39-.134.585-.2a5.623,5.623,0,0,1,4.543,1.27,5.275,5.275,0,0,1-5.292,8.909c-.222-.078-.445-.15-.667-.225" transform="translate(-1.988 -12.201)" fill="#050402"/>
        <path id="Trazado_141576" data-name="Trazado 141576" d="M74.628,63.671A5.272,5.272,0,1,1,69.4,58.427a5.207,5.207,0,0,1,5.232,5.244" transform="translate(-13.385 -12.203)" fill="#050402"/>
        <path id="Trazado_141577" data-name="Trazado 141577" d="M41.124,68.333c2.514,0,5.029,0,7.543,0,1.05,0,1.661.483,1.681,1.286.021.835-.627,1.376-1.7,1.377q-7.677.008-15.354,0c-1.272,0-1.984-.967-1.479-1.947a1.462,1.462,0,0,1,1.5-.719c2.6.009,5.206,0,7.81,0" transform="translate(-6.611 -14.272)" fill="#060402"/>
        <path id="Trazado_141578" data-name="Trazado 141578" d="M97.831,26.556a4.888,4.888,0,1,1-4.823,4.877,4.821,4.821,0,0,1,4.823-4.877" transform="translate(-19.426 -5.547)" fill="#050402"/>
        <path id="Trazado_141579" data-name="Trazado 141579" d="M19.426,80.634c-2.309,0-4.618-.04-6.924.02-.919.025-.824-.5-.807-1.07.016-.53-.194-1.116.767-1.108,4.7.04,9.411.03,14.115,0,.669,0,.774.271.768.843-.013,1.311.01,1.312-1.262,1.312H19.426" transform="translate(-2.44 -16.391)" fill="#dde9f8"/>
        <path id="Trazado_141580" data-name="Trazado 141580" d="M16.21,66.833a2.451,2.451,0,0,1-2.869-.96,2.521,2.521,0,0,1,.068-3.062,2.477,2.477,0,0,1,3.006-.794,8.509,8.509,0,0,0-.68,2.081,4.311,4.311,0,0,0,.282,1.816c.123.288.338.569.193.918" transform="translate(-2.685 -12.911)" fill="#fdc10c"/>
        <path id="Trazado_141581" data-name="Trazado 141581" d="M16.9,66.887a4.15,4.15,0,0,1-.252-4.3.95.95,0,0,1,.457-.518,2.519,2.519,0,0,1-.2,4.816" transform="translate(-3.375 -12.965)" fill="#fed101"/>
        <path id="Trazado_141582" data-name="Trazado 141582" d="M70.832,66.828a2.475,2.475,0,0,1-2.876-.919,2.55,2.55,0,0,1,.065-3.124,2.485,2.485,0,0,1,3.006-.761,9.845,9.845,0,0,0-.663,1.99,4.3,4.3,0,0,0,.274,1.9c.124.286.335.566.195.915" transform="translate(-14.089 -12.911)" fill="#fdc10c"/>
        <path id="Trazado_141583" data-name="Trazado 141583" d="M71.529,66.883a4.145,4.145,0,0,1-.216-4.362.875.875,0,0,1,.411-.442,2.53,2.53,0,0,1-.195,4.8" transform="translate(-14.786 -12.966)" fill="#fed101"/>
        <path id="Trazado_141584" data-name="Trazado 141584" d="M96.377,32.137a2.173,2.173,0,0,1,2.182-2.206,2.2,2.2,0,0,1,2.24,2.161,2.211,2.211,0,1,1-4.422.046" transform="translate(-20.13 -6.252)" fill="#fdc807"/>
      </g>
    </g>
  </g>
</svg>
