<svg xmlns="http://www.w3.org/2000/svg" width="186.903" height="385.849" viewBox="0 0 186.903 385.849">
  <g id="Grupo_157495" data-name="Grupo 157495" transform="translate(-2)">
    <g id="Grupo_157493" data-name="Grupo 157493" transform="translate(2 0)">
      <path id="Trazado_114544" data-name="Trazado 114544" d="M156.149,397.4c24.96-11.323,50.845-26.6,60.9-52.153,11.156-28.357-.521-60.114-.241-90.6.223-24.147,8.027-47.467,14.167-70.817s10.65-48.16,4.315-71.458c-4.241-15.6-13.249-29.708-24.879-40.905-20.479-19.718-49.985-30.388-78.02-25.878s-53.5,25.057-61.7,52.314c-11.612,38.617,11.071,79.839,6.25,119.882-1.886,15.668-7.923,30.485-12.017,45.725a187.793,187.793,0,0,0-6.415,49.748c.153,25.7,6.65,53.128,25.775,70.245C103.573,400.772,132.281,408.226,156.149,397.4Z" transform="translate(-54.727 -44.565)" fill="#ffdfe0"/>
      <g id="Grupo_157496" data-name="Grupo 157496" transform="translate(0 23.052)">
        <g id="Grupo_83653" data-name="Grupo 83653" transform="translate(56.724 33.057)">
          <path id="Trazado_117567" data-name="Trazado 117567" d="M474.34,109.848S455.971,123.7,454.6,140.529c-2.069,25.465,26.9,14.324,30.081-1.91S474.34,109.848,474.34,109.848Z" transform="translate(-454.498 -109.848)"/>
        </g>
        <g id="Grupo_83654" data-name="Grupo 83654" transform="translate(141.457 155.684)">
          <path id="Trazado_117568" data-name="Trazado 117568" d="M509.413,179.328l9.639,30.134-14.441,1.7-5.749-25.253Z" transform="translate(-498.862 -179.328)" fill="#684c41"/>
        </g>
        <g id="Grupo_83662" data-name="Grupo 83662" transform="translate(17.254 136.054)">
          <path id="Trazado_117576" data-name="Trazado 117576" d="M462.953,188.635s-16.46,48.895-23.49,90.282,1.9,94.792,14.219,103.63,81.9,42.414,113.982-9.231,10.807-161.558-6.286-189.944C548,161.155,462.953,188.635,462.953,188.635Z" transform="translate(-436.984 -174.699)" fill="#ffbf69"/>
        </g>
        <g id="Grupo_83663" data-name="Grupo 83663" transform="translate(20.224 56.684)">
          <path id="Trazado_117577" data-name="Trazado 117577" d="M458.069,227.4v12.791s32.415,7.428,59.018,5.518,36.548-6.58,36.548-6.58l11.307-64.937-33.989-47.832-27.8-2.25-67.772,49.127,16.551,44.883Z" transform="translate(-435.387 -124.106)" fill="#7772d3"/>
        </g>
        <g id="Grupo_83664" data-name="Grupo 83664" transform="translate(69.854)">
          <path id="Trazado_117578" data-name="Trazado 117578" d="M466.437,127.4a23.408,23.408,0,0,1-4.719-18.675c1.295-7.7,4.719-10.187,4.719-10.187s-5.216-10.5,10.312-9.867,24.665,8.26,24.665,8.26,7.1-3.486,10.281,4.79,0,20.486,0,20.486Z" transform="translate(-461.372 -88.647)"/>
        </g>
        <g id="Grupo_83665" data-name="Grupo 83665" transform="translate(64.45 83.396)">
          <path id="Trazado_117579" data-name="Trazado 117579" d="M458.543,197.233l12.578-58.571h43.731l-9.857,62.03Z" transform="translate(-458.543 -138.662)" fill="#ada095"/>
        </g>
        <g id="Grupo_83666" data-name="Grupo 83666" transform="translate(62.841 81.865)">
          <path id="Trazado_117580" data-name="Trazado 117580" d="M505.734,262.176c-6.188,3.858-13.541,0-13.541,0a230.941,230.941,0,0,1-28.21-64.211c-.153-.573-.286-1.146-.42-1.719a160.55,160.55,0,0,1-4.087-22.9c-.076-.516-.115-1.012-.172-1.528-.859-9.263-1.375-16.979-1.6-23.4h7.124l2.1-9.76h5.1c.191,3.056.439,6.322.783,9.76.63,6.36,1.547,13.293,2.865,20.532a198.189,198.189,0,0,0,8.022,30.463q.573,1.662,1.2,3.323c16.139,42.457,24.046,47.538,24.046,47.538S512.515,257.917,505.734,262.176Z" transform="translate(-457.7 -138.662)" fill="#7c6053"/>
        </g>
        <g id="Grupo_83667" data-name="Grupo 83667" transform="translate(59.479 83.396)">
          <path id="Trazado_117581" data-name="Trazado 117581" d="M512.245,138.662,502.389,200.7l-17.094-1.28-19.71-1.452-9.645-.726.63-2.9,4.507-20.99,5.348-24.924,2.1-9.76Z" transform="translate(-455.94 -138.662)" fill="#c3b8ae"/>
        </g>
        <g id="Grupo_83668" data-name="Grupo 83668" transform="translate(42.492 92.651)">
          <path id="Trazado_117582" data-name="Trazado 117582" d="M447.046,184.518l11.037-40.745H495.5l-10.577,49.136Z" transform="translate(-447.046 -143.773)" fill="#f4eab3"/>
        </g>
        <g id="Grupo_83669" data-name="Grupo 83669" transform="translate(36.77 92.651)">
          <path id="Trazado_117583" data-name="Trazado 117583" d="M492.5,143.772,488.093,164.3l-6.15,28.611-5.959-1.318-8.595-1.91L444.05,184.51l11.039-40.739Z" transform="translate(-444.05 -143.772)" fill="#fefce5"/>
        </g>
        <g id="Grupo_83670" data-name="Grupo 83670" transform="translate(36.14 123.625)">
          <path id="Trazado_117584" data-name="Trazado 117584" d="M451.577,162.687s14.036-1.453,17.006-1.453,6.969,6.971,6.969,6.971l8.9,2.571L474.278,199.4s-21.172,2.752-29.923-7.428C441.072,188.152,451.577,162.687,451.577,162.687Z" transform="translate(-443.72 -161.234)" fill="#f27e64"/>
        </g>
        <g id="Grupo_83671" data-name="Grupo 83671" transform="translate(0 58.147)">
          <path id="Trazado_117585" data-name="Trazado 117585" d="M512.793,124.773s-26.6.636-53.554,23.131-38.622,44.776-33.1,64.3,40.108,20.371,40.108,20.371l10.186-40.32-26.632-17.4Z" transform="translate(-424.798 -124.773)" fill="#7772d3"/>
        </g>
        <g id="Grupo_83672" data-name="Grupo 83672" transform="translate(47.812 125.401)">
          <path id="Trazado_117586" data-name="Trazado 117586" d="M504.37,168.552s-8.277-4.421-12.309-5.476a23.209,23.209,0,0,0-6.7-.81l-1.278,5.94s-13.247,2.892-22.585,7.559-7.64,8.914-7.64,8.914-5.942,3.82-3.4,6.366,12.309,0,12.309,0-12.309,4.67-7.216,7.428,16.313,1.91,16.313,1.91,24.432,4.246,32.5-4.244S504.37,168.552,504.37,168.552Z" transform="translate(-449.832 -162.253)" fill="#ff9280"/>
        </g>
        <g id="Grupo_83676" data-name="Grupo 83676" transform="translate(83.078 43.529)">
          <g id="Grupo_83675" data-name="Grupo 83675">
            <g id="Grupo_83674" data-name="Grupo 83674">
              <g id="Grupo_83673" data-name="Grupo 83673">
                <path id="Trazado_117587" data-name="Trazado 117587" d="M494.225,115.64l-.476,18.954s-3.554,5.363-14.666,5.988c-8.278.464-10.787-3.845-10.787-3.845l2.418-16.536,20.134-3.9Z" transform="translate(-468.296 -115.64)" fill="#f27e64"/>
              </g>
            </g>
          </g>
        </g>
        <g id="Grupo_83677" data-name="Grupo 83677" transform="translate(90.041 57.913)">
          <path id="Trazado_117588" data-name="Trazado 117588" d="M489.343,124.773s46.05,1.7,69.181,38.834,4.882,70.667-31.407,77.459-55.176-3.184-55.176-3.184l8.646-42.23,18.612-2.758,18.2-22.178Z" transform="translate(-471.942 -124.773)" fill="#7772d3"/>
        </g>
        <g id="Grupo_83678" data-name="Grupo 83678" transform="translate(62.655 61.039)">
          <path id="Trazado_117589" data-name="Trazado 117589" d="M472.113,150.5h-5.1l-2.1,9.76h-7.124c-1.032-27.159,2.578-31.189,2.578-31.189l11.46-3.419A220.6,220.6,0,0,0,472.113,150.5Z" transform="translate(-457.603 -125.652)" fill="#7f6754"/>
        </g>
        <g id="Grupo_83682" data-name="Grupo 83682" transform="translate(84.125 50.396)">
          <g id="Grupo_83681" data-name="Grupo 83681">
            <g id="Grupo_83680" data-name="Grupo 83680">
              <g id="Grupo_83679" data-name="Grupo 83679">
                <path id="Trazado_117590" data-name="Trazado 117590" d="M493.727,115.034a6.263,6.263,0,0,1-.6,1.816c-4.479,9.36-19.5,12.926-24.286,13.234l1.371-9.332Z" transform="translate(-468.844 -115.034)"/>
              </g>
            </g>
          </g>
        </g>
        <g id="Grupo_83686" data-name="Grupo 83686" transform="translate(74.652 6.042)">
          <g id="Grupo_83685" data-name="Grupo 83685">
            <g id="Grupo_83684" data-name="Grupo 83684">
              <g id="Grupo_83683" data-name="Grupo 83683">
                <path id="Trazado_117591" data-name="Trazado 117591" d="M471.584,98.57s-10.543,23.517-6.954,36.819,15.7,11.33,22.955,8.835a23.947,23.947,0,0,0,10.657-6.9,10.2,10.2,0,0,0,11.313-3.883c4.578-6.24,1.866-13.48-1.977-15.17s-8.455,1.05-8.455,1.05l3.662-6.828S487.992,77.474,471.584,98.57Z" transform="translate(-463.885 -91.811)" fill="#f27e64"/>
              </g>
            </g>
          </g>
        </g>
        <g id="Grupo_83690" data-name="Grupo 83690" transform="translate(78.864 2.602)">
          <g id="Grupo_83689" data-name="Grupo 83689">
            <g id="Grupo_83688" data-name="Grupo 83688">
              <g id="Grupo_83687" data-name="Grupo 83687">
                <path id="Trazado_117592" data-name="Trazado 117592" d="M497.117,120.962s-10.155,2.049-17.21-9.252S473.5,95.769,473.5,95.769l-7.03,11.668s-1.57-8.09,1.665-13.247,6.593-4.087,6.593-4.087L497.121,95.7l5.9,17.948Z" transform="translate(-466.09 -90.01)"/>
              </g>
            </g>
          </g>
        </g>
        <g id="Grupo_83691" data-name="Grupo 83691" transform="translate(82.086 31.608)">
          <path id="Trazado_117593" data-name="Trazado 117593" d="M468.849,116.37a.719.719,0,0,1-.686-.506c-1.541-5.036,2.021-10.149,2.174-10.365a.716.716,0,1,1,1.169.829c-.033.048-3.306,4.759-1.973,9.118a.714.714,0,0,1-.684.924Z" transform="translate(-467.777 -105.197)"/>
        </g>
        <g id="Grupo_83692" data-name="Grupo 83692" transform="translate(110.148 36.386)">
          <path id="Trazado_117594" data-name="Trazado 117594" d="M483.187,115.91a.717.717,0,0,1-.522-1.209l6.434-6.78a.717.717,0,0,1,1.041.987l-6.435,6.778A.713.713,0,0,1,483.187,115.91Z" transform="translate(-482.469 -107.699)"/>
        </g>
        <g id="Grupo_83693" data-name="Grupo 83693" transform="translate(112.51 40.674)">
          <path id="Trazado_117595" data-name="Trazado 117595" d="M488.856,112.065a.72.72,0,0,1-.109-.01l-4.437-.686a.713.713,0,0,1-.6-.816.7.7,0,0,1,.817-.6l4.435.686a.717.717,0,0,1-.111,1.425Z" transform="translate(-483.706 -109.945)"/>
        </g>
        <g id="Grupo_83694" data-name="Grupo 83694" transform="translate(87.28 42.462)">
          <path id="Trazado_117596" data-name="Trazado 117596" d="M475.157,118.1a13.114,13.114,0,0,1-4.2-.858.715.715,0,0,1-.183-1.232l6.343-4.979a.716.716,0,0,1,1.077.235c.076.147,1.839,3.629-.1,5.787A3.823,3.823,0,0,1,475.157,118.1Zm-2.433-1.8c1.465.378,3.512.668,4.3-.2.838-.934.537-2.426.227-3.35Z" transform="translate(-470.496 -110.881)"/>
        </g>
        <g id="Grupo_83695" data-name="Grupo 83695" transform="translate(77.895 21.282)">
          <path id="Trazado_117597" data-name="Trazado 117597" d="M466.3,101.95a.717.717,0,0,1-.122-1.423l4.194-.73a.717.717,0,0,1,.247,1.413l-4.2.73A.906.906,0,0,1,466.3,101.95Z" transform="translate(-465.582 -99.79)"/>
        </g>
        <g id="Grupo_83696" data-name="Grupo 83696" transform="translate(88.449 21.282)">
          <path id="Trazado_117598" data-name="Trazado 117598" d="M478.7,104.7a.707.707,0,0,1-.325-.078l-6.878-3.484a.716.716,0,1,1,.649-1.276l6.878,3.482a.717.717,0,0,1-.325,1.356Z" transform="translate(-471.108 -99.789)"/>
        </g>
        <g id="Grupo_83697" data-name="Grupo 83697" transform="translate(105.65 33.006)">
          <path id="Trazado_117599" data-name="Trazado 117599" d="M497.185,109.848s14.645,12.7,12.577,33.385-22.587,18.035-26.9,10.485c-6.528-11.44.609-32.8.609-32.8S496.056,123.021,497.185,109.848Z" transform="translate(-480.114 -109.848)"/>
        </g>
        <g id="Grupo_83698" data-name="Grupo 83698" transform="translate(77.894 25.837)">
          <path id="Trazado_117600" data-name="Trazado 117600" d="M466.3,109.474a.737.737,0,0,1-.21-.033.715.715,0,0,1-.474-.894l1.2-3.9-1.068-1.3a.715.715,0,1,1,1.108-.905l1.31,1.6a.71.71,0,0,1,.13.663l-1.31,4.263A.715.715,0,0,1,466.3,109.474Z" transform="translate(-465.582 -102.176)"/>
        </g>
        <g id="Grupo_83699" data-name="Grupo 83699" transform="translate(89.325 26.472)">
          <path id="Trazado_117601" data-name="Trazado 117601" d="M472.782,110.315a.735.735,0,0,1-.21-.031.717.717,0,0,1-.474-.9l1.194-3.887-1.553-1.812a.716.716,0,1,1,1.089-.93l1.809,2.112a.714.714,0,0,1,.14.674l-1.31,4.263A.714.714,0,0,1,472.782,110.315Z" transform="translate(-471.567 -102.509)"/>
        </g>
        <g id="Grupo_83700" data-name="Grupo 83700" transform="translate(53.886 127.891)">
          <path id="Trazado_117602" data-name="Trazado 117602" d="M467.1,167.155a.666.666,0,0,1-.135-.013L453.593,164.6a.714.714,0,0,1-.567-.838.706.706,0,0,1,.837-.567l13.369,2.546a.716.716,0,0,1-.134,1.419Z" transform="translate(-453.012 -163.175)"/>
        </g>
        <g id="Grupo_83701" data-name="Grupo 83701" transform="translate(81.351 129.08)">
          <path id="Trazado_117603" data-name="Trazado 117603" d="M468.108,167.476a.716.716,0,0,1-.2-1.4l7.445-2.2a.716.716,0,0,1,.405,1.373l-7.443,2.2A.735.735,0,0,1,468.108,167.476Z" transform="translate(-467.392 -163.843)"/>
        </g>
        <g id="Grupo_83702" data-name="Grupo 83702" transform="translate(51.69 140.595)">
          <path id="Trazado_117604" data-name="Trazado 117604" d="M452.578,177.31a.717.717,0,0,1-.2-1.406l18.96-5.478a.716.716,0,0,1,.4,1.375l-18.96,5.48A.739.739,0,0,1,452.578,177.31Z" transform="translate(-451.862 -170.398)"/>
        </g>
        <g id="Grupo_83703" data-name="Grupo 83703" transform="translate(58.766 149.293)">
          <path id="Trazado_117605" data-name="Trazado 117605" d="M456.283,180.2a.716.716,0,0,1-.2-1.4l11.884-3.478a.715.715,0,1,1,.4,1.373l-11.881,3.48A.676.676,0,0,1,456.283,180.2Z" transform="translate(-455.567 -175.287)"/>
        </g>
        <g id="Grupo_83704" data-name="Grupo 83704" transform="translate(82.364 62.662)">
          <path id="Trazado_117606" data-name="Trazado 117606" d="M479.6,131.5a17.71,17.71,0,0,1-11.452-3.957.717.717,0,0,1,.986-1.041c.338.321,8.49,7.754,21.727.325a.716.716,0,0,1,.7,1.249A24.311,24.311,0,0,1,479.6,131.5Z" transform="translate(-467.922 -126.312)" fill="#fff"/>
        </g>
        <g id="Grupo_83705" data-name="Grupo 83705" transform="translate(116.583 117.718)">
          <path id="Trazado_117607" data-name="Trazado 117607" d="M486.555,163.873a.716.716,0,0,1-.139-1.419c.252-.052,25.4-5,39.942-5a.716.716,0,0,1,0,1.432c-14.4,0-39.413,4.922-39.663,4.972A.728.728,0,0,1,486.555,163.873Z" transform="translate(-485.839 -157.454)" fill="#fff"/>
        </g>
        <g id="Grupo_83706" data-name="Grupo 83706" transform="translate(137.756 108.748)">
          <path id="Trazado_117608" data-name="Trazado 117608" d="M497.642,164.959a.714.714,0,0,1-.565-1.155c1.1-1.41,10.867-13.694,16.028-10.95a1.791,1.791,0,0,1,1.115,1.713c-.166,3.421-12.521,8.778-16.307,10.338A.708.708,0,0,1,497.642,164.959ZM511.4,153.879c-2.907,0-7.777,4.462-11.326,8.539,6.478-2.892,12.642-6.415,12.714-7.922,0-.044.01-.182-.359-.378A2.157,2.157,0,0,0,511.4,153.879Z" transform="translate(-496.924 -152.455)" fill="#fff"/>
        </g>
        <g id="Grupo_83707" data-name="Grupo 83707" transform="translate(24.282 105.512)">
          <path id="Trazado_117609" data-name="Trazado 117609" d="M454.717,162.826a.712.712,0,0,1-.516-.22c-.084-.086-8.48-8.736-16.141-10.573a.717.717,0,0,1,.336-1.394c8.067,1.939,16.483,10.608,16.838,10.974a.714.714,0,0,1-.021,1.012A.7.7,0,0,1,454.717,162.826Z" transform="translate(-437.512 -150.62)" fill="#fff"/>
        </g>
        <g id="Grupo_83708" data-name="Grupo 83708" transform="translate(27.439 99.723)">
          <path id="Trazado_117610" data-name="Trazado 117610" d="M444.968,158.541a.717.717,0,0,1-.5-.208c-.561-.556-5.47-5.52-5.294-8.707a2.447,2.447,0,0,1,.928-1.845,1.729,1.729,0,0,1,1.786-.325c2.374.957,3.5,8.106,3.795,10.273a.716.716,0,0,1-.711.812Zm-3.7-9.775a.475.475,0,0,0-.281.136,1.025,1.025,0,0,0-.389.8c-.086,1.545,1.727,4.062,3.277,5.879-.636-3.323-1.639-6.438-2.529-6.8A.2.2,0,0,0,441.27,148.766Z" transform="translate(-439.165 -147.333)" fill="#fff"/>
        </g>
        <g id="Grupo_83711" data-name="Grupo 83711" transform="translate(95.672 190.329)">
          <path id="Trazado_117613" data-name="Trazado 117613" d="M476.551,206.723s-3.155,48.8-.768,51.348,14.3,3.4,14.3,3.4l6.8-25.041L482.416,199.6Z" transform="translate(-474.89 -199.605)" fill="#684c41"/>
        </g>
        <g id="Grupo_83713" data-name="Grupo 83713" transform="translate(97.327 173.749)">
          <path id="Trazado_117615" data-name="Trazado 117615" d="M475.757,208.478s4.173,34.166,6.3,34.166S555.9,229.487,557.6,227.789s-4.244-36.924-7.216-37.774-70.031,11.46-70.031,11.46Z" transform="translate(-475.757 -189.973)" fill="#7c6053"/>
        </g>
        <g id="Grupo_83714" data-name="Grupo 83714" transform="translate(103.198 205.68)">
          <path id="Trazado_117616" data-name="Trazado 117616" d="M550.134,207.995s6.541,29.711,4.97,30.983S489.5,253.833,486.5,253.833s-7.667-36.924-7.667-36.924Z" transform="translate(-478.831 -207.995)" fill="#7c6053"/>
        </g>
        <g id="Grupo_83715" data-name="Grupo 83715" transform="translate(120.041 210.557)">
          <path id="Trazado_117617" data-name="Trazado 117617" d="M488.365,222.157a.717.717,0,0,1-.141-1.419l52.9-10.657a.7.7,0,0,1,.844.56.715.715,0,0,1-.56.844l-52.9,10.657A.621.621,0,0,1,488.365,222.157Z" transform="translate(-487.649 -210.062)" fill="#fff"/>
        </g>
        <g id="Grupo_83716" data-name="Grupo 83716" transform="translate(101.573 188.533)">
          <path id="Trazado_117618" data-name="Trazado 117618" d="M482.056,205.677a4.074,4.074,0,1,1,4.074-4.074A4.079,4.079,0,0,1,482.056,205.677Zm0-6.715A2.641,2.641,0,1,0,484.7,201.6,2.646,2.646,0,0,0,482.056,198.961Z" transform="translate(-477.98 -197.529)" fill="#fff"/>
        </g>
      </g>
    </g>
  </g>
</svg>
