<svg xmlns="http://www.w3.org/2000/svg" xmlns:xlink="http://www.w3.org/1999/xlink" width="105" height="105" viewBox="0 0 105 105">
  <defs>
    <clipPath id="clip-path">
      <rect id="Rect치ngulo_37617" data-name="Rect치ngulo 37617" width="77.349" height="62.001" fill="none"/>
    </clipPath>
  </defs>
  <g id="Grupo_159162" data-name="Grupo 159162" transform="translate(-3921 11178)">
    <rect id="Rect치ngulo_37502" data-name="Rect치ngulo 37502" width="105" height="105" rx="52.5" transform="translate(3921 -11178)" fill="#6b8dfc"/>
    <g id="Grupo_159160" data-name="Grupo 159160" transform="translate(3935 -11156)">
      <g id="Grupo_159159" data-name="Grupo 159159" transform="translate(0 0)" clip-path="url(#clip-path)">
        <path id="Trazado_136803" data-name="Trazado 136803" d="M77.349,16.8a3,3,0,0,1-3.443,2.078c.923,2.892.432,5.8.542,8.675a2.054,2.054,0,0,0,.426,1.289,3.644,3.644,0,0,1-1.084,5.019.54.54,0,0,0-.327.588c0,.554.019,1.109-.015,1.66a2.563,2.563,0,0,1-2.5,2.442q-3.549.046-7.1,0a2.612,2.612,0,0,1-2.5-2.465c-.025-.351-.009-.7-.009-1.057,0-1,0-1-.966-1-1.046,0-1.046,0-1.046,1.065,0,.63,0,1.259,0,1.888a2.882,2.882,0,0,1-3.186,3.172,1.072,1.072,0,0,0-.681.089c1.056,2.9.488,5.917.617,8.888a4.169,4.169,0,0,0,.638,2.51A3.743,3.743,0,0,1,55.3,56.827a.471.471,0,0,0-.289.529c0,.6.011,1.208,0,1.812a2.757,2.757,0,0,1-2.75,2.809q-3.851.046-7.7,0a2.742,2.742,0,0,1-2.727-2.753c-.019-.579-.026-1.159,0-1.737.017-.376-.069-.535-.49-.528-1.586.023-3.172.008-4.758.01-.125,0-.282-.024-.37.039-.963.691-2.068.517-3.138.521-2.92.011-5.84,0-8.761,0a3.109,3.109,0,0,1-1.946-.455.89.89,0,0,0-.579-.11c-1.535,0-3.071.02-4.606-.014-.479-.011-.608.128-.574.588a15.038,15.038,0,0,1,0,1.66,2.788,2.788,0,0,1-2.8,2.776q-3.814.041-7.628,0a2.73,2.73,0,0,1-2.759-2.563,19.275,19.275,0,0,1-.032-1.961c0-.321-.03-.521-.415-.668a2.4,2.4,0,0,1-1.65-2.446c.008-1.219-.212-2.494.9-3.434.177-.149.072-.432.077-.653.056-2.566-.11-5.134.1-7.7a7.234,7.234,0,0,1,.47-1.972c.116-.309.057-.4-.287-.467A2.8,2.8,0,0,1,.006,36.983c0-.881-.015-1.762,0-2.643a2.768,2.768,0,0,1,2.718-2.768,19.451,19.451,0,0,1,2.038,0c.5.032.622-.171.689-.632a17.233,17.233,0,0,1,2.823-7.469,8.46,8.46,0,0,1,7.555-4.026c3.2.087,6.394.019,9.591.019.176,0,.353,0,.528-.007.235-.015.248-.233.294-.383.075-.244-.157-.189-.279-.226-1.773-.552-2.3-1.267-2.309-3.11,0-.73-.02-1.461.007-2.191a2.614,2.614,0,0,1,2.7-2.647c.678-.013,1.517.218,1.99-.1s.325-1.242.489-1.892a13.931,13.931,0,0,1,3.63-6.828A6.886,6.886,0,0,1,37.415,0q12.613,0,25.225,0a7.165,7.165,0,0,1,5.191,2.221c.773.76.8,1.142.161,2.01-.39.523-.867.4-1.347.168a3.788,3.788,0,0,1-.769-.605,5.061,5.061,0,0,0-3.451-1.276q-12.083.029-24.164.007c-2.407-.294-4.045.912-5.271,2.8a13.5,13.5,0,0,0-2.114,8.036c.006.177-.065.486.266.406.4-.1.882-.159.961-.7.065-.449.005-.9.03-1.356A11.393,11.393,0,0,1,34.2,5.5a4.757,4.757,0,0,1,2.582-1.855,2.19,2.19,0,0,1,.538-.054q12.806,0,25.609,0a3.843,3.843,0,0,1,2.744,1.541,10.548,10.548,0,0,1,2.362,6.7c0,.327-.012.654.007.98a1.074,1.074,0,0,0,1.106.985c.43-.056.284-.417.261-.654a22.77,22.77,0,0,0-.721-4.609,1.375,1.375,0,0,1,.12-1.3c.163-.223.33-.455.661-.417,1.037-.065,1.29.1,1.59,1.068a12.462,12.462,0,0,1,.546,2.492c.041.419.2.556.613.532.551-.032,1.109.036,1.656-.016a3.1,3.1,0,0,1,3.473,1.978Z" transform="translate(0 0)" fill="#050402"/>
        <path id="Trazado_136804" data-name="Trazado 136804" d="M56,3.4c1.359-.009,2.717-.027,4.075-.027,6.72,0,13.44.018,20.159-.016A5.243,5.243,0,0,1,84.221,4.99a1.339,1.339,0,0,0,1.7.343A11.681,11.681,0,0,1,87.4,7.917a1.361,1.361,0,0,0-.565,1.82,18.3,18.3,0,0,1,.7,5.558c-.536-.176-1.005-.333-1.477-.486-.417-.135-.29-.488-.28-.763a11.674,11.674,0,0,0-1.1-5.787c-.788-1.553-1.736-2.968-3.607-3.38a1.484,1.484,0,0,0-.6-.05q-12.383,0-24.767,0a1.817,1.817,0,0,0-.6.04l-.463.044c.151-.775.794-1.107,1.358-1.512" transform="translate(-17.925 -1.102)" fill="#00b965"/>
        <path id="Trazado_136805" data-name="Trazado 136805" d="M23.617,37.317c3.13-.015,6.26-.037,9.389-.038.8,0,1.375-.237,1.535-1.1a3.581,3.581,0,0,1,2.961-.005c.213.861.8,1.11,1.635,1.1,3.4-.022,6.8.037,10.192-.034a2.913,2.913,0,0,1,2.658,1.386,10.628,10.628,0,0,1,1.834,5.885c.043,1.575.035,1.575-1.529,1.575q-15.214,0-30.428,0c-.276,0-.552-.018-.828-.028-.3-.342-.209-.759-.2-1.15a12.312,12.312,0,0,1,1.76-6.43,2.922,2.922,0,0,1,1.026-1.169" transform="translate(-6.829 -11.765)" fill="#60b7fd"/>
        <path id="Trazado_136806" data-name="Trazado 136806" d="M16.988,54.481c2.3-.125,2.3-.126,3.471,1.783.71,1.157,1.409,2.321,2.129,3.471A5.427,5.427,0,0,0,27.4,62.477q5.926.025,11.854,0a5.478,5.478,0,0,0,4.929-2.814c.943-1.544,1.916-3.071,2.825-4.636a1.021,1.021,0,0,1,1.078-.585,36.661,36.661,0,0,1,3.917.12,7.021,7.021,0,0,1,5.943,6.712c.055,2.138.009,4.278.03,6.418,0,.394-.116.513-.512.513q-8.343-.017-16.686-.009c-.125,0-.281.03-.371-.03-1.165-.778-2.479-.517-3.744-.529-2.768-.026-5.537-.007-8.305-.009a3.111,3.111,0,0,0-1.8.431.842.842,0,0,1-.5.139l-13.135-.029a3.958,3.958,0,0,1-.137-2.412c.265-.433.636-.21.94-.105a4.258,4.258,0,1,0,1.7-8.292,2.962,2.962,0,0,1-1.263-.127c-.253-.278-.052-.513.091-.731a7.914,7.914,0,0,1,1.672-1.776c.327-.266.712-.156,1.062-.249" transform="translate(-4.156 -17.858)" fill="#fe656f"/>
        <path id="Trazado_136807" data-name="Trazado 136807" d="M57.841,9.021c.251-.011.5-.033.752-.033,7.274,0,14.549.009,21.823-.018a2.019,2.019,0,0,1,1.789.886,8.838,8.838,0,0,1,1.562,6.428,1.9,1.9,0,0,1-.747.052q-13.179.005-26.359,0c-.929,0-1-.058-1.021-.955a10.355,10.355,0,0,1,1.349-5.428,2.04,2.04,0,0,1,.852-.933" transform="translate(-18.252 -2.943)" fill="#60b7fd"/>
        <path id="Trazado_136808" data-name="Trazado 136808" d="M75.894,33.8c1.649,0,3.107.006,4.565,0a1.138,1.138,0,0,0,1.166-.782,1.064,1.064,0,0,0-.346-1.222,1.349,1.349,0,0,0-1-.258c-1.586,0-3.174-.043-4.757.02-.717.029-1.046-.287-1.339-.963,1.223,0,2.369.005,3.515,0,.8-.005,1.611-.007,2.414-.05a5.029,5.029,0,0,0,4.18-2.588c.832-1.348,1.668-2.694,2.472-4.058a.924.924,0,0,1,.951-.55,21.953,21.953,0,0,1,3.985.183,6.228,6.228,0,0,1,4.8,5.791c.077,1.885.013,3.776.034,5.664,0,.4-.128.517-.518.515q-7.439-.015-14.879-.006c-1.425-.649-2.944-.419-4.434-.507-.615-.036-.4-.757-.814-1.184" transform="translate(-24.338 -7.658)" fill="#43ca8d"/>
        <path id="Trazado_136809" data-name="Trazado 136809" d="M31.894,54.49q6-.014,12-.027c2.315,0,4.63,0,6.995,0a3.467,3.467,0,0,1-.627,1.2c-.589,1-1.2,1.979-1.81,2.959a2.969,2.969,0,0,1-2.516,1.572c-3.522.033-7.045,0-10.568,0a1.926,1.926,0,0,1-.831-.839c-.785-1.311-1.587-2.612-2.394-3.91-.174-.28-.461-.559-.253-.953" transform="translate(-10.439 -17.867)" fill="#fe4756"/>
        <path id="Trazado_136810" data-name="Trazado 136810" d="M37.388,35.017l-2.961.006c-.207-.942-.468-1.168-1.431-1.17-3.659-.005-7.317,0-10.976,0a5.372,5.372,0,0,0-1.549.253c.1-.816.763-1.146,1.333-1.554.1-.069.237-.076.327-.17.276-.013.552-.036.828-.036,8.833,0,17.667.024,26.5-.02a5.989,5.989,0,0,1,5.132,2.508A16.847,16.847,0,0,1,57.65,45.5c0,.112.039.253-.117.319-.381.163-1.562-.675-1.547-1.119a14.719,14.719,0,0,0-1.22-6.689,10.061,10.061,0,0,0-1.32-2.19,4.843,4.843,0,0,0-4.094-1.989c-3.471.075-6.946.02-10.418.024-1.054,0-1.234.144-1.546,1.165" transform="translate(-6.716 -10.603)" fill="#fe4756"/>
        <path id="Trazado_136811" data-name="Trazado 136811" d="M64.033,23.361q7.7-.014,15.4-.021c.489,0,1.2-.244,1.413.124s-.388.846-.626,1.276c-.353.637-.775,1.236-1.13,1.872a3.111,3.111,0,0,1-2.9,1.693c-2.492.006-4.984.025-7.475-.009-.9-.012-1.585-.711-2.426-.952a20.109,20.109,0,0,1-2.3-3.566.334.334,0,0,1,.042-.417" transform="translate(-20.976 -7.631)" fill="#00b966"/>
        <path id="Trazado_136812" data-name="Trazado 136812" d="M10.991,65.61q0,1.287-.005,2.574c-1.232.009-2.465.012-3.7.032-.327,0-.514-.056-.5-.45.056-2.338-.147-4.686.1-7.016a7.061,7.061,0,0,1,6.887-6.279c.427-.01.854.013,1.281.02a4.838,4.838,0,0,0-2.856,2.665c-.081.3-.362.31-.587.4A4.266,4.266,0,0,0,8.819,61.19a4.078,4.078,0,0,0,1.722,3.868c.192.143.456.242.451.552" transform="translate(-2.217 -17.869)" fill="#fe4756"/>
        <path id="Trazado_136813" data-name="Trazado 136813" d="M64.066,78.287c2.694,0,5.388.022,8.081-.015.663-.009.877.167.847.843-.063,1.438.159,1.261-1.238,1.263-5.211.005-10.422-.01-15.633.017-.638,0-.867-.108-.832-.8.066-1.3.017-1.3,1.3-1.3h7.477" transform="translate(-18.138 -25.678)" fill="#deeaf8"/>
        <path id="Trazado_136814" data-name="Trazado 136814" d="M56.471,9a10.623,10.623,0,0,0-1.9,4.844c0,.025-.021.048-.022.072-.046.745-.308,1.611.1,2.193.295.417,1.134.129,1.728.13q13.007.023,26.014.024c-.223.18-.484.085-.725.085q-14.69.006-29.381.016c-.665,0-.831-.157-.83-.825a10.17,10.17,0,0,1,1.1-4.874c.607-1.141,1.388-1.982,2.855-1.706A6.935,6.935,0,0,0,56.471,9" transform="translate(-16.883 -2.921)" fill="#23a7fd"/>
        <path id="Trazado_136815" data-name="Trazado 136815" d="M93.2,46.443c-2.387,0-4.775-.034-7.16.019-.843.019-.6-.5-.627-.925-.032-.445-.058-.773.62-.769q7.2.052,14.4,0c.779-.006.677.4.693.888.016.5.005.82-.688.806-2.411-.049-4.823-.019-7.235-.019" transform="translate(-28.018 -14.687)" fill="#deeaf8"/>
        <path id="Trazado_136816" data-name="Trazado 136816" d="M22.347,37.979a12.975,12.975,0,0,0-2.2,4.5,16.3,16.3,0,0,0-.386,4.251c-.777.009-1.554.008-2.329.034-.343.011-.488-.083-.492-.459a12.741,12.741,0,0,1,1.337-6.17c.874-1.668,2.108-2.571,4.065-2.154" transform="translate(-5.559 -12.426)" fill="#23a7fd"/>
        <path id="Trazado_136817" data-name="Trazado 136817" d="M19.053,32.394a9.424,9.424,0,0,0-1.66,1.724c-2.5,1.373-3.533,3.737-4.218,6.318a16.842,16.842,0,0,0-.416,4.34c0,.4-1.173,1.208-1.531,1.066-.148-.059-.141-.192-.14-.314.038-4.242.706-8.285,3.841-11.475a4.991,4.991,0,0,1,4.125-1.659" transform="translate(-3.637 -10.62)" fill="#fb2d39"/>
        <path id="Trazado_136818" data-name="Trazado 136818" d="M48.192,77.559a5.869,5.869,0,0,1,0,3.031c-1.448.153-2.9.033-4.35.065-.7.015-1.405-.016-2.107.009-.433.016-.671-.141-.7-.575a12.94,12.94,0,0,1,0-2.029c.027-.323.143-.58.548-.572,2.2.044,4.406-.085,6.607.07" transform="translate(-13.449 -25.418)" fill="#afd9f9"/>
        <path id="Trazado_136819" data-name="Trazado 136819" d="M53.029,3.407,51.671,4.919c-2.286.921-3.239,2.886-3.913,5.047a10.81,10.81,0,0,0-.459,3.948c.039.589-.089.958-.737,1.048a5.7,5.7,0,0,0-.969.339,20.176,20.176,0,0,1,.184-3.611A12.661,12.661,0,0,1,48.469,5.4a5.027,5.027,0,0,1,4.559-1.992" transform="translate(-14.956 -1.107)" fill="#00a86b"/>
        <path id="Trazado_136820" data-name="Trazado 136820" d="M49.91,23.4l2.553-.044c.2,0,.4,0,.521.212A32.008,32.008,0,0,1,55,27.05c-2.482.112-4.966.019-7.449.05-.605.008-.515-.365-.359-.7A5.571,5.571,0,0,1,49.91,23.4" transform="translate(-15.444 -7.663)" fill="#42c98d"/>
        <path id="Trazado_136821" data-name="Trazado 136821" d="M30.172,54.5a43.394,43.394,0,0,0,2.4,4.077c.323.563.718,1.085,1.08,1.625-.626.007-1.252.032-1.877.019a2.834,2.834,0,0,1-2.384-1.23c-.966-1.426-1.836-2.916-2.816-4.491Z" transform="translate(-8.718 -17.881)" fill="#fb2d39"/>
        <path id="Trazado_136822" data-name="Trazado 136822" d="M46.212,77.546c-2.089,0-4.178.022-6.266,0-.528-.006-.722.156-.685.686a11.906,11.906,0,0,1,0,1.66c-.038.533.162.689.687.684,2.089-.022,4.178,0,6.267,0-.217.195-.481.1-.72.1-3.219.005-6.438-.015-9.656.011-.638,0-.933-.139-.866-.833a12.235,12.235,0,0,0,.005-1.734c-.022-.471.121-.681.632-.679,3.42.013,6.84,0,10.26,0,.124,0,.253-.012.343.1" transform="translate(-11.47 -25.406)" fill="#8bc9fe"/>
        <path id="Trazado_136823" data-name="Trazado 136823" d="M14.193,80.377c-2.692,0-5.384-.013-8.075.011-.561,0-.818-.095-.794-.736.061-1.634-.162-1.359,1.359-1.362,5.183-.013,10.365,0,15.547-.026.62,0,.812.148.79.783-.047,1.334-.011,1.336-1.354,1.336H14.193v-.007" transform="translate(-1.746 -25.676)" fill="#b0dafb"/>
        <path id="Trazado_136824" data-name="Trazado 136824" d="M14.495,84.813c1.333-.009,2.667-.009,4-.033.379-.007.554.1.531.511-.028.5,0,1.007-.007,1.51a.652.652,0,0,1-.753.728c-1.207-.011-2.415-.015-3.622-.022a2.77,2.77,0,0,1-.147-2.693" transform="translate(-4.664 -27.813)" fill="#665e68"/>
        <path id="Trazado_136825" data-name="Trazado 136825" d="M71.819,84.808c1.278-.008,2.557,0,3.834-.031.423-.009.567.13.561.557-.032,2.442.269,2.191-2.068,2.193-.777,0-1.554-.014-2.33-.022a3.4,3.4,0,0,1,0-2.7" transform="translate(-23.47 -27.812)" fill="#665e68"/>
        <path id="Trazado_136826" data-name="Trazado 136826" d="M12.577,84.818a11.164,11.164,0,0,0,.147,2.693c-1.183.005-2.365,0-3.547.022-.412.007-.728-.138-.763-.552-.054-.624-.042-1.255-.035-1.883,0-.333.278-.3.5-.3q1.848.007,3.7.022" transform="translate(-2.747 -27.818)" fill="#544e55"/>
        <path id="Trazado_136827" data-name="Trazado 136827" d="M69.866,84.814q0,1.349,0,2.7c-1.156.006-2.313,0-3.47.024-.534.011-.764-.187-.785-.744-.077-2-.091-2,1.919-1.995.779,0,1.559.012,2.338.019" transform="translate(-21.516 -27.818)" fill="#544e55"/>
        <path id="Trazado_136828" data-name="Trazado 136828" d="M48.453,23.42A8.9,8.9,0,0,0,46,26.3c-.341.755-.363.747.482.749q3.53.011,7.059.019c-.165.173-.378.1-.569.1-3.262,0-6.522-.01-9.784,0-.483,0-.742-.038-.4-.585a6.038,6.038,0,0,1,5.66-3.161" transform="translate(-13.987 -7.681)" fill="#00b965"/>
        <path id="Trazado_136829" data-name="Trazado 136829" d="M62.7,23.4a25.162,25.162,0,0,0,1.83,3.207,2.694,2.694,0,0,1,.424.776,10.125,10.125,0,0,0-2.468-.232.684.684,0,0,1-.681-.368c-.6-.99-1.2-1.978-1.81-2.956-.256-.407-.06-.462.295-.456.8.013,1.607.019,2.411.028" transform="translate(-19.644 -7.666)" fill="#00a86b"/>
        <path id="Trazado_136830" data-name="Trazado 136830" d="M98.724,52.872c-1.132.008-2.262.006-3.393.028-.464.009-.677-.146-.7-.646-.071-1.626-.087-1.628,1.531-1.624.854,0,1.709.017,2.563.026a2.526,2.526,0,0,1,0,2.217" transform="translate(-31.037 -16.609)" fill="#544e55"/>
        <path id="Trazado_136831" data-name="Trazado 136831" d="M81.5,50.379c2.637-.118,2.182-.153,2.219,2.042.007.4.005.8,0,1.2,0,.305-.025.61-.408.7a1.873,1.873,0,0,1-.818.062c-1.226.008-1.23,0-1.236-1.264,0-.653-.009-1.307.006-1.96a1.112,1.112,0,0,1,.238-.774" transform="translate(-26.655 -16.513)" fill="#dce8f7"/>
        <path id="Trazado_136832" data-name="Trazado 136832" d="M100.734,52.869q0-1.109,0-2.217c1-.009,2-.009,3-.03.343-.007.526.1.49.468a.7.7,0,0,0,0,.075c-.009,2.068.179,1.7-1.618,1.729-.626.009-1.251-.015-1.877-.025" transform="translate(-33.047 -16.607)" fill="#655d67"/>
        <path id="Trazado_136833" data-name="Trazado 136833" d="M5.465,54.309a3.782,3.782,0,0,1-1.55.062c-.446-.021-.543-.366-.539-.761.009-.83.013-1.661,0-2.491-.009-.538.219-.8.765-.775.3.015.6.025.9.037.286.336.2.746.226,1.135a9.007,9.007,0,0,0,.2,2.792" transform="translate(-1.107 -16.516)" fill="#b0d9fa"/>
        <path id="Trazado_136834" data-name="Trazado 136834" d="M80.81,50.373c0,1.058.034,2.117-.015,3.172-.028.609.179.816.769.753a8.525,8.525,0,0,1,1.056.012,6.089,6.089,0,0,1-2.376.037,1.3,1.3,0,0,1-1.064-1.264c-.032-.7.028-1.405-.021-2.1-.038-.548.17-.71.679-.648.321.039.648.03.972.042" transform="translate(-25.968 -16.508)" fill="#b0d9fa"/>
        <path id="Trazado_136835" data-name="Trazado 136835" d="M40.45,22.769c-.469.542-1.08.3-1.594.189-.478-.1-.263-.634-.28-.984-.029-.577.007-1.156-.011-1.734-.015-.486.189-.691.676-.656.4.029.8.019,1.205.027a4.591,4.591,0,0,1,0,3.157" transform="translate(-12.644 -6.424)" fill="#b0dafa"/>
        <path id="Trazado_136836" data-name="Trazado 136836" d="M109.3,19.618c1.511-.084,1.511-.084,1.511,1.427,0,.45,0,.9,0,1.352,0,.222.038.466-.257.553-1.514.142-1.646.035-1.631-1.483.006-.634-.155-1.317.379-1.849" transform="translate(-35.728 -6.426)" fill="#dce9f8"/>
        <path id="Trazado_136837" data-name="Trazado 136837" d="M108.655,19.614a8.324,8.324,0,0,0-.146,2.225c0,1.044.009,1.051,1.027,1.077.124,0,.249.019.372.03a4.636,4.636,0,0,1-2.072.057,1.069,1.069,0,0,1-.89-1.125c0-.6.025-1.205-.009-1.8-.024-.415.138-.523.517-.491.4.034.8.023,1.2.032" transform="translate(-35.081 -6.423)" fill="#b0dafb"/>
        <path id="Trazado_136838" data-name="Trazado 136838" d="M6.276,54.309c-.459.015-.43-.3-.429-.613.005-1.1,0-2.209,0-3.313,1.252-.1,1.252-.1,1.252,1.12a7,7,0,0,0,.007.972,1.785,1.785,0,0,1-.835,1.834" transform="translate(-1.918 -16.516)" fill="#deeaf9"/>
        <path id="Trazado_136839" data-name="Trazado 136839" d="M55.329,5.544c.243-.2.532-.112.8-.112q12.185-.007,24.368,0c.267,0,.557-.091.8.122L55.329,5.544" transform="translate(-18.151 -1.776)" fill="#00a86b"/>
        <path id="Trazado_136840" data-name="Trazado 136840" d="M79.452,44.1a5.734,5.734,0,0,1,1.513.016,6.094,6.094,0,0,1,.071,1.265c.052.458-.116.6-.587.6-1.273,0-1.619-.626-1-1.885" transform="translate(-25.967 -14.455)" fill="#add6f7"/>
        <path id="Trazado_136841" data-name="Trazado 136841" d="M41.379,22.769q0-1.578,0-3.157c.271-.035.56-.127.55.333-.015.693,0,1.388-.007,2.081,0,.369-.29.547-.54.744" transform="translate(-13.574 -6.424)" fill="#ccd7e5"/>
        <path id="Trazado_136842" data-name="Trazado 136842" d="M79.259,44.1a9.261,9.261,0,0,1-.009,1.05c-.07.6.163.775.755.767.563-.008.851-.124.772-.751a8.159,8.159,0,0,1-.005-1.05c.314.531.067,1.108.128,1.66.021.19-.14.242-.306.242-.477,0-.955-.007-1.432,0-.249,0-.353-.105-.373-.356a3.765,3.765,0,0,0-.146-.89c-.21-.63,0-.829.617-.67" transform="translate(-25.774 -14.45)" fill="#8ac9fd"/>
        <path id="Trazado_136843" data-name="Trazado 136843" d="M11.9,66.905A4.75,4.75,0,0,1,9.6,63.793a4.485,4.485,0,0,1,3-5.171c.166-.055.331-.114.5-.171a4.776,4.776,0,0,1,3.858,1.078A4.48,4.48,0,0,1,12.462,67.1c-.188-.067-.378-.128-.566-.191" transform="translate(-3.122 -19.164)" fill="#050402"/>
        <path id="Trazado_136844" data-name="Trazado 136844" d="M73.04,62.881A4.478,4.478,0,1,1,68.6,58.427a4.422,4.422,0,0,1,4.444,4.454" transform="translate(-21.024 -19.168)" fill="#050402"/>
        <path id="Trazado_136845" data-name="Trazado 136845" d="M39.7,68.332c2.135,0,4.271,0,6.407,0,.892,0,1.411.41,1.428,1.092.017.71-.533,1.169-1.446,1.169q-6.52.007-13.04,0c-1.08,0-1.685-.821-1.256-1.654a1.242,1.242,0,0,1,1.274-.611c2.211.008,4.422,0,6.633,0" transform="translate(-10.383 -22.416)" fill="#060402"/>
        <path id="Trazado_136846" data-name="Trazado 136846" d="M97.1,26.556a4.152,4.152,0,1,1-4.1,4.142,4.1,4.1,0,0,1,4.1-4.142" transform="translate(-30.513 -8.712)" fill="#050402"/>
        <path id="Trazado_136847" data-name="Trazado 136847" d="M18.26,80.309c-1.961,0-3.922-.034-5.881.017-.781.021-.7-.427-.685-.909.013-.45-.165-.948.652-.941,4,.034,7.993.026,11.989,0,.568,0,.657.23.652.716-.011,1.113.009,1.114-1.072,1.114H18.26" transform="translate(-3.833 -25.745)" fill="#dde9f8"/>
        <path id="Trazado_136848" data-name="Trazado 136848" d="M15.7,66.077a2.081,2.081,0,0,1-2.436-.815,2.141,2.141,0,0,1,.058-2.6,2.1,2.1,0,0,1,2.553-.675,7.227,7.227,0,0,0-.577,1.768,3.661,3.661,0,0,0,.239,1.543c.1.245.287.483.164.779" transform="translate(-4.218 -20.28)" fill="#fdc10c"/>
        <path id="Trazado_136849" data-name="Trazado 136849" d="M16.788,66.161a3.525,3.525,0,0,1-.214-3.65.807.807,0,0,1,.388-.44,2.139,2.139,0,0,1-.174,4.09" transform="translate(-5.301 -20.363)" fill="#fed101"/>
        <path id="Trazado_136850" data-name="Trazado 136850" d="M70.323,66.072a2.1,2.1,0,0,1-2.442-.78,2.166,2.166,0,0,1,.055-2.653,2.111,2.111,0,0,1,2.553-.646,8.361,8.361,0,0,0-.563,1.69,3.651,3.651,0,0,0,.232,1.613c.105.243.285.481.165.777" transform="translate(-22.129 -20.279)" fill="#fdc10c"/>
        <path id="Trazado_136851" data-name="Trazado 136851" d="M71.418,66.159a3.52,3.52,0,0,1-.183-3.7.743.743,0,0,1,.349-.376,2.149,2.149,0,0,1-.165,4.08" transform="translate(-23.224 -20.366)" fill="#fed101"/>
        <path id="Trazado_136852" data-name="Trazado 136852" d="M96.377,31.805a1.845,1.845,0,0,1,1.853-1.874,1.867,1.867,0,0,1,1.9,1.835,1.878,1.878,0,1,1-3.755.039" transform="translate(-31.618 -9.819)" fill="#fdc807"/>
      </g>
    </g>
  </g>
</svg>
