<svg xmlns="http://www.w3.org/2000/svg" width="89.024" height="75.083" viewBox="0 0 89.024 75.083">
  <g id="Grupo_157020" data-name="Grupo 157020" transform="translate(-264.037 -370.459) rotate(9)">
    <g id="Grupo_81088" data-name="Grupo 81088" transform="translate(329.307 355.831)">
      <g id="Grupo_81084" data-name="Grupo 81084" transform="translate(1.688 1.688)" style="mix-blend-mode: overlay;isolation: isolate">
        <path id="Trazado_115037" data-name="Trazado 115037" d="M364.845,397.549l-7.473,1.1a2.554,2.554,0,0,0-2.121,1.993l-1.559,7.4a2.545,2.545,0,0,1-4.769.605l-3.359-6.769a2.546,2.546,0,0,0-2.548-1.4l-7.516.8a2.541,2.541,0,0,1-2.05-4.342l5.4-5.3a2.537,2.537,0,0,0,.541-2.854l-3.082-6.9a2.544,2.544,0,0,1,3.5-3.3l6.7,3.5a2.55,2.55,0,0,0,2.883-.37l5.609-5.068a2.545,2.545,0,0,1,4.214,2.313l-1.26,7.452a2.555,2.555,0,0,0,1.238,2.633l6.555,3.765A2.547,2.547,0,0,1,364.845,397.549Z" transform="translate(-331.967 -375.284)" fill="#3c384f"/>
        <path id="Trazado_115038" data-name="Trazado 115038" d="M350.9,410.483a3.213,3.213,0,0,1-2.9-1.81l-3.359-6.769a1.84,1.84,0,0,0-1.834-1l-7.518.8a3.253,3.253,0,0,1-2.623-5.559l5.394-5.294a1.832,1.832,0,0,0,.389-2.056l-3.081-6.9a3.256,3.256,0,0,1,4.48-4.217l6.7,3.5a1.844,1.844,0,0,0,2.076-.268l5.608-5.067a3.257,3.257,0,0,1,5.393,2.959l-1.26,7.453a1.852,1.852,0,0,0,.894,1.9l6.552,3.763a3.259,3.259,0,0,1-1.147,6.047h0l-7.473,1.1a1.847,1.847,0,0,0-1.529,1.436L354.1,407.9a3.218,3.218,0,0,1-2.777,2.557A3.344,3.344,0,0,1,350.9,410.483ZM343,399.467a3.273,3.273,0,0,1,2.915,1.8l3.361,6.771a1.833,1.833,0,0,0,3.434-.436l1.559-7.4a3.28,3.28,0,0,1,2.713-2.55l7.473-1.1a1.835,1.835,0,0,0,.648-3.4l-6.555-3.765a3.283,3.283,0,0,1-1.586-3.37l1.26-7.452a1.834,1.834,0,0,0-3.034-1.667l-5.609,5.068a3.268,3.268,0,0,1-3.69.472l-6.7-3.5a1.832,1.832,0,0,0-2.522,2.374l3.082,6.9a3.261,3.261,0,0,1-.695,3.654l-5.393,5.293a1.83,1.83,0,0,0,1.476,3.127l7.516-.8A3.275,3.275,0,0,1,343,399.467Z" transform="translate(-331.679 -374.996)" fill="#3c384f"/>
        <path id="Trazado_115039" data-name="Trazado 115039" d="M344.278,389.061a45.269,45.269,0,0,0-2.155-4.034.712.712,0,1,0-1.229.718,45.293,45.293,0,0,1,2.155,4.034.715.715,0,0,0,.974.256A.731.731,0,0,0,344.278,389.061Z" transform="translate(-334.307 -377.785)" fill="#3c384f"/>
        <path id="Trazado_115040" data-name="Trazado 115040" d="M357.3,415.863c-.712-1.389-1.387-2.848-1.964-4.253a.73.73,0,0,0-.875-.5.719.719,0,0,0-.5.875q.959,2.339,2.108,4.594a.716.716,0,0,0,.974.255A.728.728,0,0,0,357.3,415.863Z" transform="translate(-338.092 -385.397)" fill="#3c384f"/>
      </g>
      <g id="Grupo_81087" data-name="Grupo 81087">
        <g id="Grupo_81086" data-name="Grupo 81086">
          <g id="Grupo_81085" data-name="Grupo 81085">
            <path id="Trazado_115041" data-name="Trazado 115041" d="M362.474,395.177,355,396.28a2.554,2.554,0,0,0-2.121,1.993l-1.559,7.4a2.545,2.545,0,0,1-4.769.6l-3.359-6.769a2.546,2.546,0,0,0-2.548-1.4l-7.516.8a2.541,2.541,0,0,1-2.05-4.342l5.4-5.3a2.537,2.537,0,0,0,.541-2.854l-3.082-6.9a2.544,2.544,0,0,1,3.5-3.3l6.7,3.5a2.55,2.55,0,0,0,2.883-.37l5.609-5.068a2.546,2.546,0,0,1,4.214,2.313l-1.26,7.452a2.555,2.555,0,0,0,1.238,2.633l6.555,3.765A2.547,2.547,0,0,1,362.474,395.177Z" transform="translate(-329.596 -372.913)" fill="#ffd947"/>
            <path id="Trazado_115042" data-name="Trazado 115042" d="M348.524,408.112a3.212,3.212,0,0,1-2.9-1.81l-3.359-6.768a1.841,1.841,0,0,0-1.834-1l-7.518.8a3.253,3.253,0,0,1-2.623-5.559l5.394-5.294a1.834,1.834,0,0,0,.389-2.056l-3.081-6.9a3.255,3.255,0,0,1,4.48-4.216l6.7,3.5a1.845,1.845,0,0,0,2.076-.268l5.608-5.068a3.258,3.258,0,0,1,5.393,2.959l-1.261,7.453a1.853,1.853,0,0,0,.895,1.9l6.552,3.763a3.259,3.259,0,0,1-1.147,6.047h0l-7.473,1.1a1.85,1.85,0,0,0-1.529,1.437l-1.558,7.394a3.276,3.276,0,0,1-3.2,2.584Zm-7.9-11.016a3.273,3.273,0,0,1,2.915,1.8l3.36,6.771a1.833,1.833,0,0,0,3.435-.436l1.559-7.394a3.278,3.278,0,0,1,2.713-2.55l7.473-1.1a1.835,1.835,0,0,0,.648-3.4l-6.555-3.765a3.284,3.284,0,0,1-1.586-3.37l1.26-7.451a1.834,1.834,0,0,0-3.035-1.667L347.2,379.6a3.269,3.269,0,0,1-3.69.472l-6.7-3.5a1.832,1.832,0,0,0-2.522,2.374l3.082,6.9a3.261,3.261,0,0,1-.694,3.655l-5.393,5.293a1.829,1.829,0,0,0,1.475,3.126l7.517-.8A3.3,3.3,0,0,1,340.625,397.1Z" transform="translate(-329.307 -372.625)"/>
          </g>
          <path id="Trazado_115043" data-name="Trazado 115043" d="M341.907,386.69a45.27,45.27,0,0,0-2.155-4.035.712.712,0,0,0-1.229.719,45.269,45.269,0,0,1,2.155,4.034.715.715,0,0,0,.974.255A.731.731,0,0,0,341.907,386.69Z" transform="translate(-331.936 -375.414)"/>
          <path id="Trazado_115044" data-name="Trazado 115044" d="M354.932,413.492c-.712-1.389-1.388-2.848-1.964-4.253a.731.731,0,0,0-.875-.5.718.718,0,0,0-.5.875q.959,2.339,2.107,4.593a.717.717,0,0,0,.974.256A.728.728,0,0,0,354.932,413.492Z" transform="translate(-335.721 -383.026)"/>
        </g>
      </g>
    </g>
    <g id="Grupo_81093" data-name="Grupo 81093" transform="translate(361.615 343.609)">
      <g id="Grupo_81089" data-name="Grupo 81089" transform="translate(1.688 1.688)" style="mix-blend-mode: overlay;isolation: isolate">
        <path id="Trazado_115045" data-name="Trazado 115045" d="M404.022,370.556l-4.206,3.367a2.186,2.186,0,0,0-.7,2.4l1.694,5.11a2.187,2.187,0,0,1-3.274,2.52L393.025,381a2.186,2.186,0,0,0-2.5.064l-4.335,3.2a2.19,2.19,0,0,1-3.409-2.342l1.416-5.2a2.192,2.192,0,0,0-.833-2.356l-4.377-3.139a2.188,2.188,0,0,1,1.167-3.964l5.381-.256a2.184,2.184,0,0,0,1.986-1.523l1.63-5.132a2.19,2.19,0,0,1,4.135-.107l1.9,5.039a2.19,2.19,0,0,0,2.064,1.409l5.388-.036A2.193,2.193,0,0,1,404.022,370.556Z" transform="translate(-377.358 -358.112)" fill="#3c384f"/>
        <path id="Trazado_115046" data-name="Trazado 115046" d="M384.607,385.115a2.916,2.916,0,0,1-2.8-3.676l1.416-5.194a1.486,1.486,0,0,0-.562-1.591l-4.376-3.138a2.9,2.9,0,0,1,1.548-5.254l5.382-.256a1.462,1.462,0,0,0,1.34-1.027l1.63-5.132a2.9,2.9,0,0,1,5.48-.142l1.9,5.039a1.469,1.469,0,0,0,1.381.949h.012l5.389-.036h.012a2.9,2.9,0,0,1,1.819,5.167l-4.207,3.367a1.475,1.475,0,0,0-.475,1.616l1.695,5.113a2.9,2.9,0,0,1-4.341,3.337l-4.5-2.953a1.484,1.484,0,0,0-1.688.043l-4.332,3.194A2.9,2.9,0,0,1,384.607,385.115Zm6.342-25.867h-.04a1.442,1.442,0,0,0-1.366,1.028l-1.63,5.132a2.91,2.91,0,0,1-2.631,2.019l-5.379.256a1.476,1.476,0,0,0-.786,2.675l4.377,3.139a2.915,2.915,0,0,1,1.1,3.122l-1.416,5.194a1.477,1.477,0,0,0,2.3,1.581l4.334-3.2a2.909,2.909,0,0,1,3.315-.084l4.5,2.952a1.475,1.475,0,0,0,2.208-1.7l-1.693-5.111a2.9,2.9,0,0,1,.935-3.179l4.207-3.366a1.481,1.481,0,0,0-.927-2.634h-.006l-5.387.036h-.021a2.92,2.92,0,0,1-2.712-1.866l-1.9-5.044A1.446,1.446,0,0,0,390.948,359.247Z" transform="translate(-377.07 -357.824)" fill="#3c384f"/>
        <path id="Trazado_115047" data-name="Trazado 115047" d="M386.971,372.516l-3.3.111a.712.712,0,0,0,0,1.424l3.3-.111a.712.712,0,1,0,0-1.423Z" transform="translate(-378.768 -362.059)" fill="#3c384f"/>
      </g>
      <g id="Grupo_81092" data-name="Grupo 81092" transform="translate(0 0)">
        <g id="Grupo_81091" data-name="Grupo 81091">
          <g id="Grupo_81090" data-name="Grupo 81090">
            <path id="Trazado_115048" data-name="Trazado 115048" d="M401.65,368.185l-4.207,3.367a2.184,2.184,0,0,0-.7,2.4l1.694,5.11a2.187,2.187,0,0,1-3.275,2.52l-4.5-2.954a2.186,2.186,0,0,0-2.5.064l-4.335,3.2a2.189,2.189,0,0,1-3.409-2.342l1.416-5.2a2.193,2.193,0,0,0-.832-2.356l-4.378-3.139a2.188,2.188,0,0,1,1.168-3.965l5.38-.256a2.184,2.184,0,0,0,1.986-1.523l1.631-5.132a2.19,2.19,0,0,1,4.135-.107l1.9,5.039a2.19,2.19,0,0,0,2.064,1.409l5.388-.036A2.192,2.192,0,0,1,401.65,368.185Z" transform="translate(-374.987 -355.741)" fill="#ff5f65"/>
            <path id="Trazado_115049" data-name="Trazado 115049" d="M382.236,382.744a2.917,2.917,0,0,1-2.8-3.676l1.416-5.194a1.483,1.483,0,0,0-.562-1.591l-4.375-3.138a2.9,2.9,0,0,1,1.548-5.254l5.381-.257a1.462,1.462,0,0,0,1.341-1.026l1.63-5.132a2.9,2.9,0,0,1,5.48-.142l1.9,5.039a1.47,1.47,0,0,0,1.381.949h.011l5.389-.036h.011a2.9,2.9,0,0,1,1.819,5.167l-4.206,3.367a1.474,1.474,0,0,0-.475,1.617l1.695,5.113a2.9,2.9,0,0,1-4.341,3.338l-4.5-2.954a1.484,1.484,0,0,0-1.688.044l-4.332,3.194A2.9,2.9,0,0,1,382.236,382.744Zm6.342-25.867h-.041a1.442,1.442,0,0,0-1.366,1.028l-1.63,5.132a2.909,2.909,0,0,1-2.631,2.019l-5.38.257a1.476,1.476,0,0,0-.786,2.675l4.377,3.139a2.915,2.915,0,0,1,1.1,3.122l-1.416,5.194a1.478,1.478,0,0,0,2.3,1.582l4.334-3.2a2.908,2.908,0,0,1,3.314-.084l4.5,2.952a1.475,1.475,0,0,0,2.208-1.7l-1.694-5.11a2.9,2.9,0,0,1,.936-3.179l4.206-3.367a1.481,1.481,0,0,0-.927-2.633h-.006l-5.386.036h-.021a2.92,2.92,0,0,1-2.712-1.866l-1.9-5.043A1.446,1.446,0,0,0,388.577,356.876Z" transform="translate(-374.699 -355.453)"/>
          </g>
          <path id="Trazado_115050" data-name="Trazado 115050" d="M384.6,370.145l-3.3.11a.712.712,0,1,0,0,1.423l3.3-.11a.712.712,0,1,0,0-1.424Z" transform="translate(-376.397 -359.688)"/>
        </g>
      </g>
    </g>
    <path id="Trazado_115051" data-name="Trazado 115051" d="M428.91,319.991c-1.393-4.7-6.729-5.525-10.913-5.627a.712.712,0,0,0,0,1.423c2.955.073,6.343.293,8.442,2.666a4.461,4.461,0,0,1,1.174,3.887,6.97,6.97,0,0,1-2.714,3.75c-.2.148-.4.285-.614.415a8.857,8.857,0,0,0-.848-1.463,9.309,9.309,0,0,0-4.3-3.32c-1.532-.555-3.466-.448-4.313,1.149-.908,1.71.113,3.655,1.488,4.747A7.021,7.021,0,0,0,421.607,329a8.155,8.155,0,0,0,1.871-.506,7.842,7.842,0,0,1-.088,4.271,7.3,7.3,0,0,1-4.416,4.7c-.606-2.792-2.248-5.6-5.053-5.871a3.126,3.126,0,0,0-3.531,2.944c.036,1.794,1.774,3.256,3.273,3.953a7.582,7.582,0,0,0,4.132.654c.25,3.149-1.488,6.6-4.8,7.259-3.77.748-6.318-2.732-6.372-6.179a.712.712,0,0,0-1.423,0c.06,3.888,2.726,7.8,6.925,7.7,3.9-.1,6.724-3.505,7.079-7.222a9.847,9.847,0,0,0-.018-1.855,8.3,8.3,0,0,0,4.091-2.858,9.254,9.254,0,0,0,1.507-8.12C427.614,326.242,429.854,323.173,428.91,319.991ZM413.7,336.9c-1.137-.695-2.834-2.5-1.178-3.605,1.4-.938,3.046.347,3.8,1.5a9.267,9.267,0,0,1,1.25,2.978l-.019,0A6.336,6.336,0,0,1,413.7,336.9Zm3.207-10.641c-1.023-.982-1.636-3.327.43-3.429a5.756,5.756,0,0,1,3.72,1.683A7.981,7.981,0,0,1,423,327.147,5.667,5.667,0,0,1,416.907,326.255Z" transform="translate(-21.877 0)"/>
  </g>
</svg>
