<svg xmlns="http://www.w3.org/2000/svg" width="96.385" height="87.196" viewBox="0 0 96.385 87.196">
  <g id="Grupo_157018" data-name="Grupo 157018" transform="translate(0 0)">
    <g id="Grupo_81065" data-name="Grupo 81065" transform="translate(0 2.807)" style="mix-blend-mode: overlay;isolation: isolate">
      <path id="Trazado_115015" data-name="Trazado 115015" d="M145.339,228.994c5.7,5.834,11.594,11.455,17.6,16.975-2.6-5.87-5.4-11.646-7.861-17.578-2.794-6.724-6.043-15.89-2.52-22.944,8.029-16.077,28.324-.3,35.793,7.791.8.863,1.555,1.763,2.324,2.653-2.669-6.535-5.071-13.25-4.437-20.31.872-9.708,9.772-12.037,17.434-7.526,8.227,4.843,14.836,13.223,20.353,20.834,4.687,6.464-6.037,12.618-10.687,6.246a84.065,84.065,0,0,0-8.354-9.772q.666,1.22,1.346,2.434a181.4,181.4,0,0,1,8.4,16.368c4.677,10.792,11.594,25.733,5.71,37.085-2.966,5.721-9.92,6.3-15.155,3.974-7.038-3.129-11.913-10.037-16.612-15.883-4.905-6.1-9.226-12.586-13.767-18.955a92.243,92.243,0,0,0-5.966-7.808c-.05-.057-.1-.109-.151-.165l.054.172c1.206,3.749,2.756,7.347,4.327,10.954,2.921,6.711,6.689,13.775,7.759,21.077.946,6.457-1.669,13.694-9.435,13.225-7.3-.44-13.152-7.472-18.032-12.168-5.91-5.688-11.715-11.488-17.521-17.282C129.878,232.342,139.349,222.867,145.339,228.994Z" transform="translate(-132.803 -184.657)" fill="#3c384f"/>
      <path id="Trazado_115016" data-name="Trazado 115016" d="M172.366,269.231a9.277,9.277,0,0,0,7.066-2.933c2.459-2.678,3.522-7.04,2.844-11.669-.884-6.034-3.516-11.814-6.061-17.4-.609-1.338-1.213-2.664-1.783-3.975-.541-1.244-1.11-2.55-1.675-3.9q.518.723,1.026,1.437l.336.472c1.18,1.654,2.344,3.316,3.508,4.978,3.268,4.663,6.646,9.485,10.3,14.032.534.664,1.07,1.342,1.612,2.027,4.191,5.3,8.94,11.306,15.442,14.2,5.8,2.574,13.388,1.853,16.686-4.51,5.926-11.431-.472-26.14-5.144-36.88l-.53-1.221c-1.374-3.173-2.915-6.27-4.549-9.353q.568.74,1.115,1.491a7.878,7.878,0,0,0,11.117,1.546c2.653-1.93,4.142-5.518,1.484-9.185-5.89-8.124-12.476-16.312-20.712-21.159-4.571-2.69-9.573-3.127-13.385-1.168-3.356,1.724-5.426,5.136-5.827,9.608a36.245,36.245,0,0,0,2.3,15.055c-6.077-5.937-17.316-14.358-26.333-13.082-4.142.588-7.348,3.1-9.529,7.47-3.588,7.184-.757,16.127,2.485,23.927,1.543,3.714,3.24,7.418,4.882,11l.581,1.267c-4.884-4.58-9.253-8.846-13.263-12.948h0a7.111,7.111,0,0,0-7.084-2.1,8.72,8.72,0,0,0-6.033,5.989,7.175,7.175,0,0,0,2.038,7.176l.66.658c5.5,5.486,11.181,11.16,16.876,16.638.7.676,1.423,1.4,2.166,2.144,4.421,4.432,9.923,9.949,16.616,10.353C171.858,269.224,172.114,269.231,172.366,269.231Zm-3.4-47.765a1.118,1.118,0,0,0-.573.153,1.151,1.151,0,0,0-.559,1.343l.056.173c1.264,3.931,2.912,7.72,4.367,11.062.576,1.324,1.186,2.662,1.8,4.011,2.476,5.439,5.037,11.063,5.872,16.766.567,3.872-.293,7.6-2.245,9.724a7.1,7.1,0,0,1-5.946,2.148c-5.794-.35-10.729-5.3-15.083-9.663-.755-.756-1.488-1.491-2.2-2.178-5.679-5.464-11.356-11.129-16.847-16.609l-.659-.658a4.813,4.813,0,0,1-1.426-4.881,6.371,6.371,0,0,1,4.344-4.318,4.742,4.742,0,0,1,4.8,1.466h0c5.18,5.3,10.952,10.865,17.647,17.018a1.184,1.184,0,0,0,1.883-1.35c-.981-2.219-1.992-4.424-3-6.629-1.632-3.565-3.321-7.25-4.847-10.924-3.038-7.307-5.716-15.63-2.554-21.96,1.838-3.683,4.372-5.705,7.746-6.184,8.406-1.191,20.228,7.865,26.118,14.249.628.679,1.233,1.385,1.839,2.09l.458.534a1.183,1.183,0,0,0,1.992-1.22c-2.541-6.225-4.971-12.878-4.353-19.759.331-3.686,1.905-6.354,4.552-7.714,3.086-1.586,7.237-1.173,11.1,1.1,7.861,4.628,14.256,12.592,20,20.509a3.924,3.924,0,0,1-.96,5.882,5.475,5.475,0,0,1-7.813-1.027,85.706,85.706,0,0,0-8.471-9.91,1.184,1.184,0,0,0-1.878,1.4q.669,1.225,1.353,2.445a181.055,181.055,0,0,1,8.347,16.261l.531,1.224c4.483,10.3,10.62,24.417,5.214,34.847-2.626,5.066-8.842,5.561-13.624,3.437-5.968-2.652-10.329-8.167-14.546-13.5-.546-.689-1.086-1.373-1.625-2.041-3.6-4.486-6.96-9.276-10.206-13.908q-1.75-2.5-3.518-4.993l-.336-.471A88.05,88.05,0,0,0,170,221.977l-.105-.115A1.292,1.292,0,0,0,168.97,221.465Zm-23.456,7.713h0Z" transform="translate(-132.979 -184.841)" fill="#3c384f"/>
      <path id="Trazado_115017" data-name="Trazado 115017" d="M140.841,223.367c4.36,8.762,6.82,19.035,2.989,28.453-.566,1.393-2.856.783-2.282-.63,3.6-8.843,1.349-18.387-2.752-26.629C138.12,223.2,140.162,222,140.841,223.367Z" transform="translate(-58.875 -177.883)" fill="#3c384f"/>
      <path id="Trazado_115018" data-name="Trazado 115018" d="M143.613,245.374c.02,0,.039-.008.058-.012.033-.064.063-.134.073-.153l.006-.007c0-.009,0,0,0-.017.153-.529.262-1.064.378-1.6q.4-1.873.8-3.746a1.192,1.192,0,0,1,1.456-.826,1.211,1.211,0,0,1,.827,1.456q-.454,2.118-.91,4.237c-.252,1.175-.656,2.717-2.064,2.953a1.212,1.212,0,0,1-1.456-.827A1.2,1.2,0,0,1,143.613,245.374Z" transform="translate(-65.241 -174.911)" fill="#3c384f"/>
      <path id="Trazado_115019" data-name="Trazado 115019" d="M190.621,201.746c1.343-.717,2.54,1.325,1.194,2.044-1.858.992-2.425,3.011-2.5,4.994a34.227,34.227,0,0,0,.534,6.785,45.028,45.028,0,0,0,4.108,12.713c.676,1.36-1.365,2.56-2.044,1.194A47.363,47.363,0,0,1,187.32,214.5C186.763,210.239,186.1,204.162,190.621,201.746Z" transform="translate(-164.353 -181.767)" fill="#3c384f"/>
    </g>
    <g id="Grupo_81068" data-name="Grupo 81068" transform="translate(2.807 0)">
      <g id="Grupo_81067" data-name="Grupo 81067">
        <g id="Grupo_81066" data-name="Grupo 81066">
          <path id="Trazado_115020" data-name="Trazado 115020" d="M142.966,226.623c5.7,5.834,11.594,11.455,17.6,16.974-2.6-5.869-5.4-11.646-7.862-17.577-2.794-6.724-6.042-15.89-2.52-22.944,8.029-16.077,28.324-.3,35.793,7.791.8.862,1.555,1.762,2.324,2.653-2.668-6.535-5.07-13.25-4.437-20.31.872-9.708,9.772-12.037,17.434-7.527,8.229,4.844,14.836,13.224,20.354,20.835,4.686,6.464-6.038,12.618-10.688,6.246a84.165,84.165,0,0,0-8.353-9.773q.666,1.22,1.344,2.436a181.541,181.541,0,0,1,8.4,16.367c4.678,10.793,11.594,25.733,5.71,37.086-2.966,5.721-9.919,6.3-15.155,3.974-7.038-3.129-11.913-10.037-16.612-15.883-4.905-6.1-9.225-12.586-13.766-18.955a92.964,92.964,0,0,0-5.966-7.81c-.05-.056-.1-.108-.153-.164l.054.173c1.206,3.749,2.757,7.347,4.327,10.954,2.922,6.71,6.689,13.774,7.759,21.077.947,6.457-1.669,13.694-9.435,13.225-7.3-.44-13.151-7.472-18.031-12.168-5.911-5.688-11.716-11.489-17.522-17.283C127.507,229.971,136.978,220.5,142.966,226.623Z" transform="translate(-130.431 -182.286)" fill="#3c3fa7"/>
          <path id="Trazado_115021" data-name="Trazado 115021" d="M170,266.859a9.274,9.274,0,0,0,7.065-2.931c2.459-2.678,3.522-7.04,2.844-11.67-.883-6.033-3.515-11.813-6.061-17.4-.608-1.339-1.212-2.663-1.783-3.974-.541-1.244-1.11-2.55-1.675-3.9.346.48.688.961,1.026,1.437l.336.471c1.18,1.654,2.344,3.317,3.509,4.978,3.266,4.664,6.645,9.487,10.3,14.032q.8,1,1.612,2.028c4.191,5.3,8.94,11.3,15.442,14.2,5.8,2.574,13.388,1.852,16.686-4.511,5.926-11.43-.472-26.139-5.143-36.88l-.531-1.22c-1.374-3.173-2.915-6.27-4.548-9.353q.566.74,1.115,1.49a7.875,7.875,0,0,0,11.116,1.547c2.653-1.93,4.142-5.518,1.484-9.185-5.89-8.124-12.476-16.312-20.711-21.16-4.572-2.689-9.573-3.126-13.386-1.167-3.356,1.724-5.425,5.135-5.827,9.607a36.225,36.225,0,0,0,2.3,15.055c-6.078-5.936-17.316-14.357-26.333-13.081-4.142.588-7.349,3.1-9.53,7.47-3.587,7.184-.756,16.126,2.485,23.927,1.543,3.712,3.24,7.418,4.882,11l.581,1.267c-4.884-4.579-9.253-8.845-13.263-12.947h0a7.11,7.11,0,0,0-7.084-2.1,8.716,8.716,0,0,0-6.032,5.989,7.17,7.17,0,0,0,2.037,7.175l.66.659c5.5,5.486,11.181,11.159,16.876,16.638.7.676,1.423,1.4,2.167,2.144,4.42,4.432,9.922,9.949,16.615,10.353C169.488,266.852,169.742,266.859,170,266.859Zm-3.4-47.765a1.115,1.115,0,0,0-.573.154,1.15,1.15,0,0,0-.56,1.343l.056.173c1.264,3.93,2.913,7.72,4.367,11.062.576,1.323,1.186,2.66,1.8,4.011,2.477,5.439,5.038,11.063,5.874,16.765.567,3.872-.294,7.6-2.246,9.726a7.107,7.107,0,0,1-5.946,2.148c-5.794-.35-10.729-5.3-15.082-9.663-.755-.757-1.489-1.492-2.2-2.178-5.679-5.464-11.356-11.129-16.847-16.609l-.659-.659a4.811,4.811,0,0,1-1.425-4.881,6.367,6.367,0,0,1,4.344-4.317,4.74,4.74,0,0,1,4.794,1.466h0c5.18,5.3,10.952,10.865,17.647,17.019a1.184,1.184,0,0,0,1.883-1.35c-.981-2.219-1.992-4.424-3-6.63-1.633-3.563-3.321-7.249-4.849-10.923-3.037-7.307-5.716-15.63-2.554-21.961,1.839-3.682,4.373-5.7,7.746-6.184,8.406-1.189,20.229,7.866,26.119,14.249.627.681,1.232,1.386,1.838,2.09l.459.535a1.184,1.184,0,0,0,1.992-1.221c-2.542-6.224-4.972-12.878-4.354-19.758.331-3.688,1.905-6.355,4.552-7.715,3.088-1.585,7.237-1.172,11.1,1.1,7.862,4.627,14.256,12.592,20,20.509a3.922,3.922,0,0,1-.96,5.881,5.474,5.474,0,0,1-7.813-1.026,85.49,85.49,0,0,0-8.471-9.91,1.183,1.183,0,0,0-1.877,1.4q.669,1.227,1.352,2.446a181.072,181.072,0,0,1,8.348,16.261l.531,1.224c4.482,10.3,10.619,24.417,5.213,34.846-2.626,5.068-8.842,5.562-13.624,3.438-5.968-2.652-10.329-8.168-14.546-13.5q-.818-1.035-1.624-2.043c-3.606-4.485-6.961-9.275-10.207-13.907-1.167-1.666-2.335-3.334-3.518-4.994l-.336-.47a88.093,88.093,0,0,0-5.708-7.437l-.107-.115A1.291,1.291,0,0,0,166.6,219.093Zm-23.456,7.714h0Z" transform="translate(-130.608 -182.47)"/>
        </g>
        <path id="Trazado_115022" data-name="Trazado 115022" d="M138.469,221c4.361,8.762,6.82,19.034,2.991,28.453-.567,1.392-2.857.783-2.283-.63,3.6-8.844,1.35-18.387-2.752-26.629C135.75,220.831,137.79,219.631,138.469,221Z" transform="translate(-56.504 -175.512)"/>
        <path id="Trazado_115023" data-name="Trazado 115023" d="M141.242,243c.02,0,.039-.008.058-.012.033-.065.064-.134.075-.153l0-.007c0-.009,0,0,0-.018.153-.528.263-1.064.378-1.6q.4-1.873.8-3.746a1.192,1.192,0,0,1,1.457-.826,1.211,1.211,0,0,1,.826,1.456l-.909,4.236c-.253,1.176-.657,2.718-2.065,2.954a1.213,1.213,0,0,1-1.456-.827A1.2,1.2,0,0,1,141.242,243Z" transform="translate(-62.87 -172.54)"/>
        <path id="Trazado_115024" data-name="Trazado 115024" d="M188.25,199.375c1.343-.717,2.541,1.325,1.194,2.044-1.858.992-2.424,3.011-2.5,4.993a34.238,34.238,0,0,0,.534,6.786,45.029,45.029,0,0,0,4.108,12.713c.677,1.36-1.365,2.56-2.044,1.194a47.411,47.411,0,0,1-4.594-14.972C184.391,207.867,183.724,201.79,188.25,199.375Z" transform="translate(-161.982 -179.396)"/>
      </g>
    </g>
  </g>
</svg>
