<svg xmlns="http://www.w3.org/2000/svg" xmlns:xlink="http://www.w3.org/1999/xlink" width="105" height="105" viewBox="0 0 105 105">
  <defs>
    <clipPath id="clip-path">
      <rect id="Rect치ngulo_37618" data-name="Rect치ngulo 37618" width="79.384" height="49.621" fill="none"/>
    </clipPath>
  </defs>
  <g id="Grupo_159166" data-name="Grupo 159166" transform="translate(-3921 10910)">
    <rect id="Rect치ngulo_37504" data-name="Rect치ngulo 37504" width="105" height="105" rx="52.5" transform="translate(3921 -10910)" fill="#6b8dfc"/>
    <g id="Grupo_159164" data-name="Grupo 159164" transform="translate(3934 -10882)">
      <g id="Grupo_159163" data-name="Grupo 159163" clip-path="url(#clip-path)">
        <path id="Trazado_136853" data-name="Trazado 136853" d="M40.968,13.168c-.085-1.239.177-1.66,1.343-2.1,3.371-1.279,6.747-2.543,10.115-3.829A28.678,28.678,0,0,0,59.074,3.18a14.425,14.425,0,0,1,5.3-2.922A10.1,10.1,0,0,1,76.736,9.407a1.181,1.181,0,0,0,.5.947,5.344,5.344,0,0,1,2.067,3c.266,1.183-.156,2.094-1.086,2.3-1.021.227-1.7-.347-1.946-1.64a1.6,1.6,0,0,0-.156-.3A12.446,12.446,0,0,1,74.3,16.684c-.208.242-.072.549-.068.827a23.531,23.531,0,0,1-3.6,13.554,21.081,21.081,0,0,1-12.43,8.766,34.347,34.347,0,0,1-7.625,1.238,2.394,2.394,0,0,0-1.815.64c1.162.947,2.447,1.834,3.534,2.917a6.115,6.115,0,0,0,5.4,1.918,27.322,27.322,0,0,1,3.64-.024,1.556,1.556,0,1,1,0,3.1q-6.164.012-12.328,0a1.553,1.553,0,1,1-.044-3.1c.2-.007.4,0,.842,0-2.114-1.524-3.757-3.28-5.883-4.428-4.354-2.351-8.694-4.728-13.04-7.094a1.2,1.2,0,0,0-.862-.261,64.111,64.111,0,0,1-6.46.728,101.353,101.353,0,0,0-12.569,2.6c-2.853.7-5.685,1.481-8.526,2.231-1.307.345-1.716.2-2.459-.905V34.266a2.6,2.6,0,0,1,1.672-1.237q8.873-3.173,17.626-6.663c.2-.081.4-.178.778-.35l-4.95-.9c-.33-.06-.661-.112-.989-.182a1.616,1.616,0,0,1-1.416-1.427,1.565,1.565,0,0,1,1.145-1.642c2.236-.856,4.478-1.7,6.717-2.55q3.972-1.509,7.942-3.02a1.646,1.646,0,0,1,2.365.756,1.427,1.427,0,0,1-.7,2.1,15.556,15.556,0,0,1-2.074.862c-2.418.9-4.833,1.819-7.266,2.748q7.29,1.255,14.612,1.955a86.77,86.77,0,0,0,11.827.48c3.713-.153,7.294-.849,10.347-3.184a9.838,9.838,0,0,0,3.7-4.772c1.115-3.611.053-6.888-4.751-7.253a7.9,7.9,0,0,0-3.629.567c-3.09,1.246-6.231,2.363-9.337,3.571a4.659,4.659,0,0,1-.813.253,1.539,1.539,0,0,1-1.845-1.211" transform="translate(0 0)"/>
        <path id="Trazado_136854" data-name="Trazado 136854" d="M61.83,23.082a1.625,1.625,0,0,0,2.388.813c3.519-1.328,7-2.772,10.566-3.957a6.794,6.794,0,0,1,6.634,1.237c1.229.993,1.4,2.458,1.4,3.946a7.877,7.877,0,0,1-2.29,5.193,14.379,14.379,0,0,1-9.24,4.706,54.547,54.547,0,0,1-11.6.094c-6.213-.42-12.374-1.278-18.529-2.307.111-.339.447-.312.684-.4,2.886-1.106,5.78-2.194,8.67-3.293a1.641,1.641,0,0,0,1.237-2.145c1.186-.462,2.412-.82,3.555-1.394.256-.044.356.172.494.311a1.233,1.233,0,0,0,1.377.456,1.425,1.425,0,0,0,1-1.338c.011-.174-.063-.365.092-.513a38.057,38.057,0,0,0,3.558-1.4" transform="translate(-20.863 -9.914)" fill="#9fc7fe"/>
        <path id="Trazado_136855" data-name="Trazado 136855" d="M72.8,28.559a1.62,1.62,0,0,1-.863,1.995c-.8.336-1.5.034-2.1-.909-.086-1.372.529-2.126,1.655-2.04a1.6,1.6,0,0,1,1.309.954" transform="translate(-35.394 -13.988)" fill="#010101"/>
        <path id="Trazado_136856" data-name="Trazado 136856" d="M88.563,47.806c.169-.5.326-.878.429-1.273a1.536,1.536,0,0,0-.981-1.864,1.408,1.408,0,0,0-1.9.86c-.583,2.231-2.435,3.081-4.178,4.082a.581.581,0,0,1-.641-.029c-3.575-1.955-7.152-3.9-10.838-5.915.991-.363,1.89-.68,2.78-1.021a48.951,48.951,0,0,0,7.6-3.637,2.776,2.776,0,0,1,1.457-.4A22.328,22.328,0,0,0,93.67,35.876a13.847,13.847,0,0,0,6.723-8.16,8.929,8.929,0,0,0-.68-6.981c-.207-.378-.114-.472.243-.57a6.579,6.579,0,0,1,5.217.738,11.29,11.29,0,0,1,2.869,2.459c.231.268.4.529.071.785-1.483,1.169-1.342,2.783-1.367,4.428a20.1,20.1,0,0,1-3.326,11.349c-2.7,3.93-6.606,6.05-11.112,7.214a20.06,20.06,0,0,1-3.744.667" transform="translate(-35.711 -10.097)" fill="#fe7b79"/>
        <path id="Trazado_136857" data-name="Trazado 136857" d="M42.511,56.2a46.019,46.019,0,0,1-9.627,3.233,59.328,59.328,0,0,1-6.225.714,90.4,90.4,0,0,0-11.606,2.29c-2.683.639-5.344,1.371-8.023,2.03-.222.055-.6.453-.745-.025a.711.711,0,0,1,.474-1.019c3.2-1.147,6.392-2.337,9.573-3.542,3.906-1.479,7.8-2.988,11.64-4.634a4.779,4.779,0,0,1,2.69-.342c3.629.523,7.27.94,10.932,1.166.23.014.458.063.916.129" transform="translate(-3.153 -27.799)" fill="#88a6bb"/>
        <path id="Trazado_136858" data-name="Trazado 136858" d="M134.293,13.26a13.328,13.328,0,0,0-3.846-2.6,9.4,9.4,0,0,0-7.666.061,1.789,1.789,0,0,1-1.723.006,14.059,14.059,0,0,0-1.389-.55c2.283-1.325,3.918-3.455,6.656-3.87a7.043,7.043,0,0,1,7.967,6.955" transform="translate(-60.655 -3.158)" fill="#88a6bb"/>
      </g>
    </g>
  </g>
</svg>
