<svg xmlns="http://www.w3.org/2000/svg" xmlns:xlink="http://www.w3.org/1999/xlink" width="105" height="105" viewBox="0 0 105 105">
  <defs>
    <clipPath id="clip-path">
      <rect id="Rect치ngulo_37614" data-name="Rect치ngulo 37614" width="64.867" height="65.53" fill="none"/>
    </clipPath>
  </defs>
  <g id="Grupo_159158" data-name="Grupo 159158" transform="translate(-790 -774)">
    <rect id="Rect치ngulo_36020" data-name="Rect치ngulo 36020" width="105" height="105" rx="52.5" transform="translate(790 774)" fill="#6b8dfc"/>
    <g id="Grupo_159149" data-name="Grupo 159149" transform="translate(810 794)">
      <g id="Grupo_159148" data-name="Grupo 159148" transform="translate(0 0)" clip-path="url(#clip-path)">
        <path id="Trazado_136738" data-name="Trazado 136738" d="M18.624,65.53h-.895a6.579,6.579,0,0,1-1.886-1.164.841.841,0,0,0-1.145-.013,7.841,7.841,0,0,1-1.955,1.177h-.767A1.29,1.29,0,0,1,10.8,64.376c-.076-.468-.366-.561-.772-.561-1.406,0-2.813.044-4.218-.011A5.772,5.772,0,0,1,.422,60.24,5.376,5.376,0,0,1,0,57.934q.01-14.733,0-29.466C.009,20.883.021,13.3,0,5.714A5.763,5.763,0,0,1,2.193,1.093,4.772,4.772,0,0,1,5.387,0q22.37,0,44.739,0a1.611,1.611,0,0,1,1.81,1.817c.022,1.449.005,2.9.006,4.346,0,1.237,0,1.238,1.208,1.238h8.82c.3,0,.6-.007.894.018a1.891,1.891,0,0,1,1.989,2.142q.006,15.179,0,30.36c0,1.065-.142,1.294-.927,1.595a1.2,1.2,0,0,1-1.361-1.2,8.177,8.177,0,0,1-.03-1.085q0-14.188,0-28.376c0-1.136,0-1.136-1.112-1.137q-4.25,0-8.5,0c-.932,0-.979.049-.982.968q-.007,2.173,0,4.346c0,.871.064.929.957.932,1.512.005,3.025,0,4.537,0,1.023,0,1.576.383,1.594,1.078.019.738-.6,1.222-1.629,1.233-1.534.016-3.067,0-4.6.006-.81,0-.852.049-.859.88,0,.532.015,1.065,0,1.6s.217.711.728.707c1.491-.015,2.983-.007,4.474,0a4.036,4.036,0,0,1,.828.05,1.233,1.233,0,0,1,1.058,1.248,1.138,1.138,0,0,1-1.2,1.006c-1.576.037-3.153.01-4.729.014-1.154,0-1.154,0-1.154,1.161,0,.49.012.98,0,1.47s.2.684.685.68c1.512-.01,3.025-.005,4.537,0a5.859,5.859,0,0,1,.766.024,1.155,1.155,0,0,1,1.107,1.112,1.174,1.174,0,0,1-1.076,1.151,5.057,5.057,0,0,1-.765.03c-1.491,0-2.983-.007-4.474,0-.7.005-.764.079-.776.775q-.016.862,0,1.725c.015.716.088.793.827.8,1.427.012,2.854,0,4.282,0,.234,0,.469-.005.7.006a1.18,1.18,0,0,1,1.271,1,1.244,1.244,0,0,1-1.088,1.224,4.9,4.9,0,0,1-1.144.083c-1.279,0-2.557,0-3.835,0-1,0-1.017.02-1.02,1.05,0,.4,0,.809,0,1.214.006.869.042.911.891.914,1.449.006,2.9,0,4.346,0a3.66,3.66,0,0,1,.952.079,1.136,1.136,0,0,1,.909,1.156,1.148,1.148,0,0,1-.976,1.034,4.032,4.032,0,0,1-.828.047c-1.47,0-2.939,0-4.41,0-.83,0-.877.052-.884.857q-.007.8,0,1.6c.008.785.06.844.829.848,1.491.008,2.983,0,4.474,0a3.357,3.357,0,0,1,.89.065,1.064,1.064,0,0,1,.887.965A1.108,1.108,0,0,1,58.327,46a2.176,2.176,0,0,1-1,.165c-1.491,0-2.983,0-4.474,0-.878,0-.907.033-.914.885,0,.426.007.852,0,1.278A1.8,1.8,0,0,1,50.513,50.2a15.016,15.016,0,0,1-1.969.049c-.4.005-.556.168-.58.571-.087,1.474-.1,1.473,1.4,1.473.382,0,.764-.007,1.146.006,3.537-.036,7.074-.006,10.611-.016.213,0,.426,0,.639,0,.7-.017.767-.073.772-.775.012-2.045-.011-4.091.011-6.137.011-1.006.329-1.4,1.212-1.592.788.18,1.084.481,1.092,1.253.026,2.6.035,5.2,0,7.8a1.722,1.722,0,0,1-1.62,1.748,7,7,0,0,1-.894.03q-4.666,0-9.332,0c-1.049,0-1.05,0-1.051,1.078,0,1.747-.063,3.5.015,5.241.1,2.33-.721,2.906-2.879,2.9-9.268-.029-18.536-.012-27.805-.012-.3,0-.6.008-.894,0a.6.6,0,0,0-.706.562,1.337,1.337,0,0,1-1.051,1.151" transform="translate(0 0)"/>
        <path id="Trazado_136739" data-name="Trazado 136739" d="M21.744,110.655c.723-.5,1.453-1,2.164-1.52a.482.482,0,0,1,.667-.008c.71.522,1.436,1.02,2.156,1.528Z" transform="translate(-9.002 -45.125)" fill="#fdfdfd"/>
        <path id="Trazado_136740" data-name="Trazado 136740" d="M99.366,48.127a10.45,10.45,0,0,0-.124,2.526c-.8.23-.989.465-.99,1.31,0,2.231-.016,4.463.011,6.694.006.476-.112.594-.59.59-3.909-.029-7.818-.028-11.728-.035a3.135,3.135,0,0,1,0-2.4,1.733,1.733,0,0,0,1.308-1.933c-.03-.531.026-1.067-.015-1.6-.036-.468.091-.619.587-.609,1.7.034,3.408.013,5.113.013.149,0,.3.009.447,0a.992.992,0,0,0,.974-.984.952.952,0,0,0-1.018-.923c-1.811-.013-3.622-.026-5.432.005-.52.009-.708-.114-.674-.659a18.934,18.934,0,0,0,0-2.3c-.032-.556.094-.764.711-.746,1.725.049,3.451.019,5.177.016.792,0,1.248-.363,1.236-.967s-.469-.948-1.268-.949c-1.747,0-3.494-.024-5.241.013-.527.011-.637-.161-.615-.643.037-.829.034-1.662,0-2.492-.018-.428.122-.54.539-.534,1.7.022,3.409.011,5.113.007a3.658,3.658,0,0,0,.7-.046.935.935,0,0,0-.079-1.849,8.554,8.554,0,0,0-.893-.021c-1.555,0-3.112-.034-4.665.016-.617.019-.749-.189-.716-.749a21.357,21.357,0,0,0,0-2.3c-.024-.481.086-.655.615-.643,1.789.037,3.579.019,5.368.012.69,0,1.129-.379,1.14-.945s-.424-.951-1.108-.97c-.149,0-.3,0-.447,0-1.619,0-3.239-.033-4.857.017-.616.019-.743-.188-.712-.745.045-.808.036-1.62,0-2.428-.018-.433.132-.532.542-.527,1.854.02,3.707.015,5.561,0a.95.95,0,0,0,1.018-.921,1,1,0,0,0-.974-.985c-.169-.016-.34-.006-.511-.006-1.683,0-3.367-.021-5.049.013-.5.01-.609-.142-.588-.609.038-.85.033-1.7,0-2.556-.016-.411.132-.5.51-.491,1.7.018,3.409.008,5.113.008a4.581,4.581,0,0,0,.575-.013.994.994,0,0,0,.924-.968.955.955,0,0,0-1.008-.931c-.83-.018-1.662-.005-2.492-.006-1,0-2-.022-3,.01-.454.015-.631-.074-.621-.583q.05-2.716,0-5.433c-.009-.5.153-.592.615-.59,3.238.019,6.476.025,9.715,0,.562-.005.7.13.7.7q-.03,14.03-.014,28.06c0,.639-.009,1.279,0,1.917.015.8.295,1.082,1.113,1.168" transform="translate(-35.482 -6.741)" fill="#dff5fc"/>
        <path id="Trazado_136741" data-name="Trazado 136741" d="M58,26.481q0,11.121.013,22.242c0,.613-.1.825-.787.824q-18.375-.037-36.749-.006c-.562,0-.754-.114-.754-.725q.028-22.37,0-44.741c0-.618.2-.72.757-.72q18.375.021,36.749-.008c.689,0,.785.22.783.827Q57.988,15.328,58,26.481" transform="translate(-8.167 -1.386)" fill="#863f31"/>
        <path id="Trazado_136742" data-name="Trazado 136742" d="M9.071,3.4c1.043-.008,2.086-.006,3.129-.029.339-.008.466.119.432.447a3.633,3.633,0,0,0,0,.383V48.724c0,.815,0,.8-.824.817a34.3,34.3,0,0,0-4.4.118c-.3-.346-.2-.769-.2-1.163q-.01-11.758,0-23.515,0-8.818,0-17.636A5.093,5.093,0,0,1,8.234,4.061,1.824,1.824,0,0,1,9.071,3.4" transform="translate(-2.977 -1.395)" fill="#a14f41"/>
        <path id="Trazado_136743" data-name="Trazado 136743" d="M33.263,93.567a.957.957,0,0,0-1.058-.8c-.955,0-1.912-.025-2.866.01-.413.015-.489-.124-.479-.5.026-.976.009-1.953.009-2.929,0-1.16-.273-1.436-1.409-1.44q-2.419-.008-4.838-.022a2.273,2.273,0,0,1,2.121-2.345q14.823,0,29.646,0c.878,0,.771-.088.762.8a5.77,5.77,0,0,1-.057,1.52q-2.9.024-5.8.046c-.6,0-1.193-.006-1.788,0-.694.011-1.109.376-1.111.957s.413.955,1.106.956c2.363.006,4.727.018,7.09-.01.481-.005.633.114.6.6a11.157,11.157,0,0,0,0,1.787c.043.51-.156.582-.61.58-4.322-.017-8.645-.01-12.967-.01q-2.3,0-4.6,0a.987.987,0,0,0-1.126.806,2.172,2.172,0,0,1-2.619,0" transform="translate(-9.364 -35.411)" fill="#fefefe"/>
        <path id="Trazado_136744" data-name="Trazado 136744" d="M7.581,3.415A5.7,5.7,0,0,0,5.9,7.9q.054,20.887.021,41.774A7.045,7.045,0,0,0,3.7,50.8a.789.789,0,0,1-.1-.58q0-21.5,0-43.008a3.593,3.593,0,0,1,3.981-3.8" transform="translate(-1.487 -1.411)" fill="#863f31"/>
        <path id="Trazado_136745" data-name="Trazado 136745" d="M37.631,96.587a4.116,4.116,0,0,0,2.619,0c.044.85.316,1.112,1.19,1.112q9.23,0,18.46,0a1.372,1.372,0,0,0,1.562-1.517c.03-.936.028-1.874,0-2.81-.013-.423.127-.537.541-.54,1.573-.012,1.573-.026,1.573,1.538,0,1.725-.013,3.45.009,5.174.006.439-.114.578-.567.577q-14.627-.018-29.255,0c-.425,0-.573-.13-.527-.544.065-.606-.264-1.394.137-1.775.364-.347,1.136-.081,1.728-.1.468-.014.937,0,1.405,0,.812-.009,1.083-.281,1.126-1.112" transform="translate(-13.732 -38.431)" fill="#b85d4f"/>
        <path id="Trazado_136746" data-name="Trazado 136746" d="M9.388,85.431a5.732,5.732,0,0,0,0,7.286A15.676,15.676,0,0,1,6.355,92.6a3.609,3.609,0,0,1-2.741-4.042,3.646,3.646,0,0,1,3.5-3.127c.723-.021,1.447,0,2.271,0" transform="translate(-1.485 -35.366)" fill="#24cff8"/>
        <path id="Trazado_136747" data-name="Trazado 136747" d="M51.741,87.8c0-.6-.018-1.192,0-1.787.011-.363-.13-.507-.485-.475-.169.015-.34,0-.51,0-9.636,0-19.273.025-28.909-.033a2.156,2.156,0,0,0-2.128,1.329c-.171.316-.295.657-.441.987-.361.008-.723.017-1.084.023-.85.014-1.188.349-1.2,1.212-.008.958-.032,1.917.008,2.874.026.616-.179.557-.6.322A3.646,3.646,0,0,1,18,85.43c1.021-.035,2.044-.012,3.066-.012q15.042,0,30.084-.016c.586,0,.748.162.677.707a9.3,9.3,0,0,1-.086,1.693" transform="translate(-6.011 -35.356)" fill="#f1fafe"/>
        <path id="Trazado_136748" data-name="Trazado 136748" d="M27.623,101.332c-.434-.288-.88-.558-1.3-.869a1.334,1.334,0,0,0-1.233-.254,1.043,1.043,0,0,1-.214-.837c-.008-1.849-.012-3.7,0-5.548.006-.836.063-.878.922-.878.489,0,.98.028,1.466-.008.447-.033.579.12.575.568-.022,2.125-.01,4.251-.01,6.377,0,.383,0,.765,0,1.148,0,.139.038.322-.206.3" transform="translate(-10.297 -38.475)" fill="#f72f41"/>
        <path id="Trazado_136749" data-name="Trazado 136749" d="M26.424,101.286c.209-.157.142-.387.143-.591,0-2.363-.01-4.727.012-7.091,0-.492-.116-.7-.639-.653a9.978,9.978,0,0,1-1.468,0c-.429-.025-.6.1-.6.566.024,2.214.015,4.429.018,6.643l-1.75,1.244c-.248-.166-.15-.377-.151-.548-.008-2.47.005-4.94-.015-7.409,0-.449.073-.64.584-.625,1.212.038,2.427.025,3.64,0,.4-.009.5.125.5.51-.015,2.555-.005,5.11-.017,7.665,0,.113.179.519-.26.288" transform="translate(-9.097 -38.428)" fill="#df2334"/>
        <path id="Trazado_136750" data-name="Trazado 136750" d="M9.729,101.157c1.593-.006,3.187-.006,4.78-.026.343,0,.505.076.485.456-.033.614-.025,1.231-.035,1.846a24.783,24.783,0,0,1-3.731.037c-.8-.031-1.711-1.524-1.5-2.313" transform="translate(-4.015 -41.868)" fill="#b85c4f"/>
        <path id="Trazado_136751" data-name="Trazado 136751" d="M7.212,100.256a3.665,3.665,0,0,0,1.1,2.019.97.97,0,0,0,.82.261c1.1-.009,2.205,0,3.307,0-.107.2-.3.121-.454.122-1.593,0-3.187.018-4.779-.012a3.63,3.63,0,0,1-3.59-3.3c0-.1.011-.2.022-.384a6.024,6.024,0,0,0,3.571,1.3" transform="translate(-1.498 -40.967)" fill="#a14f41"/>
        <path id="Trazado_136752" data-name="Trazado 136752" d="M84.131,85.381q0,1.2,0,2.4c-.783.008-1.567,0-2.349.029-.306.011-.408-.081-.394-.391.029-.655-.215-1.49.1-1.916.3-.4,1.188-.091,1.815-.125.274-.015.55,0,.825,0" transform="translate(-33.669 -35.311)" fill="#c8eefc"/>
        <path id="Trazado_136753" data-name="Trazado 136753" d="M59.73,17.216a.544.544,0,0,1,.265.464q-.027.853,0,1.706a.542.542,0,0,1-.265.463,3.38,3.38,0,0,0-.556,2.288q.019,12.423.008,24.845c0,1.457-.032,1.488-1.51,1.488q-12.006,0-24.014,0a1.96,1.96,0,0,1-1.18-.173,1.422,1.422,0,0,1-.179-.922q-.006-17.885,0-35.771c0-1.023.1-1.112,1.15-1.113q12.327,0,24.655,0a1.8,1.8,0,0,1,.816.094c.291.234.242.57.245.879.012,1.184.027,2.37,0,3.554a3,3,0,0,0,.569,2.2" transform="translate(-13.37 -4.341)" fill="#c76e5c"/>
        <path id="Trazado_136754" data-name="Trazado 136754" d="M56.165,15.9a1.073,1.073,0,0,1-.742-1.191c0-1.785-.013-3.571-.021-5.356a1.3,1.3,0,0,0-.689-.063c-8.349,0-16.7-.021-25.046.018-1.1.005-2.2.13-3.306.132-.377,0-.536.195-.533.557,0,.192,0,.383,0,.575q0,17.475,0,34.951c0,1.212,0,1.193,1.241,1.221a3.715,3.715,0,0,1,1.878.179c1.32.007,2.64.02,3.96.02q10.831,0,21.662,0c.86,0,.86,0,.86-.892q0-13.1,0-26.2c0-.594.082-1.112.742-1.321.925.035,1.173.278,1.173,1.189q0,13.774,0,27.549c0,1.115-.48,1.592-1.595,1.592q-15.245,0-30.488,0a1.362,1.362,0,0,1-1.568-1.558q0-19.208,0-38.416c0-1.1.491-1.578,1.613-1.578q15.212,0,30.425,0c1.119,0,1.611.482,1.613,1.583q.006,2.909,0,5.817c0,.911-.248,1.156-1.172,1.189" transform="translate(-9.805 -3.027)"/>
        <path id="Trazado_136755" data-name="Trazado 136755" d="M30.282,48.26c-.958.007-1.916,0-2.875.028-.351.009-.524-.087-.474-.461a2.41,2.41,0,0,0,0-.319q0-18.085-.018-36.17c0-.668.189-.789.813-.788q14.153.027,28.307.015c.232,0,.507-.129.7.124q-12.877,0-25.756-.013c-.556,0-.72.135-.718.707q.026,18.439.016,36.877" transform="translate(-11.144 -4.36)" fill="#b85d4f"/>
        <path id="Trazado_136756" data-name="Trazado 136756" d="M46.687,29q-3.194,0-6.389,0c-1.14,0-1.664-.492-1.674-1.613q-.025-2.779,0-5.559c.009-1.144.513-1.634,1.648-1.634q6.422-.005,12.843,0c1.115,0,1.62.461,1.636,1.576q.041,2.843,0,5.687c-.018,1.066-.544,1.54-1.609,1.544-2.151.006-4.3,0-6.453,0" transform="translate(-15.985 -8.357)"/>
        <path id="Trazado_136757" data-name="Trazado 136757" d="M46.779,52.031q3.417,0,6.834,0c.723,0,1.116.335,1.13.926s-.4.977-1.083.986c-1,.013-2,0-3,0q-5.365,0-10.73,0a1.23,1.23,0,0,1-1.045-.359.914.914,0,0,1-.126-1.019.893.893,0,0,1,.868-.541q1.725,0,3.449,0h3.7" transform="translate(-16.005 -21.541)"/>
        <path id="Trazado_136758" data-name="Trazado 136758" d="M46.72,59.16q3.447,0,6.9,0a1.017,1.017,0,0,1,1.065.539A.925.925,0,0,1,54,61.022a3.8,3.8,0,0,1-.762.054q-6.512,0-13.024,0a3.678,3.678,0,0,1-.823-.067.85.85,0,0,1-.694-.994.824.824,0,0,1,.808-.833c.444-.036.893-.021,1.34-.021q2.938,0,5.874,0" transform="translate(-16.019 -24.491)" fill="#010000"/>
        <path id="Trazado_136759" data-name="Trazado 136759" d="M54.134,28.317c-.138.209-.349.108-.524.108-3.7.005-7.405-.007-11.108.011-.469,0-.627-.105-.614-.595.033-1.3.023-2.6,0-3.893-.006-.388.111-.5.505-.5,3.766.012,7.532,0,11.3.006.212,0,.509-.1.5.291-.035,1.527.085,3.057-.064,4.582a1.245,1.245,0,0,1-.212-.908c-.006-.979-.017-1.958,0-2.936.011-.527-.205-.708-.719-.7q-3.512.021-7.022,0c-.484,0-.692.173-.684.67.018.979,0,1.958.009,2.936.009.645.079.715.761.718,2.3.011,4.6,0,6.894.006a1.328,1.328,0,0,1,.972.211" transform="translate(-17.342 -9.704)" fill="#e6b629"/>
        <path id="Trazado_136760" data-name="Trazado 136760" d="M56.535,28.406c-2.725,0-5.45-.022-8.175,0-.542,0-.687-.166-.672-.689.036-1.17.026-2.342,0-3.512-.008-.417.13-.551.548-.548,2.576.015,5.152.019,7.728,0,.482,0,.556.2.552.607-.012,1.384.006,2.767.013,4.151l0-.006" transform="translate(-19.743 -9.793)" fill="#f8c42d"/>
      </g>
    </g>
  </g>
</svg>
