<svg xmlns="http://www.w3.org/2000/svg" xmlns:xlink="http://www.w3.org/1999/xlink" width="190" height="179" viewBox="0 0 190 179">
  <defs>
    <clipPath id="clip-path">
      <rect id="Rectángulo_36082" data-name="Rectángulo 36082" width="190" height="179" transform="translate(0 -0.343)" fill="#fff" stroke="#707070" stroke-width="1"/>
    </clipPath>
  </defs>
  <g id="Grupo_157075" data-name="Grupo 157075" transform="translate(-9142 10720.874)">
    <g id="Grupo_157028" data-name="Grupo 157028" transform="translate(9142 -10720.53)">
      <g id="Enmascarar_grupo_145" data-name="Enmascarar grupo 145" transform="translate(0 0)" clip-path="url(#clip-path)">
        <path id="Trazado_125318" data-name="Trazado 125318" d="M.321,119.2C2.038,104.882,9.984,92.068,13.687,78.12c2.773-10.443,3.122-21.342,4.486-32.056S22.087,24.412,28.564,15.73A40.3,40.3,0,0,1,66.981.561,40.006,40.006,0,0,1,97.775,27.922c5.265,17.81-2.724,36.707-2.282,55.26.245,10.3,3.094,20.339,4.813,30.5s2.234,20.973-1.952,30.4c-5.6,12.605-18.913,20.6-32.582,23.061-13.6,2.451-27.82.049-41.313-2.105-10.852-1.733-18.1-14.4-21.488-23.752A48.274,48.274,0,0,1,.321,119.2Z" transform="matrix(0.53, 0.848, -0.848, 0.53, 141.188, -6.508)" fill="#ff9fa3"/>
      </g>
      <g id="Grupo_157455" data-name="Grupo 157455" transform="translate(16.417 37.819)">
        <path id="Trazado_117089" data-name="Trazado 117089" d="M1152.746,250.2c5.965,0,6.3-8.6,4.952-12.486,0,0,7.763-5.063,3.037-14.683s-11.813-.506-12.826,1.688-10.295-8.27-15.527-7.764-5.4,6.076-6.582,6.076-8.918-2.025-13.4,1.013-1.273,6.076-2.2,7.594-7.851,3.207-2.788,8.438c0,0-8.438-.844-9.282,3.375s2.025,5.907,1.687,7.426-7.594,10.291,7.595,13.162c0,0,.443,23.123,19.546,14.009S1152.746,250.2,1152.746,250.2Z" transform="translate(-1071.478 -216.942)" fill="#a56a42"/>
        <path id="Trazado_117090" data-name="Trazado 117090" d="M1061.52,480.653l-4.339,43.268h-25.917c2.848-7.528,10.844-28.547,13.326-33.922a11.739,11.739,0,0,1,8.945-7.088A34.534,34.534,0,0,1,1061.52,480.653Z" transform="translate(-1024.359 -403.74)" fill="#a6bbff"/>
        <path id="Trazado_117091" data-name="Trazado 117091" d="M1297.774,524.6h-33.335V481.617a60.326,60.326,0,0,1,6.55,1.835,18.508,18.508,0,0,1,9.82,7.9C1283.531,496.022,1293.358,515.715,1297.774,524.6Z" transform="translate(-1189.526 -404.423)" fill="#a6bbff"/>
        <path id="Trazado_117092" data-name="Trazado 117092" d="M1162.62,519.4h-55V478.391a34.537,34.537,0,0,1,7.985-2.257,140.662,140.662,0,0,1,16.008-1.793,82.9,82.9,0,0,1,21.743,2.074,60.333,60.333,0,0,1,6.55,1.835l1.554,23.568.419,6.4Z" transform="translate(-1078.447 -399.221)" fill="#c4d1ff"/>
        <path id="Trazado_117093" data-name="Trazado 117093" d="M1411.831,485.523l-.063,2.862-.862,38.149h-18.561c2.085-6.213,9.954-29.833,12.011-38.873a11.445,11.445,0,0,0,.471-3.319Z" transform="translate(-1280.128 -406.353)" fill="#ffaf82"/>
        <path id="Trazado_117094" data-name="Trazado 117094" d="M1091.691,628.252H955.217a.538.538,0,0,1,0-1.055h136.474a.538.538,0,0,1,0,1.055Z" transform="translate(-954.786 -507.543)" fill="#6a2810"/>
        <path id="Trazado_117095" data-name="Trazado 117095" d="M1056.355,605.718c7.2.158,12.692,8.475,5.355,18.413a1.364,1.364,0,0,1-2.449-.708,7.8,7.8,0,0,1,.132-2.178s-1.857,2.11-3.038-.084c0,0-.759,1.856-2.869.253,0,0-.844,2.363-3.291.928s-4.81-9.451-2.363-13.417S1056.355,605.718,1056.355,605.718Z" transform="translate(-1035.364 -492.287)" fill="#ffaf82"/>
        <path id="Trazado_117096" data-name="Trazado 117096" d="M1062.7,639.041a.528.528,0,0,1-.446-.245,19.15,19.15,0,0,1-2.444-8.449.527.527,0,0,1,1.054-.038,18.407,18.407,0,0,0,2.281,7.922.527.527,0,0,1-.445.81Z" transform="translate(-1044.581 -509.388)" fill="#fe976a"/>
        <path id="Trazado_117097" data-name="Trazado 117097" d="M1076.932,635.714a.527.527,0,0,1-.516-.424,30.981,30.981,0,0,1-.369-9.374.527.527,0,0,1,1.045.146,30.494,30.494,0,0,0,.358,9.022.527.527,0,0,1-.518.631Z" transform="translate(-1055.942 -506.314)" fill="#fe976a"/>
        <path id="Trazado_117098" data-name="Trazado 117098" d="M1088.693,636.414a.528.528,0,0,1-.471-.763c1.344-2.689.548-8.662.54-8.722a.527.527,0,0,1,1.045-.143c.035.258.849,6.356-.641,9.336A.527.527,0,0,1,1088.693,636.414Z" transform="translate(-1064.665 -506.929)" fill="#fe976a"/>
        <g id="Grupo_83492" data-name="Grupo 83492" transform="translate(29.176 102.598)">
          <path id="Trazado_117099" data-name="Trazado 117099" d="M1161.883,575.112a161.381,161.381,0,0,1-35.723,4.131,124.8,124.8,0,0,1-18.536-1.3v-6.431c8.4,1.325,28.2,3.171,53.841-2.8Z" transform="translate(-1107.623 -568.717)" fill="#8284d2"/>
        </g>
        <path id="Trazado_117100" data-name="Trazado 117100" d="M1177.8,399.6v23.7s-1.073,6.582-8.5,6.076a8.89,8.89,0,0,1-8.438-7.257V399.6Z" transform="translate(-1116.157 -346.33)" fill="#ffaf82"/>
        <path id="Trazado_117101" data-name="Trazado 117101" d="M1177.8,399.6v21.989c-10.147-.429-14.472-8.822-16.937-16.75V399.6Z" transform="translate(-1116.157 -346.33)" fill="#fe976a"/>
        <path id="Trazado_117102" data-name="Trazado 117102" d="M1184.4,273.4c7.595,13.291,10.633,46.707-10.632,46.707s-27.34-17.468-22.4-37.593S1184.4,273.4,1184.4,273.4Z" transform="translate(-1108.288 -254.807)" fill="#ffaf82"/>
        <path id="Trazado_117103" data-name="Trazado 117103" d="M1131.065,369.634c-2.173,6.708-14.089,4.752-14.808-2.779-.7-7.306,7.618-10.423,13.08-5.616S1131.065,369.634,1131.065,369.634Z" transform="translate(-1084.533 -317.522)" fill="#ffaf82"/>
        <path id="Trazado_117104" data-name="Trazado 117104" d="M1134.093,377.6a.528.528,0,0,1-.424-.841c.021-.029,2.15-2.976,1-5.182a.528.528,0,0,1,.936-.487c1.452,2.791-.984,6.153-1.089,6.294A.526.526,0,0,1,1134.093,377.6Z" transform="translate(-1096.824 -325.931)" fill="#fe976a"/>
        <path id="Trazado_117105" data-name="Trazado 117105" d="M1140.676,382a7.154,7.154,0,0,1-2.272-.328.528.528,0,0,1,.34-1,9.422,9.422,0,0,0,4.387-.013.527.527,0,0,1,.255,1.023A12.336,12.336,0,0,1,1140.676,382Z" transform="translate(-1099.997 -332.899)" fill="#fe976a"/>
        <path id="Trazado_117106" data-name="Trazado 117106" d="M1227.641,401.521a10.842,10.842,0,0,1-5.305-1.6.527.527,0,0,1,.583-.879c.236.156,5.809,3.757,9.461-1.037a.527.527,0,1,1,.839.639A6.752,6.752,0,0,1,1227.641,401.521Z" transform="translate(-1159.536 -345.051)" fill="#6a2810"/>
        <path id="Trazado_117107" data-name="Trazado 117107" d="M1189.218,372.171a3.33,3.33,0,0,1-1.536-.39,2.478,2.478,0,0,1-1.434-2.138,2.809,2.809,0,0,1,1.205-2.413,1.511,1.511,0,0,1,1.546-.1.527.527,0,1,1-.5.931.445.445,0,0,0-.488.058,1.757,1.757,0,0,0-.713,1.476,1.43,1.43,0,0,0,.866,1.245,2,2,0,0,0,2.468-.342,3.026,3.026,0,0,0,.364-3.584,2.779,2.779,0,0,0-2.689-1.632,2.6,2.6,0,0,0-2.265,1.723.527.527,0,0,1-1-.349,3.655,3.655,0,0,1,3.182-2.425,3.837,3.837,0,0,1,3.7,2.19,4.075,4.075,0,0,1-.546,4.821A3.025,3.025,0,0,1,1189.218,372.171Z" transform="translate(-1133.271 -321.269)" fill="#fe976a"/>
        <path id="Trazado_117108" data-name="Trazado 117108" d="M1266.708,360.937a3.329,3.329,0,0,1-1.536-.39,2.479,2.479,0,0,1-1.434-2.138,2.811,2.811,0,0,1,1.206-2.413,1.511,1.511,0,0,1,1.546-.1.527.527,0,1,1-.5.931.445.445,0,0,0-.489.058,1.758,1.758,0,0,0-.713,1.477,1.429,1.429,0,0,0,.866,1.245,2,2,0,0,0,2.469-.342,3.027,3.027,0,0,0,.364-3.584,2.781,2.781,0,0,0-2.689-1.632,2.6,2.6,0,0,0-2.264,1.723.528.528,0,0,1-1-.349,3.654,3.654,0,0,1,3.181-2.425,3.835,3.835,0,0,1,3.7,2.19,4.075,4.075,0,0,1-.547,4.821A3.023,3.023,0,0,1,1266.708,360.937Z" transform="translate(-1188.161 -313.311)" fill="#fe976a"/>
        <path id="Trazado_117109" data-name="Trazado 117109" d="M1241.724,358.841a.527.527,0,0,1-.3-.962l4.168-2.87-4.3-6.232a.527.527,0,0,1,.868-.6l4.6,6.666a.527.527,0,0,1-.135.734l-4.6,3.169A.525.525,0,0,1,1241.724,358.841Z" transform="translate(-1173.063 -309.741)" fill="#6a2810"/>
        <path id="Trazado_117110" data-name="Trazado 117110" d="M1200.334,340.7c0,1.418-.571,2.217-1.274,2.217s-1.274-.8-1.274-2.217.57-2.179,1.274-2.179S1200.334,339.285,1200.334,340.7Z" transform="translate(-1142.313 -303.064)" fill="#6a2810"/>
        <path id="Trazado_117111" data-name="Trazado 117111" d="M1259.412,333.168c0,1.418-.57,2.217-1.274,2.217s-1.274-.8-1.274-2.217.571-2.179,1.274-2.179S1259.412,331.749,1259.412,333.168Z" transform="translate(-1184.16 -297.726)" fill="#6a2810"/>
        <path id="Trazado_117112" data-name="Trazado 117112" d="M1179.109,267.3c-4.122-5.424-6.724-3.038-8.565,0s-4.2.648-6.9-1.617-7.681-1.59-7.131,1.786-2.36,4.725-6.39,2.194-8.756,3.038-6.393,5.738,2.686,7.545-2.623,8.5-6.5-3.857-5.991-10.987,2.34-20.294,20.751-21.476,22.177,6.751,23.247,9.62A10.959,10.959,0,0,1,1179.109,267.3Z" transform="translate(-1097.841 -241.29)" fill="#a56a42"/>
        <path id="Trazado_117113" data-name="Trazado 117113" d="M1183.432,268.3c-1.593-1.787-2.931-2.305-4.068-2.084-1.352.264-2.426,1.566-3.309,3.031-.74,1.218-1.566,1.519-2.466,1.3h0c-1.238-.3-2.616-1.592-4.1-2.837a5.679,5.679,0,0,0-4.059-1.235c-1.686.161-3.018,1.151-2.727,2.934.368,2.262-.9,3.567-3.015,3.3a7.749,7.749,0,0,1-3.068-1.215,3.812,3.812,0,0,0-2.573-.579c-2.928.391-5.26,4.042-3.51,6.039,2.248,2.57,2.556,7.18-2.5,8.087a6.052,6.052,0,0,1-1.669.09c-3.634-.328-4.46-4.584-4.032-10.546.489-6.786,2.229-19.313,19.748-20.437q1.586-.1,3.028-.111h.05c14.013.207,17.1,6.762,18.041,9.265A9.658,9.658,0,0,1,1183.432,268.3Z" transform="translate(-1102.962 -243.218)" fill="#fe976a"/>
        <path id="Trazado_117114" data-name="Trazado 117114" d="M1181.916,266.31c-.123.615-.243,1-.243,1-1.543-2.032-2.876-2.968-4.033-3.185-1.934-.359-3.382,1.287-4.532,3.185a2.772,2.772,0,0,1-1.536,1.364h0c-1.554.44-3.368-1.3-5.366-2.982a5.92,5.92,0,0,0-3.21-1.3c-2.222-.2-4.282.848-3.92,3.084.32,1.972-.538,3.252-2.113,3.47a6.693,6.693,0,0,1-4.279-1.276,4.131,4.131,0,0,0-1.649-.608c-3.527-.471-6.786,4.012-4.743,6.346,2.363,2.7,2.686,7.545-2.623,8.5-.243.042-.475.074-.7.1-3.818-.345-4.687-4.817-4.237-11.083.513-7.13,2.342-20.294,20.752-21.476q1.666-.106,3.182-.116h.053c14.725.218,17.974,7.106,18.958,9.736A10.15,10.15,0,0,1,1181.916,266.31Z" transform="translate(-1100.404 -241.297)" fill="#a56a42"/>
        <path id="Trazado_117115" data-name="Trazado 117115" d="M1448.328,442.223c-1.691,3.122-6.839,4.894-8.948,5.063s-5.119,1.178-5.147,2.447l-.063,2.862-7.412-.724a11.439,11.439,0,0,0,.471-3.319,14.245,14.245,0,0,0-2.278-6.413c-2.194-3.544-.253-6.835,1.434-5.316s1.688,4.726,3.629,4.979,5.738-1.181,8.945-3.713,5.569-5.991,7-3.291c0,0,3.122-.422,2.194,3.122C1448.156,437.919,1450.019,439.1,1448.328,442.223Z" transform="translate(-1302.529 -370.563)" fill="#ffaf82"/>
        <path id="Trazado_117116" data-name="Trazado 117116" d="M1469.159,444.022a.527.527,0,0,1-.15-1.033c7.271-2.157,8.059-7.114,8.066-7.163a.528.528,0,0,1,1.045.149c-.033.231-.9,5.678-8.811,8.026A.527.527,0,0,1,1469.159,444.022Z" transform="translate(-1334.165 -371.665)" fill="#fe976a"/>
        <path id="Trazado_117117" data-name="Trazado 117117" d="M1478.995,452.956a.527.527,0,0,1-.064-1.051c5.112-.629,7.324-5.464,7.346-5.513a.528.528,0,0,1,.965.428c-.1.221-2.465,5.429-8.181,6.133A.549.549,0,0,1,1478.995,452.956Z" transform="translate(-1341.133 -379.25)" fill="#fe976a"/>
        <path id="Trazado_117118" data-name="Trazado 117118" d="M1106.342,573.533a.528.528,0,0,1-.527-.527v-22.53a.527.527,0,0,1,1.055,0v22.53A.528.528,0,0,1,1106.342,573.533Z" transform="translate(-1077.166 -452.824)" fill="#6a2810"/>
        <path id="Trazado_117119" data-name="Trazado 117119" d="M1290.819,566.1a.527.527,0,0,1-.526-.493l-1.685-25.59a.528.528,0,1,1,1.053-.069l1.685,25.59a.528.528,0,0,1-.492.561Z" transform="translate(-1206.646 -445.392)" fill="#6a2810"/>
      </g>
    </g>
  </g>
</svg>
