<svg xmlns="http://www.w3.org/2000/svg" xmlns:xlink="http://www.w3.org/1999/xlink" width="159.336" height="448.499" viewBox="0 0 159.336 448.499">
  <defs>
    <clipPath id="clip-path">
      <rect id="Rectángulo_37369" data-name="Rectángulo 37369" width="119.001" height="339.749" fill="none"/>
    </clipPath>
    <clipPath id="clip-path-2">
      <rect id="Rectángulo_37368" data-name="Rectángulo 37368" width="4.605" height="2.954" fill="none"/>
    </clipPath>
  </defs>
  <g id="Grupo_159039" data-name="Grupo 159039" transform="translate(-1248 -2172.5)">
    <g id="Grupo_157970" data-name="Grupo 157970" transform="translate(1248 2173.001)">
      <path id="Unión_14" data-name="Unión 14" d="M37.707,3.683l3.159,11.889H34.534A34.533,34.533,0,0,0,0,50.105V70.221a34.531,34.531,0,0,0,34.534,34.534h73.873a34.533,34.533,0,0,0,34.537-34.534V50.105a34.535,34.535,0,0,0-34.537-34.534H54.25L42.815,1.123A2.819,2.819,0,0,0,40.57,0,2.919,2.919,0,0,0,37.707,3.683Z" transform="translate(151.336 104.754) rotate(180)" fill="#fff7da" stroke="rgba(0,0,0,0)" stroke-miterlimit="10" stroke-width="1"/>
      <g id="Grupo_158099" data-name="Grupo 158099" transform="translate(0 108.25)">
        <path id="Trazado_114544" data-name="Trazado 114544" d="M145.013,357.161c22.113-10.032,45.047-23.568,53.953-46.205,9.884-25.123-.462-53.258-.213-80.264.2-21.393,7.111-42.054,12.551-62.741s9.436-42.668,3.823-63.309c-3.757-13.818-11.738-26.32-22.041-36.24C174.942,50.932,148.8,41.479,123.963,45.474s-47.4,22.2-54.663,46.348c-10.287,34.213,9.808,70.734,5.537,106.211-1.671,13.881-7.019,27.009-10.646,40.51a166.377,166.377,0,0,0-5.683,44.075c.136,22.773,5.892,47.069,22.835,62.234C98.434,360.149,123.868,366.754,145.013,357.161Z" transform="translate(-58.504 -26.053)" fill="#ffd947"/>
        <g id="Grupo_157545" data-name="Grupo 157545" transform="translate(20.256)">
          <g id="Grupo_159040" data-name="Grupo 159040" transform="translate(0 0)">
            <g id="Grupo_157543" data-name="Grupo 157543">
              <g id="Grupo_157542" data-name="Grupo 157542" clip-path="url(#clip-path)">
                <path id="Trazado_128754" data-name="Trazado 128754" d="M91.83,65.32s9.174-2.993,14.952,1.09,8,15.092,8,15.092l-17.954-.345Z" transform="translate(-6.625 -4.636)" fill="#5b413c"/>
                <path id="Trazado_128755" data-name="Trazado 128755" d="M106.28,95.665s14.835-11.191,18.645,2.25c4.1,14.481-3.856,23.178-3.856,23.178l-9.787-9.59Z" transform="translate(-7.668 -6.587)" fill="#5b413c"/>
                <path id="Trazado_128756" data-name="Trazado 128756" d="M73.5,62.966s21.566-11.552,38.758,16.519,6.809,61.769-8.35,70.274-32.521-2.208-32.521-2.208Z" transform="translate(-5.151 -4.373)" fill="#36251f"/>
                <path id="Trazado_128757" data-name="Trazado 128757" d="M12.4,334.588l-.569,8.067H25.281l.569-8.067Z" transform="translate(-0.854 -24.14)" fill="#ff9568"/>
                <path id="Trazado_128758" data-name="Trazado 128758" d="M23.7,163.312s-9.824,72.858.493,83.326c4.124,4.185,17,5.477,21.47-2.082,7.026-11.883,9.5-41.821,10.308-57.746Z" transform="translate(-1.405 -11.783)" fill="#36251f"/>
                <path id="Trazado_128759" data-name="Trazado 128759" d="M44.978,242.5s3.847,7.6-2.616,30.446c-4.934,17.443-15.443,54.918-15.443,54.918s-10.173,1.219-16.969-1.588l8.733-105.11Z" transform="translate(-0.718 -15.957)" fill="#36251f"/>
                <path id="Trazado_128760" data-name="Trazado 128760" d="M26.594,315.2a.628.628,0,0,1-.16-.02.647.647,0,0,1-.469-.788c.1-.382,9.69-38.281,12.383-47,2.666-8.627,3.82-25.314,3.832-25.482a.637.637,0,0,1,.053-.217c5.379-12.263,8.037-36.849,8.063-37.1a.656.656,0,0,1,.714-.577.648.648,0,0,1,.577.714c-.026.249-2.69,24.9-8.12,37.378-.112,1.611-1.254,17.172-3.879,25.663-2.683,8.684-12.268,46.55-12.365,46.932a.649.649,0,0,1-.629.49" transform="translate(-1.872 -14.72)" fill="#5b413c"/>
                <path id="Trazado_128761" data-name="Trazado 128761" d="M25.982,329.93A73.472,73.472,0,0,1,10.9,327.992a.649.649,0,0,1,.308-1.262c.094.023,9.439,2.273,16.782,1.846a.649.649,0,1,1,.077,1.3c-.683.04-1.38.058-2.082.058" transform="translate(-0.75 -23.572)" fill="#5b413c"/>
                <path id="Trazado_128762" data-name="Trazado 128762" d="M28.534,361.185c0,.113,0,.223-.006.331-.01.5-.032.954-.054,1.341-.051.853-.113,1.377-.113,1.377H.073a15.535,15.535,0,0,1-.032-2.718c.186-2.891,1.145-7.457,5.052-10.474,5.348-4.135,3.283-3.273,4.38-5.157.123-.21,1.086-3.413,1.189-3.633.92-1.958,1.766-2.883,6.835-2.883,6.722,0,7.313,3.261,8.031,4.98a32,32,0,0,1,1.119,3.993c.169.715.339,1.478.5,2.256.415,1.949.8,3.985,1.065,5.609a29.454,29.454,0,0,1,.317,4.977" transform="translate(0 -24.485)" fill="#ff9918"/>
                <path id="Trazado_128763" data-name="Trazado 128763" d="M30.474,361.88c0,.113,0,.223-.006.331-.01.5-.032.954-.054,1.341a7.9,7.9,0,0,1-2.939-3.81c-1.751-4.767.941-10.489,1.054-10.732l.057.028c.169.714.339,1.478.5,2.256-.637,1.947-1.37,5.219-.352,7.989a6.582,6.582,0,0,0,1.734,2.6" transform="translate(-1.94 -25.181)" fill="#dd6a18"/>
                <path id="Trazado_128764" data-name="Trazado 128764" d="M28.529,363.237c-.038,1.611-.167,2.719-.167,2.719H.072a15.616,15.616,0,0,1-.032-2.719Z" transform="translate(0 -26.207)" fill="#dd6a18"/>
                <path id="Trazado_128765" data-name="Trazado 128765" d="M19.258,348.711a.8.8,0,0,1-.2-.026,13.985,13.985,0,0,0-6.559-.135.807.807,0,0,1-.43-1.555,15.485,15.485,0,0,1,7.392.128.807.807,0,0,1-.2,1.588" transform="translate(-0.828 -25.008)" fill="#f4ece1"/>
                <path id="Trazado_128766" data-name="Trazado 128766" d="M19.62,345.478a.815.815,0,0,1-.2-.026,13.982,13.982,0,0,0-6.558-.135.807.807,0,0,1-.43-1.555,15.484,15.484,0,0,1,7.392.128.807.807,0,0,1-.2,1.588" transform="translate(-0.854 -24.775)" fill="#f4ece1"/>
                <path id="Trazado_128767" data-name="Trazado 128767" d="M17.954,351.465a.811.811,0,0,1-.2-.026,14.114,14.114,0,0,0-6.559-.135.807.807,0,0,1-.43-1.556,15.51,15.51,0,0,1,7.393.129.807.807,0,0,1-.2,1.588" transform="translate(-0.734 -25.207)" fill="#f4ece1"/>
                <path id="Trazado_128768" data-name="Trazado 128768" d="M16.422,354.6a.8.8,0,0,1-.2-.026,14.114,14.114,0,0,0-6.559-.135.807.807,0,0,1-.429-1.555,15.491,15.491,0,0,1,7.392.127.807.807,0,0,1-.2,1.588" transform="translate(-0.623 -25.433)" fill="#f4ece1"/>
                <path id="Trazado_128769" data-name="Trazado 128769" d="M81.793,334.862l1.308,9.814H95.279l-1.308-9.814Z" transform="translate(-5.901 -24.16)" fill="#ff9568"/>
                <path id="Trazado_128770" data-name="Trazado 128770" d="M124.287,364.474H79.95a6.24,6.24,0,0,1-.584-2.462c-.276-3.749.919-9.735,1.506-13.509.07-.441.131-.853.179-1.225a13.181,13.181,0,0,0,.131-1.541c0-3.079,2.727-2.553,2.727-2.553,4.487,4.4,9.566-2.2,12.533-.033,0,0,1.277.915,4.8,4.083s9.506,5.256,14.6,7.389c6.578,2.75,8.445,5.5,8.809,7.389a3.464,3.464,0,0,1-.364,2.462" transform="translate(-5.723 -24.725)" fill="#ff9918"/>
                <path id="Trazado_128771" data-name="Trazado 128771" d="M124.29,365.975H79.954a6.24,6.24,0,0,1-.584-2.462h45.284a3.464,3.464,0,0,1-.364,2.462" transform="translate(-5.726 -26.227)" fill="#dd6a18"/>
                <path id="Trazado_128772" data-name="Trazado 128772" d="M84.594,364.83H83.277a9.734,9.734,0,0,0,2.383-7.1,12.5,12.5,0,0,0-4.668-8.872c.071-.441.132-.853.179-1.225a13.584,13.584,0,0,1,5.545,10.044,10.757,10.757,0,0,1-2.122,7.152" transform="translate(-5.843 -25.081)" fill="#dd6a18"/>
                <path id="Trazado_128773" data-name="Trazado 128773" d="M102.077,350.238a.731.731,0,0,1-.175-1.44l2.77-.688a.731.731,0,1,1,.352,1.419l-2.77.688a.763.763,0,0,1-.176.021" transform="translate(-7.312 -25.114)" fill="#f4ece1"/>
                <path id="Trazado_128774" data-name="Trazado 128774" d="M99.441,347.608a.731.731,0,0,1-.175-1.44l2.77-.688a.73.73,0,1,1,.352,1.418l-2.77.688a.763.763,0,0,1-.176.021" transform="translate(-7.122 -24.924)" fill="#f4ece1"/>
                <path id="Trazado_128775" data-name="Trazado 128775" d="M105.061,351.973a.731.731,0,0,1-.175-1.44l2.77-.688a.73.73,0,1,1,.352,1.418l-2.77.688a.717.717,0,0,1-.176.022" transform="translate(-7.527 -25.239)" fill="#f4ece1"/>
                <path id="Trazado_128776" data-name="Trazado 128776" d="M108.046,353.641a.731.731,0,0,1-.175-1.44l2.77-.688a.73.73,0,1,1,.352,1.418l-2.77.688a.767.767,0,0,1-.176.021" transform="translate(-7.743 -25.36)" fill="#f4ece1"/>
                <path id="Trazado_128777" data-name="Trazado 128777" d="M111.3,355.183a.731.731,0,0,1-.175-1.44l2.77-.688a.731.731,0,1,1,.352,1.419l-2.77.688a.763.763,0,0,1-.176.021" transform="translate(-7.977 -25.471)" fill="#f4ece1"/>
                <path id="Trazado_128778" data-name="Trazado 128778" d="M114.83,356.5a.731.731,0,0,1-.175-1.44l2.77-.688a.73.73,0,1,1,.352,1.418l-2.77.688a.718.718,0,0,1-.176.022" transform="translate(-8.232 -25.566)" fill="#f4ece1"/>
                <path id="Trazado_128779" data-name="Trazado 128779" d="M88.835,172.485s2.607,59.7-1.187,73.9c-.882,3.3-18.663,3.023-22.928-3.032-8.409-11.938-10.784-38.617-11.466-55.913Z" transform="translate(-3.842 -12.445)" fill="#36251f"/>
                <path id="Trazado_128780" data-name="Trazado 128780" d="M64.875,246.2a142.124,142.124,0,0,0,1.116,27.791c2.63,17.936,13.262,56.181,13.262,56.181A75.635,75.635,0,0,0,94.041,328.8L90.375,225.862Z" transform="translate(-4.663 -16.296)" fill="#36251f"/>
                <path id="Trazado_128781" data-name="Trazado 128781" d="M78.855,331.642a.649.649,0,0,1-.035-1.3l15.375-.857a.65.65,0,0,1,.072,1.3l-15.375.856h-.037" transform="translate(-5.642 -23.772)" fill="#5b413c"/>
                <path id="Trazado_128782" data-name="Trazado 128782" d="M78.965,316.141a.649.649,0,0,1-.629-.492c-.095-.378-9.444-37.916-11.182-47.721-1.656-9.343,1.43-22.553,1.923-24.566-7.766-15.093-8.554-38.213-8.561-38.446a.65.65,0,0,1,.629-.669h.02a.65.65,0,0,1,.649.63c.007.231.794,23.282,8.528,38.1a.649.649,0,0,1,.054.46c-.037.145-3.672,14.616-1.964,24.26,1.731,9.762,11.069,47.255,11.164,47.634a.649.649,0,0,1-.473.786.617.617,0,0,1-.158.02" transform="translate(-4.366 -14.736)" fill="#5b413c"/>
                <path id="Trazado_128783" data-name="Trazado 128783" d="M42.506,84.739c-.016.05-.029.1-.045.147l-.038.122-.782,2.459-.779,2.49-1.53,5q-1.516,5-2.95,10.02-.546,1.921-1.079,3.84-.607,2.189-1.192,4.376-.239.9-.475,1.8c-.87,3.332-1.694,6.66-2.412,9.936-.352,1.633-.693,3.265-.966,4.836-.077.4-.131.778-.2,1.166l-.092.572-.073.527-.075.525c-.023.177-.039.36-.06.539-.036.36-.084.714-.108,1.086a58.084,58.084,0,0,0,.025,9.2,90.041,90.041,0,0,0,1.263,9.595c.3,1.605.63,3.209,1,4.8.186.8.378,1.588.579,2.37l.308,1.159.293,1.037.086.31a8.326,8.326,0,0,1-15.941,4.8l-.252-.786-.22-.708-.412-1.39c-.265-.92-.514-1.836-.754-2.755q-.72-2.752-1.313-5.533A108,108,0,0,1,12.5,144.941c-.2-1.935-.341-3.892-.408-5.883s-.06-4.008.058-6.07c.021-.512.07-1.034.109-1.551.021-.262.039-.52.066-.781l.086-.788.089-.787c.031-.256.067-.489.1-.736.069-.483.133-.98.212-1.449.29-1.914.633-3.747.989-5.571.716-3.639,1.515-7.182,2.354-10.7q.3-1.255.607-2.5c.2-.8.4-1.605.6-2.406q.7-2.786,1.427-5.556,1.365-5.2,2.81-10.36l1.46-5.159.747-2.579.766-2.6a9.349,9.349,0,0,1,17.935,5.282" transform="translate(-0.869 -5.249)" fill="#ff9568"/>
                <path id="Trazado_128784" data-name="Trazado 128784" d="M35.669,111.38q-.607,2.189-1.191,4.376l-17.353-5.071c.2-.8.4-1.605.6-2.406Z" transform="translate(-1.236 -7.812)" fill="#e0693e"/>
                <path id="Trazado_128785" data-name="Trazado 128785" d="M43.2,85.863l-6,25.34-22.281-4.969s5-26.713,11.716-31.727c3.72-2.776,7.02-3.379,10.875-1.377A11.372,11.372,0,0,1,43.2,85.863" transform="translate(-1.077 -5.191)" fill="#236676"/>
                <path id="Trazado_128786" data-name="Trazado 128786" d="M24.422,159.713s-3.247,19.651-1.043,27.518,55.651,14.732,59.111,7.46c6.674-14.029,3.978-29.864,3.978-29.864-24.338,5.608-44.45,2.66-62.045-5.114" transform="translate(-1.631 -11.523)" fill="#36251f"/>
                <path id="Trazado_128787" data-name="Trazado 128787" d="M55.39,165.088q-.014.327-.029.663c-.25,5.894-.559,14.24-.722,22.757-.01.469-.018.943-.028,1.412-.045,2.717-.076,5.439-.084,8.091a.684.684,0,0,0,.676.685h.006a.683.683,0,0,0,.684-.681c.007-2.562.037-5.186.081-7.808.007-.461.015-.922.025-1.384.161-8.569.471-16.988.725-22.934.012-.272.023-.538.034-.8Z" transform="translate(-3.934 -11.911)" fill="#5b413c"/>
                <path id="Trazado_128788" data-name="Trazado 128788" d="M60.777,165.088c-.017.365-.034.737-.051,1.12-.365,7.711-.922,18.628-1.291,21.205a1.526,1.526,0,0,1-.769,1.232,4.661,4.661,0,0,1-2.881.177,13.7,13.7,0,0,1-1.359-.315,16.024,16.024,0,0,1-1.9-.669.682.682,0,1,0-.548,1.25,17.439,17.439,0,0,0,2.425.831,13.618,13.618,0,0,0,1.362.287,9.446,9.446,0,0,0,1.3.112,4.582,4.582,0,0,0,2.272-.482,2.9,2.9,0,0,0,1.457-2.233c.379-2.659.941-13.591,1.3-21.322.02-.408.039-.8.057-1.194Z" transform="translate(-3.72 -11.911)" fill="#5b413c"/>
                <path id="Trazado_128789" data-name="Trazado 128789" d="M90.582,110.553c-.139,1.173-.258,2.62-.367,4.292q-.056.862-.111,1.794c-.306,5.2-.572,12.047-1.064,19.146-.044.636-.092,1.278-.143,1.917-1.145,15.282,3.367,20.6-3.1,22.074-39.259,8.932-55.293-.024-60.071-3.763-5.276-4.129-1.718-20.673.225-40.178.064-.66.125-1.308.19-1.944.52-5.308.907-9.665.918-12.211.041-11.833,1.59-24.447,3.361-29.854s21.494-9.7,21.494-9.7l21.867.927a77.094,77.094,0,0,1,14.71,12.191c7.826,8.146,3.556,22.883,2.089,35.307" transform="translate(-1.657 -4.482)" fill="#236676"/>
                <path id="Trazado_128790" data-name="Trazado 128790" d="M50.116,95.846,40.878,112.1l8.476.594-7.182,11.831,21.608-16.58-10.66-1.755,10.274-9.312Z" transform="translate(-2.949 -6.915)" fill="#104151"/>
                <path id="Trazado_128791" data-name="Trazado 128791" d="M47.117,63.411S43.3,87.647,41.009,98.179a70.9,70.9,0,0,1-10.231,24.114,74.851,74.851,0,0,1-6.439,8.05c-.559.058-2.072-6.407,1.746-15.336,7.036-16.453,12.48-45.9,14.676-49.6s6.357-1.991,6.357-1.991" transform="translate(-1.7 -4.546)" fill="#36251f"/>
                <path id="Trazado_128792" data-name="Trazado 128792" d="M36.5,84.847a21.06,21.06,0,0,1,7.043-.114,2.158,2.158,0,0,1,1.743,2.45,91.3,91.3,0,0,1-2.558,12.179,2.158,2.158,0,0,1-2.44,1.453L34.4,99.74A2.157,2.157,0,0,1,32.714,97a47.427,47.427,0,0,0,2-10.147A2.151,2.151,0,0,1,36.5,84.847" transform="translate(-2.354 -6.095)" fill="#5b413c"/>
                <path id="Trazado_128793" data-name="Trazado 128793" d="M72.168,78.716a27.665,27.665,0,0,1-14.977-4.438,28.635,28.635,0,0,1-7.365-6.647.649.649,0,0,1,1.055-.757c.1.135,9.921,13.489,27.009,9.944a.649.649,0,0,1,.264,1.271,29.424,29.424,0,0,1-5.986.627" transform="translate(-3.586 -4.805)" fill="#104151"/>
                <path id="Trazado_128794" data-name="Trazado 128794" d="M87.548,70.291A31.7,31.7,0,0,0,74.589,90.5c-2.553,13.783,6.979,32.757,17.86,38.158a13.975,13.975,0,0,1-.479,10.036s-23.488-7.154-25.636-36.955S80.92,67.17,80.92,67.17c2.114-.61,5.42,1.378,6.628,3.12" transform="translate(-4.772 -4.838)" fill="#36251f"/>
                <path id="Trazado_128795" data-name="Trazado 128795" d="M74.387,87.488a19.869,19.869,0,0,0-6.428-1.7,2.036,2.036,0,0,0-2.152,1.85,86.117,86.117,0,0,0-.415,11.739,2.035,2.035,0,0,0,1.906,1.884l5.642.35A2.037,2.037,0,0,0,75.1,99.486a44.778,44.778,0,0,1,.466-9.751,2.03,2.03,0,0,0-1.18-2.247" transform="translate(-4.712 -6.189)" fill="#5b413c"/>
                <path id="Trazado_128796" data-name="Trazado 128796" d="M26.97,109.734h-.02a.451.451,0,0,1-.43-.47c.007-.16.723-16,2.566-25.372a.45.45,0,0,1,.882.174c-1.831,9.306-2.542,25.08-2.55,25.238a.449.449,0,0,1-.449.431" transform="translate(-1.913 -6.027)" fill="#104151"/>
                <path id="Trazado_128797" data-name="Trazado 128797" d="M28.543,90.17a.45.45,0,0,1-.428-.31l-1.133-3.45a.45.45,0,0,1,.855-.28l1.133,3.45a.451.451,0,0,1-.288.568.46.46,0,0,1-.14.022" transform="translate(-1.945 -6.192)" fill="#104151"/>
                <path id="Trazado_128798" data-name="Trazado 128798" d="M69.806,161.29c-8.527.535-17.392-2.777-26-9.78a73.056,73.056,0,0,1-13.383-14.483.622.622,0,1,1,1.039-.685,71.856,71.856,0,0,0,13.154,14.221c7.363,5.985,18.815,12.279,31.568,8.281a.623.623,0,1,1,.372,1.189,28.5,28.5,0,0,1-6.753,1.256" transform="translate(-2.188 -9.817)" fill="#104151"/>
                <path id="Trazado_128799" data-name="Trazado 128799" d="M62.558,152.848a.57.57,0,0,1-.137-.006c-10.436-1.665-19.361-14.315-19.735-14.854a.622.622,0,0,1,1.022-.711c.089.127,9,12.754,18.91,14.335a.622.622,0,0,1-.058,1.235" transform="translate(-3.072 -9.885)" fill="#104151"/>
                <path id="Trazado_128800" data-name="Trazado 128800" d="M51.511,23.248s1.169-5.952-.356-10.891c-1.5-4.86-1.5-7.764-.565-8.626,2.947-2.715,5.718,3.89,5.718,3.89s-.778-6.14,1.772-6.312,4.333,5.778,4.333,5.778S61.938-1.629,65.277.272s4.569,7.715,4.569,7.715,11.465,1.91,15.682,9.6c0,0,3.451-3.676,5.7-1.508s-2.42,5.756-2.42,5.756,3.585,2.359,3.032,5.746-4.813,1.066-4.813,1.066.717,18.127-14.68,23.109S51.511,23.248,51.511,23.248" transform="translate(-3.603 0)" fill="#d65900"/>
                <path id="Trazado_128801" data-name="Trazado 128801" d="M56.211,56.409,55.472,61.9A16.293,16.293,0,0,0,57.11,63.5c8.16,6.923,18.745,1.136,18.745,1.136l2.559-19.024L58.859,55.122Z" transform="translate(-4.002 -3.291)" fill="#ff9568"/>
                <path id="Trazado_128802" data-name="Trazado 128802" d="M56.211,57.025l-.739,5.487a16.294,16.294,0,0,0,1.638,1.605c8.035-2.189,14.714-9.956,14.714-9.956L58.859,55.738Z" transform="translate(-4.002 -3.908)" fill="#36251f"/>
                <path id="Trazado_128803" data-name="Trazado 128803" d="M52.316,34.225s-2.456-3.843-4.572-.614-1.784,10.383,2.814,9.838Z" transform="translate(-3.354 -2.332)" fill="#e0693e"/>
                <path id="Trazado_128804" data-name="Trazado 128804" d="M48.077,42.242s-1.2,10.749,9.866,12.212a29.215,29.215,0,0,0,19.446-4.276l.013-.008.42-2.218,2.185-11.514,1.168-6.154s2.905-10.973-7.428-14.436c-7.55-2.53-14.99-2.22-19.2,1.33-.136.114-.269.233-.4.355a9.62,9.62,0,0,0-2.786,4.918L49.523,33.539l-.451,2.718Z" transform="translate(-3.466 -1.024)" fill="#ff9568"/>
                <path id="Trazado_128805" data-name="Trazado 128805" d="M64.849,41.839s-1.595,4.614-5.432,5.245c-4.368.718-5.165-4.742-5.165-4.742Z" transform="translate(-3.914 -3.019)" fill="#f4ece1"/>
                <path id="Trazado_128806" data-name="Trazado 128806" d="M58.025,49.145a2.321,2.321,0,0,1-.255-.093.355.355,0,0,1,.292-.648,2.276,2.276,0,0,0,2.242-.284.355.355,0,1,1,.444.555,2.931,2.931,0,0,1-2.722.469" transform="translate(-4.153 -3.466)" fill="#e0693e"/>
                <path id="Trazado_128807" data-name="Trazado 128807" d="M65.742,33.784c-.143,1.063.224,1.99.818,2.07s1.192-.717,1.336-1.781-.224-1.989-.818-2.07-1.193.717-1.336,1.781" transform="translate(-4.741 -2.309)" fill="#36251f"/>
                <path id="Trazado_128808" data-name="Trazado 128808" d="M54.406,32.259c-.143,1.063.224,1.99.818,2.07s1.192-.717,1.336-1.781-.224-1.989-.818-2.069-1.193.716-1.336,1.78" transform="translate(-3.923 -2.199)" fill="#36251f"/>
                <path id="Trazado_128809" data-name="Trazado 128809" d="M59.189,38.29a3.772,3.772,0,0,1-3.249-2.359.442.442,0,0,1,.054-.375c2.27-3.424,4.577-6.946,4.6-6.981a.441.441,0,0,1,.739.483c-.022.035-2.244,3.426-4.472,6.788a3.027,3.027,0,0,0,2.448,1.568.441.441,0,1,1-.118.875" transform="translate(-4.034 -2.047)" fill="#36251f"/>
                <path id="Trazado_128810" data-name="Trazado 128810" d="M69.813,19.743a2.591,2.591,0,0,1,2.173,2.428,4.188,4.188,0,0,0,1.759,3.062c3.111,2.617,2.1,5.5.994,7.864s3.207,7.573,7.045,1.857,2.793-18.99-6.2-20.825-21.375-.5-22.929,3.466a20.689,20.689,0,0,0-1.407,7.566,4.883,4.883,0,0,0,1.865-3.647c.231-2.593,2.154-3.369,5.207-3.369a106.712,106.712,0,0,1,11.488,1.6" transform="translate(-3.697 -0.961)" fill="#d65900"/>
                <g id="Grupo_157541" data-name="Grupo 157541" transform="translate(45.605 32.515)" opacity="0.8">
                  <g id="Grupo_157540" data-name="Grupo 157540" transform="translate(0)">
                    <g id="Grupo_157539" data-name="Grupo 157539" clip-path="url(#clip-path-2)">
                      <path id="Trazado_128811" data-name="Trazado 128811" d="M49.151,37.761c.271.064.558.117.853.157,1.964.264,3.644-.149,3.748-.923s-1.406-1.617-3.371-1.882q-.4-.053-.778-.07Z" transform="translate(-49.151 -35.043)" fill="#e0693e"/>
                    </g>
                  </g>
                </g>
                <path id="Trazado_128812" data-name="Trazado 128812" d="M64.984,38.531c-.1.774,1.406,1.616,3.373,1.881s3.645-.148,3.749-.922-1.406-1.616-3.373-1.881-3.646.148-3.749.922" transform="translate(-4.688 -2.708)" fill="#e0693e"/>
                <path id="Trazado_128813" data-name="Trazado 128813" d="M72.233,28.715h0a2.523,2.523,0,0,1-3.437.83A14.045,14.045,0,0,0,66.4,28.386,2.318,2.318,0,0,1,65.048,25.3s5.213.221,7.185,3.413" transform="translate(-4.68 -1.826)" fill="#d65900"/>
                <path id="Trazado_128814" data-name="Trazado 128814" d="M51.253,25.952h0a2.523,2.523,0,0,0,3.1,1.709,14.07,14.07,0,0,1,2.614-.485,2.317,2.317,0,0,0,2.121-2.617S54,23.395,51.253,25.952" transform="translate(-3.698 -1.753)" fill="#d65900"/>
                <path id="Trazado_128815" data-name="Trazado 128815" d="M76.565,47.826c.034.124,1,3.558,2.882,4.779l.012-.009.42-2.218a7.7,7.7,0,0,1-3.314-2.552" transform="translate(-5.524 -3.451)" fill="#36251f"/>
                <path id="Trazado_128816" data-name="Trazado 128816" d="M79.642,39.967s5.019-5.138,7.53-.232c2.069,4.043-4.079,13.025-8.714,9.041Z" transform="translate(-5.66 -2.714)" fill="#ff9568"/>
                <path id="Trazado_128817" data-name="Trazado 128817" d="M79.3,47.368l-.048-.008a.443.443,0,0,1-.322-.535,8.26,8.26,0,0,1,5.68-5.962.441.441,0,0,1,.215.855,7.374,7.374,0,0,0-5.039,5.319.442.442,0,0,1-.486.331" transform="translate(-5.694 -2.947)" fill="#36251f"/>
                <path id="Trazado_128818" data-name="Trazado 128818" d="M83.888,45.438a.437.437,0,0,1-.263-.135c-.339-.36-1.39-1.272-2.17-1.18a.441.441,0,0,1-.1-.877c1.358-.16,2.761,1.287,2.916,1.452a.441.441,0,0,1-.38.739" transform="translate(-5.841 -3.119)" fill="#36251f"/>
                <path id="Trazado_128819" data-name="Trazado 128819" d="M109.1,135.374l-.009.414c-.008.555-.037,1.1-.07,1.646-.07,1.089-.186,2.158-.337,3.209a49.193,49.193,0,0,1-3.274,11.695,66.031,66.031,0,0,1-5.282,10.113c-.992,1.582-2.06,3.1-3.163,4.6-.559.743-1.13,1.476-1.721,2.206-.294.366-.6.726-.91,1.091l-.477.552-.551.624a7.023,7.023,0,1,1-11.025-8.7c-.009,0,.01-.027.027-.059l.058-.1.129-.22.267-.464L83.3,161c.366-.653.722-1.321,1.069-1.995.7-1.342,1.351-2.714,1.967-4.084a58.731,58.731,0,0,0,3-8.259,38.555,38.555,0,0,0,.9-4.041q.159-1,.271-1.961c.07-.643.116-1.278.139-1.9s.027-1.232,0-1.823c-.015-.3-.031-.589-.058-.876l-.081-1.021c-.12-1.44-.283-2.939-.5-4.475s-.453-3.088-.718-4.659-.543-3.151-.842-4.736q-.465-2.419-.96-4.855-.3-1.485-.618-2.975c-.122-.577-.244-1.157-.371-1.736l-1.059-4.8L84.349,102l-1.126-4.8-1.136-4.734-.036-.15a10.26,10.26,0,1,1,19.954-4.788l0,.01.612,2.56c.2.842.383,1.68.572,2.52.376,1.678.726,3.359,1.073,5.042s.677,3.368.995,5.061.636,3.384.92,5.087q.164.956.323,1.918.333,2.007.639,4.029.327,2.166.614,4.349c.225,1.736.443,3.479.629,5.243s.341,3.546.467,5.359.21,3.663.235,5.581l.007.724Z" transform="translate(-5.827 -5.747)" fill="#ff9568"/>
                <path id="Trazado_128820" data-name="Trazado 128820" d="M107.618,116.092,87.975,118.66q-.3-1.485-.618-2.975l19.621-3.622q.333,2.007.639,4.029" transform="translate(-6.303 -8.085)" fill="#e0693e"/>
                <path id="Trazado_128821" data-name="Trazado 128821" d="M80.509,90,86.7,115.294l22.242-5.136s-5.2-26.675-11.954-31.639c-3.739-2.747-7.044-3.325-10.885-1.294A11.369,11.369,0,0,0,80.509,90" transform="translate(-5.784 -5.484)" fill="#236676"/>
                <path id="Trazado_128822" data-name="Trazado 128822" d="M87.1,115.491a.449.449,0,0,1-.437-.346L82.1,95.939a.45.45,0,0,1,.875-.209l4.561,19.207a.45.45,0,0,1-.334.542.441.441,0,0,1-.1.012" transform="translate(-5.922 -6.882)" fill="#104151"/>
                <path id="Trazado_128823" data-name="Trazado 128823" d="M83.518,101.194a.446.446,0,0,1-.254-.079l-2.788-1.909a.45.45,0,0,1,.508-.743l2.788,1.91a.45.45,0,0,1-.254.821" transform="translate(-5.792 -7.098)" fill="#104151"/>
                <path id="Trazado_128824" data-name="Trazado 128824" d="M87.864,192.1a143.824,143.824,0,0,1-10.912-9.784c.014-.03.022-.045.022-.045l-.042.024a49.217,49.217,0,0,1-3.6-4.165c.311-.588.591-1.1.817-1.487a20.573,20.573,0,0,1,5.427-5.583c1.455-.972,2.791-2.846,4.114-2.928,4.189-.262,9.572,3.27,9.564,5.472-.012,3.243-1.705,9.73-2.132,12.174-.173.987-1.03,4.079-2.077,7.332l-1.185-1.01" transform="translate(-5.291 -12.129)" fill="#ff9568"/>
                <path id="Trazado_128825" data-name="Trazado 128825" d="M90.324,195a.871.871,0,0,0-.276-.635L72.741,178.2a.857.857,0,0,0-1.168,0l-.013.011a.862.862,0,0,0-.006,1.262l17.309,16.161A.868.868,0,0,0,90.324,195" transform="translate(-5.143 -12.84)" fill="#5b413c"/>
                <path id="Trazado_128826" data-name="Trazado 128826" d="M28.42,164.815s-2.386,15.606-5.38,19.409c0,0-7.183-7.469-3.784-19.359,2.282-7.978,9.163-.05,9.163-.05" transform="translate(-1.323 -11.638)" fill="#ff9568"/>
              </g>
            </g>
          </g>
        </g>
      </g>
    </g>
    <path id="Trazado_136089" data-name="Trazado 136089" d="M36.42.732,31.381,5.771,26.387.732l4.994-4.994Zm-18.7,0L12.676,5.771,7.682.732l4.994-4.994Zm-18.7,0L-6.029,5.771-11.023.732l4.994-4.994Z" transform="translate(1315.022 2218.606)" fill="#12263f"/>
  </g>
</svg>
