<svg xmlns="http://www.w3.org/2000/svg" xmlns:xlink="http://www.w3.org/1999/xlink" width="1240" height="568" viewBox="0 0 1240 568">
  <defs>
    <clipPath id="clip-path">
      <rect id="Rect치ngulo_37932" data-name="Rect치ngulo 37932" width="1240" height="568" rx="13" transform="translate(180 741)" fill="#ff9fa3"/>
    </clipPath>
  </defs>
  <g id="Grupo_160439" data-name="Grupo 160439" transform="translate(-180 -2113)">
    <g id="Grupo_160438" data-name="Grupo 160438">
      <rect id="Rect치ngulo_37546" data-name="Rect치ngulo 37546" width="1240" height="568" transform="translate(180 2113)" fill="#a6bbff"/>
      <g id="Enmascarar_grupo_162" data-name="Enmascarar grupo 162" transform="translate(0 1372)" opacity="0.427" clip-path="url(#clip-path)">
        <g id="Grupo_160437" data-name="Grupo 160437" transform="translate(-36.464 312.292)">
          <g id="Grupo_160433" data-name="Grupo 160433" transform="translate(0 45.871)" style="mix-blend-mode: overlay;isolation: isolate">
            <path id="Trazado_138747" data-name="Trazado 138747" d="M319.494,891.236c93.21,95.377,189.535,187.252,287.7,277.5-42.445-95.957-88.2-190.386-128.5-287.349-45.677-109.925-98.782-259.762-41.188-375.065,131.244-262.818,463.013-4.933,585.106,127.356,13,14.1,25.422,28.826,38,43.374-43.626-106.829-82.9-216.6-72.529-332.019,14.258-158.7,159.741-196.77,284.989-123.022,134.495,79.164,242.524,216.154,332.716,340.57,76.611,105.669-98.685,206.269-174.7,102.109A1374.262,1374.262,0,0,0,1294.524,504.95q10.882,19.936,22,39.8c49,87.542,97.408,175.431,137.339,267.577,76.456,176.418,189.535,420.664,93.346,606.233-48.482,93.519-162.16,103.018-247.748,64.965-115.052-51.152-194.739-164.076-271.563-259.646-80.19-99.787-150.823-205.747-225.055-309.868-31.012-43.509-62-87.638-97.524-127.646-.812-.929-1.664-1.78-2.476-2.689l.89,2.805c19.714,61.289,45.057,120.1,70.73,179.068,47.746,109.713,109.345,225.19,126.834,344.556,15.457,105.553-27.279,223.855-154.228,216.194-119.347-7.2-214.994-122.152-294.779-198.918-96.615-92.978-191.508-187.794-286.42-282.512C66.755,945.966,221.583,791.081,319.494,891.236Z" transform="translate(-114.568 -166.444)" fill="#3c3fa7"/>
            <path id="Trazado_138748" data-name="Trazado 138748" d="M776.832,1564.385c46.837,0,86.594-16.444,115.516-47.94,40.2-43.78,57.574-115.091,46.489-190.754-14.452-98.646-57.478-193.133-99.072-284.486-9.963-21.88-19.83-43.548-29.154-64.984-8.841-20.333-18.147-41.691-27.375-63.784q8.474,11.81,16.773,23.486l5.495,7.719q28.932,40.569,57.342,81.37c53.415,76.224,108.648,155.06,168.389,229.388,8.725,10.853,17.489,21.938,26.349,33.14,68.505,86.632,146.142,184.814,252.43,232.057,94.757,42.078,218.864,30.3,272.762-73.728,96.867-186.865-7.72-427.319-84.1-602.886l-8.667-19.965c-22.461-51.867-47.65-102.5-74.367-152.893q9.287,12.1,18.224,24.376c46.992,64.384,129.291,63.417,181.738,25.266,43.374-31.553,67.712-90.211,24.26-150.146-96.286-132.811-203.948-266.649-338.578-345.891-74.715-43.974-156.492-51.112-218.806-19.095-54.866,28.187-88.7,83.962-95.26,157.072-7.7,85.742,10.814,167.809,37.648,246.1C925.527,510.753,741.8,373.1,594.4,393.959c-67.712,9.616-120.121,50.707-155.776,122.114C379.964,633.5,426.24,779.7,479.248,907.214c25.228,60.709,52.97,121.262,79.8,179.843l9.5,20.72c-79.842-74.87-151.268-144.613-216.813-211.667v.019c-32.405-33.178-73.573-45.366-115.806-34.4-46.373,12.072-86.013,51.4-98.627,97.911-11.569,42.658.252,84.33,33.314,117.315l10.795,10.757C271.276,1177.4,364.2,1270.149,457.29,1359.7c11.472,11.047,23.254,22.867,35.4,35.055C564.971,1467.21,654.912,1557.4,764.315,1564,768.532,1564.27,772.711,1564.385,776.832,1564.385Zm-55.5-780.832a18.265,18.265,0,0,0-9.363,2.5c-7.777,4.6-11.917,13.368-9.131,21.958l.909,2.825C724.4,875.1,751.353,937.027,775.13,991.66c9.421,21.649,19.385,43.51,29.426,65.565,40.472,88.915,82.337,180.848,96,274.077,9.267,63.3-4.8,124.222-36.7,158.968-23.66,25.769-56.317,37.435-97.2,35.113-94.719-5.726-175.393-86.594-246.568-157.961-12.343-12.363-24.318-24.377-35.965-35.6C391.281,1242.5,298.477,1149.893,208.73,1060.32l-10.776-10.756c-29.252-29.174-28.807-59.49-23.312-79.784,8.957-33.024,38.17-62.043,71.02-70.594,20.023-5.223,49.836-5.262,78.391,23.97v.019c84.679,86.613,179.03,177.618,288.471,278.2A19.348,19.348,0,0,0,643.3,1179.3c-16.038-36.274-32.56-72.316-49.082-108.358-26.678-58.271-54.286-118.515-79.241-178.584-49.662-119.444-93.443-255.506-41.75-358.989C503.276,473.163,544.7,440.1,599.853,432.285,737.269,412.822,930.518,560.859,1026.8,665.213c10.273,11.1,20.159,22.635,30.064,34.165l7.487,8.725a19.346,19.346,0,0,0,32.56-19.946c-41.536-101.761-81.254-210.525-71.156-323,5.417-60.263,31.147-103.869,74.406-126.1,50.455-25.924,118.3-19.173,181.506,18.011,128.5,75.663,233.044,205.843,326.873,335.27,29.638,40.9,11.337,76.495-15.69,96.15-36.6,26.6-93.79,29.735-127.724-16.792a1401,1401,0,0,0-138.48-162,19.353,19.353,0,0,0-30.7,22.925q10.94,20.023,22.113,39.969c49.6,88.644,97.389,175.683,136.449,265.817l8.687,20c73.284,168.447,173.613,399.151,85.24,569.649-42.93,82.821-144.536,90.908-222.714,56.181-97.563-43.354-168.854-133.508-237.784-220.7-8.919-11.26-17.76-22.442-26.562-33.373-58.928-73.341-113.775-151.635-166.841-227.356q-28.613-40.859-57.517-81.622l-5.494-7.7C802.407,872.6,772.3,830.352,738.2,791.911l-1.722-1.877A21.121,21.121,0,0,0,721.328,783.553ZM337.885,909.633h0Z" transform="translate(-132.979 -184.841)" fill="#3c3fa7"/>
            <path id="Trazado_138749" data-name="Trazado 138749" d="M174.29,232.6c71.272,143.239,111.492,311.164,48.869,465.121-9.248,22.77-46.683,12.807-37.3-10.292,58.774-144.555,22.055-300.583-44.98-435.309C129.813,229.915,163.185,210.279,174.29,232.6Z" transform="translate(1165.62 510.934)" fill="#3c3fa7"/>
            <path id="Trazado_138750" data-name="Trazado 138750" d="M156.745,343.733c.329-.038.638-.136.948-.193.542-1.045,1.025-2.187,1.2-2.5l.1-.116c.039-.155-.019-.039.039-.271,2.5-8.648,4.275-17.392,6.171-26.195q6.558-30.615,13.136-61.231c2.128-9.905,14.258-16.6,23.8-13.5,10.447,3.385,15.806,13.175,13.523,23.8q-7.429,34.62-14.877,69.26c-4.121,19.21-10.718,44.419-33.74,48.269-9.944,1.664-21.32-2.612-23.8-13.523C141.113,358.185,146.066,345.513,156.745,343.733Z" transform="translate(1124.41 808.145)" fill="#3c3fa7"/>
            <path id="Trazado_138751" data-name="Trazado 138751" d="M247.391,204.054c21.958-11.724,41.517,21.667,19.521,33.411-30.374,16.212-39.641,49.217-40.84,81.641-1.393,36.816,2.747,74.657,8.725,110.912a736.115,736.115,0,0,0,67.151,207.817c11.047,22.229-22.306,41.846-33.411,19.52-38.325-77.076-63.939-159.336-75.1-244.749C184.323,342.882,173.412,243.539,247.391,204.054Z" transform="translate(182.008 122.555)" fill="#3c3fa7"/>
          </g>
          <g id="Grupo_160436" data-name="Grupo 160436" transform="translate(45.878 0)">
            <g id="Grupo_160435" data-name="Grupo 160435">
              <g id="Grupo_160434" data-name="Grupo 160434">
                <path id="Trazado_138752" data-name="Trazado 138752" d="M317.112,888.871c93.21,95.377,189.534,187.252,287.717,277.482-42.446-95.938-88.219-190.386-128.517-287.329C430.636,769.1,377.549,619.262,435.123,503.959c37.667-75.429,91.852-107.969,153.292-112.934,151.118-12.212,344.762,145.954,431.815,240.29,13.02,14.084,25.421,28.806,38,43.374-43.606-106.83-82.879-216.6-72.529-332.02,14.258-158.7,159.742-196.77,284.989-123.042C1405.2,298.812,1513.211,435.8,1603.422,560.217c76.611,105.669-98.7,206.269-174.716,102.11a1375.832,1375.832,0,0,0-136.545-159.761q10.882,19.936,21.977,39.814c49,87.541,97.408,175.431,137.339,267.557,76.476,176.438,189.535,420.664,93.346,606.252-48.482,93.52-162.141,103.019-247.748,64.965-115.051-51.151-194.739-164.075-271.563-259.645-80.19-99.787-150.8-205.747-225.035-309.868-31.031-43.51-62.024-87.638-97.524-127.665-.813-.909-1.683-1.761-2.5-2.689l.89,2.824c19.714,61.289,45.076,120.1,70.729,179.068,47.766,109.693,109.345,225.17,126.834,344.556,15.477,105.553-27.279,223.855-154.228,216.193-119.328-7.2-214.975-122.152-294.759-198.918C353.29,1232.033,258.4,1137.2,163.484,1042.479,64.392,943.6,219.22,788.715,317.112,888.871Z" transform="translate(-112.195 -164.077)" fill="#a6bbff"/>
                <path id="Trazado_138753" data-name="Trazado 138753" d="M774.472,1562c46.837,0,86.575-16.425,115.5-47.921,40.2-43.78,57.574-115.09,46.489-190.773-14.432-98.627-57.458-193.114-99.072-284.486-9.944-21.88-19.81-43.529-29.155-64.964-8.841-20.333-18.147-41.691-27.375-63.784,5.649,7.855,11.24,15.709,16.773,23.486l5.494,7.7c19.288,27.046,38.325,54.228,57.362,81.37,53.4,76.244,108.629,155.079,168.37,229.388q13.087,16.309,26.349,33.16c68.505,86.613,146.141,184.795,252.43,232.057,94.777,42.078,218.864,30.277,272.762-73.747,96.867-186.846-7.719-427.3-84.079-602.886l-8.686-19.946c-22.461-51.867-47.65-102.5-74.347-152.893q9.257,12.1,18.224,24.356c46.972,64.4,129.271,63.436,181.719,25.285,43.374-31.554,67.712-90.211,24.26-150.146C1541.2,434.442,1433.539,300.6,1298.929,221.343c-74.735-43.955-156.492-51.093-218.825-19.075-54.866,28.188-88.683,83.943-95.26,157.053-7.7,85.742,10.814,167.829,37.667,246.1C923.148,508.383,739.436,370.735,592.037,391.59,524.326,401.2,471.9,442.3,436.242,513.7,377.6,631.135,423.88,777.315,476.869,904.845c25.228,60.688,52.97,121.261,79.8,179.823l9.5,20.72C486.33,1030.537,414.9,960.794,349.358,893.74h0c-32.4-33.179-73.573-45.348-115.806-34.378-46.373,12.072-86.013,51.4-98.608,97.911-11.588,42.658.232,84.31,33.294,117.3l10.8,10.776c89.863,89.688,182.783,182.415,275.877,271.988,11.472,11.046,23.255,22.867,35.423,35.055,72.258,72.452,162.2,162.644,271.6,169.24C766.172,1561.88,770.332,1562,774.472,1562Zm-55.5-780.832a18.236,18.236,0,0,0-9.363,2.515c-7.8,4.6-11.937,13.349-9.151,21.958l.91,2.824c20.661,64.249,47.611,126.2,71.387,180.829,9.422,21.629,19.386,43.49,29.426,65.564,40.491,88.916,82.356,180.848,96.015,274.058,9.267,63.3-4.8,124.222-36.719,158.987-23.641,25.749-56.317,37.435-97.2,35.113-94.72-5.726-175.393-86.593-246.549-157.961-12.343-12.382-24.337-24.4-35.983-35.6-92.843-89.322-185.647-181.932-275.393-271.5l-10.776-10.776c-29.231-29.155-28.806-59.471-23.293-79.784,8.958-33,38.151-62.043,71.02-70.575,20-5.223,49.817-5.262,78.372,23.97h0C406.352,1007.4,500.7,1098.4,610.145,1199a19.348,19.348,0,0,0,30.78-22.074c-16.038-36.274-32.56-72.316-49.062-108.377-26.7-58.252-54.285-118.5-79.261-178.566-49.642-119.443-93.442-255.5-41.749-359.008,30.064-60.186,71.484-93.248,126.621-101.084C734.89,410.453,928.158,558.49,1024.444,662.824c10.254,11.124,20.139,22.654,30.045,34.165l7.506,8.744a19.353,19.353,0,0,0,32.56-19.965C1053,584.027,1013.282,475.243,1023.38,362.783c5.417-60.283,31.147-103.889,74.406-126.118,50.474-25.9,118.3-19.152,181.506,18.031,128.517,75.644,233.044,205.843,326.873,335.27,29.658,40.9,11.337,76.475-15.69,96.131-36.6,26.621-93.79,29.754-127.724-16.774a1397.532,1397.532,0,0,0-138.48-162,19.34,19.34,0,0,0-30.683,22.906q10.94,20.052,22.093,39.989c49.623,88.644,97.389,175.683,136.468,265.816l8.686,20c73.264,168.447,173.594,399.151,85.22,569.63-42.929,82.84-144.535,90.927-222.713,56.2-97.563-43.355-168.854-133.528-237.784-220.7q-13.378-16.918-26.543-33.391c-58.948-73.323-113.794-151.616-166.861-227.338-19.076-27.239-38.17-54.5-57.516-81.641l-5.495-7.681c-29.116-40.878-59.219-83.15-93.307-121.571l-1.741-1.877A21.1,21.1,0,0,0,718.968,781.164Zm-383.442,126.1h0Z" transform="translate(-130.608 -182.469)" fill="#6b8dfc"/>
              </g>
              <path id="Trazado_138754" data-name="Trazado 138754" d="M171.913,230.237C243.2,373.476,283.4,541.382,220.8,695.359c-9.267,22.751-46.7,12.807-37.319-10.292,58.793-144.574,22.074-300.582-44.98-435.309C127.455,227.529,160.808,207.912,171.913,230.237Z" transform="translate(1167.989 513.303)" fill="#6b8dfc"/>
              <path id="Trazado_138755" data-name="Trazado 138755" d="M154.373,341.362c.329-.039.638-.135.948-.193.542-1.064,1.045-2.186,1.219-2.5l.077-.116c.039-.155-.02-.058.039-.29,2.5-8.628,4.3-17.392,6.171-26.176q6.587-30.615,13.136-61.23c2.128-9.9,14.258-16.6,23.815-13.5,10.427,3.366,15.786,13.175,13.5,23.8l-14.858,69.24c-4.14,19.23-10.737,44.438-33.759,48.288-9.944,1.645-21.32-2.611-23.8-13.523C138.741,355.814,143.713,343.142,154.373,341.362Z" transform="translate(1126.774 810.518)" fill="#6b8dfc"/>
              <path id="Trazado_138756" data-name="Trazado 138756" d="M245.02,201.683c21.958-11.724,41.536,21.668,19.521,33.411-30.374,16.212-39.621,49.217-40.84,81.622-1.393,36.816,2.747,74.676,8.725,110.931a736.1,736.1,0,0,0,67.151,207.817c11.066,22.228-22.306,41.846-33.411,19.52-38.306-77.095-63.94-159.355-75.1-244.749C181.952,340.492,171.04,241.149,245.02,201.683Z" transform="translate(184.371 124.927)" fill="#6b8dfc"/>
            </g>
          </g>
        </g>
      </g>
    </g>
  </g>
</svg>
