<svg xmlns="http://www.w3.org/2000/svg" width="165.169" height="445.499" viewBox="0 0 165.169 445.499">
  <g id="Grupo_159038" data-name="Grupo 159038" transform="translate(-199 -2174.5)">
    <g id="Grupo_157971" data-name="Grupo 157971" transform="translate(199 2174.999)">
      <g id="Grupo_157495" data-name="Grupo 157495" transform="translate(0 104.02)">
        <g id="Grupo_157493" data-name="Grupo 157493" transform="translate(0 0)">
          <path id="Trazado_114544" data-name="Trazado 114544" d="M131.147,356.368C109.09,346.361,86.214,332.86,77.331,310.28c-9.859-25.059.461-53.123.213-80.06-.2-21.339-7.094-41.947-12.52-62.582s-9.412-42.56-3.813-63.148C64.959,90.707,72.92,78.236,83.2,68.341c18.1-17.425,44.172-26.854,68.947-22.869s47.282,22.143,54.525,46.23c10.261,34.126-9.783,70.555-5.523,105.941,1.667,13.846,7,26.94,10.619,40.408a165.955,165.955,0,0,1,5.669,43.963c-.135,22.715-5.877,46.95-22.778,62.076C177.608,359.349,152.239,365.937,131.147,356.368Z" transform="translate(-55.606 -44.565)" fill="#ffd947"/>
          <g id="Grupo_157496" data-name="Grupo 157496" transform="translate(0 20.371)">
            <g id="Grupo_83653" data-name="Grupo 83653" transform="translate(87.936 29.213)">
              <path id="Trazado_117567" data-name="Trazado 117567" d="M464.068,109.848s16.233,12.243,17.442,27.113c1.828,22.5-23.771,12.659-26.583-1.688S464.068,109.848,464.068,109.848Z" transform="translate(-454.498 -109.848)"/>
            </g>
            <g id="Grupo_83654" data-name="Grupo 83654" transform="translate(22.319 137.58)">
              <path id="Trazado_117568" data-name="Trazado 117568" d="M507.38,179.328l-8.518,26.63,12.761,1.5,5.081-22.317Z" transform="translate(-498.862 -179.328)" fill="#684c41"/>
            </g>
            <g id="Grupo_83662" data-name="Grupo 83662" transform="translate(19.754 120.233)">
              <path id="Trazado_117576" data-name="Trazado 117576" d="M544.2,187.014s14.546,43.209,20.759,79.784-1.683,83.768-12.566,91.579-72.378,37.481-100.727-8.157-9.551-142.771,5.555-167.856C469.047,162.73,544.2,187.014,544.2,187.014Z" transform="translate(-436.984 -174.699)" fill="#393a6f"/>
            </g>
            <g id="Grupo_83663" data-name="Grupo 83663" transform="translate(32.806 50.093)">
              <path id="Trazado_117577" data-name="Trazado 117577" d="M529.833,215.385v11.3s-28.646,6.564-52.155,4.876-32.3-5.815-32.3-5.815l-9.992-57.386,30.037-42.27,24.563-1.988,59.891,43.414L535.25,207.184Z" transform="translate(-435.387 -124.106)" fill="#7772d3"/>
            </g>
            <g id="Grupo_83664" data-name="Grupo 83664" transform="translate(57.717)">
              <path id="Trazado_117578" data-name="Trazado 117578" d="M502.617,122.9a20.686,20.686,0,0,0,4.171-16.5c-1.144-6.8-4.171-9-4.171-9s4.609-9.283-9.113-8.719-21.8,7.3-21.8,7.3-6.272-3.08-9.085,4.233,0,18.1,0,18.1Z" transform="translate(-461.372 -88.647)"/>
            </g>
            <g id="Grupo_83665" data-name="Grupo 83665" transform="translate(58.453 73.698)">
              <path id="Trazado_117579" data-name="Trazado 117579" d="M508.3,190.422l-11.115-51.76H458.543l8.711,54.816Z" transform="translate(-458.543 -138.662)" fill="#ada095"/>
            </g>
            <g id="Grupo_83666" data-name="Grupo 83666" transform="translate(63.52 72.345)">
              <path id="Trazado_117580" data-name="Trazado 117580" d="M461.366,247.813c5.468,3.409,11.967,0,11.967,0a204.085,204.085,0,0,0,24.929-56.744c.135-.506.253-1.013.371-1.519a141.883,141.883,0,0,0,3.612-20.237c.067-.456.1-.895.152-1.35.759-8.186,1.215-15,1.418-20.676h-6.3l-1.857-8.625h-4.507c-.169,2.7-.388,5.587-.692,8.625-.557,5.62-1.367,11.747-2.532,18.144a175.145,175.145,0,0,1-7.089,26.921q-.506,1.468-1.063,2.937c-14.262,37.52-21.25,42.01-21.25,42.01S455.374,244.049,461.366,247.813Z" transform="translate(-457.7 -138.662)" fill="#7c6053"/>
            </g>
            <g id="Grupo_83667" data-name="Grupo 83667" transform="translate(62.849 73.698)">
              <path id="Trazado_117581" data-name="Trazado 117581" d="M455.94,138.662l8.709,54.82,15.106-1.131,17.418-1.283,8.524-.641-.557-2.565-3.983-18.549-4.726-22.026-1.857-8.625Z" transform="translate(-455.94 -138.662)" fill="#c3b8ae"/>
            </g>
            <g id="Grupo_83668" data-name="Grupo 83668" transform="translate(84.798 81.876)">
              <path id="Trazado_117582" data-name="Trazado 117582" d="M489.866,179.78l-9.754-36.007H447.046l9.347,43.422Z" transform="translate(-447.046 -143.773)" fill="#f4eab3"/>
            </g>
            <g id="Grupo_83669" data-name="Grupo 83669" transform="translate(89.855 81.876)">
              <path id="Trazado_117583" data-name="Trazado 117583" d="M444.05,143.772l3.9,18.144,5.435,25.283,5.266-1.165,7.6-1.688,20.625-4.574-9.756-36Z" transform="translate(-444.05 -143.772)" fill="#fefce5"/>
            </g>
            <g id="Grupo_83670" data-name="Grupo 83670" transform="translate(97.234 109.249)">
              <path id="Trazado_117584" data-name="Trazado 117584" d="M472.774,162.518s-12.4-1.284-15.028-1.284-6.159,6.161-6.159,6.161l-7.867,2.272,8.993,25.3s18.71,2.432,26.443-6.564C482.057,185.022,472.774,162.518,472.774,162.518Z" transform="translate(-443.72 -161.234)" fill="#f27e64"/>
            </g>
            <g id="Grupo_83671" data-name="Grupo 83671" transform="translate(87.406 51.385)">
              <path id="Trazado_117585" data-name="Trazado 117585" d="M424.8,124.773s23.51.562,47.327,20.441,34.131,39.569,29.255,56.824-35.444,18-35.444,18l-9-35.632,23.535-15.378Z" transform="translate(-424.798 -124.773)" fill="#7772d3"/>
            </g>
            <g id="Grupo_83672" data-name="Grupo 83672" transform="translate(71.553 110.818)">
              <path id="Trazado_117586" data-name="Trazado 117586" d="M453,167.82s7.315-3.907,10.878-4.839a20.51,20.51,0,0,1,5.917-.716l1.129,5.249s11.707,2.555,19.958,6.68,6.751,7.877,6.751,7.877,5.251,3.376,3,5.625-10.878,0-10.878,0,10.878,4.127,6.377,6.564-14.416,1.688-14.416,1.688S460.127,199.7,453,192.2,453,167.82,453,167.82Z" transform="translate(-449.832 -162.253)" fill="#ff9280"/>
            </g>
            <g id="Grupo_83676" data-name="Grupo 83676" transform="translate(68.838 38.467)">
              <g id="Grupo_83675" data-name="Grupo 83675" transform="translate(0)">
                <g id="Grupo_83674" data-name="Grupo 83674">
                  <g id="Grupo_83673" data-name="Grupo 83673">
                    <path id="Trazado_117587" data-name="Trazado 117587" d="M468.3,115.64l.42,16.75s3.141,4.739,12.961,5.291c7.315.41,9.533-3.4,9.533-3.4l-2.137-14.613-17.793-3.448Z" transform="translate(-468.296 -115.64)" fill="#f27e64"/>
                  </g>
                </g>
              </g>
            </g>
            <g id="Grupo_83677" data-name="Grupo 83677" transform="translate(0 51.178)">
              <path id="Trazado_117588" data-name="Trazado 117588" d="M542.163,124.773s-40.7,1.5-61.136,34.318-4.314,62.449,27.755,68.451,48.759-2.814,48.759-2.814L549.9,187.41l-16.448-2.437-16.08-19.6Z" transform="translate(-471.942 -124.773)" fill="#7772d3"/>
            </g>
            <g id="Grupo_83678" data-name="Grupo 83678" transform="translate(96.977 53.941)">
              <path id="Trazado_117589" data-name="Trazado 117589" d="M457.6,147.61h4.506l1.857,8.625h6.3c.912-24-2.278-27.562-2.278-27.562l-10.127-3.021A194.946,194.946,0,0,1,457.6,147.61Z" transform="translate(-457.603 -125.652)" fill="#7f6754"/>
            </g>
            <g id="Grupo_83682" data-name="Grupo 83682" transform="translate(68.837 44.535)">
              <g id="Grupo_83681" data-name="Grupo 83681" transform="translate(0)">
                <g id="Grupo_83680" data-name="Grupo 83680">
                  <g id="Grupo_83679" data-name="Grupo 83679">
                    <path id="Trazado_117590" data-name="Trazado 117590" d="M468.844,115.034a5.535,5.535,0,0,0,.527,1.605c3.958,8.272,17.236,11.423,21.462,11.695l-1.212-8.247Z" transform="translate(-468.844 -115.034)"/>
                  </g>
                </g>
              </g>
            </g>
            <g id="Grupo_83686" data-name="Grupo 83686" transform="translate(56.718 5.34)">
              <g id="Grupo_83685" data-name="Grupo 83685">
                <g id="Grupo_83684" data-name="Grupo 83684">
                  <g id="Grupo_83683" data-name="Grupo 83683">
                    <path id="Trazado_117591" data-name="Trazado 117591" d="M499.561,97.784s9.317,20.782,6.145,32.538-13.874,10.012-20.286,7.808a21.163,21.163,0,0,1-9.418-6.1,9.012,9.012,0,0,1-10-3.431c-4.045-5.514-1.649-11.913,1.747-13.406s7.472.928,7.472.928l-3.236-6.034S485.061,79.141,499.561,97.784Z" transform="translate(-463.885 -91.811)" fill="#f27e64"/>
                  </g>
                </g>
              </g>
            </g>
            <g id="Grupo_83690" data-name="Grupo 83690" transform="translate(62.843 2.299)">
              <g id="Grupo_83689" data-name="Grupo 83689">
                <g id="Grupo_83688" data-name="Grupo 83688">
                  <g id="Grupo_83687" data-name="Grupo 83687">
                    <path id="Trazado_117592" data-name="Trazado 117592" d="M471.3,117.363s8.974,1.811,15.209-8.176S492.173,95.1,492.173,95.1l6.213,10.311s1.387-7.15-1.472-11.707-5.826-3.612-5.826-3.612L471.3,95.035l-5.21,15.86Z" transform="translate(-466.09 -90.01)"/>
                  </g>
                </g>
              </g>
            </g>
            <g id="Grupo_83691" data-name="Grupo 83691" transform="translate(89.216 27.932)">
              <path id="Trazado_117593" data-name="Trazado 117593" d="M470.241,115.071a.635.635,0,0,0,.606-.447c1.362-4.451-1.786-8.969-1.921-9.16a.633.633,0,1,0-1.033.733c.029.042,2.922,4.206,1.744,8.058a.631.631,0,0,0,.6.817Z" transform="translate(-467.777 -105.197)"/>
            </g>
            <g id="Grupo_83692" data-name="Grupo 83692" transform="translate(60.876 32.154)">
              <path id="Trazado_117594" data-name="Trazado 117594" d="M488.789,114.955a.634.634,0,0,0,.461-1.068l-5.686-5.992a.634.634,0,0,0-.92.873l5.686,5.99A.63.63,0,0,0,488.789,114.955Z" transform="translate(-482.469 -107.699)"/>
            </g>
            <g id="Grupo_83693" data-name="Grupo 83693" transform="translate(60.558 35.944)">
              <path id="Trazado_117595" data-name="Trazado 117595" d="M484.339,111.818a.636.636,0,0,0,.1-.008l3.921-.606a.63.63,0,0,0,.526-.721.621.621,0,0,0-.722-.53l-3.919.606a.633.633,0,0,0,.1,1.259Z" transform="translate(-483.706 -109.945)"/>
            </g>
            <g id="Grupo_83694" data-name="Grupo 83694" transform="translate(80.526 37.524)">
              <path id="Trazado_117596" data-name="Trazado 117596" d="M473.89,117.263a11.589,11.589,0,0,0,3.713-.758.632.632,0,0,0,.162-1.089l-5.605-4.4a.633.633,0,0,0-.952.208c-.068.13-1.626,3.207.091,5.114A3.379,3.379,0,0,0,473.89,117.263Zm2.15-1.592c-1.295.334-3.1.591-3.8-.181-.741-.825-.474-2.144-.2-2.96Z" transform="translate(-470.496 -110.881)"/>
            </g>
            <g id="Grupo_83695" data-name="Grupo 83695" transform="translate(91.36 18.807)">
              <path id="Trazado_117597" data-name="Trazado 117597" d="M469.922,101.7a.633.633,0,0,0,.108-1.257l-3.706-.645a.634.634,0,0,0-.218,1.249l3.708.645A.8.8,0,0,0,469.922,101.7Z" transform="translate(-465.582 -99.79)"/>
            </g>
            <g id="Grupo_83696" data-name="Grupo 83696" transform="translate(79.662 18.807)">
              <path id="Trazado_117598" data-name="Trazado 117598" d="M471.741,104.133a.625.625,0,0,0,.287-.069l6.078-3.079a.633.633,0,1,0-.574-1.127l-6.078,3.077a.634.634,0,0,0,.287,1.2Z" transform="translate(-471.108 -99.789)"/>
            </g>
            <g id="Grupo_83697" data-name="Grupo 83697" transform="translate(45.429 29.168)">
              <path id="Trazado_117599" data-name="Trazado 117599" d="M491.406,109.848s-12.942,11.219-11.114,29.5,19.96,15.938,23.768,9.266c5.769-10.11-.539-28.99-.539-28.99S492.4,121.489,491.406,109.848Z" transform="translate(-480.114 -109.848)"/>
            </g>
            <g id="Grupo_83698" data-name="Grupo 83698" transform="translate(93.91 22.833)">
              <path id="Trazado_117600" data-name="Trazado 117600" d="M467.372,108.625a.652.652,0,0,0,.186-.029.632.632,0,0,0,.419-.79l-1.058-3.445.944-1.153a.632.632,0,1,0-.979-.8l-1.158,1.414a.628.628,0,0,0-.115.586l1.158,3.767A.632.632,0,0,0,467.372,108.625Z" transform="translate(-465.582 -102.176)"/>
            </g>
            <g id="Grupo_83699" data-name="Grupo 83699" transform="translate(83.367 23.394)">
              <path id="Trazado_117601" data-name="Trazado 117601" d="M473.357,109.407a.65.65,0,0,0,.186-.027.633.633,0,0,0,.419-.792l-1.055-3.435,1.372-1.6a.633.633,0,1,0-.962-.822l-1.6,1.867a.631.631,0,0,0-.123.6l1.158,3.767A.631.631,0,0,0,473.357,109.407Z" transform="translate(-471.567 -102.509)"/>
            </g>
            <g id="Grupo_83700" data-name="Grupo 83700" transform="translate(104.468 113.019)">
              <path id="Trazado_117602" data-name="Trazado 117602" d="M453.645,166.692a.587.587,0,0,0,.12-.012l11.815-2.25a.631.631,0,0,0,.5-.741.624.624,0,0,0-.739-.5l-11.815,2.25a.633.633,0,0,0,.118,1.254Z" transform="translate(-453.012 -163.175)"/>
            </g>
            <g id="Grupo_83701" data-name="Grupo 83701" transform="translate(85.435 114.07)">
              <path id="Trazado_117603" data-name="Trazado 117603" d="M474.6,167.053a.632.632,0,0,0,.181-1.239l-6.579-1.946a.633.633,0,0,0-.358,1.213l6.578,1.946A.65.65,0,0,0,474.6,167.053Z" transform="translate(-467.392 -163.843)"/>
            </g>
            <g id="Grupo_83702" data-name="Grupo 83702" transform="translate(101.469 124.246)">
              <path id="Trazado_117604" data-name="Trazado 117604" d="M469.25,176.506a.634.634,0,0,0,.176-1.242l-16.755-4.841a.633.633,0,0,0-.353,1.215l16.755,4.842A.654.654,0,0,0,469.25,176.506Z" transform="translate(-451.862 -170.398)"/>
            </g>
            <g id="Grupo_83703" data-name="Grupo 83703" transform="translate(101.468 131.932)">
              <path id="Trazado_117605" data-name="Trazado 117605" d="M466.7,179.627a.633.633,0,0,0,.177-1.241l-10.5-3.073a.632.632,0,1,0-.354,1.214l10.5,3.075A.6.6,0,0,0,466.7,179.627Z" transform="translate(-455.567 -175.287)"/>
            </g>
            <g id="Grupo_83704" data-name="Grupo 83704" transform="translate(71.172 55.375)">
              <path id="Trazado_117606" data-name="Trazado 117606" d="M478.816,130.9a15.65,15.65,0,0,0,10.12-3.5.633.633,0,0,0-.871-.92c-.3.284-7.5,6.853-19.2.287a.633.633,0,0,0-.619,1.1A21.485,21.485,0,0,0,478.816,130.9Z" transform="translate(-467.922 -126.312)" fill="#fff"/>
            </g>
            <g id="Grupo_83705" data-name="Grupo 83705" transform="translate(25.702 104.029)">
              <path id="Trazado_117607" data-name="Trazado 117607" d="M521.646,163.127a.633.633,0,0,0,.123-1.254c-.223-.046-22.443-4.419-35.3-4.419a.633.633,0,0,0,0,1.266c12.729,0,34.83,4.35,35.051,4.393A.642.642,0,0,0,521.646,163.127Z" transform="translate(-485.839 -157.454)" fill="#fff"/>
            </g>
            <g id="Grupo_83706" data-name="Grupo 83706" transform="translate(28.146 96.102)">
              <path id="Trazado_117608" data-name="Trazado 117608" d="M511.577,163.5a.631.631,0,0,0,.5-1.021c-.969-1.246-9.6-12.1-14.164-9.676a1.583,1.583,0,0,0-.986,1.514c.147,3.023,11.065,7.757,14.41,9.136A.625.625,0,0,0,511.577,163.5Zm-12.159-9.791c2.569,0,6.873,3.943,10.009,7.546-5.725-2.555-11.172-5.669-11.236-7,0-.039-.009-.16.317-.334A1.907,1.907,0,0,1,499.418,153.714Z" transform="translate(-496.924 -152.455)" fill="#fff"/>
            </g>
            <g id="Grupo_83707" data-name="Grupo 83707" transform="translate(127.871 93.242)">
              <path id="Trazado_117609" data-name="Trazado 117609" d="M438.146,161.407a.629.629,0,0,0,.456-.194c.074-.076,7.494-7.72,14.264-9.344a.634.634,0,0,0-.3-1.232c-7.129,1.713-14.566,9.374-14.88,9.7a.63.63,0,0,0,.019.894A.62.62,0,0,0,438.146,161.407Z" transform="translate(-437.512 -150.62)" fill="#fff"/>
            </g>
            <g id="Grupo_83708" data-name="Grupo 83708" transform="translate(135.159 88.126)">
              <path id="Trazado_117610" data-name="Trazado 117610" d="M439.8,157.237a.634.634,0,0,0,.446-.184c.5-.491,4.834-4.878,4.679-7.695a2.163,2.163,0,0,0-.82-1.63,1.528,1.528,0,0,0-1.578-.287c-2.1.846-3.1,7.163-3.354,9.079a.633.633,0,0,0,.628.717Zm3.268-8.638a.42.42,0,0,1,.248.12.906.906,0,0,1,.344.709c.076,1.365-1.526,3.59-2.9,5.2.562-2.937,1.448-5.69,2.235-6.009A.175.175,0,0,1,443.066,148.6Z" transform="translate(-439.165 -147.333)" fill="#fff"/>
            </g>
            <g id="Grupo_83711" data-name="Grupo 83711" transform="translate(61.191 168.196)">
              <path id="Trazado_117613" data-name="Trazado 117613" d="M492.854,205.9s2.788,43.127.679,45.377-12.637,3-12.637,3l-6.005-22.129,12.78-32.54Z" transform="translate(-474.89 -199.605)" fill="#684c41"/>
            </g>
            <g id="Grupo_83713" data-name="Grupo 83713" transform="translate(6.568 153.544)">
              <path id="Trazado_117615" data-name="Trazado 117615" d="M548.348,206.326s-3.688,30.193-5.563,30.193-65.263-11.627-66.764-13.128,3.75-32.631,6.377-33.382,61.887,10.127,61.887,10.127Z" transform="translate(-475.757 -189.973)" fill="#7c6053"/>
            </g>
            <g id="Grupo_83714" data-name="Grupo 83714" transform="translate(6.352 181.762)">
              <path id="Trazado_117616" data-name="Trazado 117616" d="M483.438,207.995s-5.781,26.256-4.392,27.38S537.025,248.5,539.675,248.5s6.775-32.63,6.775-32.63Z" transform="translate(-478.831 -207.995)" fill="#7c6053"/>
            </g>
            <g id="Grupo_83715" data-name="Grupo 83715" transform="translate(11.076 186.071)">
              <path id="Trazado_117617" data-name="Trazado 117617" d="M535.027,220.751a.633.633,0,0,0,.125-1.254l-46.744-9.418a.619.619,0,0,0-.746.495.632.632,0,0,0,.494.746l46.744,9.418A.549.549,0,0,0,535.027,220.751Z" transform="translate(-487.65 -210.062)" fill="#fff"/>
            </g>
            <g id="Grupo_83716" data-name="Grupo 83716" transform="translate(68.205 166.609)">
              <path id="Trazado_117618" data-name="Trazado 117618" d="M481.58,204.729a3.6,3.6,0,1,0-3.6-3.6A3.6,3.6,0,0,0,481.58,204.729Zm0-5.934a2.334,2.334,0,1,1-2.334,2.334A2.339,2.339,0,0,1,481.58,198.795Z" transform="translate(-477.98 -197.529)" fill="#fff"/>
            </g>
          </g>
        </g>
      </g>
      <path id="Unión_15" data-name="Unión 15" d="M37.707,101.072l3.159-11.889H34.534A34.533,34.533,0,0,1,0,54.649V34.534A34.531,34.531,0,0,1,34.534,0h73.873a34.533,34.533,0,0,1,34.537,34.534V54.649a34.535,34.535,0,0,1-34.537,34.534H54.25L42.815,103.632a2.819,2.819,0,0,1-2.245,1.123A2.919,2.919,0,0,1,37.707,101.072Z" transform="translate(11.225 0)" fill="#fff7da" stroke="rgba(0,0,0,0)" stroke-miterlimit="10" stroke-width="1"/>
    </g>
    <path id="Trazado_136090" data-name="Trazado 136090" d="M36.42.732,31.381,5.771,26.387.732l4.994-4.994Zm-18.7,0L12.676,5.771,7.682.732l4.994-4.994Zm-18.7,0L-6.029,5.771-11.023.732l4.994-4.994Z" transform="translate(269.022 2218.606)" fill="#12263f"/>
  </g>
</svg>
