<svg xmlns="http://www.w3.org/2000/svg" xmlns:xlink="http://www.w3.org/1999/xlink" width="335" height="114.18" viewBox="0 0 335 114.18">
  <defs>
    <clipPath id="clip-path">
      <rect id="Rectángulo_37608" data-name="Rectángulo 37608" width="38" height="39" transform="translate(0 -0.087)" fill="none"/>
    </clipPath>
    <clipPath id="clip-path-2">
      <rect id="Rectángulo_37602" data-name="Rectángulo 37602" width="52.332" height="52.263" fill="none"/>
    </clipPath>
  </defs>
  <g id="Grupo_161675" data-name="Grupo 161675" transform="translate(7354 7451.18)">
    <path id="Trazado_142347" data-name="Trazado 142347" d="M11,0H98a11,11,0,0,1,11,11V68A11,11,0,0,1,98,79H11A11,11,0,0,1,0,68V11A11,11,0,0,1,11,0Z" transform="translate(-7354 -7421)" fill="#ffbfc1"/>
    <path id="Trazado_136072" data-name="Trazado 136072" d="M11,0H165a11,11,0,0,1,11,11V68a11,11,0,0,1-11,11H11A11,11,0,0,1,0,68V11A11,11,0,0,1,11,0Z" transform="translate(-7201 -7421)" fill="#c4d1ff"/>
    <path id="Trazado_142348" data-name="Trazado 142348" d="M5.039,12.836H3.18L2.453,17H.164L2.141,5.625l3.766.008a4.289,4.289,0,0,1,2.91.891A2.817,2.817,0,0,1,9.719,9a3.574,3.574,0,0,1-2.5,3.258l1.6,4.617V17H6.383Zm-1.531-1.9,1.7.016a2.386,2.386,0,0,0,1.5-.488A1.933,1.933,0,0,0,7.414,9.18a1.473,1.473,0,0,0-.242-1.187,1.442,1.442,0,0,0-1.117-.461L4.1,7.523Zm10.516,6.219a3.677,3.677,0,0,1-1.965-.543,3.292,3.292,0,0,1-1.277-1.469,4.093,4.093,0,0,1-.328-2.059l.023-.312a5.465,5.465,0,0,1,.719-2.266,4.341,4.341,0,0,1,1.547-1.59,3.827,3.827,0,0,1,2.094-.527,2.924,2.924,0,0,1,2.473,1.2,4.117,4.117,0,0,1,.637,2.962l-.125.962h-5.18a1.814,1.814,0,0,0,.4,1.313,1.521,1.521,0,0,0,1.172.508A2.7,2.7,0,0,0,16.32,14.4l1.008,1.25a3.135,3.135,0,0,1-1.375,1.121A4.5,4.5,0,0,1,14.023,17.156Zm.7-6.945a1.565,1.565,0,0,0-1.082.383,3.363,3.363,0,0,0-.848,1.383h3.031l.047-.2a2.071,2.071,0,0,0,.008-.594,1.134,1.134,0,0,0-.383-.707A1.2,1.2,0,0,0,14.727,10.211Zm8.648,4.406q.125-.625-.867-.906l-.711-.18q-2.523-.7-2.453-2.453A2.428,2.428,0,0,1,20.4,9.129a3.942,3.942,0,0,1,2.457-.738,3.536,3.536,0,0,1,2.313.758,2.5,2.5,0,0,1,.9,1.977l-2.187-.008a.963.963,0,0,0-1.078-1.1,1.552,1.552,0,0,0-.895.258,1.061,1.061,0,0,0-.465.7q-.117.625.945.883l.313.07a6.285,6.285,0,0,1,1.648.59,2.488,2.488,0,0,1,.879.824,2.04,2.04,0,0,1,.285,1.18A2.251,2.251,0,0,1,25,15.922a3.18,3.18,0,0,1-1.359.93,4.736,4.736,0,0,1-1.816.3,3.568,3.568,0,0,1-2.344-.809,2.607,2.607,0,0,1-.953-2.051l2.078.016a1.142,1.142,0,0,0,1.3,1.227,1.845,1.845,0,0,0,1-.25A.987.987,0,0,0,23.375,14.617ZM31,6.469l-.367,2.078h1.406L31.75,10.2H30.344l-.719,4.234a1.077,1.077,0,0,0,.063.609q.109.211.531.227.125.008.672-.039l-.156,1.727a3.706,3.706,0,0,1-1.266.18,1.985,1.985,0,0,1-1.617-.68,2.456,2.456,0,0,1-.437-1.8l.727-4.461h-1.2l.289-1.656h1.2l.359-2.078ZM36.742,17a2.281,2.281,0,0,1-.086-.766,2.863,2.863,0,0,1-2.156.922,2.594,2.594,0,0,1-1.84-.723,2.186,2.186,0,0,1-.684-1.746,2.527,2.527,0,0,1,1.16-2.121,5.266,5.266,0,0,1,2.965-.738l1.031.016.109-.508a1.764,1.764,0,0,0,.023-.492.846.846,0,0,0-.277-.574.955.955,0,0,0-.629-.215,1.345,1.345,0,0,0-.875.254,1.231,1.231,0,0,0-.461.777l-2.211.008a2.457,2.457,0,0,1,1.113-1.965,4.312,4.312,0,0,1,2.613-.738,3.117,3.117,0,0,1,2.25.855,2.5,2.5,0,0,1,.68,2.121l-.648,4.047-.039.5a2.412,2.412,0,0,0,.133.938L38.906,17Zm-1.7-1.555a2.017,2.017,0,0,0,1.664-.828l.273-1.461-.766-.008a2.139,2.139,0,0,0-1.758.742,1.292,1.292,0,0,0-.242.633.75.75,0,0,0,.176.668A.891.891,0,0,0,35.047,15.445Zm10.438.68a2.919,2.919,0,0,1-2.328,1.031,2.172,2.172,0,0,1-1.844-.875,3.2,3.2,0,0,1-.484-2.266l.914-5.469h2.2l-.93,5.5a2.175,2.175,0,0,0-.008.485.8.8,0,0,0,.867.806,2.014,2.014,0,0,0,1.7-.79l1.055-6h2.219L47.375,17H45.32Zm9.32-5.461a4.548,4.548,0,0,0-.742-.078,2.136,2.136,0,0,0-1.867.883L51.219,17h-2.2l1.469-8.453,2.07-.008-.2,1.031a2.325,2.325,0,0,1,1.969-1.2,3.214,3.214,0,0,1,.766.109ZM59.414,17a2.281,2.281,0,0,1-.086-.766,2.863,2.863,0,0,1-2.156.922,2.594,2.594,0,0,1-1.84-.723,2.186,2.186,0,0,1-.684-1.746,2.527,2.527,0,0,1,1.16-2.121,5.266,5.266,0,0,1,2.965-.738l1.031.016.109-.508a1.764,1.764,0,0,0,.023-.492.846.846,0,0,0-.277-.574.955.955,0,0,0-.629-.215,1.345,1.345,0,0,0-.875.254,1.231,1.231,0,0,0-.461.777l-2.211.008A2.457,2.457,0,0,1,56.6,9.129a4.312,4.312,0,0,1,2.613-.738,3.117,3.117,0,0,1,2.25.855,2.5,2.5,0,0,1,.68,2.121l-.648,4.047-.039.5a2.412,2.412,0,0,0,.133.938L61.578,17Zm-1.7-1.555a2.017,2.017,0,0,0,1.664-.828l.273-1.461-.766-.008a2.139,2.139,0,0,0-1.758.742,1.292,1.292,0,0,0-.242.633.75.75,0,0,0,.176.668A.891.891,0,0,0,57.719,15.445Zm8.688-6.906-.187,1A3.042,3.042,0,0,1,68.68,8.391a2.028,2.028,0,0,1,1.766.875,3.526,3.526,0,0,1,.414,2.359L69.969,17h-2.2l.906-5.4a2.528,2.528,0,0,0,.016-.555.9.9,0,0,0-1-.82,1.9,1.9,0,0,0-1.555.8L65.078,17h-2.2l1.469-8.453Zm9.758-2.07L75.8,8.547H77.2L76.914,10.2H75.508l-.719,4.234a1.077,1.077,0,0,0,.063.609q.109.211.531.227.125.008.672-.039L75.9,16.961a3.706,3.706,0,0,1-1.266.18,1.985,1.985,0,0,1-1.617-.68,2.456,2.456,0,0,1-.437-1.8L73.3,10.2h-1.2L72.4,8.547h1.2l.359-2.078Z" transform="translate(-7183 -7368)" fill="#12263f"/>
    <path id="Trazado_142349" data-name="Trazado 142349" d="M10.125,7.523H6.75L5.109,17H2.82L4.461,7.523H1.125l.336-1.9h9Zm2.938,1.961a2.946,2.946,0,0,1,2.289-1.094,2.143,2.143,0,0,1,1.848.9,3.548,3.548,0,0,1,.441,2.379L16.75,17h-2.2l.9-5.358a2.6,2.6,0,0,0,.016-.563.885.885,0,0,0-.984-.868,1.9,1.9,0,0,0-1.562.766L11.852,17h-2.2L11.727,5h2.211Zm9.422,7.672a3.677,3.677,0,0,1-1.965-.543,3.292,3.292,0,0,1-1.277-1.469,4.093,4.093,0,0,1-.328-2.059l.023-.312a5.465,5.465,0,0,1,.719-2.266A4.341,4.341,0,0,1,21.2,8.918,3.827,3.827,0,0,1,23.3,8.391a2.924,2.924,0,0,1,2.473,1.2,4.117,4.117,0,0,1,.637,2.962l-.125.962H21.1a1.814,1.814,0,0,0,.4,1.313,1.521,1.521,0,0,0,1.172.508,2.7,2.7,0,0,0,2.109-.937l1.008,1.25a3.135,3.135,0,0,1-1.375,1.121A4.5,4.5,0,0,1,22.484,17.156Zm.7-6.945a1.565,1.565,0,0,0-1.082.383,3.363,3.363,0,0,0-.848,1.383h3.031l.047-.2a2.071,2.071,0,0,0,.008-.594,1.134,1.134,0,0,0-.383-.707A1.2,1.2,0,0,0,23.188,10.211ZM31.828,17a2.281,2.281,0,0,1-.086-.766,2.863,2.863,0,0,1-2.156.922,2.594,2.594,0,0,1-1.84-.723,2.186,2.186,0,0,1-.684-1.746,2.527,2.527,0,0,1,1.16-2.121,5.266,5.266,0,0,1,2.965-.738l1.031.016.109-.508a1.764,1.764,0,0,0,.023-.492.846.846,0,0,0-.277-.574.955.955,0,0,0-.629-.215,1.345,1.345,0,0,0-.875.254,1.231,1.231,0,0,0-.461.777l-2.211.008a2.457,2.457,0,0,1,1.113-1.965,4.312,4.312,0,0,1,2.613-.738,3.117,3.117,0,0,1,2.25.855,2.5,2.5,0,0,1,.68,2.121l-.648,4.047-.039.5a2.412,2.412,0,0,0,.133.938L33.992,17Zm-1.7-1.555a2.017,2.017,0,0,0,1.664-.828l.273-1.461-.766-.008a2.139,2.139,0,0,0-1.758.742,1.292,1.292,0,0,0-.242.633.75.75,0,0,0,.176.668A.891.891,0,0,0,30.133,15.445ZM39.8,6.469l-.367,2.078h1.406L40.555,10.2H39.148l-.719,4.234a1.077,1.077,0,0,0,.063.609q.109.211.531.227.125.008.672-.039l-.156,1.727a3.706,3.706,0,0,1-1.266.18,1.985,1.985,0,0,1-1.617-.68,2.456,2.456,0,0,1-.437-1.8l.727-4.461h-1.2l.289-1.656h1.2l.359-2.078Zm4.867,10.688a3.677,3.677,0,0,1-1.965-.543,3.292,3.292,0,0,1-1.277-1.469,4.093,4.093,0,0,1-.328-2.059l.023-.312a5.465,5.465,0,0,1,.719-2.266,4.341,4.341,0,0,1,1.547-1.59,3.827,3.827,0,0,1,2.094-.527,2.924,2.924,0,0,1,2.473,1.2,4.117,4.117,0,0,1,.637,2.962l-.125.962h-5.18a1.814,1.814,0,0,0,.4,1.313,1.521,1.521,0,0,0,1.172.508,2.7,2.7,0,0,0,2.109-.937l1.008,1.25A3.135,3.135,0,0,1,46.6,16.77,4.5,4.5,0,0,1,44.672,17.156Zm.7-6.945a1.565,1.565,0,0,0-1.082.383,3.363,3.363,0,0,0-.848,1.383h3.031l.047-.2a2.071,2.071,0,0,0,.008-.594,1.134,1.134,0,0,0-.383-.707A1.2,1.2,0,0,0,45.375,10.211Zm9.539.453a4.548,4.548,0,0,0-.742-.078,2.136,2.136,0,0,0-1.867.883L51.328,17h-2.2l1.469-8.453,2.07-.008-.2,1.031a2.325,2.325,0,0,1,1.969-1.2,3.214,3.214,0,0,1,.766.109Z" transform="translate(-7343 -7368)" fill="#12263f"/>
    <path id="Trazado_142350" data-name="Trazado 142350" d="M4.152,17H1.934L3.4,8.547H5.621ZM3.66,6.4A1.1,1.1,0,0,1,4,5.531a1.209,1.209,0,0,1,.867-.344,1.215,1.215,0,0,1,.867.3,1.1,1.1,0,0,1,.383.828,1.132,1.132,0,0,1-.324.844,1.215,1.215,0,0,1-.887.375,1.235,1.235,0,0,1-.863-.3A1.091,1.091,0,0,1,3.66,6.4ZM9.5,8.539l-.187,1a3.042,3.042,0,0,1,2.461-1.148,2.028,2.028,0,0,1,1.766.875,3.526,3.526,0,0,1,.414,2.359L13.066,17h-2.2l.906-5.4a2.528,2.528,0,0,0,.016-.555.9.9,0,0,0-1-.82,1.9,1.9,0,0,0-1.555.8L8.176,17h-2.2L7.441,8.547ZM19.332,17l1.18-6.8H19.293l.289-1.648L20.8,8.539,20.91,7.7a3.332,3.332,0,0,1,1.1-2.121A3.334,3.334,0,0,1,24.3,4.82a7.33,7.33,0,0,1,1.2.163l-.2,1.751a2.732,2.732,0,0,0-.648-.094,1.615,1.615,0,0,0-1,.3,1.355,1.355,0,0,0-.52.918l-.117.69h1.633L24.355,10.2H22.73L21.551,17Zm10.836-6.336a4.548,4.548,0,0,0-.742-.078,2.136,2.136,0,0,0-1.867.883L26.582,17h-2.2l1.469-8.453,2.07-.008-.2,1.031a2.325,2.325,0,0,1,1.969-1.2,3.214,3.214,0,0,1,.766.109Zm4.508-2.273a3.39,3.39,0,0,1,1.926.574A3.234,3.234,0,0,1,37.789,10.5a4.762,4.762,0,0,1,.27,2.176,5.143,5.143,0,0,1-1.4,3.262,3.96,3.96,0,0,1-3.02,1.215,3.38,3.38,0,0,1-1.906-.566,3.222,3.222,0,0,1-1.187-1.527,4.657,4.657,0,0,1-.273-2.156,5.3,5.3,0,0,1,1.422-3.328A3.878,3.878,0,0,1,34.676,8.391Zm-2.227,5.315a1.95,1.95,0,0,0,.352,1.182,1.168,1.168,0,0,0,.945.449A1.712,1.712,0,0,0,35.34,14.4a4.647,4.647,0,0,0,.539-2.531,2.122,2.122,0,0,0-.363-1.2,1.149,1.149,0,0,0-.949-.464,1.715,1.715,0,0,0-1.574.924A4.6,4.6,0,0,0,32.449,13.706Zm9.727-5.167-.187,1a3.042,3.042,0,0,1,2.461-1.148,2.028,2.028,0,0,1,1.766.875,3.526,3.526,0,0,1,.414,2.359L45.738,17h-2.2l.906-5.4a2.528,2.528,0,0,0,.016-.555.9.9,0,0,0-1-.82,1.9,1.9,0,0,0-1.555.8L40.848,17h-2.2l1.469-8.453Zm9.758-2.07-.367,2.078h1.406L52.684,10.2H51.277l-.719,4.234a1.077,1.077,0,0,0,.063.609q.109.211.531.227.125.008.672-.039l-.156,1.727a3.706,3.706,0,0,1-1.266.18,1.985,1.985,0,0,1-1.617-.68,2.456,2.456,0,0,1-.437-1.8l.727-4.461h-1.2l.289-1.656h1.2l.359-2.078Zm9.633,1.922a3.39,3.39,0,0,1,1.926.574A3.234,3.234,0,0,1,64.68,10.5a4.762,4.762,0,0,1,.27,2.176,5.143,5.143,0,0,1-1.4,3.262,3.96,3.96,0,0,1-3.02,1.215,3.38,3.38,0,0,1-1.906-.566,3.222,3.222,0,0,1-1.187-1.527,4.657,4.657,0,0,1-.273-2.156,5.3,5.3,0,0,1,1.422-3.328A3.878,3.878,0,0,1,61.566,8.391ZM59.34,13.706a1.95,1.95,0,0,0,.352,1.182,1.168,1.168,0,0,0,.945.449A1.712,1.712,0,0,0,62.23,14.4a4.647,4.647,0,0,0,.539-2.531,2.122,2.122,0,0,0-.363-1.2,1.149,1.149,0,0,0-.949-.464,1.715,1.715,0,0,0-1.574.924A4.6,4.6,0,0,0,59.34,13.706ZM66.176,17l1.18-6.8H66.137l.289-1.648,1.219-.008.109-.844a3.332,3.332,0,0,1,1.1-2.121,3.334,3.334,0,0,1,2.289-.754,7.33,7.33,0,0,1,1.2.163l-.2,1.751a2.732,2.732,0,0,0-.648-.094,1.615,1.615,0,0,0-1,.3,1.355,1.355,0,0,0-.52.918l-.117.69h1.633L71.2,10.2H69.574L68.395,17Z" transform="translate(-7319 -7456)" fill="#ffd947"/>
    <g id="Grupo_158992" data-name="Grupo 158992" transform="translate(27 230)">
      <g id="Rectángulo_37565" data-name="Rectángulo 37565" transform="translate(-7234 -7657)" fill="none" stroke="#ffd947" stroke-width="2">
        <rect width="188" height="90" rx="15" stroke="none"/>
        <rect x="1" y="1" width="186" height="88" rx="14" fill="none"/>
      </g>
      <path id="Polígono_14" data-name="Polígono 14" d="M10,0,20,17H0Z" transform="translate(-7251 -7602) rotate(-90)" fill="#ffd947"/>
    </g>
    <path id="Trazado_136069" data-name="Trazado 136069" d="M-7243.51-7622.1v-52.064h-25.439" transform="translate(27 230)" fill="none" stroke="#ffd947" stroke-linecap="round" stroke-width="2"/>
    <g id="Grupo_159086" data-name="Grupo 159086" transform="translate(-7318 -7411.913)">
      <g id="Grupo_159084" data-name="Grupo 159084" transform="translate(0 0)" clip-path="url(#clip-path)">
        <path id="Trazado_136584" data-name="Trazado 136584" d="M.064,27.234V.413A.5.5,0,0,1,.64,0c.1,0,.2,0,.3,0H37.534c.112,0,.225,0,.337,0,.407.021.561.172.584.574.006.1,0,.2,0,.3V26.8c0,.752-.168.927-.924.93q-2.116.009-4.233,0c-.745,0-1-.255-.988-.993a17.874,17.874,0,0,1,.18-2.05c.074-.53.059-.55-.483-.551H6.578c-.669,0-.665,0-.58.664a16.485,16.485,0,0,1,.176,1.976c0,.692-.258.95-.954.954-1.448.008-2.9,0-4.345,0-.37,0-.7-.061-.81-.494" transform="translate(-0.046 0)"/>
        <path id="Trazado_136585" data-name="Trazado 136585" d="M38.046,104.018H.439a.465.465,0,0,1-.375-.375v-4.5A1.4,1.4,0,0,1,1.39,97.942c.293-.039.362-.173.37-.44A3.113,3.113,0,0,1,5.045,94.32c.272,0,.589.1.8-.064s.084-.494.115-.748a3.126,3.126,0,0,1,3.113-2.78c1.148-.007,2.3.008,3.444,0a3.147,3.147,0,0,1,2.248.861c.212.2.339.2.553,0a3.174,3.174,0,0,1,2.285-.864q1.647.024,3.294,0a3.161,3.161,0,0,1,2.251.854c.206.188.335.219.555.014a3.17,3.17,0,0,1,2.283-.868c1.123.015,2.246,0,3.369,0a3.11,3.11,0,0,1,3.172,3.108c.01.468.024.491.488.485a3.987,3.987,0,0,1,2,.349,3.066,3.066,0,0,1,1.7,2.714c.027.475.014.476.476.57a1.433,1.433,0,0,1,1.253,1.485c.01,1.323,0,2.646,0,3.968,0,.308-.083.538-.413.612" transform="translate(-0.046 -65.621)"/>
        <path id="Trazado_136586" data-name="Trazado 136586" d="M.018,137.423l.375.375q-.476.1-.375-.375" transform="translate(0 -99.4)" fill="#f7f7f7"/>
        <path id="Trazado_136587" data-name="Trazado 136587" d="M42.754,33.6c-.1,0-.2.013-.3.013H17.735c-.1,0-.2-.008-.3-.013a2.324,2.324,0,0,1-.352-.7,6.219,6.219,0,0,0-1.277-1.788,2.5,2.5,0,0,1-.47-2.9,2.728,2.728,0,0,1,.5-.6,18.942,18.942,0,0,0,2.6-2.94,18.536,18.536,0,0,0,2.721-7.039,7.94,7.94,0,0,1,.219-.986,2.4,2.4,0,0,1,2.336-1.715c2.3-.007,4.593,0,6.889,0q2.864,0,5.729,0A2.433,2.433,0,0,1,38.9,16.973c.218.961.372,1.935.65,2.884a16.48,16.48,0,0,0,3.179,6.1,15.879,15.879,0,0,0,1.658,1.675A2.4,2.4,0,0,1,44.5,30.97a7.379,7.379,0,0,0-1.636,2.481.428.428,0,0,1-.114.147" transform="translate(-10.9 -10.797)" fill="#97dde9"/>
        <path id="Trazado_136588" data-name="Trazado 136588" d="M36.886,30.38A5.421,5.421,0,0,1,38.174,28.1a7.426,7.426,0,0,0,.617-.7,2.381,2.381,0,0,0-.3-2.881A15.662,15.662,0,0,1,35.5,21.048,18.633,18.633,0,0,1,33.22,15.2c-.111-.521-.188-1.05-.313-1.567a2.327,2.327,0,0,0-2.337-1.823c-4.168,0-8.336.019-12.5-.011a2.446,2.446,0,0,0-2.6,2.16,20.83,20.83,0,0,1-1.212,4.486,15.916,15.916,0,0,1-2.414,4.145,16.963,16.963,0,0,1-1.878,1.925,2.34,2.34,0,0,0,0,3.258,6.482,6.482,0,0,1,1.424,2.038,1.54,1.54,0,0,1,.178.566,2.8,2.8,0,0,1-1.035-.018c-.292-.123-.277-.57-.414-.867a6.911,6.911,0,0,0-3.163-3.327,1.322,1.322,0,0,1,.416-.317A15.892,15.892,0,0,0,13.581,17a24.315,24.315,0,0,0,.976-5.47c.02-.309.15-.323.392-.323q6.643.008,13.287,0c.518,0,.664-.113.8-.6a1.328,1.328,0,0,1,1.177,0c.127.472.279.595.758.6.848,0,1.7.015,2.544-.007.3-.008.363.091.385.372a22.335,22.335,0,0,0,2.335,8.781,14.944,14.944,0,0,0,5.1,5.657c.051.033.1.071.183.132a8.847,8.847,0,0,0-1.216.794,6.748,6.748,0,0,0-2.2,3.182c-.065.2-.136.292-.356.273-.285-.024-.573-.014-.859-.018" transform="translate(-5.031 -7.58)" fill="#81cfd7"/>
        <path id="Trazado_136589" data-name="Trazado 136589" d="M115.844,14.98q.006,2.6.012,5.2,0,3.089,0,6.184c-.128,0-.116-.108-.149-.171a14.439,14.439,0,0,1-1.424-5.576c-.054-.671-.145-1.339-.221-2.008-.048-.427-.316-.676-.675-.632a.6.6,0,0,0-.517.737,30.9,30.9,0,0,0,1.042,6.368c.042.077.047.154-.058.164-.089.008-.159-.063-.224-.122a14.658,14.658,0,0,1-4.251-6.491c-.014-.045,0-.1-.041-.138a16.236,16.236,0,0,1-.536-3.272c-.079-.228.035-.324.244-.355a2.339,2.339,0,0,1,.335-.016q2.948,0,5.9,0a.742.742,0,0,1,.567.122" transform="translate(-78.682 -10.745)" fill="#f86464"/>
        <path id="Trazado_136590" data-name="Trazado 136590" d="M28.331,6.248H27.154c-.13-.5-.272-.6-.829-.6q-10.745,0-21.49.01c-.4,0-.49-.118-.475-.492.03-.716.009-.717.727-.717q17.39,0,34.781-.008c.365,0,.49.068.471.459-.036.747-.01.748-.772.748H29.122c-.517,0-.665.116-.79.6" transform="translate(-3.153 -3.211)" fill="#8d959a"/>
        <path id="Trazado_136591" data-name="Trazado 136591" d="M12.69,15.222a19.527,19.527,0,0,1-2.106,7.621,10.113,10.113,0,0,1-2.419,2.384,1.079,1.079,0,0,1-.477.2c-.087.012-.213.047-.188-.125a28.638,28.638,0,0,0,1.122-6.569.606.606,0,0,0-.538-.752c-.358-.029-.6.22-.654.657-.208,1.555-.272,3.128-.6,4.667a5.839,5.839,0,0,1-.44,1.418c-.217-.028-.22-.212-.253-.363a2.479,2.479,0,0,1-.025-.523q0-4.081,0-8.163c0-.075,0-.15,0-.225.015-.5.1-.588.6-.589,1.834-.006,3.669-.009,5.5,0,.22,0,.556-.071.471.362" transform="translate(-4.421 -10.742)" fill="#f86464"/>
        <path id="Trazado_136592" data-name="Trazado 136592" d="M11.428,13.955c0-.189-.092-.251-.281-.25q-2.952.009-5.9,0c-.222,0-.27.1-.27.293q.006,4.485,0,8.97a.692.692,0,0,0,.155.483,7.534,7.534,0,0,1-.755,1.65v-.281c0-3.779,0-7.558-.008-11.336,0-.318.087-.385.392-.383,2.107.014,4.215.018,6.322,0,.378,0,.486.1.41.455-.029.132.011.276-.064.4" transform="translate(-3.16 -9.474)" fill="#e95050"/>
        <path id="Trazado_136593" data-name="Trazado 136593" d="M110.8,28.026c.357.721.615,1.486.981,2.205a15.525,15.525,0,0,0,3.406,4.389c.053.049.135.213.187-.008l1.169,2.68a9.045,9.045,0,0,1-1.29-1.043,15.874,15.874,0,0,1-4.452-8.112.5.5,0,0,1,0-.112" transform="translate(-80.141 -20.272)" fill="#e95050"/>
        <path id="Trazado_136594" data-name="Trazado 136594" d="M7.9,81.5c.069.6.069.6-.543.6q-1.346,0-2.691,0c-.126,0-.281.051-.28-.181,0-1.639,0-3.279.033-4.926a4.906,4.906,0,0,1,.626,1.367,3.8,3.8,0,0,0,.4,2.005c.042.167.09.332.126.5.137.632.481.786,1.053.47A4.046,4.046,0,0,1,7.9,81.5" transform="translate(-3.175 -55.689)" fill="#e95050"/>
        <path id="Trazado_136595" data-name="Trazado 136595" d="M10.191,78.676a2.555,2.555,0,0,1-1.275-.165.881.881,0,0,0,.112-.744c-.153-.679-.278-1.363-.406-2.048A7.268,7.268,0,0,0,7.863,73.7c-.1-.194-.2-.391-.311-.615,1.283.334,2.643,3.261,2.639,5.587" transform="translate(-5.463 -52.866)" fill="#f86363"/>
        <path id="Trazado_136596" data-name="Trazado 136596" d="M125.054,83.027a.34.34,0,0,1,.006.037c.022.564.022.564-.524.564-.86,0-1.72-.016-2.579.008-.358.01-.479-.041-.439-.455a11.563,11.563,0,0,1,.778-3.557,1.7,1.7,0,0,1,.284-.52c.115.1.071.235.035.346a3.151,3.151,0,0,0,.127,2.454,1.52,1.52,0,0,1-.029.257.619.619,0,0,0,1.063.617,9.183,9.183,0,0,1,1.279.248" transform="translate(-87.891 -57.217)" fill="#e95050"/>
        <path id="Trazado_136597" data-name="Trazado 136597" d="M115.628,13.736h-6.649c-.183,0-.4-.048-.392.249-.2-.842-.195-.848.644-.848h5.839c.589,0,.589,0,.557.6" transform="translate(-78.465 -9.501)" fill="#e95050"/>
        <path id="Trazado_136598" data-name="Trazado 136598" d="M130.973,81.241a2.018,2.018,0,0,1-1.279-.248c.242-.826.362-1.679.535-2.519a6.688,6.688,0,0,1,.744-1.839Z" transform="translate(-93.81 -55.431)" fill="#f86464"/>
        <path id="Trazado_136599" data-name="Trazado 136599" d="M8.277,46.192c.318.135.533-.088.749-.242a16.98,16.98,0,0,0,2.336-2.213A13.292,13.292,0,0,1,8.2,47.863a5.977,5.977,0,0,1-1.014.785l1.09-2.456" transform="translate(-5.199 -31.635)" fill="#e95050"/>
        <path id="Trazado_136600" data-name="Trazado 136600" d="M124.826,77.44a1.849,1.849,0,0,1-.413-1.541c.048-.424.165-.839.251-1.259a4.77,4.77,0,0,1,1.508-1.708l.09.062c-.078.161-.144.329-.236.481a10.9,10.9,0,0,0-1.123,3.678c-.019.1-.051.191-.077.286" transform="translate(-89.976 -52.753)" fill="#f76363"/>
        <path id="Trazado_136601" data-name="Trazado 136601" d="M6.979,83.936c-.31-.115-.313-.416-.379-.664a2.735,2.735,0,0,1-.022-1.342,19.93,19.93,0,0,1,.4,2.005" transform="translate(-4.706 -59.262)" fill="#f26161"/>
        <path id="Trazado_136602" data-name="Trazado 136602" d="M105.878,108.576a1.309,1.309,0,0,1,.685-.129c1.146,0,2.292,0,3.438,0a1.791,1.791,0,0,1,1.877,1.881c0,1.37-.007,2.74-.011,4.11a.544.544,0,0,1-.421.113c-1.06,0-2.12.02-3.179,0a2.491,2.491,0,0,1-2.489-2.477c-.025-1.022-.006-2.044-.005-3.066a.692.692,0,0,1,.1-.428" transform="translate(-76.503 -78.44)" fill="#f86464"/>
        <path id="Trazado_136603" data-name="Trazado 136603" d="M75.553,108.576a1.309,1.309,0,0,1,.685-.129c1.146,0,2.292,0,3.438,0a1.791,1.791,0,0,1,1.877,1.881c0,1.37-.007,2.74-.011,4.11a.545.545,0,0,1-.421.113c-1.06,0-2.12.02-3.179,0a2.491,2.491,0,0,1-2.489-2.477c-.025-1.022-.006-2.044-.005-3.066a.693.693,0,0,1,.1-.428" transform="translate(-54.568 -78.44)" fill="#f86464"/>
        <path id="Trazado_136604" data-name="Trazado 136604" d="M45.228,108.576a1.309,1.309,0,0,1,.685-.129c1.146,0,2.292,0,3.438,0a1.791,1.791,0,0,1,1.877,1.881c0,1.37-.007,2.74-.011,4.11a.545.545,0,0,1-.421.113c-1.06,0-2.12.02-3.179,0a2.491,2.491,0,0,1-2.489-2.477c-.025-1.022-.006-2.044-.005-3.066a.693.693,0,0,1,.1-.428" transform="translate(-32.634 -78.44)" fill="#f86464"/>
        <path id="Trazado_136605" data-name="Trazado 136605" d="M14.9,108.576a1.309,1.309,0,0,1,.685-.129c1.146,0,2.292,0,3.438,0a1.791,1.791,0,0,1,1.877,1.881c0,1.37-.007,2.74-.011,4.11a.545.545,0,0,1-.421.113c-1.06,0-2.12.02-3.179,0a2.491,2.491,0,0,1-2.489-2.477c-.025-1.022-.006-2.044-.005-3.066a.693.693,0,0,1,.1-.428" transform="translate(-10.699 -78.44)" fill="#f86464"/>
        <path id="Trazado_136606" data-name="Trazado 136606" d="M103.041,108.918q0,1.662.009,3.324a2.4,2.4,0,0,0,2.545,2.54h3.437c.013.384.16.872-.047,1.123s-.7.072-1.069.074c-1.906.008-3.812,0-5.718.01-.275,0-.355-.061-.352-.346.015-1.682,0-3.364.01-5.046a1.728,1.728,0,0,1,1.187-1.677" transform="translate(-73.666 -78.782)" fill="#e95050"/>
        <path id="Trazado_136607" data-name="Trazado 136607" d="M72.715,108.918q0,1.662.009,3.324a2.4,2.4,0,0,0,2.545,2.54h3.437c.013.384.16.872-.047,1.123s-.7.072-1.069.074c-1.906.008-3.812,0-5.718.01-.275,0-.355-.061-.352-.346.015-1.682,0-3.364.01-5.046a1.728,1.728,0,0,1,1.187-1.677" transform="translate(-51.731 -78.782)" fill="#e95050"/>
        <path id="Trazado_136608" data-name="Trazado 136608" d="M42.391,108.918q0,1.662.009,3.325a2.4,2.4,0,0,0,2.544,2.539H48.38c.013.384.16.872-.047,1.123s-.7.072-1.069.074c-1.906.008-3.812,0-5.718.01-.275,0-.355-.061-.352-.346.015-1.682,0-3.364.01-5.046a1.728,1.728,0,0,1,1.187-1.677" transform="translate(-29.796 -78.782)" fill="#e95050"/>
        <path id="Trazado_136609" data-name="Trazado 136609" d="M12.066,108.918q0,1.662.009,3.325a2.4,2.4,0,0,0,2.544,2.539h3.437c.013.384.16.872-.047,1.123s-.7.072-1.069.074c-1.906.008-3.812,0-5.718.01-.275,0-.355-.061-.352-.346.015-1.682,0-3.364.01-5.046a1.728,1.728,0,0,1,1.187-1.677" transform="translate(-7.862 -78.782)" fill="#e95050"/>
        <path id="Trazado_136610" data-name="Trazado 136610" d="M86.754,97.224a1.758,1.758,0,0,1,1.693-1.788q1.89-.035,3.78,0a1.757,1.757,0,0,1,1.693,1.788.7.7,0,0,1-.571.1,3.143,3.143,0,0,0-2.3.675,1.1,1.1,0,0,1-1.424,0,3.141,3.141,0,0,0-2.3-.675.7.7,0,0,1-.571-.1" transform="translate(-62.751 -69.018)" fill="#f86464"/>
        <path id="Trazado_136611" data-name="Trazado 136611" d="M26.1,97.224A1.758,1.758,0,0,1,27.8,95.436q1.89-.035,3.78,0a1.757,1.757,0,0,1,1.693,1.788.7.7,0,0,1-.571.1A3.143,3.143,0,0,0,30.4,98a1.1,1.1,0,0,1-1.424,0,3.141,3.141,0,0,0-2.3-.675.7.7,0,0,1-.571-.1" transform="translate(-18.882 -69.018)" fill="#f86464"/>
        <path id="Trazado_136612" data-name="Trazado 136612" d="M56.429,97.224a1.758,1.758,0,0,1,1.693-1.788q1.89-.035,3.78,0a1.757,1.757,0,0,1,1.693,1.788.7.7,0,0,1-.571.1,3.143,3.143,0,0,0-2.3.675A1.1,1.1,0,0,1,59.3,98a3.141,3.141,0,0,0-2.3-.675.7.7,0,0,1-.571-.1" transform="translate(-40.816 -69.018)" fill="#f86464"/>
        <path id="Trazado_136613" data-name="Trazado 136613" d="M26.074,101.909c.536.01,1.075-.015,1.606.04a2.469,2.469,0,0,1,1.253.619,1.106,1.106,0,0,0,1.386.043,2.931,2.931,0,0,1,2.247-.7c.223.018.449,0,.674,0,0,.037.011.074.012.111.011.489.011.5-.493.486a3.547,3.547,0,0,0-2.575.675c-.187.158-.355.44-.548.455-.155.012-.324-.306-.506-.455a2.933,2.933,0,0,0-1.862-.672c-.212,0-.424,0-.637,0-.59,0-.59,0-.557-.6" transform="translate(-18.852 -73.703)" fill="#e95050"/>
        <path id="Trazado_136614" data-name="Trazado 136614" d="M56.4,101.909c.536.01,1.075-.015,1.606.04a2.469,2.469,0,0,1,1.253.619,1.106,1.106,0,0,0,1.386.043,2.931,2.931,0,0,1,2.247-.7c.223.018.449,0,.673,0,0,.037.011.074.012.111.011.489.011.5-.493.486a3.547,3.547,0,0,0-2.575.675c-.187.158-.355.44-.548.455-.155.012-.324-.306-.506-.455a2.933,2.933,0,0,0-1.862-.672c-.212,0-.424,0-.637,0-.59,0-.59,0-.557-.6" transform="translate(-40.787 -73.703)" fill="#e95050"/>
        <path id="Trazado_136615" data-name="Trazado 136615" d="M86.724,101.909c.536.01,1.075-.015,1.606.04a2.469,2.469,0,0,1,1.253.619,1.106,1.106,0,0,0,1.386.043,2.931,2.931,0,0,1,2.247-.7c.223.018.449,0,.673,0,0,.037.011.074.012.111.011.489.011.5-.493.486a3.547,3.547,0,0,0-2.575.675c-.187.158-.355.44-.548.455-.155.012-.324-.306-.506-.455a2.933,2.933,0,0,0-1.862-.672c-.212,0-.424,0-.637,0-.59,0-.59,0-.557-.6" transform="translate(-62.721 -73.703)" fill="#e95050"/>
        <path id="Trazado_136616" data-name="Trazado 136616" d="M4.981,123.384c0,.486-.014.972.006,1.457.01.265-.146.228-.308.231s-.306.019-.3-.237c.014-1,.007-1.992,0-2.988,0-.2.071-.354.285-.362.237-.009.317.149.316.369,0,.51,0,1.021,0,1.531" transform="translate(-3.165 -87.871)" fill="#f86464"/>
        <path id="Trazado_136617" data-name="Trazado 136617" d="M132.782,123.357c0,.473-.015.947.006,1.419.011.252-.076.3-.313.309-.265.008-.3-.1-.3-.324.011-.934.006-1.868,0-2.8,0-.221,0-.462.29-.468.322-.006.313.25.311.483,0,.461,0,.921,0,1.382" transform="translate(-95.607 -87.877)" fill="#f86464"/>
        <path id="Trazado_136618" data-name="Trazado 136618" d="M54.528,39.717a.72.72,0,0,1-.247.512q-3.822,3.822-7.645,7.643a.607.607,0,1,1-.854-.84q3.819-3.825,7.641-7.646a.62.62,0,0,1,.736-.2.583.583,0,0,1,.368.532" transform="translate(-32.936 -28.304)"/>
        <path id="Trazado_136619" data-name="Trazado 136619" d="M74.383,46.228a.722.722,0,0,1-.237.507q-2.94,2.938-5.879,5.875a.6.6,0,1,1-.852-.837q2.947-2.957,5.9-5.905a.584.584,0,0,1,.678-.172.607.607,0,0,1,.388.532" transform="translate(-48.601 -33.018)"/>
        <path id="Trazado_136620" data-name="Trazado 136620" d="M80.788,27.58a.571.571,0,0,1-.553-.369.585.585,0,0,1,.155-.681q.976-.979,1.954-1.955c.141-.141.274-.29.426-.419a.581.581,0,0,1,.838.019.558.558,0,0,1,.011.809c-.808.829-1.633,1.642-2.456,2.456a.493.493,0,0,1-.376.14" transform="translate(-57.999 -17.35)"/>
      </g>
    </g>
    <g id="Grupo_159087" data-name="Grupo 159087" transform="translate(-7092.66 -7404.295)">
      <g id="Grupo_159072" data-name="Grupo 159072" clip-path="url(#clip-path-2)">
        <path id="Trazado_136243" data-name="Trazado 136243" d="M85.036,55.068c.21,0,.335.049.323.317-.025.544.008,1.09-.014,1.634-.011.278.088.33.346.335,1.149.023,1.149.032,1.149-1.127,0-1.138,0-1.138,1.133-1.138,1.022,0,2.044.012,3.065-.007.324-.006.456.068.435.419-.03.509,0,1.022-.012,1.532-.007.24.061.322.311.32,1.328-.012,2.657-.014,3.985,0,.287,0,.331-.109.327-.357-.012-.868.016-1.737-.014-2.6-.013-.375.114-.444.459-.438,1.243.021,2.487.024,3.729,0,.372-.007.44.114.439.458-.013,2.912-.007,5.824-.007,8.736,0,.677,0,.675.664.682.152,0,.3.022.455.034v.715c-.161.988-.126,1.991-.243,2.984-.316,2.683-.6,5.371-.889,8.057q-.533,4.891-1.063,9.782c-.029.264.012.562-.318.688q-8.941.009-17.88,0c-.371-.087-.278-.394-.305-.644-.25-1.787-.408-3.584-.607-5.377q-.607-5.482-1.2-10.965c-.169-1.557-.342-3.113-.506-4.67-.058-.552.074-.713.642-.722,1.2-.018,1.152.145,1.152-1.232q0-3.321,0-6.642c0-.829.092-.918.9-.923q1.431-.008,2.861,0a.932.932,0,0,1,.68.152" transform="translate(-49.476 -33.881)"/>
        <path id="Trazado_136244" data-name="Trazado 136244" d="M85.68,140.314a.069.069,0,0,1-.01-.093l18-.008c0,.033,0,.067,0,.1Z" transform="translate(-53.791 -88.051)" fill="#777"/>
        <path id="Trazado_136245" data-name="Trazado 136245" d="M33.657,139.943a.431.431,0,0,1-.014.084H18.106a.457.457,0,0,0-.013-.086.785.785,0,0,1,.665-.18q7.117-.008,14.235,0c.233,0,.483-.027.664.182" transform="translate(-11.362 -87.765)" fill="#777"/>
        <path id="Trazado_136246" data-name="Trazado 136246" d="M22.295,52.179c-1.53-.006-3.061-.015-4.591-.017q-5.411-.007-10.822-.007a1,1,0,0,0-.15.022,4.977,4.977,0,0,1-4.623-3.92.849.849,0,0,0-.521-.657,2.776,2.776,0,0,1-.948-4.275c.183-.227.209-.342.013-.584a2.768,2.768,0,0,1,.966-4.3c.232-.113.384-.22.41-.506a8.954,8.954,0,0,1,9-7.984c1,.01,1.008-.011.939-1.034-.2-2.955-.413-5.909-.6-8.864-.02-.314-.107-.4-.416-.387-.645.025-1.291.008-1.987.008.474-1.515.964-2.977,1.376-4.461a.769.769,0,0,1,.935-.676c1.049.05,1.052.015,1.379-1.005.223-.695.458-1.386.657-2.088a.454.454,0,0,1,.532-.384c2.4.014,4.8,0,7.2.019.436,0,.525-.119.522-.535-.02-2.639,0-5.279-.021-7.918,0-.48.1-.684.611-.8,2.4-.547,4.785-1.161,7.178-1.74a2.342,2.342,0,0,1,2.756,1.2A2.421,2.421,0,0,1,31.458,4.2a2.889,2.889,0,0,1-1.2.52c-1.224.286-2.447.578-3.677.836-.339.071-.419.217-.416.541.017,1.481.023,2.963,0,4.444-.007.409.072.542.516.538,2.384-.025,4.768,0,7.152-.022a.514.514,0,0,1,.6.434c.263.9.568,1.778.843,2.67.083.269.186.418.516.4.455-.022,1.034-.194,1.338.068s.323.828.459,1.264c.39,1.244.776,2.489,1.184,3.8h-3.11a1.537,1.537,0,0,1-.943.131q-10.156.006-20.311,0h-.153c-1.129,0-1.129,0-1.122,1.116.14,1.805.247,3.613.382,5.42.054.725.134,1.451.131,2.179,0,1.306,0,1.306,1.266,1.306,1.174,0,2.349-.02,3.523,0a8.62,8.62,0,0,1,5.893,2.438,8.937,8.937,0,0,1,2.808,5.418.962.962,0,0,0,.524.7,2.958,2.958,0,0,1,1.507,2.816,2.632,2.632,0,0,1-.53,1.414.545.545,0,0,0-.021.727,2.9,2.9,0,0,1-.955,4.271,1.429,1.429,0,0,0-.654.9,4.292,4.292,0,0,1-2.4,2.992,5.58,5.58,0,0,1-2.31.648" transform="translate(0 0)"/>
        <path id="Trazado_136247" data-name="Trazado 136247" d="M46.306,84.632a5.628,5.628,0,0,0,2.146-2.587,3.427,3.427,0,0,1,1.231-1.667,2.773,2.773,0,0,0,.417-3.957c-.193-.238-.182-.358,0-.588a2.764,2.764,0,0,0-.949-4.27.73.73,0,0,1-.448-.65,8.92,8.92,0,0,0-7.9-7.8c-1.574-.17-3.166-.046-4.75-.059-.733-.006-.735,0-.81-.735-.019-.185-.019-.373-.028-.559a.517.517,0,0,1,.422-.145A53.309,53.309,0,0,1,41,61.695a10.35,10.35,0,0,1,8.925,7.864c.2.785.2.785.557,1.064-.06-.843-.15-1.649-.244-2.454-.225-1.945-.418-3.893-.638-5.838-.063-.561.063-.7.632-.725.2-.009.409,0,.613,0,.6-.009.646-.047.649-.635.006-1.09,0-2.18,0-3.27,0-.92,0-1.839,0-2.759,0-.661-.035-.694-.69-.7-2.776-.012-5.552-.006-8.328-.01q-3.5-.006-7,.007a1.047,1.047,0,0,1-.781-.151c-.022-.42-.276-.955-.035-1.227s.8-.083,1.222-.084q10.458-.009,20.916,0c.186,0,.373.012.559.018a7.653,7.653,0,0,0-.1,1.5c-1.275.007-2.551.029-3.826.011-.381-.006-.484.092-.481.478.018,2.552-.01,5.1.025,7.656.007.546-.164.68-.656.622-.285-.034-.579.01-.867-.011s-.335.11-.307.363q.483,4.333.953,8.668.49,4.486.978,8.973c.13,1.2.253,2.4.38,3.6l-1.3-.015a6.023,6.023,0,0,1-.312-1.889c-.1-.753-.191-1.511-.254-2.357a19.209,19.209,0,0,1-1.516,1.529c-.256.249-.288.644-.436.967a4.222,4.222,0,0,1-1.257,1.753l-2.074,0" transform="translate(-21.702 -33.102)" fill="#3fc3fe"/>
        <path id="Trazado_136248" data-name="Trazado 136248" d="M93.462,103.742c-2.385,0-4.77-.008-7.154.009-.365,0-.488-.088-.527-.464-.241-2.369-.514-4.736-.773-7.1q-.439-4.008-.874-8.016c-.115-1.049-.222-2.1-.353-3.145-.044-.355.055-.463.424-.463,1.426,0,1.424-.014,1.892,1.3.523,1.474,1.057,2.943,1.568,4.42a.543.543,0,0,0,.606.45q5.213-.026,10.425,0a.513.513,0,0,0,.584-.4c.613-1.766,1.26-3.52,1.871-5.287.126-.364.3-.534.688-.475.445.067,1.06-.211,1.3.126.2.275-.017.847-.064,1.286q-.657,6.064-1.321,12.127c-.189,1.725-.409,3.447-.566,5.175-.04.44-.223.471-.573.469-2.385-.01-4.77-.006-7.154-.006" transform="translate(-52.607 -53.076)" fill="#f3511e"/>
        <path id="Trazado_136249" data-name="Trazado 136249" d="M104.6,73.162c-.009-.85-.025-1.7-.025-2.551,0-3,.006-5.991-.01-8.987,0-.391.087-.574.5-.507.328.053.674-.092.993.081a3.489,3.489,0,0,1,.026.763q0,5.261,0,10.521c0,.809-.05.858-.859.84a.933.933,0,0,1-.629-.16" transform="translate(-65.663 -38.372)" fill="#fbd643"/>
        <path id="Trazado_136250" data-name="Trazado 136250" d="M112.9,77.019q-.009-4.793-.016-9.586a.493.493,0,0,1,.045-.143,10.307,10.307,0,0,1,1.065-.039c.337-.036.391.122.389.416-.012,1.479-.006,2.958-.006,4.436,0,1.5-.016,2.992.01,4.487.007.433-.159.593-.555.584-.318-.007-.651.07-.933-.155" transform="translate(-70.888 -42.229)" fill="#fcd744"/>
        <path id="Trazado_136251" data-name="Trazado 136251" d="M96.441,73.405c-.006-1.963-.007-3.927-.02-5.89,0-.24.069-.352.315-.318.375.052.768-.111,1.131.091a1.178,1.178,0,0,1,.037.5q0,4.329,0,8.659c0,.1,0,.2,0,.305,0,.079.018.179-.086.21s-.161-.038-.217-.1a.752.752,0,0,1-.146-.266,18.728,18.728,0,0,1-1.014-3.194" transform="translate(-60.55 -42.19)" fill="#fad543"/>
        <path id="Trazado_136252" data-name="Trazado 136252" d="M129.409,65.131c-.006-2.228-.005-4.456-.023-6.684,0-.315.126-.35.391-.353,1.15-.016,1.152-.024,1.15,1.119q-.006,2.959-.016,5.918a1.658,1.658,0,0,1-1.5,0" transform="translate(-81.252 -36.48)" fill="#fcd744"/>
        <path id="Trazado_136253" data-name="Trazado 136253" d="M121.145,75.349c-.006-2.6-.007-5.2-.025-7.793,0-.309.119-.355.388-.36,1.156-.021,1.158-.029,1.155,1.113,0,1.018-.012,2.037-.017,3.055a28.912,28.912,0,0,1-1.22,3.741c-.038.122-.106.256-.28.244" transform="translate(-76.061 -42.195)" fill="#fcd744"/>
        <path id="Trazado_136254" data-name="Trazado 136254" d="M88.175,67.034c-.006-1.852-.006-3.7-.026-5.556,0-.314.128-.35.392-.354,1.152-.018,1.154-.026,1.151,1.118q-.006,2.4-.018,4.791a1.654,1.654,0,0,1-1.5,0" transform="translate(-55.356 -38.382)" fill="#fcd744"/>
        <path id="Trazado_136255" data-name="Trazado 136255" d="M121.135,82.393a13.149,13.149,0,0,0,.725-1.891c.276-.691.518-1.4.775-2.094.006,1.17.009,2.34.02,3.51a1.693,1.693,0,0,1-.149.586q-.447,1.268-.9,2.533c-.055.151-.083.342-.327.307s-.154-.231-.154-.358c0-.864.007-1.729.014-2.593" transform="translate(-76.05 -49.239)" fill="#fcaa08"/>
        <path id="Trazado_136256" data-name="Trazado 136256" d="M96.431,73.58l1.3,3.5.126-.015v-9.6c.107.137.054.3.054.443q0,5.026-.011,10.052c0,.179.156.52-.219.5-.336-.017-.778.241-.968-.336a4.853,4.853,0,0,1-.305-1.736c.035-.934.019-1.87.024-2.805" transform="translate(-60.54 -42.365)" fill="#fcaa08"/>
        <path id="Trazado_136257" data-name="Trazado 136257" d="M104.609,73.322c.454-.032,1.039.191,1.33-.091.318-.307.1-.9.1-1.371.011-3.3.006-6.594.007-9.891,0-.2.012-.407.019-.61.113.134.058.294.058.44,0,4.113-.006,8.226.006,12.338,0,.392-.087.523-.5.513-1.065-.026-1.066,0-1.048-1.075,0-.084.016-.168.025-.252" transform="translate(-65.674 -38.532)" fill="#fbaa08"/>
        <path id="Trazado_136258" data-name="Trazado 136258" d="M112.882,76.97c.454-.035,1.032.192,1.331-.1s.1-.873.1-1.326c.011-2.587,0-5.176.015-7.763,0-.432-.129-.576-.549-.535a7.5,7.5,0,0,1-.867-.009,4.566,4.566,0,0,1,1.255-.057c.307-.017.236.227.236.4,0,1.224,0,2.449,0,3.674,0,2.194-.012,4.388,0,6.582,0,.352-.085.462-.449.458-1.118-.01-1.119.006-1.1-1.125,0-.067.014-.135.021-.2" transform="translate(-70.871 -42.18)" fill="#faa908"/>
        <path id="Trazado_136259" data-name="Trazado 136259" d="M88.149,77.016h1.5q.009.657.019,1.315a1.847,1.847,0,0,1-.027.381c-.154-.531-.565-.428-.911-.389-.484.054-.685-.1-.606-.6a5.572,5.572,0,0,0,.025-.706" transform="translate(-55.329 -48.364)" fill="#f9a908"/>
        <path id="Trazado_136260" data-name="Trazado 136260" d="M129.414,77.016h1.5c.005.05.015.1.016.15.026,1.251.018,1.253-1.246,1.153-.214-.017-.3-.078-.29-.3.016-.336.014-.672.02-1.008" transform="translate(-81.257 -48.365)" fill="#faa908"/>
        <path id="Trazado_136261" data-name="Trazado 136261" d="M71.713,130.9a8.179,8.179,0,0,0,1.476-2.7c.035-.127.195-.231.314-.323a4.841,4.841,0,0,0,1.257-1.315c.05-.084.082-.214.207-.164.055.022.1.136.105.213.11,1.042.226,2.084.31,3.129a4.633,4.633,0,0,1,.106,1.161l-3.776,0" transform="translate(-45.034 -79.366)" fill="#00e4fe"/>
        <path id="Trazado_136262" data-name="Trazado 136262" d="M34.931,56.409h16.3c.651,0,.652,0,.652.67,0,2.163-.01,4.326.009,6.489,0,.4-.111.551-.517.514-.355-.032-.715.008-1.072-.01-.308-.016-.39.127-.358.4.2,1.7.409,3.392.6,5.09.137,1.242.247,2.487.369,3.731a1.433,1.433,0,0,1-.863-1.137,10.073,10.073,0,0,0-5.385-6.978,9.665,9.665,0,0,0-4.3-1.092c-1.634-.041-3.27-.009-4.905-.009q-.261-3.834-.522-7.668" transform="translate(-21.936 -35.424)" fill="#00e4fe"/>
        <path id="Trazado_136263" data-name="Trazado 136263" d="M10.371,89.852a7.244,7.244,0,0,1,5.712-5.085,5.811,5.811,0,0,1,1.216-.118c2.587-.007,5.176-.04,7.761.017a7.314,7.314,0,0,1,6.683,5.312.885.885,0,0,1-.676.164q-9.989.006-19.977-.006c-.257,0-.6.112-.721-.285" transform="translate(-6.513 -53.148)" fill="#fcd7a7"/>
        <path id="Trazado_136264" data-name="Trazado 136264" d="M55.333,45.245h-25.6c.2-.623.393-1.217.568-1.817.047-.16.112-.231.276-.22.1.007.2,0,.307,0q11.652,0,23.3-.011c.392,0,.574.1.666.478.125.509.3,1.006.475,1.569" transform="translate(-18.674 -27.128)" fill="#fefefe"/>
        <path id="Trazado_136265" data-name="Trazado 136265" d="M4.178,107.91a1.284,1.284,0,0,1,1.371-1.217q11.6-.005,23.194,0a1.274,1.274,0,0,1,1.361,1.218.953.953,0,0,1-.649.257,5.432,5.432,0,0,1-.613.019q-11.7,0-23.4,0a1.634,1.634,0,0,1-1.26-.273" transform="translate(-2.624 -67)" fill="#64dc17"/>
        <path id="Trazado_136266" data-name="Trazado 136266" d="M4.178,109.968a8.477,8.477,0,0,0,1.828.1H28.173a9.4,9.4,0,0,0,1.931-.1,1.269,1.269,0,0,1-1.387,1.34q-4.113.008-8.225,0-7.434,0-14.867,0a1.294,1.294,0,0,1-1.446-1.341" transform="translate(-2.624 -69.058)" fill="#afee60"/>
        <path id="Trazado_136267" data-name="Trazado 136267" d="M9.859,98.66c.155.2.375.125.57.125q10.4,0,20.8,0c.449,1.325.449,1.325-.926,1.325q-10.1,0-20.208.012c-.5,0-.633-.138-.488-.592a4.281,4.281,0,0,1,.248-.872" transform="translate(-6 -61.957)" fill="#fec377"/>
        <path id="Trazado_136268" data-name="Trazado 136268" d="M18.474,131.948l.158-.008a2.038,2.038,0,0,1,.843-.153q2.367.007,4.734,0a2.193,2.193,0,0,1,.892.166l.1,0a2.539,2.539,0,0,1,.995-.164c1.7.006,3.392,0,5.089.006.266,0,.549-.048.772.166a3.23,3.23,0,0,1-2.359,1.428,5.614,5.614,0,0,1-.815.042q-7.155,0-14.308,0a3.536,3.536,0,0,1-3.08-1.368c.069-.3.33-.263.532-.265,1.935-.02,3.87-.013,5.805-.007a1.6,1.6,0,0,1,.639.154" transform="translate(-7.22 -82.76)" fill="#fcd7a7"/>
        <path id="Trazado_136269" data-name="Trazado 136269" d="M56.909,35.249a6.407,6.407,0,0,1,.421,1.313H37.554a6.75,6.75,0,0,1,.43-1.314.975.975,0,0,1,.679-.163q8.784,0,17.568,0a.959.959,0,0,1,.679.164" transform="translate(-23.583 -22.031)" fill="#d7d6d8"/>
        <path id="Trazado_136270" data-name="Trazado 136270" d="M62.09,12.356c-.006-2.075-.006-4.151-.023-6.226a.353.353,0,0,1,.323-.414c2.079-.5,4.155-1.017,6.234-1.518.579-.14.991.071,1.106.523.14.552-.129.934-.776,1.085-1.637.381-3.272.769-4.913,1.132-.344.076-.447.212-.443.57.019,1.616,0,3.232-.006,4.848a1.7,1.7,0,0,1-1.5,0" transform="translate(-38.977 -2.61)" fill="#fcd744"/>
        <path id="Trazado_136271" data-name="Trazado 136271" d="M57.635,34.469H38.709c.01-.481.234-.629.729-.628q8.734.028,17.469,0c.491,0,.721.144.728.628" transform="translate(-24.308 -21.251)" fill="#fefefe"/>
        <path id="Trazado_136272" data-name="Trazado 136272" d="M37.15,119.393l-2.364-1.615h9.946l-1.9,1.3a2.242,2.242,0,0,1-.892.154c-.929,0-1.859.013-2.788-.007a9.026,9.026,0,0,0-2,.167" transform="translate(-21.845 -73.962)" fill="#fbaa08"/>
        <path id="Trazado_136273" data-name="Trazado 136273" d="M17.312,130.032q-3.2,0-6.4.012c-.194,0-.411-.074-.576.106a2.843,2.843,0,0,1-.689-1.411c1.927,0,3.809,0,5.692,0a.605.605,0,0,1,.373.133q.8.583,1.6,1.163" transform="translate(-6.058 -80.844)" fill="#fdc376"/>
        <path id="Trazado_136274" data-name="Trazado 136274" d="M55.2,130.033l-6.856-.008c.536-.387,1.076-.769,1.606-1.165a.737.737,0,0,1,.475-.133c1.668,0,3.336.01,5-.006.344,0,.419.08.287.394a2.421,2.421,0,0,1-.517.918" transform="translate(-30.357 -80.834)" fill="#fdc376"/>
        <path id="Trazado_136275" data-name="Trazado 136275" d="M19.172,119.037l-1.79-1.217c.011-.035.022-.071.034-.106q1.818,0,3.636,0a.541.541,0,0,1,.319.137c.846.6,1.688,1.2,2.541,1.785.24.165.259.272,0,.426-.275.165-.537.35-.805.526-.229.089-.388-.052-.557-.167-.436-.3-.868-.6-1.292-.914a1.659,1.659,0,0,0-1.14-.343,1.761,1.761,0,0,1-.95-.126" transform="translate(-10.916 -73.921)" fill="#fcaa08"/>
        <path id="Trazado_136276" data-name="Trazado 136276" d="M37.144,128.479l-6.469-.014c.98-.7,1.965-1.392,2.937-2.1a.424.424,0,0,1,.584.023c.978.7,1.965,1.4,2.948,2.1" transform="translate(-19.263 -79.285)" fill="#fec376"/>
        <path id="Trazado_136277" data-name="Trazado 136277" d="M41.14,121.556a1.544,1.544,0,0,1,1.087-.333c1.532.023,3.064.016,4.6.02q-1.425,1.023-2.848,2.049a.292.292,0,0,1-.4.019c-.806-.591-1.62-1.171-2.431-1.755" transform="translate(-25.835 -76.126)" fill="#fcd744"/>
        <path id="Trazado_136278" data-name="Trazado 136278" d="M5.255,118.065a1.71,1.71,0,0,1,2.093-.124q1.372.97,2.744,1.94c.116.083.269.133.342.326H8.3a14.418,14.418,0,0,1-3.046-2.142" transform="translate(-3.3 -73.876)" fill="#fe6f43"/>
        <path id="Trazado_136279" data-name="Trazado 136279" d="M61.459,120.212H59.137l1.352-.961q.937-.664,1.875-1.325a1.431,1.431,0,0,1,1.949.243,2.835,2.835,0,0,1-.893.721,16.944,16.944,0,0,1-1.96,1.322" transform="translate(-37.137 -73.88)" fill="#fe6f43"/>
        <path id="Trazado_136280" data-name="Trazado 136280" d="M4.539,118.78l3.047,2.142c-.714.007-1.429.016-2.142.022a1.247,1.247,0,0,1-1.226-.831,1.106,1.106,0,0,1,.322-1.333" transform="translate(-2.584 -74.591)" fill="#fe8f17"/>
        <path id="Trazado_136281" data-name="Trazado 136281" d="M65.379,121.092a17.515,17.515,0,0,1,2.1-1.551,2.411,2.411,0,0,1,.751-.491,1.068,1.068,0,0,1,.22,1.264,1.213,1.213,0,0,1-1.141.795c-.644.006-1.288-.009-1.933-.016" transform="translate(-41.057 -74.76)" fill="#fe8f17"/>
        <path id="Trazado_136282" data-name="Trazado 136282" d="M22.193,121.183a3.4,3.4,0,0,1,2.969.919,2.8,2.8,0,0,0,.969.632.5.5,0,0,1-.065.076c-.767.6-.77.6-1.564.037-.773-.55-1.54-1.109-2.309-1.664" transform="translate(-13.937 -76.067)" fill="#fbd743"/>
        <path id="Trazado_136283" data-name="Trazado 136283" d="M62.1,26.2h1.5c.006.051.015.1.015.152.024,1.275.025,1.267-1.252,1.171-.227-.017-.294-.092-.284-.3.015-.34.013-.68.019-1.02" transform="translate(-38.983 -16.452)" fill="#fbaa08"/>
        <path id="Trazado_136284" data-name="Trazado 136284" d="M97.515,105.307c2.3,0,4.6.006,6.9-.007.35,0,.446.052.4.444q-.515,4.486-.965,8.979c-.041.4-.16.541-.583.539q-5.772-.025-11.544,0c-.4,0-.513-.126-.553-.51q-.468-4.516-.983-9.027c-.04-.351.051-.425.385-.423,2.316.013,4.631.007,6.947.007" transform="translate(-56.628 -66.126)"/>
        <path id="Trazado_136285" data-name="Trazado 136285" d="M45.321,58.531c-1.226,0-2.451-.007-3.677.005-.3,0-.414-.064-.419-.392-.019-1.153-.032-1.152,1.134-1.152,2.162,0,4.324.008,6.485-.008.382,0,.538.074.529.5-.021,1.047,0,1.047-1.04,1.047H45.321" transform="translate(-25.886 -35.785)" fill="#fdfefe"/>
        <path id="Trazado_136286" data-name="Trazado 136286" d="M68.188,56.991c1.02,0,1,0,1.025,1.01.011.42-.1.577-.533.538-.387-.035-.786.036-1.169-.017-.706-.1-.229-.663-.332-1-.067-.222-.124-.58.347-.533.218.022.441,0,.661,0" transform="translate(-42.147 -35.784)" fill="#fbfefe"/>
        <path id="Trazado_136287" data-name="Trazado 136287" d="M25.975,89.878c-.012.866.1.746-.824.746-.827,0-.7.109-.708-.86,0-.788-.084-.668.847-.671.793,0,.673-.07.685.785" transform="translate(-15.347 -55.946)" fill="#fefefe"/>
        <path id="Trazado_136288" data-name="Trazado 136288" d="M41.933,93.1c-.845-.012-.733.106-.734-.837,0-.809-.087-.7.823-.7.837,0,.7-.1.708.861,0,.78.075.661-.8.672" transform="translate(-25.869 -57.5)" fill="#fefefe"/>
        <path id="Trazado_136289" data-name="Trazado 136289" d="M33.452,93.1c-.858-.011-.742.106-.743-.826,0-.825-.1-.7.862-.708.786,0,.665-.076.669.851,0,.792.062.672-.787.683" transform="translate(-20.537 -57.501)" fill="#fefefd"/>
        <path id="Trazado_136290" data-name="Trazado 136290" d="M49.459,89.84c.01-.855-.1-.744.828-.746.816,0,.7-.091.706.813,0,.846.09.715-.851.719-.794,0-.671.067-.682-.787" transform="translate(-31.059 -55.947)" fill="#fefdfc"/>
        <path id="Trazado_136291" data-name="Trazado 136291" d="M100.405,109.433c1.737,0,3.474.008,5.21-.007.334,0,.429.071.387.423q-.363,3.04-.677,6.086c-.029.276-.1.376-.389.375q-4.546-.014-9.092,0c-.251,0-.344-.064-.372-.331q-.324-3.1-.685-6.187c-.036-.311.08-.364.358-.362,1.754.01,3.507.005,5.261.005" transform="translate(-59.52 -68.717)" fill="#afbdc4"/>
        <path id="Trazado_136292" data-name="Trazado 136292" d="M108.735,118.119c-.885-.012-.765.106-.764-.794,0-.872-.122-.738.865-.739.786,0,.658-.109.664.891,0,.74.069.632-.765.642" transform="translate(-67.8 -73.209)" fill="#fefefe"/>
        <path id="Trazado_136293" data-name="Trazado 136293" d="M101.244,117.377c-.012.855.109.738-.833.74-.812,0-.7.1-.7-.818,0-.842-.1-.71.856-.713.791,0,.665-.078.677.791" transform="translate(-62.613 -73.21)" fill="#fefefe"/>
        <path id="Trazado_136294" data-name="Trazado 136294" d="M116.216,117.338c.012-.862-.1-.751.755-.751.8,0,.67-.106.674.881,0,.749.079.65-.753.651-.785,0-.666.077-.677-.781" transform="translate(-72.981 -73.212)" fill="#fefefe"/>
      </g>
    </g>
  </g>
</svg>
