<svg xmlns="http://www.w3.org/2000/svg" xmlns:xlink="http://www.w3.org/1999/xlink" width="274" height="184" viewBox="0 0 274 184">
  <defs>
    <clipPath id="clip-path">
      <rect id="Rectángulo_37602" data-name="Rectángulo 37602" width="26.718" height="26.683" fill="none"/>
    </clipPath>
    <clipPath id="clip-path-2">
      <rect id="Rectángulo_37595" data-name="Rectángulo 37595" width="32.788" height="36.416" fill="none"/>
    </clipPath>
    <clipPath id="clip-path-3">
      <rect id="Rectángulo_37595-2" data-name="Rectángulo 37595" width="36.5" height="40.539" fill="none"/>
    </clipPath>
    <clipPath id="clip-path-4">
      <rect id="Rectángulo_37596" data-name="Rectángulo 37596" width="29.044" height="34.437" fill="none"/>
    </clipPath>
    <clipPath id="clip-path-5">
      <rect id="Rectángulo_37596-2" data-name="Rectángulo 37596" width="33.837" height="40.12" fill="none"/>
    </clipPath>
  </defs>
  <g id="Grupo_161677" data-name="Grupo 161677" transform="translate(7356 7097)">
    <path id="Trazado_142356" data-name="Trazado 142356" d="M11,0H119a11,11,0,0,1,11,11V42a11,11,0,0,1-11,11H11A11,11,0,0,1,0,42V11A11,11,0,0,1,11,0Z" transform="translate(-7351 -6970)" fill="#c4d1ff"/>
    <path id="Trazado_142357" data-name="Trazado 142357" d="M5.039,12.836H3.18L2.453,17H.164L2.141,5.625l3.766.008a4.289,4.289,0,0,1,2.91.891A2.817,2.817,0,0,1,9.719,9a3.574,3.574,0,0,1-2.5,3.258l1.6,4.617V17H6.383Zm-1.531-1.9,1.7.016a2.386,2.386,0,0,0,1.5-.488A1.933,1.933,0,0,0,7.414,9.18a1.473,1.473,0,0,0-.242-1.187,1.442,1.442,0,0,0-1.117-.461L4.1,7.523Zm10.516,6.219a3.677,3.677,0,0,1-1.965-.543,3.292,3.292,0,0,1-1.277-1.469,4.093,4.093,0,0,1-.328-2.059l.023-.312a5.465,5.465,0,0,1,.719-2.266,4.341,4.341,0,0,1,1.547-1.59,3.827,3.827,0,0,1,2.094-.527,2.924,2.924,0,0,1,2.473,1.2,4.117,4.117,0,0,1,.637,2.962l-.125.962h-5.18a1.814,1.814,0,0,0,.4,1.313,1.521,1.521,0,0,0,1.172.508A2.7,2.7,0,0,0,16.32,14.4l1.008,1.25a3.135,3.135,0,0,1-1.375,1.121A4.5,4.5,0,0,1,14.023,17.156Zm.7-6.945a1.565,1.565,0,0,0-1.082.383,3.363,3.363,0,0,0-.848,1.383h3.031l.047-.2a2.071,2.071,0,0,0,.008-.594,1.134,1.134,0,0,0-.383-.707A1.2,1.2,0,0,0,14.727,10.211Zm8.648,4.406q.125-.625-.867-.906l-.711-.18q-2.523-.7-2.453-2.453A2.428,2.428,0,0,1,20.4,9.129a3.942,3.942,0,0,1,2.457-.738,3.536,3.536,0,0,1,2.313.758,2.5,2.5,0,0,1,.9,1.977l-2.187-.008a.963.963,0,0,0-1.078-1.1,1.552,1.552,0,0,0-.895.258,1.061,1.061,0,0,0-.465.7q-.117.625.945.883l.313.07a6.285,6.285,0,0,1,1.648.59,2.488,2.488,0,0,1,.879.824,2.04,2.04,0,0,1,.285,1.18A2.251,2.251,0,0,1,25,15.922a3.18,3.18,0,0,1-1.359.93,4.736,4.736,0,0,1-1.816.3,3.568,3.568,0,0,1-2.344-.809,2.607,2.607,0,0,1-.953-2.051l2.078.016a1.142,1.142,0,0,0,1.3,1.227,1.845,1.845,0,0,0,1-.25A.987.987,0,0,0,23.375,14.617ZM31,6.469l-.367,2.078h1.406L31.75,10.2H30.344l-.719,4.234a1.077,1.077,0,0,0,.063.609q.109.211.531.227.125.008.672-.039l-.156,1.727a3.706,3.706,0,0,1-1.266.18,1.985,1.985,0,0,1-1.617-.68,2.456,2.456,0,0,1-.437-1.8l.727-4.461h-1.2l.289-1.656h1.2l.359-2.078ZM36.742,17a2.281,2.281,0,0,1-.086-.766,2.863,2.863,0,0,1-2.156.922,2.594,2.594,0,0,1-1.84-.723,2.186,2.186,0,0,1-.684-1.746,2.527,2.527,0,0,1,1.16-2.121,5.266,5.266,0,0,1,2.965-.738l1.031.016.109-.508a1.764,1.764,0,0,0,.023-.492.846.846,0,0,0-.277-.574.955.955,0,0,0-.629-.215,1.345,1.345,0,0,0-.875.254,1.231,1.231,0,0,0-.461.777l-2.211.008a2.457,2.457,0,0,1,1.113-1.965,4.312,4.312,0,0,1,2.613-.738,3.117,3.117,0,0,1,2.25.855,2.5,2.5,0,0,1,.68,2.121l-.648,4.047-.039.5a2.412,2.412,0,0,0,.133.938L38.906,17Zm-1.7-1.555a2.017,2.017,0,0,0,1.664-.828l.273-1.461-.766-.008a2.139,2.139,0,0,0-1.758.742,1.292,1.292,0,0,0-.242.633.75.75,0,0,0,.176.668A.891.891,0,0,0,35.047,15.445Zm10.438.68a2.919,2.919,0,0,1-2.328,1.031,2.172,2.172,0,0,1-1.844-.875,3.2,3.2,0,0,1-.484-2.266l.914-5.469h2.2l-.93,5.5a2.175,2.175,0,0,0-.008.485.8.8,0,0,0,.867.806,2.014,2.014,0,0,0,1.7-.79l1.055-6h2.219L47.375,17H45.32Zm9.32-5.461a4.548,4.548,0,0,0-.742-.078,2.136,2.136,0,0,0-1.867.883L51.219,17h-2.2l1.469-8.453,2.07-.008-.2,1.031a2.325,2.325,0,0,1,1.969-1.2,3.214,3.214,0,0,1,.766.109ZM59.414,17a2.281,2.281,0,0,1-.086-.766,2.863,2.863,0,0,1-2.156.922,2.594,2.594,0,0,1-1.84-.723,2.186,2.186,0,0,1-.684-1.746,2.527,2.527,0,0,1,1.16-2.121,5.266,5.266,0,0,1,2.965-.738l1.031.016.109-.508a1.764,1.764,0,0,0,.023-.492.846.846,0,0,0-.277-.574.955.955,0,0,0-.629-.215,1.345,1.345,0,0,0-.875.254,1.231,1.231,0,0,0-.461.777l-2.211.008A2.457,2.457,0,0,1,56.6,9.129a4.312,4.312,0,0,1,2.613-.738,3.117,3.117,0,0,1,2.25.855,2.5,2.5,0,0,1,.68,2.121l-.648,4.047-.039.5a2.412,2.412,0,0,0,.133.938L61.578,17Zm-1.7-1.555a2.017,2.017,0,0,0,1.664-.828l.273-1.461-.766-.008a2.139,2.139,0,0,0-1.758.742,1.292,1.292,0,0,0-.242.633.75.75,0,0,0,.176.668A.891.891,0,0,0,57.719,15.445Zm8.688-6.906-.187,1A3.042,3.042,0,0,1,68.68,8.391a2.028,2.028,0,0,1,1.766.875,3.526,3.526,0,0,1,.414,2.359L69.969,17h-2.2l.906-5.4a2.528,2.528,0,0,0,.016-.555.9.9,0,0,0-1-.82,1.9,1.9,0,0,0-1.555.8L65.078,17h-2.2l1.469-8.453Zm9.758-2.07L75.8,8.547H77.2L76.914,10.2H75.508l-.719,4.234a1.077,1.077,0,0,0,.063.609q.109.211.531.227.125.008.672-.039L75.9,16.961a3.706,3.706,0,0,1-1.266.18,1.985,1.985,0,0,1-1.617-.68,2.456,2.456,0,0,1-.437-1.8L73.3,10.2h-1.2L72.4,8.547h1.2l.359-2.078Z" transform="translate(-7346 -6943)" fill="#12263f"/>
    <path id="Trazado_136071" data-name="Trazado 136071" d="M113.076,4.858a.7.7,0,0,0-.174-.619,2.238,2.238,0,0,0-.875-.448,2.7,2.7,0,0,1-1.14-.6,1.138,1.138,0,0,1-.255-1.022,1.26,1.26,0,0,1,.559-.9,2.039,2.039,0,0,1,1.167-.32,1.793,1.793,0,0,1,1.251.407,1.142,1.142,0,0,1,.325,1.114l-.007.021h-.646a.822.822,0,0,0-.208-.73,1.059,1.059,0,0,0-.8-.282,1.093,1.093,0,0,0-.658.2.714.714,0,0,0-.313.487.7.7,0,0,0,.145.624,2.476,2.476,0,0,0,.894.443,2.929,2.929,0,0,1,1.154.614,1.111,1.111,0,0,1,.251,1.007,1.25,1.25,0,0,1-.576.913,2.217,2.217,0,0,1-1.212.308A2.328,2.328,0,0,1,110.62,5.7a1.054,1.054,0,0,1-.408-1.148l.01-.021h.643a.717.717,0,0,0,.277.779,1.622,1.622,0,0,0,.9.232,1.239,1.239,0,0,0,.69-.193A.714.714,0,0,0,113.076,4.858ZM116.7,6l.038-.53a1.507,1.507,0,0,1-.514.448,1.4,1.4,0,0,1-.658.154,1.019,1.019,0,0,1-.875-.391,1.594,1.594,0,0,1-.167-1.2L114.85,2.3h.673L115.2,4.489a1.3,1.3,0,0,0,.048.824.573.573,0,0,0,.516.212,1.14,1.14,0,0,0,1.036-.581l.393-2.642h.673L117.308,6Zm2.71-3.168a1.6,1.6,0,0,1,.528-.443,1.418,1.418,0,0,1,.658-.156,1.043,1.043,0,0,1,.863.354,1.361,1.361,0,0,1,.176,1.078L121.29,6h-.673l.349-2.321a.923.923,0,0,0-.085-.7.694.694,0,0,0-.564-.2,1.1,1.1,0,0,0-.54.132,1.194,1.194,0,0,0-.4.364L118.962,6h-.673l.554-3.7h.6Zm5.161,2.174a.4.4,0,0,0-.116-.366,1.431,1.431,0,0,0-.608-.243A2.338,2.338,0,0,1,122.9,4a.683.683,0,0,1-.255-.677,1.139,1.139,0,0,1,.49-.783,1.721,1.721,0,0,1,1.044-.311,1.315,1.315,0,0,1,.957.345.85.85,0,0,1,.277.793l-.007.021h-.646a.508.508,0,0,0-.147-.437.663.663,0,0,0-.506-.191.864.864,0,0,0-.549.162.584.584,0,0,0-.238.381.359.359,0,0,0,.1.342,1.508,1.508,0,0,0,.6.215,2.282,2.282,0,0,1,.974.407.714.714,0,0,1,.256.687,1.146,1.146,0,0,1-.509.812,1.866,1.866,0,0,1-1.087.3,1.436,1.436,0,0,1-1.048-.362.89.89,0,0,1-.285-.834l.007-.021h.646a.545.545,0,0,0,.195.525.921.921,0,0,0,.561.166,1.008,1.008,0,0,0,.574-.154A.569.569,0,0,0,124.574,5.005Zm2.875,1.066a1.343,1.343,0,0,1-1.15-.516,1.721,1.721,0,0,1-.261-1.333l.024-.15a2.214,2.214,0,0,1,.651-1.333,1.7,1.7,0,0,1,1.2-.506,1.148,1.148,0,0,1,1.029.468,1.682,1.682,0,0,1,.2,1.22l-.051.355H126.7a1.468,1.468,0,0,0,.116.928.745.745,0,0,0,.708.34,1.827,1.827,0,0,0,.61-.1,1.6,1.6,0,0,0,.487-.267l.2.438a1.946,1.946,0,0,1-.571.323A2.248,2.248,0,0,1,127.449,6.072Zm.39-3.309a.852.852,0,0,0-.614.273,1.558,1.558,0,0,0-.395.69l.007.021H128.5l.007-.055a.987.987,0,0,0-.1-.672A.617.617,0,0,0,127.838,2.763Zm3.377-1.354-.133.892h.7l-.075.5h-.7l-.335,2.246a.46.46,0,0,0,.05.371.347.347,0,0,0,.272.1.687.687,0,0,0,.132-.015.917.917,0,0,0,.125-.032l.024.461a.715.715,0,0,1-.238.1,1.18,1.18,0,0,1-.3.039.759.759,0,0,1-.61-.25A.942.942,0,0,1,130,5.046l.335-2.246h-.588l.075-.5h.588l.133-.892ZM136.7,4.858a.7.7,0,0,0-.174-.619,2.238,2.238,0,0,0-.875-.448,2.7,2.7,0,0,1-1.14-.6,1.138,1.138,0,0,1-.255-1.022,1.26,1.26,0,0,1,.559-.9,2.039,2.039,0,0,1,1.167-.32,1.793,1.793,0,0,1,1.251.407,1.142,1.142,0,0,1,.325,1.114l-.007.021h-.646a.822.822,0,0,0-.208-.73,1.059,1.059,0,0,0-.8-.282,1.093,1.093,0,0,0-.658.2.714.714,0,0,0-.313.487.7.7,0,0,0,.145.624,2.476,2.476,0,0,0,.894.443,2.929,2.929,0,0,1,1.154.614,1.111,1.111,0,0,1,.251,1.007,1.25,1.25,0,0,1-.576.913,2.217,2.217,0,0,1-1.212.308,2.328,2.328,0,0,1-1.342-.369,1.054,1.054,0,0,1-.408-1.148l.01-.021h.643a.717.717,0,0,0,.277.779,1.622,1.622,0,0,0,.9.232,1.239,1.239,0,0,0,.69-.193A.714.714,0,0,0,136.7,4.858Zm2.857-3.449-.133.892h.7l-.075.5h-.7l-.335,2.246a.46.46,0,0,0,.05.371.347.347,0,0,0,.272.1.687.687,0,0,0,.132-.015.917.917,0,0,0,.125-.032l.024.461a.715.715,0,0,1-.238.1,1.18,1.18,0,0,1-.3.039.759.759,0,0,1-.61-.25.942.942,0,0,1-.132-.776L138.68,2.8h-.588l.075-.5h.588l.133-.892Zm2.95,1.487-.342-.021a.831.831,0,0,0-.465.132,1.089,1.089,0,0,0-.342.371L140.97,6H140.3l.554-3.7h.6l-.014.523a1.554,1.554,0,0,1,.451-.436,1.043,1.043,0,0,1,.557-.156.841.841,0,0,1,.142.012.782.782,0,0,1,.111.026ZM144.2,6.072a1.343,1.343,0,0,1-1.15-.516,1.721,1.721,0,0,1-.261-1.333l.024-.15a2.214,2.214,0,0,1,.651-1.333,1.7,1.7,0,0,1,1.2-.506A1.148,1.148,0,0,1,145.7,2.7a1.682,1.682,0,0,1,.2,1.22l-.051.355h-2.393a1.468,1.468,0,0,0,.116.928.745.745,0,0,0,.708.34,1.827,1.827,0,0,0,.61-.1,1.6,1.6,0,0,0,.487-.267l.2.438a1.946,1.946,0,0,1-.571.323A2.248,2.248,0,0,1,144.2,6.072Zm.39-3.309a.852.852,0,0,0-.614.273,1.558,1.558,0,0,0-.395.69l.007.021h1.665l.007-.055a.987.987,0,0,0-.1-.672A.617.617,0,0,0,144.593,2.763Zm3.274,3.309a1.343,1.343,0,0,1-1.15-.516,1.721,1.721,0,0,1-.261-1.333l.024-.15a2.214,2.214,0,0,1,.651-1.333,1.7,1.7,0,0,1,1.2-.506,1.148,1.148,0,0,1,1.029.468,1.682,1.682,0,0,1,.2,1.22l-.051.355h-2.393a1.468,1.468,0,0,0,.116.928.745.745,0,0,0,.708.34,1.827,1.827,0,0,0,.61-.1,1.6,1.6,0,0,0,.487-.267l.2.438a1.946,1.946,0,0,1-.571.323A2.248,2.248,0,0,1,147.868,6.072Zm.39-3.309a.852.852,0,0,0-.614.273,1.558,1.558,0,0,0-.395.69l.007.021h1.665l.007-.055a.987.987,0,0,0-.1-.672A.617.617,0,0,0,148.257,2.763Zm3.377-1.354L151.5,2.3h.7l-.075.5h-.7l-.335,2.246a.46.46,0,0,0,.05.371.347.347,0,0,0,.272.1.687.687,0,0,0,.132-.015.917.917,0,0,0,.125-.032l.024.461a.715.715,0,0,1-.238.1,1.18,1.18,0,0,1-.3.039.759.759,0,0,1-.61-.25.942.942,0,0,1-.132-.776l.335-2.246h-.588l.075-.5h.588l.133-.892Z" transform="translate(-7347 -6992)" fill="#fff"/>
    <path id="Trazado_142358" data-name="Trazado 142358" d="M11,0H258a11,11,0,0,1,11,11V82a11,11,0,0,1-11,11H11A11,11,0,0,1,0,82V11A11,11,0,0,1,11,0Z" transform="translate(-7351 -7097)" fill="#fff7da"/>
    <path id="Trazado_142359" data-name="Trazado 142359" d="M14.9,12.992,14.2,17H11.91L13.887,5.625l3.984.008a3.986,3.986,0,0,1,2.9,1.023,3.174,3.174,0,0,1,.922,2.672A3.592,3.592,0,0,1,20.3,12a5.075,5.075,0,0,1-3.238,1Zm.32-1.9,1.906.016a2.41,2.41,0,0,0,1.531-.477,1.918,1.918,0,0,0,.727-1.289,1.646,1.646,0,0,0-.262-1.3A1.418,1.418,0,0,0,18,7.531l-2.156-.008ZM26.66,17a2.281,2.281,0,0,1-.086-.766,2.863,2.863,0,0,1-2.156.922,2.594,2.594,0,0,1-1.84-.723,2.186,2.186,0,0,1-.684-1.746,2.527,2.527,0,0,1,1.16-2.121,5.266,5.266,0,0,1,2.965-.738l1.031.016.109-.508a1.764,1.764,0,0,0,.023-.492.846.846,0,0,0-.277-.574.955.955,0,0,0-.629-.215,1.345,1.345,0,0,0-.875.254,1.231,1.231,0,0,0-.461.777l-2.211.008a2.457,2.457,0,0,1,1.113-1.965,4.312,4.312,0,0,1,2.613-.738,3.117,3.117,0,0,1,2.25.855,2.5,2.5,0,0,1,.68,2.121l-.648,4.047-.039.5a2.412,2.412,0,0,0,.133.938L28.824,17Zm-1.7-1.555a2.017,2.017,0,0,0,1.664-.828l.273-1.461-.766-.008a2.139,2.139,0,0,0-1.758.742,1.292,1.292,0,0,0-.242.633.75.75,0,0,0,.176.668A.891.891,0,0,0,24.965,15.445Zm10.992-4.781a4.548,4.548,0,0,0-.742-.078,2.136,2.136,0,0,0-1.867.883L32.371,17h-2.2l1.469-8.453,2.07-.008L33.5,9.57a2.325,2.325,0,0,1,1.969-1.2,3.214,3.214,0,0,1,.766.109Zm3.609,2.969-1.023.891L38.113,17h-2.2L37.988,5H40.2l-1.141,6.516.43-.461L42,8.547h2.828l-3.7,3.633L43.48,17H41.066Z" transform="translate(-7243 -7060)" fill="#12263f"/>
    <g id="Grupo_158994" data-name="Grupo 158994" transform="translate(-116 683)">
      <g id="Rectángulo_37565" data-name="Rectángulo 37565" transform="translate(-7240 -7657)" fill="none" stroke="#ffd947" stroke-width="2">
        <rect width="140" height="61" rx="15" stroke="none"/>
        <rect x="1" y="1" width="138" height="59" rx="14" fill="none"/>
      </g>
      <path id="Polígono_14" data-name="Polígono 14" d="M6.5,0,13,11H0Z" transform="translate(-7176 -7667)" fill="#ffd947"/>
    </g>
    <path id="Trazado_142360" data-name="Trazado 142360" d="M8.859,17a2.281,2.281,0,0,1-.086-.766,2.863,2.863,0,0,1-2.156.922,2.594,2.594,0,0,1-1.84-.723,2.186,2.186,0,0,1-.684-1.746,2.527,2.527,0,0,1,1.16-2.121,5.266,5.266,0,0,1,2.965-.738l1.031.016.109-.508a1.764,1.764,0,0,0,.023-.492.846.846,0,0,0-.277-.574.955.955,0,0,0-.629-.215,1.345,1.345,0,0,0-.875.254,1.231,1.231,0,0,0-.461.777l-2.211.008A2.457,2.457,0,0,1,6.043,9.129a4.312,4.312,0,0,1,2.613-.738,3.117,3.117,0,0,1,2.25.855,2.5,2.5,0,0,1,.68,2.121l-.648,4.047-.039.5a2.412,2.412,0,0,0,.133.938L11.023,17Zm-1.7-1.555a2.017,2.017,0,0,0,1.664-.828L9.1,13.156l-.766-.008a2.139,2.139,0,0,0-1.758.742,1.292,1.292,0,0,0-.242.633.75.75,0,0,0,.176.668A.891.891,0,0,0,7.164,15.445Zm8.906-.1a1.447,1.447,0,0,0,1.016-.332,1.632,1.632,0,0,0,.531-.926l2.07-.008a3.037,3.037,0,0,1-.559,1.6,3.394,3.394,0,0,1-1.344,1.109,3.847,3.847,0,0,1-1.77.375A3.123,3.123,0,0,1,13.578,16.1a3.965,3.965,0,0,1-.867-2.766l.023-.43.008-.086a5.284,5.284,0,0,1,1.391-3.27,3.761,3.761,0,0,1,2.914-1.16,3.047,3.047,0,0,1,2.27.934,3.3,3.3,0,0,1,.824,2.379H18.086a1.73,1.73,0,0,0-.3-1.07,1.128,1.128,0,0,0-.891-.422q-1.578-.047-1.914,2.3a7.782,7.782,0,0,0-.086,1.438Q14.977,15.32,16.07,15.344Zm10.258-4.68a4.548,4.548,0,0,0-.742-.078,2.136,2.136,0,0,0-1.867.883L22.742,17h-2.2l1.469-8.453,2.07-.008-.2,1.031a2.325,2.325,0,0,1,1.969-1.2,3.214,3.214,0,0,1,.766.109Zm4.508-2.273a3.39,3.39,0,0,1,1.926.574A3.234,3.234,0,0,1,33.949,10.5a4.762,4.762,0,0,1,.27,2.176,5.143,5.143,0,0,1-1.4,3.262,3.96,3.96,0,0,1-3.02,1.215,3.38,3.38,0,0,1-1.906-.566A3.222,3.222,0,0,1,26.7,15.063a4.657,4.657,0,0,1-.273-2.156,5.3,5.3,0,0,1,1.422-3.328A3.878,3.878,0,0,1,30.836,8.391Zm-2.227,5.315a1.95,1.95,0,0,0,.352,1.182,1.168,1.168,0,0,0,.945.449A1.712,1.712,0,0,0,31.5,14.4a4.647,4.647,0,0,0,.539-2.531,2.122,2.122,0,0,0-.363-1.2,1.149,1.149,0,0,0-.949-.464,1.715,1.715,0,0,0-1.574.924A4.6,4.6,0,0,0,28.609,13.706Zm11.141.912q.125-.625-.867-.906l-.711-.18q-2.523-.7-2.453-2.453a2.428,2.428,0,0,1,1.059-1.949,3.942,3.942,0,0,1,2.457-.738,3.536,3.536,0,0,1,2.313.758,2.5,2.5,0,0,1,.9,1.977l-2.187-.008a.963.963,0,0,0-1.078-1.1,1.552,1.552,0,0,0-.895.258,1.061,1.061,0,0,0-.465.7q-.117.625.945.883l.313.07a6.285,6.285,0,0,1,1.648.59,2.488,2.488,0,0,1,.879.824,2.04,2.04,0,0,1,.285,1.18,2.251,2.251,0,0,1-.52,1.406,3.18,3.18,0,0,1-1.359.93,4.736,4.736,0,0,1-1.816.3,3.568,3.568,0,0,1-2.344-.809A2.607,2.607,0,0,1,34.9,14.3l2.078.016a1.142,1.142,0,0,0,1.3,1.227,1.845,1.845,0,0,0,1-.25A.987.987,0,0,0,39.75,14.617Zm8.055,0q.125-.625-.867-.906l-.711-.18q-2.523-.7-2.453-2.453a2.428,2.428,0,0,1,1.059-1.949,3.942,3.942,0,0,1,2.457-.738,3.536,3.536,0,0,1,2.313.758,2.5,2.5,0,0,1,.9,1.977l-2.187-.008a.963.963,0,0,0-1.078-1.1,1.552,1.552,0,0,0-.895.258,1.061,1.061,0,0,0-.465.7q-.117.625.945.883l.313.07a6.285,6.285,0,0,1,1.648.59,2.488,2.488,0,0,1,.879.824,2.04,2.04,0,0,1,.285,1.18,2.251,2.251,0,0,1-.52,1.406,3.18,3.18,0,0,1-1.359.93,4.736,4.736,0,0,1-1.816.3,3.568,3.568,0,0,1-2.344-.809,2.607,2.607,0,0,1-.953-2.051l2.078.016a1.142,1.142,0,0,0,1.3,1.227,1.845,1.845,0,0,0,1-.25A.987.987,0,0,0,47.8,14.617Z" transform="translate(-7347 -7001)" fill="#ffd947"/>
    <g id="Grupo_159094" data-name="Grupo 159094" transform="translate(-7256.359 -6954.433)">
      <g id="Grupo_159072" data-name="Grupo 159072" clip-path="url(#clip-path)">
        <path id="Trazado_136243" data-name="Trazado 136243" d="M81.977,54.522c.107,0,.171.025.165.162-.013.277,0,.557-.007.834-.006.142.045.168.177.171.587.012.587.016.587-.575s0-.581.578-.581c.522,0,1.043.006,1.565,0,.165,0,.233.035.222.214-.015.26,0,.522-.006.782,0,.123.031.164.159.163.678-.006,1.357-.007,2.035,0,.147,0,.169-.056.167-.182-.006-.443.008-.887-.007-1.33-.007-.191.058-.227.234-.224.635.011,1.27.012,1.9,0,.19,0,.225.058.224.234-.007,1.487,0,2.973,0,4.46,0,.346,0,.345.339.348.077,0,.155.011.232.017v.365c-.082.5-.064,1.017-.124,1.523-.161,1.37-.3,2.742-.454,4.113q-.272,2.5-.543,4.994c-.015.135.006.287-.163.351q-4.565,0-9.129,0c-.19-.044-.142-.2-.156-.329-.128-.912-.208-1.83-.31-2.745q-.31-2.8-.611-5.6c-.086-.795-.175-1.589-.258-2.384-.03-.282.038-.364.328-.368.612-.009.588.074.588-.629q0-1.7,0-3.391c0-.423.047-.469.459-.471q.73,0,1.461,0a.476.476,0,0,1,.347.078" transform="translate(-63.822 -43.705)"/>
        <path id="Trazado_136244" data-name="Trazado 136244" d="M85.669,140.264a.035.035,0,0,1,0-.047l9.19,0c0,.017,0,.034,0,.051Z" transform="translate(-69.388 -113.582)" fill="#777"/>
        <path id="Trazado_136245" data-name="Trazado 136245" d="M26.039,139.853a.22.22,0,0,1-.007.043H18.1a.234.234,0,0,0-.007-.044.4.4,0,0,1,.34-.092q3.634,0,7.267,0c.119,0,.247-.014.339.093" transform="translate(-14.657 -113.213)" fill="#777"/>
        <path id="Trazado_136246" data-name="Trazado 136246" d="M11.382,26.64c-.781,0-1.563-.008-2.344-.009q-2.763,0-5.525,0a.509.509,0,0,0-.077.011,2.541,2.541,0,0,1-2.36-2A.433.433,0,0,0,.81,24.3,1.417,1.417,0,0,1,.326,22.12c.093-.116.107-.175.007-.3a1.413,1.413,0,0,1,.493-2.2c.119-.058.2-.112.209-.259a4.571,4.571,0,0,1,4.6-4.076c.511,0,.515-.006.479-.528-.1-1.508-.211-3.017-.308-4.526-.01-.16-.055-.2-.212-.2-.329.013-.659,0-1.015,0,.242-.773.492-1.52.7-2.278a.392.392,0,0,1,.477-.345c.536.026.537.008.7-.513.114-.355.234-.708.335-1.066a.232.232,0,0,1,.271-.2c1.226.007,2.452,0,3.678.01.222,0,.268-.061.266-.273C11,4.034,11.012,2.687,11,1.34c0-.245.049-.349.312-.409C12.538.651,13.756.338,14.977.042a1.2,1.2,0,0,1,1.407.614,1.236,1.236,0,0,1-.324,1.487,1.475,1.475,0,0,1-.615.265c-.625.146-1.249.3-1.877.427-.173.036-.214.111-.212.276.009.756.012,1.513,0,2.269,0,.209.037.277.263.274,1.217-.013,2.434,0,3.651-.011a.262.262,0,0,1,.307.221c.134.457.29.908.43,1.363.042.138.095.213.263.205.232-.011.528-.1.683.035s.165.423.235.645c.2.635.4,1.271.6,1.939H18.2a.785.785,0,0,1-.481.067q-5.185,0-10.37,0H7.276c-.576,0-.576,0-.573.57.072.922.126,1.845.195,2.767.028.37.069.741.067,1.112,0,.667,0,.667.646.667.6,0,1.2-.01,1.8,0a4.4,4.4,0,0,1,3.009,1.245,4.563,4.563,0,0,1,1.434,2.766.491.491,0,0,0,.268.358,1.51,1.51,0,0,1,.77,1.438,1.344,1.344,0,0,1-.27.722.278.278,0,0,0-.011.371,1.479,1.479,0,0,1-.488,2.18.729.729,0,0,0-.334.462,2.191,2.191,0,0,1-1.225,1.527,2.849,2.849,0,0,1-1.179.331" transform="translate(0 -0.001)"/>
        <path id="Trazado_136247" data-name="Trazado 136247" d="M40.556,69.009a2.873,2.873,0,0,0,1.1-1.321,1.75,1.75,0,0,1,.628-.851,1.416,1.416,0,0,0,.213-2.02c-.1-.122-.093-.183,0-.3a1.411,1.411,0,0,0-.485-2.18A.373.373,0,0,1,41.782,62a4.554,4.554,0,0,0-4.034-3.983c-.8-.087-1.617-.024-2.425-.03-.374,0-.375,0-.413-.375-.009-.095-.009-.19-.014-.285a.264.264,0,0,1,.215-.074,27.214,27.214,0,0,1,2.736.043A5.284,5.284,0,0,1,42.4,61.314c.1.4.1.4.284.543-.03-.43-.077-.842-.124-1.253-.115-.993-.213-1.987-.326-2.981-.032-.286.032-.357.323-.37.1,0,.209,0,.313,0,.307,0,.33-.024.331-.324,0-.556,0-1.113,0-1.67,0-.47,0-.939,0-1.409,0-.338-.018-.354-.353-.356-1.417-.006-2.835,0-4.252-.005q-1.787,0-3.574,0a.534.534,0,0,1-.4-.077c-.011-.215-.141-.488-.018-.627s.41-.043.624-.043q5.339,0,10.679,0c.1,0,.19.006.285.009a3.908,3.908,0,0,0-.05.765c-.651,0-1.3.015-1.953.006-.194,0-.247.047-.246.244.009,1.3-.005,2.606.013,3.909,0,.279-.084.347-.335.317-.145-.017-.3.005-.443-.006s-.171.056-.157.185q.246,2.212.486,4.425.25,2.29.5,4.581c.066.612.129,1.225.194,1.837l-.666-.007a3.075,3.075,0,0,1-.159-.965c-.052-.385-.1-.771-.13-1.2a9.809,9.809,0,0,1-.774.781c-.131.127-.147.329-.223.494a2.156,2.156,0,0,1-.642.9l-1.059,0" transform="translate(-27.995 -42.701)" fill="#3fc3fe"/>
        <path id="Trazado_136248" data-name="Trazado 136248" d="M88.719,94.333c-1.217,0-2.435,0-3.653,0-.186,0-.249-.045-.269-.237-.123-1.21-.262-2.418-.395-3.627q-.224-2.046-.446-4.093c-.059-.535-.113-1.071-.18-1.606-.023-.181.028-.236.217-.236.728,0,.727-.007.966.666.267.752.539,1.5.8,2.257a.277.277,0,0,0,.309.23q2.661-.013,5.323,0a.262.262,0,0,0,.3-.206c.313-.9.643-1.8.955-2.7.064-.186.151-.273.351-.243.227.034.541-.108.663.064.1.14-.009.433-.033.657q-.335,3.1-.674,6.191c-.1.881-.209,1.76-.289,2.642-.021.225-.114.24-.292.24-1.217-.005-2.435,0-3.653,0" transform="translate(-67.861 -68.466)" fill="#f3511e"/>
        <path id="Trazado_136249" data-name="Trazado 136249" d="M104.581,67.261c0-.434-.013-.868-.013-1.3,0-1.529,0-3.059,0-4.588,0-.2.044-.293.256-.259.168.027.344-.047.507.041a1.782,1.782,0,0,1,.013.39q0,2.686,0,5.371c0,.413-.026.438-.438.429a.476.476,0,0,1-.321-.082" transform="translate(-84.703 -49.499)" fill="#fbd643"/>
        <path id="Trazado_136250" data-name="Trazado 136250" d="M112.891,72.235q0-2.447-.008-4.894a.252.252,0,0,1,.023-.073,5.261,5.261,0,0,1,.544-.02c.172-.018.2.062.2.212-.006.755,0,1.51,0,2.265s-.008,1.527.005,2.291c0,.221-.081.3-.284.3-.162,0-.332.036-.476-.079" transform="translate(-91.443 -54.473)" fill="#fcd744"/>
        <path id="Trazado_136251" data-name="Trazado 136251" d="M96.431,70.36c0-1,0-2-.01-3.007,0-.123.035-.179.161-.162.192.027.392-.057.578.046a.6.6,0,0,1,.019.257q0,2.21,0,4.421c0,.052,0,.1,0,.156s.009.091-.044.107-.082-.019-.111-.051a.384.384,0,0,1-.074-.136,9.562,9.562,0,0,1-.518-1.631" transform="translate(-78.107 -54.424)" fill="#fad543"/>
        <path id="Trazado_136252" data-name="Trazado 136252" d="M129.4,61.685c0-1.138,0-2.275-.012-3.412,0-.161.065-.179.2-.18.587-.008.588-.012.587.571q0,1.511-.008,3.022a.846.846,0,0,1-.766,0" transform="translate(-104.811 -47.057)" fill="#fcd744"/>
        <path id="Trazado_136253" data-name="Trazado 136253" d="M121.133,71.356c0-1.326,0-2.652-.013-3.979,0-.158.061-.181.2-.184.59-.011.591-.015.59.568,0,.52-.006,1.04-.009,1.56a14.76,14.76,0,0,1-.623,1.91c-.019.062-.054.131-.143.124" transform="translate(-98.115 -54.429)" fill="#fcd744"/>
        <path id="Trazado_136254" data-name="Trazado 136254" d="M88.162,64.139c0-.945,0-1.891-.013-2.836,0-.16.065-.179.2-.181.588-.009.589-.013.588.571q0,1.223-.009,2.446a.845.845,0,0,1-.766,0" transform="translate(-71.406 -49.511)" fill="#fcd744"/>
        <path id="Trazado_136255" data-name="Trazado 136255" d="M121.119,80.443a6.712,6.712,0,0,0,.37-.965c.141-.353.265-.712.4-1.069,0,.6,0,1.194.01,1.792a.864.864,0,0,1-.076.3q-.228.648-.462,1.293c-.028.077-.042.175-.167.157s-.079-.118-.079-.183c0-.441,0-.883.007-1.324" transform="translate(-98.101 -63.517)" fill="#fcaa08"/>
        <path id="Trazado_136256" data-name="Trazado 136256" d="M96.419,70.586l.663,1.785.065-.008v-4.9c.055.07.028.151.028.226q0,2.566-.006,5.132c0,.091.08.266-.112.255-.172-.009-.4.123-.494-.172a2.477,2.477,0,0,1-.156-.886c.018-.477.009-.955.012-1.432" transform="translate(-78.095 -54.65)" fill="#fcaa08"/>
        <path id="Trazado_136257" data-name="Trazado 136257" d="M104.595,67.466c.232-.016.53.1.679-.046s.052-.461.053-.7c.006-1.683,0-3.367,0-5.05,0-.1.006-.208.01-.312.058.068.029.15.029.225,0,2.1,0,4.2,0,6.3,0,.2-.044.267-.255.262-.544-.013-.544,0-.535-.549,0-.043.008-.086.013-.129" transform="translate(-84.717 -49.704)" fill="#fbaa08"/>
        <path id="Trazado_136258" data-name="Trazado 136258" d="M112.869,72.172c.232-.018.527.1.679-.049s.049-.446.05-.677c.006-1.321,0-2.642.008-3.963,0-.221-.066-.294-.28-.273a3.828,3.828,0,0,1-.443,0,2.331,2.331,0,0,1,.641-.029c.157-.009.12.116.121.2,0,.625,0,1.25,0,1.876,0,1.12-.006,2.24,0,3.36,0,.18-.043.236-.229.234-.571-.005-.571,0-.56-.574,0-.034.007-.069.011-.1" transform="translate(-91.421 -54.411)" fill="#faa908"/>
        <path id="Trazado_136259" data-name="Trazado 136259" d="M88.128,77.015h.766q0,.336.01.671a.943.943,0,0,1-.014.195c-.079-.271-.289-.218-.465-.2-.247.028-.35-.051-.309-.306a2.844,2.844,0,0,0,.013-.361" transform="translate(-71.372 -62.387)" fill="#f9a908"/>
        <path id="Trazado_136260" data-name="Trazado 136260" d="M129.4,77.016h.766c0,.026.007.051.008.077.013.639.009.64-.636.589-.109-.009-.153-.04-.148-.151.008-.171.007-.343.01-.515" transform="translate(-104.818 -62.388)" fill="#faa908"/>
        <path id="Trazado_136261" data-name="Trazado 136261" d="M71.713,128.689a4.176,4.176,0,0,0,.754-1.38c.018-.065.1-.118.16-.165a2.472,2.472,0,0,0,.642-.671c.026-.043.042-.109.106-.084.028.011.05.07.054.109.056.532.115,1.064.158,1.6a2.366,2.366,0,0,1,.054.593H71.713" transform="translate(-58.092 -102.379)" fill="#00e4fe"/>
        <path id="Trazado_136262" data-name="Trazado 136262" d="M34.931,56.409h8.322c.333,0,.333,0,.333.342,0,1.1,0,2.209,0,3.313,0,.207-.057.281-.264.262-.181-.016-.365,0-.547-.005-.157-.008-.2.065-.183.2.1.866.209,1.732.305,2.6.07.634.126,1.27.188,1.905a.732.732,0,0,1-.441-.58A5.143,5.143,0,0,0,39.9,60.886a4.934,4.934,0,0,0-2.2-.557c-.834-.021-1.67,0-2.5,0q-.133-1.958-.267-3.915" transform="translate(-28.296 -45.695)" fill="#00e4fe"/>
        <path id="Trazado_136263" data-name="Trazado 136263" d="M10.371,87.3a3.7,3.7,0,0,1,2.916-2.6,2.967,2.967,0,0,1,.621-.06c1.321,0,2.642-.021,3.963.009a3.734,3.734,0,0,1,3.412,2.712.452.452,0,0,1-.345.084q-5.1,0-10.2,0c-.131,0-.307.057-.368-.146" transform="translate(-8.401 -68.559)" fill="#fcd7a7"/>
        <path id="Trazado_136264" data-name="Trazado 136264" d="M42.8,44.244H29.737c.1-.318.2-.621.29-.927.024-.082.057-.118.141-.112.052,0,.1,0,.157,0q5.949,0,11.9-.006c.2,0,.293.051.34.244.064.26.154.514.243.8" transform="translate(-24.089 -34.994)" fill="#fefefe"/>
        <path id="Trazado_136265" data-name="Trazado 136265" d="M4.178,107.313a.656.656,0,0,1,.7-.621q5.921,0,11.841,0a.651.651,0,0,1,.695.622.487.487,0,0,1-.331.131,2.771,2.771,0,0,1-.313.01q-5.974,0-11.949,0a.834.834,0,0,1-.643-.139" transform="translate(-3.384 -86.427)" fill="#64dc17"/>
        <path id="Trazado_136266" data-name="Trazado 136266" d="M4.178,109.968a4.328,4.328,0,0,0,.934.05H16.429a4.8,4.8,0,0,0,.986-.05.648.648,0,0,1-.708.684q-2.1,0-4.2,0-3.8,0-7.59,0a.661.661,0,0,1-.738-.685" transform="translate(-3.384 -89.081)" fill="#afee60"/>
        <path id="Trazado_136267" data-name="Trazado 136267" d="M9.71,98.66c.079.1.191.064.291.064q5.311,0,10.621,0c.229.677.229.677-.473.677q-5.158,0-10.317.006c-.255,0-.323-.071-.249-.3a2.185,2.185,0,0,1,.127-.445" transform="translate(-7.74 -79.921)" fill="#fec377"/>
        <path id="Trazado_136268" data-name="Trazado 136268" d="M15.059,131.869l.081,0a1.041,1.041,0,0,1,.431-.078q1.208,0,2.417,0a1.12,1.12,0,0,1,.455.085l.052,0a1.3,1.3,0,0,1,.508-.084c.866,0,1.732,0,2.6,0,.136,0,.281-.024.394.085a1.649,1.649,0,0,1-1.2.729,2.866,2.866,0,0,1-.416.022q-3.653,0-7.305,0a1.806,1.806,0,0,1-1.572-.7c.035-.155.169-.134.272-.135.988-.01,1.976-.006,2.964,0a.816.816,0,0,1,.326.078" transform="translate(-9.313 -106.756)" fill="#fcd7a7"/>
        <path id="Trazado_136269" data-name="Trazado 136269" d="M47.436,35.168a3.271,3.271,0,0,1,.215.67h-10.1a3.446,3.446,0,0,1,.219-.671.5.5,0,0,1,.347-.083q4.485,0,8.969,0a.49.49,0,0,1,.346.084" transform="translate(-30.421 -28.42)" fill="#d7d6d8"/>
        <path id="Trazado_136270" data-name="Trazado 136270" d="M62.079,8.342c0-1.06,0-2.119-.012-3.179a.18.18,0,0,1,.165-.211c1.061-.256,2.121-.519,3.183-.775.3-.071.506.036.565.267.072.282-.066.477-.4.554-.836.195-1.67.393-2.508.578-.176.039-.228.108-.226.291.009.825,0,1.65,0,2.475a.866.866,0,0,1-.767,0" transform="translate(-50.278 -3.366)" fill="#fcd744"/>
        <path id="Trazado_136271" data-name="Trazado 136271" d="M48.371,34.161H38.709c.005-.246.12-.321.372-.321q4.459.014,8.919,0c.251,0,.368.074.372.321" transform="translate(-31.357 -27.413)" fill="#fefefe"/>
        <path id="Trazado_136272" data-name="Trazado 136272" d="M35.993,118.6l-1.207-.825h5.078l-.969.665a1.145,1.145,0,0,1-.455.078c-.474,0-.949.007-1.423,0a4.609,4.609,0,0,0-1.023.085" transform="translate(-28.179 -95.408)" fill="#fbaa08"/>
        <path id="Trazado_136273" data-name="Trazado 136273" d="M13.56,129.4q-1.634,0-3.268.006c-.1,0-.21-.038-.294.054a1.451,1.451,0,0,1-.352-.721c.984,0,1.945,0,2.906,0a.309.309,0,0,1,.19.068q.408.3.817.594" transform="translate(-7.815 -104.286)" fill="#fdc376"/>
        <path id="Trazado_136274" data-name="Trazado 136274" d="M51.84,129.391l-3.5,0c.274-.2.549-.393.82-.595a.376.376,0,0,1,.243-.068c.852,0,1.7.005,2.555,0,.175,0,.214.041.147.2a1.236,1.236,0,0,1-.264.469" transform="translate(-39.159 -104.272)" fill="#fdc376"/>
        <path id="Trazado_136275" data-name="Trazado 136275" d="M18.3,118.389l-.914-.621.017-.054q.928,0,1.857,0a.276.276,0,0,1,.163.07c.432.3.862.613,1.3.911.123.084.132.139,0,.217s-.274.179-.411.269c-.117.045-.2-.027-.284-.085-.222-.152-.443-.307-.659-.466a.847.847,0,0,0-.582-.175.9.9,0,0,1-.485-.065" transform="translate(-14.081 -95.355)" fill="#fcaa08"/>
        <path id="Trazado_136276" data-name="Trazado 136276" d="M33.978,127.39l-3.3-.007c.5-.357,1-.711,1.5-1.074a.216.216,0,0,1,.3.012c.5.36,1,.714,1.505,1.07" transform="translate(-24.849 -102.274)" fill="#fec376"/>
        <path id="Trazado_136277" data-name="Trazado 136277" d="M41.14,121.393a.788.788,0,0,1,.555-.17c.782.012,1.564.008,2.347.01q-.727.523-1.454,1.046a.149.149,0,0,1-.206.01c-.412-.3-.827-.6-1.241-.9" transform="translate(-33.326 -98.199)" fill="#fcd744"/>
        <path id="Trazado_136278" data-name="Trazado 136278" d="M5.255,117.857a.873.873,0,0,1,1.068-.063q.7.5,1.4.991c.059.043.137.068.175.166H6.81a7.362,7.362,0,0,1-1.555-1.094" transform="translate(-4.257 -95.297)" fill="#fe6f43"/>
        <path id="Trazado_136279" data-name="Trazado 136279" d="M60.323,118.956H59.137l.69-.49.957-.677a.73.73,0,0,1,1,.124,1.448,1.448,0,0,1-.456.368,8.653,8.653,0,0,1-1,.675" transform="translate(-47.905 -95.302)" fill="#fe6f43"/>
        <path id="Trazado_136280" data-name="Trazado 136280" d="M4.331,118.78l1.556,1.094c-.365,0-.729.008-1.094.011a.637.637,0,0,1-.626-.424.565.565,0,0,1,.164-.681" transform="translate(-3.333 -96.22)" fill="#fe8f17"/>
        <path id="Trazado_136281" data-name="Trazado 136281" d="M65.379,120.092a8.943,8.943,0,0,1,1.073-.792,1.231,1.231,0,0,1,.384-.251.545.545,0,0,1,.112.645.619.619,0,0,1-.583.406c-.329,0-.658,0-.987-.008" transform="translate(-52.961 -96.438)" fill="#fe8f17"/>
        <path id="Trazado_136282" data-name="Trazado 136282" d="M22.193,121.157a1.733,1.733,0,0,1,1.516.469,1.43,1.43,0,0,0,.495.323.255.255,0,0,1-.033.039c-.392.306-.393.308-.8.019s-.786-.566-1.179-.85" transform="translate(-17.978 -98.124)" fill="#fbd743"/>
        <path id="Trazado_136283" data-name="Trazado 136283" d="M62.087,26.2h.767c0,.026.007.052.008.078.012.651.013.647-.639.6-.116-.009-.15-.047-.145-.155.008-.173.007-.347.01-.521" transform="translate(-50.286 -21.223)" fill="#fbaa08"/>
        <path id="Trazado_136284" data-name="Trazado 136284" d="M93.922,105.3c1.173,0,2.347,0,3.52,0,.179,0,.228.027.2.227q-.263,2.29-.493,4.584c-.021.2-.082.276-.3.275q-2.947-.013-5.894,0c-.2,0-.262-.064-.282-.261q-.239-2.306-.5-4.609c-.021-.179.026-.217.2-.216,1.182.006,2.364,0,3.547,0" transform="translate(-73.047 -85.3)"/>
        <path id="Trazado_136285" data-name="Trazado 136285" d="M43.314,57.774c-.626,0-1.251,0-1.877,0-.151,0-.211-.033-.214-.2-.01-.588-.017-.588.579-.588,1.1,0,2.207,0,3.311,0,.2,0,.274.038.27.255-.011.534,0,.535-.531.535H43.314" transform="translate(-33.392 -46.161)" fill="#fdfefe"/>
        <path id="Trazado_136286" data-name="Trazado 136286" d="M67.663,56.987c.521,0,.51,0,.523.515.006.215-.053.294-.272.275-.2-.018-.4.019-.6-.009-.36-.051-.117-.339-.169-.511-.034-.114-.063-.3.177-.272.111.011.225,0,.338,0" transform="translate(-54.368 -46.16)" fill="#fbfefe"/>
        <path id="Trazado_136287" data-name="Trazado 136287" d="M25.223,89.491c-.006.442.054.381-.421.381-.422,0-.36.056-.361-.439,0-.4-.043-.341.432-.343.4,0,.344-.036.349.4" transform="translate(-19.797 -72.167)" fill="#fefefe"/>
        <path id="Trazado_136288" data-name="Trazado 136288" d="M41.571,92.349c-.432-.006-.374.054-.375-.428,0-.413-.044-.355.42-.355.427,0,.36-.049.362.439,0,.4.038.338-.407.343" transform="translate(-33.37 -74.172)" fill="#fefefe"/>
        <path id="Trazado_136289" data-name="Trazado 136289" d="M33.085,92.35c-.438-.006-.379.054-.379-.422,0-.421-.05-.36.44-.361.4,0,.339-.039.341.434,0,.4.032.343-.4.349" transform="translate(-26.492 -74.173)" fill="#fefefd"/>
        <path id="Trazado_136290" data-name="Trazado 136290" d="M49.459,89.473c.005-.436-.052-.38.423-.381.417,0,.36-.047.36.415,0,.432.046.365-.435.367-.406,0-.343.034-.348-.4" transform="translate(-40.065 -72.169)" fill="#fefdfc"/>
        <path id="Trazado_136291" data-name="Trazado 136291" d="M97.652,109.429c.887,0,1.773,0,2.66,0,.171,0,.219.036.2.216q-.185,1.552-.346,3.107c-.015.141-.05.192-.2.192q-2.321-.007-4.642,0c-.128,0-.176-.033-.19-.169q-.165-1.58-.35-3.159c-.018-.159.041-.186.183-.185.9.005,1.791,0,2.686,0" transform="translate(-76.778 -88.642)" fill="#afbdc4"/>
        <path id="Trazado_136292" data-name="Trazado 136292" d="M108.358,117.365c-.452-.006-.391.054-.39-.405s-.062-.377.442-.377c.4,0,.336-.056.339.455,0,.378.035.323-.39.328" transform="translate(-87.459 -94.437)" fill="#fefefe"/>
        <path id="Trazado_136293" data-name="Trazado 136293" d="M100.491,116.986c-.006.436.056.377-.425.378-.415,0-.358.049-.358-.418,0-.43-.052-.362.437-.364.4,0,.339-.04.346.4" transform="translate(-80.768 -94.437)" fill="#fefefe"/>
        <path id="Trazado_136294" data-name="Trazado 136294" d="M116.215,116.968c.006-.44-.054-.383.386-.383.407,0,.342-.054.344.45,0,.382.04.332-.384.332-.4,0-.34.039-.345-.4" transform="translate(-94.142 -94.44)" fill="#fefefe"/>
      </g>
    </g>
    <g id="Grupo_159090" data-name="Grupo 159090" transform="translate(-7183.963 -7086.916)">
      <g id="Grupo_159053" data-name="Grupo 159053" transform="translate(0 0)" clip-path="url(#clip-path-2)">
        <path id="Trazado_136091" data-name="Trazado 136091" d="M16.892,0c.1.133.259.067.388.1A3.569,3.569,0,0,1,19.6,1.946c.107.205.158.244.365.094A4.236,4.236,0,0,1,26.59,6.43c-.046.205-.023.278.2.334A2.962,2.962,0,0,1,29.038,8.95c.05.172.086.223.276.2a3.023,3.023,0,0,1,1.3,5.891c-.239.071-.3.146-.285.4a3.614,3.614,0,0,1-4.053,3.947c-.218-.022-.229.079-.265.219a3.58,3.58,0,0,1-3.171,2.822,3.456,3.456,0,0,1-2.747-.91c-.115.064-.057.17-.057.251,0,2.821,0,5.642-.007,8.463a2.82,2.82,0,0,0,1.014,2.286c.4.336.8.665,1.242,1.035.025-.39.047-.735.069-1.08a12.312,12.312,0,0,1,.72-3.426c.154-.425.456-.607.8-.482a.616.616,0,0,1,.339.875,11.813,11.813,0,0,0-.686,3.929c.146,0,.18-.124.245-.2a5.049,5.049,0,0,1,2.68-1.573c.529-.121.921.213.826.695-.061.311-.291.426-.575.5a3.962,3.962,0,0,0-2.717,2.252c-.019.04-.031.084-.058.158,1.1,0,2.176,0,3.251,0a.778.778,0,0,1,.447.085A.605.605,0,0,1,27.4,36.4a2.123,2.123,0,0,1-.355.009H5.747c-.071,0-.142,0-.213,0a.606.606,0,0,1-.663-.624.6.6,0,0,1,.664-.585c1,0,1.991,0,2.987,0h.357a3.992,3.992,0,0,0-2.542-2.342c-.134-.044-.276-.067-.411-.109a.61.61,0,0,1-.464-.7.6.6,0,0,1,.75-.474,4.929,4.929,0,0,1,2.695,1.472c.1.108.2.221.355.386A11.656,11.656,0,0,0,8.818,30.2c-.075-.261-.165-.517-.247-.776a.612.612,0,1,1,1.142-.4,13.031,13.031,0,0,1,.767,4.17c0,.1,0,.206,0,.377a14.975,14.975,0,0,0,1.664-1.46,2.444,2.444,0,0,0,.605-1.63c.01-2.963.006-5.926.006-8.889,0-.018-.018-.037-.04-.083a3.864,3.864,0,0,1-1.5.824A3.61,3.61,0,0,1,6.806,19.7c-.068-.29-.163-.324-.435-.3a3.617,3.617,0,0,1-3.911-3.9c.014-.276-.022-.4-.316-.486A3.02,3.02,0,0,1,3.475,9.144c.156.022.22.015.269-.162a2.946,2.946,0,0,1,2.29-2.225c.234-.055.2-.161.16-.328a4.241,4.241,0,0,1,4.221-5.212,4.148,4.148,0,0,1,2.443.838c.094.07.171.205.283-.018A3.577,3.577,0,0,1,15.684.067c.027-.006.047-.044.07-.067Z" transform="translate(0 0)"/>
        <path id="Trazado_136092" data-name="Trazado 136092" d="M4.955,79.509c-.595,0-.895-.2-.893-.609s.3-.6.9-.6c.106,0,.213,0,.318,0a.6.6,0,1,1,0,1.208c-.106.007-.212,0-.317,0" transform="translate(-2.236 -43.096)" fill="#010101"/>
        <path id="Trazado_136093" data-name="Trazado 136093" d="M65.7,79.509q-.895,0-.9-.605T65.7,78.3c.106,0,.212,0,.318,0a.6.6,0,1,1,0,1.208c-.106.007-.212,0-.318,0" transform="translate(-35.67 -43.096)" fill="#010101"/>
        <path id="Trazado_136094" data-name="Trazado 136094" d="M29.417,11.232c0,.094,0,.188,0,.282a.588.588,0,0,0,.9.559,1.485,1.485,0,0,1,.593-.209.374.374,0,0,1,.417.108,2.446,2.446,0,0,1-.191,3.444.678.678,0,0,0-.733.434.976.976,0,0,1-.706.274c-.3.029-.335.156-.269.42a3.013,3.013,0,0,1-.648,2.742,1.126,1.126,0,0,1-.488.394,1.805,1.805,0,0,1-.86-.131c-.726-.259-1.045-.046-1.057.714a.85.85,0,0,1-.782.012c-.254-.089-.336-.024-.34.243a2.922,2.922,0,0,1-.839,1.937.539.539,0,0,1-.617.232,2.478,2.478,0,0,1-2.226-2.224,17.756,17.756,0,0,1-.013-2,3.1,3.1,0,0,0,2.137.6,3.023,3.023,0,0,0,2.692-3.015.594.594,0,0,0-.536-.6.621.621,0,0,0-.635.462,1.345,1.345,0,0,0-.04.279,1.7,1.7,0,0,1-1.155,1.562,1.648,1.648,0,0,1-1.9-.406.864.864,0,0,0-1.13-.222,1.777,1.777,0,0,1-2.459-1.472,2.286,2.286,0,0,0-.053-.35.545.545,0,0,0-.566-.443.551.551,0,0,0-.589.459,2.238,2.238,0,0,0-.047.315,1.773,1.773,0,0,1-2.443,1.5.888.888,0,0,0-1.16.228,1.636,1.636,0,0,1-1.866.4,1.7,1.7,0,0,1-1.172-1.55,1.635,1.635,0,0,0-.05-.314.592.592,0,0,0-.643-.44.58.58,0,0,0-.52.581A3.031,3.031,0,0,0,12.1,19.063a3.174,3.174,0,0,0,2.167-.6,12.27,12.27,0,0,1-.072,2.277,2.581,2.581,0,0,1-2.422,1.995,2.457,2.457,0,0,1-2.3-1.885,2.567,2.567,0,0,1-.045-.671c.013-.615-.368-.885-.947-.669A2.39,2.39,0,0,1,5.229,17.8,2.242,2.242,0,0,1,5.3,16.476c.265-.736.045-1.05-.729-1.042a1.779,1.779,0,0,1-1.825-1.882,1.8,1.8,0,0,1,1.9-1.745,2.073,2.073,0,0,1,.807.246c.534.263.951-.01.939-.607A1.8,1.8,0,0,1,8.638,9.433a.579.579,0,0,0,.583-.264.646.646,0,0,0-.005-.706A2.9,2.9,0,0,1,8.932,6.1,2.9,2.9,0,0,1,11.209,3.99a2.916,2.916,0,0,1,2.983,1.054,1.639,1.639,0,0,1,.151.2.616.616,0,0,0,1.156-.3,2.414,2.414,0,0,1,4.81-.047c.039.312.129.562.45.646a.7.7,0,0,0,.753-.337A2.879,2.879,0,0,1,24.45,4.05a3.364,3.364,0,0,1,1.357,2.158,3.565,3.565,0,0,1-.18,2.118c-.039.106-.123.2-.087.355a2.842,2.842,0,0,1,.692.041c.144.018.247.071.263.23a.654.654,0,0,0,.716.494.506.506,0,0,1,.607.241,2.6,2.6,0,0,1,.5,1.652c.366-.068.713-.348,1.1-.107" transform="translate(-1.513 -1.487)" fill="#60a817"/>
        <path id="Trazado_136095" data-name="Trazado 136095" d="M34.081,54.986,25.974,55H23.748a4.211,4.211,0,0,1,1-1.05A11.1,11.1,0,0,0,26,52.852a3.982,3.982,0,0,0,1.043-2.826c-.005-4.243,0-8.487-.009-12.73,0-.338.026-.53.438-.556A2.9,2.9,0,0,0,29.1,36c.32-.113.594.065.884.14l.688.387a.794.794,0,0,1,.111.578c0,4.263.017,8.526-.008,12.789a3.589,3.589,0,0,0,1.44,3.014A9.909,9.909,0,0,1,33.672,54.2c.193.226.456.431.41.787" transform="translate(-13.071 -19.794)" fill="#9f522d"/>
        <path id="Trazado_136096" data-name="Trazado 136096" d="M42.553,55.675a5.075,5.075,0,0,0-1.569-1.7,4.485,4.485,0,0,1-1.623-1.916,3.428,3.428,0,0,1-.215-1.139q0-6.623,0-13.245c0-.154,0-.308-.006-.462a2.536,2.536,0,0,0,.919.246c.26.015.3.114.3.345-.009,1.456,0,2.912,0,4.369,0,2.794.025,5.589-.009,8.383a4.313,4.313,0,0,0,1.847,3.708,7.982,7.982,0,0,1,1.189,1.062c.082.093.2.163.222.348Z" transform="translate(-21.543 -20.484)" fill="#783e22"/>
        <path id="Trazado_136097" data-name="Trazado 136097" d="M53.064,10.6c-.235-.232-.539-.164-.819-.175-.11,0-.25.092-.325-.018s.075-.182.117-.273a3.729,3.729,0,0,0-.71-4.1c-.107-.109-.205-.226-.308-.339a3,3,0,0,1,2.489,2.576,3.03,3.03,0,0,1-.339,1.813,1.006,1.006,0,0,0-.106.512" transform="translate(-28.082 -3.139)" fill="#549314"/>
        <path id="Trazado_136098" data-name="Trazado 136098" d="M59.563,35.778a3.444,3.444,0,0,0,1.087-1.856,2.8,2.8,0,0,0-.076-1.391c-.071-.221-.1-.382.25-.383a3.727,3.727,0,0,0,.852-.2.884.884,0,0,0,.1.612,2.408,2.408,0,0,1-2.214,3.218" transform="translate(-32.784 -17.585)" fill="#549314"/>
        <path id="Trazado_136099" data-name="Trazado 136099" d="M65.614,26.564c.12-.27.364-.455.484-.732a2.438,2.438,0,0,0-.212-2.476c-.116-.174-.246-.354-.5-.344a1.8,1.8,0,1,1,.226,3.552" transform="translate(-35.99 -12.635)" fill="#549314"/>
        <path id="Trazado_136100" data-name="Trazado 136100" d="M49.565,43.968c.538-.032.719-.488.955-.846a2.334,2.334,0,0,0,.408-1.508c-.021-.241.071-.3.28-.2a1.991,1.991,0,0,0,.935.134A2.4,2.4,0,0,1,49.8,44.018a.333.333,0,0,1-.236-.05" transform="translate(-27.281 -22.768)" fill="#549314"/>
        <path id="Trazado_136101" data-name="Trazado 136101" d="M59.367,19.4a2.368,2.368,0,0,0-1.191.262,2.725,2.725,0,0,0-.443-1.7c-.14-.2-.293-.377-.571-.343A1.766,1.766,0,0,1,59.367,19.4" transform="translate(-31.462 -9.659)" fill="#549314"/>
        <path id="Trazado_136102" data-name="Trazado 136102" d="M36.528,35.814c-.315.08-.587-.109-.884-.14.359-.4.359-.4.74-.016.05.05.1.1.143.156" transform="translate(-19.619 -19.469)" fill="#753c21"/>
        <path id="Trazado_136103" data-name="Trazado 136103" d="M47.161,19.21a3.176,3.176,0,0,1-.486,1.657.636.636,0,0,1-.9.288c-.308-.2-.354-.545-.125-.937a1.8,1.8,0,0,0-1.394-2.791,1.715,1.715,0,0,0-1.559.678.65.65,0,0,1-.667.306.613.613,0,0,1-.312-1.03,3.043,3.043,0,0,1,5.445,1.828" transform="translate(-22.868 -8.918)"/>
        <path id="Trazado_136104" data-name="Trazado 136104" d="M26.735,12.061a2.456,2.456,0,0,1,2.244,1.569.617.617,0,0,1-.3.863c-.339.138-.63,0-.823-.4a1.217,1.217,0,0,0-1.3-.77,1.253,1.253,0,0,0-1.038,1.027,1.453,1.453,0,0,0,.058.594.612.612,0,0,1-.432.773.627.627,0,0,1-.728-.462,2.435,2.435,0,0,1,2.315-3.2" transform="translate(-13.368 -6.639)"/>
        <path id="Trazado_136105" data-name="Trazado 136105" d="M36.325,51.837v3.517c0,.083,0,.166,0,.249-.015.473-.25.764-.617.767s-.619-.289-.622-.76c-.007-1.149,0-2.3,0-3.446,0-1.374,0-2.747,0-4.121,0-.457.193-.725.527-.764.438-.052.709.228.712.758,0,1.267,0,2.534,0,3.8" transform="translate(-19.309 -26.019)" fill="#010000"/>
        <path id="Trazado_136106" data-name="Trazado 136106" d="M36.308,40.375a4.41,4.41,0,0,1-.038.742.566.566,0,0,1-.583.473.537.537,0,0,1-.582-.468,4.545,4.545,0,0,1,0-1.48.527.527,0,0,1,.555-.452.565.565,0,0,1,.6.445,3.267,3.267,0,0,1,.044.74" transform="translate(-19.29 -21.57)" fill="#010000"/>
      </g>
    </g>
    <g id="Grupo_159091" data-name="Grupo 159091" transform="translate(-7333.456 -7053.5)">
      <g id="Grupo_159053-2" data-name="Grupo 159053" transform="translate(0 0)" clip-path="url(#clip-path-3)">
        <path id="Trazado_136091-2" data-name="Trazado 136091" d="M18.8,0c.113.148.289.075.432.114a3.973,3.973,0,0,1,2.58,2.052c.119.229.176.272.406.1A4.716,4.716,0,0,1,29.6,7.158c-.052.229-.026.309.225.371a3.3,3.3,0,0,1,2.5,2.433c.056.192.1.248.308.218a3.366,3.366,0,0,1,1.443,6.558c-.266.079-.335.162-.317.446a4.023,4.023,0,0,1-4.511,4.394c-.243-.025-.255.088-.3.244a3.985,3.985,0,0,1-3.53,3.141,3.847,3.847,0,0,1-3.057-1.013c-.128.072-.064.19-.064.279,0,3.14,0,6.281-.008,9.421A3.139,3.139,0,0,0,23.422,36.2c.441.374.888.74,1.382,1.152.028-.434.053-.818.077-1.2a13.706,13.706,0,0,1,.8-3.814c.172-.473.507-.676.894-.536a.686.686,0,0,1,.378.974,13.151,13.151,0,0,0-.764,4.374c.162,0,.2-.138.273-.218a5.621,5.621,0,0,1,2.983-1.751c.589-.135,1.025.237.919.773-.068.346-.324.474-.64.557A4.411,4.411,0,0,0,26.7,39.011c-.021.045-.035.093-.064.176,1.227,0,2.423,0,3.619,0a.866.866,0,0,1,.5.095.674.674,0,0,1-.252,1.245,2.363,2.363,0,0,1-.4.01H6.4c-.079,0-.158,0-.237,0a.675.675,0,0,1-.738-.7.664.664,0,0,1,.739-.651c1.108-.005,2.217,0,3.325,0h.4a4.444,4.444,0,0,0-2.83-2.608c-.15-.049-.307-.075-.457-.122a.679.679,0,0,1-.517-.776.666.666,0,0,1,.835-.528,5.487,5.487,0,0,1,3,1.639c.116.12.226.246.4.429a12.976,12.976,0,0,0-.493-3.6c-.084-.29-.183-.576-.275-.864a.681.681,0,1,1,1.271-.448,14.506,14.506,0,0,1,.854,4.643c0,.115,0,.229,0,.419a16.67,16.67,0,0,0,1.852-1.625,2.721,2.721,0,0,0,.674-1.815c.012-3.3.007-6.6.007-9.9,0-.021-.02-.042-.045-.093a4.3,4.3,0,0,1-1.672.917,4.018,4.018,0,0,1-4.907-2.923c-.076-.323-.181-.36-.484-.336a4.026,4.026,0,0,1-4.354-4.337c.016-.307-.024-.443-.351-.542a3.362,3.362,0,0,1,1.482-6.54c.173.025.245.017.3-.181A3.28,3.28,0,0,1,6.717,7.522c.261-.062.22-.18.178-.365a4.722,4.722,0,0,1,4.7-5.8,4.617,4.617,0,0,1,2.72.933c.105.078.19.228.315-.02A3.982,3.982,0,0,1,17.46.074c.03-.007.052-.049.078-.074Z" transform="translate(0 0)"/>
        <path id="Trazado_136092-2" data-name="Trazado 136092" d="M5.056,79.646c-.662,0-1-.227-.994-.678s.331-.671,1-.671c.118,0,.237,0,.354,0a.672.672,0,1,1,0,1.344c-.118.008-.236,0-.353,0" transform="translate(-2.029 -39.11)" fill="#010101"/>
        <path id="Trazado_136093-2" data-name="Trazado 136093" d="M65.8,79.646q-1,0-1-.674t1-.675c.118,0,.236,0,.354,0a.672.672,0,1,1,0,1.344c-.118.008-.236,0-.354,0" transform="translate(-32.371 -39.11)" fill="#010101"/>
        <path id="Trazado_136094-2" data-name="Trazado 136094" d="M32.437,12.2c0,.1,0,.21,0,.314a.655.655,0,0,0,1,.622A1.654,1.654,0,0,1,34.1,12.9a.416.416,0,0,1,.464.12,2.723,2.723,0,0,1-.213,3.834.754.754,0,0,0-.816.483,1.086,1.086,0,0,1-.786.3c-.332.032-.373.174-.3.468a3.354,3.354,0,0,1-.722,3.052,1.254,1.254,0,0,1-.543.439,2.01,2.01,0,0,1-.957-.146c-.808-.288-1.163-.052-1.177.795a.946.946,0,0,1-.871.013c-.282-.1-.374-.027-.378.27a3.253,3.253,0,0,1-.934,2.157.6.6,0,0,1-.687.258A2.759,2.759,0,0,1,23.7,22.475a19.766,19.766,0,0,1-.015-2.226,3.453,3.453,0,0,0,2.379.668,3.365,3.365,0,0,0,3-3.357.661.661,0,0,0-.6-.673.691.691,0,0,0-.707.514,1.5,1.5,0,0,0-.045.311,1.891,1.891,0,0,1-1.286,1.739A1.835,1.835,0,0,1,24.317,19a.962.962,0,0,0-1.258-.247,1.978,1.978,0,0,1-2.737-1.639,2.545,2.545,0,0,0-.059-.39.606.606,0,0,0-.63-.493.613.613,0,0,0-.656.511,2.491,2.491,0,0,0-.052.351,1.974,1.974,0,0,1-2.72,1.666.989.989,0,0,0-1.292.254,1.821,1.821,0,0,1-2.077.446,1.894,1.894,0,0,1-1.3-1.725,1.82,1.82,0,0,0-.056-.35.659.659,0,0,0-.716-.49.646.646,0,0,0-.579.647,3.375,3.375,0,0,0,2.979,3.375,3.534,3.534,0,0,0,2.412-.67,13.659,13.659,0,0,1-.08,2.535A2.874,2.874,0,0,1,12.8,25a2.736,2.736,0,0,1-2.559-2.1,2.858,2.858,0,0,1-.05-.747c.015-.685-.409-.985-1.055-.745a2.661,2.661,0,0,1-3.624-1.9,2.5,2.5,0,0,1,.082-1.477c.3-.819.051-1.169-.811-1.16a1.981,1.981,0,0,1-2.032-2.1,2.007,2.007,0,0,1,2.114-1.943,2.307,2.307,0,0,1,.9.274c.595.293,1.059-.011,1.045-.676A2.007,2.007,0,0,1,9.3,10.2.645.645,0,0,0,9.953,9.9a.719.719,0,0,0-.006-.786,3.228,3.228,0,0,1-.315-2.629,3.232,3.232,0,0,1,2.534-2.35,3.247,3.247,0,0,1,3.321,1.173,1.825,1.825,0,0,1,.168.22.686.686,0,0,0,1.287-.338A2.687,2.687,0,0,1,22.3,5.139c.043.347.144.626.5.719a.774.774,0,0,0,.838-.375A3.2,3.2,0,0,1,26.907,4.2a3.745,3.745,0,0,1,1.51,2.4,3.969,3.969,0,0,1-.2,2.358c-.044.118-.137.226-.1.4a3.164,3.164,0,0,1,.771.046c.161.02.275.079.293.256a.728.728,0,0,0,.8.55.563.563,0,0,1,.676.268,2.9,2.9,0,0,1,.556,1.839c.408-.076.794-.387,1.225-.119" transform="translate(-1.373 -1.35)" fill="#60a817"/>
        <path id="Trazado_136095-2" data-name="Trazado 136095" d="M35.251,57.14l-9.025.013H23.748a4.688,4.688,0,0,1,1.11-1.169,12.36,12.36,0,0,0,1.4-1.22,4.433,4.433,0,0,0,1.161-3.146c-.006-4.724,0-9.448-.01-14.172,0-.376.029-.59.488-.619A3.227,3.227,0,0,0,29.7,36c.356-.126.661.073.984.156l.766.431a.884.884,0,0,1,.124.643c0,4.746.019,9.491-.009,14.237a4,4,0,0,0,1.6,3.356A11.031,11.031,0,0,1,34.8,56.263c.215.252.507.479.456.876" transform="translate(-11.862 -17.964)" fill="#9f522d"/>
        <path id="Trazado_136096-2" data-name="Trazado 136096" d="M42.94,57.765a5.649,5.649,0,0,0-1.747-1.891,4.992,4.992,0,0,1-1.807-2.133,3.816,3.816,0,0,1-.239-1.268q0-7.373,0-14.745c0-.171,0-.343-.007-.514a2.823,2.823,0,0,0,1.022.274c.289.017.339.127.338.384-.01,1.621-.005,3.242-.005,4.863,0,3.111.028,6.222-.011,9.332A4.8,4.8,0,0,0,42.541,56.2a8.885,8.885,0,0,1,1.323,1.182c.092.1.227.181.247.387Z" transform="translate(-19.551 -18.589)" fill="#783e22"/>
        <path id="Trazado_136097-2" data-name="Trazado 136097" d="M53.3,11.158c-.261-.258-.6-.182-.911-.195-.123,0-.278.1-.362-.02s.083-.2.131-.3a4.151,4.151,0,0,0-.791-4.56c-.119-.122-.229-.252-.343-.378A3.337,3.337,0,0,1,53.79,8.57a3.373,3.373,0,0,1-.377,2.018,1.119,1.119,0,0,0-.118.57" transform="translate(-25.485 -2.848)" fill="#549314"/>
        <path id="Trazado_136098-2" data-name="Trazado 136098" d="M59.563,36.212a3.834,3.834,0,0,0,1.21-2.067,3.115,3.115,0,0,0-.085-1.548c-.08-.246-.113-.425.278-.426a4.149,4.149,0,0,0,.948-.223.985.985,0,0,0,.114.682,2.681,2.681,0,0,1-2.465,3.582" transform="translate(-29.753 -15.959)" fill="#549314"/>
        <path id="Trazado_136099-2" data-name="Trazado 136099" d="M65.639,26.973c.134-.3.4-.506.539-.815a2.714,2.714,0,0,0-.236-2.756c-.13-.194-.274-.394-.554-.383a2,2,0,1,1,.251,3.954" transform="translate(-32.662 -11.467)" fill="#549314"/>
        <path id="Trazado_136100-2" data-name="Trazado 136100" d="M49.565,44.263c.6-.036.8-.543,1.063-.942a2.6,2.6,0,0,0,.454-1.679c-.024-.268.079-.337.312-.226a2.217,2.217,0,0,0,1.041.149,2.674,2.674,0,0,1-2.607,2.755.37.37,0,0,1-.263-.056" transform="translate(-24.758 -20.662)" fill="#549314"/>
        <path id="Trazado_136101-2" data-name="Trazado 136101" d="M59.617,19.614a2.636,2.636,0,0,0-1.326.292,3.033,3.033,0,0,0-.493-1.9c-.156-.218-.326-.419-.636-.382a1.966,1.966,0,0,1,2.456,1.988" transform="translate(-28.553 -8.766)" fill="#549314"/>
        <path id="Trazado_136102-2" data-name="Trazado 136102" d="M36.628,35.864c-.35.09-.653-.121-.984-.156.4-.445.4-.446.824-.018.056.056.107.116.16.174" transform="translate(-17.805 -17.669)" fill="#753c21"/>
        <path id="Trazado_136103-2" data-name="Trazado 136103" d="M47.8,19.55a3.536,3.536,0,0,1-.542,1.844.708.708,0,0,1-1,.321c-.343-.221-.394-.607-.139-1.043a2.009,2.009,0,0,0-1.552-3.107,1.91,1.91,0,0,0-1.736.755.723.723,0,0,1-.742.341.682.682,0,0,1-.347-1.147A3.388,3.388,0,0,1,47.8,19.55" transform="translate(-20.754 -8.093)"/>
        <path id="Trazado_136104-2" data-name="Trazado 136104" d="M27.012,12.061a2.734,2.734,0,0,1,2.5,1.746.686.686,0,0,1-.329.961c-.377.154-.7,0-.916-.441a1.355,1.355,0,0,0-1.448-.857,1.4,1.4,0,0,0-1.155,1.144,1.617,1.617,0,0,0,.065.661.681.681,0,0,1-.48.86.7.7,0,0,1-.811-.514,2.71,2.71,0,0,1,2.577-3.559" transform="translate(-12.132 -6.025)"/>
        <path id="Trazado_136105-2" data-name="Trazado 136105" d="M36.465,52.354v3.915c0,.092,0,.185,0,.277-.017.527-.278.851-.687.854s-.689-.322-.692-.846c-.008-1.279,0-2.557,0-3.836,0-1.529,0-3.058,0-4.588,0-.509.215-.807.587-.851.487-.058.79.254.792.843.006,1.41,0,2.821,0,4.232" transform="translate(-17.523 -23.613)" fill="#010000"/>
        <path id="Trazado_136106-2" data-name="Trazado 136106" d="M36.451,40.509a4.909,4.909,0,0,1-.042.826.63.63,0,0,1-.649.527.6.6,0,0,1-.648-.521,5.059,5.059,0,0,1,0-1.648.587.587,0,0,1,.618-.5.629.629,0,0,1,.67.5,3.637,3.637,0,0,1,.049.824" transform="translate(-17.506 -19.576)" fill="#010000"/>
      </g>
    </g>
    <g id="Grupo_159092" data-name="Grupo 159092" transform="translate(-7140.044 -7050.5)">
      <g id="Grupo_159058" data-name="Grupo 159058" transform="translate(0 0)" clip-path="url(#clip-path-4)">
        <path id="Trazado_136107" data-name="Trazado 136107" d="M13.65,34.438c-.092-.131-.255-.113-.38-.178a1.925,1.925,0,0,1-1.108-1.845q0-3.211,0-6.421v-.384c-.344.036-.65.147-.973.183a3.46,3.46,0,0,1-1.708-.243A.992.992,0,0,0,8.87,25.5,4.407,4.407,0,0,1,3.577,21.09a.64.64,0,0,0-.28-.58,4.449,4.449,0,0,1-1.7-3.159.914.914,0,0,0-.356-.731,3.415,3.415,0,0,1,2.414-6.039c.394.039.391-.091.382-.392A5.366,5.366,0,0,1,6.947,5.053,4.615,4.615,0,0,1,8.721,4.48.358.358,0,0,0,9.1,4.13,5.171,5.171,0,0,1,19.16,3.844a5.691,5.691,0,0,1,.172,1.429.408.408,0,0,0,.584.423,5.138,5.138,0,0,1,6.219,2.322,4.908,4.908,0,0,1,.588,3.5.324.324,0,0,0,.209.434,3.7,3.7,0,0,1,1.983,4.322,3.741,3.741,0,0,1-3.856,2.753,2.717,2.717,0,0,1-.883-.181c-.2-.085-.278-.036-.348.174a5.971,5.971,0,0,1-1.9,2.751c-.361.3-.511.3-.883.02a.452.452,0,0,1-.023-.65,4.578,4.578,0,0,1,.492-.506,4.92,4.92,0,0,0,1.41-2.477,1.566,1.566,0,0,1,.134-.414.618.618,0,0,1,.695-.279,2.362,2.362,0,0,1,.4.171,2.613,2.613,0,1,0,2.053-4.8c-.063-.024-.127-.044-.19-.067a.677.677,0,0,1-.509-.956,7.042,7.042,0,0,0,.167-.854,4.021,4.021,0,0,0-2.714-4.205c-.085-.027-.168-.062-.252-.094a4.3,4.3,0,0,0-1.63-.1c-.075.007-.172,0-.207.082s.055.135.1.193a6.264,6.264,0,0,1-.3,8.346A6.047,6.047,0,0,1,16.513,17.1c-.191.012-.355.005-.325.289a4.991,4.991,0,0,1-.858,3.246c-.295.466-.3.461.174.756a4.539,4.539,0,0,0,.889.393,4.365,4.365,0,0,0,1.383.25,1.009,1.009,0,0,1,.519.123c.173.1.315.229.209.462-.037.4-.2.56-.6.549a5.392,5.392,0,0,1-1.618-.252c-.265-.092-.315-.037-.315.232.008,3.046,0,6.092.007,9.138a1.977,1.977,0,0,1-1.1,1.953c-.157.079-.328.13-.493.194Z" transform="translate(0 0)"/>
        <path id="Trazado_136108" data-name="Trazado 136108" d="M44.054,74.334a1.546,1.546,0,0,1-.5-1.447,2.628,2.628,0,0,1,1.152-2.168.468.468,0,0,0,.216-.382,4.109,4.109,0,0,1,7.386-2.118,3.782,3.782,0,0,1,.666,1.34.526.526,0,0,0,.353.394,2.852,2.852,0,0,1,1.463,3.867,1.094,1.094,0,0,1-.448.514Z" transform="translate(-26.1 -39.896)"/>
        <path id="Trazado_136109" data-name="Trazado 136109" d="M12.518,85.6c0,.022,0,.044,0,.067H3.843a.083.083,0,0,0-.01-.06.53.53,0,0,1,.438-.115q3.9-.005,7.8,0a.564.564,0,0,1,.442.109" transform="translate(-2.297 -51.228)" fill="#4f4f4f"/>
        <path id="Trazado_136110" data-name="Trazado 136110" d="M42.922,32.475c-.091-.376-.231-.477-.745-.487a3.586,3.586,0,0,1-1.419-.283c-.055-.18.075-.3.157-.421a6.4,6.4,0,0,0,1.008-2.575.616.616,0,0,1,.514-.572,7.672,7.672,0,0,0,5.692-6.217,7.666,7.666,0,0,0-.971-5.17c-.1-.17-.094-.173-.011-.31a4.1,4.1,0,0,1,3.066,3.9,4.03,4.03,0,0,1-.188,1.321c-.163.533-.048.726.482.9a2.657,2.657,0,0,1,1.929,2.513A2.688,2.688,0,0,1,50.1,27.82a2.751,2.751,0,0,1-1.709-.325c-.513-.271-.8-.143-.927.426a5.181,5.181,0,0,1-1.758,2.9.613.613,0,0,0-.238.816l-.417.258a.951.951,0,0,0-.828-.147c-.365.131-.672.274-.764.686l-.533.04" transform="translate(-24.417 -9.852)" fill="#4e8f1e"/>
        <path id="Trazado_136111" data-name="Trazado 136111" d="M11.047,76.379l-8.685.007c-.18-.008-.273-.137-.36-.267a3.921,3.921,0,0,1,.3-4.649c.222-.259.432-.284.766-.091a.426.426,0,0,1,.191.614,3.988,3.988,0,0,1-.29.449,2.8,2.8,0,0,0-.323,2.493.439.439,0,0,0,.495.346c.289-.013.579,0,.87,0,1.972-.008,3.943,0,5.914,0,.493,0,.564-.1.42-.585a1.513,1.513,0,0,0-1.509-1.159.971.971,0,0,1-1.066-.715,2.7,2.7,0,0,0-.784-.993,2.59,2.59,0,0,0-1.462-.6,1.481,1.481,0,0,1-.458-.084.438.438,0,0,1-.293-.581A.492.492,0,0,1,5.36,70.1a3.8,3.8,0,0,1,3.306,2,.539.539,0,0,0,.488.312,2.735,2.735,0,0,1,2.195,3.67.454.454,0,0,1-.3.291" transform="translate(-0.825 -42.009)"/>
        <path id="Trazado_136112" data-name="Trazado 136112" d="M5.5,76.062c-.313,0-.628-.012-.938.018-.255.024-.361-.1-.439-.307a2.832,2.832,0,0,1,.34-2.767c.359-.509.377-.592.122-.942A4.078,4.078,0,0,1,6.2,71.335c.034-.006.061-.059.09-.09.046.41.2.546.661.571a2.6,2.6,0,0,1,1.583.6c-.13.127-.309.114-.467.157a3.267,3.267,0,0,0-2.416,2.442,2.385,2.385,0,0,0-.063.63.543.543,0,0,1-.089.413" transform="translate(-2.344 -42.693)" fill="#5eab24"/>
        <path id="Trazado_136113" data-name="Trazado 136113" d="M47.5,55.083c-.018-.3.063-.572.388-.641.4-.086.851-.474,1.2.1.054.437-.033.583-.44.731-.094.034-.19.063-.285.1-.463.155-.6.109-.867-.288" transform="translate(-28.464 -32.499)" fill="#010101"/>
        <path id="Trazado_136114" data-name="Trazado 136114" d="M28.239,8.431a3.455,3.455,0,0,1,.321,1.924.863.863,0,0,0,.483.925,5.159,5.159,0,1,1-6.394,7.968l-.113-.124c-.423-.468-.494-.478-1.07-.251a4.382,4.382,0,0,1-4.08-.355,1.137,1.137,0,0,1-.129-.105,3.505,3.505,0,0,1-.04-1.562,5.025,5.025,0,0,1,4.232-4.244c.216-.037.482.068.639-.12.135-.162.088-.408.133-.615a4.788,4.788,0,0,1,5.562-3.64.842.842,0,0,1,.455.2" transform="translate(-10.277 -4.872)" fill="#6dc72a"/>
        <path id="Trazado_136115" data-name="Trazado 136115" d="M25.5,5.082a4.531,4.531,0,0,0-3.232.2A4.6,4.6,0,0,0,19.577,8.57c-.053.225-.017.5-.137.672-.129.188-.419.05-.635.086a4.953,4.953,0,0,0-3.813,2.792,4.157,4.157,0,0,0-.461,1.936c.006.336-.006.672-.01,1.008a4.437,4.437,0,0,1,1.525-7.985,3.36,3.36,0,0,1,.828-.112c.472-.007.646-.172.688-.636a4.137,4.137,0,0,1,7.94-1.25" transform="translate(-7.541 -1.522)" fill="#5eab24"/>
        <path id="Trazado_136116" data-name="Trazado 136116" d="M7.585,37.815A3.625,3.625,0,0,1,4.221,35.07a2.972,2.972,0,0,1-.077-.9.807.807,0,0,0-.44-.827A2.306,2.306,0,0,1,2.6,31.7a2.417,2.417,0,0,1,1.919-2.76,2.385,2.385,0,0,1,.465-.055,1.124,1.124,0,0,1,1.143.689,5.286,5.286,0,0,0,4.884,3.1,4.476,4.476,0,0,0,1.808-.3.327.327,0,0,1,.413.085A6.036,6.036,0,0,0,16.344,34.2c.11.024.232.039.243.186a4.06,4.06,0,0,1-.055,1.493,3.39,3.39,0,0,1-1.37-.273,7.25,7.25,0,0,1-2.241-1.191.866.866,0,0,0-.72-.173,6.934,6.934,0,0,1-5.886-1.688.717.717,0,0,0-.1-.085c-.134-.075-.232-.3-.373-.242-.175.069-.144.311-.16.479a2.739,2.739,0,0,0,1.175,2.622.757.757,0,0,1,.359.632,4.559,4.559,0,0,0,.31,1.505.476.476,0,0,1,.064.353" transform="translate(-1.534 -17.309)" fill="#4e8f1e"/>
        <path id="Trazado_136117" data-name="Trazado 136117" d="M12.059,42.522a4.373,4.373,0,0,1-.465-1.9.5.5,0,0,0-.269-.487A2.886,2.886,0,0,1,10.071,37.3c.043-.192,0-.474.176-.549s.285.2.423.311a8.776,8.776,0,0,0,1.675,1.153,7.191,7.191,0,0,0,2.19.681,6.3,6.3,0,0,0,2.258-.061.753.753,0,0,1,.636.2,7.253,7.253,0,0,0,3.465,1.484c.039.005.075.042.111.065a4.192,4.192,0,0,1-3.382,3.291A4.135,4.135,0,0,1,13.9,42.64a.736.736,0,0,0-.785-.219,2.854,2.854,0,0,1-1.06.1" transform="translate(-6.007 -22.016)" fill="#5eab24"/>
        <path id="Trazado_136118" data-name="Trazado 136118" d="M45.1,16.193c-.077.1.02.162.061.232a7.781,7.781,0,0,1,1.09,3.611,7.691,7.691,0,0,1-3.8,7.108,7.545,7.545,0,0,1-2.1.844c-.307.074-.335.279-.381.539a6.583,6.583,0,0,1-1.137,2.726,1.955,1.955,0,0,0-.113.205,4.337,4.337,0,0,1-1.255-.621c-.16-.106-.162-.186-.043-.342A5.2,5.2,0,0,0,38.5,27.352a1.774,1.774,0,0,0-.005-.2c-.049-.523-.048-.495.454-.535A6.2,6.2,0,0,0,44.683,20,6.032,6.032,0,0,0,43.2,16.411l-.213-.249a3.809,3.809,0,0,1,2.115.031" transform="translate(-22.37 -9.605)" fill="#47821c"/>
        <path id="Trazado_136119" data-name="Trazado 136119" d="M19.075,55.573v.2c0,.67,0,.68-.657.846a2.583,2.583,0,0,1-1.825-.186,1.061,1.061,0,0,0-.78-.076,3.4,3.4,0,0,1-4.226-2.519,1.431,1.431,0,0,1-.035-.164c-.058-.446-.031-.474.39-.363a4.63,4.63,0,0,0,1.961.071.5.5,0,0,1,.453.137,5.052,5.052,0,0,0,4.418,1.236c.256-.046.323,0,.305.246-.014.19,0,.381,0,.571" transform="translate(-6.908 -31.915)" fill="#47811c"/>
        <path id="Trazado_136120" data-name="Trazado 136120" d="M34.018,66.115a.881.881,0,0,1-1.137-.758,3.347,3.347,0,0,1-.006-.336c0-3.149.006-6.3-.009-9.447a.549.549,0,0,1,.359-.59,4.677,4.677,0,0,0,.515-.312c.164.166.114.379.114.574q.005,4.639,0,9.278a3.868,3.868,0,0,0,.162,1.394.269.269,0,0,1,0,.2" transform="translate(-19.695 -32.762)" fill="#a96100"/>
        <path id="Trazado_136121" data-name="Trazado 136121" d="M35.325,66.015a2.016,2.016,0,0,1-.27-1.088q0-5.178-.007-10.355c.09-.127.166-.044.251.012.646.424.646.424.646,1.215q0,4.616,0,9.231a.865.865,0,0,1-.619.985" transform="translate(-21.002 -32.662)" fill="#cb7400"/>
        <path id="Trazado_136122" data-name="Trazado 136122" d="M55.265,70.589a2.767,2.767,0,0,1,1.205,1.862.845.845,0,0,0,.682.752,1.779,1.779,0,0,1,1.2,2.361c-.063.137-.188.1-.294.1q-3.429,0-6.859,0c-.27,0-.319-.073-.2-.32a1.984,1.984,0,0,1,.773-.867.61.61,0,0,0,.317-.545,3.688,3.688,0,0,1,2.722-3.344.568.568,0,0,1,.455,0" transform="translate(-30.525 -42.27)" fill="#6dc72a"/>
        <path id="Trazado_136123" data-name="Trazado 136123" d="M52.369,69.741a3.6,3.6,0,0,0-3.084,3.495.383.383,0,0,1-.237.393,2.158,2.158,0,0,0-.873.9c-.082.145-.108.26.144.26q3.425-.01,6.849,0a.516.516,0,0,0,.289-.067c-.016.178-.155.129-.256.129q-4.418,0-8.835,0c-.19,0-.25-.062-.258-.247a1.594,1.594,0,0,1,.8-1.559,1.028,1.028,0,0,0,.569-.992,3.092,3.092,0,0,1,4.713-2.454,1.9,1.9,0,0,1,.18.147" transform="translate(-27.629 -41.422)" fill="#5eab24"/>
        <path id="Trazado_136124" data-name="Trazado 136124" d="M46.661,46.632a.522.522,0,0,1-.5-.407.454.454,0,0,1,.254-.534c.227-.119.471-.206.7-.323a2.954,2.954,0,0,0,1.521-1.9c.028-.1.048-.2.084-.289a.52.52,0,0,1,.6-.37.544.544,0,0,1,.383.656,4.065,4.065,0,0,1-.778,1.69,3.989,3.989,0,0,1-2.054,1.422l-.2.057" transform="translate(-27.65 -25.643)" fill="#47821c"/>
        <path id="Trazado_136125" data-name="Trazado 136125" d="M7.858,77.818a3.261,3.261,0,0,1,1.011-2.724,3.1,3.1,0,0,1,2.024-.919,2.2,2.2,0,0,1,.849,1.056.836.836,0,0,0,.948.635,1.665,1.665,0,0,1,1.7,1.706c0,.176-.045.264-.245.262Q11,77.82,7.858,77.818" transform="translate(-4.7 -44.449)" fill="#6dc72a"/>
        <path id="Trazado_136126" data-name="Trazado 136126" d="M39.671,30.47c-.474,0-.772-.34-.61-.735.125-.3.433-.319.685-.331a3.127,3.127,0,0,0,2.851-2.55,5,5,0,0,1,.06-.6.525.525,0,0,1,.638-.425.556.556,0,0,1,.38.6,4.2,4.2,0,0,1-4,4.04" transform="translate(-23.381 -15.472)" fill="#5eab24"/>
        <path id="Trazado_136127" data-name="Trazado 136127" d="M22.018,29.367a1.278,1.278,0,1,1-1.268-1.319,1.264,1.264,0,0,1,1.268,1.319" transform="translate(-11.662 -16.806)" fill="#5eab24"/>
        <path id="Trazado_136128" data-name="Trazado 136128" d="M38.3,16.944a1.277,1.277,0,1,1-2.554-.045,1.278,1.278,0,1,1,2.554.045" transform="translate(-21.419 -9.349)" fill="#5eab24"/>
        <path id="Trazado_136129" data-name="Trazado 136129" d="M30.032,26.281a.472.472,0,1,1,.508-.472.517.517,0,0,1-.508.472" transform="translate(-17.701 -15.184)" fill="#5eac24"/>
        <path id="Trazado_136130" data-name="Trazado 136130" d="M33.689,32.659a.521.521,0,0,1-.464-.517.5.5,0,1,1,.464.517" transform="translate(-19.91 -19.007)" fill="#5eac24"/>
        <path id="Trazado_136131" data-name="Trazado 136131" d="M41.46,24.669a.506.506,0,0,1,.487.493.5.5,0,1,1-.487-.493" transform="translate(-24.539 -14.783)" fill="#5eac24"/>
        <path id="Trazado_136132" data-name="Trazado 136132" d="M26.884,47.271A1.28,1.28,0,0,1,25.59,48.6a1.3,1.3,0,0,1-1.262-1.306,1.326,1.326,0,0,1,1.292-1.315c.573,0,1.387.635,1.264,1.293" transform="translate(-14.578 -27.552)" fill="#4e8f1e"/>
        <path id="Trazado_136133" data-name="Trazado 136133" d="M18.14,45.031a.521.521,0,0,1-.515-.473.55.55,0,0,1,.5-.5.587.587,0,0,1,.5.466.514.514,0,0,1-.482.507" transform="translate(-10.562 -26.401)" fill="#4e901e"/>
        <path id="Trazado_136134" data-name="Trazado 136134" d="M58.484,77.572A1.264,1.264,0,0,1,57.2,76.316a1.322,1.322,0,0,1,1.29-1.3A1.254,1.254,0,0,1,59.771,76.3a1.221,1.221,0,0,1-1.287,1.267" transform="translate(-34.278 -44.95)" fill="#5eab24"/>
        <path id="Trazado_136135" data-name="Trazado 136135" d="M66.883,78.731a.512.512,0,0,1-.507.485.5.5,0,0,1,.062-1,.527.527,0,0,1,.445.512" transform="translate(-39.516 -46.871)" fill="#5eac24"/>
        <path id="Trazado_136136" data-name="Trazado 136136" d="M18.558,80.751a.472.472,0,1,1-.462-.517.52.52,0,0,1,.462.517" transform="translate(-10.556 -48.08)" fill="#5eac24"/>
        <path id="Trazado_136137" data-name="Trazado 136137" d="M12.519,78.735a.471.471,0,1,1-.941-.034.471.471,0,1,1,.941.034" transform="translate(-6.938 -46.872)" fill="#5eac24"/>
      </g>
    </g>
    <g id="Grupo_159093" data-name="Grupo 159093" transform="translate(-7293.919 -7093.62)">
      <g id="Grupo_159058-2" data-name="Grupo 159058" transform="translate(0 0)" clip-path="url(#clip-path-5)">
        <path id="Trazado_136107-2" data-name="Trazado 136107" d="M15.9,40.121c-.107-.153-.3-.132-.443-.208a2.242,2.242,0,0,1-1.29-2.15q0-3.74,0-7.481v-.447c-.4.042-.757.172-1.133.213a4.031,4.031,0,0,1-1.99-.283,1.156,1.156,0,0,0-.713-.056A5.134,5.134,0,0,1,4.167,24.57a.746.746,0,0,0-.326-.676,5.183,5.183,0,0,1-1.978-3.68,1.065,1.065,0,0,0-.415-.852A3.979,3.979,0,0,1,4.26,12.327c.458.046.455-.106.445-.457A6.251,6.251,0,0,1,8.093,5.887a5.377,5.377,0,0,1,2.068-.669.418.418,0,0,0,.438-.408,6.024,6.024,0,0,1,11.723-.332,6.63,6.63,0,0,1,.2,1.664.475.475,0,0,0,.68.493,5.986,5.986,0,0,1,7.246,2.706,5.717,5.717,0,0,1,.685,4.073.378.378,0,0,0,.244.506,4.3,4.3,0,0,1,2.31,5.035A4.359,4.359,0,0,1,29.2,22.163a3.165,3.165,0,0,1-1.029-.211c-.236-.1-.324-.042-.405.2a6.956,6.956,0,0,1-2.214,3.2c-.421.349-.6.353-1.029.023a.527.527,0,0,1-.027-.757,5.333,5.333,0,0,1,.573-.589,5.732,5.732,0,0,0,1.643-2.885,1.825,1.825,0,0,1,.156-.483.72.72,0,0,1,.809-.324,2.752,2.752,0,0,1,.468.2,3.044,3.044,0,1,0,2.391-5.591c-.073-.028-.148-.052-.222-.078a.789.789,0,0,1-.592-1.114,8.2,8.2,0,0,0,.195-1,4.684,4.684,0,0,0-3.162-4.9c-.1-.031-.2-.072-.294-.109a5.009,5.009,0,0,0-1.9-.118c-.088.008-.2,0-.241.1s.064.158.118.225a7.3,7.3,0,0,1-.345,9.723,7.045,7.045,0,0,1-4.851,2.245c-.223.014-.413.006-.378.337a5.814,5.814,0,0,1-1,3.781c-.343.543-.351.537.2.881a5.288,5.288,0,0,0,1.036.458,5.085,5.085,0,0,0,1.612.292,1.176,1.176,0,0,1,.6.143c.2.117.367.267.244.538-.043.467-.239.653-.7.64a6.282,6.282,0,0,1-1.885-.294c-.309-.107-.367-.043-.367.27.009,3.549,0,7.1.008,10.646a2.3,2.3,0,0,1-1.278,2.276c-.183.092-.382.151-.574.226Z" transform="translate(0 0)"/>
        <path id="Trazado_136108-2" data-name="Trazado 136108" d="M44.136,75.613a1.8,1.8,0,0,1-.58-1.685A3.062,3.062,0,0,1,44.9,71.4a.545.545,0,0,0,.252-.444,4.787,4.787,0,0,1,8.6-2.468,4.406,4.406,0,0,1,.776,1.561.613.613,0,0,0,.411.459,3.323,3.323,0,0,1,1.7,4.5,1.274,1.274,0,0,1-.522.6Z" transform="translate(-23.219 -35.493)"/>
        <path id="Trazado_136109-2" data-name="Trazado 136109" d="M13.951,85.616c0,.026,0,.052,0,.078H3.844a.1.1,0,0,0-.011-.07.618.618,0,0,1,.511-.134q4.546-.006,9.093,0a.657.657,0,0,1,.515.127" transform="translate(-2.043 -45.574)" fill="#4f4f4f"/>
        <path id="Trazado_136110-2" data-name="Trazado 136110" d="M43.282,35.121c-.106-.438-.269-.556-.867-.567a4.177,4.177,0,0,1-1.653-.33c-.064-.21.087-.345.183-.491a7.453,7.453,0,0,0,1.174-3,.717.717,0,0,1,.6-.667,8.938,8.938,0,0,0,6.631-7.243A8.931,8.931,0,0,0,48.217,16.8c-.115-.2-.109-.2-.013-.361a4.78,4.78,0,0,1,3.572,4.539,4.7,4.7,0,0,1-.219,1.539c-.19.62-.056.846.562,1.049a3.1,3.1,0,0,1,2.248,2.927,3.132,3.132,0,0,1-2.728,3.2,3.2,3.2,0,0,1-1.991-.379c-.6-.316-.928-.167-1.08.5a6.036,6.036,0,0,1-2.048,3.38.714.714,0,0,0-.277.951l-.486.3a1.108,1.108,0,0,0-.964-.171c-.425.153-.783.319-.89.8l-.62.047" transform="translate(-21.722 -8.764)" fill="#4e8f1e"/>
        <path id="Trazado_136111-2" data-name="Trazado 136111" d="M12.642,77.415l-10.118.008c-.21-.009-.318-.16-.42-.311A4.568,4.568,0,0,1,2.455,71.7c.259-.3.5-.331.892-.106a.5.5,0,0,1,.222.715,4.645,4.645,0,0,1-.338.523,3.264,3.264,0,0,0-.376,2.9.511.511,0,0,0,.576.4c.337-.015.675-.005,1.013-.006,2.3-.009,4.594,0,6.89,0,.575,0,.657-.117.489-.681a1.763,1.763,0,0,0-1.758-1.35,1.131,1.131,0,0,1-1.242-.832A3.144,3.144,0,0,0,7.911,72.1a3.018,3.018,0,0,0-1.7-.694,1.725,1.725,0,0,1-.533-.1.51.51,0,0,1-.341-.677.574.574,0,0,1,.684-.532,4.421,4.421,0,0,1,3.852,2.333.627.627,0,0,0,.568.364,3.186,3.186,0,0,1,2.557,4.275.529.529,0,0,1-.352.338" transform="translate(-0.734 -37.373)"/>
        <path id="Trazado_136112-2" data-name="Trazado 136112" d="M5.764,76.857c-.365,0-.731-.014-1.093.021-.3.028-.421-.114-.512-.358a3.3,3.3,0,0,1,.4-3.224c.418-.593.439-.689.142-1.1A4.75,4.75,0,0,1,6.58,71.35c.04-.007.071-.069.105-.1.054.478.239.636.77.666a3.031,3.031,0,0,1,1.845.7c-.152.148-.36.133-.544.183A3.807,3.807,0,0,0,5.94,75.641a2.778,2.778,0,0,0-.073.734.632.632,0,0,1-.1.481" transform="translate(-2.085 -37.981)" fill="#5eab24"/>
        <path id="Trazado_136113-2" data-name="Trazado 136113" d="M47.5,55.223c-.021-.354.073-.666.452-.747.471-.1.991-.552,1.4.119.063.509-.038.679-.513.852-.11.04-.221.074-.332.111-.539.181-.7.127-1.01-.335" transform="translate(-25.323 -28.913)" fill="#010101"/>
        <path id="Trazado_136114-2" data-name="Trazado 136114" d="M30.069,8.481a4.025,4.025,0,0,1,.374,2.242,1.006,1.006,0,0,0,.563,1.078,6.011,6.011,0,1,1-7.449,9.283c-.044-.048-.089-.1-.132-.144-.493-.546-.576-.557-1.247-.292a5.1,5.1,0,0,1-4.753-.414,1.324,1.324,0,0,1-.15-.123,4.083,4.083,0,0,1-.046-1.819,5.855,5.855,0,0,1,4.931-4.944c.251-.043.561.079.745-.14.158-.189.1-.475.155-.716a5.578,5.578,0,0,1,6.48-4.24.981.981,0,0,1,.53.23" transform="translate(-9.142 -4.334)" fill="#6dc72a"/>
        <path id="Trazado_136115-2" data-name="Trazado 136115" d="M27.635,5.5a5.279,5.279,0,0,0-3.765.23,5.355,5.355,0,0,0-3.138,3.835c-.062.262-.02.582-.159.783-.151.219-.488.058-.74.1A5.77,5.77,0,0,0,15.39,13.7a4.843,4.843,0,0,0-.537,2.255c.007.391-.007.783-.011,1.174a5.17,5.17,0,0,1,1.777-9.3,3.914,3.914,0,0,1,.965-.13c.55-.008.752-.2.8-.741A4.82,4.82,0,0,1,27.635,5.5" transform="translate(-6.708 -1.354)" fill="#5eab24"/>
        <path id="Trazado_136116-2" data-name="Trazado 136116" d="M8.415,39.288a4.223,4.223,0,0,1-3.919-3.2,3.463,3.463,0,0,1-.089-1.049.94.94,0,0,0-.513-.964A2.687,2.687,0,0,1,2.6,32.164a2.816,2.816,0,0,1,2.236-3.216,2.779,2.779,0,0,1,.542-.063,1.31,1.31,0,0,1,1.332.8A6.158,6.158,0,0,0,12.4,33.3a5.214,5.214,0,0,0,2.107-.355.381.381,0,0,1,.481.1,7.033,7.033,0,0,0,3.63,2.03c.128.028.27.045.283.217a4.73,4.73,0,0,1-.064,1.74,3.949,3.949,0,0,1-1.6-.318,8.447,8.447,0,0,1-2.611-1.388,1.009,1.009,0,0,0-.839-.2,8.079,8.079,0,0,1-6.857-1.967.836.836,0,0,0-.121-.1c-.156-.088-.27-.348-.435-.282-.2.081-.168.362-.187.558a3.191,3.191,0,0,0,1.368,3.054.882.882,0,0,1,.418.736,5.312,5.312,0,0,0,.361,1.754.555.555,0,0,1,.075.412" transform="translate(-1.365 -15.398)" fill="#4e8f1e"/>
        <path id="Trazado_136117-2" data-name="Trazado 136117" d="M12.394,43.476a5.1,5.1,0,0,1-.542-2.21.583.583,0,0,0-.313-.567,3.362,3.362,0,0,1-1.46-3.306c.05-.224,0-.553.2-.639s.332.228.493.362a10.224,10.224,0,0,0,1.952,1.344,8.378,8.378,0,0,0,2.551.793,7.342,7.342,0,0,0,2.631-.071.877.877,0,0,1,.741.232,8.45,8.45,0,0,0,4.037,1.729c.046.006.087.049.13.075a4.884,4.884,0,0,1-3.94,3.835,4.818,4.818,0,0,1-4.335-1.438.857.857,0,0,0-.915-.255,3.324,3.324,0,0,1-1.234.118" transform="translate(-5.344 -19.586)" fill="#5eab24"/>
        <path id="Trazado_136118-2" data-name="Trazado 136118" d="M46.383,16.221c-.09.12.024.188.071.27a9.065,9.065,0,0,1,1.27,4.207,8.96,8.96,0,0,1-4.432,8.281,8.79,8.79,0,0,1-2.452.983c-.358.086-.39.324-.444.628a7.669,7.669,0,0,1-1.325,3.176A2.278,2.278,0,0,0,38.94,34a5.053,5.053,0,0,1-1.462-.723c-.186-.123-.189-.217-.05-.4a6.057,6.057,0,0,0,1.266-3.663,2.066,2.066,0,0,0-.006-.234c-.057-.609-.056-.577.529-.623a7.228,7.228,0,0,0,6.679-7.7,7.027,7.027,0,0,0-1.729-4.185c-.068-.078-.134-.157-.248-.29a4.438,4.438,0,0,1,2.464.036" transform="translate(-19.901 -8.545)" fill="#47821c"/>
        <path id="Trazado_136119-2" data-name="Trazado 136119" d="M20.32,55.955v.235c0,.78,0,.793-.766.986a3.009,3.009,0,0,1-2.127-.217,1.236,1.236,0,0,0-.909-.088A3.966,3.966,0,0,1,11.6,53.936a1.668,1.668,0,0,1-.041-.19c-.068-.52-.036-.553.454-.423a5.394,5.394,0,0,0,2.284.083.583.583,0,0,1,.528.159A5.886,5.886,0,0,0,19.967,55c.3-.053.376,0,.356.286-.016.221,0,.444,0,.665" transform="translate(-6.146 -28.393)" fill="#47811c"/>
        <path id="Trazado_136120-2" data-name="Trazado 136120" d="M34.208,68a1.026,1.026,0,0,1-1.325-.883,3.9,3.9,0,0,1-.007-.391c0-3.669.007-7.338-.011-11.006a.639.639,0,0,1,.419-.687,5.448,5.448,0,0,0,.6-.363c.19.194.133.441.133.669q.006,5.4,0,10.809a4.507,4.507,0,0,0,.189,1.624.313.313,0,0,1,0,.23" transform="translate(-17.521 -29.146)" fill="#a96100"/>
        <path id="Trazado_136121-2" data-name="Trazado 136121" d="M35.371,67.915a2.348,2.348,0,0,1-.315-1.268q0-6.032-.008-12.064c.1-.148.194-.051.292.014.753.494.753.494.753,1.416q0,5.377,0,10.754a1.007,1.007,0,0,1-.721,1.148" transform="translate(-18.684 -29.057)" fill="#cb7400"/>
        <path id="Trazado_136122-2" data-name="Trazado 136122" d="M55.979,70.6a3.224,3.224,0,0,1,1.4,2.169.985.985,0,0,0,.794.876,2.073,2.073,0,0,1,1.4,2.751c-.073.159-.219.114-.343.114q-4,0-7.99,0c-.315,0-.372-.085-.236-.373a2.311,2.311,0,0,1,.9-1.01.711.711,0,0,0,.369-.635,4.3,4.3,0,0,1,3.172-3.9.661.661,0,0,1,.53,0" transform="translate(-27.156 -37.605)" fill="#6dc72a"/>
        <path id="Trazado_136123-2" data-name="Trazado 136123" d="M53.4,69.843a4.188,4.188,0,0,0-3.593,4.071.446.446,0,0,1-.276.458,2.515,2.515,0,0,0-1.017,1.046c-.1.169-.126.3.168.3q3.99-.012,7.98,0A.6.6,0,0,0,57,75.64c-.019.208-.181.15-.3.151q-5.147,0-10.294,0c-.221,0-.292-.072-.3-.288a1.858,1.858,0,0,1,.93-1.817A1.2,1.2,0,0,0,47.7,72.53a3.6,3.6,0,0,1,5.491-2.859,2.216,2.216,0,0,1,.21.171" transform="translate(-24.579 -36.851)" fill="#5eab24"/>
        <path id="Trazado_136124-2" data-name="Trazado 136124" d="M46.746,47.266a.608.608,0,0,1-.587-.474.529.529,0,0,1,.3-.622c.264-.139.549-.24.814-.377a3.442,3.442,0,0,0,1.772-2.217c.032-.113.056-.228.1-.337a.606.606,0,0,1,.7-.43.634.634,0,0,1,.446.764,4.736,4.736,0,0,1-.907,1.969A4.647,4.647,0,0,1,46.982,47.2l-.235.067" transform="translate(-24.598 -22.813)" fill="#47821c"/>
        <path id="Trazado_136125-2" data-name="Trazado 136125" d="M7.86,78.419a3.8,3.8,0,0,1,1.177-3.173A3.614,3.614,0,0,1,11.4,74.175a2.567,2.567,0,0,1,.989,1.231.974.974,0,0,0,1.1.74,1.94,1.94,0,0,1,1.976,1.988c-.005.2-.052.307-.286.306q-3.659-.018-7.319-.021" transform="translate(-4.182 -39.543)" fill="#6dc72a"/>
        <path id="Trazado_136126-2" data-name="Trazado 136126" d="M39.779,31.238c-.552,0-.9-.4-.711-.856.145-.352.5-.371.8-.386a3.643,3.643,0,0,0,3.321-2.97,5.827,5.827,0,0,1,.07-.7.612.612,0,0,1,.744-.5.647.647,0,0,1,.442.7,4.891,4.891,0,0,1-4.664,4.707" transform="translate(-20.8 -13.764)" fill="#5eab24"/>
        <path id="Trazado_136127-2" data-name="Trazado 136127" d="M22.439,29.584a1.489,1.489,0,1,1-1.477-1.537,1.472,1.472,0,0,1,1.477,1.537" transform="translate(-10.375 -14.952)" fill="#5eab24"/>
        <path id="Trazado_136128-2" data-name="Trazado 136128" d="M38.719,17.166a1.488,1.488,0,1,1-2.975-.052,1.489,1.489,0,1,1,2.975.052" transform="translate(-19.055 -8.317)" fill="#5eab24"/>
        <path id="Trazado_136129-2" data-name="Trazado 136129" d="M30.114,26.437a.549.549,0,1,1,.592-.55.6.6,0,0,1-.592.55" transform="translate(-15.748 -13.509)" fill="#5eac24"/>
        <path id="Trazado_136130-2" data-name="Trazado 136130" d="M33.766,32.815a.607.607,0,0,1-.54-.6.582.582,0,1,1,.54.6" transform="translate(-17.712 -16.909)" fill="#5eac24"/>
        <path id="Trazado_136131-2" data-name="Trazado 136131" d="M41.544,24.669a.589.589,0,0,1,.567.574.581.581,0,1,1-.567-.574" transform="translate(-21.831 -13.151)" fill="#5eac24"/>
        <path id="Trazado_136132-2" data-name="Trazado 136132" d="M27.306,47.484A1.491,1.491,0,0,1,25.8,49.031a1.515,1.515,0,0,1-1.47-1.521,1.544,1.544,0,0,1,1.5-1.532c.668-.005,1.616.74,1.473,1.506" transform="translate(-12.969 -24.511)" fill="#4e8f1e"/>
        <path id="Trazado_136133-2" data-name="Trazado 136133" d="M18.225,45.191a.607.607,0,0,1-.6-.551.641.641,0,0,1,.578-.582.684.684,0,0,1,.584.543.6.6,0,0,1-.562.591" transform="translate(-9.396 -23.488)" fill="#4e901e"/>
        <path id="Trazado_136134-2" data-name="Trazado 136134" d="M58.7,77.994A1.473,1.473,0,0,1,57.2,76.531a1.54,1.54,0,0,1,1.5-1.519A1.461,1.461,0,0,1,60.2,76.518a1.423,1.423,0,0,1-1.5,1.476" transform="translate(-30.495 -39.989)" fill="#5eab24"/>
        <path id="Trazado_136135-2" data-name="Trazado 136135" d="M67.039,78.816a.6.6,0,0,1-.591.564.583.583,0,0,1,.072-1.161.614.614,0,0,1,.519.6" transform="translate(-35.155 -41.699)" fill="#5eac24"/>
        <path id="Trazado_136136-2" data-name="Trazado 136136" d="M18.713,80.837a.55.55,0,1,1-.539-.6.606.606,0,0,1,.539.6" transform="translate(-9.391 -42.773)" fill="#5eac24"/>
        <path id="Trazado_136137-2" data-name="Trazado 136137" d="M12.674,78.82a.549.549,0,1,1-1.1-.039.549.549,0,1,1,1.1.039" transform="translate(-6.172 -41.699)" fill="#5eac24"/>
      </g>
    </g>
  </g>
</svg>
