<svg xmlns="http://www.w3.org/2000/svg" xmlns:xlink="http://www.w3.org/1999/xlink" width="375" height="346" viewBox="0 0 375 346">
  <defs>
    <clipPath id="clip-path">
      <rect id="Rectángulo_37598" data-name="Rectángulo 37598" width="75.316" height="69.503" fill="none"/>
    </clipPath>
    <clipPath id="clip-path-2">
      <rect id="Rectángulo_37601" data-name="Rectángulo 37601" width="54.5" height="53.491" fill="none"/>
    </clipPath>
    <clipPath id="clip-path-3">
      <rect id="Rectángulo_37605" data-name="Rectángulo 37605" width="52" height="53.654" fill="none"/>
    </clipPath>
  </defs>
  <g id="Grupo_161681" data-name="Grupo 161681" transform="translate(7369 4074)">
    <path id="Trazado_142387" data-name="Trazado 142387" d="M16.918,17a2.281,2.281,0,0,1-.086-.766,2.863,2.863,0,0,1-2.156.922,2.594,2.594,0,0,1-1.84-.723,2.186,2.186,0,0,1-.684-1.746,2.527,2.527,0,0,1,1.16-2.121,5.266,5.266,0,0,1,2.965-.738l1.031.016.109-.508a1.764,1.764,0,0,0,.023-.492.846.846,0,0,0-.277-.574.955.955,0,0,0-.629-.215,1.345,1.345,0,0,0-.875.254,1.231,1.231,0,0,0-.461.777l-2.211.008A2.457,2.457,0,0,1,14.1,9.129a4.312,4.312,0,0,1,2.613-.738,3.117,3.117,0,0,1,2.25.855,2.5,2.5,0,0,1,.68,2.121L19,15.414l-.039.5a2.412,2.412,0,0,0,.133.938L19.082,17Zm-1.7-1.555a2.017,2.017,0,0,0,1.664-.828l.273-1.461-.766-.008a2.139,2.139,0,0,0-1.758.742,1.292,1.292,0,0,0-.242.633.75.75,0,0,0,.176.668A.891.891,0,0,0,15.223,15.445Zm8.906-.1a1.447,1.447,0,0,0,1.016-.332,1.632,1.632,0,0,0,.531-.926l2.07-.008a3.037,3.037,0,0,1-.559,1.6,3.394,3.394,0,0,1-1.344,1.109,3.847,3.847,0,0,1-1.77.375A3.123,3.123,0,0,1,21.637,16.1a3.965,3.965,0,0,1-.867-2.766l.023-.43.008-.086a5.284,5.284,0,0,1,1.391-3.27,3.761,3.761,0,0,1,2.914-1.16,3.047,3.047,0,0,1,2.27.934A3.3,3.3,0,0,1,28.2,11.7H26.145a1.73,1.73,0,0,0-.3-1.07,1.128,1.128,0,0,0-.891-.422q-1.578-.047-1.914,2.3a7.782,7.782,0,0,0-.086,1.438Q23.035,15.32,24.129,15.344Zm10.258-4.68a4.548,4.548,0,0,0-.742-.078,2.136,2.136,0,0,0-1.867.883L30.8,17H28.6l1.469-8.453,2.07-.008-.2,1.031a2.325,2.325,0,0,1,1.969-1.2,3.214,3.214,0,0,1,.766.109Zm4.508-2.273a3.39,3.39,0,0,1,1.926.574A3.234,3.234,0,0,1,42.008,10.5a4.762,4.762,0,0,1,.27,2.176,5.143,5.143,0,0,1-1.4,3.262,3.96,3.96,0,0,1-3.02,1.215,3.38,3.38,0,0,1-1.906-.566,3.222,3.222,0,0,1-1.187-1.527,4.657,4.657,0,0,1-.273-2.156A5.3,5.3,0,0,1,35.91,9.578,3.878,3.878,0,0,1,38.895,8.391Zm-2.227,5.315a1.95,1.95,0,0,0,.352,1.182,1.168,1.168,0,0,0,.945.449,1.712,1.712,0,0,0,1.594-.932,4.647,4.647,0,0,0,.539-2.531,2.122,2.122,0,0,0-.363-1.2,1.149,1.149,0,0,0-.949-.464,1.715,1.715,0,0,0-1.574.924A4.6,4.6,0,0,0,36.668,13.706Zm11.141.912q.125-.625-.867-.906l-.711-.18q-2.523-.7-2.453-2.453a2.428,2.428,0,0,1,1.059-1.949,3.942,3.942,0,0,1,2.457-.738,3.536,3.536,0,0,1,2.313.758,2.5,2.5,0,0,1,.9,1.977l-2.187-.008a.963.963,0,0,0-1.078-1.1,1.552,1.552,0,0,0-.895.258,1.061,1.061,0,0,0-.465.7q-.117.625.945.883l.313.07a6.285,6.285,0,0,1,1.648.59,2.488,2.488,0,0,1,.879.824,2.04,2.04,0,0,1,.285,1.18,2.251,2.251,0,0,1-.52,1.406,3.18,3.18,0,0,1-1.359.93,4.736,4.736,0,0,1-1.816.3,3.568,3.568,0,0,1-2.344-.809,2.607,2.607,0,0,1-.953-2.051l2.078.016a1.142,1.142,0,0,0,1.3,1.227,1.845,1.845,0,0,0,1-.25A.987.987,0,0,0,47.809,14.617Zm8.055,0q.125-.625-.867-.906l-.711-.18q-2.523-.7-2.453-2.453a2.428,2.428,0,0,1,1.059-1.949,3.942,3.942,0,0,1,2.457-.738,3.536,3.536,0,0,1,2.313.758,2.5,2.5,0,0,1,.9,1.977l-2.187-.008a.963.963,0,0,0-1.078-1.1,1.552,1.552,0,0,0-.895.258,1.061,1.061,0,0,0-.465.7q-.117.625.945.883l.313.07a6.285,6.285,0,0,1,1.648.59,2.488,2.488,0,0,1,.879.824A2.04,2.04,0,0,1,58,14.516a2.251,2.251,0,0,1-.52,1.406,3.18,3.18,0,0,1-1.359.93,4.736,4.736,0,0,1-1.816.3,3.568,3.568,0,0,1-2.344-.809,2.607,2.607,0,0,1-.953-2.051l2.078.016a1.142,1.142,0,0,0,1.3,1.227,1.845,1.845,0,0,0,1-.25A.987.987,0,0,0,55.863,14.617Z" transform="translate(-7242 -3927)" fill="#ffd947"/>
    <g id="Grupo_158992" data-name="Grupo 158992" transform="translate(-7197.044 -4073.855)">
      <g id="Rectángulo_37565" data-name="Rectángulo 37565" transform="translate(16.044 -0.145)" fill="none" stroke="#ffd947" stroke-width="2">
        <rect width="187" height="141" rx="15" stroke="none"/>
        <rect x="1" y="1" width="185" height="139" rx="14" fill="none"/>
      </g>
      <path id="Polígono_14" data-name="Polígono 14" d="M10,0,20,16H0Z" transform="translate(0.044 80.855) rotate(-90)" fill="#ffd947"/>
      <path id="Polígono_15" data-name="Polígono 15" d="M9.715,0,19.43,16.516H0Z" transform="translate(119.495 155.926) rotate(180)" fill="#ffd947"/>
    </g>
    <path id="Trazado_136140" data-name="Trazado 136140" d="M11,0H156a11,11,0,0,1,11,11v99a11,11,0,0,1-11,11H11A11,11,0,0,1,0,110V11A11,11,0,0,1,11,0Z" transform="translate(-7369 -4064)" fill="#c4d1ff"/>
    <path id="Trazado_136073" data-name="Trazado 136073" d="M11,0H156a11,11,0,0,1,11,11v99a11,11,0,0,1-11,11H11A11,11,0,0,1,0,110V11A11,11,0,0,1,11,0Z" transform="translate(-7171 -4064)" fill="#c4d1ff"/>
    <path id="Trazado_142384" data-name="Trazado 142384" d="M11,0H156a11,11,0,0,1,11,11V162a11,11,0,0,1-11,11H11A11,11,0,0,1,0,162V11A11,11,0,0,1,11,0Z" transform="translate(-7171 -3901)" fill="#c4d1ff"/>
    <path id="Trazado_142385" data-name="Trazado 142385" d="M2.781,15.117H7.609L7.281,17H.164L2.141,5.625H4.43ZM10.836,17H8.617l1.469-8.453H12.3ZM10.344,6.4a1.1,1.1,0,0,1,.344-.867,1.323,1.323,0,0,1,1.734-.039,1.1,1.1,0,0,1,.383.828,1.132,1.132,0,0,1-.324.844,1.215,1.215,0,0,1-.887.375,1.235,1.235,0,0,1-.863-.3A1.091,1.091,0,0,1,10.344,6.4Zm10.484,6.4A6.061,6.061,0,0,1,19.609,16a3.033,3.033,0,0,1-2.547,1.164,2.357,2.357,0,0,1-2.031-1.078l-.32.914H12.7L14.781,5h2.211l-.852,4.32a2.634,2.634,0,0,1,2.063-.93,2.385,2.385,0,0,1,1.926.879,3.89,3.89,0,0,1,.746,2.387A9.133,9.133,0,0,1,20.828,12.8Zm-2.187-.165a6.554,6.554,0,0,0,.047-1.034q-.086-1.364-1.125-1.387a1.833,1.833,0,0,0-1.617.885l-.609,3.37a1.258,1.258,0,0,0,1.266.878q1.625.047,1.992-2.367ZM27.3,10.664a4.548,4.548,0,0,0-.742-.078,2.136,2.136,0,0,0-1.867.883L23.719,17h-2.2l1.469-8.453,2.07-.008-.2,1.031a2.325,2.325,0,0,1,1.969-1.2,3.214,3.214,0,0,1,.766.109ZM31.914,17a2.281,2.281,0,0,1-.086-.766,2.863,2.863,0,0,1-2.156.922,2.594,2.594,0,0,1-1.84-.723,2.186,2.186,0,0,1-.684-1.746,2.527,2.527,0,0,1,1.16-2.121,5.266,5.266,0,0,1,2.965-.738l1.031.016.109-.508a1.764,1.764,0,0,0,.023-.492.846.846,0,0,0-.277-.574.955.955,0,0,0-.629-.215,1.345,1.345,0,0,0-.875.254,1.231,1.231,0,0,0-.461.777l-2.211.008A2.457,2.457,0,0,1,29.1,9.129a4.312,4.312,0,0,1,2.613-.738,3.117,3.117,0,0,1,2.25.855,2.5,2.5,0,0,1,.68,2.121l-.648,4.047-.039.5a2.412,2.412,0,0,0,.133.938L34.078,17Zm-1.7-1.555a2.017,2.017,0,0,0,1.664-.828l.273-1.461-.766-.008a2.139,2.139,0,0,0-1.758.742,1.292,1.292,0,0,0-.242.633.75.75,0,0,0,.176.668A.891.891,0,0,0,30.219,15.445Zm10.992-4.781a4.548,4.548,0,0,0-.742-.078,2.136,2.136,0,0,0-1.867.883L37.625,17h-2.2l1.469-8.453,2.07-.008-.2,1.031a2.325,2.325,0,0,1,1.969-1.2,3.214,3.214,0,0,1,.766.109Zm3.539,3.117,2.414-5.234h2.453l-4.945,9.727a4.231,4.231,0,0,1-1.246,1.641,2.723,2.723,0,0,1-1.652.523,5.035,5.035,0,0,1-1.062-.164l.164-1.719.3.016a1.651,1.651,0,0,0,1.578-.789l.484-.9L41.859,8.547h2.281Z" transform="translate(-7114 -3772)" fill="#12263f"/>
    <path id="Trazado_142386" data-name="Trazado 142386" d="M9.281,15.563A3.837,3.837,0,0,1,7.5,16.754a7.523,7.523,0,0,1-2.652.395A4.114,4.114,0,0,1,2.8,16.637a3.572,3.572,0,0,1-1.391-1.449,5.128,5.128,0,0,1-.578-2.156,9.841,9.841,0,0,1,.238-2.645A7.438,7.438,0,0,1,2.152,7.723,5.076,5.076,0,0,1,4,6.012a4.868,4.868,0,0,1,2.391-.543,3.954,3.954,0,0,1,2.789,1,4.165,4.165,0,0,1,1.148,2.785l-2.2-.008a2.331,2.331,0,0,0-.508-1.406,1.731,1.731,0,0,0-1.258-.484,2.467,2.467,0,0,0-2.277,1.27,7.9,7.9,0,0,0-.949,3.816,3.355,3.355,0,0,0,.41,2.07,1.7,1.7,0,0,0,1.488.75,3.171,3.171,0,0,0,1.984-.555L7.4,12.75H5.32l.3-1.727H9.969Zm4.977-1.781,2.414-5.234h2.453L14.18,18.273a4.231,4.231,0,0,1-1.246,1.641,2.723,2.723,0,0,1-1.652.523,5.035,5.035,0,0,1-1.062-.164l.164-1.719.3.016a1.651,1.651,0,0,0,1.578-.789l.484-.9L11.367,8.547h2.281Zm7.8-5.242-.18.961a3.112,3.112,0,0,1,2.477-1.109,2.379,2.379,0,0,1,1.3.359,1.679,1.679,0,0,1,.7.93,3.255,3.255,0,0,1,2.625-1.289,2.126,2.126,0,0,1,1.754.8,3.271,3.271,0,0,1,.5,2.234l-.016.2L30.3,17H28.094l.9-5.4a3.908,3.908,0,0,0,.023-.54.837.837,0,0,0-.937-.845,1.86,1.86,0,0,0-1.555.97l-.023.18L25.516,17h-2.2l.9-5.383a3.9,3.9,0,0,0,.023-.539.836.836,0,0,0-.93-.852,1.867,1.867,0,0,0-1.508.789L20.742,17h-2.2L20,8.547Z" transform="translate(-7104 -3975)" fill="#12263f"/>
    <path id="Trazado_142388" data-name="Trazado 142388" d="M3.156,12.992,2.453,17H.164L2.141,5.625l3.984.008a3.986,3.986,0,0,1,2.9,1.023,3.174,3.174,0,0,1,.922,2.672A3.592,3.592,0,0,1,8.551,12a5.075,5.075,0,0,1-3.238,1Zm.32-1.9,1.906.016a2.41,2.41,0,0,0,1.531-.477,1.918,1.918,0,0,0,.727-1.289,1.646,1.646,0,0,0-.262-1.3,1.418,1.418,0,0,0-1.121-.516L4.1,7.523Zm11.367-2.7a3.39,3.39,0,0,1,1.926.574A3.234,3.234,0,0,1,17.957,10.5a4.762,4.762,0,0,1,.27,2.176,5.143,5.143,0,0,1-1.4,3.262,3.96,3.96,0,0,1-3.02,1.215A3.38,3.38,0,0,1,11.9,16.59a3.222,3.222,0,0,1-1.187-1.527,4.657,4.657,0,0,1-.273-2.156,5.3,5.3,0,0,1,1.422-3.328A3.878,3.878,0,0,1,14.844,8.391Zm-2.227,5.315a1.95,1.95,0,0,0,.352,1.182,1.168,1.168,0,0,0,.945.449,1.712,1.712,0,0,0,1.594-.932,4.647,4.647,0,0,0,.539-2.531,2.122,2.122,0,0,0-.363-1.2,1.149,1.149,0,0,0-.949-.464,1.715,1.715,0,0,0-1.574.924A4.6,4.6,0,0,0,12.617,13.706ZM21.188,17H18.969L21.055,5h2.211Zm4.2,0H23.164l1.469-8.453h2.219ZM24.891,6.4a1.1,1.1,0,0,1,.344-.867,1.323,1.323,0,0,1,1.734-.039,1.1,1.1,0,0,1,.383.828,1.132,1.132,0,0,1-.324.844,1.215,1.215,0,0,1-.887.375,1.235,1.235,0,0,1-.863-.3A1.091,1.091,0,0,1,24.891,6.4Zm6.063,8.945a1.447,1.447,0,0,0,1.016-.332,1.632,1.632,0,0,0,.531-.926l2.07-.008a3.037,3.037,0,0,1-.559,1.6,3.394,3.394,0,0,1-1.344,1.109,3.847,3.847,0,0,1-1.77.375A3.123,3.123,0,0,1,28.461,16.1a3.965,3.965,0,0,1-.867-2.766l.023-.43.008-.086a5.284,5.284,0,0,1,1.391-3.27,3.761,3.761,0,0,1,2.914-1.16,3.047,3.047,0,0,1,2.27.934,3.3,3.3,0,0,1,.824,2.379H32.969a1.73,1.73,0,0,0-.3-1.07,1.128,1.128,0,0,0-.891-.422q-1.578-.047-1.914,2.3a7.782,7.782,0,0,0-.086,1.438Q29.859,15.32,30.953,15.344Zm8.484,1.813a3.677,3.677,0,0,1-1.965-.543A3.292,3.292,0,0,1,36.2,15.145a4.093,4.093,0,0,1-.328-2.059l.023-.312a5.465,5.465,0,0,1,.719-2.266,4.341,4.341,0,0,1,1.547-1.59,3.827,3.827,0,0,1,2.094-.527,2.924,2.924,0,0,1,2.473,1.2,4.117,4.117,0,0,1,.637,2.962l-.125.962h-5.18a1.814,1.814,0,0,0,.4,1.313,1.521,1.521,0,0,0,1.172.508,2.7,2.7,0,0,0,2.109-.937l1.008,1.25a3.135,3.135,0,0,1-1.375,1.121A4.5,4.5,0,0,1,39.438,17.156Zm.7-6.945a1.565,1.565,0,0,0-1.082.383,3.363,3.363,0,0,0-.848,1.383h3.031l.047-.2a2.071,2.071,0,0,0,.008-.594,1.134,1.134,0,0,0-.383-.707A1.2,1.2,0,0,0,40.141,10.211Zm14.094,3.75q.164-.93-.914-1.422l-1.508-.6q-2.625-1.172-2.492-3.227a2.964,2.964,0,0,1,.625-1.687,3.758,3.758,0,0,1,1.6-1.152,5.67,5.67,0,0,1,2.227-.4,3.857,3.857,0,0,1,2.664.98,3.267,3.267,0,0,1,1,2.543H55.156a1.628,1.628,0,0,0-.34-1.2,1.531,1.531,0,0,0-1.176-.445,2.37,2.37,0,0,0-1.359.355,1.458,1.458,0,0,0-.687,1.02q-.148.852,1.141,1.352l1.031.391.594.273q2.3,1.141,2.156,3.2a3.09,3.09,0,0,1-.645,1.738A3.633,3.633,0,0,1,54.309,16.8a5.565,5.565,0,0,1-2.176.367,4.873,4.873,0,0,1-2.156-.508,3.349,3.349,0,0,1-1.437-1.367,3.54,3.54,0,0,1-.43-1.875l2.289.008q-.109,1.852,1.82,1.883a2.392,2.392,0,0,0,1.375-.367A1.43,1.43,0,0,0,54.234,13.961Zm7.688-7.492-.367,2.078h1.406L62.672,10.2H61.266l-.719,4.234a1.077,1.077,0,0,0,.063.609q.109.211.531.227.125.008.672-.039l-.156,1.727a3.706,3.706,0,0,1-1.266.18,1.985,1.985,0,0,1-1.617-.68,2.456,2.456,0,0,1-.437-1.8l.727-4.461h-1.2l.289-1.656h1.2l.359-2.078ZM67.664,17a2.281,2.281,0,0,1-.086-.766,2.863,2.863,0,0,1-2.156.922,2.594,2.594,0,0,1-1.84-.723,2.186,2.186,0,0,1-.684-1.746,2.527,2.527,0,0,1,1.16-2.121,5.266,5.266,0,0,1,2.965-.738l1.031.016.109-.508a1.764,1.764,0,0,0,.023-.492.846.846,0,0,0-.277-.574.955.955,0,0,0-.629-.215,1.345,1.345,0,0,0-.875.254,1.231,1.231,0,0,0-.461.777l-2.211.008a2.457,2.457,0,0,1,1.113-1.965,4.312,4.312,0,0,1,2.613-.738,3.117,3.117,0,0,1,2.25.855,2.5,2.5,0,0,1,.68,2.121l-.648,4.047-.039.5a2.412,2.412,0,0,0,.133.938L69.828,17Zm-1.7-1.555a2.017,2.017,0,0,0,1.664-.828l.273-1.461-.766-.008a2.139,2.139,0,0,0-1.758.742,1.292,1.292,0,0,0-.242.633.75.75,0,0,0,.176.668A.891.891,0,0,0,65.969,15.445Zm9.672-8.977-.367,2.078H76.68L76.391,10.2H74.984l-.719,4.234a1.077,1.077,0,0,0,.063.609q.109.211.531.227.125.008.672-.039l-.156,1.727a3.706,3.706,0,0,1-1.266.18,1.985,1.985,0,0,1-1.617-.68,2.456,2.456,0,0,1-.437-1.8l.727-4.461h-1.2l.289-1.656h1.2l.359-2.078ZM78.82,17H76.6L78.07,8.547h2.219ZM78.328,6.4a1.1,1.1,0,0,1,.344-.867,1.323,1.323,0,0,1,1.734-.039,1.1,1.1,0,0,1,.383.828,1.132,1.132,0,0,1-.324.844,1.215,1.215,0,0,1-.887.375,1.235,1.235,0,0,1-.863-.3A1.091,1.091,0,0,1,78.328,6.4Zm7.2,1.992a3.39,3.39,0,0,1,1.926.574A3.234,3.234,0,0,1,88.637,10.5a4.762,4.762,0,0,1,.27,2.176,5.143,5.143,0,0,1-1.4,3.262,3.96,3.96,0,0,1-3.02,1.215,3.38,3.38,0,0,1-1.906-.566,3.222,3.222,0,0,1-1.187-1.527,4.657,4.657,0,0,1-.273-2.156,5.3,5.3,0,0,1,1.422-3.328A3.878,3.878,0,0,1,85.523,8.391ZM83.3,13.706a1.95,1.95,0,0,0,.352,1.182,1.168,1.168,0,0,0,.945.449,1.712,1.712,0,0,0,1.594-.932,4.647,4.647,0,0,0,.539-2.531,2.122,2.122,0,0,0-.363-1.2,1.149,1.149,0,0,0-.949-.464,1.715,1.715,0,0,0-1.574.924A4.6,4.6,0,0,0,83.3,13.706Zm9.727-5.167-.187,1A3.042,3.042,0,0,1,95.3,8.391a2.028,2.028,0,0,1,1.766.875,3.526,3.526,0,0,1,.414,2.359L96.586,17h-2.2l.906-5.4a2.528,2.528,0,0,0,.016-.555.9.9,0,0,0-1-.82,1.9,1.9,0,0,0-1.555.8L91.7,17h-2.2l1.469-8.453Z" transform="translate(-7334 -3975)" fill="#12263f"/>
    <g id="Grupo_159117" data-name="Grupo 159117" transform="translate(-7125 -3855.009)">
      <g id="Grupo_159064" data-name="Grupo 159064" clip-path="url(#clip-path)">
        <path id="Trazado_136141" data-name="Trazado 136141" d="M75.316,47.244v1.47a3.9,3.9,0,0,1-4.146,3.433c-1.725.019-1.713.022-2.145,1.7a11.531,11.531,0,0,0,.226,6.434,1.072,1.072,0,0,0,1.214.884,4.838,4.838,0,0,1,3.893,1.351,3.562,3.562,0,0,1,.958,2.072v1.469A3.977,3.977,0,0,1,71.232,69.5c-.171.006-.343,0-.514,0H7.019a6.933,6.933,0,0,1-5.141-1.958A5.9,5.9,0,0,1,0,63.226q0-6.575,0-13.15A5.906,5.906,0,0,1,2.875,45a.939.939,0,0,0,.462-1.3,4.118,4.118,0,0,1,3.77-5.47c.22-.018.441-.016.661-.017,1.268-.01,1.343-.061,1.691-1.25a11.159,11.159,0,0,0-.053-6.651c-.329-1.037-.36-1.065-1.435-1.07a5.045,5.045,0,0,1-3.2-.877,3.909,3.909,0,0,1-1.6-4.006A3.956,3.956,0,0,1,6.1,21.1a6.9,6.9,0,0,0,1.14-.294,15.489,15.489,0,0,1-1.52-1.6A11.653,11.653,0,0,1,5.576,4.588,11.45,11.45,0,0,1,13.49.137,20.833,20.833,0,0,1,16.054,0q17.6,0,35.192,0a5.685,5.685,0,0,1,2.575.473,4.265,4.265,0,0,1,2.377,4.2,4.174,4.174,0,0,1-3.615,3.705c-1.73.248-1.7.253-2.038,1.986a9.01,9.01,0,0,0,.233,3.851,1.068,1.068,0,0,0,1.168.943A4.2,4.2,0,0,1,56.2,18.949a3.078,3.078,0,0,1-.09,1.308c-.125.464.044.619.5.617a20.554,20.554,0,0,1,3,.124,6.629,6.629,0,0,1,5.774,6.638c.009,4.016-.01,8.032.01,12.048a6.832,6.832,0,0,1-.942,3.573c-.362.619-.321.679.4.682,2.179.008,4.359.015,6.539,0a4.143,4.143,0,0,1,3.266,1.554,3.417,3.417,0,0,1,.656,1.753" transform="translate(0)"/>
        <path id="Trazado_136142" data-name="Trazado 136142" d="M38.213,138.137c.534.493,1.061.994,1.6,1.477s1.109.917,1.891.581.871-1.035.873-1.768a2.291,2.291,0,0,1,.037-.288,1.336,1.336,0,0,1,.973-.239q16.811-.007,33.622,0c.984,0,1.055.084.991.874a14.48,14.48,0,0,0,.711,5.059c.13.4.088.6-.382.526a2,2,0,0,0-.294,0q-28.693,0-57.387-.007c-.294,0-.637.147-.88-.166-.134-1.877-.025-3.755-.058-5.633-.006-.328.208-.476.48-.564a3.028,3.028,0,0,1,.945-.087q4.251,0,8.5,0c1.165,0,1.165.008,1.285,1.117.415,1.384,1.438,1.7,2.545.77.634-.535,1.229-1.114,1.842-1.673a3.746,3.746,0,0,1,2.7.021" transform="translate(-11.976 -82.96)" fill="#f8f6f7"/>
        <path id="Trazado_136143" data-name="Trazado 136143" d="M9.335,136.887a4.078,4.078,0,0,1-3.626-3.959q-.056-6.313,0-12.627a4.069,4.069,0,0,1,3.973-4.027c4.135-.072,8.272-.028,12.408-.046.392,0,.505.137.493.513-.023.733-.04,1.47,0,2.2.034.556-.106.746-.71.74-3.279-.033-6.559-.018-9.838-.015A2.587,2.587,0,0,0,9.111,122.6q-.006,4.037,0,8.076a2.607,2.607,0,0,0,2.03,2.847,2.88,2.88,0,0,0,.875.044q23.535,0,47.07,0c.2,0,.392.011.587,0,.47-.03.571.224.427.6a12.412,12.412,0,0,1-1.371,2.5.639.639,0,0,1-.571.276c-.2-.005-.392,0-.587,0q-23.719,0-47.438,0a2.085,2.085,0,0,1-.8-.052" transform="translate(-3.418 -69.935)" fill="#fedf7c"/>
        <path id="Trazado_136144" data-name="Trazado 136144" d="M39.691,9.811a1.215,1.215,0,0,0-.79,1.066,4.782,4.782,0,0,1-3.174,0,1.239,1.239,0,0,0-1.395-1.1c-3.742.017-7.485-.024-11.227.021a5.711,5.711,0,0,0-5.7,5.157,5.8,5.8,0,0,0,4.1,6.124,7.16,7.16,0,0,0,1.585.261,2.587,2.587,0,0,0,.8.042q11.544,0,23.088,0c.94,0,1.014.065.709.938a5.1,5.1,0,0,1-1.239,2.52c-.145.014-.291.038-.436.038-7.584,0-15.168.027-22.751-.008a9.26,9.26,0,0,1-9.208-7.244C12.744,12.2,16.923,6.451,22.288,6.3a2.05,2.05,0,0,1,.727-.048c7.8,0,15.6.008,23.4-.019a1.106,1.106,0,0,1,1.267.9c.165.587.374,1.165.505,1.762.153.7,0,.871-.724.872-2.323,0-4.646,0-6.968,0a2.931,2.931,0,0,0-.8.038" transform="translate(-8.308 -3.75)" fill="#fedf7c"/>
        <path id="Trazado_136145" data-name="Trazado 136145" d="M73.473,84.559c-.342.011-.683.032-1.025.032q-11.422,0-22.845.015c-.576,0-.758-.14-.716-.718a14.252,14.252,0,0,0,0-2.2c-.054-.646.2-.755.783-.745,2.129.035,4.26.015,6.39.012a4.52,4.52,0,0,0,.732-.034,1,1,0,0,0,.9-1.075.989.989,0,0,0-.857-1.039,4.753,4.753,0,0,0-.876-.053q-12.157,0-24.314.011c-.717,0-1.243-.035-1.164-.946a3.547,3.547,0,0,0-.083-.725c.016-.347.3-.342.527-.379a5.9,5.9,0,0,1,.954-.029H71.113c2.156,0,2.6.436,2.6,2.565,0,1.42,0,2.841,0,4.261a1.428,1.428,0,0,1-.237,1.047" transform="translate(-18.291 -46.14)" fill="#f8f6f7"/>
        <path id="Trazado_136146" data-name="Trazado 136146" d="M40.979,76c.217-.249.5-.113.752-.113q12.563-.01,25.125,0c2.124,0,3.039-.917,3.039-3.04q0-4,0-8.007a2.537,2.537,0,0,0-2.812-2.816q-24.427,0-48.855,0a1.969,1.969,0,0,1-1.078-.114c.394-.358.881-.241,1.333-.241q13.954-.011,27.908-.006h11.75c.245,0,.49,0,.734-.011.376-.015.542-.182.434-.565-.013-.047-.027-.094-.039-.142-.484-1.927-.63-2.04-2.63-2.04q-18.985,0-37.969-.006c-.473,0-.989.135-1.4-.253a1.487,1.487,0,0,1,.792-.084c16.851,0,33.7.024,50.553-.015a4.484,4.484,0,0,1,4.713,4.718q-.157,5.69,0,11.387a4.452,4.452,0,0,1-4.659,4.694c-9.013-.047-18.027-.012-27.04-.015-.21,0-.441.084-.632-.086.347-.325.783-.23,1.189-.231,4.772-.008,9.545-.031,14.317.017a1.771,1.771,0,0,0,1.9-1.21c.7-1.6.735-1.582-.962-1.582q-7.636,0-15.271,0A1.594,1.594,0,0,1,40.979,76" transform="translate(-10.319 -35.226)" fill="#7edaad"/>
        <path id="Trazado_136147" data-name="Trazado 136147" d="M65.32,27.851a13.225,13.225,0,0,0,.578,4.03c-.192.158-.393.092-.576.092q-16.439.005-32.879,0a3.464,3.464,0,0,1-3.573-2.352.919.919,0,0,1,.428-1.071,4.124,4.124,0,0,1,2.648-.935c1.641-.008,3.282,0,4.922,0q13.555,0,27.109,0a1.914,1.914,0,0,1,1.343.232" transform="translate(-17.34 -16.611)" fill="#f8f6f7"/>
        <path id="Trazado_136148" data-name="Trazado 136148" d="M15.275,58.791c.318.009.636.025.953.025q19.756,0,39.511-.018c.7,0,1.076.2,1.278.841s.408,1.253.647,1.867c.152.391.063.555-.358.538-.2-.008-.392,0-.587,0H15.666c-.171,0-.342.007-.513.01a1.655,1.655,0,0,1,.123-3.263" transform="translate(-8.322 -35.375)" fill="#a6e8a5"/>
        <path id="Trazado_136149" data-name="Trazado 136149" d="M112.43,132.185c.056-.665-.376-.641-.849-.641q-17.369.009-34.738,0c-.013-.805.01-1.613-.05-2.415-.048-.637.11-.854.81-.848,4.768.036,9.537.01,14.305.028a1.339,1.339,0,0,0,1.5-.99c0-.314.243-.347.453-.362a15.332,15.332,0,0,1,2.271,0c.215.016.45.065.458.367a1.327,1.327,0,0,0,1.5.984c4.775-.017,9.549-.009,14.324-.008h.884a20.152,20.152,0,0,0-.869,3.882" transform="translate(-46.202 -76.367)" fill="#dcd9eb"/>
        <path id="Trazado_136150" data-name="Trazado 136150" d="M65.041,22.006q-16.7,0-33.406,0a4.01,4.01,0,0,0-2.5.881c-.285.219-.586.463-.542.9a3.5,3.5,0,0,1,2.678-4.714,7.476,7.476,0,0,1,1.1-.058Q37.654,19,42.941,19c1.006,0,1.241-.18,1.538-1.11h3.174c.231.922.49,1.11,1.587,1.11,5.2,0,10.4.015,15.606-.015.7,0,.8.142.6.794a18.483,18.483,0,0,0-.406,2.224" transform="translate(-17.061 -10.766)" fill="#dedbec"/>
        <path id="Trazado_136151" data-name="Trazado 136151" d="M72.607,82.2q0-2.939,0-5.877c0-1.3-.464-1.758-1.766-1.758q-20.2,0-40.408.006c-.3,0-.644-.126-.9.164l-.573-1.959h.764q22.068,0,44.135-.016c.727,0,.972.161.958.928-.049,2.593-.032,5.189-.008,7.783.005.558-.128.831-.737.77-.485-.048-.976-.029-1.465-.041" transform="translate(-17.425 -43.78)" fill="#dcd9eb"/>
        <path id="Trazado_136152" data-name="Trazado 136152" d="M96.591,120.889c-.236-.316-.582-.2-.869-.174-.771.069-1.569-.223-2.314.169-.193-1-.456-1.223-1.475-1.223-4.8,0-9.592-.014-14.389.015-.628,0-.8-.17-.749-.772a13.8,13.8,0,0,0,0-2.053c-.037-.539.174-.634.665-.633,5.653.016,11.305.006,16.958.012,2.959,0,5.919.029,8.878.044a7.515,7.515,0,0,1,.968,2.807c.1.448-.179.522-.557.519-1.754-.011-3.509-.006-5.263,0a2.265,2.265,0,0,0-.725.041,1.184,1.184,0,0,0-1.129,1.251" transform="translate(-46.204 -69.929)" fill="#fedf7c"/>
        <path id="Trazado_136153" data-name="Trazado 136153" d="M58.635,104.742c-1.59-1.293-1.588-1.291-3.1.161-.581.559-1.17,1.11-1.746,1.655-.2-.039-.154-.182-.155-.291q0-9.206,0-18.413a2.131,2.131,0,0,1,.06-.356c1.557-.159,3.118-.027,4.676-.07.318-.009.419.2.471.455a4.332,4.332,0,0,1,.047.877q0,7.365,0,14.729c0,.427.1.89-.251,1.253" transform="translate(-32.271 -52.6)" fill="#ea5468"/>
        <path id="Trazado_136154" data-name="Trazado 136154" d="M14.856,163.011c.293-.007.587-.019.88-.019q23.657,0,47.315.019a1.292,1.292,0,0,0,1.348-.842c.292-.617.626-1.217.971-1.807.3-.515.1-.641-.4-.6-.17.015-.343,0-.514,0q-23.437,0-46.874-.005c-.307,0-.639.106-.921-.119.685,0,1.37.012,2.055.012q30.405,0,60.811.009a6.339,6.339,0,0,1,1.168.076,1.665,1.665,0,0,1,1.353,1.606,1.718,1.718,0,0,1-1.2,1.664,2.926,2.926,0,0,1-.943.1q-32.058,0-64.117,0a1.74,1.74,0,0,1-.933-.1" transform="translate(-8.939 -96.059)" fill="#fecf64"/>
        <path id="Trazado_136155" data-name="Trazado 136155" d="M76.875,102.365l17.542.008c.88,0,.874,0,.534.841-.321.793-.519,1.778-1.162,2.243-.625.452-1.609.131-2.435.134-4.82.017-9.639.014-14.459.018a16.69,16.69,0,0,1-.021-3.244" transform="translate(-46.215 -61.594)" fill="#a6e7a5"/>
        <path id="Trazado_136156" data-name="Trazado 136156" d="M52.5,9.747c.234-.2.516-.114.775-.115,2.3-.007,4.6,0,6.9-.005.748,0,.8-.08.578-.818-.182-.607-.4-1.206-.539-1.823-.134-.589-.446-.742-1.037-.74q-11.6.031-23.2.013c-.293,0-.587-.016-.88-.024a1.94,1.94,0,0,1,.938-.1q18.367,0,36.734,0c1.41,0,2.29.838,2.13,2a1.716,1.716,0,0,1-1.466,1.52,6.7,6.7,0,0,1-1.024.057q-9.954.017-19.909.028" transform="translate(-21.12 -3.685)" fill="#fdcf63"/>
        <path id="Trazado_136157" data-name="Trazado 136157" d="M60.457,47.634a27.468,27.468,0,0,0,1.132-2.852c.133-.4.082-.551-.39-.546-1.882.023-3.765.01-5.648.01q-8.8,0-17.6,0c-.283,0-.589.1-.849-.111.245-.008.489-.023.733-.023l36,0a3.038,3.038,0,0,1,1.158.137A1.772,1.772,0,0,1,76.1,46.121a1.721,1.721,0,0,1-1.543,1.524,8.1,8.1,0,0,1-.88.028q-6.246,0-12.491,0c-.244,0-.487-.025-.73-.038" transform="translate(-22.323 -26.54)" fill="#fecf64"/>
        <path id="Trazado_136158" data-name="Trazado 136158" d="M129.341,119.649a2.433,2.433,0,0,1,1.285-.107c1.461-.019,2.924-.052,4.383.011.749.032.767-.232.613-.827a19.029,19.029,0,0,1-.7-2.441c1.442-.015,2.884-.04,4.325-.043,3.254-.006,6.508-.014,9.762.005a1.708,1.708,0,0,1,1.779,2.376,1.67,1.67,0,0,1-1.628,1.043q-9.908,0-19.816-.017" transform="translate(-77.826 -69.94)" fill="#fecf64"/>
        <path id="Trazado_136159" data-name="Trazado 136159" d="M21.328,102.062c1.861,0,3.722.014,5.582-.011.456-.006.6.129.578.58-.033.782-.023,1.567,0,2.35.01.364-.081.527-.483.526-3.795-.012-7.59.006-11.385-.018a1.683,1.683,0,0,1-1.786-1.734,1.723,1.723,0,0,1,1.839-1.689c1.885-.019,3.771-.005,5.656-.006" transform="translate(-8.323 -61.405)" fill="#a6e8a5"/>
        <path id="Trazado_136160" data-name="Trazado 136160" d="M58.728,104.674q.007-8.315.023-16.63c0-.5-.177-.622-.641-.615-1.441.021-2.882,0-4.323,0a5.142,5.142,0,0,1,1.8-.092c1.516-.022,3.032.009,4.548-.009.449-.005.65.09.648.6q-.027,9.132-.018,18.263c0,.09-.012.179-.033.461l-2-1.982" transform="translate(-32.365 -52.531)" fill="#e3384e"/>
        <path id="Trazado_136161" data-name="Trazado 136161" d="M31.04,134.5c-.032-.843-.543-.9-1.253-.895-2.958.039-5.917.015-8.876.018-.964,0-1,.039-1,.984q-.01,2.53-.024,5.06c-.193-.18-.106-.415-.106-.623,0-2.619.022-5.238-.008-7.857-.007-.652.2-.83.841-.824q4.883.044,9.767,0c.556-.005.7.142.681.689-.047,1.148-.019,2.3-.021,3.45" transform="translate(-11.89 -78.438)" fill="#dcd9eb"/>
        <path id="Trazado_136162" data-name="Trazado 136162" d="M28.945,91.045a15.271,15.271,0,0,0,.732-3.269c.023-.292.152-.369.415-.368q3.04.007,6.081,0c.331,0,.407.145.4.445-.014.928-.009,1.856,0,2.784,0,.251-.031.416-.346.415-2.411-.007-4.823,0-7.284,0" transform="translate(-17.416 -52.592)" fill="#f8f6f7"/>
        <path id="Trazado_136163" data-name="Trazado 136163" d="M61.793,136.8l-2.7-.021a.217.217,0,0,1,.029-.066c1.322-1.427,1.322-1.427,2.671.087" transform="translate(-35.557 -81.625)" fill="#d9d6e8"/>
      </g>
    </g>
    <g id="Grupo_159118" data-name="Grupo 159118" transform="translate(-7313 -4040)">
      <g id="Grupo_159070" data-name="Grupo 159070" transform="translate(0 0)" clip-path="url(#clip-path-2)">
        <path id="Trazado_136219" data-name="Trazado 136219" d="M7.161,50.915q0-1.019,0-2.038c.893-.483.921-1.293.915-2.184-.028-4.135-.012-8.27-.012-12.405,0-.2.006-.391,0-.586a.562.562,0,0,1,.654-.644c.16,0,.32,0,.479,0q8.785,0,17.57-.009a2.088,2.088,0,0,1,1.617.627,7.04,7.04,0,0,0,2,1.388,1.88,1.88,0,0,0,1.691,0,7.259,7.259,0,0,0,2.086-1.455,1.828,1.828,0,0,1,1.427-.56c1.491.022,2.982-.015,4.472.017a1.324,1.324,0,0,0,1.443-.833c.273-.3.638-.236.98-.239a4.294,4.294,0,0,1,1.093.051.52.52,0,0,1,.3.349.952.952,0,0,0,1.811.048,1.276,1.276,0,0,1,.14-.226,2.588,2.588,0,0,1,2.082-.071,1.508,1.508,0,0,0,1.672.916c1.187-.048,2.379-.023,3.568-.008.708.009.834.137.841.852.012,1.4,0,2.806,0,4.209q0,14.971,0,29.941c0,1.224-.02,1.243-1.253,1.243H38.736c-.107,0-.213,0-.32,0-.838-.012-.95-.116-.952-.961-.005-4.156-.039-8.312.016-12.466.023-1.755-.7-3.07-3-3-2.484.078-4.972.015-7.458.019a2.331,2.331,0,0,0-2.6,2.292,7.111,7.111,0,0,0-.04.957q0,5.834,0,11.667c0,.178,0,.355,0,.532-.011.854-.1.956-.948.956q-7.192.007-14.384,0c-.9,0-.99-.1-.991-1.025q-.006-5.594,0-11.188c0-.213.006-.426-.008-.639a.907.907,0,0,0-.783-.986c-.152-.044-.318-.056-.424-.2a.51.51,0,0,0,.329-.562c-.03-.52-.008-1.042-.008-1.564.055-.155.2-.182.329-.243a.929.929,0,0,0,0-1.733c-.126-.061-.274-.087-.33-.242" transform="translate(-3.802 -17.767)" fill="#eef2f2"/>
        <path id="Trazado_136220" data-name="Trazado 136220" d="M37.792,14.493a1.073,1.073,0,0,1-1.238.969c-1.686,0-3.372.009-5.057-.005a1.045,1.045,0,0,0-.838.332,8.884,8.884,0,0,1-2.028,1.534,2.261,2.261,0,0,1-2.366.006,9.442,9.442,0,0,1-2.111-1.6.834.834,0,0,0-.648-.272q-9.317.013-18.633,0c-.406,0-.447.153-.446.493q.014,6.894.006,13.788c0,.879-.214,1.148-1.075,1.376a1.133,1.133,0,0,1-1.052-1.223c-.009-1.474,0-2.948,0-4.422,0-3.2-.007-6.393.009-9.589a.562.562,0,0,0-.435-.637A2.985,2.985,0,0,1,2.889,9.474c1.4-.024,2.806-.019,4.208,0,.325,0,.424-.077.419-.411-.02-1.332-.008-2.664-.008-4,0-1.155.3-1.461,1.436-1.461q4.821,0,9.643,0a2.5,2.5,0,0,0,1.1-.255C22.125,2.225,24.6,1.165,27.058.08a1.094,1.094,0,0,1,.925.057c2.364,1.04,4.741,2.055,7.078,3.153a3.367,3.367,0,0,0,1.509.314q4.529,0,9.057,0c.962,0,1.309.351,1.311,1.32,0,1.367.012,2.735-.007,4.1,0,.341.076.453.435.447,1.314-.022,2.628-.014,3.942-.007A3,3,0,0,1,52.425,15.3c-.233.092-.3.195-.28.415a2.656,2.656,0,0,1,0,.266q0,17.394-.012,34.788c0,.487.121.657.6.592a3.472,3.472,0,0,1,.8,0,1.062,1.062,0,0,1,0,2.115,4.416,4.416,0,0,1-.479.007H1.377A3.828,3.828,0,0,1,.9,53.479C.291,53.4.046,53.056.054,52.306a.894.894,0,0,1,.864-.943c.07-.008.142,0,.213-.006.383-.034.892.172,1.114-.093.186-.221.057-.711.057-1.082,0-3.8.006-7.6,0-11.4a1.258,1.258,0,0,1,.739-1.29c1.013-.064,1.4.292,1.4,1.313,0,4.012.007,8.025-.008,12.037,0,.406.085.528.514.527q7.483-.025,14.966,0c.429,0,.557-.082.556-.539-.02-4.4-.015-8.806-.01-13.209a2.462,2.462,0,0,1,1.894-2.609,3.409,3.409,0,0,1,.791-.068q3.995-.007,7.989,0a2.474,2.474,0,0,1,2.7,2.716q0,6.6-.008,13.209c0,.377.06.5.479.5q7.617-.026,15.233,0c.392,0,.5-.085.5-.49q-.019-17.444,0-34.887c0-.465-.144-.546-.567-.537-1.367.028-2.734.012-4.1.009-.838,0-1.139-.252-1.313-1.074a.936.936,0,0,1,.619-1.077,2.276,2.276,0,0,1,.991-.155q2.636,0,5.272,0a2.633,2.633,0,0,0,.637-.04.656.656,0,0,0,.567-.674.637.637,0,0,0-.6-.64,4.793,4.793,0,0,0-.745-.025c-5.255,0-10.51.013-15.764-.016-.776,0-1.354.137-1.644.916-.054.147-.193.254-.25.479.66,0,1.3-.007,1.948,0a10.959,10.959,0,0,1,1.754.046c.764.134,1.121.63.959,1.29" transform="translate(0 0)"/>
        <path id="Trazado_136221" data-name="Trazado 136221" d="M6.243,74.646c.8.213,1.121.58,1.068,1.214-.044.524-.338.8-1.068,1A1.162,1.162,0,0,1,5.2,75.873,1.063,1.063,0,0,1,6,74.729l.247-.083" transform="translate(-2.885 -41.498)" fill="#010101"/>
        <path id="Trazado_136222" data-name="Trazado 136222" d="M91.907,78.561q0,3.141,0,6.283c0,.959-.356,1.309-1.321,1.31q-3.54,0-7.081,0c-.914,0-1.3-.381-1.3-1.288q0-6.283,0-12.565c0-.9.393-1.286,1.306-1.287q3.541,0,7.081,0c.96,0,1.314.357,1.316,1.318q0,3.115,0,6.229" transform="translate(-45.698 -39.478)"/>
        <path id="Trazado_136223" data-name="Trazado 136223" d="M26.789,78.594q0,3.061,0,6.122c0,1.107-.331,1.444-1.414,1.444q-3.513,0-7.027,0c-.893,0-1.266-.363-1.266-1.254q-.007-6.308,0-12.616c0-.889.381-1.264,1.264-1.266q3.54,0,7.08,0c.98,0,1.361.374,1.363,1.343q0,3.115,0,6.228" transform="translate(-9.494 -39.483)"/>
        <path id="Trazado_136224" data-name="Trazado 136224" d="M37.79,43.15a3.969,3.969,0,0,1,3.939,4.294,3.994,3.994,0,1,1-7.967-.091,3.955,3.955,0,0,1,4.029-4.2" transform="translate(-18.769 -23.989)"/>
        <path id="Trazado_136225" data-name="Trazado 136225" d="M78.842,29.007a1.1,1.1,0,0,0-1.277-1.159c-1.22-.006-2.439,0-3.727,0,.344-.572.652-1.082.957-1.594.1-.174.27-.142.425-.142q8.6,0,17.205,0a.872.872,0,1,1-.016,1.731c-1.989.006-3.977,0-5.966,0A1.149,1.149,0,0,0,85.1,28.9c-.5,0-1.008.006-1.512-.008a.482.482,0,0,0-.486.22c-.137-.09-.129-.243-.162-.377a.9.9,0,0,0-.752-.73.956.956,0,0,0-.919.418c-.124.149-.149.364-.323.477a8.039,8.039,0,0,0-2.1.105" transform="translate(-41.049 -14.514)" fill="#a9bfc0"/>
        <path id="Trazado_136226" data-name="Trazado 136226" d="M18.15,47.828c0-.639.015-1.278,0-1.917-.062-2.124.136-2.317,2.27-2.241a9.453,9.453,0,0,1,1.486.063,2.706,2.706,0,0,1,2.292,2.878A2.618,2.618,0,0,1,21.8,49.274c-.105.015-.213.012-.318.024-.434.049-1.029-.2-1.26.107-.215.286-.059.85-.066,1.292,0,.071,0,.142,0,.213a1,1,0,1,1-2,.006c-.018-1.029,0-2.059-.005-3.088" transform="translate(-10.083 -24.271)"/>
        <path id="Trazado_136227" data-name="Trazado 136227" d="M94.282,47.527c0-.941-.006-1.882,0-2.822.007-.9.376-1.267,1.257-1.271.817,0,1.633-.006,2.449,0,.67.006,1.054.353,1.051.931s-.381.93-1.047.944c-.444.009-.888.018-1.331,0-.3-.015-.393.075-.4.385-.007.927-.022.926.909.927.266,0,.533-.009.8.006a.951.951,0,0,1,.932.906.917.917,0,0,1-.917.913c-.425.02-.852.024-1.277,0-.308-.016-.435.052-.436.4,0,.976-.02.976.965.976.337,0,.675-.016,1.011.006a.928.928,0,0,1,.883.948.863.863,0,0,1-.885.869q-1.491.027-2.981,0a.961.961,0,0,1-.982-1.084c-.018-1.011,0-2.023,0-3.035" transform="translate(-52.412 -24.145)"/>
        <path id="Trazado_136228" data-name="Trazado 136228" d="M80.3,43.171a3.306,3.306,0,0,1,1.976.5.992.992,0,0,1,.412,1.333.852.852,0,0,1-1.237.346c-2-.882-3.226.461-3.1,2.324a1.974,1.974,0,0,0,2.783,1.869c.167-.06.329-.132.491-.2a.8.8,0,0,1,1.074.3.9.9,0,0,1-.07,1.174,2.326,2.326,0,0,1-1.18.679,4.043,4.043,0,0,1-5.177-4.433A3.946,3.946,0,0,1,80.3,43.171" transform="translate(-42.388 -24)"/>
        <path id="Trazado_136229" data-name="Trazado 136229" d="M54.254,47.322c0-.922,0-1.844,0-2.766,0-.823.37-1.307.987-1.311s1.011.483,1.012,1.29c0,1.56.014,3.121-.008,4.681-.005.387.079.54.493.5a11.3,11.3,0,0,1,1.382,0,.914.914,0,1,1,0,1.827c-.922.013-1.844.011-2.766,0a1,1,0,0,1-1.1-1.087c-.018-1.046,0-2.092-.005-3.139" transform="translate(-30.159 -24.041)"/>
        <path id="Trazado_136230" data-name="Trazado 136230" d="M68.466,47.48c0-1.027-.005-2.054,0-3.081a1.067,1.067,0,0,1,.99-1.154,1.027,1.027,0,0,1,1,1.14q.018,3.081,0,6.163a.978.978,0,0,1-1.018,1.1c-.6-.01-.968-.429-.973-1.139-.006-1.01,0-2.019,0-3.029" transform="translate(-38.062 -24.041)"/>
        <path id="Trazado_136231" data-name="Trazado 136231" d="M89.835,31.078c.222-.867.843-1.258,1.53-.953a1.07,1.07,0,0,1,.627,1.165c-.256.655-.594.9-1.168.855-.537-.044-.836-.367-.989-1.068" transform="translate(-49.942 -16.691)" fill="#010101"/>
        <path id="Trazado_136232" data-name="Trazado 136232" d="M50.834,90.675q0-3.247,0-6.493c0-.68.036-.712.725-.712,2.572,0,5.145.011,7.717-.01.5,0,.687.141.685.663q-.025,6.6,0,13.2c0,.343-.082.444-.435.442q-4.124-.023-8.249,0c-.4,0-.451-.147-.449-.492.014-2.2.007-4.4.007-6.6" transform="translate(-28.256 -46.398)" fill="#9ac5fe"/>
        <path id="Trazado_136233" data-name="Trazado 136233" d="M60.228,8.207a15.052,15.052,0,0,1-3.37,7.753,10.469,10.469,0,0,1-2.137,2.063c-.672.47-.738.468-1.4.006a10.905,10.905,0,0,1-2.371-2.352,15.007,15.007,0,0,1-3.078-6.97c-.123-.814-.131-.814.6-1.137,1.7-.75,3.4-1.489,5.1-2.253a.97.97,0,0,1,.889-.008q2.66,1.2,5.344,2.353c.332.142.508.3.425.546" transform="translate(-26.579 -2.893)" fill="#fec05a"/>
        <path id="Trazado_136234" data-name="Trazado 136234" d="M26.87,16.624c-1.58,0-3.159-.01-4.739.008-.349,0-.452-.09-.443-.442.024-.976.02-1.952,0-2.928-.006-.306.09-.382.388-.381q4.366.016,8.732,0c.286,0,.409.078.443.366a12.492,12.492,0,0,0,.739,2.984c.145.383-.021.4-.329.4-1.6-.01-3.195,0-4.792,0" transform="translate(-12.057 -7.161)" fill="#d0dcdd"/>
        <path id="Trazado_136235" data-name="Trazado 136235" d="M83.544,16.622c-1.526,0-3.052-.011-4.577.008-.391,0-.445-.086-.313-.447a12.124,12.124,0,0,0,.709-2.881c.036-.329.167-.427.5-.425q4.1.022,8.2,0c.337,0,.456.072.446.432-.027.957-.024,1.916,0,2.874.008.343-.081.452-.438.447-1.508-.02-3.016-.008-4.524-.008" transform="translate(-43.691 -7.159)" fill="#d0dcdd"/>
        <path id="Trazado_136236" data-name="Trazado 136236" d="M24.7,27.768a.916.916,0,0,1-.542.063q-9.081,0-18.161,0c-.142,0-.285.006-.426-.006a.862.862,0,0,1-.026-1.721A4.123,4.123,0,0,1,5.97,26.1q8.6,0,17.2-.01a.746.746,0,0,1,.782.462c.21.422.49.809.745,1.219" transform="translate(-2.637 -14.503)" fill="#a9bfc0"/>
        <path id="Trazado_136237" data-name="Trazado 136237" d="M89.7,80.18c-.762,0-1.524-.011-2.285.005-.294.007-.44-.028-.433-.389.025-1.2.019-2.409,0-3.613,0-.3.08-.388.382-.385q2.365.021,4.729,0c.292,0,.349.1.346.365q-.019,1.833,0,3.666c0,.275-.068.365-.352.358-.8-.019-1.594-.007-2.391-.007" transform="translate(-48.354 -42.139)" fill="#cde2fe"/>
        <path id="Trazado_136238" data-name="Trazado 136238" d="M89.721,94.832c-.8,0-1.6-.008-2.395,0-.246,0-.341-.059-.338-.324q.019-1.863,0-3.726c0-.253.072-.335.329-.334q2.395.015,4.79,0c.249,0,.338.064.336.325-.012,1.242-.016,2.484,0,3.725,0,.313-.137.335-.383.332-.78-.011-1.561,0-2.342,0" transform="translate(-48.36 -50.287)" fill="#9ac5fe"/>
        <path id="Trazado_136239" data-name="Trazado 136239" d="M24.619,75.813c.781,0,1.562.01,2.343-.006.274-.005.366.07.363.356q-.023,1.837,0,3.674c0,.29-.1.355-.367.353q-2.37-.015-4.739,0c-.28,0-.359-.079-.356-.357q.021-1.836,0-3.674c0-.285.086-.358.36-.353.8.017,1.6.006,2.4.006" transform="translate(-12.154 -42.143)" fill="#cde2fe"/>
        <path id="Trazado_136240" data-name="Trazado 136240" d="M24.6,94.831c-.8,0-1.6-.008-2.394,0-.246,0-.341-.06-.338-.324q.019-1.862,0-3.724c0-.249.064-.337.327-.335q2.395.017,4.789,0c.3,0,.343.124.341.379-.01,1.206-.013,2.412,0,3.618,0,.3-.084.4-.387.389-.78-.019-1.561-.006-2.341-.006" transform="translate(-12.156 -50.285)" fill="#9ac5fe"/>
        <path id="Trazado_136241" data-name="Trazado 136241" d="M42.233,49.715a2.876,2.876,0,0,1-.371,1.526,1.738,1.738,0,0,1-3.075-.05,3.227,3.227,0,0,1-.162-2.624,1.79,1.79,0,0,1,1.9-1.292,1.934,1.934,0,0,1,1.652,1.751c.035.226.035.458.052.688" transform="translate(-21.361 -26.278)" fill="#eef2f2"/>
        <path id="Trazado_136242" data-name="Trazado 136242" d="M22.685,48.711c0-1.055.126-1.159,1.162-.963a.988.988,0,0,1,.816.976.952.952,0,0,1-.86,1c-1.067.158-1.118.112-1.118-1.008" transform="translate(-12.611 -26.5)" fill="#edf1f1"/>
      </g>
    </g>
    <g id="Grupo_159119" data-name="Grupo 159119" transform="translate(-7113 -4040)">
      <g id="Grupo_159078" data-name="Grupo 159078" clip-path="url(#clip-path-3)">
        <path id="Trazado_136370" data-name="Trazado 136370" d="M56.919,28.726a5.591,5.591,0,0,0,0,1.648c.041.918.1,1.834.148,2.751a71.974,71.974,0,0,1,.1,14.475,15.933,15.933,0,0,1-1.939,6.291,12.669,12.669,0,0,1-1.452,2.35,5.466,5.466,0,0,0-.767,2.141q-.814,3.375-1.58,6.761c-.1.432-.268.44-.6.277a2.527,2.527,0,0,1-1.193-1.4,6.512,6.512,0,0,1-.508-2.806c.023-.519-.107-.746-.644-.643a.793.793,0,0,1-.208-.014c-.842.044-.862.045-.834.913a6.929,6.929,0,0,0,1.881,4.993,3.739,3.739,0,0,0,1.334.686c.241.055.258.173.21.371-.23.946-.463,1.891-.676,2.841-.048.216-.139.285-.349.277-.417-.016-.835-.014-1.253-.02q-5.525.009-11.051.016c-.995,0-1.989-.01-2.984-.016-1.536.08-1.535.08-1.87-1.372-.129-.559-.25-1.12-.4-1.675-.065-.249-.039-.378.247-.441a3.523,3.523,0,0,0,1.284-.667,7.366,7.366,0,0,0,1.888-5.62c0-.2-.062-.282-.268-.271-.19.01-.382-.009-.573-.014-.828.043-.816.044-.842.865a6.854,6.854,0,0,1-.626,2.833,2.368,2.368,0,0,1-1.176,1.209c-.3.13-.422.054-.5-.266-.584-2.525-1.191-5.045-1.77-7.57a3.9,3.9,0,0,0-.591-1.375,19.3,19.3,0,0,1-1.488-2.393,16.2,16.2,0,0,1-1.9-6.259,58.178,58.178,0,0,1-.325-7.373c.056-2.339.237-4.671.424-7q.106-1.972.21-3.943a.85.85,0,0,0-.054-.557h0l-.792-.024c-.812,0-.8,0-.844.821-.043.854-.115,1.707-.158,2.561-.176,3.538-.578,7.066-.454,10.616a48.44,48.44,0,0,0,.556,6.672,18.707,18.707,0,0,0,3.35,7.693,2.729,2.729,0,0,1,.452.985q1.536,6.589,3.079,13.177a1.594,1.594,0,0,0,.616,1.084H51.113a1.662,1.662,0,0,0,.591-.983c.911-3.936,1.864-7.863,2.75-11.8a9.585,9.585,0,0,1,1.481-3.516A16.58,16.58,0,0,0,58.363,50.5a27.868,27.868,0,0,0,.662-4.97,52.829,52.829,0,0,0,.108-6.7c-.176-3.1-.391-6.2-.579-9.3-.05-.819-.033-.82-.844-.822l-.792.023" transform="translate(-15.58 -18.658)"/>
        <path id="Trazado_136371" data-name="Trazado 136371" d="M51.984,7.655a2.335,2.335,0,0,1,0-.523c.044-.335-.07-.488-.42-.424s-.435-.068-.431-.416c.019-1.746.01-3.493.008-5.239C51.141.3,50.848,0,50.1,0q-2.3,0-4.61,0c-.757,0-1.052.29-1.053,1.036,0,1.467,0,2.934,0,4.4,0,1.3,0,1.28-1.3,1.279-.353,0-.391-.129-.383-.422.019-.7.014-1.4,0-2.1A2.5,2.5,0,0,0,40.23,1.68c-.8-.01-1.606-.006-2.409,0A2.5,2.5,0,0,0,35.242,3.87c-.04.247-.072.336-.359.335a2.048,2.048,0,0,0-2.169,2.111c-.005.323-.081.4-.4.4Q26,6.7,19.687,6.715c-.321,0-.4-.075-.4-.4a2.046,2.046,0,0,0-2.116-2.11c-.334,0-.374-.1-.422-.387a2.488,2.488,0,0,0-2.516-2.14c-.838-.008-1.677-.014-2.514,0A2.506,2.506,0,0,0,9.238,4.149c-.01.436,0,.873,0,1.31,0,1.266,0,1.25-1.267,1.259-.362,0-.419-.119-.417-.441.015-1.729.008-3.458.007-5.187C7.558.276,7.278,0,6.452,0Q4.225,0,2,0C1.111,0,.854.261.854,1.157c0,1.712,0,3.423-.007,5.134,0,.15.136.465-.205.407-.681-.118-.664.289-.629.747a2.984,2.984,0,0,1,0,.576c-.037.3.086.417.375.362.4-.077.482.1.477.478C.841,10.59.852,12.319.855,14.048c0,.747.3,1.041,1.048,1.042q2.278,0,4.557,0c.818,0,1.1-.28,1.1-1.1,0-1.746.007-3.493-.007-5.239,0-.3.076-.386.374-.374.68.026,1.361.017,2.042.022,1.9-.005,3.8-.018,5.7-.009a1.271,1.271,0,0,0,.992-.358,3.569,3.569,0,0,0,.122-1.39c.015-.322-.08-.745.406-.752.529-.008.428.441.431.775.006.54-.029,1.082.012,1.619a.856.856,0,0,1-.438.854c-.629.436-1.211.94-1.848,1.363a2.048,2.048,0,0,0-1.168,1.762,7.92,7.92,0,0,1-.132,1.572c-.1,1.135-.192,2.27-.291,3.405-.066.763-.082,1.536-.219,2.286A10.34,10.34,0,0,0,14,23.635c.315,1.461.69,2.911.961,4.38a3.821,3.821,0,0,0,.789,1.6,13.191,13.191,0,0,1,2.274,5.143,9.842,9.842,0,0,1,.342,2.417,10.336,10.336,0,0,1,.089,2.171c.015.863,0,.863.842.907.838-.044.845-.044.836-.909a18.743,18.743,0,0,1,.772-3.757c.088-.455.243-.9.367-1.347l.215-1.023c.373.241.694.453,1.019.657.14.087.139.215.147.356.019.325.056.65.085.974a3.375,3.375,0,0,0,6.528,0c.029-.324.071-.648.084-.973a.4.4,0,0,1,.194-.382c.308-.187.6-.394.924-.606a2.935,2.935,0,0,1,.266,1c.429,1.882,1.216,3.694,1.133,5.678-.01.25.07.345.322.322a4.307,4.307,0,0,1,.52.013c.838-.044.837-.044.838-.913a14.465,14.465,0,0,1,.2-3.11,13.659,13.659,0,0,1,2.51-6.618c.856-.875.844-2.062,1.109-3.143.361-1.471.624-2.967,1.012-4.43a7.947,7.947,0,0,0,.047-2.851c-.152-1.613-.318-3.224-.472-4.836a4.422,4.422,0,0,1,.011-.522,7.92,7.92,0,0,1-.132-1.572A2.055,2.055,0,0,0,36.66,10.5c-.678-.454-1.306-.982-1.968-1.46a.636.636,0,0,1-.319-.6c.023-.678.012-1.357.006-2.036,0-.3.1-.532.429-.526s.4.247.416.543c.034.578-.161,1.188.213,1.725a1.5,1.5,0,0,0,.888.239c1.9-.006,3.8.005,5.7.01.663-.005,1.327.009,1.989-.024.344-.017.431.087.428.428-.018,1.746-.01,3.493-.007,5.239,0,.749.3,1.045,1.044,1.046q2.252,0,4.505,0c.893,0,1.154-.26,1.154-1.147,0-1.729,0-3.458,0-5.187,0-.143-.1-.42.2-.364.669.125.683-.264.638-.738M5.464,13.417c-.239,0-.439.02-.427-.335.028-.764.018-1.529.023-2.293q-.008-2.431-.016-4.861c0-.87,0-.87-.838-.914-.838.044-.836.044-.838.914q-.006,2.431-.017,4.862c.006.765,0,1.53.023,2.294.014.358-.19.332-.427.334s-.435.019-.425-.336c.028-.9.021-1.807.029-2.711q0-3.759-.005-7.518V2.316c-.064-.393-.087-.728.5-.65.238.031.35.073.323.327a4.372,4.372,0,0,0,0,.469c0,.865,0,.865.838.909.838-.044.838-.044.838-.912a3.758,3.758,0,0,0,0-.47c-.041-.322.155-.337.381-.31.193.023.466-.122.465.282-.017,2.8-.02,5.607-.028,8.41.008.9,0,1.807.029,2.71.011.354-.185.337-.424.337m9.318-6.7c-.593-.016-1.186-.005-1.78,0-.576,0-1.152-.009-1.728,0-.247.006-.38-.027-.371-.33.023-.715,0-1.432.011-2.147a.821.821,0,0,1,.891-.877q1.2-.019,2.408,0a.826.826,0,0,1,.884.887c.014.715-.006,1.43.009,2.145.006.253-.076.329-.325.322m5.172,25.751c-.128.466-.238.938-.354,1.408-.28-.827-.577-1.6-.912-2.523.475.314.814.542,1.158.762.143.092.151.2.108.353m7.716,1.959a1.673,1.673,0,0,1-3.346,0c-.009-.225.01-.451.016-.677,0-.382-.153-.869.027-1.117.2-.279.675.029,1.032.05a4.8,4.8,0,0,0,1.708-.1c.6-.184.626.1.549.541.006.434.028.869.013,1.3m.762-4.123a4.409,4.409,0,0,1-4.642.111,4.851,4.851,0,0,1-2.8-4.322c-.078-1.3,0-2.611-.028-3.917-.006-.348.133-.386.423-.4a20.032,20.032,0,0,0,3.471-.374,7.821,7.821,0,0,0,3.164-1.406c.245-.189.419-.275.483.131l.216.219h0a5.328,5.328,0,0,0,2.071,1.309c.471.152.163.58.224.878a25.773,25.773,0,0,1-.093,4.281A4.773,4.773,0,0,1,28.433,30.3m-9.848-9.277c-.1.041-.119-.136-.124-.239A7.368,7.368,0,0,1,19.5,16.344h0A7,7,0,0,1,23.246,13.1a7.471,7.471,0,0,1,8.562,2.206,10.467,10.467,0,0,1,.689,1.035,7.41,7.41,0,0,1,1.039,4.441c0,.1-.011.272-.126.239-.234-.066-.582.064-.689-.229a1.046,1.046,0,0,0-1.093-.7,2.572,2.572,0,0,1-1.922-1.3c-1.018-1.471-1-1.487-2.432-.332a7.006,7.006,0,0,1-3.683,1.442,24.444,24.444,0,0,1-3.378.211.82.82,0,0,0-.885.587c-.131.408-.495.221-.742.32m.71,1.851c0,.069,0,.139,0,.209v1.876a1.549,1.549,0,0,1-.822-1.857.744.744,0,0,1,.647-.457c.193-.036.177.107.177.23m13.4.086c-.013-.364.131-.369.4-.257a.636.636,0,0,1,.455.622,1.459,1.459,0,0,1-.848,1.631c0-.711.016-1.355-.007-2m-.263,11.061c-.153-.618-.262-1.089-.39-1.555-.043-.155-.037-.259.107-.352.345-.22.683-.451,1.156-.765a25.084,25.084,0,0,0-.873,2.672m3.309-22.105a.868.868,0,0,1,.4.683c.236,2.695.5,5.387.717,8.084a7.763,7.763,0,0,1-.4,2.148c-.33,1.586-.7,3.164-1.044,4.747a.97.97,0,0,1-.449.654c-1.859,1.222-3.7,2.464-5.59,3.723-.02-.253.119-.286.213-.351a6.932,6.932,0,0,0,2.976-4.5.481.481,0,0,1,.4-.439,2.98,2.98,0,0,0,2.257-3.074,45,45,0,0,0-.087-4.71,9.216,9.216,0,0,0-18.194-.434,19.3,19.3,0,0,0-.147,3.814,8.99,8.99,0,0,0,.073,2.14,2.878,2.878,0,0,0,2.065,2.22.687.687,0,0,1,.548.615,6.793,6.793,0,0,0,2.883,4.326c.13.091.129.092.307.412l-3.348-2.225c-.754-.5-1.5-1.016-2.266-1.5a.957.957,0,0,1-.462-.647q-.706-3.243-1.428-6.482a5.135,5.135,0,0,1,.077-1.559c.188-2.314.415-4.624.616-6.937a.861.861,0,0,1,.387-.689c.792-.572,1.549-1.192,2.352-1.747a1.34,1.34,0,0,0,.7-1.395c-.048-.306.043-.413.384-.412H32.3c.374,0,.446.136.4.446a1.28,1.28,0,0,0,.646,1.318c.816.567,1.589,1.2,2.394,1.778m5.018-5.2c-.593-.015-1.187,0-1.78,0-.576,0-1.152-.01-1.728,0-.254.007-.375-.038-.366-.335.021-.714,0-1.43.011-2.144a.824.824,0,0,1,.9-.875q1.2-.019,2.408,0a.824.824,0,0,1,.88.89c.013.715-.007,1.431.009,2.147.006.259-.086.324-.329.318m8.272,6.7c-.259.014-.453-.012-.408-.352a3.644,3.644,0,0,0,0-.471c0-.83,0-.83-.837-.875-.839.044-.839.044-.839.926a2.611,2.611,0,0,0,0,.366c.047.327-.089.423-.409.41-.278-.011-.454-.017-.44-.384.033-.889.023-1.779.03-2.669-.007-2.789-.007-5.577-.03-8.366,0-.42.254-.3.476-.33.3-.037.377.085.376.377-.011,2.371-.006,4.742-.006,7.112,0,.87,0,.87.838.914.838-.044.837-.044.839-.911q.006-3.157.016-6.315V2.316c-.066-.4-.082-.727.5-.651.245.032.322.086.321.334q-.022,4.186-.026,8.371h0c.007.908,0,1.816.028,2.723.011.372-.214.312-.439.324" transform="translate(0 0)"/>
        <path id="Trazado_136372" data-name="Trazado 136372" d="M29.058,25.42a1.788,1.788,0,0,1,.148.718.208.208,0,0,0,.033.036A1.659,1.659,0,0,1,31.086,24.6c.8,0,1.6.01,2.4,0a1.52,1.52,0,0,0,1.423-.94,1.244,1.244,0,0,1-.83.267q-2.619.011-5.237,0a.805.805,0,0,1-.545-.146,8.264,8.264,0,0,1-.1,1.644.756.756,0,0,1,.863,0" transform="translate(-18.328 -15.379)" fill="#e58d79"/>
        <path id="Trazado_136373" data-name="Trazado 136373" d="M28.987,28.472h0c.3.151.042.5.219.689a1.788,1.788,0,0,0-.148-.717.756.756,0,0,0-.863,0l.792.024h0" transform="translate(-18.328 -18.403)" fill="#e58d79"/>
        <path id="Trazado_136374" data-name="Trazado 136374" d="M34.266,23.466a1.244,1.244,0,0,0,.83-.267,1.505,1.505,0,0,0,.075-.247,1.271,1.271,0,0,1-.992.358c-1.9-.008-3.8,0-5.7.009a.8.8,0,0,0,.545.146q2.619.009,5.237,0" transform="translate(-18.516 -14.921)" fill="#e58d79"/>
        <path id="Trazado_136375" data-name="Trazado 136375" d="M107.25,24.044q-2.452.005-4.905,0a1.56,1.56,0,0,1-.938-.207,1.457,1.457,0,0,0,1.346.877c.818.014,1.637,0,2.455,0a1.645,1.645,0,0,1,1.8,1.677.291.291,0,0,0,.07-.087c0-.037,0-.073-.005-.11a1,1,0,0,1,.111-.655.744.744,0,0,1,.868,0,8.26,8.26,0,0,1-.1-1.644,1.027,1.027,0,0,1-.7.148" transform="translate(-65.92 -15.496)" fill="#e58d79"/>
        <path id="Trazado_136376" data-name="Trazado 136376" d="M117.692,28.45a1,1,0,0,0-.111.655c0,.036,0,.073.005.109.122-.23-.113-.568.182-.745l.792-.023h0a.742.742,0,0,0-.868,0" transform="translate(-76.43 -18.402)" fill="#e58d79"/>
        <path id="Trazado_136377" data-name="Trazado 136377" d="M101.265,23.292a.931.931,0,0,0,.05.191,1.559,1.559,0,0,0,.938.207q2.452,0,4.9,0a1.028,1.028,0,0,0,.7-.148c-1.9-.005-3.8-.016-5.7-.011a1.5,1.5,0,0,1-.888-.238" transform="translate(-65.827 -15.141)" fill="#e58d79"/>
        <path id="Trazado_136378" data-name="Trazado 136378" d="M53.257,105.842a3.467,3.467,0,0,1,.522.013c.237.023.409.14.414.387.044,2.127-.28,4.135-1.9,5.71-.028.021-.056.041-.084.061q.343,1.939.685,3.877c.055,0,.111,0,.166,0q6.873-.022,13.742,0c.059,0,.118,0,.177.006l.685-3.875c-.026-.02-.054-.038-.08-.058a5.336,5.336,0,0,1-1.552-2.611,8.458,8.458,0,0,1-.378-2.572c.017-.89.048-.93.954-.931h.034V104.46c-.153,0-.306,0-.459-.006-.337-.016-.527-.191-.515-.524.057-1.705-.612-3.268-.949-4.9-.033-.159-.068-.317-.11-.475a.291.291,0,0,1-.147.134c-.385.168-.738.4-1.137.54,0,.025-.01.05-.013.076a3.475,3.475,0,0,1-4.2,2.512,3.418,3.418,0,0,1-2.548-2.508c-.006-.026-.011-.054-.016-.08-.4-.138-.751-.372-1.134-.539a.294.294,0,0,1-.147-.132c-.266,1.1-.545,2.2-.821,3.3a6.15,6.15,0,0,0-.229,1.594c.012.953-.043,1.011-.985,1.007v1.382h.023" transform="translate(-33.94 -64.069)" fill="#2b8efb"/>
        <path id="Trazado_136379" data-name="Trazado 136379" d="M52.25,125.473c1.618-1.576,1.942-3.583,1.9-5.711-.005-.247-.177-.364-.414-.387a3.516,3.516,0,0,0-.522-.013h-.023v.126c.191.006.383.025.573.014.206-.011.267.072.268.272a7.366,7.366,0,0,1-1.888,5.62l.025.14c.028-.021.056-.04.084-.061" transform="translate(-33.894 -77.589)" fill="#2b8efb"/>
        <path id="Trazado_136380" data-name="Trazado 136380" d="M91.581,119.37c-.906,0-.936.041-.954.931a8.455,8.455,0,0,0,.378,2.572,5.331,5.331,0,0,0,1.552,2.611c.026.02.053.039.08.059l.025-.14a6.929,6.929,0,0,1-1.881-4.993c-.028-.868-.008-.868.834-.913v-.127h-.034" transform="translate(-58.912 -77.597)" fill="#2b8efb"/>
        <path id="Trazado_136381" data-name="Trazado 136381" d="M68.077,148.047q-6.869-.021-13.742,0c-.055,0-.111,0-.166,0l.024.138c.995.006,1.99.017,2.984.016q5.526,0,11.051-.016l.025-.139c-.059,0-.118,0-.177-.006" transform="translate(-35.213 -96.232)" fill="#2b8efb"/>
        <path id="Trazado_136382" data-name="Trazado 136382" d="M64.623,100.563a3.418,3.418,0,0,0,2.548,2.508,3.475,3.475,0,0,0,4.2-2.512c0-.026.009-.051.013-.076-.042.014-.082.033-.124.045a3.375,3.375,0,0,1-6.527,0c-.043-.012-.083-.031-.125-.045.005.027.011.054.016.08" transform="translate(-41.998 -65.319)" fill="#2b8efb"/>
        <path id="Trazado_136383" data-name="Trazado 136383" d="M87.752,98.577c.336,1.627,1.006,3.19.949,4.9-.011.333.179.508.516.524.154.007.307.007.459.006v-.132a4.236,4.236,0,0,0-.52-.014c-.252.023-.332-.072-.322-.322.084-1.984-.7-3.8-1.133-5.678a.611.611,0,0,1-.059.247c.041.157.077.315.11.474" transform="translate(-56.972 -63.611)" fill="#2b8efb"/>
        <path id="Trazado_136384" data-name="Trazado 136384" d="M56.118,103a6.15,6.15,0,0,1,.229-1.594c.277-1.1.555-2.2.821-3.3a.592.592,0,0,1-.06-.248c-.124.449-.279.892-.367,1.347a18.734,18.734,0,0,0-.771,3.757c.009.865,0,.865-.836.909V104c.942,0,1-.054.985-1.007" transform="translate(-35.839 -63.613)" fill="#2b8efb"/>
        <path id="Trazado_136385" data-name="Trazado 136385" d="M32.375,62.223a.819.819,0,0,0,.012-.205c-.08-.426.083-.6.514-.518.247-.006.488-.014.583-.313a29.006,29.006,0,0,0,1-3.677,3.338,3.338,0,0,1-1.426.547A1.617,1.617,0,0,1,31.47,56.74a15.016,15.016,0,0,1-.23-1.908c-.147-1.728-.28-3.457-.418-5.186,0-.052,0-.1,0-.157,0-2.249-.185-4.5-.1-6.745.016-.423,0-.785-.529-.848-.222.034-.392-.112-.585-.178-.145,1.938-.262,3.88-.37,5.82a38.351,38.351,0,0,0,.021,4.7c.077,1.129.144,2.259.233,3.388a17.54,17.54,0,0,0,1.851,6.551c.025.049.054.1.08.146a2.321,2.321,0,0,0,.957-.1" transform="translate(-18.963 -27.119)" fill="#f9a491"/>
        <path id="Trazado_136386" data-name="Trazado 136386" d="M31.072,62.125a17.533,17.533,0,0,1-1.85-6.551c-.089-1.129-.157-2.259-.233-3.388a38.352,38.352,0,0,1-.021-4.7c.108-1.941.225-3.882.37-5.82a.547.547,0,0,0-.137-.031c-.187,2.331-.367,4.664-.424,7a58.243,58.243,0,0,0,.324,7.373A16.2,16.2,0,0,0,31,62.266l.15,0c-.026-.049-.055-.1-.08-.146" transform="translate(-18.697 -27.062)" fill="#f9a491"/>
        <path id="Trazado_136387" data-name="Trazado 136387" d="M107.586,41.666h0a5.731,5.731,0,0,1,.421,2.129c-.008,1.081.049,2.164-.013,3.241-.122,2.127-.145,4.258-.389,6.38-.12,1.047-.163,2.1-.334,3.146a1.654,1.654,0,0,1-2.719,1.084.521.521,0,0,0-.318-.157c.3,1.113.582,2.228.892,3.337.091.326.267.61.691.547.713-.15.463.4.526.723a2.608,2.608,0,0,0,.922.12c.021-.041.044-.079.064-.12a16.176,16.176,0,0,0,1.868-6.22,63.24,63.24,0,0,0,.326-7.461c-.036-1.6-.184-3.2-.279-4.8-.041-.7-.1-1.4-.135-2.094a4.1,4.1,0,0,1-1.523.142" transform="translate(-67.757 -26.993)" fill="#f9a491"/>
        <path id="Trazado_136388" data-name="Trazado 136388" d="M114.875,43.5c.094,1.6.243,3.194.279,4.8a63.165,63.165,0,0,1-.327,7.461,16.164,16.164,0,0,1-1.868,6.22c-.02.041-.043.08-.064.12.049,0,.1,0,.147.009a15.933,15.933,0,0,0,1.939-6.291,71.949,71.949,0,0,0-.1-14.475,1.337,1.337,0,0,1-.138.065c.035.7.094,1.4.135,2.094" transform="translate(-73.387 -26.872)" fill="#f9a491"/>
        <path id="Trazado_136389" data-name="Trazado 136389" d="M93.6,107.113c.076,0,.152,0,.229,0,.605.026.694.1.7.714A7.356,7.356,0,0,0,95,110.539a2.5,2.5,0,0,0,1.066,1.377c.281.156.428.125.509-.222.4-1.73.815-3.459,1.216-5.189.169-.73.374-1.451.509-2.189a3.7,3.7,0,0,1,.633-1.475,19.86,19.86,0,0,0,1.374-2.2,1.009,1.009,0,0,1-.867-.112c-.007-.006-.01-.013-.016-.018a1.849,1.849,0,0,0-.006.343c.043.359-.042.544-.463.594a1.243,1.243,0,0,0-.976.915,4.437,4.437,0,0,0-.19.754c-.138.759-.133.76-.891.8.053.272.1.546.16.815a3.088,3.088,0,0,1-1.239,2.922c-.259.155-.246-.059-.295-.193a13.086,13.086,0,0,1-.6-2.582c-.136-.915-.21-1.839-.295-2.762a26.168,26.168,0,0,0-.088,2.707c0,.835-.09.914-.937.9H93.6a1.859,1.859,0,0,1,0,1.382" transform="translate(-60.843 -65.339)" fill="#d37b69"/>
        <path id="Trazado_136390" data-name="Trazado 136390" d="M98.839,102.947a3.708,3.708,0,0,0-.633,1.475c-.135.737-.34,1.459-.509,2.188-.4,1.731-.812,3.46-1.216,5.19-.081.347-.227.378-.509.222a2.5,2.5,0,0,1-1.066-1.377,7.365,7.365,0,0,1-.478-2.711c0-.61-.091-.688-.7-.714-.076,0-.153,0-.229,0-.016.042-.031.084-.051.126a.811.811,0,0,0,.208.014c.536-.1.666.124.644.643a6.507,6.507,0,0,0,.508,2.806,2.525,2.525,0,0,0,1.193,1.4c.331.163.5.155.6-.277q.761-3.387,1.58-6.761a5.472,5.472,0,0,1,.767-2.141,12.668,12.668,0,0,0,1.452-2.35,1.207,1.207,0,0,1-.191.073,19.891,19.891,0,0,1-1.374,2.2" transform="translate(-60.749 -65.446)" fill="#d37b69"/>
        <path id="Trazado_136391" data-name="Trazado 136391" d="M93.514,107.7c.847.009.934-.069.937-.9a26.062,26.062,0,0,1,.088-2.707c-.017-.182-.033-.364-.051-.546h0a14.443,14.443,0,0,0-.2,3.11c0,.869,0,.869-.838.914.02.044.036.089.054.133h.008" transform="translate(-60.749 -67.308)" fill="#d37b69"/>
        <path id="Trazado_136392" data-name="Trazado 136392" d="M93.5,116.8a1.859,1.859,0,0,0,0-1.382h-.054V116.8H93.5" transform="translate(-60.749 -75.028)" fill="#d37b69"/>
        <path id="Trazado_136393" data-name="Trazado 136393" d="M93.453,119.37v.127c.019-.042.034-.084.051-.126h-.051" transform="translate(-60.749 -77.597)" fill="#d37b69"/>
        <path id="Trazado_136394" data-name="Trazado 136394" d="M93.507,115.174c-.017-.044-.033-.089-.054-.133v.133h.054" transform="translate(-60.749 -74.783)" fill="#d37b69"/>
        <path id="Trazado_136395" data-name="Trazado 136395" d="M110.247,100.381a.2.2,0,0,0,.016.018,1.008,1.008,0,0,0,.867.112c.014-.027.03-.054.044-.082a2.609,2.609,0,0,1-.922-.12c0,.024,0,.048,0,.072" transform="translate(-71.666 -65.206)" fill="#d37b69"/>
        <path id="Trazado_136396" data-name="Trazado 136396" d="M112.77,100.732a1.193,1.193,0,0,0,.19-.073c-.049-.006-.1-.007-.147-.009l-.044.082" transform="translate(-73.306 -65.428)" fill="#d37b69"/>
        <path id="Trazado_136397" data-name="Trazado 136397" d="M39.879,107.689a3.592,3.592,0,0,1-1.07-1.64c-.139-.44.141-.905.2-1.366.032-.256.111-.506.169-.758-.759-.04-.757-.04-.889-.8-.15-.866-.417-1.637-1.473-1.732-.192-.018-.147-.159-.152-.27-.009-.2-.01-.4-.014-.6a1,1,0,0,1-.906.126,26.38,26.38,0,0,0,1.454,2.28,3.719,3.719,0,0,1,.548,1.287c.571,2.5,1.179,4.989,1.756,7.486.079.34.2.394.5.23a2.123,2.123,0,0,0,.768-.766,6.373,6.373,0,0,0,.783-2.9c.014-.156,0-.314.005-.471.022-.569.1-.648.687-.673.08,0,.16,0,.24,0a1.861,1.861,0,0,1,0-1.383h0c-.855.011-.921-.061-.932-.895,0-.268,0-.537.006-.8a19.907,19.907,0,0,1-.6,3.307c-.21.806-.433.892-1.065.346" transform="translate(-23.233 -65.344)" fill="#d37b69"/>
        <path id="Trazado_136398" data-name="Trazado 136398" d="M41.86,107.169c-.583.024-.665.1-.687.673-.006.157.009.315-.006.471a6.373,6.373,0,0,1-.782,2.9,2.123,2.123,0,0,1-.768.766c-.293.164-.417.11-.5-.23-.577-2.5-1.186-4.987-1.756-7.486a3.72,3.72,0,0,0-.548-1.287,26.558,26.558,0,0,1-1.454-2.28,1.059,1.059,0,0,1-.2-.1,19.257,19.257,0,0,0,1.488,2.392,3.9,3.9,0,0,1,.591,1.375c.578,2.526,1.185,5.046,1.769,7.57.074.32.2.4.5.266a2.367,2.367,0,0,0,1.176-1.209,6.849,6.849,0,0,0,.626-2.833c.026-.821.014-.821.842-.865-.02-.042-.034-.084-.051-.126-.08,0-.16,0-.24,0" transform="translate(-22.857 -65.393)" fill="#d37b69"/>
        <path id="Trazado_136399" data-name="Trazado 136399" d="M52.313,107.756c0,.268-.009.536-.006.8.011.834.077.906.932.895h0c.017-.044.033-.089.054-.133-.839-.044-.826-.045-.842-.907a10.336,10.336,0,0,0-.089-2.171,13.41,13.41,0,0,1-.051,1.512" transform="translate(-34.001 -69.064)" fill="#d37b69"/>
        <path id="Trazado_136400" data-name="Trazado 136400" d="M54.738,116.8h.051v-1.382h-.054a1.861,1.861,0,0,0,0,1.383" transform="translate(-35.495 -75.03)" fill="#d37b69"/>
        <path id="Trazado_136401" data-name="Trazado 136401" d="M54.988,119.371c.016.042.031.084.051.126v-.126h-.051" transform="translate(-35.745 -77.597)" fill="#d37b69"/>
        <path id="Trazado_136402" data-name="Trazado 136402" d="M55.033,115.174v-.133c-.02.044-.036.089-.054.133h.054" transform="translate(-35.739 -74.783)" fill="#d37b69"/>
        <path id="Trazado_136403" data-name="Trazado 136403" d="M36.549,100.383c0-.025,0-.049,0-.074a2.316,2.316,0,0,1-.957.1c.017.032.035.064.052.1a1,1,0,0,0,.906-.126" transform="translate(-23.135 -65.206)" fill="#d37b69"/>
        <path id="Trazado_136404" data-name="Trazado 136404" d="M35.312,100.6l-.15,0a1.083,1.083,0,0,0,.2.1c-.017-.032-.035-.063-.052-.1" transform="translate(-22.857 -65.393)" fill="#d37b69"/>
        <path id="Trazado_136405" data-name="Trazado 136405" d="M30.69,32.537c-.018-.549,0-1.1,0-1.649a.247.247,0,0,1-.031,0c0,.258-.031.517-.052.769-.084.982-.091,1.968-.182,2.948.241-.034.449.152.684.169a.789.789,0,0,1,.288.088,5.463,5.463,0,0,0,1.712-.637c.185-.082.371-.162.556-.243.006-.03.012-.061.016-.091a11.627,11.627,0,0,0,.131-1.495c-.657.232-1.248.606-1.876.9a.894.894,0,0,1-1.239-.753" transform="translate(-19.774 -20.076)" fill="#e58d79"/>
        <path id="Trazado_136406" data-name="Trazado 136406" d="M30.338,30.28c.022-.253.054-.511.052-.769-.17-.027-.1-.183-.124-.29-.034-.149.09-.333-.1-.449a.851.851,0,0,1,.054.557q-.1,1.972-.21,3.943a.43.43,0,0,1,.142-.043c.091-.981.1-1.966.182-2.949" transform="translate(-19.511 -18.703)" fill="#e58d79"/>
        <path id="Trazado_136407" data-name="Trazado 136407" d="M39.693,36.591c0,.031-.01.061-.016.091l.155-.068a7.919,7.919,0,0,0,.132-1.572c-.048.015-.093.037-.141.054a11.621,11.621,0,0,1-.131,1.494" transform="translate(-25.792 -22.78)" fill="#e58d79"/>
        <path id="Trazado_136408" data-name="Trazado 136408" d="M31.087,30.792a.247.247,0,0,0,.031,0v-.018a.208.208,0,0,1-.033-.036c0,.016,0,.033,0,.049" transform="translate(-20.207 -19.985)" fill="#e58d79"/>
        <path id="Trazado_136409" data-name="Trazado 136409" d="M30.556,29.22c.024.107-.046.262.124.29,0-.016,0-.033,0-.049-.177-.194.08-.538-.219-.69h0c.186.116.063.3.1.449" transform="translate(-19.8 -18.703)" fill="#e58d79"/>
        <path id="Trazado_136410" data-name="Trazado 136410" d="M30.99,41.752a1.84,1.84,0,0,0,.392,0,.793.793,0,0,0-.289-.088c-.234-.017-.442-.2-.684-.169v0c0,.023,0,.047,0,.07.193.066.363.212.585.178" transform="translate(-19.765 -26.974)" fill="#e58d79"/>
        <path id="Trazado_136411" data-name="Trazado 136411" d="M30.155,41.511v0a.43.43,0,0,0-.142.044.547.547,0,0,1,.137.031c0-.023,0-.047,0-.07" transform="translate(-19.51 -26.981)" fill="#e58d79"/>
        <path id="Trazado_136412" data-name="Trazado 136412" d="M95.365,137.57q-.288,1.553-.564,3.108a1,1,0,0,1-.127.365c.293.009.587.007.881.01a.478.478,0,0,0,.517-.411c.2-.775.357-1.563.559-2.338a.406.406,0,0,0-.312-.553,3.672,3.672,0,0,1-.934-.5,1.015,1.015,0,0,1-.019.32" transform="translate(-61.542 -89.219)" fill="#2864ef"/>
        <path id="Trazado_136413" data-name="Trazado 136413" d="M95.171,136.833a3.687,3.687,0,0,0,.934.5.406.406,0,0,1,.313.553c-.2.775-.355,1.563-.56,2.338a.478.478,0,0,1-.517.411c-.294,0-.588,0-.881-.01a.58.58,0,0,1-.114.136c.417.006.836,0,1.253.02.21.008.3-.062.349-.277.213-.95.446-1.895.676-2.841.048-.2.031-.317-.21-.371a3.731,3.731,0,0,1-1.334-.686h0a.441.441,0,0,1,.091.225" transform="translate(-61.33 -88.802)" fill="#2864ef"/>
        <path id="Trazado_136414" data-name="Trazado 136414" d="M94.507,140.886a1,1,0,0,0,.127-.365q.275-1.556.564-3.109a1.023,1.023,0,0,0,.019-.32l-.116-.085q-.343,1.937-.685,3.875l.09,0" transform="translate(-61.376 -89.062)" fill="#2864ef"/>
        <path id="Trazado_136415" data-name="Trazado 136415" d="M94.371,148.082l-.024.139a.6.6,0,0,0,.114-.136l-.09,0" transform="translate(-61.33 -96.261)" fill="#2864ef"/>
        <path id="Trazado_136416" data-name="Trazado 136416" d="M96.373,136.748l.116.085a.441.441,0,0,0-.091-.225h0c-.008.047-.017.093-.025.14" transform="translate(-62.647 -88.802)" fill="#2864ef"/>
        <path id="Trazado_136417" data-name="Trazado 136417" d="M49.536,137.569a1.008,1.008,0,0,1-.019-.321,3.826,3.826,0,0,1-.976.519.381.381,0,0,0-.273.526c.2.775.357,1.561.557,2.337a.5.5,0,0,0,.561.424c.28-.007.561,0,.842-.011a.994.994,0,0,1-.128-.366q-.275-1.555-.564-3.108" transform="translate(-31.361 -89.218)" fill="#2864ef"/>
        <path id="Trazado_136418" data-name="Trazado 136418" d="M49.02,140.639a.5.5,0,0,1-.561-.424c-.2-.775-.357-1.561-.557-2.337a.38.38,0,0,1,.273-.526,3.848,3.848,0,0,0,.976-.519.442.442,0,0,1,.091-.224,3.529,3.529,0,0,1-1.284.667c-.286.063-.312.191-.247.44.145.555.266,1.116.4,1.675.335,1.452.335,1.452,1.87,1.372a.584.584,0,0,1-.114-.136c-.281.008-.562,0-.842.012" transform="translate(-30.995 -88.803)" fill="#2864ef"/>
        <path id="Trazado_136419" data-name="Trazado 136419" d="M51.87,137.091a1.019,1.019,0,0,0,.019.321q.288,1.553.564,3.108a.994.994,0,0,0,.128.366l.09,0-.685-3.877-.116.084" transform="translate(-33.714 -89.062)" fill="#2864ef"/>
        <path id="Trazado_136420" data-name="Trazado 136420" d="M53.913,148.087a.584.584,0,0,0,.114.136L54,148.085l-.09,0" transform="translate(-35.046 -96.263)" fill="#2864ef"/>
        <path id="Trazado_136421" data-name="Trazado 136421" d="M52,136.749l-.025-.14a.442.442,0,0,0-.091.224l.116-.084" transform="translate(-33.725 -88.803)" fill="#2864ef"/>
        <path id="Trazado_136422" data-name="Trazado 136422" d="M111.871,34.718c0-.012,0-.024,0-.036-.066-1.179-.143-2.357-.186-3.537a.245.245,0,0,1-.065.02s-.006-.007-.009-.01a13.126,13.126,0,0,0,.008,1.343c.061.59-.341.822-.729,1.086-.171.117-.295-.022-.429-.082-.666-.3-1.283-.693-1.972-.94.013.5.066,1.005.122,1.505l.005.073,1.73.774a3.914,3.914,0,0,1,1.526-.2" transform="translate(-70.523 -20.246)" fill="#e58d79"/>
        <path id="Trazado_136423" data-name="Trazado 136423" d="M117.7,29.291c-.025.1.044.251-.082.31.042,1.18.119,2.358.185,3.537,0,.012,0,.024,0,.036l.142-.005c-.05-.917-.107-1.833-.148-2.751a5.591,5.591,0,0,1,0-1.648c-.2.142-.055.349-.1.521" transform="translate(-76.458 -18.702)" fill="#e58d79"/>
        <path id="Trazado_136424" data-name="Trazado 136424" d="M108.345,36.6c-.056-.5-.109-1-.122-1.505-.047-.017-.092-.039-.14-.055a7.946,7.946,0,0,0,.132,1.572l.136.061-.005-.073" transform="translate(-70.258 -22.779)" fill="#e58d79"/>
        <path id="Trazado_136425" data-name="Trazado 136425" d="M117.415,31a.249.249,0,0,0,.065-.02c0-.029,0-.057,0-.086a.292.292,0,0,1-.07.087v.009a.128.128,0,0,0,.009.01" transform="translate(-76.32 -20.085)" fill="#e58d79"/>
        <path id="Trazado_136426" data-name="Trazado 136426" d="M117.693,29.291c.042-.172-.1-.379.1-.521h0c-.3.177-.06.515-.182.745,0,.029,0,.058,0,.086.126-.059.056-.2.082-.31" transform="translate(-76.451 -18.702)" fill="#e58d79"/>
        <path id="Trazado_136427" data-name="Trazado 136427" d="M113.8,41.556h0a4.1,4.1,0,0,0,1.523-.142c0-.02,0-.04,0-.059a3.916,3.916,0,0,0-1.526.2l.007,0" transform="translate(-73.972 -26.882)" fill="#e58d79"/>
        <path id="Trazado_136428" data-name="Trazado 136428" d="M118.158,41.4a1.371,1.371,0,0,0,.138-.065l-.142.006c0,.02,0,.04,0,.059" transform="translate(-76.807 -26.872)" fill="#e58d79"/>
        <path id="Trazado_136429" data-name="Trazado 136429" d="M54.483,45.023a24.5,24.5,0,0,0,3.378-.211,7,7,0,0,0,3.683-1.442c1.434-1.154,1.414-1.139,2.432.332A2.572,2.572,0,0,0,65.9,45.007a1.046,1.046,0,0,1,1.093.7c.107.293.455.162.689.229.115.033.123-.136.126-.239a7.41,7.41,0,0,0-1.039-4.441c-.134.118-.184-.025-.24-.09a7.937,7.937,0,0,0-4.889-2.725,8.154,8.154,0,0,0-6.427,1.591,3.8,3.8,0,0,0-1.2,1.135c-.038.069-.1.208-.238.089h0a7.365,7.365,0,0,0-1.038,4.441c0,.1.021.28.124.239.247-.1.612.089.742-.32a.82.82,0,0,1,.885-.587" transform="translate(-34.27 -24.906)" fill="#333940"/>
        <path id="Trazado_136430" data-name="Trazado 136430" d="M69.01,67.406a6.261,6.261,0,0,0,1.67-4.351c0-.973,0-1.946,0-2.919,0-.183-.069-.387.1-.539a3.626,3.626,0,0,1-1.58-1.869l-.216-.219a7.967,7.967,0,0,1-3.536,2.113c-.609.176-1.238.127-1.844.283a1.6,1.6,0,0,0-1.3,1.5,9.593,9.593,0,0,0,.507,4.257A10.276,10.276,0,0,0,64.281,67.8a4.41,4.41,0,0,0,4.642-.111c-.168-.153.024-.209.087-.278" transform="translate(-40.49 -37.384)" fill="#f9a491"/>
        <path id="Trazado_136431" data-name="Trazado 136431" d="M103.878,56.345c.193-.057.332.064.484.145a1.508,1.508,0,0,0,2.385-1.136c.215-1.2.292-2.423.385-3.639.216-2.815.364-5.633.34-8.459a8.153,8.153,0,0,0-.261-2.225.787.787,0,0,1-.037-.462l.018-.007a3.532,3.532,0,0,1-1.723-.735c.118,1.628.22,3.262.454,4.872a12.577,12.577,0,0,1-.4,4.9c-.374,1.522-.708,3.054-1.021,4.59a3.147,3.147,0,0,1-.742,1.357c-.041.051-.078.1-.118.156a1.536,1.536,0,0,0,.2.678.3.3,0,0,1,.033-.034" transform="translate(-67.373 -25.89)" fill="#f19a86"/>
        <path id="Trazado_136432" data-name="Trazado 136432" d="M103.721,55.353A3.143,3.143,0,0,0,104.463,54c.313-1.536.647-3.068,1.021-4.59a12.576,12.576,0,0,0,.4-4.9c-.234-1.61-.336-3.244-.454-4.872-.046-.034-.093-.067-.139-.1a4.278,4.278,0,0,0-.011.522c.154,1.613.321,3.224.472,4.837a7.929,7.929,0,0,1-.048,2.85c-.387,1.463-.651,2.959-1.012,4.43-.265,1.081-.254,2.267-1.109,3.143.007.065.013.129.021.194.04-.052.076-.106.118-.157" transform="translate(-67.334 -25.699)" fill="#f19a86"/>
        <path id="Trazado_136433" data-name="Trazado 136433" d="M104.545,57.907a1.654,1.654,0,0,0,2.719-1.084c.17-1.042.213-2.1.334-3.146.244-2.121.267-4.253.389-6.38.062-1.077,0-2.161.013-3.241a5.732,5.732,0,0,0-.421-2.129h-.01l-.019.007a.79.79,0,0,0,.037.462,8.165,8.165,0,0,1,.261,2.225c.024,2.825-.124,5.644-.339,8.459-.093,1.215-.171,2.437-.385,3.638a1.508,1.508,0,0,1-2.385,1.136c-.152-.081-.291-.2-.484-.145a.271.271,0,0,0-.033.034l0,.007a.521.521,0,0,1,.318.157" transform="translate(-67.75 -27.254)" fill="#f19a86"/>
        <path id="Trazado_136434" data-name="Trazado 136434" d="M110.582,40.483l-1.729-.774c0,.014,0,.028,0,.042a3.53,3.53,0,0,0,1.723.734h0" transform="translate(-70.76 -25.813)" fill="#f19a86"/>
        <path id="Trazado_136435" data-name="Trazado 136435" d="M108.6,39.595l-.136-.061c.046.035.092.069.139.1,0-.014,0-.028,0-.042" transform="translate(-70.506 -25.699)" fill="#f19a86"/>
        <path id="Trazado_136436" data-name="Trazado 136436" d="M113.794,41.924l-.007,0,0,0h.01" transform="translate(-73.965 -27.251)" fill="#f19a86"/>
        <path id="Trazado_136437" data-name="Trazado 136437" d="M33.62,41.366c-.013.522,0,1.046,0,1.568a116.361,116.361,0,0,0,.65,11.835,4.246,4.246,0,0,0,.139.771,1.473,1.473,0,0,0,2.2.922c.181-.1.337-.259.57-.221a.443.443,0,0,1,.058.044,1.012,1.012,0,0,0,.205-.568c-.038-.052-.074-.106-.114-.156A3.225,3.225,0,0,1,36.5,53.85c-.426-2.032-.863-4.063-1.36-6.078a7.454,7.454,0,0,1-.033-2.442c.135-1.685.371-3.361.406-5.054a2.424,2.424,0,0,1,.073-.435,3.89,3.89,0,0,1-2.19.89.737.737,0,0,1,.221.634" transform="translate(-21.711 -25.899)" fill="#f19a86"/>
        <path id="Trazado_136438" data-name="Trazado 136438" d="M38.536,40.077c-.035,1.693-.271,3.369-.406,5.054a7.444,7.444,0,0,0,.033,2.442c.5,2.015.934,4.046,1.359,6.078a3.231,3.231,0,0,0,.825,1.711c.04.051.076.1.114.156.007-.066.012-.132.016-.2a3.825,3.825,0,0,1-.789-1.6c-.271-1.469-.646-2.918-.961-4.38a10.339,10.339,0,0,1-.467-4.109c.137-.75.153-1.523.219-2.286q.149-1.7.292-3.405l-.162.108a2.423,2.423,0,0,0-.073.435" transform="translate(-24.73 -25.699)" fill="#f19a86"/>
        <path id="Trazado_136439" data-name="Trazado 136439" d="M32.078,42.229c.53.063.545.424.529.847-.085,2.25.1,4.5.1,6.745,0,.052,0,.1,0,.157.138,1.728.27,3.457.417,5.185a15.021,15.021,0,0,0,.23,1.908,1.617,1.617,0,0,0,1.592,1.316,3.343,3.343,0,0,0,1.426-.547l0,0a.417.417,0,0,0-.058-.045c-.233-.038-.389.125-.57.221a1.473,1.473,0,0,1-2.2-.922,4.265,4.265,0,0,1-.139-.771,116.364,116.364,0,0,1-.65-11.835c0-.523-.01-1.046,0-1.569a.736.736,0,0,0-.222-.634,2.329,2.329,0,0,1-.462-.054" transform="translate(-20.852 -27.451)" fill="#f19a86"/>
        <path id="Trazado_136440" data-name="Trazado 136440" d="M33.2,40.607a.519.519,0,0,1,.07.05,3.887,3.887,0,0,0,2.19-.89c0-.013,0-.027.007-.04-.185.08-.371.161-.556.243a5.471,5.471,0,0,1-1.712.637" transform="translate(-21.58 -25.825)" fill="#f19a86"/>
        <path id="Trazado_136441" data-name="Trazado 136441" d="M39.658,39.642l.162-.107-.155.068c0,.013,0,.027-.007.04" transform="translate(-25.78 -25.7)" fill="#f19a86"/>
        <path id="Trazado_136442" data-name="Trazado 136442" d="M32.078,42.229a2.329,2.329,0,0,0,.462.054.515.515,0,0,0-.07-.05,1.84,1.84,0,0,1-.392,0" transform="translate(-20.852 -27.451)" fill="#f19a86"/>
        <path id="Trazado_136443" data-name="Trazado 136443" d="M41.974,86.02c.16.142.109.339.061.512-.283,1.018-.523,2.049-.876,3.048a.768.768,0,0,1-.475.531c1.655.578,2.363,1.581,2.531,3.509.036.409,0,.686-.516.581a.977.977,0,0,0-.274.009.741.741,0,0,1-.009.555,5.654,5.654,0,0,1-.133.613c-.372,1.107.257,1.839.965,2.514.382.364.6.283.735-.217a16.392,16.392,0,0,0,.676-4.173,1.239,1.239,0,0,1,.052-.558A16.31,16.31,0,0,0,43.272,87.3a10.52,10.52,0,0,0-1-1.725.38.38,0,0,1-.3.44" transform="translate(-26.447 -55.631)" fill="#e58c79"/>
        <path id="Trazado_136444" data-name="Trazado 136444" d="M46.076,86.7a16.3,16.3,0,0,1,1.439,5.638.449.449,0,0,1,.1-.132,9.864,9.864,0,0,0-.342-2.417A13.2,13.2,0,0,0,45,84.642a2.142,2.142,0,0,1,.079.328,10.469,10.469,0,0,1,1,1.725" transform="translate(-29.251 -55.022)" fill="#e58c79"/>
        <path id="Trazado_136445" data-name="Trazado 136445" d="M40.409,90.515c-.1.3-.336.306-.583.313.1.031.2.064.3.1A.768.768,0,0,0,40.6,90.4c.353-1,.592-2.029.876-3.048.048-.173.1-.37-.061-.512l0,0a29.006,29.006,0,0,1-1,3.677" transform="translate(-25.889 -56.448)" fill="#e58c79"/>
        <path id="Trazado_136446" data-name="Trazado 136446" d="M47.074,107.177a16.407,16.407,0,0,1-.676,4.173c-.138.5-.353.581-.735.217-.708-.675-1.336-1.407-.964-2.514a5.652,5.652,0,0,0,.133-.613.738.738,0,0,0,.009-.554l-.036,0c-.058.253-.137.5-.169.758-.058.46-.337.926-.2,1.365a3.591,3.591,0,0,0,1.07,1.64c.633.545.855.459,1.066-.346a19.918,19.918,0,0,0,.6-3.307,9.807,9.807,0,0,0-.047-1.375v-.005a1.237,1.237,0,0,0-.052.558" transform="translate(-28.862 -69.308)" fill="#e58c79"/>
        <path id="Trazado_136447" data-name="Trazado 136447" d="M52.192,106.38a9.759,9.759,0,0,1,.047,1.375,13.583,13.583,0,0,0,.051-1.512.45.45,0,0,0-.1.132v.005" transform="translate(-33.927 -69.063)" fill="#e58c79"/>
        <path id="Trazado_136448" data-name="Trazado 136448" d="M44.368,85.779a.38.38,0,0,0,.3-.44l-.095-.129a1.016,1.016,0,0,1-.205.568h0" transform="translate(-28.84 -55.391)" fill="#e58c79"/>
        <path id="Trazado_136449" data-name="Trazado 136449" d="M44.952,84.84c.032.043.064.086.095.129a2.142,2.142,0,0,0-.079-.328c0,.066-.009.133-.016.2" transform="translate(-29.221 -55.021)" fill="#e58c79"/>
        <path id="Trazado_136450" data-name="Trazado 136450" d="M44.363,86.834h0l0,0,0,0" transform="translate(-28.836 -56.446)" fill="#e58c79"/>
        <path id="Trazado_136451" data-name="Trazado 136451" d="M97.507,97.226c.043.163.043.394.219.449.22.069.313-.175.44-.3a5.115,5.115,0,0,0,.549-.76,1.6,1.6,0,0,0,.244-1.435,1.43,1.43,0,0,1-.1-.977c-.88-.046-.873-.058-.73-1a3.572,3.572,0,0,1,1.745-2.85,3.2,3.2,0,0,1,.721-.249.71.71,0,0,1-.456-.46c-.387-1.038-.615-2.121-.9-3.188a.33.33,0,0,1,.072-.337.483.483,0,0,1-.3-.549,12.544,12.544,0,0,0-1.743,3.67,14.713,14.713,0,0,0-.592,2.758c0,.017,0,.034-.006.051a4.237,4.237,0,0,1,.163,1.172,26.148,26.148,0,0,0,.672,4.012" transform="translate(-62.841 -55.62)" fill="#e58c79"/>
        <path id="Trazado_136452" data-name="Trazado 136452" d="M96.508,91.387a14.7,14.7,0,0,1,.592-2.758,12.554,12.554,0,0,1,1.743-3.671,1.92,1.92,0,0,1,.078-.325,13.647,13.647,0,0,0-2.51,6.618,1.318,1.318,0,0,1,.091.187c0-.017,0-.034.006-.051" transform="translate(-62.672 -55.016)" fill="#e58c79"/>
        <path id="Trazado_136453" data-name="Trazado 136453" d="M105.641,91.02c-.424.063-.6-.221-.691-.547-.31-1.109-.6-2.225-.892-3.337l-.006,0a.331.331,0,0,0-.072.337c.287,1.066.515,2.15.9,3.188a.711.711,0,0,0,.456.46c.1-.028.2-.058.3-.1" transform="translate(-67.581 -56.64)" fill="#e58c79"/>
        <path id="Trazado_136454" data-name="Trazado 136454" d="M97.448,109.781c.049.134.036.349.295.193a3.088,3.088,0,0,0,1.239-2.922c-.064-.269-.107-.543-.16-.815l-.035,0a1.426,1.426,0,0,0,.1.977,1.6,1.6,0,0,1-.244,1.435,5.11,5.11,0,0,1-.549.761c-.127.128-.22.372-.44.3-.175-.055-.175-.286-.218-.449a26.056,26.056,0,0,1-.672-4.012,4.265,4.265,0,0,0-.163-1.172c-.017.12-.027.239-.04.359.085.923.159,1.847.3,2.762a13.085,13.085,0,0,0,.6,2.582" transform="translate(-62.768 -67.656)" fill="#e58c79"/>
        <path id="Trazado_136455" data-name="Trazado 136455" d="M96.462,104.09c.013-.12.022-.239.04-.359a1.319,1.319,0,0,0-.091-.187c.018.182.035.364.051.546" transform="translate(-62.672 -67.309)" fill="#e58c79"/>
        <path id="Trazado_136456" data-name="Trazado 136456" d="M103.647,85.868l0,0a1.536,1.536,0,0,1-.2-.678c-.033.043-.066.087-.1.131a.483.483,0,0,0,.3.549" transform="translate(-67.177 -55.376)" fill="#e58c79"/>
        <path id="Trazado_136457" data-name="Trazado 136457" d="M103.459,84.827c-.007-.064-.014-.129-.021-.194a1.952,1.952,0,0,0-.078.325l.1-.131" transform="translate(-67.189 -55.016)" fill="#e58c79"/>
        <path id="Trazado_136458" data-name="Trazado 136458" d="M104.218,87.123l0,0,.006,0,0-.007" transform="translate(-67.745 -56.634)" fill="#e58c79"/>
        <path id="Trazado_136459" data-name="Trazado 136459" d="M102.505,23.668c.47.221.928.469,1.4.693a.755.755,0,0,0,1.141-.665c.028-.311,0-.624.012-.936.006-.185-.023-.381.132-.53a.813.813,0,0,1-.2-.393,1.539,1.539,0,0,0-1.562-1.135c-.78-.021-1.56-.006-2.34-.007a1.886,1.886,0,0,1-1.432-.628c-.133-.143-.264-.3-.171-.5a1.232,1.232,0,0,1-.3-.886,6.443,6.443,0,0,0-.028-.99c-.024-.142-.088-.277-.261-.273a.241.241,0,0,0-.23.244A12.2,12.2,0,0,0,98.67,19.9c.024.22.217.347.384.475.61.463,1.2.953,1.842,1.369a2.174,2.174,0,0,1,1.167,1.78c.16-.034.3.074.443.14" transform="translate(-64.104 -11.326)" fill="#f19a86"/>
        <path id="Trazado_136460" data-name="Trazado 136460" d="M100.64,21.35c-.64-.416-1.233-.906-1.842-1.369-.167-.127-.36-.254-.384-.475a12.226,12.226,0,0,1-.007-2.238.241.241,0,0,1,.23-.244c.173,0,.237.131.261.273a6.489,6.489,0,0,1,.029.99,1.23,1.23,0,0,0,.3.886.484.484,0,0,1,.061-.095c-.374-.536-.18-1.146-.213-1.725-.017-.3-.083-.537-.416-.543s-.432.223-.429.526c.006.679.017,1.358-.006,2.036a.635.635,0,0,0,.319.6c.662.478,1.29,1.006,1.968,1.46a2.055,2.055,0,0,1,1.165,1.763.333.333,0,0,1,.133-.061,2.174,2.174,0,0,0-1.167-1.78" transform="translate(-63.849 -10.928)" fill="#f19a86"/>
        <path id="Trazado_136461" data-name="Trazado 136461" d="M101.034,23.563c-.093.2.038.354.171.5a1.885,1.885,0,0,0,1.433.627c.78,0,1.561-.014,2.34.007a1.539,1.539,0,0,1,1.562,1.136.814.814,0,0,0,.2.393l0-.006a1.645,1.645,0,0,0-1.8-1.677c-.818,0-1.637.01-2.455,0a1.457,1.457,0,0,1-1.347-.877l-.012-.006a1.025,1.025,0,0,1-.1-.09" transform="translate(-65.657 -15.317)" fill="#f19a86"/>
        <path id="Trazado_136462" data-name="Trazado 136462" d="M101.191,23.477l.012.006a.982.982,0,0,1-.05-.191.482.482,0,0,0-.06.095.943.943,0,0,0,.1.09" transform="translate(-65.715 -15.141)" fill="#f19a86"/>
        <path id="Trazado_136463" data-name="Trazado 136463" d="M110.875,33.6c.387-.264.789-.5.728-1.086a13.024,13.024,0,0,1-.008-1.343l0,0c-.155.148-.126.345-.132.53-.01.312.016.625-.012.936a.755.755,0,0,1-1.141.665c-.47-.224-.927-.472-1.4-.693-.14-.066-.283-.174-.443-.14,0,.037.007.071.007.108v.007c.688.247,1.306.644,1.972.939.134.059.257.2.429.082" transform="translate(-70.509 -20.257)" fill="#f19a86"/>
        <path id="Trazado_136464" data-name="Trazado 136464" d="M108.227,34.985v-.007c0-.038-.005-.072-.007-.108a.339.339,0,0,0-.133.061c.048.015.093.037.14.055" transform="translate(-70.262 -22.667)" fill="#f19a86"/>
        <path id="Trazado_136465" data-name="Trazado 136465" d="M117.4,31.156v-.01l0,.006,0,0" transform="translate(-76.313 -20.246)" fill="#f19a86"/>
        <path id="Trazado_136466" data-name="Trazado 136466" d="M36.83,19.978a1.809,1.809,0,0,1-1.5.73c-.716.007-1.432.017-2.147,0a1.663,1.663,0,0,0-1.814,1.19.512.512,0,0,1-.168.251c.2.234.112.519.127.783s-.013.521.011.779a.756.756,0,0,0,1.141.666c.47-.222.927-.472,1.4-.693.141-.066.283-.174.443-.14a2.186,2.186,0,0,1,1.169-1.782c.642-.417,1.232-.915,1.85-1.37a.949.949,0,0,0,.421-.847c-.012-.541.008-1.082-.009-1.623-.006-.2,0-.485-.279-.476s-.254.288-.265.493c-.015.279,0,.558-.009.837a1.235,1.235,0,0,1-.2.7c.078.193-.055.351-.169.5" transform="translate(-20.284 -11.342)" fill="#f19a86"/>
        <path id="Trazado_136467" data-name="Trazado 136467" d="M42.994,18.376c.008-.279-.007-.559.009-.837.012-.2-.007-.484.266-.493s.273.273.279.476c.016.541,0,1.082.009,1.622a.948.948,0,0,1-.421.847c-.618.455-1.208.953-1.85,1.37a2.183,2.183,0,0,0-1.169,1.782.339.339,0,0,1,.134.061,2.046,2.046,0,0,1,1.168-1.762c.637-.423,1.219-.927,1.847-1.363a.857.857,0,0,0,.439-.855c-.041-.536-.005-1.079-.012-1.619,0-.335.1-.784-.431-.776-.486.007-.392.431-.406.752a3.57,3.57,0,0,1-.122,1.391.421.421,0,0,1,.059.1,1.23,1.23,0,0,0,.2-.7" transform="translate(-26.078 -10.94)" fill="#f19a86"/>
        <path id="Trazado_136468" data-name="Trazado 136468" d="M31.355,25.669a1.664,1.664,0,0,1,1.814-1.19c.715.018,1.432.008,2.147,0a1.809,1.809,0,0,0,1.5-.73c.114-.149.247-.308.169-.5a.341.341,0,0,1-.135.143,1.52,1.52,0,0,1-1.423.94c-.8.014-1.6,0-2.4,0a1.659,1.659,0,0,0-1.847,1.572s.006.009.009.013a.514.514,0,0,0,.168-.251" transform="translate(-20.267 -15.113)" fill="#f19a86"/>
        <path id="Trazado_136469" data-name="Trazado 136469" d="M47.458,23.137a.894.894,0,0,0,.055-.079.414.414,0,0,0-.059-.1,1.537,1.537,0,0,1-.076.246.963.963,0,0,0,.08-.064" transform="translate(-30.798 -14.921)" fill="#f19a86"/>
        <path id="Trazado_136470" data-name="Trazado 136470" d="M33.855,32.417c-.47.221-.927.47-1.4.693a.756.756,0,0,1-1.141-.666c-.024-.259,0-.52-.011-.779s.072-.549-.127-.783l-.005.006h0c0,.55-.013,1.1,0,1.649a.894.894,0,0,0,1.239.753c.629-.292,1.22-.666,1.877-.9v0c0-.039.005-.074.007-.112-.16-.034-.3.074-.443.14" transform="translate(-20.259 -20.075)" fill="#f19a86"/>
        <path id="Trazado_136471" data-name="Trazado 136471" d="M40.1,34.982v0c.047-.017.092-.038.141-.054a.336.336,0,0,0-.133-.061c0,.038-.007.073-.007.112" transform="translate(-26.064 -22.667)" fill="#f19a86"/>
        <path id="Trazado_136472" data-name="Trazado 136472" d="M31.182,30.865l.005-.006s-.005-.008-.009-.012v.017h0" transform="translate(-20.267 -20.052)" fill="#f19a86"/>
        <path id="Trazado_136473" data-name="Trazado 136473" d="M108.723,9.578q-1.2-.021-2.408,0a.824.824,0,0,0-.9.875c-.015.715.01,1.43-.011,2.145-.009.3.113.342.366.335.575-.015,1.152,0,1.728,0,.593,0,1.187-.01,1.78,0,.244.006.336-.059.33-.318-.016-.715,0-1.432-.009-2.147a.824.824,0,0,0-.88-.89" transform="translate(-68.52 -6.219)" fill="#f9a491"/>
        <path id="Trazado_136474" data-name="Trazado 136474" d="M34.47,9.578q-1.2-.022-2.408,0a.821.821,0,0,0-.891.877c-.015.716.011,1.432-.011,2.147-.01.3.123.336.37.33.576-.014,1.152,0,1.728,0,.594,0,1.187-.011,1.78,0,.25.007.33-.069.325-.322-.015-.715.005-1.43-.009-2.145a.826.826,0,0,0-.884-.887" transform="translate(-20.255 -6.219)" fill="#f9a491"/>
        <path id="Trazado_136475" data-name="Trazado 136475" d="M60.592,62.836c-.041-.554-.015-1.114,0-1.671a1.884,1.884,0,0,1,1.888-2.015,7.031,7.031,0,0,0,4.495-1.965c.123-.117.244-.258.449-.211-.064-.406-.237-.319-.483-.131a7.828,7.828,0,0,1-3.164,1.406,20.07,20.07,0,0,1-3.471.374c-.289.012-.429.05-.423.4.024,1.306-.05,2.616.028,3.917a4.85,4.85,0,0,0,2.8,4.321,5.79,5.79,0,0,1-2.117-4.423" transform="translate(-38.919 -36.848)" fill="#e58c78"/>
        <path id="Trazado_136476" data-name="Trazado 136476" d="M62.04,61.386a1.6,1.6,0,0,1,1.3-1.5c.605-.156,1.235-.107,1.844-.283a7.964,7.964,0,0,0,3.536-2.113c-.2-.047-.325.094-.449.211a7.031,7.031,0,0,1-4.494,1.965,1.884,1.884,0,0,0-1.889,2.015c-.01.557-.036,1.117,0,1.671a5.789,5.789,0,0,0,2.117,4.423,10.283,10.283,0,0,1-1.463-2.134,9.6,9.6,0,0,1-.507-4.257" transform="translate(-40.22 -37.367)" fill="#e58c78"/>
        <path id="Trazado_136477" data-name="Trazado 136477" d="M61.055,36.724A8.343,8.343,0,0,1,67.6,38.547c.43.336.729.784,1.118,1.151a10.4,10.4,0,0,0-.689-1.035,7.471,7.471,0,0,0-8.562-2.206A7,7,0,0,0,55.72,39.7a8.064,8.064,0,0,1,5.335-2.972" transform="translate(-36.221 -23.353)" fill="#404851"/>
        <path id="Trazado_136478" data-name="Trazado 136478" d="M55.957,40.924a3.8,3.8,0,0,1,1.2-1.135A8.157,8.157,0,0,1,63.589,38.2a7.938,7.938,0,0,1,4.889,2.725c.055.065.106.208.24.09-.389-.367-.688-.815-1.118-1.151a8.343,8.343,0,0,0-6.545-1.823,8.064,8.064,0,0,0-5.335,2.972h0c.133.119.2-.019.237-.089" transform="translate(-36.221 -24.669)" fill="#404851"/>
        <path id="Trazado_136479" data-name="Trazado 136479" d="M13.675,13.474c.007-2.8.01-5.607.027-8.41,0-.4-.271-.259-.464-.282-.227-.027-.423-.012-.382.31a3.758,3.758,0,0,1,0,.47c0,.868,0,.868-.838.912V8.116c.838.044.836.044.838.914q.006,2.43.016,4.861a1.85,1.85,0,0,0,.8-.417" transform="translate(-7.814 -3.103)" fill="#7f52fe"/>
        <path id="Trazado_136480" data-name="Trazado 136480" d="M8.881,6.447c-.835-.044-.835-.044-.838-.909a4.276,4.276,0,0,1,0-.469c.027-.254-.086-.3-.323-.327-.587-.078-.564.258-.5.65l.1-.015a.516.516,0,0,1,.608.366.29.29,0,0,1-.076.375c-.278.178-.44-.073-.636-.19h0l.005,7.518c.276.122.474.392.8.42Q8.034,11.434,8.042,9c0-.87,0-.87.839-.914a1.884,1.884,0,0,1,0-1.642" transform="translate(-4.674 -3.075)" fill="#2b8efb"/>
        <path id="Trazado_136481" data-name="Trazado 136481" d="M11.671,11.278V9.636a1.884,1.884,0,0,0,0,1.642" transform="translate(-7.465 -6.264)" fill="#2b8efb"/>
        <path id="Trazado_136482" data-name="Trazado 136482" d="M133.424,14l.022-.014-.009-.812c-.838-.044-.838-.044-.838-.914,0-2.371,0-4.742.006-7.113,0-.292-.075-.414-.376-.377-.222.027-.48-.091-.476.33.023,2.788.023,5.577.03,8.366a2.241,2.241,0,0,0,1.641.533" transform="translate(-85.645 -3.099)" fill="#7e52fe"/>
        <path id="Trazado_136483" data-name="Trazado 136483" d="M70.7,94.864a1.153,1.153,0,0,0-1.177.4c-.006.226-.024.452-.016.677a1.673,1.673,0,0,0,3.346,0c.015-.434-.008-.869-.013-1.3a3.786,3.786,0,0,1-2.14.222" transform="translate(-45.181 -61.522)" fill="#e58c78"/>
        <path id="Trazado_136484" data-name="Trazado 136484" d="M136.649,13.9a.3.3,0,0,1-.041.069,2.231,2.231,0,0,0,1.611-.522h0q.011-4.186.026-8.371c0-.247-.076-.3-.321-.334-.586-.077-.571.253-.5.651l.1-.015a.516.516,0,0,1,.608.365.29.29,0,0,1-.076.376c-.278.177-.44-.073-.636-.19q-.008,3.157-.016,6.315c0,.867,0,.867-.839.911a.791.791,0,0,1,.085.746" transform="translate(-88.774 -3.074)" fill="#2b8efb"/>
        <path id="Trazado_136485" data-name="Trazado 136485" d="M136.609,29.615a.3.3,0,0,0,.041-.069.792.792,0,0,0-.085-.746q0,.406.009.812c.012,0,.023,0,.034,0" transform="translate(-88.774 -18.721)" fill="#2b8efb"/>
        <path id="Trazado_136486" data-name="Trazado 136486" d="M83.734,68.116a25.73,25.73,0,0,0,.093-4.28l-.666-.3a.357.357,0,0,1,0,.062c-.026.924-.04,1.849-.006,2.771a6.639,6.639,0,0,1-1.91,5.232,4.771,4.771,0,0,0,2.486-3.488" transform="translate(-52.815 -41.304)" fill="#feb7a7"/>
        <path id="Trazado_136487" data-name="Trazado 136487" d="M83.034,66.332c-.034-.922-.02-1.847.006-2.771a.447.447,0,0,0,0-.062l-.05-.022c-.173.152-.1.357-.1.539-.007.973,0,1.946,0,2.919a6.261,6.261,0,0,1-1.67,4.351c-.063.069-.255.126-.087.278a6.639,6.639,0,0,0,1.91-5.232" transform="translate(-52.691 -41.263)" fill="#feb7a7"/>
        <path id="Trazado_136488" data-name="Trazado 136488" d="M138.2,29.637a1.321,1.321,0,0,1-1.616.529.315.315,0,0,1-.05.046q.007.387.013.774c.838.044.838.044.838.875a3.648,3.648,0,0,1,0,.471c-.045.339.15.365.409.352.225-.012.45.048.439-.324-.028-.907-.021-1.815-.028-2.723" transform="translate(-88.752 -19.266)" fill="#2357d0"/>
        <path id="Trazado_136489" data-name="Trazado 136489" d="M136.529,31.134c0,.014,0,.028,0,.043a.316.316,0,0,0,.05-.046c-.01,0-.02-.006-.029-.01Z" transform="translate(-88.751 -20.23)" fill="#2357d0"/>
        <path id="Trazado_136490" data-name="Trazado 136490" d="M136.68,30.159l-.006.007a1.322,1.322,0,0,0,1.617-.529,2.231,2.231,0,0,1-1.611.522" transform="translate(-88.845 -19.266)" fill="#2357d0"/>
        <path id="Trazado_136491" data-name="Trazado 136491" d="M136.626,31.123c-.012,0-.022,0-.034,0,.009,0,.019.006.029.01l.006-.007" transform="translate(-88.792 -20.23)" fill="#2357d0"/>
        <path id="Trazado_136492" data-name="Trazado 136492" d="M133.389,30.225a1.455,1.455,0,0,1-1.609-.59c-.007.89,0,1.78-.03,2.669-.014.367.163.372.44.384.32.013.456-.083.409-.41a2.6,2.6,0,0,1,0-.366c0-.882,0-.882.839-.926a.644.644,0,0,1-.045-.76" transform="translate(-85.643 -19.264)" fill="#5931c1"/>
        <path id="Trazado_136493" data-name="Trazado 136493" d="M133.447,30.225c.01-.019.02-.037.032-.056a2.242,2.242,0,0,1-1.642-.533,1.455,1.455,0,0,0,1.609.59" transform="translate(-85.701 -19.264)" fill="#5931c1"/>
        <path id="Trazado_136494" data-name="Trazado 136494" d="M136.268,31.291l-.022,0a.644.644,0,0,0,.046.76l-.013-.774-.011.01" transform="translate(-88.5 -20.334)" fill="#5931c1"/>
        <path id="Trazado_136495" data-name="Trazado 136495" d="M136.437,31.215l.022,0s.007-.007.011-.01,0-.028,0-.043c-.012.019-.022.038-.032.056" transform="translate(-88.691 -20.255)" fill="#5931c1"/>
        <path id="Trazado_136496" data-name="Trazado 136496" d="M72.209,92.968a4.8,4.8,0,0,1-1.707.1c-.358-.021-.831-.329-1.033-.05-.18.248-.031.735-.027,1.117a.8.8,0,0,1,.905-.544,5.708,5.708,0,0,0,2.16-.118.347.347,0,0,1,.251.038c.077-.443.047-.725-.549-.54" transform="translate(-45.1 -60.389)" fill="#d37c69"/>
        <path id="Trazado_136497" data-name="Trazado 136497" d="M72.62,94.514a5.707,5.707,0,0,1-2.16.118.8.8,0,0,0-.905.544,1.153,1.153,0,0,1,1.177-.4,3.783,3.783,0,0,0,2.14-.222.347.347,0,0,0-.251-.039" transform="translate(-45.214 -61.433)" fill="#d37c69"/>
        <path id="Trazado_136498" data-name="Trazado 136498" d="M7.238,29.635c-.007.9,0,1.808-.028,2.711-.011.354.185.337.425.336s.44.024.427-.333c-.028-.764-.018-1.529-.023-2.294-.407.129-.61-.133-.8-.419" transform="translate(-4.686 -19.264)" fill="#2357d0"/>
        <path id="Trazado_136499" data-name="Trazado 136499" d="M8.091,30.054c-.325-.028-.524-.3-.8-.419.19.287.393.548.8.419" transform="translate(-4.74 -19.264)" fill="#2357d0"/>
        <path id="Trazado_136500" data-name="Trazado 136500" d="M15.217,29.637c-.17.324-.394.543-.8.417-.005.765,0,1.53-.023,2.293-.013.355.188.335.426.336s.436.017.425-.337C15.218,31.444,15.225,30.54,15.217,29.637Z" transform="translate(-9.357 -19.266)" fill="#5931c1"/>
        <path id="Trazado_136501" data-name="Trazado 136501" d="M15.261,29.637a1.849,1.849,0,0,1-.8.417c.4.126.629-.094.8-.417" transform="translate(-9.401 -19.266)" fill="#5931c1"/>
        <path id="Trazado_136502" data-name="Trazado 136502" d="M62.288,97.169c0-.011,0-.022,0-.032a1.54,1.54,0,0,0-1.057-1.613,4.855,4.855,0,0,1-.172.907,3.691,3.691,0,0,0,.905.546,1.864,1.864,0,0,1,.327.192" transform="translate(-39.69 -62.095)" fill="#2bb3fc"/>
        <path id="Trazado_136503" data-name="Trazado 136503" d="M61.047,95.14A1.54,1.54,0,0,1,62.1,96.753c0,.011,0,.022,0,.033a.686.686,0,0,1,.136.136c-.029-.325-.065-.649-.085-.974-.008-.141-.008-.269-.147-.356-.325-.2-.645-.415-1.019-.657l-.215,1.023h0c.03.034.066.06.1.09a4.852,4.852,0,0,0,.172-.907" transform="translate(-39.507 -61.712)" fill="#2bb3fc"/>
        <path id="Trazado_136504" data-name="Trazado 136504" d="M61.094,98.405c.384.167.737.4,1.134.539a.674.674,0,0,1-.01-.091,1.887,1.887,0,0,0-.326-.192,3.673,3.673,0,0,1-.905-.546l0,.014c-.012.048-.024.1-.035.144a.294.294,0,0,0,.147.132" transform="translate(-39.619 -63.78)" fill="#2bb3fc"/>
        <path id="Trazado_136505" data-name="Trazado 136505" d="M64.576,100.224a.665.665,0,0,0,.01.091c.042.015.082.033.125.045a.7.7,0,0,0-.136-.136" transform="translate(-41.978 -65.151)" fill="#2bb3fc"/>
        <path id="Trazado_136506" data-name="Trazado 136506" d="M60.871,97.962s0-.009,0-.014c-.033-.03-.068-.056-.1-.09a.589.589,0,0,0,.06.247c.012-.048.024-.1.035-.144" transform="translate(-39.507 -63.613)" fill="#2bb3fc"/>
        <path id="Trazado_136507" data-name="Trazado 136507" d="M85.246,96.377a3.915,3.915,0,0,1-.162-.923c-.168.077-.313.234-.5.332a.819.819,0,0,0-.495.837,1.767,1.767,0,0,1-.074.5,2.874,2.874,0,0,1,.605-.324,2.721,2.721,0,0,0,.622-.418" transform="translate(-54.617 -62.05)" fill="#2bb3fc"/>
        <path id="Trazado_136508" data-name="Trazado 136508" d="M83.833,96.331a.819.819,0,0,1,.5-.837c.183-.1.328-.255.5-.332a3.914,3.914,0,0,0,.161.923c.033-.029.069-.052.1-.083a2.942,2.942,0,0,0-.266-1c-.321.212-.616.42-.924.607a.4.4,0,0,0-.194.382c-.013.325-.054.649-.084.973a.855.855,0,0,1,.141-.14,1.779,1.779,0,0,0,.074-.5" transform="translate(-54.356 -61.759)" fill="#2bb3fc"/>
        <path id="Trazado_136509" data-name="Trazado 136509" d="M85.256,98.256c-.012-.044-.022-.089-.035-.133,0-.01,0-.02-.006-.031a2.716,2.716,0,0,1-.622.418,2.881,2.881,0,0,0-.6.324c-.007.032-.011.063-.016.095.4-.138.752-.372,1.137-.539a.292.292,0,0,0,.147-.134" transform="translate(-54.586 -63.765)" fill="#2bb3fc"/>
        <path id="Trazado_136510" data-name="Trazado 136510" d="M83.742,100.309c.006-.032.01-.063.016-.095a.867.867,0,0,0-.14.14c.043-.012.082-.03.124-.045" transform="translate(-54.356 -65.144)" fill="#2bb3fc"/>
        <path id="Trazado_136511" data-name="Trazado 136511" d="M87.531,97.969c.013.044.023.089.035.133a.611.611,0,0,0,.059-.247c-.031.03-.068.054-.1.083,0,.01,0,.02.006.031" transform="translate(-56.896 -63.611)" fill="#2bb3fc"/>
        <path id="Trazado_136512" data-name="Trazado 136512" d="M94.287,65.381a.636.636,0,0,0-.455-.622c-.269-.113-.412-.107-.4.256.023.642.007,1.285.007,2a1.459,1.459,0,0,0,.848-1.63" transform="translate(-60.735 -42.055)" fill="#e58d79"/>
        <path id="Trazado_136513" data-name="Trazado 136513" d="M52.639,65.155a1.55,1.55,0,0,0,.823,1.857V65.136c0-.07,0-.139,0-.209,0-.122.016-.266-.177-.23a.744.744,0,0,0-.647.457" transform="translate(-34.168 -42.053)" fill="#e58d7a"/>
        <path id="Trazado_136514" data-name="Trazado 136514" d="M83.571,59.817a.26.26,0,0,1,.118.187.671.671,0,0,1,.668.319c-.061-.3.247-.727-.224-.878a5.338,5.338,0,0,1-2.071-1.309,6.279,6.279,0,0,0,1.51,1.682" transform="translate(-53.344 -37.791)" fill="#e48c78"/>
        <path id="Trazado_136515" data-name="Trazado 136515" d="M83.64,60.005h0c.017,0,.032,0,.048,0a.261.261,0,0,0-.118-.187,6.279,6.279,0,0,1-1.51-1.682,3.625,3.625,0,0,0,1.58,1.869" transform="translate(-53.343 -37.791)" fill="#e48c78"/>
        <path id="Trazado_136516" data-name="Trazado 136516" d="M86.712,63.467c0,.007,0,.015,0,.023l.666.3a.671.671,0,0,0-.668-.319" transform="translate(-56.367 -41.255)" fill="#e48c78"/>
        <path id="Trazado_136517" data-name="Trazado 136517" d="M86.575,63.475h0l.05.022c0-.008,0-.015,0-.023-.016,0-.031,0-.048,0" transform="translate(-56.278 -41.261)" fill="#e48c78"/>
        <path id="Trazado_136518" data-name="Trazado 136518" d="M54.561,90.342c-.344-.22-.683-.449-1.158-.762.335.926.632,1.7.912,2.523.117-.47.226-.941.354-1.407.043-.156.035-.262-.108-.354" transform="translate(-34.715 -58.232)" fill="#b4776e"/>
        <path id="Trazado_136519" data-name="Trazado 136519" d="M91.524,90.7c.128.466.237.937.391,1.555a25.052,25.052,0,0,1,.873-2.672c-.473.314-.811.545-1.156.765-.145.093-.15.2-.107.352" transform="translate(-59.48 -58.235)" fill="#b4776e"/>
        <path id="Trazado_136520" data-name="Trazado 136520" d="M7.806,7.113c.1-.327-.248-.334-.446-.434a.386.386,0,0,1-.082-.059v.536c.173-.133.438.244.529-.042" transform="translate(-4.73 -4.303)" fill="#eef5fc"/>
        <path id="Trazado_136521" data-name="Trazado 136521" d="M7.914,7.3a.29.29,0,0,0,.076-.375.516.516,0,0,0-.608-.366l-.1.015a.4.4,0,0,0,.082.059c.2.1.549.107.446.434-.091.286-.356-.091-.529.042.2.117.358.368.636.19" transform="translate(-4.731 -4.261)" fill="#eef5fc"/>
        <path id="Trazado_136522" data-name="Trazado 136522" d="M139.536,7.113c.1-.327-.248-.334-.445-.434a.379.379,0,0,1-.083-.059v.535c.173-.132.438.244.529-.042" transform="translate(-90.362 -4.303)" fill="#eef5fc"/>
        <path id="Trazado_136523" data-name="Trazado 136523" d="M139.644,7.3a.29.29,0,0,0,.076-.376.516.516,0,0,0-.608-.365l-.1.015a.381.381,0,0,0,.082.059c.2.1.549.107.445.434-.091.286-.356-.09-.529.042.2.118.358.368.636.19" transform="translate(-90.362 -4.261)" fill="#eef5fc"/>
        <path id="Trazado_136524" data-name="Trazado 136524" d="M38.408,99.244a8.976,8.976,0,0,0,.993,1.073,1.974,1.974,0,0,1,.716,1.394c.067.52.24.864.8.916.006.008.009.015.014.023a.036.036,0,0,1,.012-.012c.7-.3.694-.3.561-1.122a3.4,3.4,0,0,0-1.306-2.36,2.754,2.754,0,0,0-.893-.421c-.116-.033-.268-.025-.348-.124-.5-.071-.374.413-.548.632" transform="translate(-24.967 -64.098)"/>
        <path id="Trazado_136525" data-name="Trazado 136525" d="M38.887,98.338a.257.257,0,0,1-.052-.133c-.431-.085-.594.092-.514.518a.853.853,0,0,1-.012.205c0,.009.019.028.029.043.174-.219.044-.7.548-.632" transform="translate(-24.898 -63.824)"/>
        <path id="Trazado_136526" data-name="Trazado 136526" d="M40.866,103.816c-.559-.052-.732-.4-.8-.916a1.973,1.973,0,0,0-.716-1.394,9,9,0,0,1-.993-1.073c-.007.008-.011.018-.018.026l-.009.005c0,.2.005.4.014.6,0,.111-.04.253.152.27,1.056.1,1.323.866,1.473,1.733.132.76.131.76.889.8l.021-.029c-.005-.008-.008-.015-.014-.023" transform="translate(-24.916 -65.286)"/>
        <path id="Trazado_136527" data-name="Trazado 136527" d="M38.354,100.353c-.01-.014-.024-.033-.029-.043,0,.024,0,.049,0,.074l.01-.005c.007-.007.011-.018.017-.026" transform="translate(-24.913 -65.207)"/>
        <path id="Trazado_136528" data-name="Trazado 136528" d="M39.974,98.558c.08.1.231.091.348.124a2.754,2.754,0,0,1,.893.421,3.4,3.4,0,0,1,1.306,2.36c.133.824.135.824-.561,1.122a.04.04,0,0,0-.012.012l.016.026a.966.966,0,0,1,.274-.01c.516.1.552-.172.516-.581-.168-1.928-.876-2.931-2.531-3.509a.774.774,0,0,1-.242.035h-.007" transform="translate(-25.985 -64.045)"/>
        <path id="Trazado_136529" data-name="Trazado 136529" d="M39.878,98.376h.007a.774.774,0,0,0,.242-.035c-.1-.034-.2-.067-.3-.1a.257.257,0,0,0,.052.133" transform="translate(-25.889 -63.863)"/>
        <path id="Trazado_136530" data-name="Trazado 136530" d="M45.557,110.2l.036,0-.015-.025c-.007.009-.014.02-.021.029" transform="translate(-29.614 -71.613)"/>
        <path id="Trazado_136531" data-name="Trazado 136531" d="M103.694,98.629h-.005c-.07.082-.2.085-.3.112a2.91,2.91,0,0,0-2.1,2.131,8,8,0,0,0-.226,1.022c-.065.369-.035.674.455.674a.247.247,0,0,1,.19.1.118.118,0,0,0,0-.012c.532-.075.741-.377.812-.917a1.826,1.826,0,0,1,1.316-1.7.36.36,0,0,0,.264-.347.67.67,0,0,1,.127-.436.741.741,0,0,1-.124-.354c-.042-.241-.22-.267-.414-.271" transform="translate(-65.68 -64.113)"/>
        <path id="Trazado_136532" data-name="Trazado 136532" d="M108.618,98.331c.194,0,.372.03.414.271a.741.741,0,0,0,.124.354.26.26,0,0,1,.034-.038c-.063-.322.187-.873-.526-.723a.228.228,0,0,1-.051.135h.005" transform="translate(-70.604 -63.816)"/>
        <path id="Trazado_136533" data-name="Trazado 136533" d="M105.35,100.854a.36.36,0,0,1-.264.347,1.826,1.826,0,0,0-1.316,1.7c-.072.54-.28.842-.812.917,0,0,0,.008,0,.012s.02.015.027.027c.758-.04.753-.04.891-.8a4.469,4.469,0,0,1,.19-.754,1.243,1.243,0,0,1,.976-.915c.422-.051.506-.235.463-.594a1.916,1.916,0,0,1,.006-.344.33.33,0,0,1-.029-.034.671.671,0,0,0-.127.437" transform="translate(-66.925 -65.276)"/>
        <path id="Trazado_136534" data-name="Trazado 136534" d="M110.163,100.347a.375.375,0,0,0,.029.034c0-.024,0-.048,0-.072a.284.284,0,0,0-.034.038" transform="translate(-71.612 -65.206)"/>
        <path id="Trazado_136535" data-name="Trazado 136535" d="M101.257,102.5c-.49,0-.52-.306-.455-.674a7.992,7.992,0,0,1,.226-1.022,2.91,2.91,0,0,1,2.1-2.132c.1-.026.228-.029.3-.111a.835.835,0,0,1-.253-.038,3.2,3.2,0,0,0-.722.249,3.572,3.572,0,0,0-1.744,2.85c-.144.947-.15.959.73,1,0-.008.005-.016.009-.025a.247.247,0,0,0-.19-.1" transform="translate(-65.419 -64.042)"/>
        <path id="Trazado_136536" data-name="Trazado 136536" d="M108.193,98.243c-.1.038-.2.068-.3.1a.837.837,0,0,0,.253.038.229.229,0,0,0,.051-.135" transform="translate(-70.133 -63.863)"/>
        <path id="Trazado_136537" data-name="Trazado 136537" d="M102.928,110.2l.035,0c-.007-.011-.019-.016-.027-.026,0,.008-.005.016-.009.024" transform="translate(-66.908 -71.618)"/>
      </g>
    </g>
  </g>
</svg>
