<svg xmlns="http://www.w3.org/2000/svg" xmlns:xlink="http://www.w3.org/1999/xlink" width="375" height="357.375" viewBox="0 0 375 357.375">
  <defs>
    <clipPath id="clip-path">
      <rect id="Rectángulo_37599" data-name="Rectángulo 37599" width="57.283" height="57.302" fill="none"/>
    </clipPath>
    <clipPath id="clip-path-2">
      <rect id="Rectángulo_37601" data-name="Rectángulo 37601" width="54.5" height="53.491" fill="none"/>
    </clipPath>
    <clipPath id="clip-path-3">
      <rect id="Rectángulo_37595" data-name="Rectángulo 37595" width="32.788" height="36.416" fill="none"/>
    </clipPath>
    <clipPath id="clip-path-5">
      <rect id="Rectángulo_37596" data-name="Rectángulo 37596" width="29.044" height="34.437" fill="none"/>
    </clipPath>
  </defs>
  <g id="Grupo_161680" data-name="Grupo 161680" transform="translate(7369 4906.375)">
    <path id="Trazado_142376" data-name="Trazado 142376" d="M16.918,17a2.281,2.281,0,0,1-.086-.766,2.863,2.863,0,0,1-2.156.922,2.594,2.594,0,0,1-1.84-.723,2.186,2.186,0,0,1-.684-1.746,2.527,2.527,0,0,1,1.16-2.121,5.266,5.266,0,0,1,2.965-.738l1.031.016.109-.508a1.764,1.764,0,0,0,.023-.492.846.846,0,0,0-.277-.574.955.955,0,0,0-.629-.215,1.345,1.345,0,0,0-.875.254,1.231,1.231,0,0,0-.461.777l-2.211.008A2.457,2.457,0,0,1,14.1,9.129a4.312,4.312,0,0,1,2.613-.738,3.117,3.117,0,0,1,2.25.855,2.5,2.5,0,0,1,.68,2.121L19,15.414l-.039.5a2.412,2.412,0,0,0,.133.938L19.082,17Zm-1.7-1.555a2.017,2.017,0,0,0,1.664-.828l.273-1.461-.766-.008a2.139,2.139,0,0,0-1.758.742,1.292,1.292,0,0,0-.242.633.75.75,0,0,0,.176.668A.891.891,0,0,0,15.223,15.445Zm8.906-.1a1.447,1.447,0,0,0,1.016-.332,1.632,1.632,0,0,0,.531-.926l2.07-.008a3.037,3.037,0,0,1-.559,1.6,3.394,3.394,0,0,1-1.344,1.109,3.847,3.847,0,0,1-1.77.375A3.123,3.123,0,0,1,21.637,16.1a3.965,3.965,0,0,1-.867-2.766l.023-.43.008-.086a5.284,5.284,0,0,1,1.391-3.27,3.761,3.761,0,0,1,2.914-1.16,3.047,3.047,0,0,1,2.27.934A3.3,3.3,0,0,1,28.2,11.7H26.145a1.73,1.73,0,0,0-.3-1.07,1.128,1.128,0,0,0-.891-.422q-1.578-.047-1.914,2.3a7.782,7.782,0,0,0-.086,1.438Q23.035,15.32,24.129,15.344Zm10.258-4.68a4.548,4.548,0,0,0-.742-.078,2.136,2.136,0,0,0-1.867.883L30.8,17H28.6l1.469-8.453,2.07-.008-.2,1.031a2.325,2.325,0,0,1,1.969-1.2,3.214,3.214,0,0,1,.766.109Zm4.508-2.273a3.39,3.39,0,0,1,1.926.574A3.234,3.234,0,0,1,42.008,10.5a4.762,4.762,0,0,1,.27,2.176,5.143,5.143,0,0,1-1.4,3.262,3.96,3.96,0,0,1-3.02,1.215,3.38,3.38,0,0,1-1.906-.566,3.222,3.222,0,0,1-1.187-1.527,4.657,4.657,0,0,1-.273-2.156A5.3,5.3,0,0,1,35.91,9.578,3.878,3.878,0,0,1,38.895,8.391Zm-2.227,5.315a1.95,1.95,0,0,0,.352,1.182,1.168,1.168,0,0,0,.945.449,1.712,1.712,0,0,0,1.594-.932,4.647,4.647,0,0,0,.539-2.531,2.122,2.122,0,0,0-.363-1.2,1.149,1.149,0,0,0-.949-.464,1.715,1.715,0,0,0-1.574.924A4.6,4.6,0,0,0,36.668,13.706Zm11.141.912q.125-.625-.867-.906l-.711-.18q-2.523-.7-2.453-2.453a2.428,2.428,0,0,1,1.059-1.949,3.942,3.942,0,0,1,2.457-.738,3.536,3.536,0,0,1,2.313.758,2.5,2.5,0,0,1,.9,1.977l-2.187-.008a.963.963,0,0,0-1.078-1.1,1.552,1.552,0,0,0-.895.258,1.061,1.061,0,0,0-.465.7q-.117.625.945.883l.313.07a6.285,6.285,0,0,1,1.648.59,2.488,2.488,0,0,1,.879.824,2.04,2.04,0,0,1,.285,1.18,2.251,2.251,0,0,1-.52,1.406,3.18,3.18,0,0,1-1.359.93,4.736,4.736,0,0,1-1.816.3,3.568,3.568,0,0,1-2.344-.809,2.607,2.607,0,0,1-.953-2.051l2.078.016a1.142,1.142,0,0,0,1.3,1.227,1.845,1.845,0,0,0,1-.25A.987.987,0,0,0,47.809,14.617Zm8.055,0q.125-.625-.867-.906l-.711-.18q-2.523-.7-2.453-2.453a2.428,2.428,0,0,1,1.059-1.949,3.942,3.942,0,0,1,2.457-.738,3.536,3.536,0,0,1,2.313.758,2.5,2.5,0,0,1,.9,1.977l-2.187-.008a.963.963,0,0,0-1.078-1.1,1.552,1.552,0,0,0-.895.258,1.061,1.061,0,0,0-.465.7q-.117.625.945.883l.313.07a6.285,6.285,0,0,1,1.648.59,2.488,2.488,0,0,1,.879.824A2.04,2.04,0,0,1,58,14.516a2.251,2.251,0,0,1-.52,1.406,3.18,3.18,0,0,1-1.359.93,4.736,4.736,0,0,1-1.816.3,3.568,3.568,0,0,1-2.344-.809,2.607,2.607,0,0,1-.953-2.051l2.078.016a1.142,1.142,0,0,0,1.3,1.227,1.845,1.845,0,0,0,1-.25A.987.987,0,0,0,55.863,14.617Z" transform="translate(-7242 -4748)" fill="#ffd947"/>
    <path id="Trazado_142377" data-name="Trazado 142377" d="M21.973,17H19.754L16.59,9.414,15.27,17H12.98L14.957,5.625h2.211l3.172,7.6,1.32-7.6h2.281Zm5.922.156a3.677,3.677,0,0,1-1.965-.543,3.292,3.292,0,0,1-1.277-1.469,4.093,4.093,0,0,1-.328-2.059l.023-.312a5.465,5.465,0,0,1,.719-2.266,4.341,4.341,0,0,1,1.547-1.59,3.827,3.827,0,0,1,2.094-.527,2.924,2.924,0,0,1,2.473,1.2,4.117,4.117,0,0,1,.637,2.962l-.125.962h-5.18a1.814,1.814,0,0,0,.4,1.313,1.521,1.521,0,0,0,1.172.508,2.7,2.7,0,0,0,2.109-.937l1.008,1.25a3.135,3.135,0,0,1-1.375,1.121A4.5,4.5,0,0,1,27.895,17.156Zm.7-6.945a1.565,1.565,0,0,0-1.082.383,3.363,3.363,0,0,0-.848,1.383H29.7l.047-.2a2.071,2.071,0,0,0,.008-.594,1.134,1.134,0,0,0-.383-.707A1.2,1.2,0,0,0,28.6,10.211Zm7.82.844,1.773-2.508h2.477L37.605,12.8,39.316,17H37.082l-1.039-2.641L34.176,17H31.684l3.188-4.422L33.238,8.547h2.234Zm12.32-4.586-.367,2.078h1.406L49.488,10.2H48.082l-.719,4.234a1.077,1.077,0,0,0,.063.609q.109.211.531.227.125.008.672-.039l-.156,1.727a3.706,3.706,0,0,1-1.266.18,1.985,1.985,0,0,1-1.617-.68,2.456,2.456,0,0,1-.437-1.8l.727-4.461h-1.2l.289-1.656h1.2l.359-2.078Zm5.453,1.922a3.39,3.39,0,0,1,1.926.574A3.234,3.234,0,0,1,57.3,10.5a4.762,4.762,0,0,1,.27,2.176,5.143,5.143,0,0,1-1.4,3.262,3.96,3.96,0,0,1-3.02,1.215,3.38,3.38,0,0,1-1.906-.566,3.222,3.222,0,0,1-1.187-1.527,4.657,4.657,0,0,1-.273-2.156,5.3,5.3,0,0,1,1.422-3.328A3.878,3.878,0,0,1,54.191,8.391Zm-2.227,5.315a1.95,1.95,0,0,0,.352,1.182,1.168,1.168,0,0,0,.945.449,1.712,1.712,0,0,0,1.594-.932,4.647,4.647,0,0,0,.539-2.531,2.122,2.122,0,0,0-.363-1.2,1.149,1.149,0,0,0-.949-.464,1.715,1.715,0,0,0-1.574.924A4.6,4.6,0,0,0,51.965,13.706Z" transform="translate(-7327 -4912)" fill="#ffd947"/>
    <path id="Trazado_136139" data-name="Trazado 136139" d="M11,0H156a11,11,0,0,1,11,11v99a11,11,0,0,1-11,11H11A11,11,0,0,1,0,110V11A11,11,0,0,1,11,0Z" transform="translate(-7369 -4885)" fill="#ffbfc1"/>
    <path id="Trazado_142378" data-name="Trazado 142378" d="M11,0H187a11,11,0,0,1,11,11v99a11,11,0,0,1-11,11H11A11,11,0,0,1,0,110V11A11,11,0,0,1,11,0Z" transform="translate(-7202 -4885)" fill="#c4d1ff"/>
    <path id="Trazado_136138" data-name="Trazado 136138" d="M0,0H354a11,11,0,0,1,11,11V162a11,11,0,0,1-11,11H0Z" transform="translate(-7369 -4722)" fill="#fff7da"/>
    <path id="Trazado_142379" data-name="Trazado 142379" d="M3.156,12.992,2.453,17H.164L2.141,5.625l3.984.008a3.986,3.986,0,0,1,2.9,1.023,3.174,3.174,0,0,1,.922,2.672A3.592,3.592,0,0,1,8.551,12a5.075,5.075,0,0,1-3.238,1Zm.32-1.9,1.906.016a2.41,2.41,0,0,0,1.531-.477,1.918,1.918,0,0,0,.727-1.289,1.646,1.646,0,0,0-.262-1.3,1.418,1.418,0,0,0-1.121-.516L4.1,7.523ZM14.914,17a2.281,2.281,0,0,1-.086-.766,2.863,2.863,0,0,1-2.156.922,2.594,2.594,0,0,1-1.84-.723,2.186,2.186,0,0,1-.684-1.746,2.527,2.527,0,0,1,1.16-2.121,5.266,5.266,0,0,1,2.965-.738l1.031.016.109-.508a1.764,1.764,0,0,0,.023-.492.846.846,0,0,0-.277-.574.955.955,0,0,0-.629-.215,1.345,1.345,0,0,0-.875.254,1.231,1.231,0,0,0-.461.777l-2.211.008A2.457,2.457,0,0,1,12.1,9.129a4.312,4.312,0,0,1,2.613-.738,3.117,3.117,0,0,1,2.25.855,2.5,2.5,0,0,1,.68,2.121l-.648,4.047-.039.5a2.412,2.412,0,0,0,.133.938L17.078,17Zm-1.7-1.555a2.017,2.017,0,0,0,1.664-.828l.273-1.461-.766-.008a2.139,2.139,0,0,0-1.758.742,1.292,1.292,0,0,0-.242.633.75.75,0,0,0,.176.668A.891.891,0,0,0,13.219,15.445Zm10.992-4.781a4.548,4.548,0,0,0-.742-.078,2.136,2.136,0,0,0-1.867.883L20.625,17h-2.2l1.469-8.453,2.07-.008-.2,1.031a2.325,2.325,0,0,1,1.969-1.2,3.214,3.214,0,0,1,.766.109Zm3.609,2.969-1.023.891L26.367,17h-2.2L26.242,5h2.211l-1.141,6.516.43-.461L30.25,8.547h2.828l-3.7,3.633L31.734,17H29.32Z" transform="translate(-7214 -4645)" fill="#12263f"/>
    <path id="Trazado_142380" data-name="Trazado 142380" d="M5.512,12.992,4.809,17H2.52L4.5,5.625l3.984.008a3.986,3.986,0,0,1,2.9,1.023A3.174,3.174,0,0,1,12.3,9.328,3.592,3.592,0,0,1,10.906,12a5.075,5.075,0,0,1-3.238,1Zm.32-1.9,1.906.016a2.41,2.41,0,0,0,1.531-.477A1.918,1.918,0,0,0,10,9.344a1.646,1.646,0,0,0-.262-1.3,1.418,1.418,0,0,0-1.121-.516L6.457,7.523ZM17.2,8.391a3.39,3.39,0,0,1,1.926.574A3.234,3.234,0,0,1,20.313,10.5a4.762,4.762,0,0,1,.27,2.176,5.143,5.143,0,0,1-1.4,3.262,3.96,3.96,0,0,1-3.02,1.215,3.38,3.38,0,0,1-1.906-.566,3.222,3.222,0,0,1-1.187-1.527,4.657,4.657,0,0,1-.273-2.156,5.3,5.3,0,0,1,1.422-3.328A3.878,3.878,0,0,1,17.2,8.391Zm-2.227,5.315a1.95,1.95,0,0,0,.352,1.182,1.168,1.168,0,0,0,.945.449,1.712,1.712,0,0,0,1.594-.932,4.647,4.647,0,0,0,.539-2.531,2.122,2.122,0,0,0-.363-1.2,1.149,1.149,0,0,0-.949-.464,1.715,1.715,0,0,0-1.574.924A4.6,4.6,0,0,0,14.973,13.706ZM23.543,17H21.324L23.41,5h2.211Zm4.2,0H25.52l1.469-8.453h2.219ZM27.246,6.4a1.1,1.1,0,0,1,.344-.867,1.323,1.323,0,0,1,1.734-.039,1.1,1.1,0,0,1,.383.828,1.132,1.132,0,0,1-.324.844,1.215,1.215,0,0,1-.887.375,1.235,1.235,0,0,1-.863-.3A1.091,1.091,0,0,1,27.246,6.4Zm6.063,8.945a1.447,1.447,0,0,0,1.016-.332,1.632,1.632,0,0,0,.531-.926l2.07-.008a3.037,3.037,0,0,1-.559,1.6,3.394,3.394,0,0,1-1.344,1.109,3.847,3.847,0,0,1-1.77.375A3.123,3.123,0,0,1,30.816,16.1a3.965,3.965,0,0,1-.867-2.766l.023-.43.008-.086a5.284,5.284,0,0,1,1.391-3.27,3.761,3.761,0,0,1,2.914-1.16,3.047,3.047,0,0,1,2.27.934,3.3,3.3,0,0,1,.824,2.379H35.324a1.73,1.73,0,0,0-.3-1.07,1.128,1.128,0,0,0-.891-.422q-1.578-.047-1.914,2.3a7.782,7.782,0,0,0-.086,1.438Q32.215,15.32,33.309,15.344Zm8.484,1.813a3.677,3.677,0,0,1-1.965-.543,3.292,3.292,0,0,1-1.277-1.469,4.093,4.093,0,0,1-.328-2.059l.023-.312a5.465,5.465,0,0,1,.719-2.266,4.341,4.341,0,0,1,1.547-1.59,3.827,3.827,0,0,1,2.094-.527,2.924,2.924,0,0,1,2.473,1.2,4.117,4.117,0,0,1,.637,2.962l-.125.962H40.41a1.814,1.814,0,0,0,.4,1.313,1.521,1.521,0,0,0,1.172.508A2.7,2.7,0,0,0,44.09,14.4l1.008,1.25a3.135,3.135,0,0,1-1.375,1.121A4.5,4.5,0,0,1,41.793,17.156Zm.7-6.945a1.565,1.565,0,0,0-1.082.383,3.363,3.363,0,0,0-.848,1.383H43.6l.047-.2a2.071,2.071,0,0,0,.008-.594,1.134,1.134,0,0,0-.383-.707A1.2,1.2,0,0,0,42.5,10.211Zm14.094,3.75q.164-.93-.914-1.422l-1.508-.6q-2.625-1.172-2.492-3.227A2.964,2.964,0,0,1,52.3,7.023a3.758,3.758,0,0,1,1.6-1.152,5.67,5.67,0,0,1,2.227-.4,3.857,3.857,0,0,1,2.664.98,3.267,3.267,0,0,1,1,2.543H57.512a1.628,1.628,0,0,0-.34-1.2A1.531,1.531,0,0,0,56,7.344a2.37,2.37,0,0,0-1.359.355,1.458,1.458,0,0,0-.687,1.02Q53.8,9.57,55.09,10.07l1.031.391.594.273q2.3,1.141,2.156,3.2a3.09,3.09,0,0,1-.645,1.738A3.633,3.633,0,0,1,56.664,16.8a5.565,5.565,0,0,1-2.176.367,4.873,4.873,0,0,1-2.156-.508,3.349,3.349,0,0,1-1.437-1.367,3.54,3.54,0,0,1-.43-1.875l2.289.008q-.109,1.852,1.82,1.883a2.392,2.392,0,0,0,1.375-.367A1.43,1.43,0,0,0,56.59,13.961Zm7.688-7.492L63.91,8.547h1.406L65.027,10.2H63.621L62.9,14.438a1.077,1.077,0,0,0,.063.609q.109.211.531.227.125.008.672-.039l-.156,1.727a3.706,3.706,0,0,1-1.266.18,1.985,1.985,0,0,1-1.617-.68,2.456,2.456,0,0,1-.437-1.8l.727-4.461h-1.2l.289-1.656h1.2l.359-2.078ZM70.02,17a2.281,2.281,0,0,1-.086-.766,2.863,2.863,0,0,1-2.156.922,2.594,2.594,0,0,1-1.84-.723,2.186,2.186,0,0,1-.684-1.746,2.527,2.527,0,0,1,1.16-2.121,5.266,5.266,0,0,1,2.965-.738l1.031.016.109-.508a1.764,1.764,0,0,0,.023-.492.846.846,0,0,0-.277-.574.955.955,0,0,0-.629-.215,1.345,1.345,0,0,0-.875.254,1.231,1.231,0,0,0-.461.777l-2.211.008A2.457,2.457,0,0,1,67.2,9.129a4.312,4.312,0,0,1,2.613-.738,3.117,3.117,0,0,1,2.25.855,2.5,2.5,0,0,1,.68,2.121L72.1,15.414l-.039.5a2.412,2.412,0,0,0,.133.938L72.184,17Zm-1.7-1.555a2.017,2.017,0,0,0,1.664-.828l.273-1.461-.766-.008a2.139,2.139,0,0,0-1.758.742,1.292,1.292,0,0,0-.242.633.75.75,0,0,0,.176.668A.891.891,0,0,0,68.324,15.445ZM78,6.469l-.367,2.078h1.406L78.746,10.2H77.34l-.719,4.234a1.077,1.077,0,0,0,.063.609q.109.211.531.227.125.008.672-.039l-.156,1.727a3.706,3.706,0,0,1-1.266.18,1.985,1.985,0,0,1-1.617-.68,2.456,2.456,0,0,1-.437-1.8l.727-4.461h-1.2l.289-1.656h1.2l.359-2.078ZM81.176,17H78.957l1.469-8.453h2.219ZM80.684,6.4a1.1,1.1,0,0,1,.344-.867,1.323,1.323,0,0,1,1.734-.039,1.1,1.1,0,0,1,.383.828,1.132,1.132,0,0,1-.324.844,1.215,1.215,0,0,1-.887.375,1.235,1.235,0,0,1-.863-.3A1.091,1.091,0,0,1,80.684,6.4Zm7.2,1.992a3.39,3.39,0,0,1,1.926.574A3.234,3.234,0,0,1,90.992,10.5a4.762,4.762,0,0,1,.27,2.176,5.143,5.143,0,0,1-1.4,3.262,3.96,3.96,0,0,1-3.02,1.215,3.38,3.38,0,0,1-1.906-.566,3.222,3.222,0,0,1-1.187-1.527,4.657,4.657,0,0,1-.273-2.156,5.3,5.3,0,0,1,1.422-3.328A3.878,3.878,0,0,1,87.879,8.391Zm-2.227,5.315A1.95,1.95,0,0,0,86,14.887a1.168,1.168,0,0,0,.945.449,1.712,1.712,0,0,0,1.594-.932,4.647,4.647,0,0,0,.539-2.531,2.122,2.122,0,0,0-.363-1.2,1.149,1.149,0,0,0-.949-.464,1.715,1.715,0,0,0-1.574.924A4.6,4.6,0,0,0,85.652,13.706Zm9.727-5.167-.187,1a3.042,3.042,0,0,1,2.461-1.148,2.028,2.028,0,0,1,1.766.875,3.526,3.526,0,0,1,.414,2.359L98.941,17h-2.2l.906-5.4a2.528,2.528,0,0,0,.016-.555.9.9,0,0,0-1-.82,1.9,1.9,0,0,0-1.555.8L94.051,17h-2.2l1.469-8.453Z" transform="translate(-7154 -4807)" fill="#12263f"/>
    <path id="Trazado_142381" data-name="Trazado 142381" d="M12.777,12.992,12.074,17H9.785L11.762,5.625l3.984.008a3.986,3.986,0,0,1,2.9,1.023,3.174,3.174,0,0,1,.922,2.672A3.592,3.592,0,0,1,18.172,12a5.075,5.075,0,0,1-3.238,1Zm.32-1.9L15,11.109a2.41,2.41,0,0,0,1.531-.477,1.918,1.918,0,0,0,.727-1.289A1.646,1.646,0,0,0,17,8.047a1.418,1.418,0,0,0-1.121-.516l-2.156-.008Zm11.367-2.7a3.39,3.39,0,0,1,1.926.574A3.234,3.234,0,0,1,27.578,10.5a4.762,4.762,0,0,1,.27,2.176,5.143,5.143,0,0,1-1.4,3.262,3.96,3.96,0,0,1-3.02,1.215,3.38,3.38,0,0,1-1.906-.566,3.222,3.222,0,0,1-1.187-1.527,4.657,4.657,0,0,1-.273-2.156A5.3,5.3,0,0,1,21.48,9.578,3.878,3.878,0,0,1,24.465,8.391Zm-2.227,5.315a1.95,1.95,0,0,0,.352,1.182,1.168,1.168,0,0,0,.945.449,1.712,1.712,0,0,0,1.594-.932,4.647,4.647,0,0,0,.539-2.531,2.122,2.122,0,0,0-.363-1.2,1.149,1.149,0,0,0-.949-.464,1.715,1.715,0,0,0-1.574.924A4.6,4.6,0,0,0,22.238,13.706Zm11.141.912q.125-.625-.867-.906l-.711-.18q-2.523-.7-2.453-2.453a2.428,2.428,0,0,1,1.059-1.949,3.942,3.942,0,0,1,2.457-.738,3.536,3.536,0,0,1,2.313.758,2.5,2.5,0,0,1,.9,1.977l-2.187-.008a.963.963,0,0,0-1.078-1.1,1.552,1.552,0,0,0-.895.258,1.061,1.061,0,0,0-.465.7q-.117.625.945.883l.313.07a6.285,6.285,0,0,1,1.648.59,2.488,2.488,0,0,1,.879.824,2.04,2.04,0,0,1,.285,1.18A2.251,2.251,0,0,1,35,15.922a3.18,3.18,0,0,1-1.359.93,4.736,4.736,0,0,1-1.816.3,3.568,3.568,0,0,1-2.344-.809,2.607,2.607,0,0,1-.953-2.051l2.078.016a1.142,1.142,0,0,0,1.3,1.227,1.845,1.845,0,0,0,1-.25A.987.987,0,0,0,33.379,14.617ZM41,6.469l-.367,2.078h1.406L41.754,10.2H40.348l-.719,4.234a1.077,1.077,0,0,0,.063.609q.109.211.531.227.125.008.672-.039l-.156,1.727a3.706,3.706,0,0,1-1.266.18,1.985,1.985,0,0,1-1.617-.68,2.456,2.456,0,0,1-.437-1.8l.727-4.461h-1.2l.289-1.656h1.2l.359-2.078Zm9.508,10.688a4.008,4.008,0,0,1-2-.535,3.612,3.612,0,0,1-1.367-1.477,5.468,5.468,0,0,1-.582-2.215A8.9,8.9,0,0,1,46.84,10.2,7.3,7.3,0,0,1,48,7.641a5.256,5.256,0,0,1,1.871-1.648,4.844,4.844,0,0,1,2.324-.523,3.966,3.966,0,0,1,2.008.543A3.587,3.587,0,0,1,55.551,7.5a5.532,5.532,0,0,1,.563,2.207,9.188,9.188,0,0,1-.3,2.828,7.177,7.177,0,0,1-1.164,2.516A5.216,5.216,0,0,1,52.8,16.648,4.83,4.83,0,0,1,50.512,17.156ZM53.754,11l.063-.742a3.626,3.626,0,0,0-.371-2.109,1.567,1.567,0,0,0-1.363-.75,2.473,2.473,0,0,0-2.27,1.266,7.455,7.455,0,0,0-.949,3.672,3.762,3.762,0,0,0,.367,2.129,1.563,1.563,0,0,0,1.383.777,2.345,2.345,0,0,0,2.031-.957A5.79,5.79,0,0,0,53.7,11.422Zm3.438,6,1.18-6.8H57.152l.289-1.648,1.219-.008L58.77,7.7a3.332,3.332,0,0,1,1.1-2.121A3.334,3.334,0,0,1,62.16,4.82a7.33,7.33,0,0,1,1.2.163l-.2,1.751a2.732,2.732,0,0,0-.648-.094,1.615,1.615,0,0,0-1,.3,1.355,1.355,0,0,0-.52.918l-.117.69H62.5L62.215,10.2H60.59L59.41,17Zm5.578,0,1.18-6.8H62.723l.3-1.656H64.16l.07-.406a3.973,3.973,0,0,1,1.352-2.465,4.1,4.1,0,0,1,2.727-.855,6.635,6.635,0,0,1,1.27.152q.621.137,1.238.309L70.34,7.164a6.438,6.438,0,0,0-1.992-.391,2.08,2.08,0,0,0-1.273.371,1.7,1.7,0,0,0-.648,1.043l-.07.359h1.711l-.3,1.656H66.16L64.98,17Zm7.117,0H67.668l1.469-8.453h2.211Zm5.578-1.656a1.447,1.447,0,0,0,1.016-.332,1.632,1.632,0,0,0,.531-.926l2.07-.008a3.037,3.037,0,0,1-.559,1.6,3.394,3.394,0,0,1-1.344,1.109,3.847,3.847,0,0,1-1.77.375A3.123,3.123,0,0,1,72.973,16.1a3.965,3.965,0,0,1-.867-2.766l.023-.43.008-.086a5.284,5.284,0,0,1,1.391-3.27,3.761,3.761,0,0,1,2.914-1.16,3.047,3.047,0,0,1,2.27.934,3.3,3.3,0,0,1,.824,2.379H77.48a1.73,1.73,0,0,0-.3-1.07,1.128,1.128,0,0,0-.891-.422q-1.578-.047-1.914,2.3a7.782,7.782,0,0,0-.086,1.438Q74.371,15.32,75.465,15.344Zm8.484,1.813a3.677,3.677,0,0,1-1.965-.543,3.292,3.292,0,0,1-1.277-1.469,4.093,4.093,0,0,1-.328-2.059l.023-.312a5.465,5.465,0,0,1,.719-2.266,4.341,4.341,0,0,1,1.547-1.59,3.827,3.827,0,0,1,2.094-.527,2.924,2.924,0,0,1,2.473,1.2,4.117,4.117,0,0,1,.637,2.962l-.125.962h-5.18a1.814,1.814,0,0,0,.4,1.313,1.521,1.521,0,0,0,1.172.508,2.7,2.7,0,0,0,2.109-.937l1.008,1.25a3.135,3.135,0,0,1-1.375,1.121A4.5,4.5,0,0,1,83.949,17.156Zm.7-6.945a1.565,1.565,0,0,0-1.082.383,3.363,3.363,0,0,0-.848,1.383h3.031l.047-.2a2.071,2.071,0,0,0,.008-.594,1.134,1.134,0,0,0-.383-.707A1.2,1.2,0,0,0,84.652,10.211Z" transform="translate(-7334 -4807)" fill="#12263f"/>
    <g id="Grupo_158992" data-name="Grupo 158992" transform="translate(-7202.082 -4895.155)">
      <g id="Rectángulo_37565" data-name="Rectángulo 37565" transform="translate(0.082 0.155)" fill="none" stroke="#ffd947" stroke-width="2">
        <rect width="208" height="141" rx="15" stroke="none"/>
        <rect x="1" y="1" width="206" height="139" rx="14" fill="none"/>
      </g>
      <path id="Polígono_15" data-name="Polígono 15" d="M9.723,0l9.723,16.53H0Z" transform="translate(108.306 156.062) rotate(180)" fill="#ffd947"/>
    </g>
    <path id="Trazado_142382" data-name="Trazado 142382" d="M0,0H247.948" transform="translate(-7251.186 -4895.155)" fill="none" stroke="#ffd947" stroke-width="2"/>
    <path id="Trazado_142383" data-name="Trazado 142383" d="M7.15,0,14.3,12.154H0Z" transform="translate(-7259.937 -4888.005) rotate(-90)" fill="#ffd947"/>
    <g id="Grupo_159110" data-name="Grupo 159110" transform="translate(-7314 -4871.4)">
      <g id="Grupo_159066" data-name="Grupo 159066" clip-path="url(#clip-path)">
        <path id="Trazado_136164" data-name="Trazado 136164" d="M56.5,57.3H.844c-.7-.239-.835-.419-.835-1.175Q.006,39.865,0,23.6a1.656,1.656,0,0,1,.756-1.348q2.752-2.239,5.507-4.474c1.259-1.021,2.5-2.06,3.779-3.057a1.353,1.353,0,0,0,.605-1.287,10.9,10.9,0,0,1-.006-1.228c.015-1.06.484-1.54,1.533-1.556.745-.011,1.49-.015,2.235,0a1.576,1.576,0,0,0,1.076-.38Q21.256,5.6,27.013.9c.216-.177.431-.356.651-.527a1.544,1.544,0,0,1,2-.007c2.615,2.1,5.2,4.23,7.805,6.341,1.461,1.184,2.924,2.367,4.375,3.563a1.623,1.623,0,0,0,1.129.388c.744-.019,1.49-.015,2.234,0A1.334,1.334,0,0,1,46.7,12.139c.012.484.022.97,0,1.453a1.123,1.123,0,0,0,.469,1.007q3.653,2.945,7.287,5.915c.737.6,1.48,1.19,2.211,1.8a1.778,1.778,0,0,1,.617.9v33.31a.877.877,0,0,1-.782.783" transform="translate(0 0)"/>
        <path id="Trazado_136165" data-name="Trazado 136165" d="M151.844,152.678a2.4,2.4,0,0,0,.782-.783c0,.783,0,.783-.782.783" transform="translate(-95.344 -95.376)" fill="#f2f2f2"/>
        <path id="Trazado_136166" data-name="Trazado 136166" d="M50.666,35.023c5.026,0,10.053.006,15.079-.01.426,0,.551.091.549.538q-.027,6.982,0,13.965a.74.74,0,0,1-.482.8q-7.393,3.578-14.765,7.2a.819.819,0,0,1-.819-.005Q42.8,53.862,35.363,50.252a.584.584,0,0,1-.379-.628q.013-7.066,0-14.132c0-.4.117-.479.5-.478q7.6.02,15.191.009" transform="translate(-21.964 -21.985)" fill="#cae5f6"/>
        <path id="Trazado_136167" data-name="Trazado 136167" d="M55.655,116.784H40.124a3.921,3.921,0,0,0-.558.015,1.112,1.112,0,0,0,0,2.2,4.259,4.259,0,0,0,.613.016q8.578,0,17.154-.008a1.151,1.151,0,0,1,.921.383c.567.59,1.178,1.139,1.885,1.813H10.476c.729-.734,1.417-1.447,2.135-2.128.1-.1.355-.058.537-.058q8.577,0,17.154,0c.186,0,.374.01.559-.008a1.113,1.113,0,0,0-.017-2.221c-.166-.015-.335-.006-.5-.006H14.958c.042-.212.194-.3.3-.407q5.259-5.33,10.515-10.663a.64.64,0,0,1,.895-.157c2.563,1.274,5.149,2.5,7.709,3.781a1.757,1.757,0,0,0,1.734.012c2.593-1.295,5.207-2.55,7.81-3.826.25-.123.428-.193.676.06,3.643,3.706,7.3,7.4,11.057,11.2" transform="translate(-6.578 -66.189)" fill="#f9c700"/>
        <path id="Trazado_136168" data-name="Trazado 136168" d="M21.41,89.931,6.271,105.256V82.544L21.41,89.931" transform="translate(-3.938 -51.83)" fill="#f9c700"/>
        <path id="Trazado_136169" data-name="Trazado 136169" d="M122.314,105.265,107.173,89.937l15.141-7.388Z" transform="translate(-67.295 -51.833)" fill="#f9c700"/>
        <path id="Trazado_136170" data-name="Trazado 136170" d="M6.152,68.081l6.537,3.188q9.49,4.628,18.975,9.267a1.778,1.778,0,0,0,1.731,0q12.358-6.056,24.732-12.077c.231-.113.464-.22.774-.366,0,.922-.009,1.785.005,2.649.005.32-.255.339-.435.427q-5.629,2.759-11.265,5.5-7.086,3.456-14.167,6.919a1.034,1.034,0,0,1-1.025-.007q-12.661-6.2-25.339-12.361a.8.8,0,0,1-.535-.877c.039-.724.011-1.451.011-2.268" transform="translate(-3.854 -42.748)" fill="#feafb7"/>
        <path id="Trazado_136171" data-name="Trazado 136171" d="M50.056,15.373c3.349-2.724,6.57-5.34,9.784-7.964.189-.154.306-.184.513-.015q4.776,3.9,9.566,7.79a1.776,1.776,0,0,1,.157.188c-1.005,0-1.944,0-2.882,0-.215,0-.335-.148-.474-.262q-2.806-2.3-5.607-4.607c-.82-.675-1.2-.675-2-.012q-2.823,2.324-5.65,4.643a.721.721,0,0,1-.481.24c-.923-.01-1.846,0-2.922,0" transform="translate(-31.43 -4.571)" fill="#feafb7"/>
        <path id="Trazado_136172" data-name="Trazado 136172" d="M8.737,52.287l7.537-6.128c0,.9,0,1.7,0,2.5,0,.181-.154.244-.263.334-1.636,1.348-3.279,2.689-4.91,4.044a.518.518,0,0,1-.683.077c-.531-.295-1.087-.542-1.681-.832" transform="translate(-5.486 -28.983)" fill="#feafb7"/>
        <path id="Trazado_136173" data-name="Trazado 136173" d="M125.106,46.137l7.546,6.138c-.658.322-1.257.608-1.848.911-.2.1-.309,0-.439-.107q-2.523-2.072-5.049-4.141a.484.484,0,0,1-.215-.416c.01-.757,0-1.515,0-2.385" transform="translate(-78.552 -28.97)" fill="#feafb7"/>
        <path id="Trazado_136174" data-name="Trazado 136174" d="M74.766,24.422h-6.75c.291-.246.518-.443.75-.634.776-.639,1.559-1.268,2.326-1.916.2-.171.332-.211.559-.019.993.841,2.007,1.659,3.115,2.569" transform="translate(-42.708 -13.642)" fill="#f99500"/>
        <path id="Trazado_136175" data-name="Trazado 136175" d="M125.172,65.3V61.029l3.267,2.678L125.172,65.3" transform="translate(-78.596 -38.32)" fill="#f99500"/>
        <path id="Trazado_136176" data-name="Trazado 136176" d="M23.42,65.309l-3.234-1.576,3.234-2.662Z" transform="translate(-12.675 -38.347)" fill="#f99500"/>
        <path id="Trazado_136177" data-name="Trazado 136177" d="M66.253,53.565a4.123,4.123,0,0,1-.415.558,2.651,2.651,0,0,1-2.992.561,2,2,0,0,1-1.332-1.944,1.939,1.939,0,0,1,1.27-1.92,6.139,6.139,0,0,1,2.736-.41c.4.014.521-.1.458-.506A1.166,1.166,0,0,0,65,48.843a3.1,3.1,0,0,0-2.01.258c-.375.17-.713.248-.947-.2a.82.82,0,0,1,.207-1.14,4.142,4.142,0,0,1,4.7.153,2.37,2.37,0,0,1,.717,1.867c0,.894,0,1.788,0,2.682a3.163,3.163,0,0,0,.068.72.671.671,0,0,0,.531.582.76.76,0,0,0,.76-.369,2.026,2.026,0,0,0,.324-.884,8.423,8.423,0,0,0-.241-3.92,3.764,3.764,0,0,0-3.345-2.714A6.829,6.829,0,0,0,63.214,46a3.98,3.98,0,0,0-2.98,2.739,7.421,7.421,0,0,0-.172,4.292,4.205,4.205,0,0,0,5.5,3.139c.305-.079.606-.177.909-.265a.577.577,0,0,1,.772.359.617.617,0,0,1-.256.825,4.766,4.766,0,0,1-1.908.574,5.625,5.625,0,0,1-6.768-5.37,10.124,10.124,0,0,1,.166-3.11,5.934,5.934,0,0,1,6-4.769,6.051,6.051,0,0,1,5.216,2,6.732,6.732,0,0,1,1.322,4.94,5.194,5.194,0,0,1-.761,2.538A2.359,2.359,0,0,1,67.534,54.9a1.916,1.916,0,0,1-1.281-1.337" transform="translate(-36.586 -27.883)"/>
        <path id="Trazado_136178" data-name="Trazado 136178" d="M75.173,135.983a1.114,1.114,0,1,1-1.112,1.088,1.127,1.127,0,0,1,1.112-1.088" transform="translate(-46.503 -85.384)" fill="#010100"/>
        <path id="Trazado_136179" data-name="Trazado 136179" d="M74.5,63.256c.395-.107.506.129.469.58a1.722,1.722,0,0,1-1.423,1.551c-.46.065-.866,0-1.057-.491a1.061,1.061,0,0,1,.458-1.305,3.571,3.571,0,0,1,1.553-.335" transform="translate(-45.468 -39.703)" fill="#cae4f5"/>
      </g>
    </g>
    <g id="Grupo_159111" data-name="Grupo 159111" transform="translate(-7130 -4872)">
      <g id="Grupo_159070" data-name="Grupo 159070" transform="translate(0 0)" clip-path="url(#clip-path-2)">
        <path id="Trazado_136219" data-name="Trazado 136219" d="M7.161,50.915q0-1.019,0-2.038c.893-.483.921-1.293.915-2.184-.028-4.135-.012-8.27-.012-12.405,0-.2.006-.391,0-.586a.562.562,0,0,1,.654-.644c.16,0,.32,0,.479,0q8.785,0,17.57-.009a2.088,2.088,0,0,1,1.617.627,7.04,7.04,0,0,0,2,1.388,1.88,1.88,0,0,0,1.691,0,7.259,7.259,0,0,0,2.086-1.455,1.828,1.828,0,0,1,1.427-.56c1.491.022,2.982-.015,4.472.017a1.324,1.324,0,0,0,1.443-.833c.273-.3.638-.236.98-.239a4.294,4.294,0,0,1,1.093.051.52.52,0,0,1,.3.349.952.952,0,0,0,1.811.048,1.276,1.276,0,0,1,.14-.226,2.588,2.588,0,0,1,2.082-.071,1.508,1.508,0,0,0,1.672.916c1.187-.048,2.379-.023,3.568-.008.708.009.834.137.841.852.012,1.4,0,2.806,0,4.209q0,14.971,0,29.941c0,1.224-.02,1.243-1.253,1.243H38.736c-.107,0-.213,0-.32,0-.838-.012-.95-.116-.952-.961-.005-4.156-.039-8.312.016-12.466.023-1.755-.7-3.07-3-3-2.484.078-4.972.015-7.458.019a2.331,2.331,0,0,0-2.6,2.292,7.111,7.111,0,0,0-.04.957q0,5.834,0,11.667c0,.178,0,.355,0,.532-.011.854-.1.956-.948.956q-7.192.007-14.384,0c-.9,0-.99-.1-.991-1.025q-.006-5.594,0-11.188c0-.213.006-.426-.008-.639a.907.907,0,0,0-.783-.986c-.152-.044-.318-.056-.424-.2a.51.51,0,0,0,.329-.562c-.03-.52-.008-1.042-.008-1.564.055-.155.2-.182.329-.243a.929.929,0,0,0,0-1.733c-.126-.061-.274-.087-.33-.242" transform="translate(-3.802 -17.767)" fill="#eef2f2"/>
        <path id="Trazado_136220" data-name="Trazado 136220" d="M37.792,14.493a1.073,1.073,0,0,1-1.238.969c-1.686,0-3.372.009-5.057-.005a1.045,1.045,0,0,0-.838.332,8.884,8.884,0,0,1-2.028,1.534,2.261,2.261,0,0,1-2.366.006,9.442,9.442,0,0,1-2.111-1.6.834.834,0,0,0-.648-.272q-9.317.013-18.633,0c-.406,0-.447.153-.446.493q.014,6.894.006,13.788c0,.879-.214,1.148-1.075,1.376a1.133,1.133,0,0,1-1.052-1.223c-.009-1.474,0-2.948,0-4.422,0-3.2-.007-6.393.009-9.589a.562.562,0,0,0-.435-.637A2.985,2.985,0,0,1,2.889,9.474c1.4-.024,2.806-.019,4.208,0,.325,0,.424-.077.419-.411-.02-1.332-.008-2.664-.008-4,0-1.155.3-1.461,1.436-1.461q4.821,0,9.643,0a2.5,2.5,0,0,0,1.1-.255C22.125,2.225,24.6,1.165,27.058.08a1.094,1.094,0,0,1,.925.057c2.364,1.04,4.741,2.055,7.078,3.153a3.367,3.367,0,0,0,1.509.314q4.529,0,9.057,0c.962,0,1.309.351,1.311,1.32,0,1.367.012,2.735-.007,4.1,0,.341.076.453.435.447,1.314-.022,2.628-.014,3.942-.007A3,3,0,0,1,52.425,15.3c-.233.092-.3.195-.28.415a2.656,2.656,0,0,1,0,.266q0,17.394-.012,34.788c0,.487.121.657.6.592a3.472,3.472,0,0,1,.8,0,1.062,1.062,0,0,1,0,2.115,4.416,4.416,0,0,1-.479.007H1.377A3.828,3.828,0,0,1,.9,53.479C.291,53.4.046,53.056.054,52.306a.894.894,0,0,1,.864-.943c.07-.008.142,0,.213-.006.383-.034.892.172,1.114-.093.186-.221.057-.711.057-1.082,0-3.8.006-7.6,0-11.4a1.258,1.258,0,0,1,.739-1.29c1.013-.064,1.4.292,1.4,1.313,0,4.012.007,8.025-.008,12.037,0,.406.085.528.514.527q7.483-.025,14.966,0c.429,0,.557-.082.556-.539-.02-4.4-.015-8.806-.01-13.209a2.462,2.462,0,0,1,1.894-2.609,3.409,3.409,0,0,1,.791-.068q3.995-.007,7.989,0a2.474,2.474,0,0,1,2.7,2.716q0,6.6-.008,13.209c0,.377.06.5.479.5q7.617-.026,15.233,0c.392,0,.5-.085.5-.49q-.019-17.444,0-34.887c0-.465-.144-.546-.567-.537-1.367.028-2.734.012-4.1.009-.838,0-1.139-.252-1.313-1.074a.936.936,0,0,1,.619-1.077,2.276,2.276,0,0,1,.991-.155q2.636,0,5.272,0a2.633,2.633,0,0,0,.637-.04.656.656,0,0,0,.567-.674.637.637,0,0,0-.6-.64,4.793,4.793,0,0,0-.745-.025c-5.255,0-10.51.013-15.764-.016-.776,0-1.354.137-1.644.916-.054.147-.193.254-.25.479.66,0,1.3-.007,1.948,0a10.959,10.959,0,0,1,1.754.046c.764.134,1.121.63.959,1.29" transform="translate(0 0)"/>
        <path id="Trazado_136221" data-name="Trazado 136221" d="M6.243,74.646c.8.213,1.121.58,1.068,1.214-.044.524-.338.8-1.068,1A1.162,1.162,0,0,1,5.2,75.873,1.063,1.063,0,0,1,6,74.729l.247-.083" transform="translate(-2.885 -41.498)" fill="#010101"/>
        <path id="Trazado_136222" data-name="Trazado 136222" d="M91.907,78.561q0,3.141,0,6.283c0,.959-.356,1.309-1.321,1.31q-3.54,0-7.081,0c-.914,0-1.3-.381-1.3-1.288q0-6.283,0-12.565c0-.9.393-1.286,1.306-1.287q3.541,0,7.081,0c.96,0,1.314.357,1.316,1.318q0,3.115,0,6.229" transform="translate(-45.698 -39.478)"/>
        <path id="Trazado_136223" data-name="Trazado 136223" d="M26.789,78.594q0,3.061,0,6.122c0,1.107-.331,1.444-1.414,1.444q-3.513,0-7.027,0c-.893,0-1.266-.363-1.266-1.254q-.007-6.308,0-12.616c0-.889.381-1.264,1.264-1.266q3.54,0,7.08,0c.98,0,1.361.374,1.363,1.343q0,3.115,0,6.228" transform="translate(-9.494 -39.483)"/>
        <path id="Trazado_136224" data-name="Trazado 136224" d="M37.79,43.15a3.969,3.969,0,0,1,3.939,4.294,3.994,3.994,0,1,1-7.967-.091,3.955,3.955,0,0,1,4.029-4.2" transform="translate(-18.769 -23.989)"/>
        <path id="Trazado_136225" data-name="Trazado 136225" d="M78.842,29.007a1.1,1.1,0,0,0-1.277-1.159c-1.22-.006-2.439,0-3.727,0,.344-.572.652-1.082.957-1.594.1-.174.27-.142.425-.142q8.6,0,17.205,0a.872.872,0,1,1-.016,1.731c-1.989.006-3.977,0-5.966,0A1.149,1.149,0,0,0,85.1,28.9c-.5,0-1.008.006-1.512-.008a.482.482,0,0,0-.486.22c-.137-.09-.129-.243-.162-.377a.9.9,0,0,0-.752-.73.956.956,0,0,0-.919.418c-.124.149-.149.364-.323.477a8.039,8.039,0,0,0-2.1.105" transform="translate(-41.049 -14.514)" fill="#a9bfc0"/>
        <path id="Trazado_136226" data-name="Trazado 136226" d="M18.15,47.828c0-.639.015-1.278,0-1.917-.062-2.124.136-2.317,2.27-2.241a9.453,9.453,0,0,1,1.486.063,2.706,2.706,0,0,1,2.292,2.878A2.618,2.618,0,0,1,21.8,49.274c-.105.015-.213.012-.318.024-.434.049-1.029-.2-1.26.107-.215.286-.059.85-.066,1.292,0,.071,0,.142,0,.213a1,1,0,1,1-2,.006c-.018-1.029,0-2.059-.005-3.088" transform="translate(-10.083 -24.271)"/>
        <path id="Trazado_136227" data-name="Trazado 136227" d="M94.282,47.527c0-.941-.006-1.882,0-2.822.007-.9.376-1.267,1.257-1.271.817,0,1.633-.006,2.449,0,.67.006,1.054.353,1.051.931s-.381.93-1.047.944c-.444.009-.888.018-1.331,0-.3-.015-.393.075-.4.385-.007.927-.022.926.909.927.266,0,.533-.009.8.006a.951.951,0,0,1,.932.906.917.917,0,0,1-.917.913c-.425.02-.852.024-1.277,0-.308-.016-.435.052-.436.4,0,.976-.02.976.965.976.337,0,.675-.016,1.011.006a.928.928,0,0,1,.883.948.863.863,0,0,1-.885.869q-1.491.027-2.981,0a.961.961,0,0,1-.982-1.084c-.018-1.011,0-2.023,0-3.035" transform="translate(-52.412 -24.145)"/>
        <path id="Trazado_136228" data-name="Trazado 136228" d="M80.3,43.171a3.306,3.306,0,0,1,1.976.5.992.992,0,0,1,.412,1.333.852.852,0,0,1-1.237.346c-2-.882-3.226.461-3.1,2.324a1.974,1.974,0,0,0,2.783,1.869c.167-.06.329-.132.491-.2a.8.8,0,0,1,1.074.3.9.9,0,0,1-.07,1.174,2.326,2.326,0,0,1-1.18.679,4.043,4.043,0,0,1-5.177-4.433A3.946,3.946,0,0,1,80.3,43.171" transform="translate(-42.388 -24)"/>
        <path id="Trazado_136229" data-name="Trazado 136229" d="M54.254,47.322c0-.922,0-1.844,0-2.766,0-.823.37-1.307.987-1.311s1.011.483,1.012,1.29c0,1.56.014,3.121-.008,4.681-.005.387.079.54.493.5a11.3,11.3,0,0,1,1.382,0,.914.914,0,1,1,0,1.827c-.922.013-1.844.011-2.766,0a1,1,0,0,1-1.1-1.087c-.018-1.046,0-2.092-.005-3.139" transform="translate(-30.159 -24.041)"/>
        <path id="Trazado_136230" data-name="Trazado 136230" d="M68.466,47.48c0-1.027-.005-2.054,0-3.081a1.067,1.067,0,0,1,.99-1.154,1.027,1.027,0,0,1,1,1.14q.018,3.081,0,6.163a.978.978,0,0,1-1.018,1.1c-.6-.01-.968-.429-.973-1.139-.006-1.01,0-2.019,0-3.029" transform="translate(-38.062 -24.041)"/>
        <path id="Trazado_136231" data-name="Trazado 136231" d="M89.835,31.078c.222-.867.843-1.258,1.53-.953a1.07,1.07,0,0,1,.627,1.165c-.256.655-.594.9-1.168.855-.537-.044-.836-.367-.989-1.068" transform="translate(-49.942 -16.691)" fill="#010101"/>
        <path id="Trazado_136232" data-name="Trazado 136232" d="M50.834,90.675q0-3.247,0-6.493c0-.68.036-.712.725-.712,2.572,0,5.145.011,7.717-.01.5,0,.687.141.685.663q-.025,6.6,0,13.2c0,.343-.082.444-.435.442q-4.124-.023-8.249,0c-.4,0-.451-.147-.449-.492.014-2.2.007-4.4.007-6.6" transform="translate(-28.256 -46.398)" fill="#9ac5fe"/>
        <path id="Trazado_136233" data-name="Trazado 136233" d="M60.228,8.207a15.052,15.052,0,0,1-3.37,7.753,10.469,10.469,0,0,1-2.137,2.063c-.672.47-.738.468-1.4.006a10.905,10.905,0,0,1-2.371-2.352,15.007,15.007,0,0,1-3.078-6.97c-.123-.814-.131-.814.6-1.137,1.7-.75,3.4-1.489,5.1-2.253a.97.97,0,0,1,.889-.008q2.66,1.2,5.344,2.353c.332.142.508.3.425.546" transform="translate(-26.579 -2.893)" fill="#fec05a"/>
        <path id="Trazado_136234" data-name="Trazado 136234" d="M26.87,16.624c-1.58,0-3.159-.01-4.739.008-.349,0-.452-.09-.443-.442.024-.976.02-1.952,0-2.928-.006-.306.09-.382.388-.381q4.366.016,8.732,0c.286,0,.409.078.443.366a12.492,12.492,0,0,0,.739,2.984c.145.383-.021.4-.329.4-1.6-.01-3.195,0-4.792,0" transform="translate(-12.057 -7.161)" fill="#d0dcdd"/>
        <path id="Trazado_136235" data-name="Trazado 136235" d="M83.544,16.622c-1.526,0-3.052-.011-4.577.008-.391,0-.445-.086-.313-.447a12.124,12.124,0,0,0,.709-2.881c.036-.329.167-.427.5-.425q4.1.022,8.2,0c.337,0,.456.072.446.432-.027.957-.024,1.916,0,2.874.008.343-.081.452-.438.447-1.508-.02-3.016-.008-4.524-.008" transform="translate(-43.691 -7.159)" fill="#d0dcdd"/>
        <path id="Trazado_136236" data-name="Trazado 136236" d="M24.7,27.768a.916.916,0,0,1-.542.063q-9.081,0-18.161,0c-.142,0-.285.006-.426-.006a.862.862,0,0,1-.026-1.721A4.123,4.123,0,0,1,5.97,26.1q8.6,0,17.2-.01a.746.746,0,0,1,.782.462c.21.422.49.809.745,1.219" transform="translate(-2.637 -14.503)" fill="#a9bfc0"/>
        <path id="Trazado_136237" data-name="Trazado 136237" d="M89.7,80.18c-.762,0-1.524-.011-2.285.005-.294.007-.44-.028-.433-.389.025-1.2.019-2.409,0-3.613,0-.3.08-.388.382-.385q2.365.021,4.729,0c.292,0,.349.1.346.365q-.019,1.833,0,3.666c0,.275-.068.365-.352.358-.8-.019-1.594-.007-2.391-.007" transform="translate(-48.354 -42.139)" fill="#cde2fe"/>
        <path id="Trazado_136238" data-name="Trazado 136238" d="M89.721,94.832c-.8,0-1.6-.008-2.395,0-.246,0-.341-.059-.338-.324q.019-1.863,0-3.726c0-.253.072-.335.329-.334q2.395.015,4.79,0c.249,0,.338.064.336.325-.012,1.242-.016,2.484,0,3.725,0,.313-.137.335-.383.332-.78-.011-1.561,0-2.342,0" transform="translate(-48.36 -50.287)" fill="#9ac5fe"/>
        <path id="Trazado_136239" data-name="Trazado 136239" d="M24.619,75.813c.781,0,1.562.01,2.343-.006.274-.005.366.07.363.356q-.023,1.837,0,3.674c0,.29-.1.355-.367.353q-2.37-.015-4.739,0c-.28,0-.359-.079-.356-.357q.021-1.836,0-3.674c0-.285.086-.358.36-.353.8.017,1.6.006,2.4.006" transform="translate(-12.154 -42.143)" fill="#cde2fe"/>
        <path id="Trazado_136240" data-name="Trazado 136240" d="M24.6,94.831c-.8,0-1.6-.008-2.394,0-.246,0-.341-.06-.338-.324q.019-1.862,0-3.724c0-.249.064-.337.327-.335q2.395.017,4.789,0c.3,0,.343.124.341.379-.01,1.206-.013,2.412,0,3.618,0,.3-.084.4-.387.389-.78-.019-1.561-.006-2.341-.006" transform="translate(-12.156 -50.285)" fill="#9ac5fe"/>
        <path id="Trazado_136241" data-name="Trazado 136241" d="M42.233,49.715a2.876,2.876,0,0,1-.371,1.526,1.738,1.738,0,0,1-3.075-.05,3.227,3.227,0,0,1-.162-2.624,1.79,1.79,0,0,1,1.9-1.292,1.934,1.934,0,0,1,1.652,1.751c.035.226.035.458.052.688" transform="translate(-21.361 -26.278)" fill="#eef2f2"/>
        <path id="Trazado_136242" data-name="Trazado 136242" d="M22.685,48.711c0-1.055.126-1.159,1.162-.963a.988.988,0,0,1,.816.976.952.952,0,0,1-.86,1c-1.067.158-1.118.112-1.118-1.008" transform="translate(-12.611 -26.5)" fill="#edf1f1"/>
      </g>
    </g>
    <g id="Grupo_159112" data-name="Grupo 159112" transform="translate(-7319.971 -4705)">
      <g id="Grupo_159053" data-name="Grupo 159053" transform="translate(0 0)" clip-path="url(#clip-path-3)">
        <path id="Trazado_136091" data-name="Trazado 136091" d="M16.892,0c.1.133.259.067.388.1A3.569,3.569,0,0,1,19.6,1.946c.107.205.158.244.365.094A4.236,4.236,0,0,1,26.59,6.43c-.046.205-.023.278.2.334A2.962,2.962,0,0,1,29.038,8.95c.05.172.086.223.276.2a3.023,3.023,0,0,1,1.3,5.891c-.239.071-.3.146-.285.4a3.614,3.614,0,0,1-4.053,3.947c-.218-.022-.229.079-.265.219a3.58,3.58,0,0,1-3.171,2.822,3.456,3.456,0,0,1-2.747-.91c-.115.064-.057.17-.057.251,0,2.821,0,5.642-.007,8.463a2.82,2.82,0,0,0,1.014,2.286c.4.336.8.665,1.242,1.035.025-.39.047-.735.069-1.08a12.312,12.312,0,0,1,.72-3.426c.154-.425.456-.607.8-.482a.616.616,0,0,1,.339.875,11.813,11.813,0,0,0-.686,3.929c.146,0,.18-.124.245-.2a5.049,5.049,0,0,1,2.68-1.573c.529-.121.921.213.826.695-.061.311-.291.426-.575.5a3.962,3.962,0,0,0-2.717,2.252c-.019.04-.031.084-.058.158,1.1,0,2.176,0,3.251,0a.778.778,0,0,1,.447.085A.605.605,0,0,1,27.4,36.4a2.123,2.123,0,0,1-.355.009H5.747c-.071,0-.142,0-.213,0a.606.606,0,0,1-.663-.624.6.6,0,0,1,.664-.585c1,0,1.991,0,2.987,0h.357a3.992,3.992,0,0,0-2.542-2.342c-.134-.044-.276-.067-.411-.109a.61.61,0,0,1-.464-.7.6.6,0,0,1,.75-.474,4.929,4.929,0,0,1,2.695,1.472c.1.108.2.221.355.386A11.656,11.656,0,0,0,8.818,30.2c-.075-.261-.165-.517-.247-.776a.612.612,0,1,1,1.142-.4,13.031,13.031,0,0,1,.767,4.17c0,.1,0,.206,0,.377a14.975,14.975,0,0,0,1.664-1.46,2.444,2.444,0,0,0,.605-1.63c.01-2.963.006-5.926.006-8.889,0-.018-.018-.037-.04-.083a3.864,3.864,0,0,1-1.5.824A3.61,3.61,0,0,1,6.806,19.7c-.068-.29-.163-.324-.435-.3a3.617,3.617,0,0,1-3.911-3.9c.014-.276-.022-.4-.316-.486A3.02,3.02,0,0,1,3.475,9.144c.156.022.22.015.269-.162a2.946,2.946,0,0,1,2.29-2.225c.234-.055.2-.161.16-.328a4.241,4.241,0,0,1,4.221-5.212,4.148,4.148,0,0,1,2.443.838c.094.07.171.205.283-.018A3.577,3.577,0,0,1,15.684.067c.027-.006.047-.044.07-.067Z" transform="translate(0 0)"/>
        <path id="Trazado_136092" data-name="Trazado 136092" d="M4.955,79.509c-.595,0-.895-.2-.893-.609s.3-.6.9-.6c.106,0,.213,0,.318,0a.6.6,0,1,1,0,1.208c-.106.007-.212,0-.317,0" transform="translate(-2.236 -43.096)" fill="#010101"/>
        <path id="Trazado_136093" data-name="Trazado 136093" d="M65.7,79.509q-.895,0-.9-.605T65.7,78.3c.106,0,.212,0,.318,0a.6.6,0,1,1,0,1.208c-.106.007-.212,0-.318,0" transform="translate(-35.67 -43.096)" fill="#010101"/>
        <path id="Trazado_136094" data-name="Trazado 136094" d="M29.417,11.232c0,.094,0,.188,0,.282a.588.588,0,0,0,.9.559,1.485,1.485,0,0,1,.593-.209.374.374,0,0,1,.417.108,2.446,2.446,0,0,1-.191,3.444.678.678,0,0,0-.733.434.976.976,0,0,1-.706.274c-.3.029-.335.156-.269.42a3.013,3.013,0,0,1-.648,2.742,1.126,1.126,0,0,1-.488.394,1.805,1.805,0,0,1-.86-.131c-.726-.259-1.045-.046-1.057.714a.85.85,0,0,1-.782.012c-.254-.089-.336-.024-.34.243a2.922,2.922,0,0,1-.839,1.937.539.539,0,0,1-.617.232,2.478,2.478,0,0,1-2.226-2.224,17.756,17.756,0,0,1-.013-2,3.1,3.1,0,0,0,2.137.6,3.023,3.023,0,0,0,2.692-3.015.594.594,0,0,0-.536-.6.621.621,0,0,0-.635.462,1.345,1.345,0,0,0-.04.279,1.7,1.7,0,0,1-1.155,1.562,1.648,1.648,0,0,1-1.9-.406.864.864,0,0,0-1.13-.222,1.777,1.777,0,0,1-2.459-1.472,2.286,2.286,0,0,0-.053-.35.545.545,0,0,0-.566-.443.551.551,0,0,0-.589.459,2.238,2.238,0,0,0-.047.315,1.773,1.773,0,0,1-2.443,1.5.888.888,0,0,0-1.16.228,1.636,1.636,0,0,1-1.866.4,1.7,1.7,0,0,1-1.172-1.55,1.635,1.635,0,0,0-.05-.314.592.592,0,0,0-.643-.44.58.58,0,0,0-.52.581A3.031,3.031,0,0,0,12.1,19.063a3.174,3.174,0,0,0,2.167-.6,12.27,12.27,0,0,1-.072,2.277,2.581,2.581,0,0,1-2.422,1.995,2.457,2.457,0,0,1-2.3-1.885,2.567,2.567,0,0,1-.045-.671c.013-.615-.368-.885-.947-.669A2.39,2.39,0,0,1,5.229,17.8,2.242,2.242,0,0,1,5.3,16.476c.265-.736.045-1.05-.729-1.042a1.779,1.779,0,0,1-1.825-1.882,1.8,1.8,0,0,1,1.9-1.745,2.073,2.073,0,0,1,.807.246c.534.263.951-.01.939-.607A1.8,1.8,0,0,1,8.638,9.433a.579.579,0,0,0,.583-.264.646.646,0,0,0-.005-.706A2.9,2.9,0,0,1,8.932,6.1,2.9,2.9,0,0,1,11.209,3.99a2.916,2.916,0,0,1,2.983,1.054,1.639,1.639,0,0,1,.151.2.616.616,0,0,0,1.156-.3,2.414,2.414,0,0,1,4.81-.047c.039.312.129.562.45.646a.7.7,0,0,0,.753-.337A2.879,2.879,0,0,1,24.45,4.05a3.364,3.364,0,0,1,1.357,2.158,3.565,3.565,0,0,1-.18,2.118c-.039.106-.123.2-.087.355a2.842,2.842,0,0,1,.692.041c.144.018.247.071.263.23a.654.654,0,0,0,.716.494.506.506,0,0,1,.607.241,2.6,2.6,0,0,1,.5,1.652c.366-.068.713-.348,1.1-.107" transform="translate(-1.513 -1.487)" fill="#60a817"/>
        <path id="Trazado_136095" data-name="Trazado 136095" d="M34.081,54.986,25.974,55H23.748a4.211,4.211,0,0,1,1-1.05A11.1,11.1,0,0,0,26,52.852a3.982,3.982,0,0,0,1.043-2.826c-.005-4.243,0-8.487-.009-12.73,0-.338.026-.53.438-.556A2.9,2.9,0,0,0,29.1,36c.32-.113.594.065.884.14l.688.387a.794.794,0,0,1,.111.578c0,4.263.017,8.526-.008,12.789a3.589,3.589,0,0,0,1.44,3.014A9.909,9.909,0,0,1,33.672,54.2c.193.226.456.431.41.787" transform="translate(-13.071 -19.794)" fill="#9f522d"/>
        <path id="Trazado_136096" data-name="Trazado 136096" d="M42.553,55.675a5.075,5.075,0,0,0-1.569-1.7,4.485,4.485,0,0,1-1.623-1.916,3.428,3.428,0,0,1-.215-1.139q0-6.623,0-13.245c0-.154,0-.308-.006-.462a2.536,2.536,0,0,0,.919.246c.26.015.3.114.3.345-.009,1.456,0,2.912,0,4.369,0,2.794.025,5.589-.009,8.383a4.313,4.313,0,0,0,1.847,3.708,7.982,7.982,0,0,1,1.189,1.062c.082.093.2.163.222.348Z" transform="translate(-21.543 -20.484)" fill="#783e22"/>
        <path id="Trazado_136097" data-name="Trazado 136097" d="M53.064,10.6c-.235-.232-.539-.164-.819-.175-.11,0-.25.092-.325-.018s.075-.182.117-.273a3.729,3.729,0,0,0-.71-4.1c-.107-.109-.205-.226-.308-.339a3,3,0,0,1,2.489,2.576,3.03,3.03,0,0,1-.339,1.813,1.006,1.006,0,0,0-.106.512" transform="translate(-28.082 -3.139)" fill="#549314"/>
        <path id="Trazado_136098" data-name="Trazado 136098" d="M59.563,35.778a3.444,3.444,0,0,0,1.087-1.856,2.8,2.8,0,0,0-.076-1.391c-.071-.221-.1-.382.25-.383a3.727,3.727,0,0,0,.852-.2.884.884,0,0,0,.1.612,2.408,2.408,0,0,1-2.214,3.218" transform="translate(-32.784 -17.585)" fill="#549314"/>
        <path id="Trazado_136099" data-name="Trazado 136099" d="M65.614,26.564c.12-.27.364-.455.484-.732a2.438,2.438,0,0,0-.212-2.476c-.116-.174-.246-.354-.5-.344a1.8,1.8,0,1,1,.226,3.552" transform="translate(-35.99 -12.635)" fill="#549314"/>
        <path id="Trazado_136100" data-name="Trazado 136100" d="M49.565,43.968c.538-.032.719-.488.955-.846a2.334,2.334,0,0,0,.408-1.508c-.021-.241.071-.3.28-.2a1.991,1.991,0,0,0,.935.134A2.4,2.4,0,0,1,49.8,44.018a.333.333,0,0,1-.236-.05" transform="translate(-27.281 -22.768)" fill="#549314"/>
        <path id="Trazado_136101" data-name="Trazado 136101" d="M59.367,19.4a2.368,2.368,0,0,0-1.191.262,2.725,2.725,0,0,0-.443-1.7c-.14-.2-.293-.377-.571-.343A1.766,1.766,0,0,1,59.367,19.4" transform="translate(-31.462 -9.659)" fill="#549314"/>
        <path id="Trazado_136102" data-name="Trazado 136102" d="M36.528,35.814c-.315.08-.587-.109-.884-.14.359-.4.359-.4.74-.016.05.05.1.1.143.156" transform="translate(-19.619 -19.469)" fill="#753c21"/>
        <path id="Trazado_136103" data-name="Trazado 136103" d="M47.161,19.21a3.176,3.176,0,0,1-.486,1.657.636.636,0,0,1-.9.288c-.308-.2-.354-.545-.125-.937a1.8,1.8,0,0,0-1.394-2.791,1.715,1.715,0,0,0-1.559.678.65.65,0,0,1-.667.306.613.613,0,0,1-.312-1.03,3.043,3.043,0,0,1,5.445,1.828" transform="translate(-22.868 -8.918)"/>
        <path id="Trazado_136104" data-name="Trazado 136104" d="M26.735,12.061a2.456,2.456,0,0,1,2.244,1.569.617.617,0,0,1-.3.863c-.339.138-.63,0-.823-.4a1.217,1.217,0,0,0-1.3-.77,1.253,1.253,0,0,0-1.038,1.027,1.453,1.453,0,0,0,.058.594.612.612,0,0,1-.432.773.627.627,0,0,1-.728-.462,2.435,2.435,0,0,1,2.315-3.2" transform="translate(-13.368 -6.639)"/>
        <path id="Trazado_136105" data-name="Trazado 136105" d="M36.325,51.837v3.517c0,.083,0,.166,0,.249-.015.473-.25.764-.617.767s-.619-.289-.622-.76c-.007-1.149,0-2.3,0-3.446,0-1.374,0-2.747,0-4.121,0-.457.193-.725.527-.764.438-.052.709.228.712.758,0,1.267,0,2.534,0,3.8" transform="translate(-19.309 -26.019)" fill="#010000"/>
        <path id="Trazado_136106" data-name="Trazado 136106" d="M36.308,40.375a4.41,4.41,0,0,1-.038.742.566.566,0,0,1-.583.473.537.537,0,0,1-.582-.468,4.545,4.545,0,0,1,0-1.48.527.527,0,0,1,.555-.452.565.565,0,0,1,.6.445,3.267,3.267,0,0,1,.044.74" transform="translate(-19.29 -21.57)" fill="#010000"/>
      </g>
    </g>
    <g id="Grupo_159114" data-name="Grupo 159114" transform="translate(-7146.394 -4609.719)">
      <g id="Grupo_159053-2" data-name="Grupo 159053" transform="translate(0 0)" clip-path="url(#clip-path-3)">
        <path id="Trazado_136091-2" data-name="Trazado 136091" d="M16.892,0c.1.133.259.067.388.1A3.569,3.569,0,0,1,19.6,1.946c.107.205.158.244.365.094A4.236,4.236,0,0,1,26.59,6.43c-.046.205-.023.278.2.334A2.962,2.962,0,0,1,29.038,8.95c.05.172.086.223.276.2a3.023,3.023,0,0,1,1.3,5.891c-.239.071-.3.146-.285.4a3.614,3.614,0,0,1-4.053,3.947c-.218-.022-.229.079-.265.219a3.58,3.58,0,0,1-3.171,2.822,3.456,3.456,0,0,1-2.747-.91c-.115.064-.057.17-.057.251,0,2.821,0,5.642-.007,8.463a2.82,2.82,0,0,0,1.014,2.286c.4.336.8.665,1.242,1.035.025-.39.047-.735.069-1.08a12.312,12.312,0,0,1,.72-3.426c.154-.425.456-.607.8-.482a.616.616,0,0,1,.339.875,11.813,11.813,0,0,0-.686,3.929c.146,0,.18-.124.245-.2a5.049,5.049,0,0,1,2.68-1.573c.529-.121.921.213.826.695-.061.311-.291.426-.575.5a3.962,3.962,0,0,0-2.717,2.252c-.019.04-.031.084-.058.158,1.1,0,2.176,0,3.251,0a.778.778,0,0,1,.447.085A.605.605,0,0,1,27.4,36.4a2.123,2.123,0,0,1-.355.009H5.747c-.071,0-.142,0-.213,0a.606.606,0,0,1-.663-.624.6.6,0,0,1,.664-.585c1,0,1.991,0,2.987,0h.357a3.992,3.992,0,0,0-2.542-2.342c-.134-.044-.276-.067-.411-.109a.61.61,0,0,1-.464-.7.6.6,0,0,1,.75-.474,4.929,4.929,0,0,1,2.695,1.472c.1.108.2.221.355.386A11.656,11.656,0,0,0,8.818,30.2c-.075-.261-.165-.517-.247-.776a.612.612,0,1,1,1.142-.4,13.031,13.031,0,0,1,.767,4.17c0,.1,0,.206,0,.377a14.975,14.975,0,0,0,1.664-1.46,2.444,2.444,0,0,0,.605-1.63c.01-2.963.006-5.926.006-8.889,0-.018-.018-.037-.04-.083a3.864,3.864,0,0,1-1.5.824A3.61,3.61,0,0,1,6.806,19.7c-.068-.29-.163-.324-.435-.3a3.617,3.617,0,0,1-3.911-3.9c.014-.276-.022-.4-.316-.486A3.02,3.02,0,0,1,3.475,9.144c.156.022.22.015.269-.162a2.946,2.946,0,0,1,2.29-2.225c.234-.055.2-.161.16-.328a4.241,4.241,0,0,1,4.221-5.212,4.148,4.148,0,0,1,2.443.838c.094.07.171.205.283-.018A3.577,3.577,0,0,1,15.684.067c.027-.006.047-.044.07-.067Z" transform="translate(0 0)"/>
        <path id="Trazado_136092-2" data-name="Trazado 136092" d="M4.955,79.509c-.595,0-.895-.2-.893-.609s.3-.6.9-.6c.106,0,.213,0,.318,0a.6.6,0,1,1,0,1.208c-.106.007-.212,0-.317,0" transform="translate(-2.236 -43.096)" fill="#010101"/>
        <path id="Trazado_136093-2" data-name="Trazado 136093" d="M65.7,79.509q-.895,0-.9-.605T65.7,78.3c.106,0,.212,0,.318,0a.6.6,0,1,1,0,1.208c-.106.007-.212,0-.318,0" transform="translate(-35.67 -43.096)" fill="#010101"/>
        <path id="Trazado_136094-2" data-name="Trazado 136094" d="M29.417,11.232c0,.094,0,.188,0,.282a.588.588,0,0,0,.9.559,1.485,1.485,0,0,1,.593-.209.374.374,0,0,1,.417.108,2.446,2.446,0,0,1-.191,3.444.678.678,0,0,0-.733.434.976.976,0,0,1-.706.274c-.3.029-.335.156-.269.42a3.013,3.013,0,0,1-.648,2.742,1.126,1.126,0,0,1-.488.394,1.805,1.805,0,0,1-.86-.131c-.726-.259-1.045-.046-1.057.714a.85.85,0,0,1-.782.012c-.254-.089-.336-.024-.34.243a2.922,2.922,0,0,1-.839,1.937.539.539,0,0,1-.617.232,2.478,2.478,0,0,1-2.226-2.224,17.756,17.756,0,0,1-.013-2,3.1,3.1,0,0,0,2.137.6,3.023,3.023,0,0,0,2.692-3.015.594.594,0,0,0-.536-.6.621.621,0,0,0-.635.462,1.345,1.345,0,0,0-.04.279,1.7,1.7,0,0,1-1.155,1.562,1.648,1.648,0,0,1-1.9-.406.864.864,0,0,0-1.13-.222,1.777,1.777,0,0,1-2.459-1.472,2.286,2.286,0,0,0-.053-.35.545.545,0,0,0-.566-.443.551.551,0,0,0-.589.459,2.238,2.238,0,0,0-.047.315,1.773,1.773,0,0,1-2.443,1.5.888.888,0,0,0-1.16.228,1.636,1.636,0,0,1-1.866.4,1.7,1.7,0,0,1-1.172-1.55,1.635,1.635,0,0,0-.05-.314.592.592,0,0,0-.643-.44.58.58,0,0,0-.52.581A3.031,3.031,0,0,0,12.1,19.063a3.174,3.174,0,0,0,2.167-.6,12.27,12.27,0,0,1-.072,2.277,2.581,2.581,0,0,1-2.422,1.995,2.457,2.457,0,0,1-2.3-1.885,2.567,2.567,0,0,1-.045-.671c.013-.615-.368-.885-.947-.669A2.39,2.39,0,0,1,5.229,17.8,2.242,2.242,0,0,1,5.3,16.476c.265-.736.045-1.05-.729-1.042a1.779,1.779,0,0,1-1.825-1.882,1.8,1.8,0,0,1,1.9-1.745,2.073,2.073,0,0,1,.807.246c.534.263.951-.01.939-.607A1.8,1.8,0,0,1,8.638,9.433a.579.579,0,0,0,.583-.264.646.646,0,0,0-.005-.706A2.9,2.9,0,0,1,8.932,6.1,2.9,2.9,0,0,1,11.209,3.99a2.916,2.916,0,0,1,2.983,1.054,1.639,1.639,0,0,1,.151.2.616.616,0,0,0,1.156-.3,2.414,2.414,0,0,1,4.81-.047c.039.312.129.562.45.646a.7.7,0,0,0,.753-.337A2.879,2.879,0,0,1,24.45,4.05a3.364,3.364,0,0,1,1.357,2.158,3.565,3.565,0,0,1-.18,2.118c-.039.106-.123.2-.087.355a2.842,2.842,0,0,1,.692.041c.144.018.247.071.263.23a.654.654,0,0,0,.716.494.506.506,0,0,1,.607.241,2.6,2.6,0,0,1,.5,1.652c.366-.068.713-.348,1.1-.107" transform="translate(-1.513 -1.487)" fill="#60a817"/>
        <path id="Trazado_136095-2" data-name="Trazado 136095" d="M34.081,54.986,25.974,55H23.748a4.211,4.211,0,0,1,1-1.05A11.1,11.1,0,0,0,26,52.852a3.982,3.982,0,0,0,1.043-2.826c-.005-4.243,0-8.487-.009-12.73,0-.338.026-.53.438-.556A2.9,2.9,0,0,0,29.1,36c.32-.113.594.065.884.14l.688.387a.794.794,0,0,1,.111.578c0,4.263.017,8.526-.008,12.789a3.589,3.589,0,0,0,1.44,3.014A9.909,9.909,0,0,1,33.672,54.2c.193.226.456.431.41.787" transform="translate(-13.071 -19.794)" fill="#9f522d"/>
        <path id="Trazado_136096-2" data-name="Trazado 136096" d="M42.553,55.675a5.075,5.075,0,0,0-1.569-1.7,4.485,4.485,0,0,1-1.623-1.916,3.428,3.428,0,0,1-.215-1.139q0-6.623,0-13.245c0-.154,0-.308-.006-.462a2.536,2.536,0,0,0,.919.246c.26.015.3.114.3.345-.009,1.456,0,2.912,0,4.369,0,2.794.025,5.589-.009,8.383a4.313,4.313,0,0,0,1.847,3.708,7.982,7.982,0,0,1,1.189,1.062c.082.093.2.163.222.348Z" transform="translate(-21.543 -20.484)" fill="#783e22"/>
        <path id="Trazado_136097-2" data-name="Trazado 136097" d="M53.064,10.6c-.235-.232-.539-.164-.819-.175-.11,0-.25.092-.325-.018s.075-.182.117-.273a3.729,3.729,0,0,0-.71-4.1c-.107-.109-.205-.226-.308-.339a3,3,0,0,1,2.489,2.576,3.03,3.03,0,0,1-.339,1.813,1.006,1.006,0,0,0-.106.512" transform="translate(-28.082 -3.139)" fill="#549314"/>
        <path id="Trazado_136098-2" data-name="Trazado 136098" d="M59.563,35.778a3.444,3.444,0,0,0,1.087-1.856,2.8,2.8,0,0,0-.076-1.391c-.071-.221-.1-.382.25-.383a3.727,3.727,0,0,0,.852-.2.884.884,0,0,0,.1.612,2.408,2.408,0,0,1-2.214,3.218" transform="translate(-32.784 -17.585)" fill="#549314"/>
        <path id="Trazado_136099-2" data-name="Trazado 136099" d="M65.614,26.564c.12-.27.364-.455.484-.732a2.438,2.438,0,0,0-.212-2.476c-.116-.174-.246-.354-.5-.344a1.8,1.8,0,1,1,.226,3.552" transform="translate(-35.99 -12.635)" fill="#549314"/>
        <path id="Trazado_136100-2" data-name="Trazado 136100" d="M49.565,43.968c.538-.032.719-.488.955-.846a2.334,2.334,0,0,0,.408-1.508c-.021-.241.071-.3.28-.2a1.991,1.991,0,0,0,.935.134A2.4,2.4,0,0,1,49.8,44.018a.333.333,0,0,1-.236-.05" transform="translate(-27.281 -22.768)" fill="#549314"/>
        <path id="Trazado_136101-2" data-name="Trazado 136101" d="M59.367,19.4a2.368,2.368,0,0,0-1.191.262,2.725,2.725,0,0,0-.443-1.7c-.14-.2-.293-.377-.571-.343A1.766,1.766,0,0,1,59.367,19.4" transform="translate(-31.462 -9.659)" fill="#549314"/>
        <path id="Trazado_136102-2" data-name="Trazado 136102" d="M36.528,35.814c-.315.08-.587-.109-.884-.14.359-.4.359-.4.74-.016.05.05.1.1.143.156" transform="translate(-19.619 -19.469)" fill="#753c21"/>
        <path id="Trazado_136103-2" data-name="Trazado 136103" d="M47.161,19.21a3.176,3.176,0,0,1-.486,1.657.636.636,0,0,1-.9.288c-.308-.2-.354-.545-.125-.937a1.8,1.8,0,0,0-1.394-2.791,1.715,1.715,0,0,0-1.559.678.65.65,0,0,1-.667.306.613.613,0,0,1-.312-1.03,3.043,3.043,0,0,1,5.445,1.828" transform="translate(-22.868 -8.918)"/>
        <path id="Trazado_136104-2" data-name="Trazado 136104" d="M26.735,12.061a2.456,2.456,0,0,1,2.244,1.569.617.617,0,0,1-.3.863c-.339.138-.63,0-.823-.4a1.217,1.217,0,0,0-1.3-.77,1.253,1.253,0,0,0-1.038,1.027,1.453,1.453,0,0,0,.058.594.612.612,0,0,1-.432.773.627.627,0,0,1-.728-.462,2.435,2.435,0,0,1,2.315-3.2" transform="translate(-13.368 -6.639)"/>
        <path id="Trazado_136105-2" data-name="Trazado 136105" d="M36.325,51.837v3.517c0,.083,0,.166,0,.249-.015.473-.25.764-.617.767s-.619-.289-.622-.76c-.007-1.149,0-2.3,0-3.446,0-1.374,0-2.747,0-4.121,0-.457.193-.725.527-.764.438-.052.709.228.712.758,0,1.267,0,2.534,0,3.8" transform="translate(-19.309 -26.019)" fill="#010000"/>
        <path id="Trazado_136106-2" data-name="Trazado 136106" d="M36.308,40.375a4.41,4.41,0,0,1-.038.742.566.566,0,0,1-.583.473.537.537,0,0,1-.582-.468,4.545,4.545,0,0,1,0-1.48.527.527,0,0,1,.555-.452.565.565,0,0,1,.6.445,3.267,3.267,0,0,1,.044.74" transform="translate(-19.29 -21.57)" fill="#010000"/>
      </g>
    </g>
    <g id="Grupo_159113" data-name="Grupo 159113" transform="translate(-7090.022 -4688.719)">
      <g id="Grupo_159058" data-name="Grupo 159058" transform="translate(0 0)" clip-path="url(#clip-path-5)">
        <path id="Trazado_136107" data-name="Trazado 136107" d="M13.65,34.438c-.092-.131-.255-.113-.38-.178a1.925,1.925,0,0,1-1.108-1.845q0-3.211,0-6.421v-.384c-.344.036-.65.147-.973.183a3.46,3.46,0,0,1-1.708-.243A.992.992,0,0,0,8.87,25.5,4.407,4.407,0,0,1,3.577,21.09a.64.64,0,0,0-.28-.58,4.449,4.449,0,0,1-1.7-3.159.914.914,0,0,0-.356-.731,3.415,3.415,0,0,1,2.414-6.039c.394.039.391-.091.382-.392A5.366,5.366,0,0,1,6.947,5.053,4.615,4.615,0,0,1,8.721,4.48.358.358,0,0,0,9.1,4.13,5.171,5.171,0,0,1,19.16,3.844a5.691,5.691,0,0,1,.172,1.429.408.408,0,0,0,.584.423,5.138,5.138,0,0,1,6.219,2.322,4.908,4.908,0,0,1,.588,3.5.324.324,0,0,0,.209.434,3.7,3.7,0,0,1,1.983,4.322,3.741,3.741,0,0,1-3.856,2.753,2.717,2.717,0,0,1-.883-.181c-.2-.085-.278-.036-.348.174a5.971,5.971,0,0,1-1.9,2.751c-.361.3-.511.3-.883.02a.452.452,0,0,1-.023-.65,4.578,4.578,0,0,1,.492-.506,4.92,4.92,0,0,0,1.41-2.477,1.566,1.566,0,0,1,.134-.414.618.618,0,0,1,.695-.279,2.362,2.362,0,0,1,.4.171,2.613,2.613,0,1,0,2.053-4.8c-.063-.024-.127-.044-.19-.067a.677.677,0,0,1-.509-.956,7.042,7.042,0,0,0,.167-.854,4.021,4.021,0,0,0-2.714-4.205c-.085-.027-.168-.062-.252-.094a4.3,4.3,0,0,0-1.63-.1c-.075.007-.172,0-.207.082s.055.135.1.193a6.264,6.264,0,0,1-.3,8.346A6.047,6.047,0,0,1,16.513,17.1c-.191.012-.355.005-.325.289a4.991,4.991,0,0,1-.858,3.246c-.295.466-.3.461.174.756a4.539,4.539,0,0,0,.889.393,4.365,4.365,0,0,0,1.383.25,1.009,1.009,0,0,1,.519.123c.173.1.315.229.209.462-.037.4-.2.56-.6.549a5.392,5.392,0,0,1-1.618-.252c-.265-.092-.315-.037-.315.232.008,3.046,0,6.092.007,9.138a1.977,1.977,0,0,1-1.1,1.953c-.157.079-.328.13-.493.194Z" transform="translate(0 0)"/>
        <path id="Trazado_136108" data-name="Trazado 136108" d="M44.054,74.334a1.546,1.546,0,0,1-.5-1.447,2.628,2.628,0,0,1,1.152-2.168.468.468,0,0,0,.216-.382,4.109,4.109,0,0,1,7.386-2.118,3.782,3.782,0,0,1,.666,1.34.526.526,0,0,0,.353.394,2.852,2.852,0,0,1,1.463,3.867,1.094,1.094,0,0,1-.448.514Z" transform="translate(-26.1 -39.896)"/>
        <path id="Trazado_136109" data-name="Trazado 136109" d="M12.518,85.6c0,.022,0,.044,0,.067H3.843a.083.083,0,0,0-.01-.06.53.53,0,0,1,.438-.115q3.9-.005,7.8,0a.564.564,0,0,1,.442.109" transform="translate(-2.297 -51.228)" fill="#4f4f4f"/>
        <path id="Trazado_136110" data-name="Trazado 136110" d="M42.922,32.475c-.091-.376-.231-.477-.745-.487a3.586,3.586,0,0,1-1.419-.283c-.055-.18.075-.3.157-.421a6.4,6.4,0,0,0,1.008-2.575.616.616,0,0,1,.514-.572,7.672,7.672,0,0,0,5.692-6.217,7.666,7.666,0,0,0-.971-5.17c-.1-.17-.094-.173-.011-.31a4.1,4.1,0,0,1,3.066,3.9,4.03,4.03,0,0,1-.188,1.321c-.163.533-.048.726.482.9a2.657,2.657,0,0,1,1.929,2.513A2.688,2.688,0,0,1,50.1,27.82a2.751,2.751,0,0,1-1.709-.325c-.513-.271-.8-.143-.927.426a5.181,5.181,0,0,1-1.758,2.9.613.613,0,0,0-.238.816l-.417.258a.951.951,0,0,0-.828-.147c-.365.131-.672.274-.764.686l-.533.04" transform="translate(-24.417 -9.852)" fill="#4e8f1e"/>
        <path id="Trazado_136111" data-name="Trazado 136111" d="M11.047,76.379l-8.685.007c-.18-.008-.273-.137-.36-.267a3.921,3.921,0,0,1,.3-4.649c.222-.259.432-.284.766-.091a.426.426,0,0,1,.191.614,3.988,3.988,0,0,1-.29.449,2.8,2.8,0,0,0-.323,2.493.439.439,0,0,0,.495.346c.289-.013.579,0,.87,0,1.972-.008,3.943,0,5.914,0,.493,0,.564-.1.42-.585a1.513,1.513,0,0,0-1.509-1.159.971.971,0,0,1-1.066-.715,2.7,2.7,0,0,0-.784-.993,2.59,2.59,0,0,0-1.462-.6,1.481,1.481,0,0,1-.458-.084.438.438,0,0,1-.293-.581A.492.492,0,0,1,5.36,70.1a3.8,3.8,0,0,1,3.306,2,.539.539,0,0,0,.488.312,2.735,2.735,0,0,1,2.195,3.67.454.454,0,0,1-.3.291" transform="translate(-0.825 -42.009)"/>
        <path id="Trazado_136112" data-name="Trazado 136112" d="M5.5,76.062c-.313,0-.628-.012-.938.018-.255.024-.361-.1-.439-.307a2.832,2.832,0,0,1,.34-2.767c.359-.509.377-.592.122-.942A4.078,4.078,0,0,1,6.2,71.335c.034-.006.061-.059.09-.09.046.41.2.546.661.571a2.6,2.6,0,0,1,1.583.6c-.13.127-.309.114-.467.157a3.267,3.267,0,0,0-2.416,2.442,2.385,2.385,0,0,0-.063.63.543.543,0,0,1-.089.413" transform="translate(-2.344 -42.693)" fill="#5eab24"/>
        <path id="Trazado_136113" data-name="Trazado 136113" d="M47.5,55.083c-.018-.3.063-.572.388-.641.4-.086.851-.474,1.2.1.054.437-.033.583-.44.731-.094.034-.19.063-.285.1-.463.155-.6.109-.867-.288" transform="translate(-28.464 -32.499)" fill="#010101"/>
        <path id="Trazado_136114" data-name="Trazado 136114" d="M28.239,8.431a3.455,3.455,0,0,1,.321,1.924.863.863,0,0,0,.483.925,5.159,5.159,0,1,1-6.394,7.968l-.113-.124c-.423-.468-.494-.478-1.07-.251a4.382,4.382,0,0,1-4.08-.355,1.137,1.137,0,0,1-.129-.105,3.505,3.505,0,0,1-.04-1.562,5.025,5.025,0,0,1,4.232-4.244c.216-.037.482.068.639-.12.135-.162.088-.408.133-.615a4.788,4.788,0,0,1,5.562-3.64.842.842,0,0,1,.455.2" transform="translate(-10.277 -4.872)" fill="#6dc72a"/>
        <path id="Trazado_136115" data-name="Trazado 136115" d="M25.5,5.082a4.531,4.531,0,0,0-3.232.2A4.6,4.6,0,0,0,19.577,8.57c-.053.225-.017.5-.137.672-.129.188-.419.05-.635.086a4.953,4.953,0,0,0-3.813,2.792,4.157,4.157,0,0,0-.461,1.936c.006.336-.006.672-.01,1.008a4.437,4.437,0,0,1,1.525-7.985,3.36,3.36,0,0,1,.828-.112c.472-.007.646-.172.688-.636a4.137,4.137,0,0,1,7.94-1.25" transform="translate(-7.541 -1.522)" fill="#5eab24"/>
        <path id="Trazado_136116" data-name="Trazado 136116" d="M7.585,37.815A3.625,3.625,0,0,1,4.221,35.07a2.972,2.972,0,0,1-.077-.9.807.807,0,0,0-.44-.827A2.306,2.306,0,0,1,2.6,31.7a2.417,2.417,0,0,1,1.919-2.76,2.385,2.385,0,0,1,.465-.055,1.124,1.124,0,0,1,1.143.689,5.286,5.286,0,0,0,4.884,3.1,4.476,4.476,0,0,0,1.808-.3.327.327,0,0,1,.413.085A6.036,6.036,0,0,0,16.344,34.2c.11.024.232.039.243.186a4.06,4.06,0,0,1-.055,1.493,3.39,3.39,0,0,1-1.37-.273,7.25,7.25,0,0,1-2.241-1.191.866.866,0,0,0-.72-.173,6.934,6.934,0,0,1-5.886-1.688.717.717,0,0,0-.1-.085c-.134-.075-.232-.3-.373-.242-.175.069-.144.311-.16.479a2.739,2.739,0,0,0,1.175,2.622.757.757,0,0,1,.359.632,4.559,4.559,0,0,0,.31,1.505.476.476,0,0,1,.064.353" transform="translate(-1.534 -17.309)" fill="#4e8f1e"/>
        <path id="Trazado_136117" data-name="Trazado 136117" d="M12.059,42.522a4.373,4.373,0,0,1-.465-1.9.5.5,0,0,0-.269-.487A2.886,2.886,0,0,1,10.071,37.3c.043-.192,0-.474.176-.549s.285.2.423.311a8.776,8.776,0,0,0,1.675,1.153,7.191,7.191,0,0,0,2.19.681,6.3,6.3,0,0,0,2.258-.061.753.753,0,0,1,.636.2,7.253,7.253,0,0,0,3.465,1.484c.039.005.075.042.111.065a4.192,4.192,0,0,1-3.382,3.291A4.135,4.135,0,0,1,13.9,42.64a.736.736,0,0,0-.785-.219,2.854,2.854,0,0,1-1.06.1" transform="translate(-6.007 -22.016)" fill="#5eab24"/>
        <path id="Trazado_136118" data-name="Trazado 136118" d="M45.1,16.193c-.077.1.02.162.061.232a7.781,7.781,0,0,1,1.09,3.611,7.691,7.691,0,0,1-3.8,7.108,7.545,7.545,0,0,1-2.1.844c-.307.074-.335.279-.381.539a6.583,6.583,0,0,1-1.137,2.726,1.955,1.955,0,0,0-.113.205,4.337,4.337,0,0,1-1.255-.621c-.16-.106-.162-.186-.043-.342A5.2,5.2,0,0,0,38.5,27.352a1.774,1.774,0,0,0-.005-.2c-.049-.523-.048-.495.454-.535A6.2,6.2,0,0,0,44.683,20,6.032,6.032,0,0,0,43.2,16.411l-.213-.249a3.809,3.809,0,0,1,2.115.031" transform="translate(-22.37 -9.605)" fill="#47821c"/>
        <path id="Trazado_136119" data-name="Trazado 136119" d="M19.075,55.573v.2c0,.67,0,.68-.657.846a2.583,2.583,0,0,1-1.825-.186,1.061,1.061,0,0,0-.78-.076,3.4,3.4,0,0,1-4.226-2.519,1.431,1.431,0,0,1-.035-.164c-.058-.446-.031-.474.39-.363a4.63,4.63,0,0,0,1.961.071.5.5,0,0,1,.453.137,5.052,5.052,0,0,0,4.418,1.236c.256-.046.323,0,.305.246-.014.19,0,.381,0,.571" transform="translate(-6.908 -31.915)" fill="#47811c"/>
        <path id="Trazado_136120" data-name="Trazado 136120" d="M34.018,66.115a.881.881,0,0,1-1.137-.758,3.347,3.347,0,0,1-.006-.336c0-3.149.006-6.3-.009-9.447a.549.549,0,0,1,.359-.59,4.677,4.677,0,0,0,.515-.312c.164.166.114.379.114.574q.005,4.639,0,9.278a3.868,3.868,0,0,0,.162,1.394.269.269,0,0,1,0,.2" transform="translate(-19.695 -32.762)" fill="#a96100"/>
        <path id="Trazado_136121" data-name="Trazado 136121" d="M35.325,66.015a2.016,2.016,0,0,1-.27-1.088q0-5.178-.007-10.355c.09-.127.166-.044.251.012.646.424.646.424.646,1.215q0,4.616,0,9.231a.865.865,0,0,1-.619.985" transform="translate(-21.002 -32.662)" fill="#cb7400"/>
        <path id="Trazado_136122" data-name="Trazado 136122" d="M55.265,70.589a2.767,2.767,0,0,1,1.205,1.862.845.845,0,0,0,.682.752,1.779,1.779,0,0,1,1.2,2.361c-.063.137-.188.1-.294.1q-3.429,0-6.859,0c-.27,0-.319-.073-.2-.32a1.984,1.984,0,0,1,.773-.867.61.61,0,0,0,.317-.545,3.688,3.688,0,0,1,2.722-3.344.568.568,0,0,1,.455,0" transform="translate(-30.525 -42.27)" fill="#6dc72a"/>
        <path id="Trazado_136123" data-name="Trazado 136123" d="M52.369,69.741a3.6,3.6,0,0,0-3.084,3.495.383.383,0,0,1-.237.393,2.158,2.158,0,0,0-.873.9c-.082.145-.108.26.144.26q3.425-.01,6.849,0a.516.516,0,0,0,.289-.067c-.016.178-.155.129-.256.129q-4.418,0-8.835,0c-.19,0-.25-.062-.258-.247a1.594,1.594,0,0,1,.8-1.559,1.028,1.028,0,0,0,.569-.992,3.092,3.092,0,0,1,4.713-2.454,1.9,1.9,0,0,1,.18.147" transform="translate(-27.629 -41.422)" fill="#5eab24"/>
        <path id="Trazado_136124" data-name="Trazado 136124" d="M46.661,46.632a.522.522,0,0,1-.5-.407.454.454,0,0,1,.254-.534c.227-.119.471-.206.7-.323a2.954,2.954,0,0,0,1.521-1.9c.028-.1.048-.2.084-.289a.52.52,0,0,1,.6-.37.544.544,0,0,1,.383.656,4.065,4.065,0,0,1-.778,1.69,3.989,3.989,0,0,1-2.054,1.422l-.2.057" transform="translate(-27.65 -25.643)" fill="#47821c"/>
        <path id="Trazado_136125" data-name="Trazado 136125" d="M7.858,77.818a3.261,3.261,0,0,1,1.011-2.724,3.1,3.1,0,0,1,2.024-.919,2.2,2.2,0,0,1,.849,1.056.836.836,0,0,0,.948.635,1.665,1.665,0,0,1,1.7,1.706c0,.176-.045.264-.245.262Q11,77.82,7.858,77.818" transform="translate(-4.7 -44.449)" fill="#6dc72a"/>
        <path id="Trazado_136126" data-name="Trazado 136126" d="M39.671,30.47c-.474,0-.772-.34-.61-.735.125-.3.433-.319.685-.331a3.127,3.127,0,0,0,2.851-2.55,5,5,0,0,1,.06-.6.525.525,0,0,1,.638-.425.556.556,0,0,1,.38.6,4.2,4.2,0,0,1-4,4.04" transform="translate(-23.381 -15.472)" fill="#5eab24"/>
        <path id="Trazado_136127" data-name="Trazado 136127" d="M22.018,29.367a1.278,1.278,0,1,1-1.268-1.319,1.264,1.264,0,0,1,1.268,1.319" transform="translate(-11.662 -16.806)" fill="#5eab24"/>
        <path id="Trazado_136128" data-name="Trazado 136128" d="M38.3,16.944a1.277,1.277,0,1,1-2.554-.045,1.278,1.278,0,1,1,2.554.045" transform="translate(-21.419 -9.349)" fill="#5eab24"/>
        <path id="Trazado_136129" data-name="Trazado 136129" d="M30.032,26.281a.472.472,0,1,1,.508-.472.517.517,0,0,1-.508.472" transform="translate(-17.701 -15.184)" fill="#5eac24"/>
        <path id="Trazado_136130" data-name="Trazado 136130" d="M33.689,32.659a.521.521,0,0,1-.464-.517.5.5,0,1,1,.464.517" transform="translate(-19.91 -19.007)" fill="#5eac24"/>
        <path id="Trazado_136131" data-name="Trazado 136131" d="M41.46,24.669a.506.506,0,0,1,.487.493.5.5,0,1,1-.487-.493" transform="translate(-24.539 -14.783)" fill="#5eac24"/>
        <path id="Trazado_136132" data-name="Trazado 136132" d="M26.884,47.271A1.28,1.28,0,0,1,25.59,48.6a1.3,1.3,0,0,1-1.262-1.306,1.326,1.326,0,0,1,1.292-1.315c.573,0,1.387.635,1.264,1.293" transform="translate(-14.578 -27.552)" fill="#4e8f1e"/>
        <path id="Trazado_136133" data-name="Trazado 136133" d="M18.14,45.031a.521.521,0,0,1-.515-.473.55.55,0,0,1,.5-.5.587.587,0,0,1,.5.466.514.514,0,0,1-.482.507" transform="translate(-10.562 -26.401)" fill="#4e901e"/>
        <path id="Trazado_136134" data-name="Trazado 136134" d="M58.484,77.572A1.264,1.264,0,0,1,57.2,76.316a1.322,1.322,0,0,1,1.29-1.3A1.254,1.254,0,0,1,59.771,76.3a1.221,1.221,0,0,1-1.287,1.267" transform="translate(-34.278 -44.95)" fill="#5eab24"/>
        <path id="Trazado_136135" data-name="Trazado 136135" d="M66.883,78.731a.512.512,0,0,1-.507.485.5.5,0,0,1,.062-1,.527.527,0,0,1,.445.512" transform="translate(-39.516 -46.871)" fill="#5eac24"/>
        <path id="Trazado_136136" data-name="Trazado 136136" d="M18.558,80.751a.472.472,0,1,1-.462-.517.52.52,0,0,1,.462.517" transform="translate(-10.556 -48.08)" fill="#5eac24"/>
        <path id="Trazado_136137" data-name="Trazado 136137" d="M12.519,78.735a.471.471,0,1,1-.941-.034.471.471,0,1,1,.941.034" transform="translate(-6.938 -46.872)" fill="#5eac24"/>
      </g>
    </g>
    <g id="Grupo_159115" data-name="Grupo 159115" transform="translate(-7319.971 -4609.719)">
      <g id="Grupo_159058-2" data-name="Grupo 159058" transform="translate(0 0)" clip-path="url(#clip-path-5)">
        <path id="Trazado_136107-2" data-name="Trazado 136107" d="M13.65,34.438c-.092-.131-.255-.113-.38-.178a1.925,1.925,0,0,1-1.108-1.845q0-3.211,0-6.421v-.384c-.344.036-.65.147-.973.183a3.46,3.46,0,0,1-1.708-.243A.992.992,0,0,0,8.87,25.5,4.407,4.407,0,0,1,3.577,21.09a.64.64,0,0,0-.28-.58,4.449,4.449,0,0,1-1.7-3.159.914.914,0,0,0-.356-.731,3.415,3.415,0,0,1,2.414-6.039c.394.039.391-.091.382-.392A5.366,5.366,0,0,1,6.947,5.053,4.615,4.615,0,0,1,8.721,4.48.358.358,0,0,0,9.1,4.13,5.171,5.171,0,0,1,19.16,3.844a5.691,5.691,0,0,1,.172,1.429.408.408,0,0,0,.584.423,5.138,5.138,0,0,1,6.219,2.322,4.908,4.908,0,0,1,.588,3.5.324.324,0,0,0,.209.434,3.7,3.7,0,0,1,1.983,4.322,3.741,3.741,0,0,1-3.856,2.753,2.717,2.717,0,0,1-.883-.181c-.2-.085-.278-.036-.348.174a5.971,5.971,0,0,1-1.9,2.751c-.361.3-.511.3-.883.02a.452.452,0,0,1-.023-.65,4.578,4.578,0,0,1,.492-.506,4.92,4.92,0,0,0,1.41-2.477,1.566,1.566,0,0,1,.134-.414.618.618,0,0,1,.695-.279,2.362,2.362,0,0,1,.4.171,2.613,2.613,0,1,0,2.053-4.8c-.063-.024-.127-.044-.19-.067a.677.677,0,0,1-.509-.956,7.042,7.042,0,0,0,.167-.854,4.021,4.021,0,0,0-2.714-4.205c-.085-.027-.168-.062-.252-.094a4.3,4.3,0,0,0-1.63-.1c-.075.007-.172,0-.207.082s.055.135.1.193a6.264,6.264,0,0,1-.3,8.346A6.047,6.047,0,0,1,16.513,17.1c-.191.012-.355.005-.325.289a4.991,4.991,0,0,1-.858,3.246c-.295.466-.3.461.174.756a4.539,4.539,0,0,0,.889.393,4.365,4.365,0,0,0,1.383.25,1.009,1.009,0,0,1,.519.123c.173.1.315.229.209.462-.037.4-.2.56-.6.549a5.392,5.392,0,0,1-1.618-.252c-.265-.092-.315-.037-.315.232.008,3.046,0,6.092.007,9.138a1.977,1.977,0,0,1-1.1,1.953c-.157.079-.328.13-.493.194Z" transform="translate(0 0)"/>
        <path id="Trazado_136108-2" data-name="Trazado 136108" d="M44.054,74.334a1.546,1.546,0,0,1-.5-1.447,2.628,2.628,0,0,1,1.152-2.168.468.468,0,0,0,.216-.382,4.109,4.109,0,0,1,7.386-2.118,3.782,3.782,0,0,1,.666,1.34.526.526,0,0,0,.353.394,2.852,2.852,0,0,1,1.463,3.867,1.094,1.094,0,0,1-.448.514Z" transform="translate(-26.1 -39.896)"/>
        <path id="Trazado_136109-2" data-name="Trazado 136109" d="M12.518,85.6c0,.022,0,.044,0,.067H3.843a.083.083,0,0,0-.01-.06.53.53,0,0,1,.438-.115q3.9-.005,7.8,0a.564.564,0,0,1,.442.109" transform="translate(-2.297 -51.228)" fill="#4f4f4f"/>
        <path id="Trazado_136110-2" data-name="Trazado 136110" d="M42.922,32.475c-.091-.376-.231-.477-.745-.487a3.586,3.586,0,0,1-1.419-.283c-.055-.18.075-.3.157-.421a6.4,6.4,0,0,0,1.008-2.575.616.616,0,0,1,.514-.572,7.672,7.672,0,0,0,5.692-6.217,7.666,7.666,0,0,0-.971-5.17c-.1-.17-.094-.173-.011-.31a4.1,4.1,0,0,1,3.066,3.9,4.03,4.03,0,0,1-.188,1.321c-.163.533-.048.726.482.9a2.657,2.657,0,0,1,1.929,2.513A2.688,2.688,0,0,1,50.1,27.82a2.751,2.751,0,0,1-1.709-.325c-.513-.271-.8-.143-.927.426a5.181,5.181,0,0,1-1.758,2.9.613.613,0,0,0-.238.816l-.417.258a.951.951,0,0,0-.828-.147c-.365.131-.672.274-.764.686l-.533.04" transform="translate(-24.417 -9.852)" fill="#4e8f1e"/>
        <path id="Trazado_136111-2" data-name="Trazado 136111" d="M11.047,76.379l-8.685.007c-.18-.008-.273-.137-.36-.267a3.921,3.921,0,0,1,.3-4.649c.222-.259.432-.284.766-.091a.426.426,0,0,1,.191.614,3.988,3.988,0,0,1-.29.449,2.8,2.8,0,0,0-.323,2.493.439.439,0,0,0,.495.346c.289-.013.579,0,.87,0,1.972-.008,3.943,0,5.914,0,.493,0,.564-.1.42-.585a1.513,1.513,0,0,0-1.509-1.159.971.971,0,0,1-1.066-.715,2.7,2.7,0,0,0-.784-.993,2.59,2.59,0,0,0-1.462-.6,1.481,1.481,0,0,1-.458-.084.438.438,0,0,1-.293-.581A.492.492,0,0,1,5.36,70.1a3.8,3.8,0,0,1,3.306,2,.539.539,0,0,0,.488.312,2.735,2.735,0,0,1,2.195,3.67.454.454,0,0,1-.3.291" transform="translate(-0.825 -42.009)"/>
        <path id="Trazado_136112-2" data-name="Trazado 136112" d="M5.5,76.062c-.313,0-.628-.012-.938.018-.255.024-.361-.1-.439-.307a2.832,2.832,0,0,1,.34-2.767c.359-.509.377-.592.122-.942A4.078,4.078,0,0,1,6.2,71.335c.034-.006.061-.059.09-.09.046.41.2.546.661.571a2.6,2.6,0,0,1,1.583.6c-.13.127-.309.114-.467.157a3.267,3.267,0,0,0-2.416,2.442,2.385,2.385,0,0,0-.063.63.543.543,0,0,1-.089.413" transform="translate(-2.344 -42.693)" fill="#5eab24"/>
        <path id="Trazado_136113-2" data-name="Trazado 136113" d="M47.5,55.083c-.018-.3.063-.572.388-.641.4-.086.851-.474,1.2.1.054.437-.033.583-.44.731-.094.034-.19.063-.285.1-.463.155-.6.109-.867-.288" transform="translate(-28.464 -32.499)" fill="#010101"/>
        <path id="Trazado_136114-2" data-name="Trazado 136114" d="M28.239,8.431a3.455,3.455,0,0,1,.321,1.924.863.863,0,0,0,.483.925,5.159,5.159,0,1,1-6.394,7.968l-.113-.124c-.423-.468-.494-.478-1.07-.251a4.382,4.382,0,0,1-4.08-.355,1.137,1.137,0,0,1-.129-.105,3.505,3.505,0,0,1-.04-1.562,5.025,5.025,0,0,1,4.232-4.244c.216-.037.482.068.639-.12.135-.162.088-.408.133-.615a4.788,4.788,0,0,1,5.562-3.64.842.842,0,0,1,.455.2" transform="translate(-10.277 -4.872)" fill="#6dc72a"/>
        <path id="Trazado_136115-2" data-name="Trazado 136115" d="M25.5,5.082a4.531,4.531,0,0,0-3.232.2A4.6,4.6,0,0,0,19.577,8.57c-.053.225-.017.5-.137.672-.129.188-.419.05-.635.086a4.953,4.953,0,0,0-3.813,2.792,4.157,4.157,0,0,0-.461,1.936c.006.336-.006.672-.01,1.008a4.437,4.437,0,0,1,1.525-7.985,3.36,3.36,0,0,1,.828-.112c.472-.007.646-.172.688-.636a4.137,4.137,0,0,1,7.94-1.25" transform="translate(-7.541 -1.522)" fill="#5eab24"/>
        <path id="Trazado_136116-2" data-name="Trazado 136116" d="M7.585,37.815A3.625,3.625,0,0,1,4.221,35.07a2.972,2.972,0,0,1-.077-.9.807.807,0,0,0-.44-.827A2.306,2.306,0,0,1,2.6,31.7a2.417,2.417,0,0,1,1.919-2.76,2.385,2.385,0,0,1,.465-.055,1.124,1.124,0,0,1,1.143.689,5.286,5.286,0,0,0,4.884,3.1,4.476,4.476,0,0,0,1.808-.3.327.327,0,0,1,.413.085A6.036,6.036,0,0,0,16.344,34.2c.11.024.232.039.243.186a4.06,4.06,0,0,1-.055,1.493,3.39,3.39,0,0,1-1.37-.273,7.25,7.25,0,0,1-2.241-1.191.866.866,0,0,0-.72-.173,6.934,6.934,0,0,1-5.886-1.688.717.717,0,0,0-.1-.085c-.134-.075-.232-.3-.373-.242-.175.069-.144.311-.16.479a2.739,2.739,0,0,0,1.175,2.622.757.757,0,0,1,.359.632,4.559,4.559,0,0,0,.31,1.505.476.476,0,0,1,.064.353" transform="translate(-1.534 -17.309)" fill="#4e8f1e"/>
        <path id="Trazado_136117-2" data-name="Trazado 136117" d="M12.059,42.522a4.373,4.373,0,0,1-.465-1.9.5.5,0,0,0-.269-.487A2.886,2.886,0,0,1,10.071,37.3c.043-.192,0-.474.176-.549s.285.2.423.311a8.776,8.776,0,0,0,1.675,1.153,7.191,7.191,0,0,0,2.19.681,6.3,6.3,0,0,0,2.258-.061.753.753,0,0,1,.636.2,7.253,7.253,0,0,0,3.465,1.484c.039.005.075.042.111.065a4.192,4.192,0,0,1-3.382,3.291A4.135,4.135,0,0,1,13.9,42.64a.736.736,0,0,0-.785-.219,2.854,2.854,0,0,1-1.06.1" transform="translate(-6.007 -22.016)" fill="#5eab24"/>
        <path id="Trazado_136118-2" data-name="Trazado 136118" d="M45.1,16.193c-.077.1.02.162.061.232a7.781,7.781,0,0,1,1.09,3.611,7.691,7.691,0,0,1-3.8,7.108,7.545,7.545,0,0,1-2.1.844c-.307.074-.335.279-.381.539a6.583,6.583,0,0,1-1.137,2.726,1.955,1.955,0,0,0-.113.205,4.337,4.337,0,0,1-1.255-.621c-.16-.106-.162-.186-.043-.342A5.2,5.2,0,0,0,38.5,27.352a1.774,1.774,0,0,0-.005-.2c-.049-.523-.048-.495.454-.535A6.2,6.2,0,0,0,44.683,20,6.032,6.032,0,0,0,43.2,16.411l-.213-.249a3.809,3.809,0,0,1,2.115.031" transform="translate(-22.37 -9.605)" fill="#47821c"/>
        <path id="Trazado_136119-2" data-name="Trazado 136119" d="M19.075,55.573v.2c0,.67,0,.68-.657.846a2.583,2.583,0,0,1-1.825-.186,1.061,1.061,0,0,0-.78-.076,3.4,3.4,0,0,1-4.226-2.519,1.431,1.431,0,0,1-.035-.164c-.058-.446-.031-.474.39-.363a4.63,4.63,0,0,0,1.961.071.5.5,0,0,1,.453.137,5.052,5.052,0,0,0,4.418,1.236c.256-.046.323,0,.305.246-.014.19,0,.381,0,.571" transform="translate(-6.908 -31.915)" fill="#47811c"/>
        <path id="Trazado_136120-2" data-name="Trazado 136120" d="M34.018,66.115a.881.881,0,0,1-1.137-.758,3.347,3.347,0,0,1-.006-.336c0-3.149.006-6.3-.009-9.447a.549.549,0,0,1,.359-.59,4.677,4.677,0,0,0,.515-.312c.164.166.114.379.114.574q.005,4.639,0,9.278a3.868,3.868,0,0,0,.162,1.394.269.269,0,0,1,0,.2" transform="translate(-19.695 -32.762)" fill="#a96100"/>
        <path id="Trazado_136121-2" data-name="Trazado 136121" d="M35.325,66.015a2.016,2.016,0,0,1-.27-1.088q0-5.178-.007-10.355c.09-.127.166-.044.251.012.646.424.646.424.646,1.215q0,4.616,0,9.231a.865.865,0,0,1-.619.985" transform="translate(-21.002 -32.662)" fill="#cb7400"/>
        <path id="Trazado_136122-2" data-name="Trazado 136122" d="M55.265,70.589a2.767,2.767,0,0,1,1.205,1.862.845.845,0,0,0,.682.752,1.779,1.779,0,0,1,1.2,2.361c-.063.137-.188.1-.294.1q-3.429,0-6.859,0c-.27,0-.319-.073-.2-.32a1.984,1.984,0,0,1,.773-.867.61.61,0,0,0,.317-.545,3.688,3.688,0,0,1,2.722-3.344.568.568,0,0,1,.455,0" transform="translate(-30.525 -42.27)" fill="#6dc72a"/>
        <path id="Trazado_136123-2" data-name="Trazado 136123" d="M52.369,69.741a3.6,3.6,0,0,0-3.084,3.495.383.383,0,0,1-.237.393,2.158,2.158,0,0,0-.873.9c-.082.145-.108.26.144.26q3.425-.01,6.849,0a.516.516,0,0,0,.289-.067c-.016.178-.155.129-.256.129q-4.418,0-8.835,0c-.19,0-.25-.062-.258-.247a1.594,1.594,0,0,1,.8-1.559,1.028,1.028,0,0,0,.569-.992,3.092,3.092,0,0,1,4.713-2.454,1.9,1.9,0,0,1,.18.147" transform="translate(-27.629 -41.422)" fill="#5eab24"/>
        <path id="Trazado_136124-2" data-name="Trazado 136124" d="M46.661,46.632a.522.522,0,0,1-.5-.407.454.454,0,0,1,.254-.534c.227-.119.471-.206.7-.323a2.954,2.954,0,0,0,1.521-1.9c.028-.1.048-.2.084-.289a.52.52,0,0,1,.6-.37.544.544,0,0,1,.383.656,4.065,4.065,0,0,1-.778,1.69,3.989,3.989,0,0,1-2.054,1.422l-.2.057" transform="translate(-27.65 -25.643)" fill="#47821c"/>
        <path id="Trazado_136125-2" data-name="Trazado 136125" d="M7.858,77.818a3.261,3.261,0,0,1,1.011-2.724,3.1,3.1,0,0,1,2.024-.919,2.2,2.2,0,0,1,.849,1.056.836.836,0,0,0,.948.635,1.665,1.665,0,0,1,1.7,1.706c0,.176-.045.264-.245.262Q11,77.82,7.858,77.818" transform="translate(-4.7 -44.449)" fill="#6dc72a"/>
        <path id="Trazado_136126-2" data-name="Trazado 136126" d="M39.671,30.47c-.474,0-.772-.34-.61-.735.125-.3.433-.319.685-.331a3.127,3.127,0,0,0,2.851-2.55,5,5,0,0,1,.06-.6.525.525,0,0,1,.638-.425.556.556,0,0,1,.38.6,4.2,4.2,0,0,1-4,4.04" transform="translate(-23.381 -15.472)" fill="#5eab24"/>
        <path id="Trazado_136127-2" data-name="Trazado 136127" d="M22.018,29.367a1.278,1.278,0,1,1-1.268-1.319,1.264,1.264,0,0,1,1.268,1.319" transform="translate(-11.662 -16.806)" fill="#5eab24"/>
        <path id="Trazado_136128-2" data-name="Trazado 136128" d="M38.3,16.944a1.277,1.277,0,1,1-2.554-.045,1.278,1.278,0,1,1,2.554.045" transform="translate(-21.419 -9.349)" fill="#5eab24"/>
        <path id="Trazado_136129-2" data-name="Trazado 136129" d="M30.032,26.281a.472.472,0,1,1,.508-.472.517.517,0,0,1-.508.472" transform="translate(-17.701 -15.184)" fill="#5eac24"/>
        <path id="Trazado_136130-2" data-name="Trazado 136130" d="M33.689,32.659a.521.521,0,0,1-.464-.517.5.5,0,1,1,.464.517" transform="translate(-19.91 -19.007)" fill="#5eac24"/>
        <path id="Trazado_136131-2" data-name="Trazado 136131" d="M41.46,24.669a.506.506,0,0,1,.487.493.5.5,0,1,1-.487-.493" transform="translate(-24.539 -14.783)" fill="#5eac24"/>
        <path id="Trazado_136132-2" data-name="Trazado 136132" d="M26.884,47.271A1.28,1.28,0,0,1,25.59,48.6a1.3,1.3,0,0,1-1.262-1.306,1.326,1.326,0,0,1,1.292-1.315c.573,0,1.387.635,1.264,1.293" transform="translate(-14.578 -27.552)" fill="#4e8f1e"/>
        <path id="Trazado_136133-2" data-name="Trazado 136133" d="M18.14,45.031a.521.521,0,0,1-.515-.473.55.55,0,0,1,.5-.5.587.587,0,0,1,.5.466.514.514,0,0,1-.482.507" transform="translate(-10.562 -26.401)" fill="#4e901e"/>
        <path id="Trazado_136134-2" data-name="Trazado 136134" d="M58.484,77.572A1.264,1.264,0,0,1,57.2,76.316a1.322,1.322,0,0,1,1.29-1.3A1.254,1.254,0,0,1,59.771,76.3a1.221,1.221,0,0,1-1.287,1.267" transform="translate(-34.278 -44.95)" fill="#5eab24"/>
        <path id="Trazado_136135-2" data-name="Trazado 136135" d="M66.883,78.731a.512.512,0,0,1-.507.485.5.5,0,0,1,.062-1,.527.527,0,0,1,.445.512" transform="translate(-39.516 -46.871)" fill="#5eac24"/>
        <path id="Trazado_136136-2" data-name="Trazado 136136" d="M18.558,80.751a.472.472,0,1,1-.462-.517.52.52,0,0,1,.462.517" transform="translate(-10.556 -48.08)" fill="#5eac24"/>
        <path id="Trazado_136137-2" data-name="Trazado 136137" d="M12.519,78.735a.471.471,0,1,1-.941-.034.471.471,0,1,1,.941.034" transform="translate(-6.938 -46.872)" fill="#5eac24"/>
      </g>
    </g>
  </g>
</svg>
