<svg xmlns="http://www.w3.org/2000/svg" xmlns:xlink="http://www.w3.org/1999/xlink" width="323" height="326" viewBox="0 0 323 326">
  <defs>
    <clipPath id="clip-path">
      <rect id="Rectángulo_37603" data-name="Rectángulo 37603" width="61" height="60.773" fill="none"/>
    </clipPath>
    <clipPath id="clip-path-2">
      <rect id="Rectángulo_37604" data-name="Rectángulo 37604" width="51.912" height="51.835" fill="none"/>
    </clipPath>
    <clipPath id="clip-path-3">
      <rect id="Rectángulo_37608" data-name="Rectángulo 37608" width="45" height="45" transform="translate(0 0)" fill="none"/>
    </clipPath>
    <clipPath id="clip-path-4">
      <rect id="Rectángulo_37595" data-name="Rectángulo 37595" width="32.788" height="36.416" fill="none"/>
    </clipPath>
    <clipPath id="clip-path-5">
      <rect id="Rectángulo_37596" data-name="Rectángulo 37596" width="29.044" height="34.437" fill="none"/>
    </clipPath>
  </defs>
  <g id="Grupo_161679" data-name="Grupo 161679" transform="translate(7354 5701)">
    <g id="Grupo_159015" data-name="Grupo 159015" transform="translate(0 273)">
      <path id="Rectángulo_37574" data-name="Rectángulo 37574" d="M11,0H171a0,0,0,0,1,0,0V93a0,0,0,0,1,0,0H11A11,11,0,0,1,0,82V11A11,11,0,0,1,11,0Z" transform="translate(-7202 -5863)" fill="#fff7da"/>
    </g>
    <path id="Trazado_142369" data-name="Trazado 142369" d="M14.9,12.992,14.2,17H11.91L13.887,5.625l3.984.008a3.986,3.986,0,0,1,2.9,1.023,3.174,3.174,0,0,1,.922,2.672A3.592,3.592,0,0,1,20.3,12a5.075,5.075,0,0,1-3.238,1Zm.32-1.9,1.906.016a2.41,2.41,0,0,0,1.531-.477,1.918,1.918,0,0,0,.727-1.289,1.646,1.646,0,0,0-.262-1.3A1.418,1.418,0,0,0,18,7.531l-2.156-.008ZM26.66,17a2.281,2.281,0,0,1-.086-.766,2.863,2.863,0,0,1-2.156.922,2.594,2.594,0,0,1-1.84-.723,2.186,2.186,0,0,1-.684-1.746,2.527,2.527,0,0,1,1.16-2.121,5.266,5.266,0,0,1,2.965-.738l1.031.016.109-.508a1.764,1.764,0,0,0,.023-.492.846.846,0,0,0-.277-.574.955.955,0,0,0-.629-.215,1.345,1.345,0,0,0-.875.254,1.231,1.231,0,0,0-.461.777l-2.211.008a2.457,2.457,0,0,1,1.113-1.965,4.312,4.312,0,0,1,2.613-.738,3.117,3.117,0,0,1,2.25.855,2.5,2.5,0,0,1,.68,2.121l-.648,4.047-.039.5a2.412,2.412,0,0,0,.133.938L28.824,17Zm-1.7-1.555a2.017,2.017,0,0,0,1.664-.828l.273-1.461-.766-.008a2.139,2.139,0,0,0-1.758.742,1.292,1.292,0,0,0-.242.633.75.75,0,0,0,.176.668A.891.891,0,0,0,24.965,15.445Zm10.992-4.781a4.548,4.548,0,0,0-.742-.078,2.136,2.136,0,0,0-1.867.883L32.371,17h-2.2l1.469-8.453,2.07-.008L33.5,9.57a2.325,2.325,0,0,1,1.969-1.2,3.214,3.214,0,0,1,.766.109Zm3.609,2.969-1.023.891L38.113,17h-2.2L37.988,5H40.2l-1.141,6.516.43-.461L42,8.547h2.828l-3.7,3.633L43.48,17H41.066Z" transform="translate(-7133 -5556)" fill="#12263f"/>
    <path id="Trazado_142370" data-name="Trazado 142370" d="M11,0H89a11,11,0,0,1,11,11V75A11,11,0,0,1,89,86H11A11,11,0,0,1,0,75V11A11,11,0,0,1,11,0Z" transform="translate(-7346 -5701)" fill="#ffbfc1"/>
    <path id="Trazado_142371" data-name="Trazado 142371" d="M11,0H89a11,11,0,0,1,11,11V71A11,11,0,0,1,89,82H11A11,11,0,0,1,0,71V11A11,11,0,0,1,11,0Z" transform="translate(-7346 -5457)" fill="#ffbfc1"/>
    <path id="Trazado_142372" data-name="Trazado 142372" d="M11,0H89a11,11,0,0,1,11,11V92a11,11,0,0,1-11,11H11A11,11,0,0,1,0,92V11A11,11,0,0,1,11,0Z" transform="translate(-7346 -5592)" fill="#c4d1ff"/>
    <path id="Trazado_142373" data-name="Trazado 142373" d="M.164,17,2.141,5.625l3.547.008a4.705,4.705,0,0,1,2.969.8,2.488,2.488,0,0,1,.9,2.242A2.865,2.865,0,0,1,7.563,11.2a1.911,1.911,0,0,1,1.055.879,2.63,2.63,0,0,1,.32,1.52,3.291,3.291,0,0,1-1.262,2.5A5,5,0,0,1,4.531,17ZM3.32,12.047l-.539,3.07,1.8.008A2.327,2.327,0,0,0,6,14.707a1.658,1.658,0,0,0,.68-1.129,1.4,1.4,0,0,0-.191-1.1,1.269,1.269,0,0,0-1.012-.426ZM3.6,10.391l1.555.016A2.475,2.475,0,0,0,6.574,10a1.575,1.575,0,0,0,.66-1.086q.2-1.375-1.445-1.383L4.1,7.523ZM14.9,17a2.281,2.281,0,0,1-.086-.766,2.863,2.863,0,0,1-2.156.922,2.594,2.594,0,0,1-1.84-.723,2.186,2.186,0,0,1-.684-1.746,2.527,2.527,0,0,1,1.16-2.121,5.266,5.266,0,0,1,2.965-.738l1.031.016.109-.508a1.764,1.764,0,0,0,.023-.492.846.846,0,0,0-.277-.574.955.955,0,0,0-.629-.215,1.345,1.345,0,0,0-.875.254,1.231,1.231,0,0,0-.461.777l-2.211.008a2.457,2.457,0,0,1,1.113-1.965A4.312,4.312,0,0,1,14.7,8.391a3.117,3.117,0,0,1,2.25.855,2.5,2.5,0,0,1,.68,2.121l-.648,4.047-.039.5a2.412,2.412,0,0,0,.133.938L17.063,17Zm-1.7-1.555a2.017,2.017,0,0,0,1.664-.828l.273-1.461-.766-.008a2.139,2.139,0,0,0-1.758.742,1.292,1.292,0,0,0-.242.633.75.75,0,0,0,.176.668A.891.891,0,0,0,13.2,15.445Zm8.688-6.906-.187,1a3.042,3.042,0,0,1,2.461-1.148,2.028,2.028,0,0,1,1.766.875,3.526,3.526,0,0,1,.414,2.359L25.453,17h-2.2l.906-5.4a2.528,2.528,0,0,0,.016-.555.9.9,0,0,0-1-.82,1.9,1.9,0,0,0-1.555.8L20.563,17h-2.2l1.469-8.453Zm8.945,5.094-1.023.891L29.383,17h-2.2L29.258,5h2.211l-1.141,6.516.43-.461,2.508-2.508h2.828L32.4,12.18,34.75,17H32.336Z" transform="translate(-7317 -5639)" fill="#12263f"/>
    <path id="Trazado_142374" data-name="Trazado 142374" d="M9.164,17H6.875l.844-4.875H3.3L2.453,17H.164L2.141,5.625H4.43l-.8,4.609H8.047l.8-4.609h2.289Zm6.742-8.609a3.39,3.39,0,0,1,1.926.574A3.234,3.234,0,0,1,19.02,10.5a4.762,4.762,0,0,1,.27,2.176,5.143,5.143,0,0,1-1.4,3.262,3.96,3.96,0,0,1-3.02,1.215,3.38,3.38,0,0,1-1.906-.566,3.222,3.222,0,0,1-1.187-1.527,4.657,4.657,0,0,1-.273-2.156,5.3,5.3,0,0,1,1.422-3.328A3.878,3.878,0,0,1,15.906,8.391ZM13.68,13.706a1.95,1.95,0,0,0,.352,1.182,1.168,1.168,0,0,0,.945.449A1.712,1.712,0,0,0,16.57,14.4a4.647,4.647,0,0,0,.539-2.531,2.122,2.122,0,0,0-.363-1.2,1.149,1.149,0,0,0-.949-.464,1.715,1.715,0,0,0-1.574.924A4.6,4.6,0,0,0,13.68,13.706Zm11.141.912q.125-.625-.867-.906l-.711-.18q-2.523-.7-2.453-2.453a2.428,2.428,0,0,1,1.059-1.949A3.942,3.942,0,0,1,24.3,8.391a3.536,3.536,0,0,1,2.313.758,2.5,2.5,0,0,1,.9,1.977l-2.187-.008a.963.963,0,0,0-1.078-1.1,1.552,1.552,0,0,0-.895.258,1.061,1.061,0,0,0-.465.7q-.117.625.945.883l.313.07a6.285,6.285,0,0,1,1.648.59,2.488,2.488,0,0,1,.879.824,2.04,2.04,0,0,1,.285,1.18,2.251,2.251,0,0,1-.52,1.406,3.18,3.18,0,0,1-1.359.93,4.736,4.736,0,0,1-1.816.3,3.568,3.568,0,0,1-2.344-.809,2.607,2.607,0,0,1-.953-2.051l2.078.016a1.142,1.142,0,0,0,1.3,1.227,1.845,1.845,0,0,0,1-.25A.987.987,0,0,0,24.82,14.617ZM36.094,12.8a6.981,6.981,0,0,1-.7,2.359,3.826,3.826,0,0,1-1.32,1.531,3.058,3.058,0,0,1-1.75.477,2.44,2.44,0,0,1-1.937-.914l-.773,4h-2.2l2.023-11.7,2.031-.008-.148.852a2.7,2.7,0,0,1,2.156-1,2.4,2.4,0,0,1,1.93.9,3.922,3.922,0,0,1,.734,2.363A9.132,9.132,0,0,1,36.094,12.8Zm-2.187-.16.047-.751a2.089,2.089,0,0,0-.277-1.205,1,1,0,0,0-.855-.462,1.818,1.818,0,0,0-1.586.814l-.633,3.49a1.233,1.233,0,0,0,1.242.822,1.59,1.59,0,0,0,1.328-.618A4.234,4.234,0,0,0,33.906,12.636ZM39.117,17H36.9l1.469-8.453h2.219ZM38.625,6.4a1.1,1.1,0,0,1,.344-.867A1.323,1.323,0,0,1,40.7,5.492a1.1,1.1,0,0,1,.383.828,1.132,1.132,0,0,1-.324.844,1.215,1.215,0,0,1-.887.375,1.235,1.235,0,0,1-.863-.3A1.091,1.091,0,0,1,38.625,6.4Zm6.828.07-.367,2.078h1.406L46.2,10.2H44.8l-.719,4.234a1.077,1.077,0,0,0,.063.609q.109.211.531.227.125.008.672-.039l-.156,1.727a3.706,3.706,0,0,1-1.266.18,1.985,1.985,0,0,1-1.617-.68,2.456,2.456,0,0,1-.437-1.8l.727-4.461H41.4l.289-1.656h1.2l.359-2.078ZM51.2,17a2.281,2.281,0,0,1-.086-.766,2.863,2.863,0,0,1-2.156.922,2.594,2.594,0,0,1-1.84-.723,2.186,2.186,0,0,1-.684-1.746,2.527,2.527,0,0,1,1.16-2.121,5.266,5.266,0,0,1,2.965-.738l1.031.016.109-.508a1.764,1.764,0,0,0,.023-.492.846.846,0,0,0-.277-.574.955.955,0,0,0-.629-.215,1.345,1.345,0,0,0-.875.254,1.231,1.231,0,0,0-.461.777l-2.211.008a2.457,2.457,0,0,1,1.113-1.965,4.312,4.312,0,0,1,2.613-.738,3.117,3.117,0,0,1,2.25.855,2.5,2.5,0,0,1,.68,2.121l-.648,4.047-.039.5a2.412,2.412,0,0,0,.133.938L53.359,17Zm-1.7-1.555a2.017,2.017,0,0,0,1.664-.828l.273-1.461-.766-.008a2.139,2.139,0,0,0-1.758.742,1.292,1.292,0,0,0-.242.633.75.75,0,0,0,.176.668A.891.891,0,0,0,49.5,15.445ZM57.031,17H54.813L56.9,5h2.211Z" transform="translate(-7328 -5516)" fill="#12263f"/>
    <path id="Trazado_142375" data-name="Trazado 142375" d="M10.125,7.523H6.75L5.109,17H2.82L4.461,7.523H1.125l.336-1.9h9Zm2.938,1.961a2.946,2.946,0,0,1,2.289-1.094,2.143,2.143,0,0,1,1.848.9,3.548,3.548,0,0,1,.441,2.379L16.75,17h-2.2l.9-5.358a2.6,2.6,0,0,0,.016-.563.885.885,0,0,0-.984-.868,1.9,1.9,0,0,0-1.562.766L11.852,17h-2.2L11.727,5h2.211Zm9.422,7.672a3.677,3.677,0,0,1-1.965-.543,3.292,3.292,0,0,1-1.277-1.469,4.093,4.093,0,0,1-.328-2.059l.023-.312a5.465,5.465,0,0,1,.719-2.266A4.341,4.341,0,0,1,21.2,8.918,3.827,3.827,0,0,1,23.3,8.391a2.924,2.924,0,0,1,2.473,1.2,4.117,4.117,0,0,1,.637,2.962l-.125.962H21.1a1.814,1.814,0,0,0,.4,1.313,1.521,1.521,0,0,0,1.172.508,2.7,2.7,0,0,0,2.109-.937l1.008,1.25a3.135,3.135,0,0,1-1.375,1.121A4.5,4.5,0,0,1,22.484,17.156Zm.7-6.945a1.565,1.565,0,0,0-1.082.383,3.363,3.363,0,0,0-.848,1.383h3.031l.047-.2a2.071,2.071,0,0,0,.008-.594,1.134,1.134,0,0,0-.383-.707A1.2,1.2,0,0,0,23.188,10.211ZM31.828,17a2.281,2.281,0,0,1-.086-.766,2.863,2.863,0,0,1-2.156.922,2.594,2.594,0,0,1-1.84-.723,2.186,2.186,0,0,1-.684-1.746,2.527,2.527,0,0,1,1.16-2.121,5.266,5.266,0,0,1,2.965-.738l1.031.016.109-.508a1.764,1.764,0,0,0,.023-.492.846.846,0,0,0-.277-.574.955.955,0,0,0-.629-.215,1.345,1.345,0,0,0-.875.254,1.231,1.231,0,0,0-.461.777l-2.211.008a2.457,2.457,0,0,1,1.113-1.965,4.312,4.312,0,0,1,2.613-.738,3.117,3.117,0,0,1,2.25.855,2.5,2.5,0,0,1,.68,2.121l-.648,4.047-.039.5a2.412,2.412,0,0,0,.133.938L33.992,17Zm-1.7-1.555a2.017,2.017,0,0,0,1.664-.828l.273-1.461-.766-.008a2.139,2.139,0,0,0-1.758.742,1.292,1.292,0,0,0-.242.633.75.75,0,0,0,.176.668A.891.891,0,0,0,30.133,15.445ZM39.8,6.469l-.367,2.078h1.406L40.555,10.2H39.148l-.719,4.234a1.077,1.077,0,0,0,.063.609q.109.211.531.227.125.008.672-.039l-.156,1.727a3.706,3.706,0,0,1-1.266.18,1.985,1.985,0,0,1-1.617-.68,2.456,2.456,0,0,1-.437-1.8l.727-4.461h-1.2l.289-1.656h1.2l.359-2.078Zm4.867,10.688a3.677,3.677,0,0,1-1.965-.543,3.292,3.292,0,0,1-1.277-1.469,4.093,4.093,0,0,1-.328-2.059l.023-.312a5.465,5.465,0,0,1,.719-2.266,4.341,4.341,0,0,1,1.547-1.59,3.827,3.827,0,0,1,2.094-.527,2.924,2.924,0,0,1,2.473,1.2,4.117,4.117,0,0,1,.637,2.962l-.125.962h-5.18a1.814,1.814,0,0,0,.4,1.313,1.521,1.521,0,0,0,1.172.508,2.7,2.7,0,0,0,2.109-.937l1.008,1.25A3.135,3.135,0,0,1,46.6,16.77,4.5,4.5,0,0,1,44.672,17.156Zm.7-6.945a1.565,1.565,0,0,0-1.082.383,3.363,3.363,0,0,0-.848,1.383h3.031l.047-.2a2.071,2.071,0,0,0,.008-.594,1.134,1.134,0,0,0-.383-.707A1.2,1.2,0,0,0,45.375,10.211Zm9.539.453a4.548,4.548,0,0,0-.742-.078,2.136,2.136,0,0,0-1.867.883L51.328,17h-2.2l1.469-8.453,2.07-.008-.2,1.031a2.325,2.325,0,0,1,1.969-1.2,3.214,3.214,0,0,1,.766.109Z" transform="translate(-7325 -5400)" fill="#12263f"/>
    <g id="Grupo_159012" data-name="Grupo 159012" transform="translate(-7354.082 -5601.339)">
      <g id="Rectángulo_37565" data-name="Rectángulo 37565" transform="translate(0.082 0.339)" fill="none" stroke="#ffd947" stroke-width="2">
        <rect width="117.836" height="121.508" rx="15" stroke="none"/>
        <rect x="1" y="1" width="115.836" height="119.508" rx="14" fill="none"/>
      </g>
      <path id="Polígono_15" data-name="Polígono 15" d="M9.723,0l9.723,16.53H0Z" transform="translate(132.395 51.339) rotate(90)" fill="#ffd947"/>
    </g>
    <path id="Trazado_136074" data-name="Trazado 136074" d="M4.863,6.046H2.129L1.689,9H.264L1.328,1.891H5.981l-.161,1.1H2.588L2.295,4.947H5.029ZM7.217,9H5.791l.791-5.283H8.008ZM8.2,2.452H6.772l.161-1.069H8.359Zm3.579,2.49-.522-.015a1.016,1.016,0,0,0-.537.139,1.118,1.118,0,0,0-.381.393L9.81,9H8.389L9.18,3.717H10.5l-.049.757a1.954,1.954,0,0,1,.571-.632,1.251,1.251,0,0,1,.718-.222,1.118,1.118,0,0,1,.2.017,1.691,1.691,0,0,1,.178.042ZM15,7.535a.416.416,0,0,0-.168-.405,2.152,2.152,0,0,0-.8-.293A2.906,2.906,0,0,1,12.7,6.275a1.076,1.076,0,0,1-.342-1.021,1.708,1.708,0,0,1,.735-1.169,2.644,2.644,0,0,1,1.6-.466,2.228,2.228,0,0,1,1.516.483,1.211,1.211,0,0,1,.432,1.187l-.01.029H15.254a.62.62,0,0,0-.132-.522.728.728,0,0,0-.566-.2A.916.916,0,0,0,14,4.771a.617.617,0,0,0-.266.42.408.408,0,0,0,.149.4,2.162,2.162,0,0,0,.808.273,2.951,2.951,0,0,1,1.365.574,1.115,1.115,0,0,1,.334,1.042,1.653,1.653,0,0,1-.774,1.182,2.986,2.986,0,0,1-1.677.439,2.16,2.16,0,0,1-1.572-.542,1.3,1.3,0,0,1-.435-1.211l.015-.029h1.3a.651.651,0,0,0,.193.615,1.03,1.03,0,0,0,.662.19,1.08,1.08,0,0,0,.615-.161A.607.607,0,0,0,15,7.535Zm4.766-5.112-.2,1.294h.894l-.146,1h-.9l-.4,2.69a.565.565,0,0,0,.059.447.4.4,0,0,0,.322.125,1.482,1.482,0,0,0,.2-.012,1.543,1.543,0,0,0,.2-.042l-.039,1.03a3.179,3.179,0,0,1-.432.11,2.573,2.573,0,0,1-.447.037,1.318,1.318,0,0,1-1.062-.41,1.568,1.568,0,0,1-.217-1.279l.4-2.7h-.767l.146-1h.771l.2-1.294Zm7.324,5.044h-2.31L24.067,9H22.578L26.04,1.891H27.5L28.823,9H27.334ZM25.3,6.349h1.6l-.405-2.51-.029,0Zm6.06.684.02.483.029,0,.171-.488,1.367-3.315h1.489L31.846,9H30.483L29.478,3.717h1.489ZM36.475,9.1a2.053,2.053,0,0,1-1.714-.735,2.3,2.3,0,0,1-.405-1.858l.029-.2a3.339,3.339,0,0,1,.93-1.965,2.569,2.569,0,0,1,1.887-.73,1.766,1.766,0,0,1,1.516.659,2.259,2.259,0,0,1,.325,1.748l-.107.737H35.781l-.01.024a1.239,1.239,0,0,0,.186.891.966.966,0,0,0,.83.33,3.132,3.132,0,0,0,.825-.1,3.768,3.768,0,0,0,.742-.3l.254.879a3.239,3.239,0,0,1-.928.435A4.047,4.047,0,0,1,36.475,9.1Zm.566-4.385a.912.912,0,0,0-.691.3,1.77,1.77,0,0,0-.408.776l.01.029h1.729l.015-.107a1.14,1.14,0,0,0-.076-.737A.609.609,0,0,0,37.041,4.718Zm4.438-.273a2.264,2.264,0,0,1,.737-.61,1.945,1.945,0,0,1,.9-.215,1.346,1.346,0,0,1,1.157.522,2.176,2.176,0,0,1,.22,1.621L44.009,9H42.578l.483-3.232a1.19,1.19,0,0,0-.071-.813.641.641,0,0,0-.564-.227,1.316,1.316,0,0,0-.574.125A1.374,1.374,0,0,0,41.4,5.2L40.83,9H39.4L40.2,3.717h1.328Zm6.948,3.8a2.1,2.1,0,0,1-.713.64,1.9,1.9,0,0,1-.913.22A1.375,1.375,0,0,1,45.6,8.531a2.436,2.436,0,0,1-.225-1.753l.459-3.062h1.421l-.459,3.071a1.618,1.618,0,0,0,.042.962.591.591,0,0,0,.549.244,1.469,1.469,0,0,0,.6-.117,1.279,1.279,0,0,0,.457-.337l.571-3.823h1.426L49.644,9H48.462Zm4.565.859a2.053,2.053,0,0,1-1.714-.735,2.3,2.3,0,0,1-.405-1.858l.029-.2a3.339,3.339,0,0,1,.93-1.965,2.569,2.569,0,0,1,1.887-.73,1.766,1.766,0,0,1,1.516.659,2.259,2.259,0,0,1,.325,1.748l-.107.737H52.3l-.01.024a1.239,1.239,0,0,0,.186.891.966.966,0,0,0,.83.33,3.132,3.132,0,0,0,.825-.1,3.768,3.768,0,0,0,.742-.3l.254.879a3.239,3.239,0,0,1-.928.435A4.047,4.047,0,0,1,52.993,9.1Zm.566-4.385a.912.912,0,0,0-.691.3,1.77,1.77,0,0,0-.408.776l.01.029H54.2l.015-.107a1.14,1.14,0,0,0-.076-.737A.609.609,0,0,0,53.56,4.718Z" transform="translate(-7220 -5514) rotate(-90)" fill="#fff"/>
    <g id="Grupo_159104" data-name="Grupo 159104" transform="translate(-7326 -5581.772)">
      <g id="Grupo_159074" data-name="Grupo 159074" clip-path="url(#clip-path)">
        <path id="Trazado_136295" data-name="Trazado 136295" d="M61,22.675V60.05c-.137.6-.541.723-1.108.722q-29.334-.015-58.668-.009c-.982,0-1.223-.24-1.223-1.23Q0,49.6,0,39.659,0,31.478,0,23.3c0-1.478.514-2,2.011-2,3.194-.007,6.387,0,9.58,0,.866,0,.888-.028.893-.91,0-.178-.01-.358,0-.535a.71.71,0,0,0-.58-.826,1.82,1.82,0,0,1-1.374-1.689,20.813,20.813,0,0,1,0-4.157,1.8,1.8,0,0,1,2.011-1.755c1.924-.018,3.848,0,5.772-.006.2,0,.4,0,.595-.008a.425.425,0,0,0,.473-.478c0-.178.006-.357.006-.535q0-4.016,0-8.033c0-.238-.006-.476.014-.714A1.667,1.667,0,0,1,21.156,0C23.6,0,26.035,0,28.474,0q5.593,0,11.186,0c1.371,0,2,.614,2,2,.014,2.816,0,5.633.005,8.449,0,.947.017.963.964.964,1.9,0,3.808-.005,5.712,0a1.95,1.95,0,0,1,2.224,2.07,32.815,32.815,0,0,1,0,3.509,2.029,2.029,0,0,1-1.545,2.078.5.5,0,0,0-.426.437,7.915,7.915,0,0,0,0,1.425.344.344,0,0,0,.347.337,5.607,5.607,0,0,0,.654.021h8.985c.218,0,.436,0,.654,0,1.092.027,1.5.351,1.761,1.377" transform="translate(0 0)"/>
        <path id="Trazado_136296" data-name="Trazado 136296" d="M62.413,83.041c-.991.01-1.981,0-2.971.037-.37.012-.468-.1-.463-.469.02-1.506.008-3.014.008-4.52q0-4.223,0-8.447a1.761,1.761,0,0,0-2.007-2q-8.239-.009-16.477,0a1.774,1.774,0,0,0-2.043,2.03c0,4.263-.009,8.526.011,12.789,0,.487-.108.638-.611.628-1.546-.034-3.093-.031-4.639,0-.452.009-.556-.118-.554-.56.017-4.3,0-8.605.019-12.908a1.055,1.055,0,0,0-.864-1.215,3.284,3.284,0,0,1,0-2.367c.665-.135.862-.564.861-1.21-.013-7.016,0-14.032-.022-21.048,0-.563.164-.674.69-.672,4.479.02,8.958.008,13.437.016.556,0,1.03-.085,1.246-.678a1.9,1.9,0,0,1,2.448,0,1.074,1.074,0,0,0,1.186.677q5.048-.014,10.1,0c.216,0,.433.023.649.035a1.5,1.5,0,0,1,.192,1.029q.005,6.663,0,13.325,0,12.225,0,24.45a1.549,1.549,0,0,1-.192,1.086" transform="translate(-18.195 -24.18)" fill="#ecf3fe"/>
        <path id="Trazado_136297" data-name="Trazado 136297" d="M13.134,97.529q-4.251.015-8.5.034c-.226,0-.334-.061-.309-.3a3.335,3.335,0,0,0,0-.357q0-14.54-.014-29.08c0-.548.144-.672.675-.666,2.715.035,5.43.027,8.145.034a.794.794,0,0,1,.185.606c.01,1.066.013,2.132,0,3.2a.722.722,0,0,1-.2.6A31.636,31.636,0,0,0,7.8,71.4a1.81,1.81,0,0,0-.762.089.664.664,0,0,0-.468.739.625.625,0,0,0,.591.569,3.642,3.642,0,0,0,.652.029c1.759-.03,3.52.085,5.276-.1a.7.7,0,0,1,.23.639q.022,1.713,0,3.426a.747.747,0,0,1-.216.647c-1.774-.168-3.552-.061-5.329-.089a2.744,2.744,0,0,0-.709.047.582.582,0,0,0-.5.513.652.652,0,0,0,.343.7,1.474,1.474,0,0,0,.745.165c1.406.008,2.811,0,4.217.007.426,0,.788-.274,1.215-.221a.559.559,0,0,1,.227.516c.022,1.3.031,2.591,0,3.886a.714.714,0,0,1-.1.336.212.212,0,0,1-.258.08c-1.878-.417-3.779-.116-5.668-.176a.625.625,0,0,0-.718.627c-.021.463.278.666.686.75a2.964,2.964,0,0,0,.591.032q1.394,0,2.788,0a7.785,7.785,0,0,0,2.462-.2.7.7,0,0,1,.224.644c.014,1.167.011,2.334,0,3.5a.783.783,0,0,1-.2.656,31.429,31.429,0,0,0-5.323-.192,1.678,1.678,0,0,0-.817.115.654.654,0,0,0-.405.721.617.617,0,0,0,.54.552,2.276,2.276,0,0,0,.474.037c1.467,0,2.935-.006,4.4.007.378,0,.733-.194,1.116-.1a.892.892,0,0,1,.221.767q.011,2.841,0,5.681a1,1,0,0,1-.19.726" transform="translate(-2.483 -38.67)" fill="#c2dcfe"/>
        <path id="Trazado_136298" data-name="Trazado 136298" d="M122.579,97.525c-2.756.01-5.512.017-8.268.035-.275,0-.348-.108-.323-.352a2.889,2.889,0,0,0,0-.3q0-14.55-.011-29.1c0-.493.075-.666.627-.658,2.657.042,5.315.03,7.972.037a.861.861,0,0,1,.188.661c.009.943.011,1.886,0,2.828a.822.822,0,0,1-.221.7,5.07,5.07,0,0,1-1.413.008c-1.267.023-2.534,0-3.8.012-.746.008-1.167.3-1.148.755s.384.666,1.147.664c1.6,0,3.208.032,4.811-.021.176-.006.359-.039.5.112a1.5,1.5,0,0,1,.129.812c0,.912.011,1.824,0,2.736,0,.31.031.652-.334.824a9.177,9.177,0,0,1-1.831.062c-1.186.016-2.373-.011-3.559.013-.529.01-.881.262-.865.62.02.48.372.661.785.753a2.755,2.755,0,0,0,.65.042c1.521-.027,3.045.066,4.565-.057a.66.66,0,0,1,.347.057.708.708,0,0,1,.24.64c.014,1.049.016,2.1,0,3.147a.707.707,0,0,1-.21.594c-.828.1-1.658,0-2.487.022-.911.02-1.823,0-2.735.006a2.083,2.083,0,0,0-.648.064.641.641,0,0,0-.5.6.669.669,0,0,0,.473.683,2.015,2.015,0,0,0,.764.078c1.6-.02,3.21.051,4.814-.042a.629.629,0,0,1,.291.05.71.71,0,0,1,.236.642c.015,1.03.014,2.06,0,3.09a.764.764,0,0,1-.219.651,4.084,4.084,0,0,1-1.3.009c-1.308.021-2.616,0-3.924.012-.746.008-1.167.3-1.143.76.023.442.386.661,1.153.659,1.605-.005,3.211.032,4.815-.021.176-.006.361-.039.5.124a1.306,1.306,0,0,1,.123.691q.006,2.753,0,5.506a1.082,1.082,0,0,1-.191.785" transform="translate(-65.626 -38.665)" fill="#c2dcfe"/>
        <path id="Trazado_136299" data-name="Trazado 136299" d="M61.271,20.872c-.109-.1-.19-.235-.378-.231q-.845.016-1.69,0c-.189,0-.269.127-.38.23-.031-.86-.281-1.108-1.168-1.11-2.259-.006-4.517-.017-6.775.011-.463.006-.545-.135-.544-.565q.024-7.072.006-14.144c0-.324-.013-.53.445-.529,5.012.02,10.024.012,15.036.014a1.912,1.912,0,0,1,.235.028,1.088,1.088,0,0,1,.192.789q.005,6.78,0,13.56c0,.794-.049.818-.848.827-1.168.014-2.337-.042-3.505.031a.965.965,0,0,0-.624,1.09" transform="translate(-28.982 -2.61)" fill="#f9f4db"/>
        <path id="Trazado_136300" data-name="Trazado 136300" d="M59.547,113.428c0,2.121-.009,4.242.008,6.363,0,.381-.09.5-.488.5q-3.331-.029-6.661,0c-.375,0-.456-.106-.455-.465q.019-6.363,0-12.726c0-.415.144-.479.509-.476q3.33.022,6.66,0c.339,0,.452.042.446.441-.032,2.121-.015,4.242-.015,6.363Z" transform="translate(-29.912 -61.391)" fill="#f8f6f7"/>
        <path id="Trazado_136301" data-name="Trazado 136301" d="M74.035,113.366c0-2.141.01-4.281-.012-6.421,0-.3.1-.319.328-.319,2.3,0,4.6.014,6.9-.008.475,0,.377.277.377.537q0,5,0,9.99c0,.912-.012,1.824.007,2.735.006.306-.072.407-.392.4-2.259-.013-4.519-.019-6.779,0-.424,0-.424-.193-.423-.5.008-2.141,0-4.281,0-6.422h-.008" transform="translate(-42.621 -61.388)" fill="#f8f6f7"/>
        <path id="Trazado_136302" data-name="Trazado 136302" d="M104.232,84.555q0-19.945,0-39.89c.673-.012,1.346-.018,2.018-.039.254-.008.367.087.342.346-.011.118,0,.238,0,.357q0,19.281.014,38.561c0,.577-.136.767-.712.705-.549-.059-1.107-.03-1.662-.04" transform="translate(-60.015 -25.695)" fill="#dae9fe"/>
        <path id="Trazado_136303" data-name="Trazado 136303" d="M133.8,88.979c.036-.045.1-.09.1-.137.037-1.357.069-2.715-.015-4.071,0-.031-.048-.059-.074-.088a2.062,2.062,0,0,0,.02-1.55,2.8,2.8,0,0,0,.092-1.274c.024-.808.011-1.616,0-2.424,0-.207.075-.442-.145-.6a1.479,1.479,0,0,0-.085-1.647c.289-.049.232-.276.232-.464q0-1.926-.009-3.852a2.361,2.361,0,0,0-.125-1.507c.21-.165.132-.4.132-.606.006-1.184,0-2.368,0-3.553.634-.007,1.268,0,1.9-.027.283-.011.4.075.365.364a2.167,2.167,0,0,0,0,.3q0,14.536.013,29.071c0,.543-.133.723-.674.668s-1.067-.03-1.6-.039q-.006-3.527-.011-7.054a2.366,2.366,0,0,0-.123-1.506" transform="translate(-76.982 -38.679)" fill="#a3cbfe"/>
        <path id="Trazado_136304" data-name="Trazado 136304" d="M24.932,97.529c0-2.159,0-4.318,0-6.477,0-.226.092-.481-.125-.671.022-.394.017-.789.036-1.183a1.529,1.529,0,0,0,.086-.925,32.691,32.691,0,0,0-.074-3.836,2.274,2.274,0,0,1,.063-1.028q.009-2.211.017-4.421a.448.448,0,0,0-.105-.383,8.747,8.747,0,0,0-.014-1.188c.039-.086.112-.172.112-.259q.01-2.069,0-4.139c0-.085-.078-.169-.12-.254.02-.394.019-.789.034-1.184a2.439,2.439,0,0,0,.089-1.152c.017-1.078.005-2.157,0-3.235.514-.007,1.03.013,1.54-.03.425-.036.518.114.515.523-.018,2.946-.01,5.892-.01,8.839,0,.929,0,1.859,0,2.788,0,.781.183,1.008.931,1.206q0,1.184,0,2.367c-.776.233-.929.439-.929,1.276,0,4.272-.008,8.544.009,12.817,0,.451-.092.638-.575.588s-.986-.029-1.479-.039" transform="translate(-14.281 -38.669)" fill="#a3cbfe"/>
        <path id="Trazado_136305" data-name="Trazado 136305" d="M77.582,19.793a5.611,5.611,0,0,1,1.756-.093,16.2,16.2,0,0,1,1.781,0c.489.032.64-.122.637-.624-.02-3.762-.011-7.524-.011-11.286V4.586c.771-.01,1.542-.014,2.313-.033.227-.006.333.064.307.3a2.664,2.664,0,0,0,0,.3c0,4.673-.008,9.346.012,14.019,0,.5-.125.619-.618.613-2.058-.022-4.117,0-6.177.011" transform="translate(-44.67 -2.621)" fill="#f4eacc"/>
        <path id="Trazado_136306" data-name="Trazado 136306" d="M4.356,58.173c-.006-.991,0-1.983-.025-2.974-.006-.284.077-.369.364-.367,2.816.017,5.632.02,8.448.027a.538.538,0,0,1,.168.369,24.331,24.331,0,0,1,0,2.549.424.424,0,0,1-.487.459c-2.768-.01-5.537,0-8.305-.007a.4.4,0,0,1-.165-.057" transform="translate(-2.493 -31.571)" fill="#dfdee0"/>
        <path id="Trazado_136307" data-name="Trazado 136307" d="M114.021,58.177c-.009-1.008-.008-2.015-.032-3.022-.006-.281.117-.319.353-.317q4.121.019,8.242.025a.592.592,0,0,1,.176.428c.032.812.034,1.623,0,2.434-.013.305-.115.517-.5.515-2.692-.011-5.385,0-8.077-.008a.422.422,0,0,1-.166-.056" transform="translate(-65.633 -31.575)" fill="#dfdee0"/>
        <path id="Trazado_136308" data-name="Trazado 136308" d="M32.935,35.274c-1.03,0-2.06-.011-3.089.006-.331.006-.452-.09-.445-.434q.029-1.485,0-2.97c-.006-.327.121-.4.418-.395q3.149.015,6.3,0c.312,0,.4.086.4.4-.019.99-.021,1.981,0,2.97.007.338-.093.44-.431.434-1.049-.02-2.1-.007-3.149-.007" transform="translate(-16.928 -18.125)" fill="#dfdee0"/>
        <path id="Trazado_136309" data-name="Trazado 136309" d="M101.283,31.521c1.089-.01,2.179-.014,3.268-.034.28-.006.383.086.379.373-.013,1.011-.011,2.022,0,3.034,0,.271-.073.392-.367.39-2.181-.007-4.362,0-6.543,0-.05,0-.1-.048-.148-.073a1.024,1.024,0,0,1,.784-.179c.553-.011,1.106,0,1.659,0,.744-.006.776-.036.782-.76.006-.672,0-1.343,0-2.015a1.023,1.023,0,0,1,.184-.728" transform="translate(-56.352 -18.129)" fill="#d1cdd0"/>
        <path id="Trazado_136310" data-name="Trazado 136310" d="M101.224,31.522v2.9c0,.779,0,.778-.751.78l-2.662.008c-.013-1.143-.02-2.287-.043-3.43-.005-.25.1-.293.319-.29,1.045.017,2.091.023,3.137.033" transform="translate(-56.293 -18.131)" fill="#dfdee0"/>
        <path id="Trazado_136311" data-name="Trazado 136311" d="M114.065,58.173c2.654,0,5.308-.008,7.961.009.452,0,.635-.1.614-.591-.039-.909-.012-1.822-.012-2.732.634-.007,1.268,0,1.9-.027.285-.011.373.079.368.366-.017.912-.011,1.824,0,2.736,0,.228-.023.361-.312.361q-5.175-.012-10.35,0c-.085,0-.153-.021-.167-.118" transform="translate(-65.676 -31.57)" fill="#d2ced1"/>
        <path id="Trazado_136312" data-name="Trazado 136312" d="M4.391,58.173c2.73,0,5.46-.008,8.19.011.459,0,.629-.112.609-.6-.037-.908-.011-1.819-.012-2.729.573-.007,1.147,0,1.72-.026.267-.011.333.093.33.343-.012.93-.008,1.86,0,2.79,0,.207-.029.328-.286.327q-5.224-.011-10.447-.012c-.034,0-.067-.071-.1-.109" transform="translate(-2.528 -31.572)" fill="#d2ced1"/>
        <path id="Trazado_136313" data-name="Trazado 136313" d="M87.05,73.055c.654,0,1.308-.008,1.962,0a1.264,1.264,0,0,1,1.371,1.37c.014,1.189.016,2.379,0,3.568a1.253,1.253,0,0,1-1.288,1.341q-2.05.048-4.1,0a1.234,1.234,0,0,1-1.271-1.348c-.011-1.209-.014-2.418,0-3.627a1.237,1.237,0,0,1,1.307-1.3c.039,0,.079,0,.119,0h1.9" transform="translate(-48.199 -42.062)"/>
        <path id="Trazado_136314" data-name="Trazado 136314" d="M47.792,60.034c-.654,0-1.309.01-1.963,0a1.272,1.272,0,0,1-1.352-1.337q-.025-1.814,0-3.628a1.267,1.267,0,0,1,1.36-1.328q1.962-.019,3.926,0A1.259,1.259,0,0,1,51.138,55.1q.017,1.785,0,3.569a1.263,1.263,0,0,1-1.383,1.359c-.654.01-1.309,0-1.963,0" transform="translate(-25.602 -30.936)"/>
        <path id="Trazado_136315" data-name="Trazado 136315" d="M67.418,60.036c-.635,0-1.269.006-1.9,0A1.279,1.279,0,0,1,64.1,58.642q-.013-1.754,0-3.51a1.276,1.276,0,0,1,1.411-1.393q1.933-.014,3.867,0A1.267,1.267,0,0,1,70.764,55.1q.018,1.784,0,3.569a1.272,1.272,0,0,1-1.383,1.363c-.654.01-1.309,0-1.963,0" transform="translate(-36.905 -30.937)"/>
        <path id="Trazado_136316" data-name="Trazado 136316" d="M47.811,79.345c-.634,0-1.269.011-1.9,0a1.307,1.307,0,0,1-1.43-1.447c-.008-1.15-.011-2.3,0-3.449a1.269,1.269,0,0,1,1.408-1.391q1.933-.011,3.865,0a1.251,1.251,0,0,1,1.39,1.4q.014,1.724,0,3.449a1.294,1.294,0,0,1-1.43,1.438c-.634.014-1.268,0-1.9,0" transform="translate(-25.606 -42.06)"/>
        <path id="Trazado_136317" data-name="Trazado 136317" d="M87.061,53.738c.654,0,1.309-.01,1.963,0a1.274,1.274,0,0,1,1.358,1.332q.027,1.814,0,3.628a1.27,1.27,0,0,1-1.355,1.333q-1.963.02-3.926,0a1.258,1.258,0,0,1-1.379-1.361q-.018-1.784,0-3.569A1.261,1.261,0,0,1,85.1,53.74c.654-.011,1.309,0,1.963,0" transform="translate(-48.2 -30.939)"/>
        <path id="Trazado_136318" data-name="Trazado 136318" d="M67.415,79.344c-.615,0-1.229.008-1.844,0A1.31,1.31,0,0,1,64.1,77.88c-.005-1.15-.007-2.3,0-3.449a1.247,1.247,0,0,1,1.357-1.376q1.992-.017,3.984,0a1.234,1.234,0,0,1,1.318,1.294q.026,1.843,0,3.687a1.278,1.278,0,0,1-1.327,1.307c-.039,0-.079,0-.119,0h-1.9" transform="translate(-36.907 -42.058)"/>
        <path id="Trazado_136319" data-name="Trazado 136319" d="M15.825,104.9a1.115,1.115,0,0,1-.063,1.028,1.243,1.243,0,0,1-.969.357c-1.547-.011-3.094,0-4.641-.006-.739,0-1.144-.333-1.134-.913.009-.56.394-.868,1.108-.87,1.547,0,3.094.009,4.641-.008a1.281,1.281,0,0,1,1.059.411" transform="translate(-5.192 -60.165)"/>
        <path id="Trazado_136320" data-name="Trazado 136320" d="M15.749,77.122a1.029,1.029,0,0,1-.034,1.184,1.326,1.326,0,0,1-.882.271c-1.584-.01-3.169,0-4.753-.006-.678,0-1.045-.3-1.061-.849-.017-.567.372-.927,1.057-.931,1.584-.009,3.169,0,4.753-.006a1.308,1.308,0,0,1,.92.339" transform="translate(-5.193 -44.21)" fill="#000101"/>
        <path id="Trazado_136321" data-name="Trazado 136321" d="M15.724,90.961a1.031,1.031,0,0,1,.014,1.188,1.293,1.293,0,0,1-.868.319c-1.6-.005-3.207.006-4.81-.006-.662,0-1.033-.341-1.042-.885a.821.821,0,0,1,.841-.883c1.741-.02,3.483-.006,5.225-.007a1.128,1.128,0,0,1,.64.274" transform="translate(-5.193 -52.214)" fill="#010101"/>
        <path id="Trazado_136322" data-name="Trazado 136322" d="M15.75,118.647a1.03,1.03,0,0,1-.036,1.183,1.355,1.355,0,0,1-.883.271c-1.584-.01-3.169,0-4.753-.006-.676,0-1.044-.31-1.06-.854-.016-.567.377-.923,1.059-.927,1.584-.008,3.169,0,4.753-.007a1.294,1.294,0,0,1,.919.339" transform="translate(-5.192 -68.119)" fill="#000101"/>
        <path id="Trazado_136323" data-name="Trazado 136323" d="M125.147,104.623c.519.607.515.955-.02,1.55a2.312,2.312,0,0,1-.7.121c-1.566-.008-3.132,0-4.7-.006-.691,0-1.109-.336-1.122-.877-.014-.562.413-.9,1.145-.906,1.546,0,3.092,0,4.638,0a1.918,1.918,0,0,1,.753.121" transform="translate(-68.293 -60.17)"/>
        <path id="Trazado_136324" data-name="Trazado 136324" d="M125.111,76.9a.979.979,0,0,1,.126,1.507,1.7,1.7,0,0,1-.8.174c-1.581-.008-3.162,0-4.743-.006-.679,0-1.1-.357-1.083-.9a.938.938,0,0,1,1.058-.882q2.4-.014,4.8,0a4.058,4.058,0,0,1,.638.1" transform="translate(-68.294 -44.211)" fill="#000101"/>
        <path id="Trazado_136325" data-name="Trazado 136325" d="M125.014,90.722c.674.567.7,1.01.085,1.648a5.936,5.936,0,0,1-1.653.1q-1.841.011-3.683,0c-.724,0-1.159-.357-1.15-.912.008-.538.419-.871,1.117-.869,1.762.006,3.523.024,5.285.038" transform="translate(-68.295 -52.214)" fill="#010101"/>
        <path id="Trazado_136326" data-name="Trazado 136326" d="M125.112,118.421a.979.979,0,0,1,.123,1.506,1.709,1.709,0,0,1-.8.176c-1.581-.007-3.163,0-4.744-.006-.678,0-1.1-.361-1.082-.9.014-.524.421-.876,1.06-.879q2.4-.013,4.8,0a4.116,4.116,0,0,1,.638.1" transform="translate(-68.294 -68.121)" fill="#000101"/>
        <path id="Trazado_136327" data-name="Trazado 136327" d="M64.064,8.817h.654a2.029,2.029,0,0,1,2.2,2.166c.008.78.008.78.774.789a2.037,2.037,0,0,1,2.188,2.185q.007.654,0,1.307a2.007,2.007,0,0,1-2.187,2.178c-.654-.019-.817.148-.794.8a1.978,1.978,0,0,1-2.122,2.169q-.713.011-1.426,0a1.977,1.977,0,0,1-2.123-2.166c.022-.645-.132-.819-.79-.8a2,2,0,0,1-2.187-2.177c0-.455-.007-.911,0-1.367a2.025,2.025,0,0,1,2.125-2.127c.826-.016.826-.016.834-.789a2.026,2.026,0,0,1,2.2-2.167h.654" transform="translate(-33.538 -5.077)"/>
        <path id="Trazado_136328" data-name="Trazado 136328" d="M62.271,121.387c0,.4.015.792,0,1.187a.883.883,0,0,1-1.764.047c-.034-.829-.035-1.662,0-2.492a.884.884,0,0,1,1.766.071c.015.4,0,.791,0,1.187" transform="translate(-34.821 -68.681)" fill="#010101"/>
        <path id="Trazado_136329" data-name="Trazado 136329" d="M79.212,121.279c0-.4-.009-.792,0-1.188a.88.88,0,0,1,1.754-.084,25.628,25.628,0,0,1,0,2.61.88.88,0,0,1-1.754-.092c-.012-.415,0-.831,0-1.247" transform="translate(-45.606 -68.642)" fill="#010101"/>
        <path id="Trazado_136330" data-name="Trazado 136330" d="M89.4,77.177c.49.022,1.134-.135,1.429.116.313.266.087.93.092,1.419.015,1.209.005,1.214-1.243,1.208-.591,0-1.379.2-1.721-.1-.393-.342-.109-1.151-.124-1.756-.022-.87-.006-.87.853-.87H89.4v-.022" transform="translate(-50.522 -44.42)" fill="#f7f5f6"/>
        <path id="Trazado_136331" data-name="Trazado 136331" d="M50.185,60.629c-.509,0-1.178.2-1.486-.053-.327-.265-.092-.961-.1-1.468-.015-1.166,0-1.166,1.151-1.166.514,0,1.029.014,1.542-.006.293-.011.422.053.409.383-.026.671-.017,1.344,0,2.016.005.249-.059.355-.328.342-.395-.021-.791-.005-1.186-.005,0-.014,0-.028,0-.042" transform="translate(-27.94 -33.358)" fill="#f8f6f7"/>
        <path id="Trazado_136332" data-name="Trazado 136332" d="M69.752,60.633c-.49,0-1.153.193-1.426-.05-.325-.29-.094-.964-.1-1.471-.015-1.17,0-1.17,1.145-1.17.514,0,1.029.014,1.542-.006.291-.011.426.043.412.379-.027.652-.021,1.305,0,1.957.009.3-.054.431-.385.406-.393-.03-.79-.007-1.186-.007v-.038" transform="translate(-39.241 -33.358)" fill="#f8f6f7"/>
        <path id="Trazado_136333" data-name="Trazado 136333" d="M50.263,77.176c.49.024,1.135-.132,1.426.12.308.267.084.93.09,1.419.014,1.206,0,1.206-1.185,1.206-.515,0-1.031-.014-1.545.005-.288.011-.377-.092-.369-.375q.025-1.01,0-2.021c-.006-.259.076-.349.336-.338.415.018.832,0,1.248,0,0-.008,0-.015,0-.023" transform="translate(-28.028 -44.421)" fill="#f7f5f6"/>
        <path id="Trazado_136334" data-name="Trazado 136334" d="M89.275,60.57c-.4-.051-1.042.217-1.326-.1-.239-.27-.079-.9-.081-1.371,0-1.255,0-1.267,1.241-1.251.605.008,1.412-.261,1.757.113.3.325.093,1.123.1,1.712.007.9,0,.9-.887.9h-.8" transform="translate(-50.564 -33.256)" fill="#f8f6f7"/>
        <path id="Trazado_136335" data-name="Trazado 136335" d="M69.982,77.185c.4.047,1.064-.218,1.325.1.247.3.087.941.09,1.433.006,1.192,0,1.192-1.2,1.192-.5,0-.992-.016-1.487.006-.3.013-.426-.058-.414-.388.024-.653.025-1.309,0-1.962-.013-.33.11-.4.408-.384.4.023.793.006,1.279.006" transform="translate(-39.322 -44.407)" fill="#f8f6f7"/>
        <path id="Trazado_136336" data-name="Trazado 136336" d="M66.464,21.045c-1.219-.007-1.039.1-1.044-1.044-.007-1.9,0-1.9-1.875-1.9-1.24,0-1.084.076-1.085-1.08,0-1.173-.128-1.038,1.05-1.041,1.863,0,1.9-.045,1.91-1.878.005-1.228-.161-1.076,1.065-1.076s1.066-.155,1.07,1.073c.006,1.842.04,1.877,1.9,1.881,1.185,0,1.052-.131,1.061,1.033a3.4,3.4,0,0,0,0,.416c.069.517-.138.726-.666.68a11.212,11.212,0,0,0-1.247,0c-.743.019-1.039.318-1.05,1.051a10.066,10.066,0,0,0,.006,1.187c.056.541-.124.787-.686.7a2.884,2.884,0,0,0-.415,0" transform="translate(-35.96 -7.497)" fill="#f27b7b"/>
      </g>
    </g>
    <g id="Grupo_159105" data-name="Grupo 159105" transform="translate(-7322 -5695.835)">
      <g id="Grupo_159076" data-name="Grupo 159076" clip-path="url(#clip-path-2)">
        <path id="Trazado_136337" data-name="Trazado 136337" d="M0,50.822V47.379a1.271,1.271,0,0,1,1.288-1.053c.3-.021.608-.015.911-.008.339.008.495-.132.487-.48-.01-.422-.008-.843,0-1.265a1.461,1.461,0,0,1,1.475-1.587c.645-.063.648-.063.648-.725q0-2.86,0-5.721c0-.608-.027-.629-.616-.658a1.377,1.377,0,0,1-1.508-1.561c-.006-.388-.013-.777,0-1.164.013-.365-.136-.527-.505-.515a4.88,4.88,0,0,1-1.108-.074A1.206,1.206,0,0,1,0,31.582V28.139a1.229,1.229,0,0,1,1.372-1.058c.489-.01.978-.005,1.467,0,.32,0,.453-.143.453-.46q0-3.542,0-7.084c0-.453-.291-.45-.612-.463A2.721,2.721,0,0,1,.293,17.7,3.719,3.719,0,0,1,0,16.7V15.685a2.674,2.674,0,0,1,1.513-2.119C7.53,10.118,13.523,6.631,19.534,3.174c1.579-.909,3.141-1.848,4.739-2.724a3.3,3.3,0,0,1,3.379.03q10.829,6.248,21.656,12.5c.453.262.909.517,1.349.8A2.869,2.869,0,0,1,51.8,17.123a2.67,2.67,0,0,1-2.618,1.941c-.613.021-.635.036-.636.629q0,3.392,0,6.783c0,.572.035.6.6.609.489,0,.979-.013,1.468.006a1.236,1.236,0,0,1,1.278,1.28c.018.978.013,1.958,0,2.936a1.164,1.164,0,0,1-.945,1.21,3.885,3.885,0,0,1-1.255.114c-.383-.018-.561.127-.543.528.019.421.012.843,0,1.265a1.336,1.336,0,0,1-1.407,1.448c-.714.032-.715.032-.716.754q0,2.835,0,5.67c0,.643,0,.643.628.694a1.459,1.459,0,0,1,1.5,1.606c0,.4.011.81,0,1.215-.011.359.124.535.5.517a8.843,8.843,0,0,1,.911,0A1.268,1.268,0,0,1,51.89,47.72c.006.928.008,1.856,0,2.784A1.244,1.244,0,0,1,50.6,51.831c-.135.007-.27,0-.4,0q-11.035,0-22.071,0c-.722,0-.97-.185-1.128-.82.032-.64.258-.889.871-.949.252-.025.506-.014.759-.014H49.177c.983,0,.983,0,.983-.956s0-.943-.949-.943H2.6c-.084,0-.169,0-.253,0-.618.012-.665.05-.664.665,0,1.357-.115,1.232,1.218,1.233q10.324,0,20.647,0c.219,0,.439-.005.658.006.622.032.853.227,1.015.847-.132.706-.4.928-1.142.929q-5.112.006-10.224,0H1.913c-.168,0-.337,0-.506,0A1.218,1.218,0,0,1,0,50.822" transform="translate(0 0)"/>
        <path id="Trazado_136338" data-name="Trazado 136338" d="M33.881,42.091c-.121-.561-.484-.732-1.034-.731-6.19.01-12.38,0-18.57.017-.446,0-.59-.09-.582-.565.035-2.209.028-4.418.035-6.627a1,1,0,0,1,.44-.4c4.5-2.559,8.968-5.175,13.455-7.756,2.134-1.228,4.273-2.447,6.393-3.7a1.122,1.122,0,0,1,1.3-.032q4.7,2.732,9.415,5.445,5.173,2.979,10.34,5.968a1.286,1.286,0,0,1,.573.478c.008,2.293.009,4.586.031,6.879,0,.366-.212.3-.424.3H50.24c-4.5,0-9.006.005-13.509-.007-.552,0-.91.176-1.035.733a2.447,2.447,0,0,1-1.815,0" transform="translate(-8.764 -14.146)" fill="#ebe9eb"/>
        <path id="Trazado_136339" data-name="Trazado 136339" d="M51.733,20.357a1.57,1.57,0,0,1-.86-.325Q40.2,13.869,29.534,7.688a1.6,1.6,0,0,0-1.844.01Q17.037,13.9,6.351,20.04a2.008,2.008,0,0,1-.688.306,1.222,1.222,0,0,1-1.35-.747A1.179,1.179,0,0,1,4.8,18.1c.612-.386,1.248-.734,1.875-1.1q10.5-6.062,21-12.128a1.707,1.707,0,0,1,1.856-.019q11.349,6.562,22.7,13.115a1.261,1.261,0,0,1,.735,1.5,1.213,1.213,0,0,1-1.235.887" transform="translate(-2.698 -2.94)" fill="#9ed3fd"/>
        <path id="Trazado_136340" data-name="Trazado 136340" d="M27.717,77.627h1.815c.181.663.355.793,1.079.793q10.88,0,21.761-.012c.477,0,.6.136.56.581a10.342,10.342,0,0,0,0,1.315c.01.251-.084.336-.321.31a2.753,2.753,0,0,0-.3,0q-23.785,0-47.571.013c-.512,0-.688-.118-.622-.63s-.214-1.205.112-1.5c.284-.254.962-.076,1.465-.076q10.476,0,20.951,0c.725,0,.9-.133,1.077-.794" transform="translate(-2.6 -49.682)" fill="#9ed3fd"/>
        <path id="Trazado_136341" data-name="Trazado 136341" d="M29.691,136.319c-.112-.186-.293-.178-.478-.176-.5,0-1,0-1.5,0-.222-.652-.338-.732-1.076-.732q-10.959,0-21.919.014c-.529,0-.671-.144-.613-.638.06-.513-.213-1.2.108-1.5.279-.256.959-.082,1.462-.082q23.336,0,46.672-.011c.443,0,.628.083.579.564a10.535,10.535,0,0,0-.006,1.365c.006.218-.066.312-.289.289a3.418,3.418,0,0,0-.354,0H30.666c-.727,0-.939.2-.975.9" transform="translate(-2.597 -85.217)" fill="#9ed3fd"/>
        <path id="Trazado_136342" data-name="Trazado 136342" d="M87.729,104.148c-.557,0-1.117-.037-1.67.011-.492.043-.6-.151-.564-.591s.015-.911.005-1.367a1.24,1.24,0,0,0-1.391-1.365c-.135,0-.271-.01-.4,0-.231.019-.333-.061-.333-.311q.01-3.392,0-6.784c0-.234.071-.343.32-.323a4.873,4.873,0,0,0,.607,0,1.151,1.151,0,0,0,1.186-1.133c.033-.572.023-1.147.013-1.721-.005-.3.056-.453.417-.446,1.214.023,2.43.017,3.645,0,.288,0,.379.087.369.372-.019.522-.011,1.046,0,1.569a1.23,1.23,0,0,0,1.342,1.358,3.224,3.224,0,0,0,.4,0c.271-.03.386.048.385.353q-.018,3.367,0,6.734c0,.279-.1.352-.355.33a3.537,3.537,0,0,0-.506,0,1.23,1.23,0,0,0-1.269,1.288,13.254,13.254,0,0,0,.007,1.518c.039.445-.13.537-.535.511-.555-.035-1.113-.009-1.67-.009" transform="translate(-53.358 -57.678)" fill="#b5b0b6"/>
        <path id="Trazado_136343" data-name="Trazado 136343" d="M45.191,97.171c0,1,0,1.991,0,2.987,0,.8.068.674-.659.686-.1,0-.2,0-.3.008a1.183,1.183,0,0,0-1.152,1.182c-.031.572-.029,1.147-.014,1.72.008.292-.051.415-.383.41-1.232-.02-2.463-.014-3.7,0-.258,0-.359-.06-.347-.336.021-.505.008-1.012.005-1.518a1.277,1.277,0,0,0-1.454-1.463c-.67-.008-.67-.008-.67-.663,0-2.092.009-4.185-.009-6.277,0-.368.073-.518.468-.477,1.321.137,1.752-.653,1.671-1.689-.033-.419.009-.844-.01-1.265-.012-.271.091-.342.349-.34q1.847.016,3.695,0c.282,0,.388.08.379.37-.017.539-.013,1.08.005,1.619a1.2,1.2,0,0,0,1.33,1.309,2.71,2.71,0,0,0,.4,0c.32-.043.4.1.395.4-.014,1.113-.005,2.227-.005,3.341" transform="translate(-23.366 -57.685)" fill="#b5b0b6"/>
        <path id="Trazado_136344" data-name="Trazado 136344" d="M55.653,30.869q-3.818-2.211-7.637-4.422-4.151-2.393-8.31-4.771c-1.574-.9-3.148-1.81-4.713-2.729a.5.5,0,0,0-.593,0q-5.558,3.232-11.129,6.443-4.5,2.594-9.012,5.17c-.175.1-.346.206-.519.31-.008-.556,0-1.113-.029-1.668-.015-.294.19-.363.375-.469l8.4-4.851q5.9-3.41,11.806-6.827a.705.705,0,0,1,.82,0q10.1,5.848,20.208,11.669a.6.6,0,0,1,.366.63c-.031.5-.022,1.011-.03,1.516" transform="translate(-8.774 -10.83)" fill="#d9d7da"/>
        <path id="Trazado_136345" data-name="Trazado 136345" d="M23.039,109.413c-1.6.012-3.2.019-4.8.039-.229,0-.282-.086-.281-.3.013-1.8.017-3.607.024-5.411a.759.759,0,0,1,.568-.162c1.315-.006,2.629-.014,3.944,0,.548.007.591.069.591.628q0,2.377,0,4.753a.862.862,0,0,1-.044.446" transform="translate(-11.493 -66.289)" fill="#fedf7d"/>
        <path id="Trazado_136346" data-name="Trazado 136346" d="M69.924,109.39a3.4,3.4,0,0,1-1.195.054c-1.29-.02-2.581.083-3.868-.054a6.689,6.689,0,0,1-.045-1.455c-.012-1.263.011-2.526-.013-3.788-.008-.4.145-.556.518-.559,1.381-.011,2.761-.014,4.141,0,.288,0,.519.064.516.454-.015,1.734,0,3.469-.008,5.2a.361.361,0,0,1-.047.141" transform="translate(-41.471 -66.291)" fill="#fedf7d"/>
        <path id="Trazado_136347" data-name="Trazado 136347" d="M116.891,103.75c.007,1.8.011,3.608.024,5.411,0,.211-.052.3-.281.3-1.6-.02-3.2-.028-4.8-.04a6.476,6.476,0,0,1-.043-1.356c-.01-1.3.015-2.6-.014-3.893-.009-.433.159-.577.552-.579q2.022-.01,4.044,0a.7.7,0,0,1,.518.16" transform="translate(-71.538 -66.294)" fill="#fedf7c"/>
        <path id="Trazado_136348" data-name="Trazado 136348" d="M63.493,125.824c-1.415,0-2.831-.011-4.245.008-.334,0-.454-.087-.417-.419.051-.446-.2-1.043.108-1.3.257-.22.833-.077,1.269-.078,2.527,0,5.055.007,7.582-.011.389,0,.5.111.469.483-.037.417.131.973-.081,1.22-.246.289-.819.089-1.248.094-1.146.014-2.291,0-3.437,0" transform="translate(-37.622 -79.352)" fill="#eae8ea"/>
        <path id="Trazado_136349" data-name="Trazado 136349" d="M16.71,125.887c-1.416,0-2.832-.008-4.249.006-.31,0-.462-.05-.425-.4a4.831,4.831,0,0,0,0-.96c-.035-.361.1-.446.449-.444,2.411.015,4.822.008,7.233.008.455,0,.911.013,1.365-.005.276-.011.4.062.379.363a6.653,6.653,0,0,0,0,1.061c.031.336-.114.382-.4.379-1.45-.013-2.9-.006-4.35-.006" transform="translate(-7.7 -79.415)" fill="#ebe9eb"/>
        <path id="Trazado_136350" data-name="Trazado 136350" d="M110.384,125.795c-1.4,0-2.8-.01-4.2.008-.348,0-.54-.038-.484-.453s-.179-.993.094-1.262.834-.08,1.268-.081c2.529-.008,5.059,0,7.588-.012.366,0,.527.069.478.466-.053.429.177.988-.089,1.262-.244.252-.8.067-1.216.07-1.147.009-2.294,0-3.44,0" transform="translate(-67.623 -79.324)" fill="#ebe9eb"/>
        <path id="Trazado_136351" data-name="Trazado 136351" d="M69.912,106.631c0-1.721-.015-3.442,0-5.162,0-.374-.1-.5-.482-.49q-2.049.033-4.1,0c-.384-.006-.485.117-.481.49.015,1.721,0,3.442,0,5.162-.111-.134-.056-.292-.056-.437,0-2.143.012-4.285,0-6.428,0-.351.051-.5.46-.5,1.434.027,2.868.014,4.3.007.246,0,.41.009.409.337-.008,2.295,0,4.589,0,6.884a.4.4,0,0,1-.054.134" transform="translate(-41.459 -63.532)" fill="#fec169"/>
        <path id="Trazado_136352" data-name="Trazado 136352" d="M58.948,91.854a6.417,6.417,0,0,1-.046-1.493c-.015-.344.261-.237.436-.237,1.7-.006,3.4,0,5.1,0,1.161,0,2.322.011,3.483-.007.314-.005.423.1.393.4a6.456,6.456,0,0,1-.054,1.341c-.168-.442-.5-.534-.948-.53q-3.707.032-7.415,0c-.453,0-.779.088-.948.53" transform="translate(-37.682 -57.67)" fill="#d9d7da"/>
        <path id="Trazado_136353" data-name="Trazado 136353" d="M12.078,91.182c-.064-1.057-.064-1.057.958-1.057,2.647,0,5.3.008,7.943-.009.395,0,.558.1.5.5s.116.852-.092,1.26c-.17-.483-.54-.544-1-.541-2.495.016-4.99.009-7.484.005a1.135,1.135,0,0,1-.823-.158" transform="translate(-7.715 -57.674)" fill="#d9d7da"/>
        <path id="Trazado_136354" data-name="Trazado 136354" d="M105.837,91.868a4.2,4.2,0,0,1-.069-1.614c0-.224.273-.132.422-.133,1.585-.007,3.171,0,4.757,0,1.231,0,2.463.017,3.694-.01.4-.009.6.071.527.513a4.224,4.224,0,0,0-.024.554,1.139,1.139,0,0,1-.823.158c-2.495,0-4.99.011-7.485-.005-.459,0-.829.058-1,.541" transform="translate(-67.663 -57.666)" fill="#d9d7da"/>
        <path id="Trazado_136355" data-name="Trazado 136355" d="M23.037,106.665c0-1.72-.014-3.441,0-5.161,0-.393-.1-.524-.508-.517-1.518.023-3.036.01-4.554.01-.007-.455,0-.91-.024-1.364-.012-.253.056-.354.333-.352,1.5.012,3,.009,4.5,0,.219,0,.34.031.339.3-.007,2.309,0,4.619,0,6.929,0,.071-.014.131-.091.156" transform="translate(-11.49 -63.54)" fill="#fdc168"/>
        <path id="Trazado_136356" data-name="Trazado 136356" d="M116.8,100.99c-1.518,0-3.035.013-4.553-.01-.408-.006-.512.123-.508.517.018,1.72.005,3.44,0,5.16-.174-.105-.085-.275-.085-.41-.005-2.174.006-4.348-.008-6.521,0-.349.084-.459.445-.454q2.148.031,4.3,0c.368-.006.462.115.436.457-.032.419-.019.841-.026,1.261" transform="translate(-71.448 -63.534)" fill="#fcc168"/>
        <path id="Trazado_136357" data-name="Trazado 136357" d="M12.092,93.073h8.591c.827,0,.695-.05.715.7q-2.926.014-5.853.026c-.926,0-1.851,0-2.777,0-.719,0-.719,0-.676-.721" transform="translate(-7.729 -59.566)" fill="#ebe9eb"/>
        <path id="Trazado_136358" data-name="Trazado 136358" d="M59.072,93.751c.021-.679.021-.679.685-.679H67.7c.664,0,.664,0,.685.679a.272.272,0,0,1-.093.038q-4.563,0-9.126,0a.279.279,0,0,1-.093-.038" transform="translate(-37.806 -59.566)" fill="#ebe9eb"/>
        <path id="Trazado_136359" data-name="Trazado 136359" d="M106.041,93.768c.019-.747-.111-.7.715-.7h8.592c.006.134.006.269.022.4.026.224-.028.326-.293.325-3.012-.018-6.023-.024-9.035-.032" transform="translate(-67.867 -59.566)" fill="#ebe9eb"/>
        <path id="Trazado_136360" data-name="Trazado 136360" d="M34.725,52.334c0-.91-.006-1.82,0-2.729.006-.68.275-.938.958-.944.489,0,.977-.009,1.466,0a2.1,2.1,0,0,1,1.973,2.961.412.412,0,0,0,.087.519,2.213,2.213,0,0,1,.424,2.528,2.245,2.245,0,0,1-2.2,1.4c-.556,0-1.112.009-1.668.007-.825,0-1.034-.215-1.037-1.059,0-.893,0-1.786,0-2.679" transform="translate(-22.223 -31.14)"/>
        <path id="Trazado_136361" data-name="Trazado 136361" d="M75.736,52.05c0,1.038,0,2.075,0,3.113a.828.828,0,0,1-.479.867.75.75,0,0,1-1.039-.781c-.009-1.584,0-3.169,0-4.753,0-.253.008-.506,0-.759-.018-.448.035-.855.548-1.008.487-.145.745.156.986.507q1.069,1.563,2.15,3.118c.1.148.21.293.331.46.134-.15.077-.305.077-.442,0-.961-.023-1.922-.017-2.882a.769.769,0,0,1,.779-.816.76.76,0,0,1,.732.807q.043,2.78.065,5.562a.863.863,0,0,1-.608.941.854.854,0,0,1-1.013-.462q-1.2-1.746-2.411-3.489l-.1.016" transform="translate(-47.497 -31.152)"/>
        <path id="Trazado_136362" data-name="Trazado 136362" d="M52.633,55.315c.039-.127.074-.275.127-.415.693-1.822,1.394-3.641,2.08-5.466a.922.922,0,0,1,1.81.006c.681,1.827,1.372,3.65,2.054,5.476.2.546.048.987-.383,1.137-.456.159-.818-.055-1.039-.615-.31-.786-.31-.786-1.156-.786a3.154,3.154,0,0,1-.4,0c-.809-.105-1.465-.023-1.64.989-.066.382-.462.515-.857.43a.766.766,0,0,1-.591-.753" transform="translate(-33.685 -31.162)"/>
        <path id="Trazado_136363" data-name="Trazado 136363" d="M97.535,50.55c.679-.624,1.265-1.171,1.862-1.707a.762.762,0,1,1,1.04,1.1c-.686.649-1.374,1.3-2.086,1.917-.253.221-.213.328.005.531.753.7,1.489,1.42,2.227,2.137.439.427.491.9.148,1.232s-.773.273-1.2-.136q-.933-.891-1.861-1.786c-.01-.01-.032-.009-.135-.035,0,.424.005.831,0,1.236-.01.614-.27.928-.756.927s-.757-.324-.759-.93q-.009-2.809,0-5.618c0-.587.3-.929.774-.921s.732.344.741.948c0,.33,0,.66,0,1.106" transform="translate(-61.449 -31.038)"/>
        <path id="Trazado_136364" data-name="Trazado 136364" d="M63.482,27.8a3.186,3.186,0,1,1,3.178,3.173A3.163,3.163,0,0,1,63.482,27.8" transform="translate(-40.629 -15.748)"/>
        <path id="Trazado_136365" data-name="Trazado 136365" d="M38.945,61.274c0-.828,0-.828.852-.828s1.24.275,1.227.845c-.013.546-.378.787-1.215.8h-.05c-.814.016-.814.016-.814-.819" transform="translate(-24.925 -38.686)" fill="#ebe9eb"/>
        <path id="Trazado_136366" data-name="Trazado 136366" d="M39.438,54.058c-.153-.075-.477.154-.531-.136a1.713,1.713,0,0,1,.05-1.039,2.454,2.454,0,0,1,1.225.092.555.555,0,0,1,.234.619c-.125.428-.464.487-.843.464-.033,0-.067,0-.135,0" transform="translate(-24.865 -33.815)" fill="#e6e4e6"/>
        <path id="Trazado_136367" data-name="Trazado 136367" d="M60.076,56.061l.665,1.768h-1.33l.665-1.768" transform="translate(-38.023 -35.879)" fill="#e8e6e8"/>
        <path id="Trazado_136368" data-name="Trazado 136368" d="M71.029,32.158a1.638,1.638,0,1,1-3.248-.428,2.341,2.341,0,0,1,3.063-.151.484.484,0,0,1,.185.58" transform="translate(-43.373 -19.892)" fill="#fedf7c"/>
        <path id="Trazado_136369" data-name="Trazado 136369" d="M71.047,30.719a1.505,1.505,0,0,0-1.438-.941,3.1,3.1,0,0,0-1.81.513,1.639,1.639,0,1,1,3.248.428" transform="translate(-43.392 -18.453)" fill="#fdc168"/>
      </g>
    </g>
    <g id="Grupo_159106" data-name="Grupo 159106" transform="translate(-7318 -5450)">
      <g id="Grupo_159084" data-name="Grupo 159084" transform="translate(0 0)" clip-path="url(#clip-path-3)">
        <path id="Trazado_136584" data-name="Trazado 136584" d="M.064,31.657V.48A.582.582,0,0,1,.734,0c.116,0,.232,0,.348,0H43.619c.131,0,.261-.005.392,0,.473.024.652.2.679.667.007.116,0,.232,0,.348v30.13c0,.874-.2,1.078-1.074,1.081q-2.46.01-4.92,0c-.866,0-1.168-.3-1.148-1.154a20.778,20.778,0,0,1,.21-2.383c.086-.616.069-.64-.561-.64q-7.075,0-14.15,0H7.636c-.778,0-.773,0-.675.772a19.162,19.162,0,0,1,.2,2.3c0,.8-.3,1.1-1.109,1.109-1.684.009-3.367,0-5.051,0-.43,0-.818-.071-.942-.574" transform="translate(-0.043 0)"/>
        <path id="Trazado_136585" data-name="Trazado 136585" d="M44.214,106.177H.5a.54.54,0,0,1-.435-.435v-5.225a1.622,1.622,0,0,1,1.542-1.4c.341-.046.421-.2.43-.511a3.618,3.618,0,0,1,3.818-3.7c.316,0,.685.12.935-.074s.1-.574.133-.87a3.633,3.633,0,0,1,3.619-3.232c1.334-.008,2.669.009,4,0a3.658,3.658,0,0,1,2.613,1c.247.229.395.233.643,0a3.689,3.689,0,0,1,2.656-1q1.914.028,3.829,0a3.674,3.674,0,0,1,2.617.993c.24.219.389.254.645.016A3.685,3.685,0,0,1,30.2,90.723c1.305.017,2.611,0,3.916.005A3.615,3.615,0,0,1,37.8,94.341c.012.544.028.571.567.563a4.634,4.634,0,0,1,2.328.405,3.564,3.564,0,0,1,1.979,3.154c.032.553.016.553.553.663a1.666,1.666,0,0,1,1.457,1.727c.012,1.538,0,3.075.006,4.613,0,.358-.1.625-.48.711" transform="translate(-0.043 -61.545)"/>
        <path id="Trazado_136586" data-name="Trazado 136586" d="M.021,137.423l.435.435q-.553.117-.435-.435" transform="translate(0 -93.226)" fill="#f7f7f7"/>
        <path id="Trazado_136587" data-name="Trazado 136587" d="M47.25,36.629c-.116.005-.232.015-.347.015H18.168c-.116,0-.232-.01-.347-.015a2.7,2.7,0,0,1-.409-.81,7.229,7.229,0,0,0-1.484-2.078,2.9,2.9,0,0,1-.546-3.37,3.171,3.171,0,0,1,.579-.7,22.018,22.018,0,0,0,3.019-3.417,21.546,21.546,0,0,0,3.162-8.182,9.23,9.23,0,0,1,.255-1.146,2.793,2.793,0,0,1,2.715-1.994c2.669-.009,5.339,0,8.008,0q3.33,0,6.659,0a2.828,2.828,0,0,1,2.993,2.375c.253,1.117.433,2.25.755,3.352a19.156,19.156,0,0,0,3.695,7.087,18.459,18.459,0,0,0,1.928,1.947,2.79,2.79,0,0,1,.134,3.883,8.577,8.577,0,0,0-1.9,2.884.5.5,0,0,1-.133.17" transform="translate(-10.222 -10.126)" fill="#97dde9"/>
        <path id="Trazado_136588" data-name="Trazado 136588" d="M41.746,33.612a6.3,6.3,0,0,1,1.5-2.652,8.631,8.631,0,0,0,.717-.812,2.768,2.768,0,0,0-.352-3.349,18.206,18.206,0,0,1-3.469-4.035,21.66,21.66,0,0,1-2.656-6.793c-.129-.606-.219-1.221-.364-1.822A2.705,2.705,0,0,0,34.4,12.03c-4.845,0-9.69.022-14.534-.013a2.843,2.843,0,0,0-3.018,2.51,24.212,24.212,0,0,1-1.408,5.214,18.5,18.5,0,0,1-2.806,4.818A19.718,19.718,0,0,1,10.454,26.8a2.72,2.72,0,0,0,0,3.787,7.534,7.534,0,0,1,1.655,2.369,1.79,1.79,0,0,1,.207.657,3.256,3.256,0,0,1-1.2-.021c-.339-.142-.322-.662-.482-1.008a8.034,8.034,0,0,0-3.677-3.867,1.536,1.536,0,0,1,.483-.369,18.473,18.473,0,0,0,7.218-10.286A28.264,28.264,0,0,0,15.791,11.7c.023-.359.174-.376.456-.375q7.722.01,15.444,0c.6,0,.772-.131.925-.693a1.544,1.544,0,0,1,1.368,0c.148.549.324.691.881.693.986,0,1.972.018,2.958-.008.348-.009.422.106.447.433a25.962,25.962,0,0,0,2.714,10.207,17.37,17.37,0,0,0,5.933,6.576c.059.039.115.083.213.153a10.284,10.284,0,0,0-1.413.923,7.844,7.844,0,0,0-2.559,3.7c-.075.227-.158.339-.414.317-.331-.028-.666-.016-1-.021" transform="translate(-4.718 -7.109)" fill="#81cfd7"/>
        <path id="Trazado_136589" data-name="Trazado 136589" d="M116.992,15q.007,3.025.014,6.049,0,3.59,0,7.188c-.149,0-.135-.126-.173-.2a16.784,16.784,0,0,1-1.655-6.481c-.063-.78-.169-1.556-.256-2.334-.056-.5-.367-.786-.785-.734a.7.7,0,0,0-.6.856c.326,2.48.369,5.007,1.211,7.4.049.089.055.179-.068.19-.1.009-.185-.073-.26-.142a17.038,17.038,0,0,1-4.941-7.545c-.016-.053,0-.115-.048-.16a18.872,18.872,0,0,1-.623-3.8c-.092-.265.041-.377.283-.412a2.719,2.719,0,0,1,.389-.019q3.427,0,6.853,0a.862.862,0,0,1,.659.142" transform="translate(-73.794 -10.077)" fill="#f86464"/>
        <path id="Trazado_136590" data-name="Trazado 136590" d="M32.224,6.542H30.856c-.151-.578-.316-.7-.963-.7q-12.49,0-24.98.012c-.47,0-.57-.137-.552-.572.034-.832.01-.833.845-.833q20.214,0,40.429-.01c.425,0,.57.079.547.534-.042.868-.012.87-.9.87H33.143c-.6,0-.773.135-.919.7" transform="translate(-2.957 -3.011)" fill="#8d959a"/>
        <path id="Trazado_136591" data-name="Trazado 136591" d="M13.758,15.282a22.7,22.7,0,0,1-2.447,8.858A11.756,11.756,0,0,1,8.5,26.911a1.255,1.255,0,0,1-.555.23c-.1.014-.248.055-.219-.146.929-2.461.97-5.074,1.3-7.636a.7.7,0,0,0-.626-.874c-.416-.034-.693.256-.76.763-.241,1.807-.316,3.636-.693,5.425a6.788,6.788,0,0,1-.512,1.648c-.252-.033-.255-.246-.295-.422a2.882,2.882,0,0,1-.029-.608q0-4.744,0-9.489c0-.087,0-.174,0-.261.018-.58.111-.683.7-.685,2.132-.007,4.265-.01,6.4,0,.256,0,.647-.083.547.421" transform="translate(-4.146 -10.074)" fill="#f86464"/>
        <path id="Trazado_136592" data-name="Trazado 136592" d="M12.575,14.094c0-.219-.107-.291-.326-.291q-3.431.01-6.864,0c-.258,0-.314.111-.314.341q.007,5.214,0,10.427a.8.8,0,0,0,.18.561,8.758,8.758,0,0,1-.877,1.918v-.326c0-4.393,0-8.785-.009-13.177,0-.37.1-.448.456-.445,2.45.016,4.9.021,7.349,0,.44,0,.565.122.477.529-.033.153.013.321-.075.466" transform="translate(-2.963 -8.886)" fill="#e95050"/>
        <path id="Trazado_136593" data-name="Trazado 136593" d="M110.8,28.026c.416.838.715,1.727,1.14,2.564a18.047,18.047,0,0,0,3.959,5.1c.062.057.157.248.217-.009l1.359,3.116a10.514,10.514,0,0,1-1.5-1.212,18.452,18.452,0,0,1-5.175-9.43.58.58,0,0,1,0-.13" transform="translate(-75.162 -19.012)" fill="#e95050"/>
        <path id="Trazado_136594" data-name="Trazado 136594" d="M8.473,82.23c.081.7.081.7-.631.7q-1.564,0-3.128,0c-.147,0-.326.059-.326-.21.005-1.906,0-3.811.038-5.726a5.7,5.7,0,0,1,.727,1.589,4.419,4.419,0,0,0,.466,2.331c.049.194.1.386.147.582.16.734.559.914,1.224.546a4.7,4.7,0,0,1,1.482.192" transform="translate(-2.977 -52.229)" fill="#e95050"/>
        <path id="Trazado_136595" data-name="Trazado 136595" d="M10.619,79.583a2.97,2.97,0,0,1-1.482-.192,1.024,1.024,0,0,0,.13-.864c-.178-.789-.324-1.585-.472-2.38A8.449,8.449,0,0,0,7.913,73.8c-.118-.225-.23-.454-.361-.715,1.491.389,3.072,3.79,3.067,6.494" transform="translate(-5.123 -49.582)" fill="#f86363"/>
        <path id="Trazado_136596" data-name="Trazado 136596" d="M125.629,83.664a.4.4,0,0,1,.006.043c.026.655.026.655-.609.655-1,0-2-.019-3,.009-.416.012-.556-.047-.51-.528a13.441,13.441,0,0,1,.9-4.134,1.971,1.971,0,0,1,.33-.6c.134.122.082.273.041.4a3.662,3.662,0,0,0,.147,2.852,1.768,1.768,0,0,1-.034.3.72.72,0,0,0,1.235.718,10.673,10.673,0,0,1,1.487.288" transform="translate(-82.431 -53.663)" fill="#e95050"/>
        <path id="Trazado_136597" data-name="Trazado 136597" d="M116.789,13.833l-7.729,0c-.213,0-.462-.056-.455.289-.232-.979-.226-.986.749-.986h6.788c.684,0,.684,0,.648.7" transform="translate(-73.591 -8.91)" fill="#e95050"/>
        <path id="Trazado_136598" data-name="Trazado 136598" d="M131.181,81.989a2.346,2.346,0,0,1-1.487-.288c.281-.96.421-1.951.622-2.928a7.775,7.775,0,0,1,.865-2.137Z" transform="translate(-87.983 -51.988)" fill="#f86464"/>
        <path id="Trazado_136599" data-name="Trazado 136599" d="M8.454,46.591c.37.157.619-.1.87-.282a19.737,19.737,0,0,0,2.715-2.573,15.451,15.451,0,0,1-3.674,4.8,6.947,6.947,0,0,1-1.178.912l1.267-2.855" transform="translate(-4.876 -29.67)" fill="#e95050"/>
        <path id="Trazado_136600" data-name="Trazado 136600" d="M124.9,78.172a2.149,2.149,0,0,1-.48-1.792c.056-.492.192-.976.292-1.463a5.545,5.545,0,0,1,1.753-1.985l.1.072c-.091.187-.168.382-.275.559a12.669,12.669,0,0,0-1.306,4.276c-.022.112-.059.222-.089.332" transform="translate(-84.387 -49.476)" fill="#f76363"/>
        <path id="Trazado_136601" data-name="Trazado 136601" d="M7.056,84.262c-.36-.134-.364-.483-.441-.772a3.179,3.179,0,0,1-.025-1.559,23.165,23.165,0,0,1,.466,2.331" transform="translate(-4.413 -55.581)" fill="#f26161"/>
        <path id="Trazado_136602" data-name="Trazado 136602" d="M105.9,108.6a1.522,1.522,0,0,1,.8-.151c1.332,0,2.664,0,4,0a2.081,2.081,0,0,1,2.182,2.186c0,1.592-.008,3.185-.013,4.778a.633.633,0,0,1-.489.132c-1.232,0-2.464.023-3.7,0a2.9,2.9,0,0,1-2.893-2.88c-.029-1.187-.007-2.376-.006-3.564a.805.805,0,0,1,.121-.5" transform="translate(-71.75 -73.568)" fill="#f86464"/>
        <path id="Trazado_136603" data-name="Trazado 136603" d="M75.571,108.6a1.522,1.522,0,0,1,.8-.151c1.332,0,2.664,0,4,0a2.081,2.081,0,0,1,2.182,2.186c0,1.592-.008,3.185-.013,4.778a.633.633,0,0,1-.489.132c-1.232,0-2.464.023-3.7,0a2.9,2.9,0,0,1-2.893-2.88c-.029-1.187-.007-2.376-.006-3.564a.805.805,0,0,1,.121-.5" transform="translate(-51.178 -73.568)" fill="#f86464"/>
        <path id="Trazado_136604" data-name="Trazado 136604" d="M45.246,108.6a1.522,1.522,0,0,1,.8-.151c1.332,0,2.664,0,4,0a2.081,2.081,0,0,1,2.182,2.186c0,1.592-.008,3.185-.013,4.778a.633.633,0,0,1-.489.132c-1.232,0-2.464.023-3.7,0a2.9,2.9,0,0,1-2.893-2.88c-.029-1.187-.007-2.376-.006-3.564a.805.805,0,0,1,.121-.5" transform="translate(-30.606 -73.568)" fill="#f86464"/>
        <path id="Trazado_136605" data-name="Trazado 136605" d="M14.921,108.6a1.522,1.522,0,0,1,.8-.151c1.332,0,2.664,0,4,0a2.081,2.081,0,0,1,2.182,2.186c0,1.592-.008,3.185-.013,4.778a.633.633,0,0,1-.489.132c-1.232,0-2.464.023-3.7,0a2.9,2.9,0,0,1-2.893-2.88c-.029-1.187-.007-2.376-.006-3.564a.805.805,0,0,1,.121-.5" transform="translate(-10.034 -73.568)" fill="#f86464"/>
        <path id="Trazado_136606" data-name="Trazado 136606" d="M103.235,108.918q.005,1.932.01,3.864a2.791,2.791,0,0,0,2.958,2.952l3.995,0c.015.447.186,1.014-.054,1.305s-.815.084-1.243.086c-2.216.009-4.432,0-6.647.012-.32,0-.412-.071-.409-.4.017-1.955,0-3.91.011-5.866a2.008,2.008,0,0,1,1.38-1.949" transform="translate(-69.089 -73.888)" fill="#e95050"/>
        <path id="Trazado_136607" data-name="Trazado 136607" d="M72.91,108.918q.005,1.932.01,3.864a2.791,2.791,0,0,0,2.958,2.952l3.995,0c.015.447.186,1.014-.054,1.305s-.815.084-1.243.086c-2.216.009-4.432,0-6.647.012-.32,0-.412-.071-.409-.4.017-1.955,0-3.91.011-5.866a2.008,2.008,0,0,1,1.38-1.949" transform="translate(-48.517 -73.888)" fill="#e95050"/>
        <path id="Trazado_136608" data-name="Trazado 136608" d="M42.585,108.918q.005,1.932.01,3.864a2.79,2.79,0,0,0,2.958,2.952l3.995,0c.015.447.186,1.014-.054,1.305s-.815.084-1.243.086c-2.216.009-4.432,0-6.647.012-.32,0-.412-.071-.409-.4.017-1.955,0-3.91.011-5.866a2.008,2.008,0,0,1,1.38-1.949" transform="translate(-27.945 -73.888)" fill="#e95050"/>
        <path id="Trazado_136609" data-name="Trazado 136609" d="M12.26,108.918q.005,1.932.01,3.864a2.79,2.79,0,0,0,2.958,2.952l3.995,0c.015.447.186,1.014-.054,1.305s-.815.084-1.243.086c-2.216.009-4.432,0-6.647.012-.32,0-.412-.071-.409-.4.017-1.955,0-3.91.011-5.866a2.008,2.008,0,0,1,1.38-1.949" transform="translate(-7.373 -73.888)" fill="#e95050"/>
        <path id="Trazado_136610" data-name="Trazado 136610" d="M86.754,97.518a2.044,2.044,0,0,1,1.968-2.079q2.2-.041,4.394,0a2.043,2.043,0,0,1,1.968,2.079.815.815,0,0,1-.663.119,3.653,3.653,0,0,0-2.674.785,1.275,1.275,0,0,1-1.655,0,3.65,3.65,0,0,0-2.674-.785.817.817,0,0,1-.663-.119" transform="translate(-58.853 -64.73)" fill="#f86464"/>
        <path id="Trazado_136611" data-name="Trazado 136611" d="M26.1,97.518a2.044,2.044,0,0,1,1.968-2.079q2.2-.041,4.394,0a2.043,2.043,0,0,1,1.968,2.079.815.815,0,0,1-.663.119,3.653,3.653,0,0,0-2.674.785,1.275,1.275,0,0,1-1.655,0,3.65,3.65,0,0,0-2.674-.785.817.817,0,0,1-.663-.119" transform="translate(-17.709 -64.73)" fill="#f86464"/>
        <path id="Trazado_136612" data-name="Trazado 136612" d="M56.429,97.518A2.044,2.044,0,0,1,58.4,95.439q2.2-.041,4.394,0a2.043,2.043,0,0,1,1.968,2.079.815.815,0,0,1-.663.119,3.653,3.653,0,0,0-2.674.785,1.275,1.275,0,0,1-1.655,0,3.65,3.65,0,0,0-2.674-.785.817.817,0,0,1-.663-.119" transform="translate(-38.281 -64.73)" fill="#f86464"/>
        <path id="Trazado_136613" data-name="Trazado 136613" d="M26.076,101.912c.623.012,1.249-.017,1.866.046a2.87,2.87,0,0,1,1.457.72,1.286,1.286,0,0,0,1.611.05,3.407,3.407,0,0,1,2.612-.818c.26.021.522,0,.783,0,0,.043.013.086.014.129.013.569.012.587-.573.565a4.123,4.123,0,0,0-2.993.785c-.217.183-.412.512-.637.529-.18.014-.377-.355-.588-.528a3.409,3.409,0,0,0-2.165-.781c-.247,0-.493,0-.74,0-.685,0-.685,0-.647-.7" transform="translate(-17.681 -69.124)" fill="#e95050"/>
        <path id="Trazado_136614" data-name="Trazado 136614" d="M56.4,101.912c.623.012,1.249-.017,1.866.046a2.87,2.87,0,0,1,1.457.72,1.286,1.286,0,0,0,1.611.05,3.407,3.407,0,0,1,2.612-.818c.259.021.522,0,.783,0,0,.043.013.086.014.129.013.569.012.587-.573.565a4.123,4.123,0,0,0-2.993.785c-.217.183-.412.512-.637.529-.18.014-.377-.355-.588-.528a3.409,3.409,0,0,0-2.165-.781c-.247,0-.493,0-.74,0-.685,0-.685,0-.647-.7" transform="translate(-38.253 -69.124)" fill="#e95050"/>
        <path id="Trazado_136615" data-name="Trazado 136615" d="M86.726,101.912c.623.012,1.249-.017,1.866.046a2.87,2.87,0,0,1,1.457.72,1.286,1.286,0,0,0,1.611.05,3.407,3.407,0,0,1,2.612-.818c.259.021.522,0,.783,0,0,.043.013.086.014.129.013.569.012.587-.573.565a4.123,4.123,0,0,0-2.993.785c-.217.183-.412.512-.637.529-.18.014-.377-.355-.588-.528a3.409,3.409,0,0,0-2.165-.781c-.247,0-.493,0-.74,0-.685,0-.685,0-.647-.7" transform="translate(-58.825 -69.124)" fill="#e95050"/>
        <path id="Trazado_136616" data-name="Trazado 136616" d="M5.079,123.693c0,.564-.016,1.13.006,1.693.012.308-.17.265-.358.268s-.355.023-.351-.276c.016-1.158.008-2.316.005-3.474,0-.234.082-.412.332-.421.275-.01.369.174.367.428,0,.593,0,1.187,0,1.78" transform="translate(-2.968 -82.413)" fill="#f86464"/>
        <path id="Trazado_136617" data-name="Trazado 136617" d="M132.88,123.66c0,.55-.017,1.1.007,1.65.013.293-.089.351-.364.359-.308.009-.348-.115-.345-.377.012-1.085.007-2.171,0-3.257,0-.257,0-.537.337-.544.374-.007.363.291.362.562,0,.535,0,1.071,0,1.606" transform="translate(-89.668 -82.418)" fill="#f86464"/>
        <path id="Trazado_136618" data-name="Trazado 136618" d="M55.989,39.812a.837.837,0,0,1-.288.6q-4.443,4.442-8.886,8.884a.705.705,0,1,1-.992-.976q4.439-4.446,8.882-8.888a.721.721,0,0,1,.856-.234.678.678,0,0,1,.428.619" transform="translate(-30.89 -26.546)"/>
        <path id="Trazado_136619" data-name="Trazado 136619" d="M75.551,46.323a.839.839,0,0,1-.275.59q-3.417,3.415-6.834,6.829a.7.7,0,1,1-.991-.973q3.426-3.437,6.861-6.864a.679.679,0,0,1,.788-.2.705.705,0,0,1,.452.619" transform="translate(-45.582 -30.967)"/>
        <path id="Trazado_136620" data-name="Trazado 136620" d="M80.886,28.163a.664.664,0,0,1-.643-.429.68.68,0,0,1,.181-.791q1.134-1.138,2.272-2.272c.164-.163.319-.337.495-.487a.676.676,0,0,1,.974.022.649.649,0,0,1,.013.94c-.939.964-1.9,1.908-2.854,2.855a.573.573,0,0,1-.437.163" transform="translate(-54.396 -16.272)"/>
      </g>
    </g>
    <g id="Grupo_159107" data-name="Grupo 159107" transform="translate(-7175.897 -5580.927)">
      <g id="Grupo_159053" data-name="Grupo 159053" transform="translate(0 0)" clip-path="url(#clip-path-4)">
        <path id="Trazado_136091" data-name="Trazado 136091" d="M16.892,0c.1.133.259.067.388.1A3.569,3.569,0,0,1,19.6,1.946c.107.205.158.244.365.094A4.236,4.236,0,0,1,26.59,6.43c-.046.205-.023.278.2.334A2.962,2.962,0,0,1,29.038,8.95c.05.172.086.223.276.2a3.023,3.023,0,0,1,1.3,5.891c-.239.071-.3.146-.285.4a3.614,3.614,0,0,1-4.053,3.947c-.218-.022-.229.079-.265.219a3.58,3.58,0,0,1-3.171,2.822,3.456,3.456,0,0,1-2.747-.91c-.115.064-.057.17-.057.251,0,2.821,0,5.642-.007,8.463a2.82,2.82,0,0,0,1.014,2.286c.4.336.8.665,1.242,1.035.025-.39.047-.735.069-1.08a12.312,12.312,0,0,1,.72-3.426c.154-.425.456-.607.8-.482a.616.616,0,0,1,.339.875,11.813,11.813,0,0,0-.686,3.929c.146,0,.18-.124.245-.2a5.049,5.049,0,0,1,2.68-1.573c.529-.121.921.213.826.695-.061.311-.291.426-.575.5a3.962,3.962,0,0,0-2.717,2.252c-.019.04-.031.084-.058.158,1.1,0,2.176,0,3.251,0a.778.778,0,0,1,.447.085A.605.605,0,0,1,27.4,36.4a2.123,2.123,0,0,1-.355.009H5.747c-.071,0-.142,0-.213,0a.606.606,0,0,1-.663-.624.6.6,0,0,1,.664-.585c1,0,1.991,0,2.987,0h.357a3.992,3.992,0,0,0-2.542-2.342c-.134-.044-.276-.067-.411-.109a.61.61,0,0,1-.464-.7.6.6,0,0,1,.75-.474,4.929,4.929,0,0,1,2.695,1.472c.1.108.2.221.355.386A11.656,11.656,0,0,0,8.818,30.2c-.075-.261-.165-.517-.247-.776a.612.612,0,1,1,1.142-.4,13.031,13.031,0,0,1,.767,4.17c0,.1,0,.206,0,.377a14.975,14.975,0,0,0,1.664-1.46,2.444,2.444,0,0,0,.605-1.63c.01-2.963.006-5.926.006-8.889,0-.018-.018-.037-.04-.083a3.864,3.864,0,0,1-1.5.824A3.61,3.61,0,0,1,6.806,19.7c-.068-.29-.163-.324-.435-.3a3.617,3.617,0,0,1-3.911-3.9c.014-.276-.022-.4-.316-.486A3.02,3.02,0,0,1,3.475,9.144c.156.022.22.015.269-.162a2.946,2.946,0,0,1,2.29-2.225c.234-.055.2-.161.16-.328a4.241,4.241,0,0,1,4.221-5.212,4.148,4.148,0,0,1,2.443.838c.094.07.171.205.283-.018A3.577,3.577,0,0,1,15.684.067c.027-.006.047-.044.07-.067Z" transform="translate(0 0)"/>
        <path id="Trazado_136092" data-name="Trazado 136092" d="M4.955,79.509c-.595,0-.895-.2-.893-.609s.3-.6.9-.6c.106,0,.213,0,.318,0a.6.6,0,1,1,0,1.208c-.106.007-.212,0-.317,0" transform="translate(-2.236 -43.096)" fill="#010101"/>
        <path id="Trazado_136093" data-name="Trazado 136093" d="M65.7,79.509q-.895,0-.9-.605T65.7,78.3c.106,0,.212,0,.318,0a.6.6,0,1,1,0,1.208c-.106.007-.212,0-.318,0" transform="translate(-35.67 -43.096)" fill="#010101"/>
        <path id="Trazado_136094" data-name="Trazado 136094" d="M29.417,11.232c0,.094,0,.188,0,.282a.588.588,0,0,0,.9.559,1.485,1.485,0,0,1,.593-.209.374.374,0,0,1,.417.108,2.446,2.446,0,0,1-.191,3.444.678.678,0,0,0-.733.434.976.976,0,0,1-.706.274c-.3.029-.335.156-.269.42a3.013,3.013,0,0,1-.648,2.742,1.126,1.126,0,0,1-.488.394,1.805,1.805,0,0,1-.86-.131c-.726-.259-1.045-.046-1.057.714a.85.85,0,0,1-.782.012c-.254-.089-.336-.024-.34.243a2.922,2.922,0,0,1-.839,1.937.539.539,0,0,1-.617.232,2.478,2.478,0,0,1-2.226-2.224,17.756,17.756,0,0,1-.013-2,3.1,3.1,0,0,0,2.137.6,3.023,3.023,0,0,0,2.692-3.015.594.594,0,0,0-.536-.6.621.621,0,0,0-.635.462,1.345,1.345,0,0,0-.04.279,1.7,1.7,0,0,1-1.155,1.562,1.648,1.648,0,0,1-1.9-.406.864.864,0,0,0-1.13-.222,1.777,1.777,0,0,1-2.459-1.472,2.286,2.286,0,0,0-.053-.35.545.545,0,0,0-.566-.443.551.551,0,0,0-.589.459,2.238,2.238,0,0,0-.047.315,1.773,1.773,0,0,1-2.443,1.5.888.888,0,0,0-1.16.228,1.636,1.636,0,0,1-1.866.4,1.7,1.7,0,0,1-1.172-1.55,1.635,1.635,0,0,0-.05-.314.592.592,0,0,0-.643-.44.58.58,0,0,0-.52.581A3.031,3.031,0,0,0,12.1,19.063a3.174,3.174,0,0,0,2.167-.6,12.27,12.27,0,0,1-.072,2.277,2.581,2.581,0,0,1-2.422,1.995,2.457,2.457,0,0,1-2.3-1.885,2.567,2.567,0,0,1-.045-.671c.013-.615-.368-.885-.947-.669A2.39,2.39,0,0,1,5.229,17.8,2.242,2.242,0,0,1,5.3,16.476c.265-.736.045-1.05-.729-1.042a1.779,1.779,0,0,1-1.825-1.882,1.8,1.8,0,0,1,1.9-1.745,2.073,2.073,0,0,1,.807.246c.534.263.951-.01.939-.607A1.8,1.8,0,0,1,8.638,9.433a.579.579,0,0,0,.583-.264.646.646,0,0,0-.005-.706A2.9,2.9,0,0,1,8.932,6.1,2.9,2.9,0,0,1,11.209,3.99a2.916,2.916,0,0,1,2.983,1.054,1.639,1.639,0,0,1,.151.2.616.616,0,0,0,1.156-.3,2.414,2.414,0,0,1,4.81-.047c.039.312.129.562.45.646a.7.7,0,0,0,.753-.337A2.879,2.879,0,0,1,24.45,4.05a3.364,3.364,0,0,1,1.357,2.158,3.565,3.565,0,0,1-.18,2.118c-.039.106-.123.2-.087.355a2.842,2.842,0,0,1,.692.041c.144.018.247.071.263.23a.654.654,0,0,0,.716.494.506.506,0,0,1,.607.241,2.6,2.6,0,0,1,.5,1.652c.366-.068.713-.348,1.1-.107" transform="translate(-1.513 -1.487)" fill="#60a817"/>
        <path id="Trazado_136095" data-name="Trazado 136095" d="M34.081,54.986,25.974,55H23.748a4.211,4.211,0,0,1,1-1.05A11.1,11.1,0,0,0,26,52.852a3.982,3.982,0,0,0,1.043-2.826c-.005-4.243,0-8.487-.009-12.73,0-.338.026-.53.438-.556A2.9,2.9,0,0,0,29.1,36c.32-.113.594.065.884.14l.688.387a.794.794,0,0,1,.111.578c0,4.263.017,8.526-.008,12.789a3.589,3.589,0,0,0,1.44,3.014A9.909,9.909,0,0,1,33.672,54.2c.193.226.456.431.41.787" transform="translate(-13.071 -19.794)" fill="#9f522d"/>
        <path id="Trazado_136096" data-name="Trazado 136096" d="M42.553,55.675a5.075,5.075,0,0,0-1.569-1.7,4.485,4.485,0,0,1-1.623-1.916,3.428,3.428,0,0,1-.215-1.139q0-6.623,0-13.245c0-.154,0-.308-.006-.462a2.536,2.536,0,0,0,.919.246c.26.015.3.114.3.345-.009,1.456,0,2.912,0,4.369,0,2.794.025,5.589-.009,8.383a4.313,4.313,0,0,0,1.847,3.708,7.982,7.982,0,0,1,1.189,1.062c.082.093.2.163.222.348Z" transform="translate(-21.543 -20.484)" fill="#783e22"/>
        <path id="Trazado_136097" data-name="Trazado 136097" d="M53.064,10.6c-.235-.232-.539-.164-.819-.175-.11,0-.25.092-.325-.018s.075-.182.117-.273a3.729,3.729,0,0,0-.71-4.1c-.107-.109-.205-.226-.308-.339a3,3,0,0,1,2.489,2.576,3.03,3.03,0,0,1-.339,1.813,1.006,1.006,0,0,0-.106.512" transform="translate(-28.082 -3.139)" fill="#549314"/>
        <path id="Trazado_136098" data-name="Trazado 136098" d="M59.563,35.778a3.444,3.444,0,0,0,1.087-1.856,2.8,2.8,0,0,0-.076-1.391c-.071-.221-.1-.382.25-.383a3.727,3.727,0,0,0,.852-.2.884.884,0,0,0,.1.612,2.408,2.408,0,0,1-2.214,3.218" transform="translate(-32.784 -17.585)" fill="#549314"/>
        <path id="Trazado_136099" data-name="Trazado 136099" d="M65.614,26.564c.12-.27.364-.455.484-.732a2.438,2.438,0,0,0-.212-2.476c-.116-.174-.246-.354-.5-.344a1.8,1.8,0,1,1,.226,3.552" transform="translate(-35.99 -12.635)" fill="#549314"/>
        <path id="Trazado_136100" data-name="Trazado 136100" d="M49.565,43.968c.538-.032.719-.488.955-.846a2.334,2.334,0,0,0,.408-1.508c-.021-.241.071-.3.28-.2a1.991,1.991,0,0,0,.935.134A2.4,2.4,0,0,1,49.8,44.018a.333.333,0,0,1-.236-.05" transform="translate(-27.281 -22.768)" fill="#549314"/>
        <path id="Trazado_136101" data-name="Trazado 136101" d="M59.367,19.4a2.368,2.368,0,0,0-1.191.262,2.725,2.725,0,0,0-.443-1.7c-.14-.2-.293-.377-.571-.343A1.766,1.766,0,0,1,59.367,19.4" transform="translate(-31.462 -9.659)" fill="#549314"/>
        <path id="Trazado_136102" data-name="Trazado 136102" d="M36.528,35.814c-.315.08-.587-.109-.884-.14.359-.4.359-.4.74-.016.05.05.1.1.143.156" transform="translate(-19.619 -19.469)" fill="#753c21"/>
        <path id="Trazado_136103" data-name="Trazado 136103" d="M47.161,19.21a3.176,3.176,0,0,1-.486,1.657.636.636,0,0,1-.9.288c-.308-.2-.354-.545-.125-.937a1.8,1.8,0,0,0-1.394-2.791,1.715,1.715,0,0,0-1.559.678.65.65,0,0,1-.667.306.613.613,0,0,1-.312-1.03,3.043,3.043,0,0,1,5.445,1.828" transform="translate(-22.868 -8.918)"/>
        <path id="Trazado_136104" data-name="Trazado 136104" d="M26.735,12.061a2.456,2.456,0,0,1,2.244,1.569.617.617,0,0,1-.3.863c-.339.138-.63,0-.823-.4a1.217,1.217,0,0,0-1.3-.77,1.253,1.253,0,0,0-1.038,1.027,1.453,1.453,0,0,0,.058.594.612.612,0,0,1-.432.773.627.627,0,0,1-.728-.462,2.435,2.435,0,0,1,2.315-3.2" transform="translate(-13.368 -6.639)"/>
        <path id="Trazado_136105" data-name="Trazado 136105" d="M36.325,51.837v3.517c0,.083,0,.166,0,.249-.015.473-.25.764-.617.767s-.619-.289-.622-.76c-.007-1.149,0-2.3,0-3.446,0-1.374,0-2.747,0-4.121,0-.457.193-.725.527-.764.438-.052.709.228.712.758,0,1.267,0,2.534,0,3.8" transform="translate(-19.309 -26.019)" fill="#010000"/>
        <path id="Trazado_136106" data-name="Trazado 136106" d="M36.308,40.375a4.41,4.41,0,0,1-.038.742.566.566,0,0,1-.583.473.537.537,0,0,1-.582-.468,4.545,4.545,0,0,1,0-1.48.527.527,0,0,1,.555-.452.565.565,0,0,1,.6.445,3.267,3.267,0,0,1,.044.74" transform="translate(-19.29 -21.57)" fill="#010000"/>
      </g>
    </g>
    <g id="Grupo_159108" data-name="Grupo 159108" transform="translate(-7077 -5538.219)">
      <g id="Grupo_159058" data-name="Grupo 159058" transform="translate(0 0)" clip-path="url(#clip-path-5)">
        <path id="Trazado_136107" data-name="Trazado 136107" d="M13.65,34.438c-.092-.131-.255-.113-.38-.178a1.925,1.925,0,0,1-1.108-1.845q0-3.211,0-6.421v-.384c-.344.036-.65.147-.973.183a3.46,3.46,0,0,1-1.708-.243A.992.992,0,0,0,8.87,25.5,4.407,4.407,0,0,1,3.577,21.09a.64.64,0,0,0-.28-.58,4.449,4.449,0,0,1-1.7-3.159.914.914,0,0,0-.356-.731,3.415,3.415,0,0,1,2.414-6.039c.394.039.391-.091.382-.392A5.366,5.366,0,0,1,6.947,5.053,4.615,4.615,0,0,1,8.721,4.48.358.358,0,0,0,9.1,4.13,5.171,5.171,0,0,1,19.16,3.844a5.691,5.691,0,0,1,.172,1.429.408.408,0,0,0,.584.423,5.138,5.138,0,0,1,6.219,2.322,4.908,4.908,0,0,1,.588,3.5.324.324,0,0,0,.209.434,3.7,3.7,0,0,1,1.983,4.322,3.741,3.741,0,0,1-3.856,2.753,2.717,2.717,0,0,1-.883-.181c-.2-.085-.278-.036-.348.174a5.971,5.971,0,0,1-1.9,2.751c-.361.3-.511.3-.883.02a.452.452,0,0,1-.023-.65,4.578,4.578,0,0,1,.492-.506,4.92,4.92,0,0,0,1.41-2.477,1.566,1.566,0,0,1,.134-.414.618.618,0,0,1,.695-.279,2.362,2.362,0,0,1,.4.171,2.613,2.613,0,1,0,2.053-4.8c-.063-.024-.127-.044-.19-.067a.677.677,0,0,1-.509-.956,7.042,7.042,0,0,0,.167-.854,4.021,4.021,0,0,0-2.714-4.205c-.085-.027-.168-.062-.252-.094a4.3,4.3,0,0,0-1.63-.1c-.075.007-.172,0-.207.082s.055.135.1.193a6.264,6.264,0,0,1-.3,8.346A6.047,6.047,0,0,1,16.513,17.1c-.191.012-.355.005-.325.289a4.991,4.991,0,0,1-.858,3.246c-.295.466-.3.461.174.756a4.539,4.539,0,0,0,.889.393,4.365,4.365,0,0,0,1.383.25,1.009,1.009,0,0,1,.519.123c.173.1.315.229.209.462-.037.4-.2.56-.6.549a5.392,5.392,0,0,1-1.618-.252c-.265-.092-.315-.037-.315.232.008,3.046,0,6.092.007,9.138a1.977,1.977,0,0,1-1.1,1.953c-.157.079-.328.13-.493.194Z" transform="translate(0 0)"/>
        <path id="Trazado_136108" data-name="Trazado 136108" d="M44.054,74.334a1.546,1.546,0,0,1-.5-1.447,2.628,2.628,0,0,1,1.152-2.168.468.468,0,0,0,.216-.382,4.109,4.109,0,0,1,7.386-2.118,3.782,3.782,0,0,1,.666,1.34.526.526,0,0,0,.353.394,2.852,2.852,0,0,1,1.463,3.867,1.094,1.094,0,0,1-.448.514Z" transform="translate(-26.1 -39.896)"/>
        <path id="Trazado_136109" data-name="Trazado 136109" d="M12.518,85.6c0,.022,0,.044,0,.067H3.843a.083.083,0,0,0-.01-.06.53.53,0,0,1,.438-.115q3.9-.005,7.8,0a.564.564,0,0,1,.442.109" transform="translate(-2.297 -51.228)" fill="#4f4f4f"/>
        <path id="Trazado_136110" data-name="Trazado 136110" d="M42.922,32.475c-.091-.376-.231-.477-.745-.487a3.586,3.586,0,0,1-1.419-.283c-.055-.18.075-.3.157-.421a6.4,6.4,0,0,0,1.008-2.575.616.616,0,0,1,.514-.572,7.672,7.672,0,0,0,5.692-6.217,7.666,7.666,0,0,0-.971-5.17c-.1-.17-.094-.173-.011-.31a4.1,4.1,0,0,1,3.066,3.9,4.03,4.03,0,0,1-.188,1.321c-.163.533-.048.726.482.9a2.657,2.657,0,0,1,1.929,2.513A2.688,2.688,0,0,1,50.1,27.82a2.751,2.751,0,0,1-1.709-.325c-.513-.271-.8-.143-.927.426a5.181,5.181,0,0,1-1.758,2.9.613.613,0,0,0-.238.816l-.417.258a.951.951,0,0,0-.828-.147c-.365.131-.672.274-.764.686l-.533.04" transform="translate(-24.417 -9.852)" fill="#4e8f1e"/>
        <path id="Trazado_136111" data-name="Trazado 136111" d="M11.047,76.379l-8.685.007c-.18-.008-.273-.137-.36-.267a3.921,3.921,0,0,1,.3-4.649c.222-.259.432-.284.766-.091a.426.426,0,0,1,.191.614,3.988,3.988,0,0,1-.29.449,2.8,2.8,0,0,0-.323,2.493.439.439,0,0,0,.495.346c.289-.013.579,0,.87,0,1.972-.008,3.943,0,5.914,0,.493,0,.564-.1.42-.585a1.513,1.513,0,0,0-1.509-1.159.971.971,0,0,1-1.066-.715,2.7,2.7,0,0,0-.784-.993,2.59,2.59,0,0,0-1.462-.6,1.481,1.481,0,0,1-.458-.084.438.438,0,0,1-.293-.581A.492.492,0,0,1,5.36,70.1a3.8,3.8,0,0,1,3.306,2,.539.539,0,0,0,.488.312,2.735,2.735,0,0,1,2.195,3.67.454.454,0,0,1-.3.291" transform="translate(-0.825 -42.009)"/>
        <path id="Trazado_136112" data-name="Trazado 136112" d="M5.5,76.062c-.313,0-.628-.012-.938.018-.255.024-.361-.1-.439-.307a2.832,2.832,0,0,1,.34-2.767c.359-.509.377-.592.122-.942A4.078,4.078,0,0,1,6.2,71.335c.034-.006.061-.059.09-.09.046.41.2.546.661.571a2.6,2.6,0,0,1,1.583.6c-.13.127-.309.114-.467.157a3.267,3.267,0,0,0-2.416,2.442,2.385,2.385,0,0,0-.063.63.543.543,0,0,1-.089.413" transform="translate(-2.344 -42.693)" fill="#5eab24"/>
        <path id="Trazado_136113" data-name="Trazado 136113" d="M47.5,55.083c-.018-.3.063-.572.388-.641.4-.086.851-.474,1.2.1.054.437-.033.583-.44.731-.094.034-.19.063-.285.1-.463.155-.6.109-.867-.288" transform="translate(-28.464 -32.499)" fill="#010101"/>
        <path id="Trazado_136114" data-name="Trazado 136114" d="M28.239,8.431a3.455,3.455,0,0,1,.321,1.924.863.863,0,0,0,.483.925,5.159,5.159,0,1,1-6.394,7.968l-.113-.124c-.423-.468-.494-.478-1.07-.251a4.382,4.382,0,0,1-4.08-.355,1.137,1.137,0,0,1-.129-.105,3.505,3.505,0,0,1-.04-1.562,5.025,5.025,0,0,1,4.232-4.244c.216-.037.482.068.639-.12.135-.162.088-.408.133-.615a4.788,4.788,0,0,1,5.562-3.64.842.842,0,0,1,.455.2" transform="translate(-10.277 -4.872)" fill="#6dc72a"/>
        <path id="Trazado_136115" data-name="Trazado 136115" d="M25.5,5.082a4.531,4.531,0,0,0-3.232.2A4.6,4.6,0,0,0,19.577,8.57c-.053.225-.017.5-.137.672-.129.188-.419.05-.635.086a4.953,4.953,0,0,0-3.813,2.792,4.157,4.157,0,0,0-.461,1.936c.006.336-.006.672-.01,1.008a4.437,4.437,0,0,1,1.525-7.985,3.36,3.36,0,0,1,.828-.112c.472-.007.646-.172.688-.636a4.137,4.137,0,0,1,7.94-1.25" transform="translate(-7.541 -1.522)" fill="#5eab24"/>
        <path id="Trazado_136116" data-name="Trazado 136116" d="M7.585,37.815A3.625,3.625,0,0,1,4.221,35.07a2.972,2.972,0,0,1-.077-.9.807.807,0,0,0-.44-.827A2.306,2.306,0,0,1,2.6,31.7a2.417,2.417,0,0,1,1.919-2.76,2.385,2.385,0,0,1,.465-.055,1.124,1.124,0,0,1,1.143.689,5.286,5.286,0,0,0,4.884,3.1,4.476,4.476,0,0,0,1.808-.3.327.327,0,0,1,.413.085A6.036,6.036,0,0,0,16.344,34.2c.11.024.232.039.243.186a4.06,4.06,0,0,1-.055,1.493,3.39,3.39,0,0,1-1.37-.273,7.25,7.25,0,0,1-2.241-1.191.866.866,0,0,0-.72-.173,6.934,6.934,0,0,1-5.886-1.688.717.717,0,0,0-.1-.085c-.134-.075-.232-.3-.373-.242-.175.069-.144.311-.16.479a2.739,2.739,0,0,0,1.175,2.622.757.757,0,0,1,.359.632,4.559,4.559,0,0,0,.31,1.505.476.476,0,0,1,.064.353" transform="translate(-1.534 -17.309)" fill="#4e8f1e"/>
        <path id="Trazado_136117" data-name="Trazado 136117" d="M12.059,42.522a4.373,4.373,0,0,1-.465-1.9.5.5,0,0,0-.269-.487A2.886,2.886,0,0,1,10.071,37.3c.043-.192,0-.474.176-.549s.285.2.423.311a8.776,8.776,0,0,0,1.675,1.153,7.191,7.191,0,0,0,2.19.681,6.3,6.3,0,0,0,2.258-.061.753.753,0,0,1,.636.2,7.253,7.253,0,0,0,3.465,1.484c.039.005.075.042.111.065a4.192,4.192,0,0,1-3.382,3.291A4.135,4.135,0,0,1,13.9,42.64a.736.736,0,0,0-.785-.219,2.854,2.854,0,0,1-1.06.1" transform="translate(-6.007 -22.016)" fill="#5eab24"/>
        <path id="Trazado_136118" data-name="Trazado 136118" d="M45.1,16.193c-.077.1.02.162.061.232a7.781,7.781,0,0,1,1.09,3.611,7.691,7.691,0,0,1-3.8,7.108,7.545,7.545,0,0,1-2.1.844c-.307.074-.335.279-.381.539a6.583,6.583,0,0,1-1.137,2.726,1.955,1.955,0,0,0-.113.205,4.337,4.337,0,0,1-1.255-.621c-.16-.106-.162-.186-.043-.342A5.2,5.2,0,0,0,38.5,27.352a1.774,1.774,0,0,0-.005-.2c-.049-.523-.048-.495.454-.535A6.2,6.2,0,0,0,44.683,20,6.032,6.032,0,0,0,43.2,16.411l-.213-.249a3.809,3.809,0,0,1,2.115.031" transform="translate(-22.37 -9.605)" fill="#47821c"/>
        <path id="Trazado_136119" data-name="Trazado 136119" d="M19.075,55.573v.2c0,.67,0,.68-.657.846a2.583,2.583,0,0,1-1.825-.186,1.061,1.061,0,0,0-.78-.076,3.4,3.4,0,0,1-4.226-2.519,1.431,1.431,0,0,1-.035-.164c-.058-.446-.031-.474.39-.363a4.63,4.63,0,0,0,1.961.071.5.5,0,0,1,.453.137,5.052,5.052,0,0,0,4.418,1.236c.256-.046.323,0,.305.246-.014.19,0,.381,0,.571" transform="translate(-6.908 -31.915)" fill="#47811c"/>
        <path id="Trazado_136120" data-name="Trazado 136120" d="M34.018,66.115a.881.881,0,0,1-1.137-.758,3.347,3.347,0,0,1-.006-.336c0-3.149.006-6.3-.009-9.447a.549.549,0,0,1,.359-.59,4.677,4.677,0,0,0,.515-.312c.164.166.114.379.114.574q.005,4.639,0,9.278a3.868,3.868,0,0,0,.162,1.394.269.269,0,0,1,0,.2" transform="translate(-19.695 -32.762)" fill="#a96100"/>
        <path id="Trazado_136121" data-name="Trazado 136121" d="M35.325,66.015a2.016,2.016,0,0,1-.27-1.088q0-5.178-.007-10.355c.09-.127.166-.044.251.012.646.424.646.424.646,1.215q0,4.616,0,9.231a.865.865,0,0,1-.619.985" transform="translate(-21.002 -32.662)" fill="#cb7400"/>
        <path id="Trazado_136122" data-name="Trazado 136122" d="M55.265,70.589a2.767,2.767,0,0,1,1.205,1.862.845.845,0,0,0,.682.752,1.779,1.779,0,0,1,1.2,2.361c-.063.137-.188.1-.294.1q-3.429,0-6.859,0c-.27,0-.319-.073-.2-.32a1.984,1.984,0,0,1,.773-.867.61.61,0,0,0,.317-.545,3.688,3.688,0,0,1,2.722-3.344.568.568,0,0,1,.455,0" transform="translate(-30.525 -42.27)" fill="#6dc72a"/>
        <path id="Trazado_136123" data-name="Trazado 136123" d="M52.369,69.741a3.6,3.6,0,0,0-3.084,3.495.383.383,0,0,1-.237.393,2.158,2.158,0,0,0-.873.9c-.082.145-.108.26.144.26q3.425-.01,6.849,0a.516.516,0,0,0,.289-.067c-.016.178-.155.129-.256.129q-4.418,0-8.835,0c-.19,0-.25-.062-.258-.247a1.594,1.594,0,0,1,.8-1.559,1.028,1.028,0,0,0,.569-.992,3.092,3.092,0,0,1,4.713-2.454,1.9,1.9,0,0,1,.18.147" transform="translate(-27.629 -41.422)" fill="#5eab24"/>
        <path id="Trazado_136124" data-name="Trazado 136124" d="M46.661,46.632a.522.522,0,0,1-.5-.407.454.454,0,0,1,.254-.534c.227-.119.471-.206.7-.323a2.954,2.954,0,0,0,1.521-1.9c.028-.1.048-.2.084-.289a.52.52,0,0,1,.6-.37.544.544,0,0,1,.383.656,4.065,4.065,0,0,1-.778,1.69,3.989,3.989,0,0,1-2.054,1.422l-.2.057" transform="translate(-27.65 -25.643)" fill="#47821c"/>
        <path id="Trazado_136125" data-name="Trazado 136125" d="M7.858,77.818a3.261,3.261,0,0,1,1.011-2.724,3.1,3.1,0,0,1,2.024-.919,2.2,2.2,0,0,1,.849,1.056.836.836,0,0,0,.948.635,1.665,1.665,0,0,1,1.7,1.706c0,.176-.045.264-.245.262Q11,77.82,7.858,77.818" transform="translate(-4.7 -44.449)" fill="#6dc72a"/>
        <path id="Trazado_136126" data-name="Trazado 136126" d="M39.671,30.47c-.474,0-.772-.34-.61-.735.125-.3.433-.319.685-.331a3.127,3.127,0,0,0,2.851-2.55,5,5,0,0,1,.06-.6.525.525,0,0,1,.638-.425.556.556,0,0,1,.38.6,4.2,4.2,0,0,1-4,4.04" transform="translate(-23.381 -15.472)" fill="#5eab24"/>
        <path id="Trazado_136127" data-name="Trazado 136127" d="M22.018,29.367a1.278,1.278,0,1,1-1.268-1.319,1.264,1.264,0,0,1,1.268,1.319" transform="translate(-11.662 -16.806)" fill="#5eab24"/>
        <path id="Trazado_136128" data-name="Trazado 136128" d="M38.3,16.944a1.277,1.277,0,1,1-2.554-.045,1.278,1.278,0,1,1,2.554.045" transform="translate(-21.419 -9.349)" fill="#5eab24"/>
        <path id="Trazado_136129" data-name="Trazado 136129" d="M30.032,26.281a.472.472,0,1,1,.508-.472.517.517,0,0,1-.508.472" transform="translate(-17.701 -15.184)" fill="#5eac24"/>
        <path id="Trazado_136130" data-name="Trazado 136130" d="M33.689,32.659a.521.521,0,0,1-.464-.517.5.5,0,1,1,.464.517" transform="translate(-19.91 -19.007)" fill="#5eac24"/>
        <path id="Trazado_136131" data-name="Trazado 136131" d="M41.46,24.669a.506.506,0,0,1,.487.493.5.5,0,1,1-.487-.493" transform="translate(-24.539 -14.783)" fill="#5eac24"/>
        <path id="Trazado_136132" data-name="Trazado 136132" d="M26.884,47.271A1.28,1.28,0,0,1,25.59,48.6a1.3,1.3,0,0,1-1.262-1.306,1.326,1.326,0,0,1,1.292-1.315c.573,0,1.387.635,1.264,1.293" transform="translate(-14.578 -27.552)" fill="#4e8f1e"/>
        <path id="Trazado_136133" data-name="Trazado 136133" d="M18.14,45.031a.521.521,0,0,1-.515-.473.55.55,0,0,1,.5-.5.587.587,0,0,1,.5.466.514.514,0,0,1-.482.507" transform="translate(-10.562 -26.401)" fill="#4e901e"/>
        <path id="Trazado_136134" data-name="Trazado 136134" d="M58.484,77.572A1.264,1.264,0,0,1,57.2,76.316a1.322,1.322,0,0,1,1.29-1.3A1.254,1.254,0,0,1,59.771,76.3a1.221,1.221,0,0,1-1.287,1.267" transform="translate(-34.278 -44.95)" fill="#5eab24"/>
        <path id="Trazado_136135" data-name="Trazado 136135" d="M66.883,78.731a.512.512,0,0,1-.507.485.5.5,0,0,1,.062-1,.527.527,0,0,1,.445.512" transform="translate(-39.516 -46.871)" fill="#5eac24"/>
        <path id="Trazado_136136" data-name="Trazado 136136" d="M18.558,80.751a.472.472,0,1,1-.462-.517.52.52,0,0,1,.462.517" transform="translate(-10.556 -48.08)" fill="#5eac24"/>
        <path id="Trazado_136137" data-name="Trazado 136137" d="M12.519,78.735a.471.471,0,1,1-.941-.034.471.471,0,1,1,.941.034" transform="translate(-6.938 -46.872)" fill="#5eac24"/>
      </g>
    </g>
  </g>
</svg>
