<svg id="Grupo_159204" data-name="Grupo 159204" xmlns="http://www.w3.org/2000/svg" xmlns:xlink="http://www.w3.org/1999/xlink" width="166.309" height="155.587" viewBox="0 0 166.309 155.587">
  <defs>
    <clipPath id="clip-path">
      <rect id="Rectángulo_37633" data-name="Rectángulo 37633" width="166.309" height="155.587" fill="none"/>
    </clipPath>
  </defs>
  <g id="Grupo_159204-2" data-name="Grupo 159204" transform="translate(0 0)" clip-path="url(#clip-path)">
    <path id="Trazado_137123" data-name="Trazado 137123" d="M166.031,127.147c-.951,12.982-11.855,25.023-25.124,27.747a32.1,32.1,0,0,1-38.26-25.011c-.3-1.414-1.1-1.117-1.935-1.117q-34.195-.011-68.39-.006c-6.09,0-12.181.012-18.271,0C5.775,128.739.01,123.021.007,114.78q-.015-50.371,0-100.742C.009,5.765,5.742.036,14,.01q4.776-.017,9.554,0c2.3.01,3.265.962,3.271,3.249.014,5.477.059,10.953-.032,16.427-.025,1.431.276,1.822,1.782,1.819q48.779-.078,97.557-.04H156.8c3.461,0,4.141.667,4.141,4.064q0,39.224-.017,78.447a5.41,5.41,0,0,0,.809,2.976,30.381,30.381,0,0,1,4.281,12.382c.032.261-.04.568.293.708v5.029c-.414.648.026,1.411-.278,2.075" transform="translate(0 0)"/>
    <path id="Trazado_137124" data-name="Trazado 137124" d="M115.107,88.767a2.617,2.617,0,0,1,.278-2.075V88.7l-.123.1Z" transform="translate(50.924 38.381)" fill="#5a5a5a"/>
    <path id="Trazado_137125" data-name="Trazado 137125" d="M66.3,101.152c-3.4,0-6.524-.033-9.649.02-.913.016-1.065-.4-1.212-1.163-1.079-5.585-2.225-11.157-3.323-16.739-.612-3.1-1.159-3.578-4.341-3.578-9.22,0-18.441-.027-27.66.033-1.258.009-1.57-.3-1.547-1.549.075-3.846.016-3.848,3.905-3.848q11.82,0,23.638,0c2.952,0,3.929-1.164,3.36-4.076q-1.446-7.388-2.963-14.763C46.1,53.5,45.3,52.877,43.269,52.874c-7.713-.01-15.424-.035-23.136.026-1.226.01-1.617-.244-1.561-1.532.115-2.621.089-5.253.009-7.876-.035-1.091.265-1.388,1.368-1.378,6.593.053,13.188.03,19.781.025,2.884,0,3.877-1.148,3.341-3.976-.757-4-1.586-7.98-2.414-12.116,3.344,0,6.577.026,9.811-.017.907-.012.909.532,1.034,1.161q2.809,14.11,5.654,28.215c.428,2.138,1.238,2.821,3.431,2.826q6.789.013,13.579,0c2.523,0,3.447-.913,3.45-3.412.007-9.053.029-18.106-.027-27.158-.007-1.271.258-1.687,1.61-1.653,3.783.1,3.784.027,3.784,3.8q0,12.407,0,24.812c0,2.748.856,3.605,3.59,3.608q7.209.006,14.417,0c2.523,0,3.447-.913,3.448-3.415.007-9.052.029-18.1-.027-27.158-.007-1.274.264-1.684,1.613-1.649,3.78.094,3.781.026,3.781,3.806,0,1.285-.017,2.571,0,3.855.038,2.14,1.026,3.1,3.253,3.1,7.322.012,14.642.038,21.961-.027,1.294-.012,1.672.294,1.64,1.622-.091,3.773-.026,3.774-3.813,3.774q-9.808,0-19.615,0c-2.518,0-3.421.909-3.428,3.428q-.013,4.694,0,9.388c.012,2.3.964,3.268,3.25,3.271,7.375.013,14.752.033,22.129-.023,1.157-.009,1.516.247,1.472,1.447-.1,2.679-.084,5.366,0,8.046.03,1.034-.245,1.3-1.287,1.291-7.319-.05-14.641-.029-21.961-.026-2.748,0-3.6.851-3.6,3.594,0,3.408-.035,6.817.022,10.225a1.876,1.876,0,0,1-1.01,1.876c-1.449.9-2.8,1.958-4.377,3.08v-14.8c0-3.229-.73-3.973-3.9-3.973H71.208c-2.458,0-4.918-.009-7.377,0-2.707.014-3.732,1.307-3.19,3.98q.948,4.672,1.889,9.346c.413,2.046,1.241,2.757,3.32,2.761,5.253.012,10.506.03,15.758-.019,1.039-.01,1.417.186,1.41,1.339-.027,4.048.025,4.048-4.04,4.048-3.577,0-7.153-.006-10.73,0-2.829.006-3.849,1.242-3.307,4.031.424,2.186.887,4.366,1.363,6.7" transform="translate(8.22 11.514)" fill="#e8edf1"/>
    <path id="Trazado_137126" data-name="Trazado 137126" d="M101.3,66.941A26.821,26.821,0,1,1,74.375,93.859,26.854,26.854,0,0,1,101.3,66.941" transform="translate(32.928 29.637)" fill="#ea423f"/>
    <path id="Trazado_137127" data-name="Trazado 137127" d="M3.721,102.99v-1.93q0-44.163,0-88.324c0-5.8,3.213-9,9.026-9.007,2.011,0,4.024.032,6.033-.016.8-.017,1.141.229,1.039,1.039a6.744,6.744,0,0,0-.006.837q0,46.426.038,92.851c0,1.548-.407,2.067-1.916,1.874-.88-.113-1.786.006-2.679-.025-3.993-.14-7.932-.03-11.536,2.7" transform="translate(1.647 1.644)" fill="#3396e7"/>
    <path id="Trazado_137128" data-name="Trazado 137128" d="M147.362,90.983c-1.775-1.229-3.363-2.326-4.947-3.428-.7-.488-.4-1.229-.405-1.857q-.022-28.824-.013-57.647c0-3.411-.674-4.076-4.128-4.076q-58.651,0-117.3.039c-1.63,0-2.06-.4-2-2.01.133-3.39.038-3.395,3.418-3.395q61.668,0,123.336-.042c1.7,0,2.085.418,2.08,2.095q-.091,34.268-.04,68.538Z" transform="translate(8.218 8.221)" fill="#2978b7"/>
    <path id="Trazado_137129" data-name="Trazado 137129" d="M55.111,90.251q-21.541,0-43.084-.009A8.024,8.024,0,0,1,4.366,79.1a8.217,8.217,0,0,1,3.5-3.93c.922-.554,1.3-.381,1.222.729a8.183,8.183,0,0,0,1.287,5.272A8.321,8.321,0,0,0,17.805,84.9q40.235-.039,80.468-.014c2.443,0,2.473,0,2.112,2.363-.149.972.391,2.344-.417,2.825-.792.472-2.057.173-3.115.173q-20.871.006-41.743,0" transform="translate(1.647 33.144)" fill="#2978b7"/>
    <path id="Trazado_137130" data-name="Trazado 137130" d="M33.266,83.037q-9.295,0-18.591,0A3.518,3.518,0,0,1,11.239,78.1c.229-.665.714-.413,1.094-.417,2.177-.027,4.356.006,6.533-.02,2.078-.025,3.067-1.011,3.093-3.086.027-2.177.046-4.356-.012-6.531-.023-.873.235-1.127,1.117-1.124q13.065.045,26.128,0c.892,0,1.215.244,1.386,1.148Q51.9,75.051,53.4,82c.278,1.293-.518,1.037-1.2,1.037q-9.461,0-18.926,0" transform="translate(4.862 29.629)" fill="#6ed1ef"/>
    <path id="Trazado_137131" data-name="Trazado 137131" d="M68.1,59.508c4.97,0,9.94.035,14.909-.026,1.1-.014,1.386.293,1.376,1.382-.055,5.752-.038,11.5-.012,17.255a3.78,3.78,0,0,1-.632,2.187,20.682,20.682,0,0,0-2.385,4.773c-.34,1.037-.89,1.287-1.935,1.278q-10.47-.076-20.941,0c-1.073.007-1.633-.192-1.707-1.392-.079-1.306-1.164-2.92-.444-3.771.55-.651,2.411-.215,3.689-.219,3.406-.013,6.813,0,10.219-.007,2.431-.009,3.377-.928,3.389-3.305q.022-4.774,0-9.548c-.013-2.278-.978-3.229-3.287-3.235-5.416-.013-10.833-.033-16.249.022-1.047.01-1.512-.27-1.61-1.336a15.763,15.763,0,0,0-.571-2.782c-.3-1.063.055-1.309,1.115-1.3,5.025.055,10.05.025,15.077.025" transform="translate(22.937 26.334)" fill="#6ed1ef"/>
    <path id="Trazado_137132" data-name="Trazado 137132" d="M60.5,39.425c0,4.077-.026,8.154.02,12.231.009.913-.2,1.257-1.183,1.232-2.623-.068-5.25-.052-7.874-.006-.812.014-1.177-.215-1.343-1.053Q47.686,39.44,45.166,27.068c-.17-.84.049-1.049.88-1.042,4.467.033,8.935.043,13.4-.007.955-.01,1.073.369,1.066,1.174-.032,4.077-.014,8.154-.014,12.231" transform="translate(19.973 11.519)" fill="#6ed1ef"/>
    <path id="Trazado_137133" data-name="Trazado 137133" d="M66.943,39.277c0-3.962.042-7.925-.027-11.887-.019-1.1.3-1.4,1.385-1.373,2.733.078,5.469.068,8.2,0,.972-.023,1.193.3,1.189,1.222q-.05,12.221,0,24.443c0,.952-.27,1.221-1.21,1.2q-4.183-.089-8.369,0c-.972.022-1.2-.3-1.19-1.223.046-4.129.02-8.26.02-12.389" transform="translate(29.625 11.517)" fill="#6ed1ef"/>
    <path id="Trazado_137134" data-name="Trazado 137134" d="M43.775,59.083h-2.59c-7.032,0-14.064-.023-21.094.025-1.1.007-1.567-.159-1.518-1.412.105-2.675.072-5.357.012-8.033-.022-.968.15-1.346,1.251-1.337,6.863.058,13.728.042,20.591.013.847,0,1.252.144,1.421,1.1.561,3.177,1.255,6.331,1.927,9.642" transform="translate(8.221 21.395)" fill="#6ed1ef"/>
    <path id="Trazado_137135" data-name="Trazado 137135" d="M37.306,36.765c-6.035,0-11.944-.007-17.854.01-.643,0-.871-.2-.866-.854q.041-4.521,0-9.04c-.006-.658.224-.857.867-.854q7.449.028,14.9,0c.6,0,.889.185,1.007.814.616,3.269,1.275,6.528,1.946,9.923" transform="translate(8.229 11.523)" fill="#6ed1ef"/>
    <path id="Trazado_137136" data-name="Trazado 137136" d="M106.988,66.531c-8.423-1.953-10.2-2.588-21.458-.007,0-2.079.022-4.132-.012-6.184-.01-.667.241-.847.874-.845q9.875.024,19.748,0c.652,0,.869.215.858.863-.032,2.047-.012,4.1-.012,6.175" transform="translate(37.862 26.339)" fill="#6ed1ef"/>
    <path id="Trazado_137137" data-name="Trazado 137137" d="M96.438,26.041c3.124,0,6.247.035,9.369-.022.944-.016,1.2.258,1.212,1.2.065,4.184.1,4.182-4.067,4.182-5.354,0-10.708-.03-16.062.026-1.089.012-1.386-.278-1.384-1.375.016-4.015-.027-4.015,3.9-4.015h7.028" transform="translate(37.856 11.519)" fill="#6ed1ef"/>
    <path id="Trazado_137138" data-name="Trazado 137138" d="M96.256,40.914c3.18,0,6.36.032,9.536-.02.923-.014,1.212.222,1.228,1.187.068,4.2.1,4.2-4.054,4.2-5.354,0-10.709-.027-16.063.025-1.063.01-1.4-.237-1.4-1.359.016-4.03-.03-4.03,4.058-4.03h6.693" transform="translate(37.856 18.105)" fill="#6ed1ef"/>
    <path id="Trazado_137139" data-name="Trazado 137139" d="M95.217,81.978c0-1.564-.029-3.129.009-4.693a2.682,2.682,0,1,1,5.344.025c.038,2.96.092,5.925-.025,8.883-.055,1.386.433,1.655,1.689,1.617,2.847-.087,5.7-.04,8.547-.023,2,.013,3.18,1.013,3.2,2.647s-1.171,2.692-3.138,2.707c-3.018.022-6.036.04-9.052-.014-.944-.016-1.248.251-1.231,1.215.058,3.017.036,6.035.016,9.052-.014,1.975-1.056,3.164-2.694,3.154s-2.647-1.2-2.66-3.184c-.019-2.849-.1-5.7.032-8.547.066-1.463-.434-1.751-1.78-1.7-2.789.105-5.586.043-8.379.029-2.091-.012-3.314-1.049-3.276-2.738.035-1.629,1.216-2.608,3.223-2.619,2.96-.016,5.924-.048,8.883.019,1.024.023,1.379-.25,1.316-1.3-.089-1.5-.023-3.015-.022-4.524" transform="translate(36.223 32.931)"/>
  </g>
</svg>
