<svg xmlns="http://www.w3.org/2000/svg" xmlns:xlink="http://www.w3.org/1999/xlink" width="339" height="97.531" viewBox="0 0 339 97.531">
  <defs>
    <clipPath id="clip-path">
      <rect id="Rectángulo_37602" data-name="Rectángulo 37602" width="47.838" height="47.775" fill="none"/>
    </clipPath>
    <clipPath id="clip-path-2">
      <rect id="Rectángulo_37607" data-name="Rectángulo 37607" width="44.992" height="45.532" fill="none"/>
    </clipPath>
  </defs>
  <g id="Grupo_161676" data-name="Grupo 161676" transform="translate(7367 7263.531)">
    <path id="Trazado_142351" data-name="Trazado 142351" d="M11,0H155a11,11,0,0,1,11,11V63a11,11,0,0,1-11,11H11A11,11,0,0,1,0,63V11A11,11,0,0,1,11,0Z" transform="translate(-7360 -7245)" fill="#c4d1ff"/>
    <path id="Trazado_142352" data-name="Trazado 142352" d="M11,0H155a11,11,0,0,1,11,11V63a11,11,0,0,1-11,11H11A11,11,0,0,1,0,63V11A11,11,0,0,1,11,0Z" transform="translate(-7194 -7245)" fill="#ffbfc1"/>
    <path id="Trazado_142353" data-name="Trazado 142353" d="M5.039,12.836H3.18L2.453,17H.164L2.141,5.625l3.766.008a4.289,4.289,0,0,1,2.91.891A2.817,2.817,0,0,1,9.719,9a3.574,3.574,0,0,1-2.5,3.258l1.6,4.617V17H6.383Zm-1.531-1.9,1.7.016a2.386,2.386,0,0,0,1.5-.488A1.933,1.933,0,0,0,7.414,9.18a1.473,1.473,0,0,0-.242-1.187,1.442,1.442,0,0,0-1.117-.461L4.1,7.523Zm10.516,6.219a3.677,3.677,0,0,1-1.965-.543,3.292,3.292,0,0,1-1.277-1.469,4.093,4.093,0,0,1-.328-2.059l.023-.312a5.465,5.465,0,0,1,.719-2.266,4.341,4.341,0,0,1,1.547-1.59,3.827,3.827,0,0,1,2.094-.527,2.924,2.924,0,0,1,2.473,1.2,4.117,4.117,0,0,1,.637,2.962l-.125.962h-5.18a1.814,1.814,0,0,0,.4,1.313,1.521,1.521,0,0,0,1.172.508A2.7,2.7,0,0,0,16.32,14.4l1.008,1.25a3.135,3.135,0,0,1-1.375,1.121A4.5,4.5,0,0,1,14.023,17.156Zm.7-6.945a1.565,1.565,0,0,0-1.082.383,3.363,3.363,0,0,0-.848,1.383h3.031l.047-.2a2.071,2.071,0,0,0,.008-.594,1.134,1.134,0,0,0-.383-.707A1.2,1.2,0,0,0,14.727,10.211Zm8.648,4.406q.125-.625-.867-.906l-.711-.18q-2.523-.7-2.453-2.453A2.428,2.428,0,0,1,20.4,9.129a3.942,3.942,0,0,1,2.457-.738,3.536,3.536,0,0,1,2.313.758,2.5,2.5,0,0,1,.9,1.977l-2.187-.008a.963.963,0,0,0-1.078-1.1,1.552,1.552,0,0,0-.895.258,1.061,1.061,0,0,0-.465.7q-.117.625.945.883l.313.07a6.285,6.285,0,0,1,1.648.59,2.488,2.488,0,0,1,.879.824,2.04,2.04,0,0,1,.285,1.18A2.251,2.251,0,0,1,25,15.922a3.18,3.18,0,0,1-1.359.93,4.736,4.736,0,0,1-1.816.3,3.568,3.568,0,0,1-2.344-.809,2.607,2.607,0,0,1-.953-2.051l2.078.016a1.142,1.142,0,0,0,1.3,1.227,1.845,1.845,0,0,0,1-.25A.987.987,0,0,0,23.375,14.617ZM31,6.469l-.367,2.078h1.406L31.75,10.2H30.344l-.719,4.234a1.077,1.077,0,0,0,.063.609q.109.211.531.227.125.008.672-.039l-.156,1.727a3.706,3.706,0,0,1-1.266.18,1.985,1.985,0,0,1-1.617-.68,2.456,2.456,0,0,1-.437-1.8l.727-4.461h-1.2l.289-1.656h1.2l.359-2.078ZM36.742,17a2.281,2.281,0,0,1-.086-.766,2.863,2.863,0,0,1-2.156.922,2.594,2.594,0,0,1-1.84-.723,2.186,2.186,0,0,1-.684-1.746,2.527,2.527,0,0,1,1.16-2.121,5.266,5.266,0,0,1,2.965-.738l1.031.016.109-.508a1.764,1.764,0,0,0,.023-.492.846.846,0,0,0-.277-.574.955.955,0,0,0-.629-.215,1.345,1.345,0,0,0-.875.254,1.231,1.231,0,0,0-.461.777l-2.211.008a2.457,2.457,0,0,1,1.113-1.965,4.312,4.312,0,0,1,2.613-.738,3.117,3.117,0,0,1,2.25.855,2.5,2.5,0,0,1,.68,2.121l-.648,4.047-.039.5a2.412,2.412,0,0,0,.133.938L38.906,17Zm-1.7-1.555a2.017,2.017,0,0,0,1.664-.828l.273-1.461-.766-.008a2.139,2.139,0,0,0-1.758.742,1.292,1.292,0,0,0-.242.633.75.75,0,0,0,.176.668A.891.891,0,0,0,35.047,15.445Zm10.438.68a2.919,2.919,0,0,1-2.328,1.031,2.172,2.172,0,0,1-1.844-.875,3.2,3.2,0,0,1-.484-2.266l.914-5.469h2.2l-.93,5.5a2.175,2.175,0,0,0-.008.485.8.8,0,0,0,.867.806,2.014,2.014,0,0,0,1.7-.79l1.055-6h2.219L47.375,17H45.32Zm9.32-5.461a4.548,4.548,0,0,0-.742-.078,2.136,2.136,0,0,0-1.867.883L51.219,17h-2.2l1.469-8.453,2.07-.008-.2,1.031a2.325,2.325,0,0,1,1.969-1.2,3.214,3.214,0,0,1,.766.109ZM59.414,17a2.281,2.281,0,0,1-.086-.766,2.863,2.863,0,0,1-2.156.922,2.594,2.594,0,0,1-1.84-.723,2.186,2.186,0,0,1-.684-1.746,2.527,2.527,0,0,1,1.16-2.121,5.266,5.266,0,0,1,2.965-.738l1.031.016.109-.508a1.764,1.764,0,0,0,.023-.492.846.846,0,0,0-.277-.574.955.955,0,0,0-.629-.215,1.345,1.345,0,0,0-.875.254,1.231,1.231,0,0,0-.461.777l-2.211.008A2.457,2.457,0,0,1,56.6,9.129a4.312,4.312,0,0,1,2.613-.738,3.117,3.117,0,0,1,2.25.855,2.5,2.5,0,0,1,.68,2.121l-.648,4.047-.039.5a2.412,2.412,0,0,0,.133.938L61.578,17Zm-1.7-1.555a2.017,2.017,0,0,0,1.664-.828l.273-1.461-.766-.008a2.139,2.139,0,0,0-1.758.742,1.292,1.292,0,0,0-.242.633.75.75,0,0,0,.176.668A.891.891,0,0,0,57.719,15.445Zm8.688-6.906-.187,1A3.042,3.042,0,0,1,68.68,8.391a2.028,2.028,0,0,1,1.766.875,3.526,3.526,0,0,1,.414,2.359L69.969,17h-2.2l.906-5.4a2.528,2.528,0,0,0,.016-.555.9.9,0,0,0-1-.82,1.9,1.9,0,0,0-1.555.8L65.078,17h-2.2l1.469-8.453Zm9.758-2.07L75.8,8.547H77.2L76.914,10.2H75.508l-.719,4.234a1.077,1.077,0,0,0,.063.609q.109.211.531.227.125.008.672-.039L75.9,16.961a3.706,3.706,0,0,1-1.266.18,1.985,1.985,0,0,1-1.617-.68,2.456,2.456,0,0,1-.437-1.8L73.3,10.2h-1.2L72.4,8.547h1.2l.359-2.078Z" transform="translate(-7351 -7198)" fill="#12263f"/>
    <path id="Trazado_142354" data-name="Trazado 142354" d="M9.438,13.2a4.254,4.254,0,0,1-.8,2.09,4.375,4.375,0,0,1-1.75,1.4,5.329,5.329,0,0,1-2.328.465,3.936,3.936,0,0,1-1.961-.52A3.443,3.443,0,0,1,1.277,15.2a5.312,5.312,0,0,1-.543-2.168,10.634,10.634,0,0,1,.2-2.391A7.578,7.578,0,0,1,1.84,8.1,5.666,5.666,0,0,1,3.391,6.344a4.679,4.679,0,0,1,2.891-.875,3.839,3.839,0,0,1,2.8,1.09A4.384,4.384,0,0,1,10.219,9.5L7.938,9.492a2.391,2.391,0,0,0-.43-1.578,1.752,1.752,0,0,0-1.336-.531,2.319,2.319,0,0,0-1.926.836,5.027,5.027,0,0,0-1.012,2.555,14.155,14.155,0,0,0-.219,2.445,2.434,2.434,0,0,0,.461,1.52,1.543,1.543,0,0,0,1.18.512,2.356,2.356,0,0,0,1.676-.5,2.625,2.625,0,0,0,.832-1.535ZM15.148,17a2.281,2.281,0,0,1-.086-.766,2.863,2.863,0,0,1-2.156.922,2.594,2.594,0,0,1-1.84-.723,2.186,2.186,0,0,1-.684-1.746,2.527,2.527,0,0,1,1.16-2.121,5.266,5.266,0,0,1,2.965-.738l1.031.016.109-.508a1.764,1.764,0,0,0,.023-.492.846.846,0,0,0-.277-.574.955.955,0,0,0-.629-.215,1.345,1.345,0,0,0-.875.254,1.231,1.231,0,0,0-.461.777l-2.211.008a2.457,2.457,0,0,1,1.113-1.965,4.312,4.312,0,0,1,2.613-.738,3.117,3.117,0,0,1,2.25.855,2.5,2.5,0,0,1,.68,2.121l-.648,4.047-.039.5a2.412,2.412,0,0,0,.133.938L17.313,17Zm-1.7-1.555a2.017,2.017,0,0,0,1.664-.828l.273-1.461-.766-.008a2.139,2.139,0,0,0-1.758.742,1.292,1.292,0,0,0-.242.633.75.75,0,0,0,.176.668A.891.891,0,0,0,13.453,15.445Zm8.688-6.906-.187,1a3.042,3.042,0,0,1,2.461-1.148,2.028,2.028,0,0,1,1.766.875,3.526,3.526,0,0,1,.414,2.359L25.7,17H23.5l.906-5.4a2.528,2.528,0,0,0,.016-.555.9.9,0,0,0-1-.82,1.9,1.9,0,0,0-1.555.8L20.813,17h-2.2l1.469-8.453Zm9.484-.156a2.4,2.4,0,0,1,1.906.945L34.359,5H36.57L34.492,17H32.523l.125-.906a2.736,2.736,0,0,1-2.2,1.07,2.433,2.433,0,0,1-1.383-.414,2.607,2.607,0,0,1-.918-1.168,4.7,4.7,0,0,1-.355-1.7,6.4,6.4,0,0,1,.023-.953l.047-.352a6.767,6.767,0,0,1,.723-2.281,3.766,3.766,0,0,1,1.313-1.461A3.094,3.094,0,0,1,31.625,8.383Zm-1.6,4.547a6.327,6.327,0,0,0-.039,1q.078,1.375,1.109,1.4a1.885,1.885,0,0,0,1.617-.875l.6-3.359a1.248,1.248,0,0,0-1.219-.875,1.606,1.606,0,0,0-1.34.621A4.176,4.176,0,0,0,30.023,12.93Zm9.813.852L42.25,8.547H44.7l-4.945,9.727a4.231,4.231,0,0,1-1.246,1.641,2.723,2.723,0,0,1-1.652.523,5.035,5.035,0,0,1-1.062-.164l.164-1.719.3.016a1.651,1.651,0,0,0,1.578-.789l.484-.9L36.945,8.547h2.281Zm13.125.836q.125-.625-.867-.906l-.711-.18q-2.523-.7-2.453-2.453a2.428,2.428,0,0,1,1.059-1.949,3.942,3.942,0,0,1,2.457-.738,3.536,3.536,0,0,1,2.313.758,2.5,2.5,0,0,1,.9,1.977l-2.187-.008a.963.963,0,0,0-1.078-1.1,1.552,1.552,0,0,0-.895.258,1.061,1.061,0,0,0-.465.7q-.117.625.945.883l.313.07a6.285,6.285,0,0,1,1.648.59,2.488,2.488,0,0,1,.879.824,2.04,2.04,0,0,1,.285,1.18,2.251,2.251,0,0,1-.52,1.406,3.18,3.18,0,0,1-1.359.93,4.736,4.736,0,0,1-1.816.3,3.568,3.568,0,0,1-2.344-.809,2.607,2.607,0,0,1-.953-2.051l2.078.016a1.142,1.142,0,0,0,1.3,1.227,1.845,1.845,0,0,0,1-.25A.987.987,0,0,0,52.961,14.617Zm7.625-8.148-.367,2.078h1.406L61.336,10.2H59.93l-.719,4.234a1.077,1.077,0,0,0,.063.609q.109.211.531.227.125.008.672-.039l-.156,1.727a3.706,3.706,0,0,1-1.266.18,1.985,1.985,0,0,1-1.617-.68,2.456,2.456,0,0,1-.437-1.8l.727-4.461h-1.2l.289-1.656h1.2l.359-2.078Zm5.453,1.922a3.39,3.39,0,0,1,1.926.574A3.234,3.234,0,0,1,69.152,10.5a4.762,4.762,0,0,1,.27,2.176,5.143,5.143,0,0,1-1.4,3.262A3.96,3.96,0,0,1,65,17.156a3.38,3.38,0,0,1-1.906-.566,3.222,3.222,0,0,1-1.187-1.527,4.657,4.657,0,0,1-.273-2.156,5.3,5.3,0,0,1,1.422-3.328A3.878,3.878,0,0,1,66.039,8.391Zm-2.227,5.315a1.95,1.95,0,0,0,.352,1.182,1.168,1.168,0,0,0,.945.449A1.712,1.712,0,0,0,66.7,14.4a4.647,4.647,0,0,0,.539-2.531,2.122,2.122,0,0,0-.363-1.2,1.149,1.149,0,0,0-.949-.464,1.715,1.715,0,0,0-1.574.924A4.6,4.6,0,0,0,63.813,13.706Zm12.031-3.042a4.548,4.548,0,0,0-.742-.078,2.136,2.136,0,0,0-1.867.883L72.258,17h-2.2l1.469-8.453,2.07-.008-.2,1.031a2.325,2.325,0,0,1,1.969-1.2,3.214,3.214,0,0,1,.766.109Zm3.969,6.492a3.677,3.677,0,0,1-1.965-.543,3.292,3.292,0,0,1-1.277-1.469,4.093,4.093,0,0,1-.328-2.059l.023-.312a5.465,5.465,0,0,1,.719-2.266,4.341,4.341,0,0,1,1.547-1.59,3.827,3.827,0,0,1,2.094-.527,2.924,2.924,0,0,1,2.473,1.2,4.117,4.117,0,0,1,.637,2.962l-.125.962H78.43a1.814,1.814,0,0,0,.4,1.313A1.521,1.521,0,0,0,80,15.336a2.7,2.7,0,0,0,2.109-.937l1.008,1.25a3.135,3.135,0,0,1-1.375,1.121A4.5,4.5,0,0,1,79.813,17.156Zm.7-6.945a1.565,1.565,0,0,0-1.082.383,3.363,3.363,0,0,0-.848,1.383h3.031l.047-.2a2.071,2.071,0,0,0,.008-.594,1.134,1.134,0,0,0-.383-.707A1.2,1.2,0,0,0,80.516,10.211Z" transform="translate(-7181 -7198)" fill="#12263f"/>
    <path id="Trazado_142355" data-name="Trazado 142355" d="M3.508,8.539l-.187,1A3.042,3.042,0,0,1,5.781,8.391a2.028,2.028,0,0,1,1.766.875,3.526,3.526,0,0,1,.414,2.359L7.07,17h-2.2l.906-5.4a2.528,2.528,0,0,0,.016-.555.9.9,0,0,0-1-.82,1.9,1.9,0,0,0-1.555.8L2.18,17h-2.2L1.445,8.547Zm9.3,8.617a3.677,3.677,0,0,1-1.965-.543A3.292,3.292,0,0,1,9.57,15.145a4.093,4.093,0,0,1-.328-2.059l.023-.312a5.465,5.465,0,0,1,.719-2.266,4.341,4.341,0,0,1,1.547-1.59,3.827,3.827,0,0,1,2.094-.527,2.924,2.924,0,0,1,2.473,1.2,4.117,4.117,0,0,1,.637,2.962l-.125.962H11.43a1.814,1.814,0,0,0,.4,1.313A1.521,1.521,0,0,0,13,15.336a2.7,2.7,0,0,0,2.109-.937l1.008,1.25a3.135,3.135,0,0,1-1.375,1.121A4.5,4.5,0,0,1,12.813,17.156Zm.7-6.945a1.565,1.565,0,0,0-1.082.383,3.363,3.363,0,0,0-.848,1.383h3.031l.047-.2a2.071,2.071,0,0,0,.008-.594,1.134,1.134,0,0,0-.383-.707A1.2,1.2,0,0,0,13.516,10.211Zm7.82.844,1.773-2.508h2.477L22.523,12.8,24.234,17H22l-1.039-2.641L19.094,17H16.6l3.188-4.422L18.156,8.547h2.234Zm8.375-4.586-.367,2.078H30.75L30.461,10.2H29.055l-.719,4.234a1.077,1.077,0,0,0,.063.609q.109.211.531.227.125.008.672-.039l-.156,1.727a3.706,3.706,0,0,1-1.266.18,1.985,1.985,0,0,1-1.617-.68,2.456,2.456,0,0,1-.437-1.8l.727-4.461h-1.2l.289-1.656h1.2L27.5,6.469Zm9.266,0-.367,2.078h1.406L39.727,10.2H38.32L37.6,14.438a1.077,1.077,0,0,0,.063.609q.109.211.531.227.125.008.672-.039l-.156,1.727a3.706,3.706,0,0,1-1.266.18,1.985,1.985,0,0,1-1.617-.68,2.456,2.456,0,0,1-.437-1.8l.727-4.461h-1.2l.289-1.656h1.2l.359-2.078ZM44.43,8.391a3.39,3.39,0,0,1,1.926.574A3.234,3.234,0,0,1,47.543,10.5a4.762,4.762,0,0,1,.27,2.176,5.143,5.143,0,0,1-1.4,3.262,3.96,3.96,0,0,1-3.02,1.215,3.38,3.38,0,0,1-1.906-.566A3.222,3.222,0,0,1,40.3,15.063a4.657,4.657,0,0,1-.273-2.156,5.3,5.3,0,0,1,1.422-3.328A3.878,3.878,0,0,1,44.43,8.391ZM42.2,13.706a1.95,1.95,0,0,0,.352,1.182,1.168,1.168,0,0,0,.945.449,1.712,1.712,0,0,0,1.594-.932,4.647,4.647,0,0,0,.539-2.531,2.122,2.122,0,0,0-.363-1.2,1.149,1.149,0,0,0-.949-.464,1.715,1.715,0,0,0-1.574.924A4.6,4.6,0,0,0,42.2,13.706Z" transform="translate(-7163 -7270)" fill="#ffd947"/>
    <g id="Grupo_158993" data-name="Grupo 158993" transform="translate(-7367 -7251)">
      <g id="Rectángulo_37565" data-name="Rectángulo 37565" transform="translate(0)" fill="none" stroke="#ffd947" stroke-width="2">
        <rect width="174" height="85" rx="15" stroke="none"/>
        <rect x="1" y="1" width="172" height="83" rx="14" fill="none"/>
      </g>
    </g>
    <path id="Trazado_136070" data-name="Trazado 136070" d="M-7268.949-7593.1v-81.064h25.439" transform="translate(74.949 414.104)" fill="none" stroke="#ffd947" stroke-linecap="round" stroke-width="2"/>
    <g id="Grupo_159088" data-name="Grupo 159088" transform="translate(-7257.081 -7230.385)">
      <g id="Grupo_159072" data-name="Grupo 159072" clip-path="url(#clip-path)">
        <path id="Trazado_136243" data-name="Trazado 136243" d="M84.5,54.972c.192,0,.306.045.295.29-.023.5.007,1-.013,1.494-.01.254.081.3.316.306,1.05.021,1.05.029,1.05-1.03,0-1.04,0-1.04,1.036-1.04.934,0,1.868.011,2.8-.006.3-.005.417.062.4.383-.028.466,0,.934-.011,1.4-.007.219.055.295.284.292,1.214-.011,2.429-.013,3.643,0,.263,0,.3-.1.3-.326-.011-.794.014-1.588-.013-2.381-.012-.342.1-.406.42-.4,1.136.019,2.273.022,3.409,0,.34-.007.4.1.4.419-.012,2.662-.007,5.324-.007,7.986,0,.619,0,.617.607.623.139,0,.277.02.416.031v.654c-.148.9-.115,1.82-.222,2.728-.289,2.453-.544,4.91-.812,7.365q-.488,4.471-.972,8.942c-.027.241.011.514-.291.629q-8.173.009-16.345,0c-.339-.08-.254-.36-.279-.589-.229-1.633-.373-3.277-.555-4.915Q79.8,72.815,79.26,67.8c-.154-1.423-.313-2.846-.463-4.269-.053-.5.068-.652.587-.66,1.1-.016,1.053.132,1.053-1.126q0-3.036,0-6.071c0-.758.084-.839.823-.843q1.308-.007,2.616,0a.852.852,0,0,1,.622.139" transform="translate(-51.993 -35.604)"/>
        <path id="Trazado_136244" data-name="Trazado 136244" d="M85.678,140.305a.063.063,0,0,1-.009-.085l16.455-.007c0,.031,0,.062,0,.092Z" transform="translate(-56.527 -92.53)" fill="#777"/>
        <path id="Trazado_136245" data-name="Trazado 136245" d="M32.32,139.928a.394.394,0,0,1-.013.077H18.1a.418.418,0,0,0-.012-.079.718.718,0,0,1,.608-.164q6.506-.008,13.012,0c.213,0,.442-.024.607.166" transform="translate(-11.94 -92.23)" fill="#777"/>
        <path id="Trazado_136246" data-name="Trazado 136246" d="M20.38,47.7c-1.4-.005-2.8-.014-4.2-.016q-4.947-.006-9.893-.006a.912.912,0,0,0-.137.02,4.55,4.55,0,0,1-4.226-3.583.776.776,0,0,0-.476-.6A2.537,2.537,0,0,1,.583,39.6c.167-.207.191-.313.012-.534a2.531,2.531,0,0,1,.883-3.933c.212-.1.351-.2.375-.463a8.185,8.185,0,0,1,8.23-7.3c.915.009.922-.01.858-.945-.183-2.7-.377-5.4-.551-8.1-.018-.287-.1-.365-.38-.354-.589.023-1.18.007-1.817.007.433-1.385.881-2.722,1.258-4.078a.7.7,0,0,1,.855-.618c.959.046.962.014,1.261-.919.2-.635.418-1.267.6-1.908a.415.415,0,0,1,.486-.351c2.195.013,4.39,0,6.585.017.4,0,.48-.108.477-.489-.018-2.412,0-4.825-.019-7.238,0-.438.087-.625.558-.733C22.449,1.165,24.629.6,26.817.075a2.14,2.14,0,0,1,2.52,1.1,2.213,2.213,0,0,1-.58,2.663,2.641,2.641,0,0,1-1.1.475c-1.119.262-2.237.528-3.361.764-.31.065-.383.2-.38.494.015,1.354.021,2.709,0,4.063-.007.374.066.5.472.491,2.179-.023,4.358,0,6.538-.02a.47.47,0,0,1,.55.4c.241.818.52,1.625.771,2.44.076.246.17.382.471.368.416-.02.945-.177,1.223.063s.295.757.42,1.156c.357,1.137.71,2.275,1.082,3.472H32.6a1.405,1.405,0,0,1-.862.12q-9.284.006-18.567,0h-.14c-1.032,0-1.032,0-1.026,1.02.128,1.65.226,3.3.349,4.954.049.663.123,1.326.12,1.992,0,1.194,0,1.194,1.157,1.194,1.074,0,2.148-.019,3.221,0a7.879,7.879,0,0,1,5.387,2.229A8.169,8.169,0,0,1,24.8,34.468a.879.879,0,0,0,.479.641,2.7,2.7,0,0,1,1.378,2.574,2.406,2.406,0,0,1-.484,1.292.5.5,0,0,0-.019.664,2.648,2.648,0,0,1-.873,3.9,1.306,1.306,0,0,0-.6.826,3.924,3.924,0,0,1-2.194,2.735,5.1,5.1,0,0,1-2.111.593" transform="translate(0 0)"/>
        <path id="Trazado_136247" data-name="Trazado 136247" d="M45.3,81.891a5.145,5.145,0,0,0,1.962-2.365A3.133,3.133,0,0,1,48.384,78a2.535,2.535,0,0,0,.381-3.617c-.177-.218-.166-.327,0-.538a2.526,2.526,0,0,0-.868-3.9.668.668,0,0,1-.41-.594,8.154,8.154,0,0,0-7.222-7.132c-1.439-.155-2.894-.042-4.342-.054-.67-.006-.672,0-.74-.672-.017-.169-.017-.341-.025-.511a.472.472,0,0,1,.385-.133,48.73,48.73,0,0,1,4.9.077,9.461,9.461,0,0,1,8.159,7.189c.181.718.181.718.509.973-.054-.77-.137-1.508-.223-2.243-.206-1.778-.382-3.559-.583-5.337-.058-.512.058-.64.578-.662.187-.008.374,0,.56,0,.549-.008.591-.043.593-.581.006-1,0-1.993,0-2.989,0-.841,0-1.681,0-2.522,0-.6-.032-.634-.631-.637-2.538-.011-5.075-.005-7.613-.01q-3.2-.006-6.4.006a.957.957,0,0,1-.714-.138c-.02-.384-.253-.873-.032-1.122s.734-.076,1.117-.077q9.56-.008,19.12,0c.17,0,.341.011.511.017a7,7,0,0,0-.089,1.369c-1.166.006-2.332.027-3.5.01-.348-.005-.443.084-.44.437.016,2.333-.009,4.666.022,7,.007.5-.15.622-.6.568-.26-.031-.529.01-.792-.01s-.306.1-.28.332q.441,3.961.871,7.924.448,4.1.894,8.2c.119,1.1.232,2.193.347,3.29l-1.192-.013a5.506,5.506,0,0,1-.285-1.727c-.094-.689-.175-1.381-.232-2.155a17.562,17.562,0,0,1-1.386,1.4c-.234.227-.263.589-.4.884a3.86,3.86,0,0,1-1.149,1.6l-1.9,0" transform="translate(-22.806 -34.786)" fill="#3fc3fe"/>
        <path id="Trazado_136248" data-name="Trazado 136248" d="M92.63,102.091c-2.18,0-4.36-.007-6.54.008-.334,0-.447-.081-.482-.424-.221-2.166-.47-4.329-.707-6.494q-.4-3.664-.8-7.328c-.1-.959-.2-1.918-.322-2.875-.04-.325.05-.423.388-.423,1.3,0,1.3-.013,1.73,1.192.478,1.347.966,2.69,1.433,4.041a.5.5,0,0,0,.554.411q4.765-.023,9.53,0a.469.469,0,0,0,.534-.369c.56-1.614,1.152-3.218,1.71-4.833.115-.333.27-.488.629-.435.407.061.969-.192,1.188.115.179.251-.015.775-.059,1.176q-.6,5.543-1.207,11.085c-.173,1.577-.374,3.151-.518,4.73-.037.4-.2.431-.523.429-2.18-.01-4.36-.005-6.54-.005" transform="translate(-55.283 -55.776)" fill="#f3511e"/>
        <path id="Trazado_136249" data-name="Trazado 136249" d="M104.595,72.127c-.008-.777-.022-1.554-.023-2.332,0-2.738.005-5.477-.009-8.215,0-.357.08-.525.459-.464.3.049.616-.084.908.074a3.189,3.189,0,0,1,.023.7q0,4.809,0,9.617c0,.74-.046.785-.785.768a.853.853,0,0,1-.575-.146" transform="translate(-69.004 -40.324)" fill="#fbd643"/>
        <path id="Trazado_136250" data-name="Trazado 136250" d="M112.9,76.179q-.008-4.381-.015-8.763a.45.45,0,0,1,.041-.131,9.423,9.423,0,0,1,.974-.036c.308-.033.358.111.356.38-.011,1.352-.005,2.7-.005,4.055,0,1.367-.015,2.735.009,4.1.007.4-.145.542-.508.534-.29-.006-.595.064-.853-.142" transform="translate(-74.494 -44.377)" fill="#fcd744"/>
        <path id="Trazado_136251" data-name="Trazado 136251" d="M96.44,72.871c-.005-1.795-.007-3.589-.019-5.384,0-.22.063-.321.288-.29.343.048.7-.1,1.034.083a1.076,1.076,0,0,1,.034.459q0,3.957,0,7.916c0,.093,0,.186,0,.279,0,.072.017.163-.079.192s-.147-.034-.2-.092a.687.687,0,0,1-.133-.243,17.119,17.119,0,0,1-.927-2.92" transform="translate(-63.631 -44.337)" fill="#fad543"/>
        <path id="Trazado_136252" data-name="Trazado 136252" d="M129.407,64.527c-.005-2.037,0-4.073-.021-6.11,0-.288.116-.32.357-.323,1.051-.015,1.053-.022,1.051,1.023q-.006,2.705-.015,5.41a1.515,1.515,0,0,1-1.372,0" transform="translate(-85.385 -38.336)" fill="#fcd744"/>
        <path id="Trazado_136253" data-name="Trazado 136253" d="M121.143,74.648c-.006-2.374-.007-4.749-.023-7.124,0-.282.108-.324.355-.329,1.057-.019,1.059-.027,1.056,1.017,0,.931-.011,1.862-.016,2.793a26.427,26.427,0,0,1-1.115,3.419c-.035.112-.1.234-.256.223" transform="translate(-79.93 -44.341)" fill="#fcd744"/>
        <path id="Trazado_136254" data-name="Trazado 136254" d="M88.173,66.526c-.006-1.693-.005-3.386-.024-5.079,0-.287.117-.32.358-.324,1.053-.017,1.055-.024,1.053,1.022q-.006,2.19-.016,4.38a1.512,1.512,0,0,1-1.371,0" transform="translate(-58.172 -40.335)" fill="#fcd744"/>
        <path id="Trazado_136255" data-name="Trazado 136255" d="M121.132,82.051a12.019,12.019,0,0,0,.663-1.728c.253-.632.474-1.275.709-1.914.005,1.07.008,2.139.019,3.208a1.548,1.548,0,0,1-.136.536q-.409,1.159-.826,2.316c-.05.138-.076.313-.3.281s-.141-.211-.141-.327c0-.79.007-1.58.013-2.371" transform="translate(-79.919 -51.744)" fill="#fcaa08"/>
        <path id="Trazado_136256" data-name="Trazado 136256" d="M96.429,73.055l1.188,3.2.116-.014V67.463c.1.125.049.27.049.4q0,4.594-.01,9.188c0,.164.143.475-.2.457-.307-.016-.711.22-.885-.307a4.436,4.436,0,0,1-.279-1.587c.032-.854.017-1.71.022-2.564" transform="translate(-63.62 -44.521)" fill="#fcaa08"/>
        <path id="Trazado_136257" data-name="Trazado 136257" d="M104.606,72.294c.415-.029.949.174,1.216-.083.29-.281.094-.826.1-1.254.01-3.014.005-6.028.006-9.042,0-.186.011-.372.017-.558.1.122.053.269.053.4,0,3.76-.006,7.519.005,11.279,0,.358-.079.478-.457.469-.973-.023-.974,0-.958-.983,0-.077.015-.154.022-.231" transform="translate(-69.015 -40.492)" fill="#fbaa08"/>
        <path id="Trazado_136258" data-name="Trazado 136258" d="M112.88,76.128c.415-.032.943.176,1.216-.088s.088-.8.09-1.212c.01-2.365,0-4.731.014-7.1,0-.4-.118-.527-.5-.489a6.853,6.853,0,0,1-.792-.008,4.174,4.174,0,0,1,1.147-.052c.281-.016.216.207.216.364,0,1.119,0,2.239,0,3.358,0,2.005-.011,4.011,0,6.017,0,.322-.078.422-.41.419-1.022-.01-1.023.005-1-1.028,0-.062.013-.123.019-.185" transform="translate(-74.477 -44.326)" fill="#faa908"/>
        <path id="Trazado_136259" data-name="Trazado 136259" d="M88.145,77.016h1.371q.009.6.017,1.2a1.689,1.689,0,0,1-.025.349c-.141-.485-.517-.391-.832-.356-.443.049-.626-.091-.554-.548a5.092,5.092,0,0,0,.023-.646" transform="translate(-58.144 -50.824)" fill="#f9a908"/>
        <path id="Trazado_136260" data-name="Trazado 136260" d="M129.413,77.016h1.372c0,.046.013.091.014.137.024,1.144.016,1.145-1.139,1.054-.2-.016-.275-.071-.265-.27.015-.307.013-.614.018-.921" transform="translate(-85.39 -50.825)" fill="#faa908"/>
        <path id="Trazado_136261" data-name="Trazado 136261" d="M71.713,130.512a7.477,7.477,0,0,0,1.349-2.471c.032-.116.178-.211.287-.295a4.425,4.425,0,0,0,1.149-1.2c.046-.077.075-.2.189-.15.051.02.089.124.1.195.1.953.206,1.905.283,2.86a4.236,4.236,0,0,1,.1,1.061l-3.451,0" transform="translate(-47.325 -83.404)" fill="#00e4fe"/>
        <path id="Trazado_136262" data-name="Trazado 136262" d="M34.931,56.409h14.9c.6,0,.6,0,.6.613,0,1.978-.009,3.955.008,5.932,0,.37-.1.5-.473.47-.324-.029-.654.007-.98-.01-.281-.015-.357.116-.327.366.184,1.551.374,3.1.546,4.653.125,1.135.225,2.274.337,3.411A1.31,1.31,0,0,1,48.75,70.8a9.208,9.208,0,0,0-4.923-6.379,8.835,8.835,0,0,0-3.934-1c-1.494-.037-2.989-.008-4.484-.008q-.239-3.5-.477-7.01" transform="translate(-23.052 -37.226)" fill="#00e4fe"/>
        <path id="Trazado_136263" data-name="Trazado 136263" d="M10.371,89.4a6.622,6.622,0,0,1,5.222-4.648,5.313,5.313,0,0,1,1.111-.107c2.365-.006,4.731-.037,7.095.015a6.686,6.686,0,0,1,6.109,4.856.809.809,0,0,1-.618.15q-9.131.005-18.261-.005c-.235,0-.55.1-.659-.261" transform="translate(-6.844 -55.852)" fill="#fcd7a7"/>
        <path id="Trazado_136264" data-name="Trazado 136264" d="M53.135,45.07h-23.4c.18-.569.359-1.112.519-1.661.043-.146.1-.211.252-.2.093.006.187,0,.28,0q10.651,0,21.3-.01c.358,0,.524.09.609.437.114.466.276.92.434,1.434" transform="translate(-19.624 -28.508)" fill="#fefefe"/>
        <path id="Trazado_136265" data-name="Trazado 136265" d="M4.178,107.805a1.174,1.174,0,0,1,1.254-1.112q10.6,0,21.2,0a1.165,1.165,0,0,1,1.244,1.113.871.871,0,0,1-.593.235,4.964,4.964,0,0,1-.56.017q-10.7,0-21.394,0a1.494,1.494,0,0,1-1.152-.249" transform="translate(-2.757 -70.408)" fill="#64dc17"/>
        <path id="Trazado_136266" data-name="Trazado 136266" d="M4.178,109.968a7.749,7.749,0,0,0,1.671.09H26.112a8.59,8.59,0,0,0,1.765-.089,1.16,1.16,0,0,1-1.268,1.225q-3.76.008-7.519,0-6.8,0-13.591,0a1.183,1.183,0,0,1-1.322-1.226" transform="translate(-2.757 -72.571)" fill="#afee60"/>
        <path id="Trazado_136267" data-name="Trazado 136267" d="M9.833,98.66c.142.181.343.115.521.115q9.508,0,19.017,0c.41,1.211.41,1.211-.846,1.211q-9.236,0-18.472.011c-.457,0-.578-.127-.446-.541a3.913,3.913,0,0,1,.227-.8" transform="translate(-6.306 -65.108)" fill="#fec377"/>
        <path id="Trazado_136268" data-name="Trazado 136268" d="M17.875,131.934l.145-.007a1.864,1.864,0,0,1,.771-.139q2.163.006,4.327,0a2,2,0,0,1,.815.152l.094,0a2.322,2.322,0,0,1,.909-.15c1.55.005,3.1,0,4.652.005.243,0,.5-.044.706.152a2.953,2.953,0,0,1-2.157,1.305,5.13,5.13,0,0,1-.745.039q-6.54,0-13.08,0a3.233,3.233,0,0,1-2.815-1.251c.063-.278.3-.24.487-.242,1.769-.018,3.538-.012,5.307-.006a1.461,1.461,0,0,1,.584.14" transform="translate(-7.587 -86.97)" fill="#fcd7a7"/>
        <path id="Trazado_136269" data-name="Trazado 136269" d="M55.247,35.235a5.857,5.857,0,0,1,.385,1.2H37.554a6.17,6.17,0,0,1,.393-1.2.891.891,0,0,1,.621-.149q8.03,0,16.059,0a.877.877,0,0,1,.62.15" transform="translate(-24.783 -23.152)" fill="#d7d6d8"/>
        <path id="Trazado_136270" data-name="Trazado 136270" d="M62.088,11.652c-.005-1.9-.006-3.795-.021-5.692a.323.323,0,0,1,.3-.378c1.9-.459,3.8-.929,5.7-1.387.529-.128.906.065,1.011.478.128.505-.118.854-.709.992-1.5.349-2.991.7-4.491,1.035-.315.07-.409.194-.405.521.017,1.477,0,2.955-.005,4.432a1.55,1.55,0,0,1-1.373,0" transform="translate(-40.96 -2.742)" fill="#fcd744"/>
        <path id="Trazado_136271" data-name="Trazado 136271" d="M56.01,34.415h-17.3c.009-.44.214-.575.667-.574q7.984.026,15.968,0c.449,0,.659.132.666.574" transform="translate(-25.545 -22.332)" fill="#fefefe"/>
        <path id="Trazado_136272" data-name="Trazado 136272" d="M36.947,119.254l-2.161-1.476h9.092l-1.736,1.19a2.05,2.05,0,0,1-.815.14c-.849,0-1.7.012-2.548-.006a8.251,8.251,0,0,0-1.832.152" transform="translate(-22.956 -77.725)" fill="#fbaa08"/>
        <path id="Trazado_136273" data-name="Trazado 136273" d="M16.654,129.921q-2.925,0-5.851.011c-.178,0-.376-.067-.526.1a2.6,2.6,0,0,1-.629-1.29c1.761,0,3.482,0,5.2,0a.553.553,0,0,1,.341.121q.73.533,1.463,1.063" transform="translate(-6.366 -84.957)" fill="#fdc376"/>
        <path id="Trazado_136274" data-name="Trazado 136274" d="M54.607,129.92l-6.267-.007c.49-.354.984-.7,1.468-1.065a.673.673,0,0,1,.435-.122c1.525,0,3.05.01,4.575-.005.314,0,.383.073.263.361a2.214,2.214,0,0,1-.473.839" transform="translate(-31.901 -84.946)" fill="#fdc376"/>
        <path id="Trazado_136275" data-name="Trazado 136275" d="M19.018,118.923l-1.636-1.112.031-.1q1.662,0,3.324,0a.5.5,0,0,1,.291.125c.774.545,1.543,1.1,2.323,1.632.219.151.237.248,0,.389-.251.151-.491.32-.736.481-.209.081-.355-.048-.509-.153-.4-.272-.794-.549-1.181-.835a1.517,1.517,0,0,0-1.042-.314,1.61,1.61,0,0,1-.868-.116" transform="translate(-11.471 -77.682)" fill="#fcaa08"/>
        <path id="Trazado_136276" data-name="Trazado 136276" d="M36.589,128.288l-5.914-.013c.9-.64,1.8-1.273,2.685-1.923a.388.388,0,0,1,.534.021c.894.644,1.8,1.278,2.695,1.916" transform="translate(-20.243 -83.319)" fill="#fec376"/>
        <path id="Trazado_136277" data-name="Trazado 136277" d="M41.14,121.528a1.411,1.411,0,0,1,.994-.3c1.4.021,2.8.014,4.2.018-.868.624-1.738,1.246-2.6,1.873a.267.267,0,0,1-.37.017c-.737-.54-1.481-1.071-2.222-1.6" transform="translate(-27.149 -79.998)" fill="#fcd744"/>
        <path id="Trazado_136278" data-name="Trazado 136278" d="M5.255,118.028a1.563,1.563,0,0,1,1.913-.113q1.254.887,2.508,1.774c.106.076.246.121.313.3H8.04a13.181,13.181,0,0,1-2.785-1.958" transform="translate(-3.468 -77.634)" fill="#fe6f43"/>
        <path id="Trazado_136279" data-name="Trazado 136279" d="M61.26,119.991H59.137l1.235-.878q.856-.607,1.714-1.211a1.308,1.308,0,0,1,1.782.222,2.592,2.592,0,0,1-.817.659,15.489,15.489,0,0,1-1.792,1.208" transform="translate(-39.026 -77.639)" fill="#fe6f43"/>
        <path id="Trazado_136280" data-name="Trazado 136280" d="M4.5,118.78l2.785,1.958c-.653.007-1.306.015-1.958.02A1.14,1.14,0,0,1,4.208,120,1.011,1.011,0,0,1,4.5,118.78" transform="translate(-2.715 -78.386)" fill="#fe8f17"/>
        <path id="Trazado_136281" data-name="Trazado 136281" d="M65.379,120.916A16.011,16.011,0,0,1,67.3,119.5a2.2,2.2,0,0,1,.687-.449.976.976,0,0,1,.2,1.155,1.109,1.109,0,0,1-1.043.726c-.589.006-1.178-.009-1.767-.014" transform="translate(-43.145 -78.564)" fill="#fe8f17"/>
        <path id="Trazado_136282" data-name="Trazado 136282" d="M22.193,121.178a3.1,3.1,0,0,1,2.714.84,2.56,2.56,0,0,0,.886.578.456.456,0,0,1-.06.07c-.7.548-.7.551-1.43.034-.706-.5-1.408-1.014-2.111-1.521" transform="translate(-14.646 -79.937)" fill="#fbd743"/>
        <path id="Trazado_136283" data-name="Trazado 136283" d="M62.095,26.2h1.373c.005.046.013.093.014.139.022,1.165.022,1.158-1.144,1.071-.207-.015-.269-.084-.26-.277.014-.31.012-.622.017-.933" transform="translate(-40.966 -17.289)" fill="#fbaa08"/>
        <path id="Trazado_136284" data-name="Trazado 136284" d="M96.885,105.306c2.1,0,4.2.006,6.3-.006.32,0,.407.048.367.406q-.47,4.1-.882,8.208c-.037.366-.146.494-.533.492q-5.277-.023-10.553,0c-.365,0-.469-.115-.505-.467q-.427-4.128-.9-8.252c-.037-.321.046-.388.352-.387,2.117.012,4.234.006,6.351.006" transform="translate(-59.508 -69.49)"/>
        <path id="Trazado_136285" data-name="Trazado 136285" d="M44.969,58.4c-1.121,0-2.241-.007-3.361,0-.271,0-.379-.059-.383-.358-.017-1.054-.03-1.053,1.037-1.053,1.976,0,3.952.007,5.929-.007.35,0,.491.068.484.457-.019.957,0,.957-.951.957H44.969" transform="translate(-27.203 -37.605)" fill="#fdfefe"/>
        <path id="Trazado_136286" data-name="Trazado 136286" d="M68.1,56.99c.932,0,.913,0,.937.923.01.384-.1.527-.487.492-.354-.032-.719.033-1.069-.016-.645-.091-.209-.606-.3-.914-.062-.2-.113-.53.317-.488.2.02.4,0,.6,0" transform="translate(-44.291 -37.605)" fill="#fbfefe"/>
        <path id="Trazado_136287" data-name="Trazado 136287" d="M25.843,89.81c-.011.792.1.682-.753.682-.756,0-.644.1-.647-.786,0-.721-.077-.611.774-.614.725,0,.616-.064.626.718" transform="translate(-16.128 -58.792)" fill="#fefefe"/>
        <path id="Trazado_136288" data-name="Trazado 136288" d="M41.869,92.97c-.773-.011-.67.1-.671-.766,0-.74-.079-.636.752-.636.765,0,.644-.088.648.787,0,.713.069.6-.728.615" transform="translate(-27.185 -60.425)" fill="#fefefe"/>
        <path id="Trazado_136289" data-name="Trazado 136289" d="M33.387,92.97c-.784-.01-.678.1-.679-.755,0-.754-.089-.644.788-.647.719,0,.608-.069.611.778,0,.724.057.614-.72.624" transform="translate(-21.582 -60.426)" fill="#fefefd"/>
        <path id="Trazado_136290" data-name="Trazado 136290" d="M49.459,89.776c.01-.781-.093-.68.757-.682.746,0,.644-.083.645.743,0,.773.082.653-.778.657-.726,0-.614.061-.624-.719" transform="translate(-32.639 -58.793)" fill="#fefdfc"/>
        <path id="Trazado_136291" data-name="Trazado 136291" d="M99.922,109.432c1.587,0,3.175.007,4.763-.006.305,0,.392.065.354.386q-.332,2.779-.619,5.563c-.026.252-.09.344-.356.343q-4.155-.013-8.311,0c-.23,0-.315-.058-.34-.3q-.3-2.83-.626-5.656c-.033-.284.073-.333.327-.331,1.6.01,3.206,0,4.809,0" transform="translate(-62.548 -72.213)" fill="#afbdc4"/>
        <path id="Trazado_136292" data-name="Trazado 136292" d="M108.669,117.987c-.809-.011-.7.1-.7-.726,0-.8-.112-.674.791-.676.718,0,.6-.1.607.814,0,.677.063.578-.7.587" transform="translate(-71.249 -76.934)" fill="#fefefe"/>
        <path id="Trazado_136293" data-name="Trazado 136293" d="M101.112,117.308c-.011.781.1.675-.761.677-.743,0-.641.088-.641-.748,0-.77-.092-.649.783-.652.723,0,.608-.071.619.723" transform="translate(-65.798 -76.934)" fill="#fefefe"/>
        <path id="Trazado_136294" data-name="Trazado 136294" d="M116.216,117.273c.011-.788-.1-.687.69-.687.728,0,.612-.1.616.805,0,.685.072.594-.688.595-.718,0-.608.071-.619-.713" transform="translate(-76.693 -76.936)" fill="#fefefe"/>
      </g>
    </g>
    <g id="Grupo_159089" data-name="Grupo 159089" transform="translate(-7081.081 -7230.385)">
      <g id="Grupo_159082" data-name="Grupo 159082" transform="translate(0 0)" clip-path="url(#clip-path-2)">
        <path id="Trazado_136549" data-name="Trazado 136549" d="M44.723,27.391a18.844,18.844,0,0,0-1.44-1.627A3.991,3.991,0,0,0,40.944,24.6a9.272,9.272,0,0,0-1.55-.072c-.3,0-.409-.118-.436-.417a2.76,2.76,0,0,0-2.222-2.6c-.512-.135-.523-.144-.523-.7,0-3.73,0-7.461-.006-11.191a1.254,1.254,0,0,1,.4-.987,2.911,2.911,0,0,0,.891-1.7,20.631,20.631,0,0,0,.051-4.781A2.451,2.451,0,0,0,35.036,0Q20.629.032,6.221,0A2.461,2.461,0,0,0,3.707,2.148a23.641,23.641,0,0,0,0,4.43,3.4,3.4,0,0,0,1.7,2.67,1.021,1.021,0,0,1,.537,1.007c-.014,3.449-.008,6.9-.008,10.347,0,.8,0,.8-.787.817a2.9,2.9,0,0,0-2.941,2.968c-.006,1.169-.03,2.34.011,3.508a1.3,1.3,0,0,1-.66,1.265A3.358,3.358,0,0,0,.046,32.62c.184,1.259.512,2.493.8,3.732a3.755,3.755,0,0,0,1.038,1.929,2.909,2.909,0,0,1,.618.855A2.812,2.812,0,0,0,4.542,40.7a8.115,8.115,0,0,0,1.726.074c.343,0,.475.134.469.474-.011.7,0,1.392-.005,2.087a2.1,2.1,0,0,0,.548,1.414,2.294,2.294,0,0,0,1.627.784h.178c.166-.186.406-.088.609-.154A2.234,2.234,0,0,0,11.3,43.317c.023-.769.018-1.539,0-2.308,0-.267.036-.381.35-.38q4.838.019,9.675,0a.417.417,0,0,1,.45.3,7.386,7.386,0,0,0,5.77,4.513c.07.013.15,0,.185.086H28a.393.393,0,0,1,.533,0H28.8a.3.3,0,0,1,.444,0h.178a12.3,12.3,0,0,0,1.35-.186,7.619,7.619,0,0,0,4.691-4.007.9.9,0,0,1,.822-.593,2.931,2.931,0,0,0,2.7-3.018c-.054-3.433-.018-6.868-.017-10.3,0-.875.144-.992,1.019-.834a2.4,2.4,0,0,1,.423.133c.429.163.845.358,1.272.525a1.674,1.674,0,0,1,.67.493,11.97,11.97,0,0,0,.9.985,1,1,0,0,0,1.4.095.99.99,0,0,0,.076-1.433M32.476,1.825c.812.015,1.624,0,2.436.008a.687.687,0,0,1,.784.755c.016,1.2.036,2.394-.007,3.588a1.764,1.764,0,1,1-3.526-.094c-.009-.62,0-1.241,0-1.861,0-.694.011-1.388-.006-2.082-.006-.256.075-.319.321-.314m-5.293,0c.961.015,1.922.014,2.882,0,.249,0,.328.067.326.322-.012,1.316.009,2.632-.01,3.947a1.772,1.772,0,1,1-3.54-.028c-.006-.636,0-1.271,0-1.907,0-.665.015-1.331-.007-2-.01-.284.085-.344.35-.34m-5.351,0q1.462.02,2.924,0c.258,0,.318.082.312.325-.015.679-.005,1.358-.005,2.038,0,.635.009,1.271,0,1.905A1.772,1.772,0,1,1,21.52,6.08c-.01-1.314,0-2.629-.009-3.943,0-.257.077-.316.321-.312m-5.31,0q1.463.017,2.927,0c.236,0,.3.068.3.3-.014.695-.005,1.39-.005,2.085,0,.636.009,1.272,0,1.908a1.769,1.769,0,1,1-3.538.013c-.02-1.33,0-2.662-.012-3.993,0-.264.094-.316.333-.313m-5.647.807c0-.8,0-.8.805-.8s1.6.011,2.4-.006c.261-.005.359.043.349.333-.025.68-.008,1.361-.008,2.042,0,.622.005,1.243,0,1.865A1.771,1.771,0,1,1,10.88,6.1c-.02-1.154-.005-2.309-.005-3.463m-.639,6.089a3.484,3.484,0,0,0,4.839,0c.17-.166.283-.193.466-.012a3.484,3.484,0,0,0,4.839.019c.195-.191.306-.171.5,0a3.445,3.445,0,0,0,4.8,0c.226-.2.338-.159.536.018A3.456,3.456,0,0,0,31,8.749c.2-.187.321-.212.531,0a3.441,3.441,0,0,0,2.451.964c.24.005.327.039.327.3q-.013,5.617,0,11.235c0,.269-.1.307-.331.308-.811,0-.811.013-.811-.8,0-.962.006-1.924,0-2.887a2.675,2.675,0,0,0-2.81-2.817,3.079,3.079,0,0,0-2.13.574c-.195.159-.3,0-.416-.095a3.514,3.514,0,0,0-4.071.336,2.771,2.771,0,0,0-.619,1.061c-.056.211-.121.252-.362.2a3.443,3.443,0,0,0-2.959.485,2.666,2.666,0,0,0-1.024,2.165q-.014.733,0,1.465c0,.208-.021.312-.28.31-1.672-.013-3.344-.01-5.017,0-.226,0-.309-.053-.3-.293.018-.547.018-1.1,0-1.643-.008-.24.092-.32.3-.4a3.572,3.572,0,0,0,1.4-5.844,3.368,3.368,0,0,0-3.73-.951,3.365,3.365,0,0,0-2.425,2.885,3.5,3.5,0,0,0,2.387,3.925.376.376,0,0,1,.3.44c-.02.517-.018,1.036,0,1.554.008.238-.04.334-.307.329-.977-.017-1.954-.02-2.93,0-.3.007-.326-.116-.325-.362.009-1.865.005-3.73.005-5.6s.008-3.7-.009-5.551c0-.3.09-.413.366-.468a3.04,3.04,0,0,0,1.534-.835c.178-.174.287-.231.494-.025M31.392,21.26c.006.233-.062.3-.295.3-.621-.016-1.243-.015-1.864,0-.217.005-.271-.065-.269-.275.01-1.168,0-2.337.01-3.505a.882.882,0,0,1,.95-.941c.162-.007.325-.006.488,0a.9.9,0,0,1,.971.966c.013.562,0,1.124,0,1.686,0,.592-.01,1.183.005,1.775M27.2,21.237c.008.257-.079.325-.326.318-.606-.016-1.213-.014-1.819,0-.226.005-.309-.057-.306-.3.011-1.139-.009-2.278.011-3.416.012-.695.36-1,1.068-1.011,1.1-.018,1.365.243,1.366,1.343v1.331c0,.577-.013,1.154.006,1.73m-6.653-.894c0-.059,0-.119,0-.178-.1-1.232.587-1.521,1.745-1.309a.748.748,0,0,1,.655.732c.031.59.019,1.183.034,1.774,0,.17-.082.191-.218.188-.34,0-.68,0-1.021,0v-.025c-.382,0-.9.15-1.112-.039-.253-.223-.056-.749-.082-1.142M12.3,15.992c-.589,0-.855.386-.919,1.354a1.632,1.632,0,0,1-.947-1.7,1.857,1.857,0,0,1,1.611-1.637A1.825,1.825,0,0,1,14,15.281a1.737,1.737,0,0,1-.8,2.073c-.033-.951-.306-1.358-.888-1.363M5.6,6.351a37.035,37.035,0,0,1-.024-3.858.638.638,0,0,1,.694-.658c.858-.011,1.716,0,2.573-.01.236,0,.26.1.258.295-.007.7,0,1.391,0,2.086h0c0,.651.012,1.3,0,1.953A1.759,1.759,0,0,1,7.411,7.936,1.72,1.72,0,0,1,5.6,6.351M9.533,42.023h0c0,.383,0,.766,0,1.148,0,.289-.134.488-.44.5-.335.014-.476-.195-.478-.5-.006-.751.006-1.5-.009-2.252-.005-.251.106-.281.316-.285.613-.011.613-.019.613.6ZM21.24,38.637c.015.184-.069.236-.232.223-.059,0-.118,0-.177,0H6.611l-.01-.072,15.1-3.382a7.365,7.365,0,0,0-.465,3.232m12.794,1.114a5.625,5.625,0,0,1-6.312,3.921A5.686,5.686,0,0,1,23,37.9a5.9,5.9,0,0,1,.834-2.766.512.512,0,0,1,.363-.283c.506-.1,1.006-.224,1.611-.363a4.628,4.628,0,0,0-.962,6.122,4.551,4.551,0,0,0,8.3-3.157,4.666,4.666,0,0,0-4.789-3.946,4.028,4.028,0,0,0,.776-.932c.076-.146.2-.09.314-.077a5.679,5.679,0,0,1,4.591,7.254M25.867,38A2.771,2.771,0,1,1,28.6,40.878,2.788,2.788,0,0,1,25.867,38m10.554.79c-.269.089-.389.071-.371-.277a7.245,7.245,0,0,0-1.775-5.24A7.172,7.172,0,0,0,29.982,30.8a.478.478,0,0,1-.461-.459c-.26-1.288-.512-2.58-.842-3.851a3.459,3.459,0,0,0-4.316-2.6Q19.5,24.971,14.64,26.071c-.691.156-.886.384-.937,1.083.366.689.6.8,1.352.633q4.886-1.086,9.772-2.17a1.657,1.657,0,0,1,2.131,1.332c.283,1.162.539,2.331.784,3.5a1.68,1.68,0,0,1-1.387,2.1c-1.743.393-3.487.778-5.231,1.167q-8.04,1.8-16.08,3.6A1.741,1.741,0,0,1,2.682,35.8c-.238-1.081-.49-2.16-.721-3.243A1.676,1.676,0,0,1,3.3,30.429c1.6-.368,3.2-.719,4.8-1.072.486-.107.913-.273,1.017-.838h0c-.09-.82-.469-1.1-1.29-.926-1.111.237-2.223.48-3.327.747-.307.074-.411.054-.406-.3.019-1.183,0-2.368.009-3.552a1.02,1.02,0,0,1,1.174-1.163q15.313,0,30.626,0c.823,0,1.186.363,1.187,1.2q.006,6.57,0,13.141c0,.623-.228.979-.67,1.124" transform="translate(0 0)"/>
        <path id="Trazado_136550" data-name="Trazado 136550" d="M43.818,118.21a7.386,7.386,0,0,1-5.77-4.513.416.416,0,0,0-.45-.3q-4.838.015-9.676,0c-.314,0-.355.113-.35.379.014.769.019,1.539,0,2.308a2.233,2.233,0,0,1-1.606,2.061c-.2.066-.443-.032-.609.154.024-.018.051-.043.077-.04a2.244,2.244,0,0,0,2.276-2.446c-.03-.561-.007-1.125,0-1.687s.025-.584.568-.584c3,0,6.008.005,9.012-.008a.748.748,0,0,1,.778.5,7.384,7.384,0,0,0,2.874,3.238A6.415,6.415,0,0,0,44,118.3c-.035-.086-.115-.073-.185-.086" transform="translate(-16.269 -72.764)" fill="#fefefe"/>
        <path id="Trazado_136551" data-name="Trazado 136551" d="M78.145,126.979h.533a.678.678,0,0,0-.533,0" transform="translate(-50.145 -81.447)" fill="#191919"/>
        <path id="Trazado_136552" data-name="Trazado 136552" d="M78.145,126.89a.678.678,0,0,1,.533,0,.393.393,0,0,0-.533,0" transform="translate(-50.145 -81.358)" fill="#191919"/>
        <path id="Trazado_136553" data-name="Trazado 136553" d="M80.376,126.98h.444a.481.481,0,0,0-.444,0" transform="translate(-51.577 -81.448)" fill="#242424"/>
        <path id="Trazado_136554" data-name="Trazado 136554" d="M80.376,126.9a.481.481,0,0,1,.444,0,.3.3,0,0,0-.444,0" transform="translate(-51.577 -81.367)" fill="#242424"/>
        <path id="Trazado_136555" data-name="Trazado 136555" d="M43.233,65.1q-15.313,0-30.626,0a1.021,1.021,0,0,0-1.174,1.163c-.005,1.184.01,2.368-.009,3.552-.006.352.1.372.405.3,1.105-.267,2.216-.51,3.328-.747.82-.175,1.2.106,1.29.927h0a.417.417,0,0,1,.43-.421,8.17,8.17,0,0,0,.963-.233h0a.966.966,0,0,1,.579-.992c.5-.2.906.015,1.2.628l1.412-.346c.051-.7.247-.927.937-1.082q4.861-1.093,9.723-2.182a3.459,3.459,0,0,1,4.316,2.6c.33,1.271.582,2.563.842,3.851a.478.478,0,0,0,.461.459,7.422,7.422,0,0,1,6.066,7.709c-.019.349.1.366.371.277.442-.145.67-.5.67-1.124q0-6.57,0-13.141c0-.834-.364-1.2-1.187-1.2" transform="translate(-7.331 -41.775)" fill="#fe6dc9"/>
        <path id="Trazado_136556" data-name="Trazado 136556" d="M15.742,73.32a.281.281,0,0,1-.035-.015.931.931,0,0,1-.507.957.854.854,0,0,1-.91-.09,1.254,1.254,0,0,1-.346-.5.567.567,0,0,1-.372.182,1.908,1.908,0,0,0-1.039.438h0c-.1.565-.531.731-1.017.838-1.6.353-3.2.7-4.8,1.072a1.675,1.675,0,0,0-1.34,2.129c.231,1.083.483,2.162.721,3.243A1.741,1.741,0,0,0,8.46,83.087q8.039-1.8,16.08-3.6c1.744-.389,3.488-.774,5.231-1.167a1.68,1.68,0,0,0,1.387-2.1c-.245-1.171-.5-2.34-.784-3.5a1.657,1.657,0,0,0-2.131-1.331q-4.888,1.077-9.772,2.17c-.751.167-.986.056-1.352-.633a2.52,2.52,0,0,1-1.377.392m-5.574,7.855a2.152,2.152,0,0,1-1.06.273,1.74,1.74,0,0,1-.808-.2.509.509,0,0,1-.223-.721c.125-.291.375-.3.633-.179a.977.977,0,0,0,.809.083c.121-.047.243-.119.232-.287a.28.28,0,0,0-.218-.252c-.266-.086-.536-.159-.807-.227A1.3,1.3,0,0,1,7.6,78.428c-.025-.593.29-.991.985-1.244a2.062,2.062,0,0,1,1.084-.133.487.487,0,0,1,.454.626c-.062.343-.276.422-.587.335a.729.729,0,0,0-.22-.023c-.267.011-.624.01-.656.31s.339.246.55.314a8.277,8.277,0,0,1,.841.264,1.282,1.282,0,0,1,.751,1.166,1.169,1.169,0,0,1-.635,1.132M15.3,79.6c-.038.415-.3.578-.671.638a.6.6,0,0,1-.727-.418,1.037,1.037,0,0,0-.31-.515c0,.218-.013.39,0,.559a.618.618,0,0,1-.538.733.679.679,0,0,1-.846-.367q-.8-1.381-1.63-2.739a.462.462,0,0,1,.172-.737.472.472,0,0,1,.758.224A18.014,18.014,0,0,0,12.7,78.952c0-.421.012-.843,0-1.264a.517.517,0,0,1,.439-.573.5.5,0,0,1,.639.322,5.405,5.405,0,0,0,.639,1.122c.048-.758.091-1.517.146-2.274.03-.421.243-.585.64-.513.282.052.447.191.415.515-.111,1.1-.214,2.207-.314,3.311m11.784-6.578a1.993,1.993,0,0,1,.794-.006.471.471,0,0,1,.4.588.41.41,0,0,1-.538.375,1.231,1.231,0,0,0-.656.012c-.14.048-.3.1-.293.282s.172.188.29.223c.268.08.547.124.812.21a1.354,1.354,0,0,1,1.041,1.489,1.4,1.4,0,0,1-1.273,1.159c-.131.02-.265.022-.4.031a1.747,1.747,0,0,1-.809-.187.506.506,0,0,1-.239-.712c.131-.313.38-.332.66-.187a.927.927,0,0,0,.683.106c.161-.042.326-.1.332-.3.005-.177-.135-.253-.28-.3-.21-.067-.424-.125-.637-.18-.86-.222-1.264-.666-1.24-1.368a1.441,1.441,0,0,1,1.355-1.239m-4.5,1.037c.721-.154,1.438-.322,2.155-.491.331-.078.469.12.536.38a.4.4,0,0,1-.307.543c-.589.185-.585.192-.447.792.159.689.307,1.381.474,2.068a.454.454,0,0,1-.379.623c-.323.075-.578.016-.66-.38-.164-.794-.368-1.58-.519-2.376-.06-.316-.157-.377-.465-.29-.514.146-.729-.006-.728-.469-.021-.222.092-.349.339-.4m-2.912.647c.59-.134,1.181-.266,1.774-.388.351-.072.558.107.57.491a.375.375,0,0,1-.344.419c-.346.077-.69.163-1.038.226-.22.039-.273.142-.176.329.084.164-.059.511.338.427.144-.03.288-.064.433-.092a.374.374,0,0,1,.492.317c.046.239-.015.445-.3.5a1.325,1.325,0,0,1-.213.057c-.394.009-.478.177-.37.554.074.259.175.3.4.236.3-.081.6-.141.9-.216s.508,0,.573.315c.059.282.028.533-.33.607-.593.123-1.182.259-1.774.388-.379.083-.572-.067-.652-.453-.213-1.026-.446-2.048-.686-3.069a.469.469,0,0,1,.4-.65m-1.448.327c.358-.089.5.111.565.391s-.072.473-.382.53c-.333.061-.659.171-.993.222-.29.044-.235.22-.168.379s-.044.481.328.373c.142-.041.287-.068.432-.1a.376.376,0,0,1,.49.322c.046.239-.015.445-.3.5-.072.014-.142.04-.214.057-.422.1-.542.381-.318.738.091.145.212.075.316.054.319-.062.632-.146.95-.213.379-.08.593.1.585.51a.342.342,0,0,1-.312.395q-.928.21-1.86.406c-.337.07-.517-.067-.591-.416-.216-1.025-.453-2.046-.691-3.066-.085-.363,0-.611.391-.7.591-.128,1.185-.246,1.772-.391" transform="translate(-3.417 -45.774)" fill="#fefefe"/>
        <path id="Trazado_136557" data-name="Trazado 136557" d="M26.854,77.8c-.006-.011-.011-.023-.018-.034a8.227,8.227,0,0,1-.963.233.417.417,0,0,0-.43.421,1.909,1.909,0,0,1,1.039-.438.566.566,0,0,0,.372-.182" transform="translate(-16.327 -49.903)" fill="#fefefe"/>
        <path id="Trazado_136558" data-name="Trazado 136558" d="M34.3,76.13c0,.01,0,.02,0,.03a.28.28,0,0,0,.035.015,2.518,2.518,0,0,0,1.377-.392L34.3,76.13" transform="translate(-22.011 -48.63)" fill="#fefefe"/>
        <path id="Trazado_136559" data-name="Trazado 136559" d="M70.607,90.66c-.111-.013-.238-.069-.314.077a4.035,4.035,0,0,1-.776.932,4.665,4.665,0,0,1,4.789,3.946,4.551,4.551,0,0,1-8.3,3.156,4.628,4.628,0,0,1,.962-6.121c-.6.138-1.105.264-1.611.362a.515.515,0,0,0-.363.283,5.906,5.906,0,0,0-.834,2.766,5.687,5.687,0,0,0,4.727,5.773A5.654,5.654,0,1,0,70.607,90.66" transform="translate(-41.165 -58.162)" fill="#00c7e8"/>
        <path id="Trazado_136560" data-name="Trazado 136560" d="M18.432,102.269H32.652c.059,0,.118,0,.177,0,.163.013.247-.04.232-.223a7.364,7.364,0,0,1,.465-3.232l-15.1,3.382c0,.024.007.048.01.072" transform="translate(-11.821 -63.409)" fill="#fe6cc9"/>
        <path id="Trazado_136561" data-name="Trazado 136561" d="M77.73,101.406a2.771,2.771,0,1,0-2.8,2.726,2.789,2.789,0,0,0,2.8-2.726" transform="translate(-46.323 -63.254)" fill="#dddfeb"/>
        <path id="Trazado_136562" data-name="Trazado 136562" d="M32.113,11.206a1.785,1.785,0,0,0,1.77-1.875c.006-.622,0-1.243,0-1.865,0-.681-.017-1.362.008-2.042.011-.29-.088-.339-.349-.333-.8.016-1.6.006-2.4.006s-.805,0-.805.8c0,1.154-.015,2.309.005,3.463a1.791,1.791,0,0,0,1.767,1.845" transform="translate(-19.466 -3.267)" fill="#fefefe"/>
        <path id="Trazado_136563" data-name="Trazado 136563" d="M74.893,7.428c0,.636-.005,1.272,0,1.907a1.772,1.772,0,1,0,3.54.028c.019-1.316,0-2.632.01-3.947,0-.255-.077-.325-.326-.322-.961.013-1.922.015-2.882,0-.265,0-.36.056-.35.339.022.665.007,1.33.007,2" transform="translate(-48.054 -3.268)" fill="#ed589e"/>
        <path id="Trazado_136564" data-name="Trazado 136564" d="M61.828,11.207A1.8,1.8,0,0,0,63.585,9.36c.011-.635,0-1.27,0-1.905,0-.679-.01-1.359.005-2.038.005-.243-.054-.329-.312-.325-.974.015-1.949.014-2.924,0-.244,0-.324.055-.321.312.013,1.314,0,2.629.009,3.943a1.79,1.79,0,0,0,1.784,1.859" transform="translate(-38.524 -3.267)" fill="#fefefe"/>
        <path id="Trazado_136565" data-name="Trazado 136565" d="M46.992,11.209a1.791,1.791,0,0,0,1.739-1.822c.011-.636,0-1.272,0-1.908,0-.7-.009-1.39.005-2.085,0-.231-.061-.3-.3-.3q-1.463.019-2.927,0c-.239,0-.335.048-.333.313.013,1.331-.009,2.662.011,3.992a1.787,1.787,0,0,0,1.8,1.809" transform="translate(-28.993 -3.269)" fill="#ed589e"/>
        <path id="Trazado_136566" data-name="Trazado 136566" d="M89.749,7.49c0,.62-.007,1.241,0,1.861a1.764,1.764,0,1,0,3.526.094c.043-1.195.023-2.392.007-3.588A.688.688,0,0,0,92.5,5.1c-.812-.009-1.625.007-2.436-.008-.246,0-.327.058-.321.314.018.694.006,1.388.006,2.082" transform="translate(-57.587 -3.268)" fill="#fefefe"/>
        <path id="Trazado_136567" data-name="Trazado 136567" d="M17.327,11.206a1.759,1.759,0,0,0,1.682-1.778c.015-.651,0-1.3,0-1.953h0c0-.7,0-1.391,0-2.086,0-.19-.021-.3-.258-.295-.857.013-1.716,0-2.573.01a.638.638,0,0,0-.694.658,37.128,37.128,0,0,0,.024,3.857,1.72,1.72,0,0,0,1.812,1.585" transform="translate(-9.916 -3.269)" fill="#ed589e"/>
        <path id="Trazado_136568" data-name="Trazado 136568" d="M71.512,48.318c0-1.1-.265-1.361-1.366-1.344-.708.011-1.056.316-1.068,1.011-.02,1.139,0,2.278-.011,3.416,0,.238.08.3.307.3.606-.013,1.213-.015,1.818,0,.247.006.334-.061.326-.318-.019-.576-.006-1.153-.006-1.73V48.318" transform="translate(-44.32 -30.143)" fill="#fec86f"/>
        <path id="Trazado_136569" data-name="Trazado 136569" d="M83.256,47.938a.9.9,0,0,0-.971-.966c-.163-.006-.326-.006-.488,0a.882.882,0,0,0-.951.941c-.014,1.168,0,2.337-.009,3.506,0,.21.052.279.269.275.621-.014,1.243-.016,1.863,0,.233.006.3-.063.3-.295-.016-.592-.005-1.183-.005-1.775,0-.562.01-1.124,0-1.686" transform="translate(-51.873 -30.139)" fill="#fefefe"/>
        <path id="Trazado_136570" data-name="Trazado 136570" d="M32.667,40.355a1.825,1.825,0,0,0-1.947-1.268,1.857,1.857,0,0,0-1.611,1.637,1.632,1.632,0,0,0,.947,1.7c.065-.968.33-1.359.919-1.354s.855.412.888,1.363a1.737,1.737,0,0,0,.8-2.073" transform="translate(-18.672 -25.074)" fill="#fec86f"/>
        <path id="Trazado_136571" data-name="Trazado 136571" d="M57.336,55.142c.215.19.73.039,1.112.039v.025c.34,0,.681,0,1.021,0,.136,0,.222-.019.218-.189-.016-.591,0-1.183-.035-1.774A.749.749,0,0,0,59,52.513c-1.158-.211-1.847.077-1.745,1.31,0,.059,0,.119,0,.177.027.393-.17.919.082,1.142" transform="translate(-36.709 -33.656)" fill="#fefefe"/>
        <path id="Trazado_136572" data-name="Trazado 136572" d="M24.326,113.4c-.21,0-.321.034-.316.285.015.751,0,1.5.009,2.252,0,.308.143.517.478.5.305-.013.436-.211.44-.5,0-.383,0-.766,0-1.148h0v-.795c0-.616,0-.607-.613-.6" transform="translate(-15.407 -72.765)" fill="#00c7e8"/>
        <path id="Trazado_136573" data-name="Trazado 136573" d="M29.7,76.381a.736.736,0,0,0,1.309-.264c.042-.126.035-.274.143-.373a.64.64,0,0,1-.227-.241.706.706,0,0,0-.713-.346.8.8,0,0,0-.664.577,1.865,1.865,0,0,1-.125.369c.131.053.189.182.277.28" transform="translate(-18.88 -48.221)" fill="#010101"/>
        <path id="Trazado_136574" data-name="Trazado 136574" d="M29.363,75.878a1.865,1.865,0,0,0,.125-.369.8.8,0,0,1,.664-.577.706.706,0,0,1,.713.346.639.639,0,0,0,.227.241c.008-.007.011-.015.019-.021-.3-.613-.7-.827-1.2-.628a.966.966,0,0,0-.579.992h0a.3.3,0,0,1,.033.016" transform="translate(-18.821 -47.997)" fill="#010101"/>
        <path id="Trazado_136575" data-name="Trazado 136575" d="M30.982,77.185a.736.736,0,0,1-1.309.264c-.088-.1-.146-.227-.277-.279l0,.006s-.008.008-.011.012a1.254,1.254,0,0,0,.346.5.854.854,0,0,0,.91.09.931.931,0,0,0,.507-.957l-.019-.008c-.108.1-.1.247-.143.373" transform="translate(-18.854 -49.29)" fill="#010101"/>
        <path id="Trazado_136576" data-name="Trazado 136576" d="M34.267,76.781c0-.01,0-.02,0-.03-.009.006-.012.015-.019.022l.019.008" transform="translate(-21.977 -49.251)" fill="#010101"/>
        <path id="Trazado_136577" data-name="Trazado 136577" d="M29.36,77.789l0-.006a.282.282,0,0,0-.033-.016c.007.011.012.023.018.034,0,0,.008-.007.012-.012" transform="translate(-18.821 -49.903)" fill="#010101"/>
        <path id="Trazado_136578" data-name="Trazado 136578" d="M24.416,83.689c-.4-.072-.61.091-.641.512-.055.758-.1,1.516-.146,2.275a5.4,5.4,0,0,1-.638-1.122.5.5,0,0,0-.64-.322.518.518,0,0,0-.439.573c.015.421,0,.843,0,1.264a18.018,18.018,0,0,1-1.189-1.977.472.472,0,0,0-.758-.224.462.462,0,0,0-.171.737q.837,1.356,1.63,2.739a.68.68,0,0,0,.846.367.618.618,0,0,0,.538-.733c-.015-.169,0-.341,0-.559a1.04,1.04,0,0,1,.31.515.6.6,0,0,0,.727.418c.373-.06.633-.223.671-.638.1-1.1.2-2.208.314-3.311.033-.324-.132-.464-.415-.515" transform="translate(-12.63 -53.692)"/>
        <path id="Trazado_136579" data-name="Trazado 136579" d="M35.239,82.7c.238,1.02.475,2.041.691,3.066.074.35.254.487.591.416q.931-.195,1.86-.405a.343.343,0,0,0,.312-.395c.008-.407-.207-.59-.585-.51-.317.067-.631.151-.95.213-.1.02-.225.091-.316-.054-.224-.358-.1-.643.318-.738.072-.016.142-.042.214-.056.286-.057.346-.262.3-.5a.375.375,0,0,0-.49-.322c-.145.027-.291.054-.432.095-.372.108-.264-.221-.328-.373s-.122-.335.168-.38c.334-.051.66-.161.993-.222.311-.057.449-.235.382-.53s-.206-.48-.565-.391c-.587.145-1.181.263-1.772.391-.393.085-.475.333-.391.7" transform="translate(-22.594 -52.357)"/>
        <path id="Trazado_136580" data-name="Trazado 136580" d="M44.9,83.734c.08.386.273.535.652.453.591-.129,1.181-.265,1.774-.388.358-.075.388-.325.33-.607-.065-.311-.282-.387-.573-.315s-.606.134-.9.216c-.226.061-.328.023-.4-.236-.107-.377-.024-.546.37-.554a1.318,1.318,0,0,0,.214-.057c.286-.057.346-.263.3-.5a.374.374,0,0,0-.492-.317c-.145.028-.288.062-.433.092-.4.083-.253-.264-.337-.427-.1-.188-.043-.29.176-.329.348-.062.692-.149,1.038-.226a.375.375,0,0,0,.344-.419c-.012-.384-.219-.563-.57-.491-.593.122-1.183.254-1.774.388a.469.469,0,0,0-.4.65c.24,1.02.473,2.043.687,3.069" transform="translate(-28.354 -51.086)"/>
        <path id="Trazado_136581" data-name="Trazado 136581" d="M63.52,78.566c.214.055.427.114.637.18.145.046.285.121.28.3-.006.2-.171.256-.332.3a.927.927,0,0,1-.683-.106c-.28-.145-.53-.126-.66.187a.506.506,0,0,0,.239.712,1.747,1.747,0,0,0,.809.187c.132-.01.266-.011.4-.031a1.4,1.4,0,0,0,1.273-1.159,1.354,1.354,0,0,0-1.041-1.489c-.265-.086-.544-.13-.812-.21-.118-.035-.287-.047-.29-.223s.153-.234.293-.282a1.232,1.232,0,0,1,.656-.012.41.41,0,0,0,.538-.375.471.471,0,0,0-.4-.588,1.993,1.993,0,0,0-.794.006A1.441,1.441,0,0,0,62.279,77.2c-.023.7.381,1.146,1.24,1.368" transform="translate(-39.964 -48.714)"/>
        <path id="Trazado_136582" data-name="Trazado 136582" d="M14.127,89.074a8.271,8.271,0,0,0-.841-.264c-.211-.068-.58-.024-.55-.314s.389-.3.656-.31a.732.732,0,0,1,.22.023c.311.087.525.009.587-.335a.487.487,0,0,0-.454-.626,2.062,2.062,0,0,0-1.084.133c-.7.253-1.01.651-.985,1.244A1.3,1.3,0,0,0,12.8,89.86c.271.068.541.141.807.227a.28.28,0,0,1,.218.252c.011.168-.111.24-.232.287a.977.977,0,0,1-.809-.083c-.258-.125-.507-.112-.633.179a.509.509,0,0,0,.223.721,1.74,1.74,0,0,0,.808.2,2.151,2.151,0,0,0,1.06-.273,1.169,1.169,0,0,0,.635-1.132,1.282,1.282,0,0,0-.751-1.166" transform="translate(-7.491 -55.97)"/>
        <path id="Trazado_136583" data-name="Trazado 136583" d="M53.278,78.892c.308-.087.4-.026.465.289.151.8.355,1.582.519,2.376.082.4.336.455.66.38a.454.454,0,0,0,.379-.623c-.167-.688-.315-1.379-.474-2.068-.138-.6-.142-.607.447-.792a.4.4,0,0,0,.307-.543c-.068-.26-.2-.458-.536-.38-.717.169-1.435.336-2.155.491-.247.053-.36.18-.339.4,0,.463.214.616.728.47" transform="translate(-33.719 -49.74)"/>
      </g>
    </g>
  </g>
</svg>
