<svg xmlns="http://www.w3.org/2000/svg" xmlns:xlink="http://www.w3.org/1999/xlink" width="400" height="219" viewBox="0 0 400 219">
  <defs>
    <clipPath id="clip-path">
      <rect id="Rectángulo_37634" data-name="Rectángulo 37634" width="149.982" height="149.759" fill="none"/>
    </clipPath>
    <clipPath id="clip-path-2">
      <rect id="Rectángulo_37635" data-name="Rectángulo 37635" width="143.793" height="143.257" fill="none"/>
    </clipPath>
  </defs>
  <g id="Grupo_159210" data-name="Grupo 159210" transform="translate(-1020 -404)">
    <rect id="Rectángulo_37358" data-name="Rectángulo 37358" width="400" height="219" transform="translate(1020 404)" fill="#ffdfe0"/>
    <g id="Grupo_159209" data-name="Grupo 159209" transform="translate(-5 -0.371)">
      <g id="Grupo_159206" data-name="Grupo 159206" transform="translate(1050 438.371)">
        <g id="Grupo_159205" data-name="Grupo 159205" clip-path="url(#clip-path)">
          <path id="Trazado_137140" data-name="Trazado 137140" d="M0,146.832v-9.947a3.671,3.671,0,0,1,3.722-3.041c.876-.059,1.756-.045,2.632-.023.979.023,1.429-.381,1.406-1.386-.028-1.218-.024-2.437,0-3.656.06-2.787,1.486-4.314,4.262-4.584,1.864-.181,1.871-.181,1.872-2.095q0-8.264,0-16.528c0-1.758-.077-1.816-1.779-1.9-2.975-.147-4.309-1.524-4.357-4.51-.018-1.121-.037-2.244,0-3.364.037-1.056-.393-1.522-1.46-1.488A14.1,14.1,0,0,1,3.1,94.1,3.485,3.485,0,0,1,0,91.246V81.3c.573-2.177,1.642-3.01,3.965-3.058,1.413-.029,2.827-.016,4.239-.009.926,0,1.309-.412,1.309-1.328q0-10.234,0-20.468c0-1.307-.841-1.3-1.767-1.337a7.86,7.86,0,0,1-6.9-3.953A10.746,10.746,0,0,1,0,48.241V45.315c.285-2.879,1.945-4.731,4.373-6.123,17.382-9.96,34.7-20.035,52.066-30.023C61,6.544,65.514,3.83,70.13,1.3a9.535,9.535,0,0,1,9.761.087q31.285,18.051,62.568,36.108c1.307.756,2.626,1.495,3.9,2.314,3.573,2.3,4.112,5.727,3.29,9.663-.676,3.237-3.917,5.484-7.563,5.609-1.77.06-1.835.105-1.837,1.818q-.012,9.8,0,19.6c0,1.653.1,1.742,1.73,1.759,1.413.014,2.829-.038,4.24.019a3.572,3.572,0,0,1,3.693,3.7c.052,2.827.036,5.656,0,8.483a3.363,3.363,0,0,1-2.731,3.495,11.225,11.225,0,0,1-3.627.329c-1.106-.051-1.621.366-1.569,1.525.054,1.216.034,2.437,0,3.655-.068,2.621-1.481,4.066-4.066,4.182-2.061.094-2.067.094-2.068,2.179q0,8.191,0,16.381c0,1.859.011,1.859,1.815,2.006,2.836.232,4.3,1.8,4.324,4.639.01,1.17.032,2.341-.005,3.51-.032,1.038.359,1.546,1.448,1.495a25.556,25.556,0,0,1,2.632.011c2.49.143,3.831,1.529,3.848,4.008.018,2.681.023,5.363,0,8.044a3.593,3.593,0,0,1-3.712,3.832c-.389.021-.78.008-1.17.008q-31.883,0-63.765,0c-2.086,0-2.8-.534-3.259-2.368.092-1.848.747-2.568,2.516-2.742.728-.072,1.461-.041,2.192-.041h59.36c2.84,0,2.84,0,2.839-2.762,0-2.721,0-2.724-2.743-2.724H7.519c-.243,0-.488,0-.731,0-1.786.035-1.92.144-1.918,1.92,0,3.92-.332,3.559,3.518,3.561q29.826.014,59.652,0c.633,0,1.268-.016,1.9.017,1.8.094,2.464.655,2.933,2.448-.381,2.039-1.147,2.682-3.3,2.684q-14.768.017-29.537.005H5.528c-.487,0-.975,0-1.461,0-2.431-.029-3.3-.656-4.067-2.923" transform="translate(0 0)"/>
          <path id="Trazado_137141" data-name="Trazado 137141" d="M72.018,79.853c-.348-1.621-1.4-2.116-2.988-2.112-17.884.03-35.768.005-53.653.048-1.289,0-1.7-.259-1.682-1.633.1-6.381.08-12.764.1-19.146a2.9,2.9,0,0,1,1.272-1.168c13-7.394,25.91-14.951,38.873-22.41,6.166-3.548,12.346-7.07,18.471-10.686a3.242,3.242,0,0,1,3.743-.092q13.584,7.894,27.2,15.732,14.946,8.607,29.874,17.242a3.714,3.714,0,0,1,1.657,1.38c.023,6.625.026,13.251.088,19.875.009,1.057-.614.875-1.225.875H119.28c-13.009,0-26.02.016-39.03-.021-1.6,0-2.63.508-2.989,2.117a7.071,7.071,0,0,1-5.243,0" transform="translate(0.549 0.886)" fill="#ebe9eb"/>
          <path id="Trazado_137142" data-name="Trazado 137142" d="M141.5,50.136a4.537,4.537,0,0,1-2.486-.938q-30.841-17.807-61.65-35.664a4.623,4.623,0,0,0-5.327.028Q41.259,31.467,10.388,49.221A5.8,5.8,0,0,1,8.4,50.1a3.532,3.532,0,0,1-3.9-2.159,3.407,3.407,0,0,1,1.412-4.327c1.768-1.115,3.6-2.121,5.417-3.166Q41.665,22.939,71.993,5.415a4.933,4.933,0,0,1,5.363-.056q32.788,18.959,65.589,37.892c1.9,1.1,2.628,2.644,2.125,4.324a3.506,3.506,0,0,1-3.567,2.562" transform="translate(0.169 0.184)" fill="#9ed3fd"/>
          <path id="Trazado_137143" data-name="Trazado 137143" d="M72.4,77.627h5.243c.522,1.915,1.027,2.291,3.117,2.292q31.435,0,62.871-.034c1.377,0,1.731.393,1.618,1.679a29.878,29.878,0,0,0-.009,3.8c.03.724-.243.969-.927.9a7.95,7.95,0,0,0-.877-.005q-68.719,0-137.439.036c-1.478,0-1.987-.341-1.8-1.821s-.619-3.482.322-4.325c.821-.734,2.778-.22,4.233-.22q30.266-.008,60.532,0c2.095,0,2.609-.385,3.111-2.293" transform="translate(0.163 3.111)" fill="#9ed3fd"/>
          <path id="Trazado_137144" data-name="Trazado 137144" d="M78.116,142.3c-.325-.539-.848-.514-1.381-.509-1.441.014-2.881.007-4.322.009-.643-1.883-.977-2.116-3.108-2.116q-31.663,0-63.326.041c-1.528,0-1.94-.416-1.772-1.844.175-1.482-.616-3.481.313-4.33.806-.738,2.772-.237,4.224-.237q67.422-.008,134.844-.032c1.279,0,1.815.239,1.671,1.629a30.433,30.433,0,0,0-.019,3.945c.017.629-.191.9-.835.834a9.875,9.875,0,0,0-1.023-.006q-31.224,0-62.449,0c-2.1,0-2.713.581-2.817,2.614" transform="translate(0.163 5.337)" fill="#9ed3fd"/>
          <path id="Trazado_137145" data-name="Trazado 137145" d="M95.959,130.648c-1.609,0-3.227-.108-4.824.032-1.421.125-1.729-.436-1.63-1.708.1-1.309.044-2.632.016-3.948-.056-2.615-1.372-3.894-4.018-3.943-.39-.007-.783-.028-1.17,0-.669.055-.963-.176-.961-.9q.028-9.8,0-19.6c0-.676.206-.99.925-.932a14.094,14.094,0,0,0,1.754,0,3.324,3.324,0,0,0,3.427-3.274c.1-1.653.068-3.315.037-4.972-.016-.875.161-1.307,1.2-1.288,3.508.068,7.02.049,10.53.009.833-.01,1.1.253,1.065,1.075-.055,1.509-.031,3.022-.01,4.534.035,2.528,1.384,3.884,3.876,3.922a9.325,9.325,0,0,0,1.169-.005c.782-.085,1.116.139,1.112,1.02q-.051,9.727,0,19.455c0,.805-.3,1.017-1.024.955a10.229,10.229,0,0,0-1.461,0,3.554,3.554,0,0,0-3.665,3.722,38.3,38.3,0,0,0,.02,4.385c.112,1.287-.377,1.551-1.546,1.477-1.6-.1-3.216-.025-4.825-.025" transform="translate(3.342 3.612)" fill="#b5b0b6"/>
          <path id="Trazado_137146" data-name="Trazado 137146" d="M61.591,110.468c0,2.876.007,5.753,0,8.629-.007,2.325.2,1.947-1.9,1.982-.293.005-.588-.007-.877.022a3.418,3.418,0,0,0-3.327,3.416c-.088,1.654-.084,3.315-.04,4.971.023.844-.149,1.2-1.106,1.184-3.558-.058-7.117-.042-10.675-.008-.746.007-1.036-.174-1-.969.06-1.46.024-2.925.015-4.387-.018-2.881-1.325-4.193-4.2-4.226-1.937-.023-1.937-.023-1.937-1.917,0-6.045.026-12.09-.025-18.134-.009-1.064.211-1.5,1.352-1.379,3.816.4,5.061-1.887,4.827-4.879-.095-1.212.026-2.438-.03-3.654-.035-.783.262-.989,1.008-.983q5.337.047,10.675,0c.814-.008,1.121.23,1.1,1.07-.048,1.558-.038,3.12.016,4.678.087,2.514,1.361,3.742,3.842,3.783a7.827,7.827,0,0,0,1.169-.007c.926-.125,1.152.293,1.141,1.16-.041,3.217-.016,6.435-.016,9.652" transform="translate(1.463 3.613)" fill="#b5b0b6"/>
          <path id="Trazado_137147" data-name="Trazado 137147" d="M134.889,57.217q-11.03-6.389-22.063-12.775-11.993-6.913-24.009-13.785c-4.547-2.614-9.094-5.228-13.617-7.885a1.448,1.448,0,0,0-1.714,0Q57.427,32.108,41.334,41.386q-13,7.495-26.036,14.936c-.505.289-1,.6-1.5.9-.022-1.607,0-3.216-.084-4.82-.045-.851.55-1.047,1.085-1.356q12.13-7.01,24.26-14.015Q56.117,27.174,73.165,17.3a2.037,2.037,0,0,1,2.37,0q29.17,16.895,58.383,33.714a1.732,1.732,0,0,1,1.057,1.82c-.089,1.456-.063,2.92-.086,4.38" transform="translate(0.55 0.678)" fill="#d9d7da"/>
          <path id="Trazado_137148" data-name="Trazado 137148" d="M32.639,120.442c-4.623.033-9.246.056-13.87.111-.661.008-.815-.248-.811-.856.037-5.211.049-10.422.069-15.632a2.193,2.193,0,0,1,1.641-.468c3.8-.019,7.6-.041,11.4.008,1.583.021,1.707.2,1.708,1.814q0,6.866,0,13.733a2.492,2.492,0,0,1-.128,1.29" transform="translate(0.72 4.152)" fill="#fedf7d"/>
          <path id="Trazado_137149" data-name="Trazado 137149" d="M79.607,120.367a9.836,9.836,0,0,1-3.452.157c-3.726-.058-7.456.24-11.176-.156a19.326,19.326,0,0,1-.13-4.2c-.035-3.649.032-7.3-.037-10.945-.022-1.158.419-1.607,1.5-1.615,3.989-.031,7.977-.042,11.965.008.833.01,1.5.185,1.49,1.313-.044,5.011-.006,10.021-.023,15.032a1.044,1.044,0,0,1-.135.409" transform="translate(2.597 4.152)" fill="#fedf7d"/>
          <path id="Trazado_137150" data-name="Trazado 137150" d="M126.553,104.065c.02,5.211.031,10.423.069,15.633,0,.609-.151.863-.812.855-4.622-.057-9.245-.081-13.867-.116a18.707,18.707,0,0,1-.124-3.919c-.028-3.748.043-7.5-.04-11.246-.027-1.25.461-1.667,1.594-1.672q5.843-.03,11.684,0a2.011,2.011,0,0,1,1.5.462" transform="translate(4.48 4.152)" fill="#fedf7c"/>
          <path id="Trazado_137151" data-name="Trazado 137151" d="M72.387,129.293c-4.089,0-8.178-.032-12.266.024-.964.012-1.313-.252-1.2-1.212.148-1.29-.564-3.014.313-3.763.743-.637,2.408-.224,3.665-.225,7.3-.01,14.6.021,21.9-.032,1.123-.008,1.453.319,1.356,1.4-.107,1.2.379,2.81-.233,3.526-.711.835-2.365.257-3.607.273-3.31.041-6.62.014-9.93.014" transform="translate(2.356 4.97)" fill="#eae8ea"/>
          <path id="Trazado_137152" data-name="Trazado 137152" d="M25.55,129.288c-4.092,0-8.183-.024-12.275.019-.9.009-1.335-.144-1.228-1.166a13.956,13.956,0,0,0,0-2.773c-.1-1.043.289-1.289,1.3-1.282,6.965.043,13.931.023,20.9.023,1.315,0,2.631.037,3.945-.015.8-.031,1.156.178,1.1,1.048a19.221,19.221,0,0,0,0,3.066c.088.971-.331,1.1-1.169,1.1-4.188-.036-8.378-.017-12.567-.017" transform="translate(0.482 4.974)" fill="#ebe9eb"/>
          <path id="Trazado_137153" data-name="Trazado 137153" d="M119.307,129.294c-4.044,0-8.088-.03-12.132.022-1.006.012-1.56-.11-1.4-1.309.167-1.238-.518-2.87.273-3.647s2.41-.231,3.663-.235c7.308-.022,14.616.011,21.924-.035,1.057-.006,1.524.2,1.381,1.347-.154,1.24.511,2.854-.258,3.647-.706.728-2.309.192-3.514.2-3.313.027-6.626.009-9.939.009" transform="translate(4.235 4.968)" fill="#ebe9eb"/>
          <path id="Trazado_137154" data-name="Trazado 137154" d="M79.607,120.54c-.007-4.972-.045-9.944,0-14.915.009-1.08-.283-1.432-1.393-1.415q-5.921.1-11.844,0c-1.111-.018-1.4.338-1.391,1.416.044,4.972.007,9.943,0,14.915-.319-.386-.161-.844-.161-1.264,0-6.191.033-12.381,0-18.572-.005-1.014.149-1.458,1.328-1.436,4.142.078,8.286.04,12.429.021.71,0,1.185.027,1.182.974-.024,6.629,0,13.259,0,19.888a1.161,1.161,0,0,1-.156.388" transform="translate(2.597 3.979)" fill="#fec169"/>
          <path id="Trazado_137155" data-name="Trazado 137155" d="M59.08,95.152c-.4-1.426-.072-2.877-.134-4.314-.043-.993.755-.683,1.261-.685,4.91-.019,9.82-.011,14.731-.011,3.354,0,6.709.031,10.063-.02.908-.015,1.223.276,1.136,1.156-.126,1.288.239,2.6-.156,3.875-.487-1.277-1.431-1.542-2.739-1.532q-10.71.092-21.423,0c-1.307-.01-2.252.255-2.739,1.532" transform="translate(2.36 3.612)" fill="#d9d7da"/>
          <path id="Trazado_137156" data-name="Trazado 137156" d="M12.122,93.2c-.184-3.054-.184-3.054,2.769-3.054,7.649,0,15.3.024,22.947-.026,1.14-.007,1.611.281,1.433,1.446-.184,1.2.335,2.463-.265,3.639-.491-1.395-1.56-1.573-2.885-1.563-7.208.046-14.416.027-21.622.015a3.279,3.279,0,0,1-2.377-.457" transform="translate(0.483 3.612)" fill="#d9d7da"/>
          <path id="Trazado_137157" data-name="Trazado 137157" d="M106.054,95.2c-.595-1.528-.208-3.112-.2-4.663,0-.648.787-.383,1.22-.385,4.581-.02,9.162-.012,13.743-.012,3.557,0,7.115.05,10.671-.028,1.169-.026,1.74.2,1.523,1.481a12.209,12.209,0,0,0-.069,1.6,3.292,3.292,0,0,1-2.378.457c-7.208.012-14.417.031-21.624-.015-1.325-.008-2.4.169-2.886,1.564" transform="translate(4.238 3.612)" fill="#d9d7da"/>
          <path id="Trazado_137158" data-name="Trazado 137158" d="M32.639,120.614c0-4.971-.04-9.941.011-14.912.012-1.135-.286-1.513-1.467-1.495-4.385.068-8.771.028-13.157.029-.02-1.314-.01-2.628-.07-3.94-.033-.73.162-1.023.963-1.016,4.334.035,8.669.025,13,.007.631,0,.982.089.98.857-.021,6.672-.007,13.345,0,20.018,0,.2-.04.379-.262.45" transform="translate(0.72 3.979)" fill="#fdc168"/>
          <path id="Trazado_137159" data-name="Trazado 137159" d="M126.559,104.237c-4.385,0-8.77.038-13.154-.029-1.177-.019-1.48.355-1.469,1.493.052,4.97.016,9.939.011,14.909-.5-.3-.245-.794-.247-1.185-.016-6.28.017-12.561-.024-18.841-.007-1.008.241-1.325,1.284-1.31q6.206.09,12.413,0c1.063-.017,1.334.333,1.26,1.321-.092,1.21-.056,2.429-.076,3.644" transform="translate(4.475 3.979)" fill="#fcc168"/>
          <path id="Trazado_137160" data-name="Trazado 137160" d="M12.121,93.077q12.409,0,24.819,0c2.389,0,2.007-.144,2.065,2.009q-8.454.039-16.91.075c-2.674.009-5.348,0-8.022,0-2.077,0-2.077,0-1.952-2.082" transform="translate(0.484 3.731)" fill="#ebe9eb"/>
          <path id="Trazado_137161" data-name="Trazado 137161" d="M59.072,95.034c.059-1.961.059-1.962,1.978-1.962H83.993c1.919,0,1.919,0,1.978,1.962a.786.786,0,0,1-.267.109q-13.183.006-26.365,0a.807.807,0,0,1-.267-.109" transform="translate(2.368 3.731)" fill="#ebe9eb"/>
          <path id="Trazado_137162" data-name="Trazado 137162" d="M106.041,95.084c.055-2.158-.32-2.01,2.065-2.01q12.412,0,24.824,0c.019.387.018.777.062,1.162.074.648-.081.942-.847.938-8.7-.053-17.4-.069-26.1-.094" transform="translate(4.25 3.731)" fill="#ebe9eb"/>
          <path id="Trazado_137163" data-name="Trazado 137163" d="M34.729,59.284c0-2.628-.019-5.258.007-7.886.019-1.964.8-2.71,2.767-2.727,1.411-.012,2.824-.026,4.234,0a6.077,6.077,0,0,1,5.7,8.554,1.19,1.19,0,0,0,.252,1.5,6.4,6.4,0,0,1,1.225,7.3,6.487,6.487,0,0,1-6.369,4.033c-1.606,0-3.213.025-4.819.021-2.383-.005-2.987-.622-3-3.059-.008-2.579,0-5.16,0-7.739" transform="translate(1.392 1.95)"/>
          <path id="Trazado_137164" data-name="Trazado 137164" d="M78.615,58.425c0,3-.014,6,.007,8.993a2.393,2.393,0,0,1-1.384,2.506c-1.529.651-2.991-.437-3-2.257-.026-4.577-.009-9.155-.009-13.732,0-.731.024-1.462-.005-2.191-.052-1.295.1-2.47,1.582-2.911,1.406-.419,2.153.45,2.848,1.465q3.087,4.517,6.21,9.009c.3.427.607.846.956,1.33.387-.435.224-.882.223-1.276-.007-2.776-.068-5.552-.049-8.327a2.223,2.223,0,0,1,2.251-2.357,2.2,2.2,0,0,1,2.113,2.332q.123,8.033.187,16.068a2.494,2.494,0,0,1-1.758,2.718c-1.357.417-2.212-.3-2.927-1.335q-3.476-5.045-6.966-10.08l-.277.047" transform="translate(2.975 1.951)"/>
          <path id="Trazado_137165" data-name="Trazado 137165" d="M52.633,67.83c.111-.367.213-.794.367-1.2,2-5.264,4.028-10.52,6.01-15.793a2.74,2.74,0,0,1,2.619-2.146c1.411,0,2.149.924,2.612,2.163,1.969,5.277,3.965,10.544,5.935,15.821.589,1.577.137,2.851-1.108,3.286-1.317.46-2.363-.159-3-1.776-.9-2.272-.9-2.272-3.341-2.272a9.111,9.111,0,0,1-1.168-.006c-2.338-.3-4.233-.066-4.739,2.856-.19,1.1-1.333,1.488-2.476,1.242a2.213,2.213,0,0,1-1.709-2.175" transform="translate(2.11 1.952)"/>
          <path id="Trazado_137166" data-name="Trazado 137166" d="M100.407,54.429c1.962-1.8,3.655-3.383,5.378-4.931,1.2-1.078,2.444-1.073,3.348-.054a2.194,2.194,0,0,1-.343,3.229c-1.982,1.875-3.97,3.748-6.027,5.538-.732.638-.615.949.016,1.535,2.175,2.025,4.3,4.1,6.435,6.174,1.269,1.232,1.419,2.6.429,3.559-.952.926-2.232.788-3.468-.392q-2.694-2.574-5.376-5.161c-.03-.029-.093-.026-.39-.1,0,1.226.015,2.4,0,3.572-.028,1.773-.78,2.682-2.184,2.678s-2.187-.935-2.194-2.688q-.025-8.114,0-16.23c.006-1.7.877-2.684,2.237-2.661s2.114.993,2.139,2.737c.014.954,0,1.908,0,3.194" transform="translate(3.849 1.944)"/>
          <path id="Trazado_137167" data-name="Trazado 137167" d="M63.482,33.829A9.2,9.2,0,1,1,72.663,43a9.139,9.139,0,0,1-9.181-9.166" transform="translate(2.545 0.986)"/>
          <path id="Trazado_137168" data-name="Trazado 137168" d="M38.945,62.838c0-2.392,0-2.392,2.462-2.392,2.433,0,3.583.794,3.545,2.441-.036,1.579-1.091,2.275-3.509,2.316H41.3c-2.352.046-2.352.046-2.352-2.366" transform="translate(1.561 2.423)" fill="#ebe9eb"/>
          <path id="Trazado_137169" data-name="Trazado 137169" d="M40.546,56.366c-.442-.217-1.379.446-1.533-.392a4.948,4.948,0,0,1,.144-3c.142-.309,3.148-.045,3.539.266a1.6,1.6,0,0,1,.677,1.788c-.362,1.237-1.341,1.406-2.436,1.34-.1-.006-.194,0-.391,0" transform="translate(1.557 2.118)" fill="#e6e4e6"/>
          <path id="Trazado_137170" data-name="Trazado 137170" d="M61.331,56.061l1.922,5.109H59.411l1.92-5.109" transform="translate(2.381 2.247)" fill="#e8e6e8"/>
          <path id="Trazado_137171" data-name="Trazado 137171" d="M77.185,34.192A4.733,4.733,0,1,1,67.8,32.954c2.021-2.606,6.862-2.243,8.849-.437a1.4,1.4,0,0,1,.536,1.675" transform="translate(2.716 1.246)" fill="#fedf7c"/>
          <path id="Trazado_137172" data-name="Trazado 137172" d="M77.184,34.282c-.337-1.482-2.049-2.528-4.154-2.719A8.946,8.946,0,0,0,67.8,33.044a4.734,4.734,0,1,1,9.385,1.238" transform="translate(2.718 1.156)" fill="#fdc168"/>
        </g>
      </g>
      <g id="Grupo_159208" data-name="Grupo 159208" transform="translate(1256.207 445.371)">
        <g id="Grupo_159207" data-name="Grupo 159207" clip-path="url(#clip-path-2)">
          <path id="Trazado_137173" data-name="Trazado 137173" d="M143.793,53.452v88.1c-.322,1.413-1.275,1.7-2.612,1.7q-69.148-.036-138.3-.022c-2.315,0-2.882-.566-2.882-2.9Q0,116.912,0,93.488,0,74.2,0,54.917c0-3.484,1.211-4.7,4.741-4.713,7.528-.017,15.055,0,22.582-.008,2.041,0,2.094-.067,2.105-2.145,0-.42-.023-.843,0-1.262a1.675,1.675,0,0,0-1.368-1.948,4.29,4.29,0,0,1-3.238-3.982,49.063,49.063,0,0,1,0-9.8c.291-2.76,1.944-4.11,4.74-4.137,4.535-.042,9.07-.009,13.6-.013.467,0,.935-.009,1.4-.019a1,1,0,0,0,1.116-1.127c.007-.42.015-.841.015-1.262q0-9.467,0-18.935c0-.561-.014-1.123.033-1.682A3.929,3.929,0,0,1,49.869.012C55.62-.011,61.371,0,67.121,0q13.185,0,26.369,0c3.231,0,4.71,1.447,4.725,4.713.032,6.639.006,13.278.012,19.917,0,2.232.04,2.269,2.272,2.273,4.488.006,8.977-.012,13.465.006,3.342.015,5.04,1.54,5.243,4.88a77.352,77.352,0,0,1,.006,8.271c-.112,2.413-1.153,4.208-3.641,4.9a1.168,1.168,0,0,0-1,1.029,18.656,18.656,0,0,0-.006,3.359.81.81,0,0,0,.817.794,13.217,13.217,0,0,0,1.541.05q10.588,0,21.179,0c.514,0,1.028-.006,1.542.007,2.573.064,3.547.827,4.152,3.247"/>
          <path id="Trazado_137174" data-name="Trazado 137174" d="M104.232,138.75c-2.335.023-4.67.01-7,.087-.873.029-1.1-.247-1.092-1.106.047-3.551.02-7.1.019-10.656q0-9.955,0-19.911c0-3.179-1.526-4.723-4.731-4.726q-19.42-.021-38.84,0c-3.3,0-4.814,1.523-4.816,4.785,0,10.049-.022,20.1.026,30.147.006,1.147-.254,1.505-1.44,1.48-3.644-.079-7.291-.073-10.936,0-1.065.021-1.311-.277-1.306-1.321.041-10.143,0-20.285.045-30.427.006-1.539-.509-2.512-2.037-2.863a7.74,7.74,0,0,1,.005-5.579c1.567-.319,2.032-1.33,2.03-2.853-.03-16.538,0-33.077-.052-49.615,0-1.327.387-1.589,1.627-1.583,10.558.048,21.117.018,31.675.038,1.31,0,2.428-.2,2.938-1.6.825-1.4,4.954-1.4,5.77,0,.485,1.316,1.518,1.6,2.795,1.6q11.9-.033,23.8-.007c.51,0,1.02.054,1.529.082a3.547,3.547,0,0,1,.453,2.426q.012,15.707.005,31.411,0,28.816-.007,57.634a3.652,3.652,0,0,1-.453,2.561" fill="#ecf3fe"/>
          <path id="Trazado_137175" data-name="Trazado 137175" d="M25.107,138.748q-10.02.034-20.039.079c-.532,0-.787-.144-.728-.707a7.861,7.861,0,0,0,0-.841q0-34.275-.032-68.549c0-1.292.34-1.585,1.59-1.569,6.4.082,12.8.064,19.2.081a1.872,1.872,0,0,1,.436,1.428c.024,2.513.031,5.026-.005,7.539a1.7,1.7,0,0,1-.47,1.407c-4.152-.847-8.356-.307-12.535-.45a4.267,4.267,0,0,0-1.8.209,1.565,1.565,0,0,0-1.1,1.742,1.474,1.474,0,0,0,1.392,1.342,8.585,8.585,0,0,0,1.537.068c4.146-.071,8.3.2,12.437-.233a1.658,1.658,0,0,1,.542,1.507q.051,4.038,0,8.076a1.762,1.762,0,0,1-.508,1.525c-4.181-.395-8.374-.144-12.563-.21a6.466,6.466,0,0,0-1.672.11,1.371,1.371,0,0,0-1.183,1.209,1.537,1.537,0,0,0,.808,1.645,3.474,3.474,0,0,0,1.757.39c3.314.02,6.627-.007,9.941.017,1,.007,1.857-.645,2.864-.52a1.318,1.318,0,0,1,.536,1.216c.052,3.054.073,6.107-.01,9.16a1.682,1.682,0,0,1-.23.793.5.5,0,0,1-.607.189c-4.426-.984-8.907-.273-13.36-.416a1.473,1.473,0,0,0-1.692,1.479c-.049,1.091.655,1.571,1.618,1.767a6.985,6.985,0,0,0,1.394.075q3.285.006,6.571,0a18.351,18.351,0,0,0,5.8-.481,1.653,1.653,0,0,1,.529,1.517c.032,2.751.027,5.5,0,8.254a1.847,1.847,0,0,1-.479,1.547c-4.155-.854-8.364-.308-12.547-.452a3.954,3.954,0,0,0-1.927.27,1.543,1.543,0,0,0-.955,1.7,1.455,1.455,0,0,0,1.274,1.3,5.363,5.363,0,0,0,1.117.087c3.459.007,6.918-.015,10.377.016.892.008,1.728-.457,2.63-.229a2.1,2.1,0,0,1,.522,1.808q.027,6.7,0,13.392a2.363,2.363,0,0,1-.448,1.711" fill="#c2dcfe"/>
          <path id="Trazado_137176" data-name="Trazado 137176" d="M134.252,138.747c-6.5.024-12.994.039-19.491.083-.648,0-.821-.255-.762-.829a6.807,6.807,0,0,0,0-.7q0-34.3-.025-68.6c0-1.161.177-1.571,1.478-1.55,6.263.1,12.529.071,18.793.088a2.029,2.029,0,0,1,.442,1.558c.021,2.222.025,4.445,0,6.667a1.937,1.937,0,0,1-.522,1.658,11.95,11.95,0,0,1-3.331.02c-2.986.055-5.974,0-8.961.029-1.758.02-2.751.7-2.706,1.779.043,1.043.9,1.571,2.7,1.566,3.781-.011,7.561.075,11.341-.049.416-.014.847-.093,1.183.264a3.533,3.533,0,0,1,.3,1.913c.009,2.15.025,4.3-.009,6.45-.011.731.072,1.538-.787,1.942a21.63,21.63,0,0,1-4.317.145c-2.8.037-5.594-.025-8.39.03-1.247.024-2.076.618-2.04,1.462.047,1.132.877,1.558,1.85,1.775a6.5,6.5,0,0,0,1.532.1c3.586-.064,7.177.155,10.761-.135a1.556,1.556,0,0,1,.819.134,1.669,1.669,0,0,1,.565,1.509c.034,2.473.038,4.946,0,7.419a1.667,1.667,0,0,1-.495,1.4c-1.951.225-3.908.008-5.863.051-2.147.047-4.3.007-6.446.013a4.912,4.912,0,0,0-1.527.152,1.511,1.511,0,0,0-1.171,1.413,1.578,1.578,0,0,0,1.115,1.609,4.748,4.748,0,0,0,1.8.183c3.782-.048,7.566.121,11.347-.1a1.483,1.483,0,0,1,.685.118,1.674,1.674,0,0,1,.556,1.513c.036,2.427.032,4.855,0,7.283a1.8,1.8,0,0,1-.516,1.535,9.626,9.626,0,0,1-3.054.022c-3.083.049-6.167-.006-9.25.028-1.758.02-2.75.711-2.695,1.792.054,1.041.91,1.558,2.719,1.553,3.784-.012,7.568.076,11.351-.05.416-.014.851-.091,1.171.292a3.078,3.078,0,0,1,.291,1.629q.015,6.489,0,12.98a2.552,2.552,0,0,1-.451,1.851" fill="#c2dcfe"/>
          <path id="Trazado_137177" data-name="Trazado 137177" d="M76.112,43.048c-.258-.244-.447-.554-.892-.545q-1.992.038-3.984,0c-.445-.009-.635.3-.895.542-.073-2.028-.663-2.612-2.753-2.617-5.324-.013-10.648-.039-15.97.025-1.091.013-1.285-.318-1.282-1.332q.057-16.671.015-33.342c0-.764-.031-1.25,1.049-1.246,11.814.046,23.629.029,35.443.033a4.506,4.506,0,0,1,.553.065,2.566,2.566,0,0,1,.452,1.86q.012,15.982,0,31.964c0,1.871-.116,1.928-2,1.95-2.754.032-5.51-.1-8.263.074a2.275,2.275,0,0,0-1.47,2.569" fill="#f9f4db"/>
          <path id="Trazado_137178" data-name="Trazado 137178" d="M69.859,122.664c0,5-.021,10,.02,15,.007.9-.212,1.185-1.15,1.176q-7.851-.067-15.7,0c-.884.007-1.076-.249-1.073-1.1q.045-15-.005-30c0-.979.34-1.128,1.2-1.122q7.85.051,15.7,0c.8,0,1.065.1,1.051,1.04-.076,5-.036,10-.036,15Z" fill="#f8f6f7"/>
          <path id="Trazado_137179" data-name="Trazado 137179" d="M74.051,122.524c0-5.046.024-10.092-.028-15.137-.007-.708.238-.751.774-.751,5.42.009,10.84.034,16.259-.018,1.119-.011.889.652.889,1.267q0,11.775,0,23.549c0,2.149-.028,4.3.016,6.447.015.721-.169.959-.925.954-5.326-.031-10.653-.045-15.979.009-1,.01-1-.454-1-1.182.018-5.046.009-10.092.009-15.138h-.02" fill="#f8f6f7"/>
          <path id="Trazado_137180" data-name="Trazado 137180" d="M104.232,138.75q0-47.016,0-94.032c1.586-.028,3.173-.043,4.758-.091.6-.018.865.206.806.815-.027.278,0,.561,0,.841q0,45.45.034,90.9c0,1.36-.321,1.808-1.679,1.663-1.294-.138-2.61-.071-3.917-.094" fill="#dae9fe"/>
          <path id="Trazado_137181" data-name="Trazado 137181" d="M133.936,118.569c.084-.107.241-.213.244-.322.088-3.2.163-6.4-.035-9.6-.005-.073-.114-.139-.175-.208a4.861,4.861,0,0,0,.048-3.653c.492-.969.188-2,.217-3,.056-1.9.027-3.81.009-5.715-.005-.487.176-1.042-.342-1.414a3.487,3.487,0,0,0-.2-3.883c.681-.115.547-.65.547-1.094q0-4.541-.022-9.08a5.566,5.566,0,0,0-.295-3.553c.495-.389.311-.942.312-1.429.015-2.792.006-5.583.005-8.375,1.494-.016,2.988,0,4.481-.063.666-.025.954.177.86.858a5.105,5.105,0,0,0-.005.7q0,34.265.03,68.529c0,1.279-.313,1.7-1.589,1.575-1.248-.127-2.515-.07-3.774-.093q-.014-8.314-.026-16.629a5.577,5.577,0,0,0-.289-3.55" fill="#a3cbfe"/>
          <path id="Trazado_137182" data-name="Trazado 137182" d="M25.107,138.748c0-5.09.007-10.179-.01-15.269,0-.532.217-1.133-.294-1.582.053-.929.04-1.86.085-2.789a3.6,3.6,0,0,0,.2-2.18c-.081-3.014.261-6.036-.174-9.042a5.36,5.36,0,0,1,.149-2.424q.021-5.211.041-10.421a1.056,1.056,0,0,0-.248-.9,20.618,20.618,0,0,0-.032-2.8c.092-.2.263-.406.264-.61q.024-4.878,0-9.757c0-.2-.184-.4-.283-.6.048-.929.044-1.86.08-2.79a5.75,5.75,0,0,0,.209-2.715c.039-2.541.012-5.084.011-7.625,1.211-.017,2.427.031,3.63-.07,1-.084,1.221.269,1.215,1.233-.043,6.945-.023,13.89-.023,20.836,0,2.19-.007,4.381,0,6.572.008,1.84.431,2.376,2.194,2.842q0,2.79,0,5.579c-1.83.55-2.191,1.034-2.191,3.008,0,10.07-.018,20.141.022,30.212,0,1.063-.216,1.5-1.356,1.385s-2.324-.068-3.487-.091" fill="#a3cbfe"/>
          <path id="Trazado_137183" data-name="Trazado 137183" d="M77.582,40.479c1.356-.5,2.759-.158,4.139-.219a38.192,38.192,0,0,1,4.2.007c1.152.076,1.509-.288,1.5-1.471-.047-8.868-.026-17.736-.026-26.6V4.631c1.818-.023,3.636-.032,5.453-.078.536-.013.786.15.724.709a6.281,6.281,0,0,0,0,.7c0,11.015-.02,22.031.029,33.047,0,1.176-.294,1.458-1.456,1.445-4.852-.053-9.706.007-14.56.025" fill="#f4eacc"/>
          <path id="Trazado_137184" data-name="Trazado 137184" d="M4.391,62.707c-.015-2.337-.009-4.674-.06-7.01-.015-.67.182-.869.859-.865,6.638.04,13.276.047,19.914.064a1.269,1.269,0,0,1,.4.871,57.354,57.354,0,0,1,.006,6.009,1,1,0,0,1-1.147,1.082c-6.526-.024-13.052,0-19.578-.017a.949.949,0,0,1-.39-.134" fill="#dfdee0"/>
          <path id="Trazado_137185" data-name="Trazado 137185" d="M114.065,62.71c-.021-2.375-.02-4.75-.075-7.124-.015-.663.275-.751.832-.748q9.714.045,19.428.059a1.4,1.4,0,0,1,.416,1.01c.076,1.913.08,3.826,0,5.738-.03.72-.271,1.218-1.171,1.214-6.346-.027-12.693,0-19.039-.018a1,1,0,0,1-.392-.131" fill="#dfdee0"/>
          <path id="Trazado_137186" data-name="Trazado 137186" d="M37.732,40.424c-2.427,0-4.855-.026-7.282.015-.78.013-1.065-.213-1.049-1.024q.069-3.5,0-7c-.014-.77.286-.933.985-.93q7.422.035,14.844,0c.735,0,.951.2.937.937-.045,2.334-.049,4.669,0,7,.017.8-.219,1.037-1.016,1.022-2.473-.047-4.948-.017-7.422-.017" fill="#dfdee0"/>
          <path id="Trazado_137187" data-name="Trazado 137187" d="M105.915,31.567c2.568-.023,5.136-.032,7.7-.08.661-.013.9.2.894.88-.031,2.383-.026,4.767,0,7.151.007.638-.171.923-.866.92-5.141-.016-10.283,0-15.424-.007-.117,0-.233-.112-.35-.173a2.415,2.415,0,0,1,1.848-.423c1.3-.025,2.608,0,3.911-.011,1.753-.013,1.829-.084,1.844-1.791.015-1.583,0-3.166.009-4.749a2.412,2.412,0,0,1,.433-1.717" fill="#d1cdd0"/>
          <path id="Trazado_137188" data-name="Trazado 137188" d="M105.915,31.567V38.4c0,1.836,0,1.834-1.77,1.838q-3.138.008-6.275.02c-.03-2.695-.047-5.39-.1-8.085-.012-.589.246-.691.752-.683,2.464.04,4.929.054,7.394.077" fill="#dfdee0"/>
          <path id="Trazado_137189" data-name="Trazado 137189" d="M114.065,62.71c6.256,0,12.512-.02,18.767.022,1.065.007,1.5-.236,1.447-1.394-.092-2.143-.028-4.294-.029-6.441,1.494-.017,2.99-.005,4.482-.064.673-.026.879.187.867.863-.039,2.149-.025,4.3-.007,6.449,0,.538-.054.852-.735.851q-12.2-.028-24.4-.007c-.2,0-.36-.049-.394-.279" fill="#d2ced1"/>
          <path id="Trazado_137190" data-name="Trazado 137190" d="M4.391,62.707c6.436,0,12.871-.019,19.306.026,1.081.008,1.483-.263,1.435-1.4-.088-2.141-.027-4.289-.028-6.434,1.351-.017,2.7-.008,4.054-.061.629-.025.786.219.779.809-.028,2.192-.019,4.384-.006,6.577,0,.487-.069.773-.674.771q-12.313-.027-24.627-.028c-.08,0-.159-.168-.239-.257" fill="#d2ced1"/>
          <path id="Trazado_137191" data-name="Trazado 137191" d="M91.581,73.059c1.542,0,3.084-.019,4.625.005a2.981,2.981,0,0,1,3.231,3.23c.033,2.8.037,5.607,0,8.41A2.953,2.953,0,0,1,96.4,87.865q-4.833.114-9.67,0a2.908,2.908,0,0,1-2.995-3.177c-.026-2.849-.032-5.7,0-8.549a2.915,2.915,0,0,1,3.08-3.076c.093,0,.186,0,.28,0h4.485"/>
          <path id="Trazado_137192" data-name="Trazado 137192" d="M52.309,68.593c-1.542,0-3.085.024-4.627-.007a3,3,0,0,1-3.187-3.151q-.06-4.275,0-8.553A2.987,2.987,0,0,1,47.7,53.751q4.626-.045,9.254,0A2.967,2.967,0,0,1,60.2,56.971q.039,4.208,0,8.414a2.977,2.977,0,0,1-3.26,3.2c-1.542.023-3.085,0-4.627,0"/>
          <path id="Trazado_137193" data-name="Trazado 137193" d="M71.927,68.594c-1.5,0-2.992.015-4.487,0a3.016,3.016,0,0,1-3.328-3.284q-.031-4.135,0-8.273a3.008,3.008,0,0,1,3.326-3.284q4.557-.033,9.115,0a2.988,2.988,0,0,1,3.26,3.212q.043,4.206,0,8.413a3,3,0,0,1-3.259,3.214c-1.542.024-3.085.005-4.627.005"/>
          <path id="Trazado_137194" data-name="Trazado 137194" d="M52.344,87.892c-1.5,0-2.991.027-4.485-.007a3.081,3.081,0,0,1-3.371-3.412c-.019-2.71-.025-5.421,0-8.13a2.99,2.99,0,0,1,3.32-3.28q4.555-.027,9.111,0c2.149.015,3.26,1.136,3.277,3.3q.033,4.065,0,8.13c-.014,2.2-1.148,3.342-3.371,3.39-1.494.032-2.99.006-4.485.006"/>
          <path id="Trazado_137195" data-name="Trazado 137195" d="M91.605,53.743c1.542,0,3.085-.024,4.627.007a3,3,0,0,1,3.2,3.139q.064,4.277,0,8.553a2.993,2.993,0,0,1-3.195,3.143q-4.627.046-9.254,0a2.965,2.965,0,0,1-3.251-3.209q-.042-4.206,0-8.413a2.972,2.972,0,0,1,3.245-3.217c1.542-.026,3.085-.005,4.627-.005"/>
          <path id="Trazado_137196" data-name="Trazado 137196" d="M71.917,87.892c-1.449,0-2.9.02-4.346,0-2.307-.039-3.451-1.181-3.462-3.448-.012-2.71-.017-5.42,0-8.13a2.939,2.939,0,0,1,3.2-3.244q4.7-.039,9.392,0a2.908,2.908,0,0,1,3.107,3.05q.062,4.346,0,8.691a3.014,3.014,0,0,1-3.127,3.081c-.093.006-.187,0-.28,0H71.917"/>
          <path id="Trazado_137197" data-name="Trazado 137197" d="M25.065,105.462a2.629,2.629,0,0,1-.148,2.424,2.931,2.931,0,0,1-2.285.842c-3.647-.027-7.294,0-10.94-.014-1.741,0-2.7-.786-2.674-2.152.021-1.321.929-2.047,2.611-2.051,3.646-.008,7.293.022,10.939-.018a3.02,3.02,0,0,1,2.5.969"/>
          <path id="Trazado_137198" data-name="Trazado 137198" d="M24.884,77.582a2.424,2.424,0,0,1-.079,2.79,3.126,3.126,0,0,1-2.079.638c-3.735-.024-7.47,0-11.2-.015-1.6-.005-2.463-.717-2.5-2-.04-1.337.878-2.185,2.491-2.195,3.735-.022,7.469.005,11.2-.015a3.083,3.083,0,0,1,2.169.8" fill="#000101"/>
          <path id="Trazado_137199" data-name="Trazado 137199" d="M24.826,91.338a2.431,2.431,0,0,1,.032,2.8,3.047,3.047,0,0,1-2.045.751c-3.78-.012-7.559.013-11.338-.014-1.56-.011-2.436-.8-2.456-2.086A1.936,1.936,0,0,1,11,90.709c4.1-.046,8.211-.014,12.317-.017a2.658,2.658,0,0,1,1.508.646" fill="#010101"/>
          <path id="Trazado_137200" data-name="Trazado 137200" d="M24.888,119.108A2.428,2.428,0,0,1,24.8,121.9a3.193,3.193,0,0,1-2.082.639c-3.734-.024-7.47,0-11.2-.015-1.594-.006-2.462-.731-2.5-2.013-.037-1.336.888-2.176,2.5-2.184,3.735-.019,7.47.006,11.205-.016a3.05,3.05,0,0,1,2.167.8" fill="#000101"/>
          <path id="Trazado_137201" data-name="Trazado 137201" d="M134.019,104.788c1.224,1.431,1.214,2.25-.048,3.653a5.451,5.451,0,0,1-1.639.285c-3.692-.018-7.384,0-11.075-.013-1.629,0-2.614-.791-2.646-2.068-.033-1.325.973-2.132,2.7-2.135,3.645-.006,7.289,0,10.934-.008a4.521,4.521,0,0,1,1.776.286"/>
          <path id="Trazado_137202" data-name="Trazado 137202" d="M133.931,77.045c1.238,1.327,1.3,2.024.3,3.553a4.013,4.013,0,0,1-1.881.41c-3.727-.018-7.453,0-11.18-.013-1.6-.005-2.586-.841-2.553-2.116a2.212,2.212,0,0,1,2.494-2.08q5.659-.033,11.319,0a9.566,9.566,0,0,1,1.505.243" fill="#000101"/>
          <path id="Trazado_137203" data-name="Trazado 137203" d="M133.7,90.773c1.588,1.337,1.641,2.38.2,3.884a13.993,13.993,0,0,1-3.9.224q-4.339.027-8.681,0c-1.707-.009-2.731-.841-2.712-2.15.018-1.268.987-2.054,2.632-2.048,4.153.014,8.305.057,12.457.089" fill="#010101"/>
          <path id="Trazado_137204" data-name="Trazado 137204" d="M133.936,118.569c1.232,1.328,1.289,2.026.289,3.55a4.029,4.029,0,0,1-1.881.415c-3.727-.016-7.455,0-11.182-.013-1.6-.006-2.586-.85-2.55-2.125.034-1.235.992-2.064,2.5-2.071q5.661-.03,11.322,0a9.7,9.7,0,0,1,1.5.24" fill="#000101"/>
          <path id="Trazado_137205" data-name="Trazado 137205" d="M71.959,8.818c.514,0,1.027,0,1.541,0,3.212.017,5.154,1.93,5.188,5.106.019,1.839.019,1.839,1.825,1.861a4.8,4.8,0,0,1,5.158,5.151q.017,1.542,0,3.082c-.037,3.189-1.966,5.227-5.155,5.135-1.542-.045-1.927.349-1.871,1.88.113,3.125-1.887,5.06-5,5.112q-1.68.027-3.362,0c-3.118-.052-5.114-1.982-5-5.107.053-1.52-.311-1.931-1.863-1.885-3.192.1-5.121-1.943-5.155-5.131-.011-1.073-.017-2.148,0-3.222a4.774,4.774,0,0,1,5.009-5.013c1.946-.037,1.946-.037,1.965-1.859.033-3.183,1.97-5.092,5.184-5.109.514,0,1.027,0,1.541,0"/>
          <path id="Trazado_137206" data-name="Trazado 137206" d="M64.707,124.243c0,.933.035,1.867-.01,2.8a2.081,2.081,0,0,1-4.159.11c-.081-1.955-.082-3.918,0-5.874a2.084,2.084,0,0,1,4.164.168c.035.932.007,1.865.006,2.8" fill="#010101"/>
          <path id="Trazado_137207" data-name="Trazado 137207" d="M79.217,124.079c0-.933-.021-1.867.006-2.8a2.073,2.073,0,0,1,4.135-.2,60.423,60.423,0,0,1,0,6.153,2.074,2.074,0,0,1-4.134-.216c-.028-.979,0-1.96,0-2.94" fill="#010101"/>
          <path id="Trazado_137208" data-name="Trazado 137208" d="M91.64,77.216c1.155.052,2.672-.319,3.368.273.738.628.2,2.192.218,3.345.035,2.851.012,2.861-2.929,2.848-1.393-.007-3.25.478-4.058-.224-.927-.807-.258-2.713-.293-4.139-.051-2.051-.013-2.052,2.011-2.052h1.681l0-.051" fill="#f7f5f6"/>
          <path id="Trazado_137209" data-name="Trazado 137209" d="M52.438,64.286c-1.2,0-2.776.461-3.5-.126-.771-.624-.217-2.265-.233-3.46-.036-2.748-.011-2.749,2.714-2.749,1.212,0,2.425.034,3.634-.013.691-.026.994.125.963.9-.061,1.582-.039,3.169-.007,4.752.012.588-.139.838-.773.805-.93-.049-1.864-.012-2.8-.012,0-.034,0-.067,0-.1" fill="#f8f6f7"/>
          <path id="Trazado_137210" data-name="Trazado 137210" d="M71.924,64.295c-1.155,0-2.718.456-3.361-.118-.766-.684-.222-2.273-.238-3.468-.035-2.758-.011-2.758,2.7-2.758,1.212,0,2.425.034,3.635-.013.685-.027,1,.1.971.893-.064,1.536-.05,3.077,0,4.614.021.7-.127,1.015-.907.957-.927-.07-1.863-.017-2.8-.017v-.09" fill="#f8f6f7"/>
          <path id="Trazado_137211" data-name="Trazado 137211" d="M52.414,77.212c1.154.056,2.675-.312,3.361.283.726.629.2,2.192.211,3.346.032,2.843.011,2.844-2.793,2.844-1.214,0-2.43-.033-3.643.012-.679.025-.888-.216-.871-.883q.06-2.381,0-4.763c-.014-.611.178-.822.791-.8.979.042,1.961.011,2.942.011,0-.018,0-.036,0-.054" fill="#f7f5f6"/>
          <path id="Trazado_137212" data-name="Trazado 137212" d="M91.253,64.385c-.935-.121-2.456.511-3.125-.243-.563-.637-.187-2.122-.192-3.232-.011-2.959,0-2.986,2.925-2.948,1.427.019,3.329-.616,4.142.267.706.766.22,2.647.23,4.035.016,2.121,0,2.121-2.092,2.121H91.253" fill="#f8f6f7"/>
          <path id="Trazado_137213" data-name="Trazado 137213" d="M72.273,77.266c.937.11,2.509-.514,3.124.231.582.705.206,2.219.212,3.377.013,2.811,0,2.811-2.83,2.811-1.168,0-2.338-.037-3.5.014-.7.03-1.005-.137-.976-.915.057-1.54.06-3.086,0-4.626-.031-.777.259-.946.961-.9.932.054,1.869.013,3.016.013" fill="#f8f6f7"/>
          <path id="Trazado_137214" data-name="Trazado 137214" d="M71.906,31.936c-2.873-.017-2.449.24-2.46-2.461C69.429,25,69.442,25,65.025,25c-2.922,0-2.556.178-2.557-2.547,0-2.764-.3-2.448,2.476-2.455,4.392-.011,4.484-.106,4.5-4.427.012-2.895-.38-2.537,2.511-2.537s2.512-.366,2.523,2.529c.015,4.342.095,4.424,4.487,4.435,2.793.007,2.48-.308,2.5,2.435a8,8,0,0,0,.006.98c.162,1.218-.326,1.711-1.57,1.6a26.429,26.429,0,0,0-2.939-.01c-1.752.045-2.45.749-2.476,2.477a23.734,23.734,0,0,0,.014,2.8c.133,1.275-.293,1.856-1.617,1.66a6.8,6.8,0,0,0-.979-.007" fill="#f27b7b"/>
        </g>
      </g>
      <path id="Unión_16" data-name="Unión 16" d="M4080.917,11735.7v-12.158H4072l33.5-23.547,33.5,23.547h-8.677v12.158Z" transform="translate(12951.928 -3568) rotate(90)" fill="#fc5f65"/>
    </g>
  </g>
</svg>
