<svg xmlns="http://www.w3.org/2000/svg" xmlns:xlink="http://www.w3.org/1999/xlink" width="1240" height="453" viewBox="0 0 1240 453">
  <defs>
    <clipPath id="clip-path">
      <rect id="Rect치ngulo_37918" data-name="Rect치ngulo 37918" width="1240" height="453" rx="13" transform="translate(180 856)" fill="#ff9fa3"/>
    </clipPath>
  </defs>
  <g id="Grupo_161675" data-name="Grupo 161675" transform="translate(-180 -856)">
    <rect id="Rect치ngulo_37582" data-name="Rect치ngulo 37582" width="1240" height="453" rx="13" transform="translate(180 856)" fill="#ff9fa3"/>
    <g id="Enmascarar_grupo_160" data-name="Enmascarar grupo 160" clip-path="url(#clip-path)">
      <g id="Grupo_160414" data-name="Grupo 160414" transform="translate(753 893.739)">
        <g id="Grupo_82657" data-name="Grupo 82657" transform="translate(0 25.762)" style="isolation: isolate">
          <path id="Trazado_115694" data-name="Trazado 115694" d="M238.17,582c52.347,53.564,106.444,105.162,161.572,155.847-23.837-53.89-49.533-106.922-72.165-161.377-25.652-61.735-55.476-145.883-23.131-210.638,73.708-147.6,260.03-2.77,328.6,71.524,7.3,7.921,14.277,16.189,21.339,24.359-24.5-60-46.556-121.644-40.732-186.464,8.007-89.125,89.712-110.507,160.051-69.09,75.533,44.459,136.2,121.394,186.855,191.266,43.025,59.344-55.422,115.842-98.111,57.345a771.79,771.79,0,0,0-76.7-89.712q6.112,11.2,12.353,22.349c27.521,49.164,54.7,98.523,77.13,150.273,42.938,99.077,106.444,236.247,52.423,340.464-27.228,52.521-91.07,57.855-139.136,36.484C723.909,885.9,679.156,822.48,636.012,768.807c-45.035-56.041-84.7-115.548-126.392-174.024C492.2,570.349,474.8,545.565,454.85,523.1c-.456-.522-.934-1-1.391-1.51l.5,1.575c11.072,34.42,25.3,67.45,39.722,100.566,26.815,61.615,61.409,126.468,71.231,193.5,8.681,59.279-15.32,125.718-86.615,121.416-67.026-4.042-120.742-68.6-165.549-111.713-54.26-52.217-107.552-105.466-160.855-158.66C96.231,612.733,183.183,525.748,238.17,582Z" transform="translate(-123.083 -174.949)" fill="#f49195"/>
          <path id="Trazado_115695" data-name="Trazado 115695" d="M494.57,959.6c26.3,0,48.632-9.235,64.875-26.923,22.577-24.587,32.334-64.636,26.109-107.128-8.116-55.4-32.28-108.464-55.639-159.769-5.6-12.288-11.137-24.457-16.373-36.5-4.965-11.419-10.191-23.414-15.374-35.822q4.759,6.633,9.42,13.19l3.086,4.335q16.248,22.784,32.2,45.7c30,42.808,61.017,87.083,94.568,128.826,4.9,6.1,9.822,12.321,14.8,18.612,38.473,48.653,82.074,103.792,141.766,130.325,53.216,23.631,122.915,17.014,153.185-41.406,54.4-104.944-4.335-239.985-47.23-338.584L895.1,543.245c-12.614-29.129-26.76-57.562-41.765-85.866q5.215,6.8,10.235,13.69c26.391,36.158,72.61,35.615,102.065,14.19,24.359-17.721,38.027-50.663,13.625-84.323C925.18,326.349,864.717,251.185,789.108,206.682c-41.96-24.7-87.887-28.705-122.882-10.724-30.813,15.83-49.816,47.154-53.5,88.212-4.324,48.153,6.073,94.242,21.143,138.213-55.792-54.509-158.976-131.813-241.756-120.1-38.027,5.4-67.461,28.477-87.484,68.58-32.943,65.95-6.954,148.056,22.816,219.667,14.168,34.094,29.748,68.1,44.818,101l5.335,11.636c-44.84-42.047-84.953-81.215-121.763-118.873v.011c-18.2-18.633-41.319-25.478-65.037-19.318-26.043,6.78-48.306,28.868-55.39,54.988-6.5,23.957.141,47.36,18.71,65.885l6.063,6.041c50.468,50.37,102.652,102.456,154.934,152.75,6.443,6.2,13.06,12.842,19.883,19.687,40.591,40.689,91.1,91.341,152.544,95.046C489.909,959.535,492.256,959.6,494.57,959.6ZM463.4,521.081a10.258,10.258,0,0,0-5.259,1.4c-4.368,2.586-6.693,7.508-5.128,12.331l.511,1.586c11.6,36.093,26.739,70.872,40.092,101.555,5.291,12.158,10.887,24.435,16.526,36.821,22.729,49.935,46.241,101.565,53.911,153.923,5.2,35.55-2.694,69.764-20.611,89.277C530.153,932.449,511.813,939,488.855,937.7c-53.195-3.216-98.5-48.632-138.474-88.712-6.932-6.943-13.657-13.69-20.2-19.992-52.141-50.164-104.26-102.174-154.662-152.479l-6.052-6.041c-16.428-16.384-16.178-33.41-13.092-44.807,5.03-18.546,21.436-34.844,39.885-39.646,11.245-2.933,27.988-2.955,44.025,13.462v.011c47.556,48.642,100.544,99.751,162.007,156.237a10.866,10.866,0,0,0,17.286-12.4c-9.007-20.372-18.286-40.613-27.564-60.854-14.983-32.725-30.487-66.559-44.5-100.294-27.891-67.08-52.478-143.493-23.447-201.61,16.873-33.812,40.135-52.38,71.111-56.769,77.174-10.93,185.7,72.208,239.778,130.814,5.77,6.236,11.321,12.712,16.884,19.187l4.2,4.9a10.865,10.865,0,0,0,18.286-11.2C651,410.356,628.7,349.274,634.369,286.1c3.042-33.844,17.493-58.333,41.787-70.817C704.492,200.728,742.6,204.52,778.091,225.4c72.165,42.493,130.879,115.6,183.574,188.289,16.645,22.968,6.367,42.96-8.812,54-20.556,14.939-52.673,16.7-71.73-9.431a786.823,786.823,0,0,0-77.771-90.983,10.869,10.869,0,0,0-17.243,12.875q6.144,11.245,12.419,22.447c27.858,49.783,54.694,98.664,76.63,149.284l4.878,11.234c41.156,94.6,97.5,224.165,47.871,319.918-24.109,46.513-81.172,51.054-125.077,31.552C748.038,890.239,708,839.608,669.289,790.64c-5.009-6.324-9.974-12.6-14.918-18.742-33.094-41.189-63.9-85.159-93.7-127.685q-16.069-22.947-32.3-45.839l-3.086-4.324c-16.352-22.958-33.258-46.687-52.412-68.275l-.967-1.054A11.862,11.862,0,0,0,463.4,521.081ZM248.056,591.888h0Z" transform="translate(-132.979 -184.841)" fill="#f49195"/>
          <path id="Trazado_115696" data-name="Trazado 115696" d="M158.671,228.291c40.027,80.444,62.615,174.752,27.445,261.215-5.193,12.788-26.217,7.193-20.948-5.78,33.008-81.183,12.386-168.809-25.261-244.472C133.692,226.781,152.434,215.753,158.671,228.291Z" transform="translate(593.83 189.284)" fill="#f49195"/>
          <path id="Trazado_115697" data-name="Trazado 115697" d="M150.613,297.8c.185-.022.358-.076.532-.109.3-.587.576-1.228.674-1.4l.054-.065c.022-.087-.011-.022.022-.152,1.4-4.857,2.4-9.768,3.466-14.711q3.683-17.194,7.377-34.387c1.2-5.563,8.007-9.322,13.364-7.584a11.119,11.119,0,0,1,7.595,13.364q-4.172,19.443-8.355,38.9c-2.314,10.789-6.019,24.946-18.948,27.108-5.585.934-11.973-1.467-13.364-7.595C141.834,305.92,144.616,298.8,150.613,297.8Z" transform="translate(568.891 349.098)" fill="#f49195"/>
          <path id="Trazado_115698" data-name="Trazado 115698" d="M220.882,202.976c12.332-6.584,23.316,12.169,10.963,18.764-17.058,9.1-22.262,27.641-22.936,45.85-.782,20.676,1.543,41.928,4.9,62.289A413.406,413.406,0,0,0,251.521,446.59c6.2,12.484-12.527,23.5-18.764,10.963A434.822,434.822,0,0,1,190.58,320.1C185.462,280.943,179.335,225.152,220.882,202.976Z" transform="translate(20.271 -19.551)" fill="#f49195"/>
        </g>
        <g id="Grupo_82660" data-name="Grupo 82660" transform="translate(25.765 0)">
          <g id="Grupo_82659" data-name="Grupo 82659">
            <g id="Grupo_82658" data-name="Grupo 82658">
              <path id="Trazado_115699" data-name="Trazado 115699" d="M235.793,579.628c52.347,53.564,106.444,105.162,161.583,155.835C373.538,681.584,347.832,628.542,325.2,574.1c-25.652-61.734-55.466-145.883-23.132-210.638,73.708-147.6,260.031-2.781,328.6,71.524,7.312,7.909,14.277,16.178,21.339,24.359-24.49-60-46.545-121.644-40.733-186.464,8.007-89.125,89.712-110.507,160.051-69.1,75.544,44.47,136.2,121.4,186.866,191.277C1001.217,454.4,902.759,510.9,860.07,452.4a772.659,772.659,0,0,0-76.685-89.722q6.112,11.2,12.342,22.36c27.521,49.163,54.705,98.523,77.13,150.262,42.949,99.088,106.444,236.247,52.423,340.474-27.228,52.521-91.059,57.856-139.136,36.485-64.614-28.727-109.366-92.145-152.511-145.818C588.6,710.4,548.942,650.891,507.253,592.416c-17.427-24.435-34.833-49.218-54.77-71.7-.456-.511-.945-.989-1.4-1.51l.5,1.586c11.071,34.42,25.315,67.449,39.722,100.566,26.826,61.6,61.409,126.457,71.231,193.5,8.692,59.279-15.32,125.718-86.615,121.415-67.015-4.042-120.731-68.6-165.538-111.713C256.11,772.35,202.818,719.09,149.514,665.9,93.864,610.365,180.816,523.38,235.793,579.628Z" transform="translate(-120.71 -172.58)" fill="#ffdfe0"/>
              <path id="Trazado_115700" data-name="Trazado 115700" d="M492.206,957.219c26.3,0,48.621-9.224,64.864-26.912,22.577-24.587,32.334-64.635,26.109-107.139-8.105-55.389-32.269-108.454-55.639-159.769-5.584-12.288-11.126-24.446-16.373-36.484C506.2,615.5,500.974,603.5,495.791,591.093c3.173,4.411,6.313,8.823,9.42,13.19l3.086,4.324c10.832,15.189,21.524,30.455,32.215,45.7C570.5,697.124,601.518,741.4,635.069,783.13q7.35,9.159,14.8,18.623C688.34,850.4,731.941,905.535,791.633,932.078c53.227,23.631,122.915,17,153.185-41.417,54.4-104.934-4.335-239.974-47.219-338.584l-4.878-11.2c-12.614-29.129-26.76-57.563-41.754-85.865q5.2,6.8,10.235,13.679c26.38,36.17,72.6,35.626,102.054,14.2,24.359-17.721,38.027-50.663,13.625-84.323C922.8,323.978,862.341,248.815,786.743,204.3c-41.971-24.685-87.887-28.694-122.893-10.713-30.813,15.83-49.8,47.143-53.5,88.2C606.027,329.943,616.424,376.043,631.5,420c-55.8-54.5-158.976-131.8-241.756-120.09-38.027,5.4-67.471,28.477-87.5,68.579-32.932,65.95-6.943,148.046,22.816,219.667,14.168,34.083,29.748,68.1,44.818,100.99l5.335,11.636c-44.839-42.036-84.953-81.2-121.763-118.862h0c-18.2-18.634-41.319-25.468-65.037-19.307-26.043,6.779-48.305,28.868-55.379,54.987-6.508,23.957.13,47.349,18.7,65.874l6.063,6.052c50.468,50.37,102.652,102.445,154.934,152.75,6.443,6.2,13.06,12.842,19.894,19.687,40.58,40.689,91.092,91.342,152.533,95.046C487.544,957.154,489.881,957.219,492.206,957.219ZM461.034,518.7a10.242,10.242,0,0,0-5.258,1.412c-4.379,2.586-6.7,7.5-5.139,12.332l.511,1.586c11.6,36.082,26.738,70.872,40.091,101.555,5.292,12.147,10.887,24.424,16.526,36.821,22.74,49.935,46.252,101.565,53.922,153.913,5.2,35.55-2.694,69.764-20.622,89.288-13.277,14.461-31.628,21.023-54.585,19.719-53.2-3.216-98.5-48.631-138.463-88.712-6.932-6.954-13.668-13.7-20.208-19.991-52.141-50.163-104.26-102.174-154.662-152.478l-6.052-6.052c-16.417-16.374-16.178-33.4-13.081-44.807,5.031-18.535,21.426-34.844,39.885-39.635,11.234-2.933,27.977-2.955,44.014,13.462h0c47.556,48.642,100.544,99.751,162.007,156.249a10.866,10.866,0,0,0,17.286-12.4c-9.007-20.372-18.286-40.613-27.553-60.865-14.994-32.714-30.487-66.548-44.514-100.283-27.879-67.08-52.478-143.493-23.446-201.621,16.884-33.8,40.146-52.369,71.111-56.769,77.174-10.919,185.714,72.219,239.789,130.814,5.758,6.247,11.31,12.723,16.873,19.188l4.216,4.911a10.868,10.868,0,0,0,18.286-11.213c-23.338-57.139-45.643-118.232-39.972-181.39,3.042-33.855,17.493-58.345,41.787-70.828,28.347-14.548,66.439-10.756,101.935,10.126,72.176,42.482,130.879,115.6,183.574,188.289,16.656,22.969,6.367,42.949-8.812,53.988-20.557,14.95-52.673,16.71-71.73-9.42a784.864,784.864,0,0,0-77.771-90.983,10.861,10.861,0,0,0-17.232,12.864q6.144,11.262,12.408,22.458c27.869,49.783,54.694,98.664,76.641,149.284l4.878,11.234c41.145,94.6,97.491,224.165,47.86,319.907-24.109,46.524-81.172,51.065-125.077,31.563-54.792-24.348-94.829-74.99-133.541-123.947q-7.513-9.5-14.907-18.753C618.9,728.339,588.1,684.368,558.3,641.843c-10.713-15.3-21.437-30.607-32.3-45.85l-3.086-4.313c-16.352-22.958-33.257-46.7-52.4-68.275l-.978-1.054A11.848,11.848,0,0,0,461.034,518.7ZM245.691,589.517h0Z" transform="translate(-130.608 -182.469)" fill="#fc5f65"/>
            </g>
            <path id="Trazado_115701" data-name="Trazado 115701" d="M156.3,225.922c40.037,80.444,62.615,174.741,27.456,261.215-5.2,12.777-26.228,7.192-20.959-5.78,33.019-81.194,12.4-168.808-25.261-244.472C131.328,224.4,150.059,213.384,156.3,225.922Z" transform="translate(596.2 191.654)" fill="#fc5f65"/>
            <path id="Trazado_115702" data-name="Trazado 115702" d="M148.241,295.432c.185-.022.358-.076.532-.109.3-.6.587-1.228.685-1.4l.043-.065c.022-.087-.011-.033.022-.163,1.4-4.846,2.412-9.768,3.466-14.7q3.7-17.193,7.377-34.387c1.2-5.563,8.007-9.322,13.375-7.584a11.116,11.116,0,0,1,7.584,13.364l-8.344,38.885c-2.325,10.8-6.03,24.957-18.959,27.119-5.585.924-11.973-1.466-13.364-7.594C139.462,303.549,142.255,296.432,148.241,295.432Z" transform="translate(571.258 351.469)" fill="#fc5f65"/>
            <path id="Trazado_115703" data-name="Trazado 115703" d="M218.511,200.605c12.332-6.584,23.327,12.169,10.963,18.764-17.058,9.1-22.251,27.64-22.936,45.839-.782,20.676,1.543,41.939,4.9,62.3A413.4,413.4,0,0,0,249.15,444.219c6.215,12.484-12.527,23.5-18.764,10.963a435.27,435.27,0,0,1-42.178-137.452C183.091,278.561,176.963,222.77,218.511,200.605Z" transform="translate(22.638 -17.179)" fill="#fc5f65"/>
          </g>
        </g>
      </g>
    </g>
  </g>
</svg>
