<svg xmlns="http://www.w3.org/2000/svg" xmlns:xlink="http://www.w3.org/1999/xlink" width="400" height="402.074" viewBox="0 0 400 402.074">
  <defs>
    <clipPath id="clip-path">
      <rect id="Rectángulo_36082" data-name="Rectángulo 36082" width="400" height="377" transform="translate(1020 1606)" fill="#fff" stroke="#707070" stroke-width="1"/>
    </clipPath>
  </defs>
  <g id="Grupo_157074" data-name="Grupo 157074" transform="translate(-285 -994)">
    <g id="Enmascarar_grupo_145" data-name="Enmascarar grupo 145" transform="translate(-735 -612)" clip-path="url(#clip-path)">
      <path id="Trazado_125318" data-name="Trazado 125318" d="M504.883,356.4c4.009-33.733,22.561-63.912,31.206-96.764,6.474-24.6,7.29-50.267,10.474-75.5s9.137-51,24.26-71.445c20.155-27.252,56.321-41.658,89.693-35.728s62.361,31.914,71.893,64.442c12.293,41.946-6.36,86.455-5.328,130.154.572,24.259,7.224,47.9,11.238,71.834s5.216,49.4-4.558,71.608c-13.065,29.688-44.156,48.511-76.069,54.314-31.752,5.773-64.953.116-96.453-4.958-25.336-4.082-42.263-33.911-50.169-55.943A114.631,114.631,0,0,1,504.883,356.4Z" transform="translate(920.764 1173.566) rotate(40)" fill="#ffdfe0"/>
    </g>
    <g id="Grupo_157023" data-name="Grupo 157023" transform="translate(133.183 -109.829)">
      <path id="Trazado_116791" data-name="Trazado 116791" d="M480.8,1593.546H153.131a1.313,1.313,0,0,1,0-2.625H480.8a1.313,1.313,0,1,1,0,2.625Z" transform="translate(0 -125.801)" fill="#6a2810"/>
      <path id="Trazado_116792" data-name="Trazado 116792" d="M601.5,1411.161a70.729,70.729,0,0,0-4.359,5.706c-21.109,30.684-29.914,88.516-52.773,103.1-24.365,15.544-55.031-2.1-60.912-35.707l32.767-30.841s10.694,24.251,17.643,14.038c5.576-8.192,36.128-50.857,47.89-67.266,2.871-4,4.621-6.442,4.621-6.442Z" transform="translate(-90.88 -71.769)" fill="#ffaf82"/>
      <path id="Trazado_116793" data-name="Trazado 116793" d="M678.936,1370.368s3.991,7.352-13.232,16.384-17.854,10.922-27.1,14.283a70.711,70.711,0,0,0-4.359,5.706l-15.385-16.681c2.87-4,4.621-6.442,4.621-6.442a33.951,33.951,0,0,1,5.251-15.141c4.831-7.351,6.092-12.6,9.872-11.552s-1.26,12.182,0,13.233,34.657-16.646,39.068-7.588C677.676,1362.57,681.456,1364.907,678.936,1370.368Z" transform="translate(-127.985 -61.643)" fill="#ffaf82"/>
      <path id="Trazado_116794" data-name="Trazado 116794" d="M523.136,1459.507s-18.51,28.408-45.343,42.761a71.154,71.154,0,0,1-16.331,6.415v-.008c-.464-.91-26.509-52.965-13.565-143.923l7.658,1.724,5.671,1.278s24.943,7.316,31.664,30.421S523.136,1459.507,523.136,1459.507Z" transform="translate(-80.147 -63.824)" fill="#39ad98"/>
      <path id="Trazado_116795" data-name="Trazado 116795" d="M655.982,1377.357a1.313,1.313,0,0,1-.547-2.507c12.321-5.639,31.461-11.785,31.652-11.845a1.313,1.313,0,1,1,.8,2.5c-.19.06-19.182,6.159-31.36,11.732A1.318,1.318,0,0,1,655.982,1377.357Z" transform="translate(-137.796 -63.328)" fill="#fe976a"/>
      <path id="Trazado_116796" data-name="Trazado 116796" d="M419.154,1504.772a211.776,211.776,0,0,0,.534,21.574H289.9V1366.958l5.015-1.191.822-.193,4.227-1,1.68-.394,16.961-4.008,10.783-2.547,3.929-.928,14.388-3.4,11.92-2.818,12.874,2.906,12.418,2.792,5.742,1.3,10.791,2.433,4.139.936,7.676,1.724,5.653,1.278s-6.144,16.978,0,45.334c2.993,13.837,5.059,22.878,5.715,32.382.709,9.977-.131,20.47-3.037,37.563a183.249,183.249,0,0,0-2.441,25.643Z" transform="translate(-37.838 -59.913)" fill="#39ad98"/>
      <path id="Trazado_116797" data-name="Trazado 116797" d="M419.192,1549.318H289.4a1.313,1.313,0,1,1,0-2.625H417.781c-.468-6.749-.614-13.569-.435-20.3a184.442,184.442,0,0,1,2.46-25.836c2.877-16.922,3.724-27.366,3.022-37.251-.6-8.752-2.385-16.961-5.08-29.384l-.609-2.812a1.313,1.313,0,1,1,2.566-.555l.608,2.809c2.719,12.537,4.516,20.819,5.133,29.759.718,10.108-.137,20.727-3.052,37.873a181.906,181.906,0,0,0-2.424,25.457,210.3,210.3,0,0,0,.531,21.447,1.313,1.313,0,0,1-1.309,1.412Z" transform="translate(-37.343 -81.573)" fill="#6a2810"/>
      <path id="Trazado_116798" data-name="Trazado 116798" d="M404.785,1383.353c-6.713,3.019-18.169-1.855-17.118-11.1,0,0,4.708-12.874,11.6-17.775l12.418,2.792C415.777,1364.545,414.762,1378.872,404.785,1383.353Z" transform="translate(-64.611 -61.01)" fill="#fff"/>
      <path id="Trazado_116799" data-name="Trazado 116799" d="M356.809,1382.279c-9.3-4.175-10.818-16.917-7.667-24.514l14.388-3.4c6.24,5.427,10.4,16.821,10.4,16.821C374.977,1380.423,363.521,1385.289,356.809,1382.279Z" transform="translate(-53.664 -60.977)" fill="#fff"/>
      <path id="Trazado_116800" data-name="Trazado 116800" d="M397.475,1552.208l-7.395,21.818s-2.494.271-6.818.727c-24.5,2.538-107.805,10.7-130.3,6.415-12.4-2.363-17.145-9.8-18.474-19.542-1.5-11.054,1.391-25.065,2.512-38.009,0,0,48.31-1.26,49.754,11.762.253,2.285,1.934,4.245,4.7,5.916,13,7.885,49.92,9.478,74.512,8.787a197.882,197.882,0,0,1,24.112.4C396.88,1551.158,397.475,1552.208,397.475,1552.208Z" transform="translate(-22.539 -107.349)" fill="#ffaf82"/>
      <path id="Trazado_116801" data-name="Trazado 116801" d="M455.27,1621.148c-4.726,3.466-7.876.945-7.876.945-6.931,2.521-7.011-2.521-7.011-2.521-7.01,1.891-7.483-4.1-7.483-4.1-4.726-.315-3.781-6.3,4.061-13.863a22.8,22.8,0,0,0,6.818-17.433s-2.494.271-6.818.726l6.818-24.269c6.8.675,7.395,1.724,7.395,1.724a24.467,24.467,0,0,1,15.438,21.819C467.557,1601.089,460,1617.682,455.27,1621.148Z" transform="translate(-76.238 -117.503)" fill="#ffaf82"/>
      <path id="Trazado_116802" data-name="Trazado 116802" d="M433.49,1630.454a1.313,1.313,0,0,1-.589-2.487c.109-.055,8-4.156,14.9-16.784a1.313,1.313,0,0,1,2.305,1.258c-7.337,13.441-15.677,17.7-16.029,17.875A1.311,1.311,0,0,1,433.49,1630.454Z" transform="translate(-76.826 -131.166)" fill="#fe976a"/>
      <path id="Trazado_116803" data-name="Trazado 116803" d="M443.8,1634.549a1.313,1.313,0,0,1-.788-2.363c.1-.076,10.152-7.758,12.519-20.612a1.313,1.313,0,0,1,2.582.475c-2.558,13.894-13.081,21.9-13.528,22.238A1.3,1.3,0,0,1,443.8,1634.549Z" transform="translate(-79.651 -131.167)" fill="#fe976a"/>
      <path id="Trazado_116804" data-name="Trazado 116804" d="M453.453,1637.684a1.313,1.313,0,0,1-.809-2.348c.107-.084,7.256-5.9,10.24-21.527a1.313,1.313,0,1,1,2.579.493c-3.2,16.732-10.882,22.854-11.208,23.107A1.309,1.309,0,0,1,453.453,1637.684Z" transform="translate(-82.297 -131.781)" fill="#fe976a"/>
      <path id="Trazado_116805" data-name="Trazado 116805" d="M291.456,1541.294c-17.556,11.631-44.634,17.933-56.965,20.331-1.5-11.054,1.391-25.065,2.512-38.009,0,0,48.31-1.26,49.754,11.762C287.01,1537.663,288.69,1539.623,291.456,1541.294Z" transform="translate(-22.539 -107.349)" fill="#fe976a"/>
      <path id="Trazado_116806" data-name="Trazado 116806" d="M421.753,1280.966c-20.847,11.053-43.733,2.6-61.2,2.057a33.946,33.946,0,0,0-10.914,1.138c-8.988,2.7-24.128,5.216-39.348,5.111-15.193-.1-30.447-2.8-39.733-10.511-18.588-15.438-7.246-26.15,4.411-40.958s17.644-37.178,15.754-61.429,21.109-35.926,36.863-23.639l56.4-9.136s17.014,40.013,22.054,65.227S447.308,1267.418,421.753,1280.966Z" transform="translate(-29.839 -3.221)" fill="#823315"/>
      <path id="Trazado_116807" data-name="Trazado 116807" d="M379.268,1317.108a33.939,33.939,0,0,0-10.913,1.138c-8.988,2.7-24.128,5.216-39.348,5.111,12.752-23.1,18.239-55.373,18.239-55.373s25.2,12.725,29.3,18.6C379.706,1291.1,379.119,1305.135,379.268,1317.108Z" transform="translate(-48.555 -37.307)" fill="#632411"/>
      <path id="Trazado_116808" data-name="Trazado 116808" d="M397.935,1290.527v53.915s-2.439,14.972-19.331,13.82-19.2-16.508-19.2-16.508v-51.227Z" transform="translate(-56.886 -43.484)" fill="#ffaf82"/>
      <path id="Trazado_116809" data-name="Trazado 116809" d="M397.935,1290.527v50.019c-23.082-.976-32.92-20.067-38.526-38.1v-11.918Z" transform="translate(-56.886 -43.484)" fill="#fe976a"/>
      <path id="Trazado_116810" data-name="Trazado 116810" d="M401.883,1277.827c-38.717,0-57.193-23.253-59.521-55.346-.866-11.789.455-24.767,3.755-38.228,12.287-50.095,82.231-22.685,82.231-22.685,4.341,7.605,8.087,17.845,10.634,29.117C447.533,1228.484,442.649,1277.827,401.883,1277.827Z" transform="translate(-52.144 -6.095)" fill="#ffaf82"/>
      <path id="Trazado_116811" data-name="Trazado 116811" d="M408.318,1296.625c-7.938,0-13.351-7.554-13.42-7.652a1.313,1.313,0,0,1,2.148-1.509h0c.308.436,7.627,10.583,17.3,4.7a1.312,1.312,0,1,1,1.366,2.241A14.064,14.064,0,0,1,408.318,1296.625Z" transform="translate(-66.546 -42.492)" fill="#6a2810"/>
      <path id="Trazado_116812" data-name="Trazado 116812" d="M387.81,1267.694a8.281,8.281,0,0,1-3.824-.972,6.169,6.169,0,0,1-3.569-5.321,6.994,6.994,0,0,1,3-6.006,3.759,3.759,0,0,1,3.847-.238,1.313,1.313,0,1,1-1.234,2.317,1.106,1.106,0,0,0-1.216.143,4.375,4.375,0,0,0-1.774,3.676,3.558,3.558,0,0,0,2.155,3.1,4.963,4.963,0,0,0,6.144-.851,7.533,7.533,0,0,0,.905-8.921,6.923,6.923,0,0,0-6.692-4.063,6.472,6.472,0,0,0-5.638,4.288,1.313,1.313,0,1,1-2.477-.869,9.1,9.1,0,0,1,7.918-6.037,9.551,9.551,0,0,1,9.208,5.452,10.142,10.142,0,0,1-1.36,12A7.528,7.528,0,0,1,387.81,1267.694Z" transform="translate(-61.806 -31.807)" fill="#fe976a"/>
      <path id="Trazado_116813" data-name="Trazado 116813" d="M465.3,1256.459a8.278,8.278,0,0,1-3.824-.97,6.17,6.17,0,0,1-3.569-5.322,6.993,6.993,0,0,1,3-6.006,3.762,3.762,0,0,1,3.848-.237,1.313,1.313,0,0,1-1.236,2.318,1.1,1.1,0,0,0-1.215.142,4.375,4.375,0,0,0-1.774,3.676,3.558,3.558,0,0,0,2.155,3.1,4.972,4.972,0,0,0,6.145-.85,7.537,7.537,0,0,0,.905-8.923c-1.48-2.79-3.912-4.274-6.692-4.062a6.471,6.471,0,0,0-5.638,4.286,1.313,1.313,0,1,1-2.477-.869,9.1,9.1,0,0,1,7.917-6.036,9.552,9.552,0,0,1,9.209,5.451,10.143,10.143,0,0,1-1.36,12A7.523,7.523,0,0,1,465.3,1256.459Z" transform="translate(-83.041 -28.728)" fill="#fe976a"/>
      <path id="Trazado_116814" data-name="Trazado 116814" d="M434.852,1258.747a1.313,1.313,0,0,1-.746-2.395l10.374-7.142L433.77,1233.7a1.313,1.313,0,0,1,2.161-1.491l11.457,16.594a1.312,1.312,0,0,1-.336,1.828l-11.456,7.887A1.316,1.316,0,0,1,434.852,1258.747Z" transform="translate(-77.2 -27.347)" fill="#6a2810"/>
      <path id="Trazado_116815" data-name="Trazado 116815" d="M396.47,1227.637c0,3.53-1.42,5.516-3.172,5.516s-3.172-1.986-3.172-5.516,1.421-5.424,3.172-5.424S396.47,1224.106,396.47,1227.637Z" transform="translate(-65.304 -24.764)" fill="#6a2810"/>
      <path id="Trazado_116816" data-name="Trazado 116816" d="M438.982,1190.685a8.305,8.305,0,0,1-1.252.98c-24.715,15.78-69.594,7.527-69.594,7.527.857-29.616-15.368-28.26-13.136-17.906,2.179,10.126,2.809,47.417-12.638,41.195-.866-11.789.455-24.767,3.755-38.228,12.287-50.095,82.231-22.685,82.231-22.685C432.69,1169.173,436.436,1179.413,438.982,1190.685Z" transform="translate(-52.144 -6.095)" fill="#fe976a"/>
      <path id="Trazado_116817" data-name="Trazado 116817" d="M436.453,1182.942c11.194-7.151,6.839-42.881-28.807-49.812s-59.906,16.383-59.906,16.383-24.241,55.389-7.71,63.77,15.927-30.367,13.7-40.72,13.99-11.707,13.139,17.909C366.864,1190.471,411.743,1198.729,436.453,1182.942Z" transform="translate(-49.994)" fill="#823315"/>
      <path id="Trazado_116818" data-name="Trazado 116818" d="M289.739,1497.046a92.538,92.538,0,0,1-20.374,4.489c-34.823,3.51-54.4-16.672-54.4-16.672s18.9-81.076,28.146-96.2S275.2,1370.9,275.2,1370.9l4.227-1c.98,16.016,2.608,48.625,1.067,66.233C278.4,1460.078,289.739,1497.046,289.739,1497.046Z" transform="translate(-17.304 -65.235)" fill="#39ad98"/>
      <path id="Trazado_116819" data-name="Trazado 116819" d="M313.88,1522.864a1.312,1.312,0,0,1-1.254-.928c-.466-1.518-11.393-37.487-9.295-61.411a1.313,1.313,0,1,1,2.616.229c-2.055,23.418,9.076,60.046,9.189,60.413a1.311,1.311,0,0,1-1.255,1.7Z" transform="translate(-41.446 -89.741)" fill="#6a2810"/>
      <path id="Trazado_116820" data-name="Trazado 116820" d="M455.549,1220.1c0,3.53-1.42,5.517-3.172,5.517s-3.172-1.986-3.172-5.517,1.42-5.424,3.172-5.424S455.549,1216.571,455.549,1220.1Z" transform="translate(-81.493 -22.699)" fill="#6a2810"/>
      <path id="Trazado_116821" data-name="Trazado 116821" d="M345.521,1269.256c-5.411,16.7-35.069,11.829-36.86-6.917-1.736-18.185,18.962-25.945,32.558-13.978S345.521,1269.256,345.521,1269.256Z" transform="translate(-42.951 -30.357)" fill="#ffaf82"/>
      <path id="Trazado_116822" data-name="Trazado 116822" d="M327.22,1271.4a1.312,1.312,0,0,1-1.056-2.091c.053-.073,5.352-7.407,2.494-12.9a1.313,1.313,0,0,1,2.33-1.212c3.615,6.947-2.45,15.314-2.71,15.666A1.309,1.309,0,0,1,327.22,1271.4Z" transform="translate(-47.706 -33.611)" fill="#fe976a"/>
      <path id="Trazado_116823" data-name="Trazado 116823" d="M336.934,1267.708a17.807,17.807,0,0,1-5.655-.818,1.313,1.313,0,1,1,.846-2.485c4.5,1.532,10.855-.016,10.919-.031a1.313,1.313,0,0,1,.636,2.547A30.709,30.709,0,0,1,336.934,1267.708Z" transform="translate(-48.934 -36.307)" fill="#fe976a"/>
    </g>
  </g>
</svg>
