<svg xmlns="http://www.w3.org/2000/svg" xmlns:xlink="http://www.w3.org/1999/xlink" width="123" height="123" viewBox="0 0 123 123">
  <defs>
    <clipPath id="clip-path">
      <rect id="Rectángulo_37929" data-name="Rectángulo 37929" width="89.153" height="60.774" fill="none"/>
    </clipPath>
  </defs>
  <g id="Grupo_159224" data-name="Grupo 159224" transform="translate(-420 -1641.58)">
    <circle id="Elipse_4854" data-name="Elipse 4854" cx="61.5" cy="61.5" r="61.5" transform="translate(420 1641.58)" fill="#6b8dfc"/>
    <g id="Grupo_160432" data-name="Grupo 160432" transform="translate(436.452 1672.752)">
      <g id="Grupo_160432-2" data-name="Grupo 160432" transform="translate(0 0)" clip-path="url(#clip-path)">
        <path id="Trazado_138725" data-name="Trazado 138725" d="M20.646,5.315c-.105-1.12.152-1.533,1.208-1.869A74.242,74.242,0,0,1,46.688.032a68.347,68.347,0,0,1,18.3,2.877c6.969,2.149,13.4,5.3,18.53,10.651a18.865,18.865,0,0,1,5.5,11.071c.008.068.088.128.135.191v.348a1.331,1.331,0,0,0,0,1.044v.7c-.184.3-.047.626-.09.938,0,.331,0,.664,0,1s0,.685,0,1.027,0,.7,0,1.047c0,.4,0,.807,0,1.211s0,.814,0,1.221c0,.461,0,.92,0,1.381s0,.921,0,1.383c0,.408,0,.817,0,1.226s0,.817,0,1.225a4.544,4.544,0,0,1-.053,1.067A23.012,23.012,0,0,1,69.551,60.35a53.4,53.4,0,0,1-12.744.082c-7.16-.619-13.033-3.9-18.3-8.546-2.3-2.028-4.449-4.241-6.95-6.045a3.369,3.369,0,0,0-2.5-.693,48.76,48.76,0,0,1-9.284.361c-4.048-.3-8.128-.73-11.781-2.634A14.072,14.072,0,0,1,.078,30.284a61.343,61.343,0,0,1,.062-7.3A15.243,15.243,0,0,1,4.146,14.2,33.886,33.886,0,0,1,15.537,5.972a1.366,1.366,0,0,1,1.859.6c.541.613.2,1.123-.216,1.592a3.079,3.079,0,0,1-1.013.663A32.083,32.083,0,0,0,7.775,14.5a14.448,14.448,0,0,0-4.8,8.448,6.881,6.881,0,0,0,1.854,5.91c2.258,2.476,5.213,3.636,8.331,4.4a37.824,37.824,0,0,0,12.168.77c1.442-.119,2.883-.3,4.325-.35a11.679,11.679,0,0,1,5.388,1.166A24.274,24.274,0,0,1,40.727,38.8,87.978,87.978,0,0,0,49.191,46a18.335,18.335,0,0,0,9.183,3.14c.934.067,1.795.253,2.192,1.255a1.171,1.171,0,0,1,.038.557,1.628,1.628,0,0,1-1.825,1.259,21.387,21.387,0,0,1-11.556-3.848A64.052,64.052,0,0,1,40.5,42.722a53.8,53.8,0,0,0-4.592-3.857A11.476,11.476,0,0,0,27.24,36.93a40.241,40.241,0,0,1-8.671.179,37.426,37.426,0,0,1-6.436-.972,20.126,20.126,0,0,1-9.1-4.618,11.917,11.917,0,0,0,4.185,7.49C9.367,40.848,12,41.4,14.637,41.994a41.821,41.821,0,0,0,10.3.679c1.445-.034,2.883-.258,4.328-.358a5.859,5.859,0,0,1,3.975,1.238,56.388,56.388,0,0,1,5.147,4.412,44.434,44.434,0,0,0,8.786,6.647,25.98,25.98,0,0,0,10.44,3.054c1.213.1,2.428.134,3.639.231a10.27,10.27,0,0,0,2.858.1c4.083-.146,8.074-.658,11.728-2.734a20.667,20.667,0,0,0,7.641-7.429,19.277,19.277,0,0,0,2.431-6.479,2.99,2.99,0,0,1,.168-.7,12.66,12.66,0,0,1-1.591,2.657,18.042,18.042,0,0,1-2.164,2.491,20.855,20.855,0,0,1-2.606,2.163,23.907,23.907,0,0,1-2.838,1.687c-1.016.51-2.091.86-3.136,1.292a33.319,33.319,0,0,1-7.4,1.42c-1.729.14-2.2-.119-2.6-1.341.191-1.2.687-1.632,2-1.718a27.618,27.618,0,0,0,6.248-1.047c4.715-1.435,8.606-3.994,11.1-8.371a24.6,24.6,0,0,0,3.067-10.335,19.661,19.661,0,0,0-.115-5.624A16.351,16.351,0,0,0,82.793,17.1,30.282,30.282,0,0,0,72.721,9.115,55.458,55.458,0,0,0,54.271,3.483a21.438,21.438,0,0,0-3.712-.348,69.778,69.778,0,0,0-19.024.85A59.637,59.637,0,0,0,23.1,6.066a2.953,2.953,0,0,1-1.366.181c-.55-.082-1-.3-1.092-.932" transform="translate(0 0)"/>
        <path id="Trazado_138726" data-name="Trazado 138726" d="M115.753,44.752q0-.7,0-1.393c.048-.084.1-.081.15,0v1.393c-.047.078-.1.076-.145,0" transform="translate(-26.745 -10.005)" fill="#686868"/>
        <path id="Trazado_138727" data-name="Trazado 138727" d="M115.754,45.188c.048,0,.1,0,.145,0v1.392c-.046.075-.095.08-.144,0q0-.7,0-1.392" transform="translate(-26.746 -10.441)" fill="#767676"/>
        <path id="Trazado_138728" data-name="Trazado 138728" d="M115.744,41.409l0-1.217c.047-.085.1-.082.148,0v1.218c-.048.079-.1.077-.153,0" transform="translate(-26.744 -9.273)" fill="#4d4d4d"/>
        <path id="Trazado_138729" data-name="Trazado 138729" d="M115.744,41.793c.051,0,.1,0,.153,0v1.218c-.05,0-.1,0-.15,0q0-.609,0-1.218" transform="translate(-26.744 -9.656)" fill="#5b5b5b"/>
        <path id="Trazado_138730" data-name="Trazado 138730" d="M115.755,47c.048,0,.1,0,.145,0v1.218c-.047.079-.1.076-.145,0q0-.608,0-1.216" transform="translate(-26.746 -10.859)" fill="#858585"/>
        <path id="Trazado_138731" data-name="Trazado 138731" d="M115.754,48.58q.073,0,.145,0V49.8c-.047.077-.1.078-.145,0V48.58" transform="translate(-26.746 -11.225)" fill="#8f8f8f"/>
        <path id="Trazado_138732" data-name="Trazado 138732" d="M115.881,33.779a.766.766,0,0,1,0-1.043Z" transform="translate(-26.728 -7.564)" fill="#272727"/>
        <path id="Trazado_138733" data-name="Trazado 138733" d="M115.737,37.161q0-.521-.008-1.043c.051-.083.107-.085.165-.006v1.044c-.05.079-.1.077-.157,0" transform="translate(-26.741 -8.331)" fill="#2b2b2b"/>
        <path id="Trazado_138734" data-name="Trazado 138734" d="M115.739,37.493l.157,0v1.044c-.048.077-.1.078-.153,0q0-.522,0-1.044" transform="translate(-26.743 -8.662)" fill="#363636"/>
        <path id="Trazado_138735" data-name="Trazado 138735" d="M115.744,38.851l.153,0V39.89l-.149.005q0-.522,0-1.045" transform="translate(-26.744 -8.976)" fill="#414141"/>
        <path id="Trazado_138736" data-name="Trazado 138736" d="M115.754,50.166c.048,0,.1,0,.145,0v1.044l-.068.034-.075-.018,0-1.057" transform="translate(-26.746 -11.591)" fill="#9e9e9e"/>
        <path id="Trazado_138737" data-name="Trazado 138737" d="M115.889,35.869c-.055,0-.11,0-.165.006.025-.3-.118-.627.165-.877Z" transform="translate(-26.736 -8.087)" fill="#191919"/>
        <path id="Trazado_138738" data-name="Trazado 138738" d="M61.216,51.193a1.709,1.709,0,0,0-1.595-1.006c-5.464-.195-9.807-2.8-13.733-6.338-2.3-2.077-4.514-4.255-7-6.129a14.116,14.116,0,0,0-10.764-2.86A39.422,39.422,0,0,1,14.038,34.3,19.161,19.161,0,0,1,7.222,31.38c-3.561-2.52-4.594-5.853-3.116-9.969a17.317,17.317,0,0,1,5.481-7.369A36.625,36.625,0,0,1,17.2,9.227a1.515,1.515,0,0,0,1-1.874,23.207,23.207,0,0,1,3.25-1.262,1.585,1.585,0,0,0,2.111.583A70.528,70.528,0,0,1,44.9,3.364a44.4,44.4,0,0,1,6.587.322A45.034,45.034,0,0,1,65.948,8.864a2.588,2.588,0,0,1,.712.491c.175.189.278.4-.07.53a2.042,2.042,0,0,1-1.013-.194,59.163,59.163,0,0,0-14.29-2.845,68.139,68.139,0,0,0-6.938-.318C35.97,6.79,27.788,8.08,20.041,11.442A29.7,29.7,0,0,0,9.776,18.308a11.963,11.963,0,0,0-2.932,5.159,4.351,4.351,0,0,0,1.5,4.756,15.709,15.709,0,0,0,7.6,3.211,37.219,37.219,0,0,0,12.032.225c5.118-.723,9.474.912,13.431,3.986,2.521,1.958,4.767,4.231,7.183,6.309a19.659,19.659,0,0,0,7.241,4.362,24.667,24.667,0,0,0,5.493.792,34.75,34.75,0,0,0,8.816-.464,1.2,1.2,0,0,1,.6.032c.587.471.018.692-.241.894a17.346,17.346,0,0,1-3.2,1.875,26.262,26.262,0,0,1-5.156,1.734,1.327,1.327,0,0,1-.932.015" transform="translate(-0.798 -0.777)" fill="#f2e7d5"/>
        <path id="Trazado_138739" data-name="Trazado 138739" d="M62.068,67.365a29.345,29.345,0,0,1-20.946-8.072c-2.128-1.925-4.223-3.889-6.441-5.716a6.885,6.885,0,0,0-5.7-1.713,39.62,39.62,0,0,1-8.418.318,29.378,29.378,0,0,1-9.753-1.962c-4.33-1.832-6.681-5.273-7.318-10.08a17.554,17.554,0,0,0,3.83,2.9,27.4,27.4,0,0,0,9.586,2.89,49.2,49.2,0,0,0,12.318-.038,10.76,10.76,0,0,1,7.747,2.161c2.8,1.992,5.165,4.483,7.752,6.72A25.821,25.821,0,0,0,54.314,60.4a26.286,26.286,0,0,0,5.387.9,1.419,1.419,0,0,0,1.549-1.11,4.871,4.871,0,0,1,3.464.006c.39,1.093.644,1.277,1.768,1.227a34.914,34.914,0,0,0,8.157-1.446c.238.315.019.544-.159.767a21.392,21.392,0,0,1-8.634,6.405,8.716,8.716,0,0,1-3.779.209" transform="translate(-0.808 -9.275)" fill="#dca47e"/>
        <path id="Trazado_138740" data-name="Trazado 138740" d="M79.14,51.8,75.676,51.8l-.025-.505a37.939,37.939,0,0,0,5.187-1.585,21.458,21.458,0,0,0,4.144-2.311c.146-.1.489-.19.207-.5.352-.571,1-.529,1.523-.685a15.625,15.625,0,0,0,6.831-4,15.805,15.805,0,0,0,3.851-6.625,23.294,23.294,0,0,0,1.033-9.947,11.8,11.8,0,0,0-2.286-5.3,25.513,25.513,0,0,0-8.874-7.393,41.363,41.363,0,0,0-5.685-2.6c-.228-.083-.534-.12-.527-.478.177-.364-.185-.345-.337-.432A49.819,49.819,0,0,0,66.14,3.92a.743.743,0,0,1-.215-.136,49.618,49.618,0,0,1,8.754,1.244A48.354,48.354,0,0,1,92.06,12.166c3.8,2.611,7.023,5.765,8.764,10.178a17.508,17.508,0,0,1,.79,8.388,24.524,24.524,0,0,1-3.253,10.428,18.444,18.444,0,0,1-11.1,8.207,28.092,28.092,0,0,1-6.411,1.053A1.564,1.564,0,0,0,79.14,51.8" transform="translate(-15.233 -0.875)" fill="#d7c9b7"/>
        <path id="Trazado_138741" data-name="Trazado 138741" d="M79.669,70.151a.338.338,0,0,1,.085-.015c3.73.363,6.462-1.7,9.2-3.764a22.41,22.41,0,0,0,2.993-3,.788.788,0,0,0,.289-.6,29.782,29.782,0,0,0,5.127-2.488,20.225,20.225,0,0,0,6.743-7.219c.14-.252.3-.5.448-.741a.723.723,0,0,1,.115-.123c-1.248,10.762-10.69,19.413-25,17.952" transform="translate(-18.408 -12.062)" fill="#b98470"/>
        <path id="Trazado_138742" data-name="Trazado 138742" d="M67.511,10.661A47.845,47.845,0,0,1,75.972,14.8,24.671,24.671,0,0,1,82.8,21.017a12.07,12.07,0,0,1,2.479,7.26,23.928,23.928,0,0,1-2.554,11.39c-2.316,4.318-6.032,6.727-10.677,7.882a4.144,4.144,0,0,0-.4.141,45.062,45.062,0,0,1-8.994.607A19.477,19.477,0,0,1,49.19,42.941c-2.3-2.125-4.561-4.3-7.039-6.215a17.559,17.559,0,0,0-9.432-4.048,41.422,41.422,0,0,0-5.808.328c-5.039.309-10.025.165-14.778-1.825a11.578,11.578,0,0,1-3.024-1.849,4.714,4.714,0,0,1-1.546-5.315A13.363,13.363,0,0,1,11.82,17.7a37.545,37.545,0,0,1,14.325-7.539A68.875,68.875,0,0,1,52.087,7.466a63.782,63.782,0,0,1,15.424,3.195" transform="translate(-1.689 -1.669)"/>
        <path id="Trazado_138743" data-name="Trazado 138743" d="M64.431,46.43c-5.573.37-10.023-1.923-13.93-5.7a55.138,55.138,0,0,0-7.891-6.665,18.048,18.048,0,0,0-9.752-3.246c-1.757-.025-3.517.269-5.279.359-4.94.251-9.889.335-14.438-2.023-2.81-1.456-3.125-2.472-1.554-5.371,1.6-2.95,4.267-4.84,7.09-6.493a48.344,48.344,0,0,1,15.553-5.5,66.88,66.88,0,0,1,14.337-1.178,25.359,25.359,0,0,1,4.414.307,38.389,38.389,0,0,1,15.814,6.83,18.052,18.052,0,0,1,5.964,6.8,11.634,11.634,0,0,1,.985,6.355,29.77,29.77,0,0,1-1.081,5.972,14.375,14.375,0,0,1-8.031,9.307,3.573,3.573,0,0,1-2.2.243" transform="translate(-2.46 -2.448)" fill="#a94035"/>
        <path id="Trazado_138744" data-name="Trazado 138744" d="M77.152,46.529c2.114,0,3.719-1.169,5.259-2.391,3.5-2.772,4.953-6.624,5.558-10.885a35.509,35.509,0,0,0,.343-3.609,11.6,11.6,0,0,0-3.391-8.371c-3.576-3.978-8.14-6.41-13.047-8.305-2.018-.779-4.125-1.271-6.172-1.949a42.766,42.766,0,0,1,7.8,1.118,42.725,42.725,0,0,1,15.553,6.407c2.924,2.015,5.452,4.4,6.656,7.9a9.849,9.849,0,0,1,.434,3.682,21.884,21.884,0,0,1-1.819,8.427c-1.931,4.171-5.357,6.4-9.693,7.431a33.676,33.676,0,0,1-6.548.672,1.491,1.491,0,0,1-.931-.123" transform="translate(-15.181 -2.546)" fill="#98322c"/>
        <path id="Trazado_138745" data-name="Trazado 138745" d="M21,25.363a6.112,6.112,0,1,1,12.224.016A6.112,6.112,0,1,1,21,25.363" transform="translate(-4.853 -4.448)"/>
        <path id="Trazado_138746" data-name="Trazado 138746" d="M27.883,29.68a3.523,3.523,0,1,1,3.532-3.473,3.565,3.565,0,0,1-3.532,3.473" transform="translate(-5.633 -5.23)" fill="#f2e7d5"/>
      </g>
    </g>
  </g>
</svg>
