<svg xmlns="http://www.w3.org/2000/svg" xmlns:xlink="http://www.w3.org/1999/xlink" width="123" height="123" viewBox="0 0 123 123">
  <defs>
    <clipPath id="clip-path">
      <rect id="Rectángulo_37926" data-name="Rectángulo 37926" width="81.406" height="55.133" fill="none"/>
    </clipPath>
  </defs>
  <g id="Grupo_159220" data-name="Grupo 159220" transform="translate(-420 -1641.58)">
    <circle id="Elipse_4854" data-name="Elipse 4854" cx="61.5" cy="61.5" r="61.5" transform="translate(420 1641.58)" fill="#6b8dfc"/>
    <g id="Grupo_160429" data-name="Grupo 160429" transform="translate(441 1675.58)">
      <g id="Grupo_160428" data-name="Grupo 160428" clip-path="url(#clip-path)">
        <path id="Trazado_138657" data-name="Trazado 138657" d="M81.916,24.666a1.309,1.309,0,0,0,.928-.381l1.7-1.7,1.7,1.7a1.314,1.314,0,0,0,1.857,0l1.7-1.7,1.7,1.7a1.314,1.314,0,0,0,1.857,0l1.7-1.7,1.7,1.7a1.309,1.309,0,0,0,.928.381v18.38H81.916Z" transform="translate(-22.824 -6.293)" fill="#fff"/>
        <rect id="Rectángulo_37923" data-name="Rectángulo 37923" width="3.945" height="7.875" transform="translate(53.841 30.191)" fill="#aed3f2"/>
        <rect id="Rectángulo_37924" data-name="Rectángulo 37924" width="3.943" height="7.875" transform="translate(76.157 30.191)" fill="#aed3f2"/>
        <rect id="Rectángulo_37925" data-name="Rectángulo 37925" width="78.773" height="9.19" transform="translate(1.329 44.629)" fill="#aed3f2"/>
        <path id="Trazado_138658" data-name="Trazado 138658" d="M27.1,54.372H37.763L36.449,49.1H28.573Z" transform="translate(-7.55 -13.681)" fill="#aed3f2"/>
        <path id="Trazado_138659" data-name="Trazado 138659" d="M49.105,5.1a3.283,3.283,0,0,0-3.283-3.283H5.125A3.288,3.288,0,0,0,1.842,5.1V30.7H49.105Z" transform="translate(-0.513 -0.505)" fill="#aed3f2"/>
        <path id="Trazado_138660" data-name="Trazado 138660" d="M80.1,28.878H77.471V14.436a1.314,1.314,0,0,0-2.487-.586l-.488.977-1.339-1.339a1.314,1.314,0,0,0-1.857,0l-1.7,1.7-1.7-1.7a1.319,1.319,0,0,0-1.861,0l-1.7,1.7-1.7-1.7a1.314,1.314,0,0,0-1.857,0l-1.339,1.339-.488-.977a1.314,1.314,0,0,0-2.487.586V28.878H53.859a1.309,1.309,0,0,0-1.309,1.308V43.321H35.465V40.692a1.314,1.314,0,0,0-1.314-1.309H31.221l-.659-2.629H45.287a4.592,4.592,0,0,0,4.592-4.592V4.592A4.592,4.592,0,0,0,45.287,0H4.592A4.593,4.593,0,0,0,0,4.592V32.161a4.592,4.592,0,0,0,4.592,4.592H19.246l-.738,2.629H15.767a1.314,1.314,0,0,0-1.314,1.309V43.32H1.324A1.311,1.311,0,0,0,.014,44.63v9.19a1.308,1.308,0,0,0,1.3,1.314H80.1a1.309,1.309,0,0,0,1.309-1.308V30.193a1.31,1.31,0,0,0-1.3-1.315h0Zm-21.008-10.5a1.307,1.307,0,0,0,.928-.382l1.7-1.7,1.7,1.7a1.314,1.314,0,0,0,1.857,0l1.7-1.7,1.7,1.7a1.314,1.314,0,0,0,1.857,0l1.7-1.7,1.7,1.7a1.307,1.307,0,0,0,.928.382v18.38H59.092ZM55.154,31.511h1.315v5.252H55.154ZM2.643,4.591A1.954,1.954,0,0,1,4.6,2.637h40.7a1.954,1.954,0,0,1,1.954,1.954V28.877H2.643ZM4.6,34.129a1.954,1.954,0,0,1-1.954-1.954v-.664H47.278v.66a1.954,1.954,0,0,1-1.954,1.954Zm23.939,5.252h-7.26l.738-2.629h5.863ZM17.089,42.005H32.84V43.32H17.082ZM78.8,52.519H2.643V45.955H78.8Zm0-9.19H55.154V39.391H78.8Zm0-6.564H77.481V31.512H78.8Z"/>
        <path id="Trazado_138661" data-name="Trazado 138661" d="M85.021,42.668h10.5a1.314,1.314,0,1,0,.163-2.624,1.232,1.232,0,0,0-.163,0h-10.5a1.314,1.314,0,1,0-.163,2.624,1.229,1.229,0,0,0,.163,0" transform="translate(-23.3 -11.157)"/>
        <path id="Trazado_138662" data-name="Trazado 138662" d="M85.021,48.086h10.5a1.314,1.314,0,1,0,.163-2.624,1.229,1.229,0,0,0-.163,0h-10.5a1.314,1.314,0,1,0-.163,2.624,1.229,1.229,0,0,0,.163,0" transform="translate(-23.3 -12.666)"/>
        <path id="Trazado_138663" data-name="Trazado 138663" d="M85.021,37.195h10.5a1.314,1.314,0,1,0,.163-2.624,1.232,1.232,0,0,0-.163,0h-10.5a1.314,1.314,0,1,0-.163,2.624,1.229,1.229,0,0,0,.163,0" transform="translate(-23.3 -9.632)"/>
        <path id="Trazado_138664" data-name="Trazado 138664" d="M85.021,31.736h10.5a1.314,1.314,0,1,0,.163-2.624,1.229,1.229,0,0,0-.163,0h-10.5a1.314,1.314,0,1,0-.163,2.624,1.229,1.229,0,0,0,.163,0" transform="translate(-23.3 -8.111)"/>
        <path id="Trazado_138665" data-name="Trazado 138665" d="M20.955,15.625h7.02V30.3h6.893V15.625h7.02L31.424,5.159Z" transform="translate(-5.839 -1.438)" fill="#fff"/>
        <path id="Trazado_138666" data-name="Trazado 138666" d="M20.638,15.308v.821h6.2V29.984a.816.816,0,0,0,.812.82h6.9a.825.825,0,0,0,.821-.821V16.128h6.2a.821.821,0,0,0,.577-1.4L31.686,4.266a.816.816,0,0,0-1.153,0l0,0-10.47,10.46a.821.821,0,0,0,.581,1.4v-.821l.581.581,9.889-9.883,8.481,8.482H34.553a.824.824,0,0,0-.581.239.835.835,0,0,0-.239.581V29.165H28.48V15.309a.817.817,0,0,0-.814-.821H20.638v.821l.581.581Z" transform="translate(-5.522 -1.121)"/>
      </g>
    </g>
  </g>
</svg>
