<svg xmlns="http://www.w3.org/2000/svg" xmlns:xlink="http://www.w3.org/1999/xlink" width="123" height="123" viewBox="0 0 123 123">
  <defs>
    <clipPath id="clip-path">
      <rect id="Rectángulo_37927" data-name="Rectángulo 37927" width="66.187" height="84.718" fill="none"/>
    </clipPath>
  </defs>
  <g id="Grupo_159226" data-name="Grupo 159226" transform="translate(-420 -1641.58)">
    <circle id="Elipse_4854" data-name="Elipse 4854" cx="61.5" cy="61.5" r="61.5" transform="translate(420 1641.58)" fill="#6b8dfc"/>
    <g id="Grupo_160430" data-name="Grupo 160430" transform="translate(448 1661.581)">
      <g id="Grupo_160430-2" data-name="Grupo 160430" clip-path="url(#clip-path)">
        <path id="Trazado_138667" data-name="Trazado 138667" d="M5.5,45.033c-1.321-.067-1.339-.067-1.317-1.429a64.828,64.828,0,0,1,.3-8.9,26.505,26.505,0,0,1,7.074-14.5,1.9,1.9,0,0,0,.582-1.439c-.023-5.122.028-10.244-.038-15.365A3.2,3.2,0,0,1,14.111,0H28.836C30.351.306,30.9,1.381,31.05,2.779c.1.969.108.966,1.105.964,1.675,0,3.35-.037,5.023.016.7.023,1.026-.184,1.023-.9a3.654,3.654,0,0,1,.456-1.651A2.4,2.4,0,0,1,40.417,0H55.142a3.224,3.224,0,0,1,2.009,3.4c-.065,5.149-.018,10.3-.032,15.449a1.612,1.612,0,0,0,.473,1.232A26.428,26.428,0,0,1,65.06,38.489c.049,3.607-.022,7.215.032,10.822.012.832-.194,1.148-1.016.994a1.287,1.287,0,0,0-.328.023c-1.118.443-1.56.175-1.567-1.011-.02-3.055-.046-6.11,0-9.163a26.911,26.911,0,0,0-2.977-13.137A20.108,20.108,0,0,0,40.983,16.134q-6.351.032-12.7,0A19.539,19.539,0,0,0,16.629,19.61a20.173,20.173,0,0,0-6.571,7.376A26.518,26.518,0,0,0,7.07,40.051c.025,1.321.017,2.644,0,3.966-.017,1.2-.431,1.458-1.563,1.016" transform="translate(-1.537)"/>
        <path id="Trazado_138668" data-name="Trazado 138668" d="M62.211,65.085c.827.009,1.653.011,2.479.028A1.335,1.335,0,0,1,66.175,66.6c.005,7.968.034,15.937-.018,23.9A6.557,6.557,0,0,1,59.8,96.874c-.275.009-.551.006-.827.006H7.2c-4.466,0-7.2-2.738-7.2-7.209Q0,78.3,0,66.925c0-1.406.408-1.808,1.819-1.814.716,0,1.432-.017,2.148-.026a2.167,2.167,0,0,1,1.357-.219c.971-.026,1.039-.073,1.042-1.033.008-3.245-.015-6.49.009-9.735a38.278,38.278,0,0,1,.252-6.5A18.168,18.168,0,0,1,9.379,40.76a17.7,17.7,0,0,1,13.077-7.618,10.679,10.679,0,0,1,1.074-.032c6.37,0,12.739-.061,19.107.02a16.538,16.538,0,0,1,11.7,4.834,20.233,20.233,0,0,1,2.456,2.79,17.845,17.845,0,0,1,3.018,9.958c-.018,4.319-.006,8.637,0,12.956,0,1.168.02,1.177,1.209,1.2a1.831,1.831,0,0,1,1.191.219" transform="translate(0 -12.163)"/>
        <path id="Trazado_138669" data-name="Trazado 138669" d="M11.918,44.2a17.816,17.816,0,0,0-2.9,8.052c-.054.6-.088,1.207-.089,1.811-.008,4.567-.017,9.133.011,13.7,0,.616-.145.828-.77.767s-1.263-.03-1.9-.039V65.892c.047-.068.1-.15.18-.154.839-.048.864-.585.945-1.274.113-.963-.624-.968-1.124-1.273V60.6C7.6,60.53,7.593,60.53,7.6,59.158c.023-3.208-.176-6.427.495-9.6a22.749,22.749,0,0,1,2.634-7.215A18.693,18.693,0,0,1,11.918,44.2" transform="translate(-2.307 -15.564)" fill="#dc923c"/>
        <path id="Trazado_138670" data-name="Trazado 138670" d="M95.092,68.484c-.848-.007-1.926.3-2.478-.111-.53-.391-.159-1.538-.163-2.351-.019-3.438-.094-6.879.014-10.314a19.184,19.184,0,0,0-3.016-11.514,14.862,14.862,0,0,1,1.19-1.86,22.458,22.458,0,0,1,2.793,8.2c.627,4.017.229,8.068.331,12.1a22.32,22.32,0,0,1-.012,2.39c-.056.689.157.963.849.844a2.268,2.268,0,0,1,.492.021v2.594" transform="translate(-32.881 -15.562)" fill="#dc923c"/>
        <path id="Trazado_138671" data-name="Trazado 138671" d="M5.507,75.312c1.326.068,1.326.068,1.326,1.432,0,1.2,0,1.2-1.326,1.268-1.321-.068-1.321-.068-1.321-1.391,0-1.241,0-1.241,1.321-1.31" transform="translate(-1.539 -27.685)"/>
        <path id="Trazado_138672" data-name="Trazado 138672" d="M62.653,36.023a3.032,3.032,0,0,1-1.19,1.86,17.62,17.62,0,0,0-9.172-6.691,17.416,17.416,0,0,0-5.126-.763c-6.093,0-12.185-.027-18.277.009a17,17,0,0,0-14.115,7.136c-.082.108-.178.2-.267.307-.749-.392-.908-1.161-1.187-1.854a20.019,20.019,0,0,1,9.205-8.881,19.421,19.421,0,0,1,8.84-1.98c-.006.386-.344.543-.553.784a1.7,1.7,0,0,0,.893,2.845,4.3,4.3,0,0,0,1.069.077q5.211,0,10.421,0a4.306,4.306,0,0,0,1.07-.077,1.7,1.7,0,0,0,.892-2.845c-.209-.242-.546-.4-.553-.784A20.031,20.031,0,0,1,60.9,33.249a12.729,12.729,0,0,1,1.754,2.774" transform="translate(-4.897 -9.25)" fill="#f1a042"/>
        <path id="Trazado_138673" data-name="Trazado 138673" d="M63.227,7.331a2.279,2.279,0,0,1-.818-2.892c.109-.3.321-.253.526-.253,3.188,0,6.377,0,9.564-.01.409,0,.524.137.477.532q-.59,4.945-1.159,9.893c-.261.214-.53.083-.78,0a19.7,19.7,0,0,0-3.682-.879c-.966-.138-1.038-.228-1.027-1.23a5.82,5.82,0,0,0-1.087-3.48,7.862,7.862,0,0,0-2.015-1.677" transform="translate(-22.866 -1.535)" fill="#303030"/>
        <path id="Trazado_138674" data-name="Trazado 138674" d="M26.566,14.6q-.576-4.949-1.157-9.9c-.049-.4.075-.529.478-.528q4.784.018,9.568,0c.389,0,.553.125.537.514a1.65,1.65,0,0,0,.068.488,1.6,1.6,0,0,1-.9,2.154,5.578,5.578,0,0,0-3.1,5.4c.02.485-.126.866-.7.937a19.737,19.737,0,0,0-4.167.975.566.566,0,0,1-.622-.044" transform="translate(-9.337 -1.535)" fill="#303030"/>
        <path id="Trazado_138675" data-name="Trazado 138675" d="M54.321,25.166a3.283,3.283,0,0,1,1.141,1.16A1.97,1.97,0,0,1,53.617,29.1c-3.942.027-7.885.014-11.828.006a1.939,1.939,0,0,1-1.86-1.26,1.737,1.737,0,0,1,.521-2.153c.2-.181.421-.349.632-.523h13.24" transform="translate(-14.613 -9.251)" fill="#febd4f"/>
        <path id="Trazado_138676" data-name="Trazado 138676" d="M53.795,14.925a2.871,2.871,0,0,0-3.39-3.157,24.739,24.739,0,0,1-3.879,0,2.86,2.86,0,0,0-3.385,3.158c-.3.853-.514.994-1.265.824a4.819,4.819,0,0,1,1.046-4.015,3.94,3.94,0,0,1,2.942-1.27c1.708,0,3.416-.008,5.123,0a3.968,3.968,0,0,1,4.1,4.129c0,.385-.016.77-.025,1.155-.751.17-.968.029-1.265-.825" transform="translate(-15.379 -3.845)" fill="#dc923c"/>
        <path id="Trazado_138677" data-name="Trazado 138677" d="M27.234,16.436a20.415,20.415,0,0,1,4.784-1.141c.573-.044.5-.406.484-.752a5.81,5.81,0,0,1,1.092-3.794,4.041,4.041,0,0,1,2.231-1.581,7.837,7.837,0,0,0-1.981,6.549c.075.844-.237,1.14-1.038,1.225a18.464,18.464,0,0,0-4.83,1.288c-.483.19-.632.1-.612-.407a9.928,9.928,0,0,1-.13-1.387" transform="translate(-10.004 -3.37)" fill="#121212"/>
        <path id="Trazado_138678" data-name="Trazado 138678" d="M63.821,9.165A5.006,5.006,0,0,1,67.139,13.8c.029,1.532.03,1.52,1.546,1.647a20.8,20.8,0,0,1,3.727.983c-.057.626-.113,1.253-.176,1.95a35.811,35.811,0,0,0-4.715-1.359c-1.713-.319-1.77-.354-1.69-2.112a7.556,7.556,0,0,0-2.01-5.749" transform="translate(-23.46 -3.369)" fill="#121212"/>
        <path id="Trazado_138679" data-name="Trazado 138679" d="M20.971,8.089V4.413l.113-.008q.343,2.964.686,5.93c.262,2.312.5,4.627.792,6.934.075.585-.1.888-.628,1.045a6.169,6.169,0,0,1-.406-2.327c-.305-2.624-.391-5.264-.557-7.9" transform="translate(-7.709 -1.619)" fill="#234274"/>
        <path id="Trazado_138680" data-name="Trazado 138680" d="M81.787,18.32c-.586-.169-.687-.529-.608-1.124.294-2.225.519-4.458.769-6.688.228-2.032.456-4.063.8-6.086V8.1c-.17,2.027-.161,4.065-.386,6.089-.132,1.177-.2,2.36-.344,3.536a.852.852,0,0,1-.233.6" transform="translate(-29.832 -1.626)" fill="#234173"/>
        <path id="Trazado_138681" data-name="Trazado 138681" d="M82.154,20.456c.058-1.771.268-3.529.458-5.289.152-1.408.245-2.824.366-4.235.02-.238-.073-.5.139-.7V20.995c-.408-.045-.657-.349-.963-.539" transform="translate(-30.2 -3.761)" fill="#355486"/>
        <path id="Trazado_138682" data-name="Trazado 138682" d="M20.971,10.23a3.783,3.783,0,0,1,.247,1.672c.3,2.845.489,5.7.716,8.553l-.963.657Z" transform="translate(-7.709 -3.761)" fill="#355486"/>
        <path id="Trazado_138683" data-name="Trazado 138683" d="M60.718,17.52a1.432,1.432,0,0,0,1.265.825c.009.218,0,.437.03.652.072.526-.124.7-.668.7s-.71-.2-.665-.709c.042-.487.028-.979.039-1.468" transform="translate(-22.303 -6.44)" fill="#af582a"/>
        <path id="Trazado_138684" data-name="Trazado 138684" d="M41.879,18.345a1.432,1.432,0,0,0,1.265-.824c.011.408.035.816.029,1.224-.006.451.191.961-.655.962s-.655-.5-.663-.954c0-.136.015-.271.024-.407" transform="translate(-15.382 -6.441)" fill="#af582a"/>
        <path id="Trazado_138685" data-name="Trazado 138685" d="M35.09,39.619q.013,2.515.027,5.029c.009,1.129.43,1.573,1.525,1.579q2.433.015,4.866,0c1.067-.007,1.539-.494,1.548-1.579.015-1.676.02-3.353.028-5.029a.8.8,0,0,1,.6-.23,46.688,46.688,0,0,1,6.6.142A13.407,13.407,0,0,1,61.827,53.066q0,6.163,0,12.326a2.976,2.976,0,0,1-3.182,2.978,7.343,7.343,0,0,0-3.519-.71q-15.91.032-31.82,0a7.528,7.528,0,0,0-3.761.718,4,4,0,0,1-2.974-1.528,1.31,1.31,0,0,1-.219-.947c-.009-4.6-.088-9.2.019-13.791A13.464,13.464,0,0,1,26.756,39.728c2.587-.589,5.207-.294,7.815-.332a.707.707,0,0,1,.519.223" transform="translate(-5.998 -14.461)" fill="#303030"/>
        <path id="Trazado_138686" data-name="Trazado 138686" d="M58.148,67.623a5.752,5.752,0,0,0,2.534-1.3.919.919,0,0,0,.285-.821c0-4.713.093-9.428-.039-14.137A12.322,12.322,0,0,0,57.8,43.664,12.933,12.933,0,0,0,48.9,39.043C46.776,38.83,44.61,39,42.46,39c-.008-.082-.02-.164-.022-.247-.025-1.083-.023-1.107,1.026-1.08a42.583,42.583,0,0,1,7.332.315A14.676,14.676,0,0,1,62.148,50.3a22.871,22.871,0,0,1,.139,2.636q0,21.012.015,42.022c0,.717-.13.976-.928.975Q38.463,95.9,15.552,95.93c-.692,0-.933-.121-.932-.887q.04-21.507.024-43.015a14.566,14.566,0,0,1,12.545-14.2c2.254-.295,4.514-.071,6.77-.154.377-.015.574.1.536.508-.025.274-.02.55-.028.825-2.012,0-4.03-.11-6.033.019A12.9,12.9,0,0,0,20.7,42.1a13.24,13.24,0,0,0-4.473,7.481,10.278,10.278,0,0,0-.252,2.114c-.023,4.437.012,8.874-.034,13.311a1.731,1.731,0,0,0,.9,1.759,5.144,5.144,0,0,0,1.937.858c.078.384-.2.608-.4.859a3.829,3.829,0,0,0-.838,2.447q0,9.115,0,18.231a3.74,3.74,0,0,0,.911,2.5,2.641,2.641,0,0,1,.507.747,2.565,2.565,0,0,0,2.509,1.911c.275.023.551.014.827.014H54.631a8.643,8.643,0,0,0,.992-.025,2.474,2.474,0,0,0,2.342-1.885,2.453,2.453,0,0,1,.5-.75,3.815,3.815,0,0,0,.924-2.582q0-9.038,0-18.077a3.929,3.929,0,0,0-.891-2.6c-.188-.228-.426-.446-.352-.8" transform="translate(-5.374 -13.846)" fill="#121212"/>
        <path id="Trazado_138687" data-name="Trazado 138687" d="M96.127,100.434c.848-.024,1.928-.356,2.476.108.521.44.156,1.551.157,2.365.006,4.018-.013,8.035-.023,12.053a2,2,0,0,1-2.785-1.417,4.593,4.593,0,0,1-.09-1.147q0-5.355,0-10.709a1.647,1.647,0,0,1,.262-1.253" transform="translate(-35.237 -36.869)" fill="#dc923c"/>
        <path id="Trazado_138688" data-name="Trazado 138688" d="M4.213,115.019Q4.2,108,4.176,100.985c0-.381.092-.545.5-.526.714.035,1.43.025,2.144.034a1.3,1.3,0,0,1,.262,1.006c.007,3.762.018,7.523,0,11.284A2.282,2.282,0,0,1,5.3,115.22a1.143,1.143,0,0,1-1.086-.2" transform="translate(-1.535 -36.928)" fill="#dc923c"/>
        <path id="Trazado_138689" data-name="Trazado 138689" d="M95.5,100.5c0,3.988.061,7.977-.037,11.963-.041,1.668.858,2.8,2.647,2.563a3.96,3.96,0,0,1-3.235,3.928c-.536.111-.723-.006-.717-.593.028-2.729.013-5.458.013-8.188v-8.436c0-1.305,0-1.305,1.329-1.238" transform="translate(-34.614 -36.935)" fill="#bc731c"/>
        <path id="Trazado_138690" data-name="Trazado 138690" d="M4.234,115.022c1.657.254,2.685-.753,2.643-2.562-.089-3.986-.031-7.975-.033-11.963a1.613,1.613,0,0,1,.164-.021c1.166-.034,1.166-.034,1.166,1.094q0,8.27,0,16.541c0,1.021-.005,1.024-1.021.741a3.879,3.879,0,0,1-2.919-3.829" transform="translate(-1.556 -36.931)" fill="#bc731c"/>
        <path id="Trazado_138691" data-name="Trazado 138691" d="M50.189,40.232c0-.3-.018-.608,0-.909.039-.541-.261-1.358.121-1.564.646-.348,1.5-.1,2.265-.11.289,0,.255.231.255.418,0,1.488,0,2.976,0,4.464,0,.263-.066.429-.367.4a1.115,1.115,0,0,0-.166,0c-2.117.1-2.117.1-2.117-1.957v-.744" transform="translate(-18.423 -13.812)" fill="#dc923c"/>
        <path id="Trazado_138692" data-name="Trazado 138692" d="M6.8,87.936c.054-.006.109-.015.164-.017,1.171-.034,1.171-.034,1.171,1.1,0,1.207-.013,2.415.007,3.622.007.425-.134.587-.567.574a23.282,23.282,0,0,0-2.468.008c-.744.057-1.079-.169-.944-.94a3.675,3.675,0,0,0,.027-.41,1.084,1.084,0,0,1,.349-.212c1.611-.622,2-1.162,2.056-2.865a1.206,1.206,0,0,1,.206-.858" transform="translate(-1.521 -32.315)" fill="#0d0d0d"/>
        <path id="Trazado_138693" data-name="Trazado 138693" d="M98.117,91.854c.006.054.016.109.018.164.034,1.171.034,1.172-1.1,1.172-.768,0-1.537-.019-2.3.006-.434.015-.574-.148-.567-.573.02-1.262.05-2.526-.009-3.786-.035-.743.171-1.08.941-.944a3.53,3.53,0,0,0,.41.025,1.321,1.321,0,0,1,.2.941,2.515,2.515,0,0,0,1.978,2.756,1.159,1.159,0,0,1,.428.238" transform="translate(-34.61 -32.298)" fill="#0d0d0d"/>
        <path id="Trazado_138694" data-name="Trazado 138694" d="M6.818,87.933c0,1.089.192,2.21-.71,3.108a2.538,2.538,0,0,1-1.9.828c-.008-1.148-.006-2.3-.031-3.443-.008-.384.113-.539.512-.522.709.03,1.42.022,2.13.03" transform="translate(-1.535 -32.313)" fill="#303030"/>
        <path id="Trazado_138695" data-name="Trazado 138695" d="M98.9,91.809a2.588,2.588,0,0,1-2.621-2.7c-.005-.413.006-.826.01-1.24.842-.016,1.909-.352,2.462.112.531.445.129,1.541.168,2.349.023.489-.011.983-.019,1.474" transform="translate(-35.391 -32.253)" fill="#303030"/>
        <path id="Trazado_138696" data-name="Trazado 138696" d="M20.314,109.365a4.9,4.9,0,0,1-1.51-3.936q.076-8.474,0-16.948a4.9,4.9,0,0,1,1.511-3.934,5.338,5.338,0,0,1,3.124-.841q16.645.032,33.29,0a5.07,5.07,0,0,1,2.957.84A4.882,4.882,0,0,1,61.2,88.48q-.076,8.474,0,16.948a4.9,4.9,0,0,1-1.51,3.936,1.6,1.6,0,0,1-1,.805,5.518,5.518,0,0,1-1.949.29q-16.733,0-33.467,0a5.261,5.261,0,0,1-1.87-.262,1.9,1.9,0,0,1-1.09-.831" transform="translate(-6.912 -30.77)"/>
        <path id="Trazado_138697" data-name="Trazado 138697" d="M21.192,124.28a5.458,5.458,0,0,0,3.2.842q16.692-.036,33.383-.006a4.766,4.766,0,0,0,2.788-.837,2.472,2.472,0,0,1-2.686,2.149c-2.261.013-4.522,0-6.783,0q-13.524,0-27.047,0a2.588,2.588,0,0,1-2.858-2.151" transform="translate(-7.79 -45.685)" fill="#303030"/>
        <path id="Trazado_138698" data-name="Trazado 138698" d="M38.872,98.21c.07,1.323.07,1.323,1.459,1.323,6.3,0,12.606.012,18.909-.017.7,0,.862.187.852.866-.045,3.357-.034,6.715-.043,10.074a1.605,1.605,0,0,1-.939.876,5.293,5.293,0,0,1-2.263.381q-15.3-.007-30.6,0a5.291,5.291,0,0,1-2.263-.381,1.608,1.608,0,0,1-.939-.877c-.009-3.467-.006-6.936-.037-10.4-.005-.57.311-.516.68-.524.39-.008.685-.011.665.541-.039,1.072-.02,2.146-.008,3.22a1.347,1.347,0,0,0,1.51,1.536c1.211.014,2.422.016,3.633,0a1.334,1.334,0,0,0,1.468-1.5c.02-1.706.022-3.412.03-5.118a3.677,3.677,0,0,1,2.552-.114.424.424,0,0,1,.225.325c.016.786.488.9,1.152.89.644-.006,1.152-.063,1.171-.867a.463.463,0,0,1,.215-.338,3.586,3.586,0,0,1,2.571.1" transform="translate(-8.457 -35.995)" fill="#c46532"/>
        <path id="Trazado_138699" data-name="Trazado 138699" d="M24.969,87.939c1.047-.009,2.094-.025,3.141-.025q15.132,0,30.265,0c.33,0,.66.016.99.025a2.968,2.968,0,0,1-2.119,4.137,7.553,7.553,0,0,1-1.236.067q-13.844,0-27.687,0a7.561,7.561,0,0,1-1.236-.067,2.968,2.968,0,0,1-2.119-4.137" transform="translate(-9.077 -32.316)" fill="#f1a042"/>
        <path id="Trazado_138700" data-name="Trazado 138700" d="M24.347,87.954c0,1.117-.187,2.266.772,3.167a2.606,2.606,0,0,0,1.847.775q14.58,0,29.16,0a2.588,2.588,0,0,0,2.624-2.618c.009-.44,0-.881-.006-1.322.947.148,1.314.531,1.328,1.445.016,1.019-.033,2.039.018,3.055.031.61-.135.792-.767.784-2.807-.037-5.615-.016-8.422-.016H40.329c-1.389,0-1.389,0-1.459,1.324H36.278c-.067-.046-.15-.1-.154-.179-.049-.838-.587-.863-1.274-.944-.961-.113-.968.623-1.274,1.123H30.983c-.282-1.047-.618-1.32-1.67-1.322-1.874-.005-3.748-.021-5.621.011-.544.009-.709-.153-.689-.693.04-1.046,0-2.095.016-3.141.013-.916.379-1.3,1.328-1.447" transform="translate(-8.455 -32.332)" fill="#bc731c"/>
        <path id="Trazado_138701" data-name="Trazado 138701" d="M23.054,117.741a4.618,4.618,0,0,0,3.051,1q15.452-.032,30.9,0a4.624,4.624,0,0,0,3.051-1c.009.274.03.55.024.824a1.335,1.335,0,0,1-1.476,1.487c-1.045.016-2.092,0-3.138,0H25.248c-2,0-2.3-.313-2.194-2.315" transform="translate(-8.468 -43.281)" fill="#af582a"/>
        <path id="Trazado_138702" data-name="Trazado 138702" d="M30.614,101.817c0,.192-.015.385,0,.574.045.474-.032.74-.636.741s-.751-.222-.7-.765a6.388,6.388,0,0,0,0-1.229c-.052-.536.139-.708.682-.694.477.013.728.1.655.636a5.521,5.521,0,0,0-.006.738" transform="translate(-10.761 -36.923)" fill="#303030"/>
        <path id="Trazado_138703" data-name="Trazado 138703" d="M39.722,97.609c.071-1.324.071-1.324,1.433-1.324,1.2,0,1.2,0,1.269,1.324-.07,1.323-.07,1.323-1.433,1.323-1.2,0-1.2,0-1.269-1.323" transform="translate(-14.602 -35.394)"/>
      </g>
    </g>
  </g>
</svg>
