<svg xmlns="http://www.w3.org/2000/svg" xmlns:xlink="http://www.w3.org/1999/xlink" width="123" height="123" viewBox="0 0 123 123">
  <defs>
    <clipPath id="clip-path">
      <rect id="Rectángulo_37928" data-name="Rectángulo 37928" width="82.667" height="73.373" fill="none"/>
    </clipPath>
  </defs>
  <g id="Grupo_159223" data-name="Grupo 159223" transform="translate(-420 -1641.58)">
    <circle id="Elipse_4854" data-name="Elipse 4854" cx="61.5" cy="61.5" r="61.5" transform="translate(420 1641.58)" fill="#6b8dfc"/>
    <g id="Grupo_160431" data-name="Grupo 160431" transform="translate(440 1666.58)">
      <g id="Grupo_160431-2" data-name="Grupo 160431" transform="translate(0 0)" clip-path="url(#clip-path)">
        <path id="Trazado_138704" data-name="Trazado 138704" d="M18.386,1.3C18.668.312,18.974.063,19.978.07q6.335.043,12.669.1c1.038.01,1.417.424,1.438,1.5.043,2.123-.092,4.248.11,6.371A19.989,19.989,0,0,0,39.562,20.1,52.156,52.156,0,0,0,52.31,30.512a35.55,35.55,0,0,0,12.94,3.9,49.4,49.4,0,0,1,7.889,1.13c2.5.741,4.555,2.047,5.383,4.719a8.036,8.036,0,0,1,0,4.3,5.4,5.4,0,0,0-.331,1.953c.074.618-.4,1.031-1.047,1.113a3.824,3.824,0,0,1-1.047.008c-.721-.113-.862.22-.809.852.03.357.139.468.478.448.376-.021.753-.015,1.13,0a1.245,1.245,0,0,1,1.34,1.207,1.22,1.22,0,0,1-1.326,1.212c-.911.017-1.824,0-2.818,0,.435,1.216.866,2.366,1.253,3.531.127.383.291.372.584.221.213-.11.458-.159.67-.272a1.431,1.431,0,0,1,1.978.463c1.333,1.616,2.82,3.1,4.089,4.769v.808a3.056,3.056,0,0,1-1.274.9c-2.666,1.058-5.322,2.139-7.983,3.21-1.363.549-2.012.166-2.1-1.271q-.159-2.618-.264-5.238c-.05-1.233.078-1.407,1.2-1.868.987-.4.986-.4.633-1.389-.4-1.111-.812-2.216-1.176-3.338a.642.642,0,0,0-.732-.53q-9.443.02-18.887,0c-.544,0-.575.2-.6.647-.046.859.3,1.79-.389,2.557a.212.212,0,0,0,.021.2.189.189,0,0,0,.274.067c.153-.109.3-.227.447-.343A10.566,10.566,0,0,1,67.737,67.676c-.609,1.157-.905,1.286-2.183.956A1.424,1.424,0,0,1,65.26,66.7a10.066,10.066,0,0,0,.859-2.256,7.936,7.936,0,1,0-4.944,5.736c.4-.151.789-.348,1.195-.49a1.158,1.158,0,0,1,1.558.554c.323,1.11.166,1.468-.868,1.991A10.559,10.559,0,0,1,49.309,57.36c.278-.461.424-.761-.147-1.06a1.2,1.2,0,0,1-.466-.439,1.876,1.876,0,0,0-1.943-1.054c-.664.046-1.059-.448-1.144-1.126a3.207,3.207,0,0,1-.012-.323c-.017-.641.214-1.509-.113-1.865-.389-.424-1.269-.128-1.934-.129-5.919-.011-11.838.015-17.756-.029-.874-.007-1.123.254-1,1.059a5.523,5.523,0,0,1,.005.967c-.029,1.053-.431,1.5-1.482,1.473a1.264,1.264,0,0,0-1.36.712c-.262.547-1.148.721-1.117,1.315.027.53.563,1.014.791,1.555a10.117,10.117,0,0,1-1.582,11.158A9.929,9.929,0,0,1,9.139,72.905a10.063,10.063,0,0,1-7.544-8.464A10.545,10.545,0,0,1,18.57,54.491c.126.1.252.2.379.3a.219.219,0,0,0,.288-.015.155.155,0,0,0,.037-.262c-.66-.745-.351-1.648-.361-2.48-.006-.583-.177-.692-.724-.69-4.816.022-9.632.013-14.447.013-.215,0-.432.013-.646-.006a1.193,1.193,0,0,1-1.145-1.221,1.169,1.169,0,0,1,1.1-1.183A3.824,3.824,0,0,1,4.1,48.94c.646.091.815-.164.783-.784-.022-.441-.166-.556-.564-.516a6.867,6.867,0,0,1-.725,0c-1.01-.006-1.539-.348-1.637-1.059s.34-1.178,1.355-1.441a16.4,16.4,0,0,1-2.988-6.8A23.045,23.045,0,0,1,1.842,25.793a2.588,2.588,0,0,1,.188-.444A9.535,9.535,0,0,0,3.1,20.018C3.044,13.912,3.079,7.805,3.081,1.7c0-1.348.368-1.7,1.727-1.7q4.641.019,9.281.033c1.283,0,1.44.108,1.888,1.263.036.846-.349,1.278-1.278,1.36-.826.072-1.658.026-2.486.026-.99,0-1.979.022-2.967-.012-.907.02-1.814,0-2.722.009-.448,0-.791.088-.785.653s.369.633.807.636c.907.008,1.815-.012,2.723.008,6.852-.045,13.7-.007,20.554-.02.322,0,.645.006.967-.02.34-.027.558-.171.557-.545s-.249-.5-.578-.521c-.295-.021-.591-.01-.886-.015C26.554,2.79,23.221,3,19.9,2.692c-1.12-.1-1.566-.479-1.51-1.4" transform="translate(0 0)"/>
        <path id="Trazado_138705" data-name="Trazado 138705" d="M78.571,86.158a1.584,1.584,0,0,0-1.982-.176A8.146,8.146,0,0,1,64.867,78.5a8.138,8.138,0,0,1,16.162-1.195,7.7,7.7,0,0,1-.817,5.143,1.874,1.874,0,0,0-.015,2.1,4.692,4.692,0,0,1-1.626,1.608" transform="translate(-14.642 -15.916)" fill="#606672"/>
        <path id="Trazado_138706" data-name="Trazado 138706" d="M20.991,1.675c.3,1.01.54,1.194,1.606,1.2,3.679.031,7.358.081,11.036.064.776,0,.631.426.629.863s.15.872-.626.869c-7.171-.03-14.342-.018-21.513-.021a2.35,2.35,0,0,1-.317-.043,1.6,1.6,0,0,1,0-1.765c1.685,0,3.371-.039,5.054.01a1.47,1.47,0,0,0,1.719-1.18h2.409" transform="translate(-2.606 -0.378)" fill="#f88ca7"/>
        <path id="Trazado_138707" data-name="Trazado 138707" d="M11.812,14.427q7.868-.013,15.738-.026c2.18,0,4.36.019,6.539-.014.544-.009.787.118.922.681a21.479,21.479,0,0,0,3.756,7.953c.333.445.232.637-.158.926-.907.671-1.787,1.382-2.67,2.084-.783.621-.968,1.336-.511,1.924.5.642,1.187.629,2.044-.042.932-.729,1.871-1.449,2.784-2.2.33-.271.538-.315.849.04a19.911,19.911,0,0,0,1.588,1.605c.338.307.358.5,0,.817-.848.746-1.67,1.523-2.488,2.3-.655.623-.731,1.292-.238,1.84s1.233.53,1.915-.1c.852-.781,1.714-1.555,2.537-2.367.333-.328.557-.4.916-.042a13.778,13.778,0,0,0,1.406,1.209c.348.267.332.455.035.757-.719.727-1.409,1.481-2.1,2.236-.666.728-.712,1.374-.156,1.91.531.515,1.261.434,1.9-.236.763-.8,1.526-1.594,2.254-2.421.3-.338.516-.346.862-.077a18.27,18.27,0,0,0,1.66,1.141c.363.223.41.4.12.729-.513.586-1,1.2-1.473,1.816a1.214,1.214,0,0,0,.071,1.8,1.232,1.232,0,0,0,1.828-.3c.537-.637,1.051-1.294,1.576-1.942.067-.084.115-.211.2-.248.952-.409,1.477.557,2.259.724.437.093.26.423.144.705-.282.7-.565,1.393-.817,2.1a1.212,1.212,0,0,0,.65,1.674,1.171,1.171,0,0,0,1.6-.786c.293-.691.574-1.39.815-2.1.147-.429.365-.51.763-.345.371.154.757.273,1.142.39,1.183.363,1.183.36.908,1.6-.128.577-.269,1.151-.378,1.731a1.233,1.233,0,0,0,.965,1.52,1.215,1.215,0,0,0,1.411-1.015c.187-.783.346-1.573.5-2.365.074-.393.156-.591.669-.492a61.7,61.7,0,0,0,6.549.885c.459.039.65.187.644.686-.026,2.26-.031,4.52,0,6.779.007.544-.211.6-.664.6-1.587-.022-3.175-.009-4.763-.009q-22.156,0-44.314.018c-.755,0-.917-.207-.9-.928A31.146,31.146,0,0,0,19,35.9a16.084,16.084,0,0,0-7.188-8.6,1.636,1.636,0,0,1-.264-1q0-5.489,0-10.977a1.159,1.159,0,0,1,.258-.905" transform="translate(-2.606 -3.247)" fill="#f6ce69"/>
        <path id="Trazado_138708" data-name="Trazado 138708" d="M9.473,33.772c3.86,1.891,5.833,5.213,6.931,9.183a33.106,33.106,0,0,1,1,9.339c-.005.393-.07.566-.522.557-1.826-.034-3.654-.029-5.48-.037a2.769,2.769,0,0,1-1.054-1.082,15.639,15.639,0,0,1-2.744-8.605,23.684,23.684,0,0,1,1.432-8.514,1.561,1.561,0,0,1,.435-.842" transform="translate(-1.716 -7.623)" fill="#c0e7e5"/>
        <path id="Trazado_138709" data-name="Trazado 138709" d="M42.24,61.526q15.943,0,31.886,0c.473,0,.907-.067.863.669-.03.492-.17.692-.657.627a2.5,2.5,0,0,0-.323,0q-31.846,0-63.691-.012c-.348,0-.881.285-.938-.489-.055-.749.287-.8.894-.8q15.983.022,31.966.011" transform="translate(-2.116 -13.886)" fill="#5f6572"/>
        <path id="Trazado_138710" data-name="Trazado 138710" d="M8.464,33.432c-.317,1.466-.919,2.85-1.2,4.327-.918,4.8-.605,9.388,2.285,13.548a5.291,5.291,0,0,1,.848,1.167,8.657,8.657,0,0,0-1.448.039c-1.361.259-2.169-.419-2.931-1.441A15.063,15.063,0,0,1,3.357,39.312a26.825,26.825,0,0,1,1.91-6.464c.266-.628.537-.708,1.114-.422a12.735,12.735,0,0,1,2.082,1.007" transform="translate(-0.706 -7.284)" fill="#97d8d4"/>
        <path id="Trazado_138711" data-name="Trazado 138711" d="M13.4,70.677a7.322,7.322,0,0,1,6.27,1.825,7.72,7.72,0,0,1,2.519,8.58,7.867,7.867,0,0,1-6.752,5.687A4.775,4.775,0,0,1,13.21,86.7a8.827,8.827,0,0,1-2.194-1.933c-.208-.222-.595-.538.011-.791a3.064,3.064,0,0,1,.976.364,5.863,5.863,0,0,0,6.226-.842,5.79,5.79,0,0,0,2.15-6.332,5.948,5.948,0,0,0-4.62-4.474,5.812,5.812,0,0,0-3.854.389,2.045,2.045,0,0,1-.83.291c-.6-.235-.238-.578-.042-.807A5.762,5.762,0,0,1,13.4,70.677" transform="translate(-2.416 -15.928)" fill="#606672"/>
        <path id="Trazado_138712" data-name="Trazado 138712" d="M10.809,14.429q0,6.439,0,12.878c-1.079-.466-2.149-.952-3.24-1.387-.326-.129-.467-.266-.465-.623q.015-5.193,0-10.384c0-.367.083-.53.487-.518,1.071.031,2.144.026,3.218.034" transform="translate(-1.604 -3.249)" fill="#efc456"/>
        <path id="Trazado_138713" data-name="Trazado 138713" d="M34.208,8.751a.59.59,0,0,1,.062.147c.2,1.789.2,1.789-1.607,1.789q-9.985,0-19.968,0c-.294,0-.589-.016-.883-.025a1.853,1.853,0,0,1-.2-1.542.477.477,0,0,1,.559-.448c.134.009.269,0,.4,0q10.464,0,20.928,0a1.233,1.233,0,0,1,.708.077" transform="translate(-2.605 -1.955)" fill="#bfe6e4"/>
        <path id="Trazado_138714" data-name="Trazado 138714" d="M91.9,52.354c0-1.1.017-2.206-.008-3.308-.009-.429.158-.51.525-.417a9.472,9.472,0,0,1,2.627.99c1.876,1.129,2.479,2.953,1.867,5.417-.205.826-.507,1.29-1.49,1.176a21.071,21.071,0,0,0-2.983-.015c-.414.012-.56-.1-.548-.533.03-1.1.01-2.206.011-3.308" transform="translate(-20.742 -10.969)" fill="#c0e7e5"/>
        <path id="Trazado_138715" data-name="Trazado 138715" d="M12.114,70.71a17.316,17.316,0,0,0-2.072,1.825c-.182.225-.525.387-.324.774-.01.454-.421.6-.682.842a6.148,6.148,0,0,0-.6,8.577,5.978,5.978,0,0,0,.763.713c.208.181.545.285.488.666-.308.351.092.465.238.618.654.683,1.334,1.342,2,2.009a8.036,8.036,0,0,1-6.788-9.3,7.929,7.929,0,0,1,6.182-6.643,4.777,4.777,0,0,1,.793-.084" transform="translate(-1.133 -15.961)" fill="#484d56"/>
        <path id="Trazado_138716" data-name="Trazado 138716" d="M98.323,74.044a.536.536,0,0,1,.435.228c.633.691,1.259,1.386,1.891,2.077.261.285.112.37-.177.486-1.636.659-3.263,1.341-4.893,2.013-.386.159-.564.091-.566-.4,0-.852-.087-1.7-.141-2.557-.018-.287.029-.526.341-.647.972-.376,1.939-.763,2.909-1.145a2.023,2.023,0,0,1,.2-.059" transform="translate(-21.415 -16.714)" fill="#24272b"/>
        <path id="Trazado_138717" data-name="Trazado 138717" d="M33.2,8.737q-10.585.007-21.171.017c-1.407,0-1.212-.179-1.23,1.249,0,.214,0,.429,0,.644-1.073.009-2.147,0-3.219.033-.4.012-.476-.148-.49-.515-.057-1.525-.07-1.523,1.426-1.524q11.918-.007,23.837-.008c.28,0,.587-.122.844.1" transform="translate(-1.597 -1.941)" fill="#97d8d4"/>
        <path id="Trazado_138718" data-name="Trazado 138718" d="M10.806,3.172l0,1.765c-1.072.015-2.144.019-3.216.051C7.18,5,7.076,4.815,7.1,4.454a3.9,3.9,0,0,0,0-.724c-.049-.437.082-.625.564-.6,1.044.044,2.092.034,3.138.046" transform="translate(-1.601 -0.705)" fill="#f875a7"/>
        <path id="Trazado_138719" data-name="Trazado 138719" d="M73.527,85.559A6.375,6.375,0,1,1,79.9,79.245a6.372,6.372,0,0,1-6.376,6.313" transform="translate(-15.158 -16.435)"/>
        <path id="Trazado_138720" data-name="Trazado 138720" d="M10.193,84.584A6.611,6.611,0,0,1,7.408,80.5a6.368,6.368,0,0,1,2.387-6.359c.151-.109.288-.235.432-.354a6.392,6.392,0,1,1,.533,11.1c-.191-.1-.379-.2-.568-.3" transform="translate(-1.642 -16.437)"/>
        <path id="Trazado_138721" data-name="Trazado 138721" d="M74.236,83.851a3.952,3.952,0,1,1,3.953-3.919,3.949,3.949,0,0,1-3.953,3.919" transform="translate(-15.865 -17.144)" fill="#ebecee"/>
        <path id="Trazado_138722" data-name="Trazado 138722" d="M14.346,83.849a3.951,3.951,0,0,1-.009-7.9,3.992,3.992,0,0,1,3.984,4,3.952,3.952,0,0,1-3.975,3.905" transform="translate(-2.352 -17.143)" fill="#ebecee"/>
        <path id="Trazado_138723" data-name="Trazado 138723" d="M76.243,80.679a1.19,1.19,0,0,1-1.2,1.228,1.212,1.212,0,0,1-1.22-1.13,1.242,1.242,0,0,1,1.162-1.283,1.228,1.228,0,0,1,1.254,1.185" transform="translate(-16.665 -17.944)" fill="#030303"/>
        <path id="Trazado_138724" data-name="Trazado 138724" d="M16.378,80.672a1.212,1.212,0,0,1-1.2,1.234,1.185,1.185,0,0,1-1.215-1.123A1.217,1.217,0,0,1,15.107,79.5a1.248,1.248,0,0,1,1.271,1.177" transform="translate(-3.152 -17.944)" fill="#020202"/>
      </g>
    </g>
  </g>
</svg>
