<svg xmlns="http://www.w3.org/2000/svg" xmlns:xlink="http://www.w3.org/1999/xlink" width="123" height="123" viewBox="0 0 123 123">
  <defs>
    <clipPath id="clip-path">
      <rect id="Rectángulo_37921" data-name="Rectángulo 37921" width="69.798" height="69.694" fill="none"/>
    </clipPath>
  </defs>
  <g id="Grupo_159218" data-name="Grupo 159218" transform="translate(-420 -1641.58)">
    <circle id="Elipse_4854" data-name="Elipse 4854" cx="61.5" cy="61.5" r="61.5" transform="translate(420 1641.58)" fill="#6b8dfc"/>
    <g id="Grupo_160425" data-name="Grupo 160425" transform="translate(447 1668.581)">
      <g id="Grupo_160425-2" data-name="Grupo 160425" clip-path="url(#clip-path)">
        <path id="Trazado_138586" data-name="Trazado 138586" d="M0,68.332V63.7a1.709,1.709,0,0,1,1.732-1.415c.408-.028.817-.021,1.225-.011.455.011.665-.177.654-.645-.013-.567-.011-1.134,0-1.7A1.964,1.964,0,0,1,5.6,57.8c.867-.084.871-.084.871-.975q0-3.846,0-7.692c0-.818-.036-.845-.828-.884a1.852,1.852,0,0,1-2.028-2.1c-.008-.522-.017-1.045,0-1.565.017-.491-.183-.708-.68-.693a6.561,6.561,0,0,1-1.49-.1A1.622,1.622,0,0,1,0,42.464V37.835a1.652,1.652,0,0,1,1.845-1.423c.658-.014,1.316-.007,1.973,0,.431,0,.609-.192.609-.618q0-4.763,0-9.525c0-.608-.392-.606-.822-.622A3.658,3.658,0,0,1,.394,23.8,5,5,0,0,1,0,22.45V21.089a3.6,3.6,0,0,1,2.035-2.849C10.124,13.6,18.183,8.915,26.265,4.267,28.388,3.045,30.489,1.782,32.637.6a4.438,4.438,0,0,1,4.543.041q14.559,8.4,29.118,16.8c.608.352,1.222.7,1.814,1.077,1.663,1.072,1.914,2.665,1.531,4.5a3.59,3.59,0,0,1-3.52,2.61c-.824.028-.854.049-.855.846q-.006,4.56,0,9.121c0,.769.047.811.8.818.658.006,1.317-.018,1.973.009a1.662,1.662,0,0,1,1.719,1.721c.024,1.316.017,2.632,0,3.948a1.565,1.565,0,0,1-1.271,1.626,5.224,5.224,0,0,1-1.688.153c-.515-.024-.755.17-.73.71.025.566.016,1.134,0,1.7a1.8,1.8,0,0,1-1.892,1.946c-.959.044-.962.044-.962,1.014q0,3.812,0,7.623c0,.865.005.865.845.934a1.961,1.961,0,0,1,2.012,2.159c0,.545.015,1.09,0,1.634-.015.483.167.719.674.7a11.892,11.892,0,0,1,1.225.005,1.7,1.7,0,0,1,1.791,1.865c.008,1.248.011,2.5,0,3.743a1.672,1.672,0,0,1-1.728,1.783c-.181.01-.363,0-.545,0q-14.837,0-29.675,0c-.971,0-1.3-.248-1.516-1.1.043-.86.348-1.2,1.171-1.276.339-.033.68-.019,1.02-.019H66.12c1.322,0,1.322,0,1.321-1.286,0-1.266,0-1.268-1.276-1.268H3.5c-.113,0-.227,0-.34,0-.831.016-.894.067-.893.894,0,1.824-.154,1.656,1.637,1.657q13.881.007,27.761,0c.295,0,.59-.007.884.008.836.044,1.147.3,1.365,1.139-.177.949-.534,1.248-1.535,1.249q-6.873.008-13.746,0H2.573c-.227,0-.454,0-.68,0A1.638,1.638,0,0,1,0,68.332" transform="translate(0 0)"/>
        <path id="Trazado_138587" data-name="Trazado 138587" d="M40.837,48.978c-.162-.755-.651-.985-1.391-.983-8.323.014-16.646,0-24.969.022-.6,0-.793-.121-.783-.76.047-2.97.037-5.94.047-8.91a1.351,1.351,0,0,1,.592-.544c6.05-3.441,12.058-6.958,18.091-10.429,2.869-1.651,5.745-3.29,8.6-4.973a1.509,1.509,0,0,1,1.742-.043q6.322,3.674,12.659,7.321,6.956,4.006,13.9,8.024a1.728,1.728,0,0,1,.771.642c.011,3.083.012,6.167.041,9.249,0,.492-.286.407-.57.407H62.831c-6.054,0-12.109.007-18.164-.01-.743,0-1.224.236-1.391.985a3.291,3.291,0,0,1-2.44,0" transform="translate(-7.066 -11.404)" fill="#ebe9eb"/>
        <path id="Trazado_138588" data-name="Trazado 138588" d="M68.1,25.788a2.112,2.112,0,0,1-1.157-.437Q52.6,17.064,38.258,8.754a2.152,2.152,0,0,0-2.479.013Q21.454,17.1,7.088,25.362a2.7,2.7,0,0,1-.924.411,1.644,1.644,0,0,1-1.815-1,1.585,1.585,0,0,1,.657-2.014c.823-.519,1.678-.987,2.521-1.473Q21.643,13.131,35.757,4.976a2.3,2.3,0,0,1,2.5-.026q15.259,8.823,30.523,17.634a1.7,1.7,0,0,1,.989,2.012,1.631,1.631,0,0,1-1.66,1.192" transform="translate(-2.175 -2.37)" fill="#9ed3fd"/>
        <path id="Trazado_138589" data-name="Trazado 138589" d="M35.867,77.627h2.44c.243.891.478,1.066,1.451,1.067q14.629,0,29.259-.016c.641,0,.805.183.753.781a13.905,13.905,0,0,0,0,1.768c.014.337-.113.451-.431.417a3.7,3.7,0,0,0-.408,0q-31.98,0-63.961.017c-.688,0-.924-.159-.836-.848s-.288-1.621.15-2.013c.382-.342,1.293-.1,1.97-.1q14.085,0,28.17,0c.975,0,1.214-.179,1.448-1.067" transform="translate(-2.096 -40.053)" fill="#9ed3fd"/>
        <path id="Trazado_138590" data-name="Trazado 138590" d="M38.523,137.41c-.151-.251-.394-.239-.643-.237-.67.006-1.341,0-2.011,0-.3-.876-.455-.985-1.446-.985q-14.735,0-29.471.019c-.711,0-.9-.194-.825-.858.081-.69-.287-1.62.146-2.015.375-.344,1.29-.11,1.966-.11q31.377,0,62.753-.015c.6,0,.845.111.778.758a14.164,14.164,0,0,0-.009,1.836c.008.293-.089.42-.389.388a4.6,4.6,0,0,0-.476,0q-14.531,0-29.062,0c-.977,0-1.262.271-1.311,1.216" transform="translate(-2.094 -68.702)" fill="#9ed3fd"/>
        <path id="Trazado_138591" data-name="Trazado 138591" d="M89.23,108.981c-.749,0-1.5-.05-2.245.015-.661.058-.8-.2-.758-.795.047-.609.02-1.225.007-1.837a1.667,1.667,0,0,0-1.87-1.835c-.182,0-.364-.013-.545,0-.311.026-.448-.082-.447-.418q.013-4.56,0-9.121c0-.315.1-.461.43-.434a6.56,6.56,0,0,0,.816,0,1.547,1.547,0,0,0,1.595-1.524c.045-.769.031-1.543.017-2.314-.007-.407.075-.608.561-.6,1.633.031,3.267.023,4.9,0,.388,0,.51.118.5.5-.026.7-.015,1.407,0,2.11a1.654,1.654,0,0,0,1.8,1.825,4.339,4.339,0,0,0,.544,0c.364-.04.519.065.517.475q-.024,4.527,0,9.054c0,.375-.139.473-.477.444a4.76,4.76,0,0,0-.68,0,1.654,1.654,0,0,0-1.706,1.732,17.823,17.823,0,0,0,.009,2.041c.052.6-.175.722-.719.687-.746-.047-1.5-.012-2.245-.012" transform="translate(-43.017 -46.5)" fill="#b5b0b6"/>
        <path id="Trazado_138592" data-name="Trazado 138592" d="M48.182,99.6c0,1.338,0,2.677,0,4.016,0,1.082.091.906-.886.923-.136,0-.273,0-.408.01a1.591,1.591,0,0,0-1.548,1.59c-.041.77-.039,1.543-.018,2.313.011.393-.069.558-.515.551-1.656-.027-3.312-.019-4.968,0-.347,0-.482-.081-.467-.451.028-.68.011-1.361.007-2.042a1.717,1.717,0,0,0-1.955-1.967c-.9-.011-.9-.011-.9-.892,0-2.813.012-5.626-.012-8.439,0-.5.1-.7.629-.642,1.776.184,2.355-.878,2.246-2.271-.044-.564.012-1.135-.014-1.7-.016-.364.122-.46.469-.457q2.484.022,4.968,0c.379,0,.522.107.51.5-.022.725-.018,1.452.007,2.177a1.611,1.611,0,0,0,1.788,1.76,3.643,3.643,0,0,0,.544,0c.431-.058.536.136.531.54-.019,1.5-.007,2.995-.007,4.492" transform="translate(-18.838 -46.505)" fill="#b5b0b6"/>
        <path id="Trazado_138593" data-name="Trazado 138593" d="M70.1,35.674Q64.971,32.7,59.836,29.729q-5.581-3.217-11.173-6.415c-2.116-1.216-4.232-2.433-6.337-3.669a.674.674,0,0,0-.8,0q-7.473,4.345-14.963,8.663-6.052,3.488-12.117,6.951c-.235.135-.466.277-.7.417-.01-.748,0-1.5-.039-2.243-.021-.4.256-.487.5-.631l11.29-6.522q7.939-4.585,15.873-9.179a.948.948,0,0,1,1.1,0q13.575,7.862,27.17,15.69a.806.806,0,0,1,.492.847c-.042.678-.03,1.359-.04,2.038" transform="translate(-7.074 -8.731)" fill="#d9d7da"/>
        <path id="Trazado_138594" data-name="Trazado 138594" d="M24.79,111.425c-2.152.015-4.3.026-6.455.052-.308,0-.379-.115-.378-.4.017-2.425.023-4.85.032-7.275a1.021,1.021,0,0,1,.764-.218c1.768-.009,3.535-.019,5.3,0,.737.01.794.092.795.844q0,3.2,0,6.391a1.16,1.16,0,0,1-.06.6" transform="translate(-9.266 -53.442)" fill="#fedf7d"/>
        <path id="Trazado_138595" data-name="Trazado 138595" d="M71.69,111.392a4.577,4.577,0,0,1-1.606.073c-1.734-.027-3.47.112-5.2-.073a8.994,8.994,0,0,1-.061-1.956c-.016-1.7.015-3.4-.017-5.093-.01-.539.2-.748.7-.752,1.856-.015,3.713-.019,5.568,0,.388,0,.7.086.694.611-.02,2.332,0,4.664-.011,7a.486.486,0,0,1-.063.19" transform="translate(-33.434 -53.444)" fill="#fedf7d"/>
        <path id="Trazado_138596" data-name="Trazado 138596" d="M118.654,103.807c.009,2.425.015,4.85.032,7.275,0,.284-.07.4-.378.4-2.151-.027-4.3-.038-6.454-.054a8.707,8.707,0,0,1-.058-1.824c-.013-1.744.02-3.49-.018-5.234-.013-.582.214-.776.742-.778q2.719-.014,5.438,0a.936.936,0,0,1,.7.215" transform="translate(-57.674 -53.446)" fill="#fedf7c"/>
        <path id="Trazado_138597" data-name="Trazado 138597" d="M65.115,126.457c-1.9,0-3.806-.015-5.708.011-.449.006-.611-.117-.56-.564.069-.6-.262-1.4.146-1.751.346-.3,1.121-.1,1.706-.1,3.4,0,6.8.01,10.194-.015.523,0,.676.149.631.65-.05.56.176,1.308-.108,1.641-.331.389-1.1.12-1.679.127-1.54.019-3.081.006-4.621.006" transform="translate(-30.331 -63.974)" fill="#eae8ea"/>
        <path id="Trazado_138598" data-name="Trazado 138598" d="M18.322,126.507c-1.9,0-3.808-.011-5.713.009-.417,0-.621-.067-.572-.543a6.5,6.5,0,0,0,0-1.29c-.046-.485.135-.6.6-.6,3.242.02,6.483.011,9.725.011.612,0,1.225.017,1.836-.007.371-.015.538.083.51.488a8.945,8.945,0,0,0,0,1.427c.041.452-.154.514-.544.51-1.949-.017-3.9-.008-5.849-.008" transform="translate(-6.208 -64.025)" fill="#ebe9eb"/>
        <path id="Trazado_138599" data-name="Trazado 138599" d="M112.011,126.433c-1.882,0-3.764-.014-5.646.01-.468.006-.726-.051-.651-.609.078-.576-.241-1.335.127-1.7s1.121-.107,1.7-.109c3.4-.01,6.8.005,10.2-.016.492,0,.709.093.643.627-.072.577.238,1.328-.12,1.7-.329.339-1.075.09-1.636.094-1.542.013-3.084,0-4.625,0" transform="translate(-54.518 -63.951)" fill="#ebe9eb"/>
        <path id="Trazado_138600" data-name="Trazado 138600" d="M71.68,109.167c0-2.314-.021-4.628,0-6.941,0-.5-.132-.667-.648-.658q-2.755.044-5.512,0c-.517-.008-.652.157-.647.659.02,2.314,0,4.627,0,6.941-.149-.18-.075-.393-.075-.588,0-2.881.015-5.762,0-8.643,0-.472.069-.679.618-.668,1.927.036,3.856.018,5.784.01.331,0,.551.013.55.453-.011,3.085,0,6.17,0,9.256a.54.54,0,0,1-.073.181" transform="translate(-33.424 -51.22)" fill="#fec169"/>
        <path id="Trazado_138601" data-name="Trazado 138601" d="M58.972,92.456a8.627,8.627,0,0,1-.062-2.008c-.02-.462.351-.318.587-.319,2.285-.009,4.57-.005,6.855-.005,1.561,0,3.122.015,4.683-.009.423-.007.569.128.529.538a8.681,8.681,0,0,1-.073,1.8c-.227-.594-.666-.718-1.274-.713q-4.984.043-9.97,0c-.608,0-1.048.119-1.274.713" transform="translate(-30.38 -46.493)" fill="#d9d7da"/>
        <path id="Trazado_138602" data-name="Trazado 138602" d="M12.086,91.549C12,90.128,12,90.128,13.375,90.128c3.56,0,7.12.011,10.679-.012.53,0,.75.131.667.673-.086.561.156,1.146-.123,1.694-.228-.649-.726-.732-1.343-.727-3.354.021-6.709.013-10.062.007a1.526,1.526,0,0,1-1.106-.212" transform="translate(-6.22 -46.497)" fill="#d9d7da"/>
        <path id="Trazado_138603" data-name="Trazado 138603" d="M105.877,92.476a5.65,5.65,0,0,1-.093-2.17c0-.3.366-.178.568-.179,2.132-.009,4.264-.006,6.4-.006,1.655,0,3.311.023,4.966-.013.544-.012.81.095.709.689a5.681,5.681,0,0,0-.032.745,1.532,1.532,0,0,1-1.106.212c-3.354.006-6.709.015-10.063-.007-.617,0-1.115.078-1.343.728" transform="translate(-54.55 -46.49)" fill="#d9d7da"/>
        <path id="Trazado_138604" data-name="Trazado 138604" d="M24.788,109.209c0-2.313-.018-4.626.005-6.94.006-.528-.133-.7-.682-.7-2.041.031-4.082.013-6.123.014-.009-.611,0-1.223-.032-1.833-.015-.34.076-.476.448-.473,2.017.016,4.034.012,6.052,0,.294,0,.457.042.456.4-.01,3.105,0,6.211,0,9.316,0,.1-.018.176-.122.21" transform="translate(-9.264 -51.226)" fill="#fdc168"/>
        <path id="Trazado_138605" data-name="Trazado 138605" d="M118.581,101.582c-2.041,0-4.081.018-6.122-.014-.548-.009-.689.165-.683.695.024,2.313.007,4.625.005,6.938-.233-.141-.114-.369-.115-.551-.007-2.923.008-5.846-.011-8.768,0-.469.112-.617.6-.61q2.888.042,5.777,0c.495-.008.621.155.586.615-.043.563-.026,1.13-.035,1.7" transform="translate(-57.601 -51.221)" fill="#fcc168"/>
        <path id="Trazado_138606" data-name="Trazado 138606" d="M12.1,93.074q5.775,0,11.55,0c1.112,0,.934-.067.961.935q-3.934.018-7.869.035c-1.244,0-2.489,0-3.733,0-.967,0-.967,0-.909-.969" transform="translate(-6.231 -48.022)" fill="#ebe9eb"/>
        <path id="Trazado_138607" data-name="Trazado 138607" d="M59.072,93.985c.028-.912.028-.913.921-.913H70.67c.893,0,.893,0,.921.913a.366.366,0,0,1-.124.051q-6.135,0-12.27,0a.376.376,0,0,1-.124-.051" transform="translate(-30.479 -48.022)" fill="#ebe9eb"/>
        <path id="Trazado_138608" data-name="Trazado 138608" d="M106.041,94.008c.026-1-.149-.936.961-.936q5.776,0,11.552,0c.009.18.008.362.029.541.034.3-.038.439-.394.437-4.049-.025-8.1-.032-12.148-.044" transform="translate(-54.714 -48.022)" fill="#ebe9eb"/>
        <path id="Trazado_138609" data-name="Trazado 138609" d="M34.726,53.6c0-1.223-.009-2.447,0-3.67.009-.914.37-1.261,1.288-1.269.657-.006,1.314-.012,1.97,0a2.828,2.828,0,0,1,2.652,3.981.554.554,0,0,0,.117.7,2.976,2.976,0,0,1,.57,3.4,3.019,3.019,0,0,1-2.964,1.877c-.747,0-1.5.012-2.243.01-1.109,0-1.39-.289-1.394-1.424,0-1.2,0-2.4,0-3.6" transform="translate(-17.916 -25.105)"/>
        <path id="Trazado_138610" data-name="Trazado 138610" d="M76.261,53.212c0,1.395-.006,2.79,0,4.185a1.114,1.114,0,0,1-.644,1.166,1.009,1.009,0,0,1-1.4-1.05c-.012-2.13,0-4.26,0-6.391,0-.34.011-.681,0-1.02-.024-.6.046-1.15.736-1.355.654-.2,1,.21,1.325.682q1.437,2.1,2.89,4.193c.137.2.283.394.445.619.18-.2.1-.41.1-.594,0-1.292-.031-2.584-.023-3.875a1.034,1.034,0,0,1,1.047-1.1,1.022,1.022,0,0,1,.984,1.085q.057,3.738.087,7.478a1.161,1.161,0,0,1-.818,1.265,1.149,1.149,0,0,1-1.362-.621q-1.618-2.348-3.242-4.691l-.129.022" transform="translate(-38.292 -25.115)"/>
        <path id="Trazado_138611" data-name="Trazado 138611" d="M52.633,57.6c.052-.171.1-.369.171-.559.932-2.45,1.875-4.9,2.8-7.35a1.24,1.24,0,0,1,2.434.008c.916,2.456,1.845,4.907,2.762,7.363.274.734.064,1.327-.515,1.529-.613.214-1.1-.074-1.4-.827-.417-1.057-.417-1.057-1.555-1.057a4.242,4.242,0,0,1-.544,0c-1.088-.141-1.97-.03-2.205,1.329-.089.514-.621.693-1.152.578a1.03,1.03,0,0,1-.8-1.012" transform="translate(-27.157 -25.123)"/>
        <path id="Trazado_138612" data-name="Trazado 138612" d="M98.058,51.257c.913-.838,1.7-1.575,2.5-2.295a1.025,1.025,0,1,1,1.4,1.478c-.923.873-1.848,1.744-2.8,2.577-.341.3-.286.441.007.714,1.012.942,2,1.909,2.995,2.873.591.574.66,1.208.2,1.656-.443.431-1.039.367-1.614-.182q-1.254-1.2-2.5-2.4c-.014-.014-.043-.012-.182-.047,0,.571.007,1.117,0,1.662-.013.825-.363,1.248-1.016,1.246s-1.018-.435-1.021-1.251q-.012-3.776,0-7.553c0-.789.408-1.249,1.041-1.238s.984.462,1,1.274c.006.444,0,.888,0,1.486" transform="translate(-49.54 -25.023)"/>
        <path id="Trazado_138613" data-name="Trazado 138613" d="M63.482,28.9a4.283,4.283,0,1,1,4.273,4.266A4.253,4.253,0,0,1,63.482,28.9" transform="translate(-32.755 -12.696)"/>
        <path id="Trazado_138614" data-name="Trazado 138614" d="M38.945,61.559c0-1.113,0-1.113,1.146-1.113s1.667.369,1.65,1.136c-.017.735-.508,1.059-1.633,1.078h-.068c-1.094.021-1.094.021-1.094-1.1" transform="translate(-20.094 -31.188)" fill="#ebe9eb"/>
        <path id="Trazado_138615" data-name="Trazado 138615" d="M39.64,54.479c-.206-.1-.642.208-.713-.182a2.3,2.3,0,0,1,.067-1.4,3.3,3.3,0,0,1,1.647.124.746.746,0,0,1,.315.832c-.168.576-.624.654-1.134.623-.045,0-.091,0-.182,0" transform="translate(-20.046 -27.262)" fill="#e6e4e6"/>
        <path id="Trazado_138616" data-name="Trazado 138616" d="M60.3,56.061l.894,2.378H59.411l.894-2.378" transform="translate(-30.654 -28.926)" fill="#e8e6e8"/>
        <path id="Trazado_138617" data-name="Trazado 138617" d="M72.152,32.529a2.2,2.2,0,1,1-4.367-.576c.94-1.213,3.194-1.044,4.118-.2a.65.65,0,0,1,.249.779" transform="translate(-34.967 -16.037)" fill="#fedf7c"/>
        <path id="Trazado_138618" data-name="Trazado 138618" d="M72.166,31.369A2.024,2.024,0,0,0,70.233,30.1a4.163,4.163,0,0,0-2.434.689,2.2,2.2,0,1,1,4.367.576" transform="translate(-34.982 -14.877)" fill="#fdc168"/>
      </g>
    </g>
  </g>
</svg>
