<svg xmlns="http://www.w3.org/2000/svg" xmlns:xlink="http://www.w3.org/1999/xlink" width="123" height="123" viewBox="0 0 123 123">
  <defs>
    <clipPath id="clip-path">
      <rect id="Rectángulo_37922" data-name="Rectángulo 37922" width="81.061" height="59.218" fill="none"/>
    </clipPath>
  </defs>
  <g id="Grupo_159219" data-name="Grupo 159219" transform="translate(-420 -1641.58)">
    <circle id="Elipse_4854" data-name="Elipse 4854" cx="61.5" cy="61.5" r="61.5" transform="translate(420 1641.58)" fill="#6b8dfc"/>
    <g id="Grupo_160427" data-name="Grupo 160427" transform="translate(440.631 1673.963)">
      <g id="Grupo_160426" data-name="Grupo 160426" clip-path="url(#clip-path)">
        <path id="Trazado_138619" data-name="Trazado 138619" d="M57.652,33.795a24.752,24.752,0,0,0,7.041,2.8,70.639,70.639,0,0,0,16.988,2.029,84.51,84.51,0,0,0,13.8-.959,40.4,40.4,0,0,0,10.2-2.809,10.646,10.646,0,0,0,3.342-2.134,2.035,2.035,0,0,0,0-3.25c-.1-.106-.216-.2-.328-.3a15.915,15.915,0,0,0-5.414-2.769A62.164,62.164,0,0,0,85.395,23.62a79.963,79.963,0,0,0-16.373,1.052,38.55,38.55,0,0,0-9.358,2.668A9.924,9.924,0,0,0,56.1,29.7a1.9,1.9,0,0,0,0,2.822,6.6,6.6,0,0,0,1.55,1.277" transform="translate(-29.914 -12.709)" fill="#9b5b4b"/>
        <path id="Trazado_138620" data-name="Trazado 138620" d="M71.689,62.012a7.634,7.634,0,0,0-2.411-.581V89.208c0,1.252,0,1.22,1.7,1.263.738.018.86-.163.859-.662-.02-8.715-.012-17.429-.02-26.144,0-.566.332-1.309-.132-1.653" transform="translate(-37.358 -33.126)" fill="#8a5e3c"/>
        <path id="Trazado_138621" data-name="Trazado 138621" d="M109.539,30.874a4.12,4.12,0,0,0-1.637-3.406,14.167,14.167,0,0,0-4.6-2.454,62.5,62.5,0,0,0-17.376-2.936c-.684-.037-1.779-.069-2.544-.089a.965.965,0,0,0-.955.647.937.937,0,0,0,.872,1.225l.548.013a66.426,66.426,0,0,1,17.393,2.451,16.135,16.135,0,0,1,5.267,2.436c.109.083.218.168.319.262a1.69,1.69,0,0,1,0,2.859,10.564,10.564,0,0,1-3.252,1.877A42.622,42.622,0,0,1,93.66,36.23a90.759,90.759,0,0,1-13.424.843,75.715,75.715,0,0,1-16.529-1.784,25.639,25.639,0,0,1-6.85-2.465,6.341,6.341,0,0,1-1.5-1.113,1.8,1.8,0,0,1,0-2.51,9.841,9.841,0,0,1,3.451-2.054,40.63,40.63,0,0,1,9.1-2.346c2.829-.444,7.866-.765,10.035-.889a.931.931,0,0,0,.877-.93v-.157a.941.941,0,0,0-.966-.794c-.9.035-2.334.1-3.2.155A66.059,66.059,0,0,0,61.18,24.329a19.007,19.007,0,0,0-6.309,2.812,4.324,4.324,0,0,0-2.039,4A15.315,15.315,0,0,1,52.84,33.6a4.11,4.11,0,0,0,1.626,3.629,11.644,11.644,0,0,0,3.455,1.989.819.819,0,0,1,.6.939q-.026,14.76-.012,29.52c0,1.33.334,1.457,2.025,1.389l1.866,0c1.436.065,1.777-.131,1.777-1.354,0-3.1,0-8.657,0-10.857a.943.943,0,0,0-1.887,0c0,2.051,0,6.934.008,9.684,0,.5-.09.68-.637.662-1.262-.043-1.263-.011-1.263-1.263V40.162c.675.2,1.413.207,1.787.581.344.344.1,1.087.1,1.653,0,3.691,0,10.357.005,12.8a.944.944,0,0,0,1.889,0V41.109a78.828,78.828,0,0,0,13.562,1.547c.531.012.62.188.619.677q-.026,10.42-.011,20.841c0,1.014.38,1.288,1.538,1.226.851-.046,1.7-.017,2.555.006,1.266.034,1.574-.2,1.574-1.354q0-10.391-.01-20.782c0-.445.1-.6.563-.608,1.85-.027,3.7-.158,5.536-.34,2.7-.266,5.377-.675,8.08-1.207v.735q0,13.993,0,27.985c0,.988.357,1.278,1.427,1.238.7-.026,1.407-.047,2.108-.015,1.782.079,2.131-.026,2.131-1.39q0-14.79-.012-29.579a.757.757,0,0,1,.556-.849,11.415,11.415,0,0,0,3.852-2.34,3.88,3.88,0,0,0,1.277-3.115c-.053-.969-.018-1.94.012-2.91M81.448,63.535c-1.208-.052-1.209-.014-1.209-1.2V53.069c0-3.227.01-6.453-.011-9.68,0-.49.079-.686.632-.667,1.267.043,1.268.01,1.268,1.257,0,6.276-.007,12.552.012,18.829,0,.543-.091.752-.692.727M101.4,69.2c-1.321-.027-1.322,0-1.322-1.32q0-13.249-.013-26.5c0-.544.128-.779.681-.911,1.23-.293,1.221-.329,1.221.923V54.672c0,4.643-.006,9.285.009,13.928,0,.446-.091.61-.576.6m5.226-33.354a12.655,12.655,0,0,1-3.631,1.924,46.865,46.865,0,0,1-10.361,2.377,87.777,87.777,0,0,1-14.115.674,66.472,66.472,0,0,1-17.379-2.453,16.135,16.135,0,0,1-5.367-2.5,2.144,2.144,0,0,1-.989-2.109C58.625,36.29,62.95,37.17,67.317,37.9a84.665,84.665,0,0,0,10.31.983,86.613,86.613,0,0,0,8.9-.072,64.836,64.836,0,0,0,15.763-2.564,18.2,18.2,0,0,0,4.957-2.29c.093-.064.192-.12.336-.21a2.077,2.077,0,0,1-.959,2.1" transform="translate(-28.481 -11.858)"/>
        <path id="Trazado_138622" data-name="Trazado 138622" d="M109.527,47.714A18.21,18.21,0,0,1,104.57,50a64.814,64.814,0,0,1-15.763,2.564,86.351,86.351,0,0,1-8.9.072,84.589,84.589,0,0,1-10.31-.983c-4.367-.728-8.691-1.607-12.535-4.136a2.144,2.144,0,0,0,.989,2.109,16.125,16.125,0,0,0,5.367,2.5A66.434,66.434,0,0,0,80.8,54.577,87.827,87.827,0,0,0,94.912,53.9a46.859,46.859,0,0,0,10.361-2.377A12.649,12.649,0,0,0,108.9,49.6a2.078,2.078,0,0,0,.959-2.1c-.144.09-.243.146-.336.21" transform="translate(-30.761 -25.616)" fill="#81423a"/>
        <path id="Trazado_138623" data-name="Trazado 138623" d="M157.26,76.1V62.825c0-1.252.009-1.215-1.221-.923-.553.132-.682.367-.681.911q.028,13.249.013,26.5c0,1.318,0,1.293,1.322,1.32.485.01.578-.153.576-.6-.015-4.643-.009-9.285-.009-13.928" transform="translate(-83.776 -33.289)" fill="#8a5e3c"/>
        <path id="Trazado_138624" data-name="Trazado 138624" d="M114.209,68.242c0-1.247,0-1.215-1.268-1.258-.553-.018-.634.176-.632.667.021,3.227.011,6.453.011,9.68V86.6c0,1.186,0,1.148,1.209,1.2.6.026.694-.184.692-.727-.019-6.276-.012-12.552-.012-18.829" transform="translate(-60.562 -36.121)" fill="#8a5e3c"/>
        <path id="Trazado_138625" data-name="Trazado 138625" d="M38.413,27.48A4.129,4.129,0,0,0,36.922,24.6a.867.867,0,0,1-.323-.569c-.484-3.026-.987-6.049-1.477-9.074-.134-.828-.311-1.036-1.032-1.133a.913.913,0,0,0-.712,1.17c.34,2.048.666,4.1,1,6.148.033.206.048.415.071.622a1.322,1.322,0,0,1,.124.612c.19,1.218.19,1.215-1.009,1a79.131,79.131,0,0,0-18.715-1.1c-.841.047-1.68.136-2.52.2-.825.059-1.071.322-1.057,1.155.286.663.853.609,1.419.557a75.5,75.5,0,0,1,8.846-.3,76.778,76.778,0,0,1,12.843,1.386,2.638,2.638,0,0,1,2.342,2.864,13.887,13.887,0,0,1-.123,3.207,2.51,2.51,0,0,1-2.283,1.879,6.718,6.718,0,0,1-.746.038q-14.324,0-28.647,0a4.443,4.443,0,0,1-1.31-.134,2.634,2.634,0,0,1-1.86-2.5c-.021-.9-.023-1.8,0-2.7a2.616,2.616,0,0,1,2.213-2.563c.9-.159,1.811-.3,2.717-.445.525-.082,1.049-.172,1.575-.246.732-.1.915-.275,1.05-1.035-.33-.668-.553-.794-1.326-.676-1.286.2-2.574.394-3.853.632-.47.088-.534-.014-.458-.468.821-4.929,1.562-9.873,2.446-14.79A8.189,8.189,0,0,1,13.94,1.744c.536-.013,1.073.006,1.609.011,3.05,0,6.1-.09,9.151.017a8.229,8.229,0,0,1,7.658,7q.18,1.077.351,2.156c.113.712.319.9,1.045.968a.94.94,0,0,0,.67-1.215c-.112-.661-.235-1.321-.33-1.984A10.073,10.073,0,0,0,24.124.01q-4.951-.021-9.9,0A10.117,10.117,0,0,0,4.264,8.65c-.8,5.168-1.676,10.326-2.506,15.491a1,1,0,0,1-.337.627,4.124,4.124,0,0,0-1.334,2.54A22.775,22.775,0,0,0,.025,30.47a4.317,4.317,0,0,0,4.45,4.474c.51,0,.546.174.481.591-.371,2.367-.724,4.736-1.084,7.1Q2.8,49.715,1.729,56.792a1.676,1.676,0,0,0,1.153,2.19H4.495A1.477,1.477,0,0,0,5.806,57.8c.061-.182.123-.363.179-.547q2.486-8.3,4.984-16.593c.061-.2.1-.439.276-.558a4.423,4.423,0,0,1,2.567-1.132c3.434.047,6.869.054,10.3,0a4.379,4.379,0,0,1,2.735.826,1.575,1.575,0,0,1,.668.892c.21.738.406,1.481.681,2.2a1.033,1.033,0,0,0,1.143.76c.02-.009.036-.019.056-.028-.016-.029-.026-.061-.043-.09.678-.367.792-.642.568-1.4q-.844-2.859-1.692-5.717c-.119-.36-.224-.725-.361-1.078-.131-.338.018-.38.31-.376,1.047.012,2.095.016,3.142,0,.3-.006.409.115.438.383.038.358.085.716.129,1.074.386,2.478.778,4.956,1.157,7.435q.973,6.36,1.92,12.724c.035.235.383.736-.317.689-.312-.021-.266-.286-.319-.462q-1.453-4.8-2.89-9.613c-.11-.366-.218-.733-.335-1.1-.2-.635-.479-.807-1.155-.733-.011-.041-.02-.082-.03-.123h0c-.66.357-.814.745-.579,1.526q.638,2.116,1.27,4.234c.652,2.182,1.324,4.357,1.976,6.539.2.673.458,1.316,1.278,1.455h1.727a1.686,1.686,0,0,0,1.154-2.19c-.192-1.385-.405-2.767-.616-4.15q-1.3-8.522-2.607-17.043c-.075-.481-.01-.629.537-.65a4.266,4.266,0,0,0,4.353-3.907,19.022,19.022,0,0,0,0-3.563M10.6,35.328c-.136.353-.242.718-.361,1.078Q8.984,40.639,7.726,44.87,5.943,50.834,4.149,56.793a.392.392,0,0,0-.012.056c-.05.31-.2.489-.541.4s-.14-.355-.117-.511c.271-1.877.566-3.75.851-5.624q1-6.618,2.008-13.235c.075-.492.164-.982.246-1.473.093-1.45.093-1.45,1.479-1.45.743,0,1.485.009,2.228,0,.291-.005.441.039.311.376m14.438,1.736q-5.779.012-11.558,0a2.244,2.244,0,0,0-1.756.511c.272-.907.5-1.626.7-2.354.069-.257.224-.267.426-.267q6.383,0,12.765-.005c.294,0,.39.12.461.379.186.68.4,1.351.651,2.177a2.586,2.586,0,0,0-1.688-.444" transform="translate(0 0)"/>
        <path id="Trazado_138626" data-name="Trazado 138626" d="M43.228,13.311c-.148-.713-.251-1.435-.367-2.154a8.139,8.139,0,0,0-8.238-7.038q-4.2,0-8.4,0l-.264,0a10.014,10.014,0,0,0-3.273,2.915,10.485,10.485,0,0,0-1.676,4.524c-.263,1.789-.612,3.564-.863,5.355a19.707,19.707,0,0,0-.4,2.884,3.517,3.517,0,0,0,3.4,3.375q5.309-.318,10.619-.187a56.8,56.8,0,0,1,6.261.522c1.547.211,3.093.419,4.627.708A.413.413,0,0,0,45,24.175c-.008-.045-.014-.091-.025-.135q-.523-3.169-1.048-6.338a2.194,2.194,0,0,1-.018-1.024c.123-.392.278-.785.829-.636a15.6,15.6,0,0,1-.337-1.927c-.614.156-1.036-.116-1.179-.8" transform="translate(-10.653 -2.22)" fill="#c49090"/>
        <path id="Trazado_138627" data-name="Trazado 138627" d="M50.625,12.938q-.171-1.079-.351-2.156a8.229,8.229,0,0,0-7.658-7c-3.047-.107-6.1-.019-9.151-.017-.081.046-.159.095-.24.142l.264,0q4.2,0,8.4,0a8.14,8.14,0,0,1,8.238,7.038c.116.719.218,1.441.367,2.154.143.686.565.958,1.179.8-.727-.063-.932-.255-1.045-.968" transform="translate(-17.917 -2.012)" fill="#c49090"/>
        <path id="Trazado_138628" data-name="Trazado 138628" d="M72.123,30.594a2.194,2.194,0,0,0,.018,1.024q.529,3.169,1.048,6.339c.011.045.017.09.024.135a.293.293,0,0,0,.094-.194c-.023-.208-.038-.417-.071-.622-.329-2.05-.655-4.1-1-6.148a.914.914,0,0,1,.712-1.17c-.552-.149-.706.245-.829.636" transform="translate(-38.862 -16.137)" fill="#c49090"/>
        <path id="Trazado_138629" data-name="Trazado 138629" d="M17.456,51.087a2.545,2.545,0,0,1-.515.034l.006.013c-.081.685-.369,1.052-.978,1.149s-1.2.223-1.806.273l-.127.024a.237.237,0,0,0-.057.14,6.907,6.907,0,0,0,1.092,4.82,3.019,3.019,0,0,0,2.452,1.292q13.211.008,26.422,0c.007-.018.016-.032.023-.05a14.508,14.508,0,0,0,.082-3.616A2.316,2.316,0,0,0,42.061,53,55.928,55.928,0,0,0,35.7,52a74.946,74.946,0,0,0-9.7-.468c-1.877.04-3.755.118-5.625.311-1.017.1-1.367-.036-1.679-.706,0-.019,0-.036,0-.055a2.206,2.206,0,0,0-1.232.009" transform="translate(-7.524 -27.498)" fill="#c49090"/>
        <path id="Trazado_138630" data-name="Trazado 138630" d="M14.132,52.729l.127-.023c.608-.05,1.2-.177,1.806-.273s.9-.464.978-1.149l-.006-.013-.11,0c-.135.76-.318.934-1.051,1.035-.526.073-1.05.163-1.575.246-.048.065-.119.112-.169.176" transform="translate(-7.621 -27.647)" fill="#c49090"/>
        <path id="Trazado_138631" data-name="Trazado 138631" d="M24.229,51.233c.313.67.662.81,1.679.706,1.87-.192,3.747-.27,5.624-.311a74.943,74.943,0,0,1,9.7.468,55.832,55.832,0,0,1,6.366,1,2.318,2.318,0,0,1,1.989,2.166,14.508,14.508,0,0,1-.083,3.616c-.007.018-.015.033-.023.05h.176a13.887,13.887,0,0,0,.123-3.207,2.638,2.638,0,0,0-2.342-2.864A76.768,76.768,0,0,0,34.6,51.475a75.509,75.509,0,0,0-8.847.3c-.566.052-1.133.107-1.419-.557-.035-.015-.07-.026-.1-.038,0,.019,0,.035,0,.055" transform="translate(-13.065 -27.598)" fill="#c49090"/>
        <path id="Trazado_138632" data-name="Trazado 138632" d="M38.389,24.322c-.932-.114-1.855-.3-2.785-.433-2.258-.324-4.524-.529-6.8-.675-2.7-.172-5.4-.073-8.1-.077-1.126,0-2.252.2-3.381.2a3.722,3.722,0,0,1-3.8-4.451c.431-2.689.855-5.379,1.31-8.063a9.335,9.335,0,0,1,3.8-6.154,4.393,4.393,0,0,1,.97-.569,9.822,9.822,0,0,0-2.772.241,7.827,7.827,0,0,0-6.081,6.427c-.887,4.747-1.587,9.529-2.352,14.3-.086.534-.039.584.49.5q1.73-.29,3.464-.55c.9-.135,1.3.081,1.564.781a1.736,1.736,0,0,1,1.761-.041,1.035,1.035,0,0,1,1.059-1.234c1.275-.133,2.554-.2,3.836-.263,1.435-.069,2.869-.119,4.3-.1A78.363,78.363,0,0,1,38.114,25.41c.151.028.3.054.452.085.321.066.494-.033.421-.386-.055-.264-.068-.533-.1-.8-.117.1-.34.03-.493.012" transform="translate(-4.505 -2.212)" fill="#b87f7f"/>
        <path id="Trazado_138633" data-name="Trazado 138633" d="M12.1,24.843q-1.734.261-3.464.55c-.529.088-.575.038-.49-.5.765-4.769,1.464-9.552,2.352-14.3a7.827,7.827,0,0,1,6.081-6.427,9.827,9.827,0,0,1,2.773-.241,2.455,2.455,0,0,1,.459-.139c-.536,0-1.073-.024-1.609-.011a8.189,8.189,0,0,0-7.825,6.579C9.494,15.278,8.753,20.22,7.931,25.15c-.076.454-.013.555.458.468,1.28-.238,2.567-.434,3.854-.631.773-.119,1,.007,1.326.675l.1-.036c-.264-.7-.668-.916-1.564-.781" transform="translate(-4.262 -2.036)" fill="#b87f7f"/>
        <path id="Trazado_138634" data-name="Trazado 138634" d="M47.439,47.567c.036.266.05.535.1.8.073.353-.1.452-.42.386-.15-.031-.3-.057-.452-.085A78.363,78.363,0,0,0,33.425,47.42c-1.435-.021-2.869.029-4.3.1-1.281.061-2.56.13-3.836.263a1.036,1.036,0,0,0-1.059,1.235c.035.024.07.042.105.072-.015-.833.231-1.1,1.057-1.154.84-.06,1.679-.15,2.52-.2a79.107,79.107,0,0,1,18.715,1.1c1.2.22,1.2.223,1.009-1a1.315,1.315,0,0,0-.124-.611c.027.185-.007.283-.069.337" transform="translate(-13.063 -25.469)" fill="#b87f7f"/>
        <path id="Trazado_138635" data-name="Trazado 138635" d="M24.6,4.679a9.335,9.335,0,0,0-3.8,6.154c-.455,2.684-.879,5.375-1.31,8.063a3.722,3.722,0,0,0,3.8,4.451c1.129-.006,2.256-.206,3.381-.2,2.7,0,5.4-.1,8.1.077,2.278.146,4.544.351,6.8.675.93.133,1.853.318,2.785.432.152.019.376.089.493-.012-.006-.048-.017-.1-.025-.143a.413.413,0,0,1-.341.038c-1.534-.288-3.08-.5-4.626-.708A56.817,56.817,0,0,0,33.6,22.98q-5.309-.134-10.619.187a3.517,3.517,0,0,1-3.4-3.375,19.716,19.716,0,0,1,.4-2.884c.251-1.79.6-3.566.863-5.355a10.49,10.49,0,0,1,1.676-4.524,10.012,10.012,0,0,1,3.273-2.914l-.22,0a4.411,4.411,0,0,0-.97.569" transform="translate(-10.483 -2.216)" fill="#b87f7f"/>
        <path id="Trazado_138636" data-name="Trazado 138636" d="M74.553,47.423c.009.048.019.1.025.143.062-.053.1-.152.069-.337a.291.291,0,0,1-.094.194" transform="translate(-40.202 -25.468)" fill="#b87f7f"/>
        <path id="Trazado_138637" data-name="Trazado 138637" d="M32.969,3.951c.08-.047.158-.1.24-.142a2.456,2.456,0,0,0-.459.139l.22,0" transform="translate(-17.66 -2.054)" fill="#b87f7f"/>
        <path id="Trazado_138638" data-name="Trazado 138638" d="M20.406,50.878c0,.012.01.022.014.034a2.545,2.545,0,0,0,.515-.033,2.2,2.2,0,0,1,1.233-.009c0-.012,0-.022,0-.034a1.733,1.733,0,0,0-1.761.041" transform="translate(-11.004 -27.29)" fill="#b87f7f"/>
        <path id="Trazado_138639" data-name="Trazado 138639" d="M20.294,51.2l-.1.037.11,0c0-.012-.01-.022-.014-.034" transform="translate(-10.892 -27.607)" fill="#b87f7f"/>
        <path id="Trazado_138640" data-name="Trazado 138640" d="M24.228,51.139c.035.012.07.023.1.038-.035-.029-.07-.047-.105-.072,0,.012,0,.023,0,.034" transform="translate(-13.065 -27.558)" fill="#b87f7f"/>
        <path id="Trazado_138641" data-name="Trazado 138641" d="M12.365,60.9A3.306,3.306,0,0,1,9.5,59.353a5.631,5.631,0,0,1-1.023-3.245c0-.4-.008-.806.008-1.209a.849.849,0,0,1,.094-.407c-.76.143-1.526.246-2.283.4a2.531,2.531,0,0,0-2.169,2.467,23.323,23.323,0,0,0,0,2.589,2.512,2.512,0,0,0,2.283,2.473,8.249,8.249,0,0,0,1.261.086H35.235c.384,0,.764-.032,1.147-.07a2.528,2.528,0,0,0,2.19-1.6,1.662,1.662,0,0,1-.536.062q-12.836,0-25.671,0" transform="translate(-2.206 -29.385)" fill="#b87f7f"/>
        <path id="Trazado_138642" data-name="Trazado 138642" d="M36.2,62.2c-.382.037-.763.07-1.147.07H7.493a8.255,8.255,0,0,1-1.261-.086A2.511,2.511,0,0,1,3.95,59.712a23.109,23.109,0,0,1,0-2.589,2.53,2.53,0,0,1,2.168-2.466c.757-.154,1.524-.257,2.283-.4a.436.436,0,0,1,.308-.2C7.8,54.2,6.9,54.34,5.992,54.5a2.617,2.617,0,0,0-2.214,2.563c-.024.9-.021,1.8,0,2.7a2.634,2.634,0,0,0,1.86,2.5,4.463,4.463,0,0,0,1.311.134q14.324,0,28.647,0a6.823,6.823,0,0,0,.745-.038,2.509,2.509,0,0,0,2.283-1.879.712.712,0,0,1-.23.121,2.529,2.529,0,0,1-2.19,1.6" transform="translate(-2.028 -29.149)" fill="#b87f7f"/>
        <path id="Trazado_138643" data-name="Trazado 138643" d="M14.885,59.4a6.9,6.9,0,0,1-1.092-4.82.234.234,0,0,1,.056-.14l-.138.026a.855.855,0,0,0-.094.408c-.016.4,0,.806-.007,1.209a5.625,5.625,0,0,0,1.023,3.245A3.3,3.3,0,0,0,17.5,60.87q12.836.008,25.671,0a1.66,1.66,0,0,0,.536-.062c.018-.041.038-.079.055-.121q-13.211,0-26.422,0A3.019,3.019,0,0,1,14.885,59.4" transform="translate(-7.339 -29.354)" fill="#b87f7f"/>
        <path id="Trazado_138644" data-name="Trazado 138644" d="M78.925,68.129a.725.725,0,0,0,.231-.122H78.98c-.017.042-.037.081-.055.122" transform="translate(-42.56 -36.673)" fill="#b87f7f"/>
        <path id="Trazado_138645" data-name="Trazado 138645" d="M13.832,54.256l.138-.026c.05-.064.121-.111.17-.176a.436.436,0,0,0-.308.2" transform="translate(-7.459 -29.149)" fill="#b87f7f"/>
        <path id="Trazado_138646" data-name="Trazado 138646" d="M64.484,88.725c.5,1.634.985,3.271,1.476,4.907.541,1.8,1.074,3.605,1.626,5.4a.879.879,0,0,0,.3.566c.208-.17.119-.383.09-.575q-1.315-8.681-2.637-17.362c-.133-.873-.26-1.746-.393-2.618,0-.011,0-.02,0-.03H61.565c.542,1.906,1.148,3.793,1.7,5.695a1.061,1.061,0,0,1-.672,1.511,6.922,6.922,0,0,1,.519,1.615,1.082,1.082,0,0,1,1.369.887" transform="translate(-33.199 -42.609)" fill="#fcddaf"/>
        <path id="Trazado_138647" data-name="Trazado 138647" d="M66.114,88.693c.117.364.225.731.335,1.1Q67.893,94.6,69.34,99.4c.053.176.007.441.319.462.7.047.352-.454.317-.689q-.939-6.365-1.919-12.724c-.379-2.479-.771-4.957-1.157-7.435h-.142l0,.03c.134.872.261,1.746.394,2.618q1.328,8.679,2.637,17.362c.029.192.118.405-.09.575a.882.882,0,0,1-.3-.566c-.552-1.8-1.085-3.6-1.626-5.4C67.283,92,66.8,90.359,66.3,88.725a1.082,1.082,0,0,0-1.369-.887c.011.041.019.082.03.123.676-.074.951.1,1.155.733" transform="translate(-35.013 -42.609)" fill="#fcddaf"/>
        <path id="Trazado_138648" data-name="Trazado 138648" d="M63.108,84.71c-.555-1.9-1.161-3.789-1.7-5.7h-.137q.847,2.859,1.693,5.717c.223.757.11,1.032-.569,1.4.018.029.028.061.044.091a1.062,1.062,0,0,0,.672-1.511" transform="translate(-33.039 -42.609)" fill="#fcddaf"/>
        <path id="Trazado_138649" data-name="Trazado 138649" d="M10.316,80.489Q9.31,87.106,8.308,93.724c-.285,1.874-.58,3.747-.851,5.623-.023.157-.223.422.117.512s.491-.091.541-.4a.392.392,0,0,1,.012-.056Q9.916,93.442,11.7,87.48q1.265-4.23,2.515-8.464H10.562c-.082.491-.171.98-.246,1.473" transform="translate(-3.978 -42.609)" fill="#fcddaf"/>
        <path id="Trazado_138650" data-name="Trazado 138650" d="M18,75.859c-.742.013-1.485,0-2.228,0-1.387,0-1.387,0-1.479,1.45a.348.348,0,0,1,.189-.121,17.594,17.594,0,0,1,3.282,0,.309.309,0,0,1,.186.122c.119-.36.224-.725.361-1.078.129-.337-.02-.381-.311-.376" transform="translate(-7.705 -40.906)" fill="#fad499"/>
        <path id="Trazado_138651" data-name="Trazado 138651" d="M14.477,78.664a.345.345,0,0,0-.189.12h3.657a.308.308,0,0,0-.187-.122,17.55,17.55,0,0,0-3.282,0" transform="translate(-7.705 -42.377)" fill="#fad499"/>
        <path id="Trazado_138652" data-name="Trazado 138652" d="M64.6,77.391c-.209-1.52-.131-1.26-1.532-1.284-.535-.009-1.07-.01-1.605,0s-.588.075-.453.621c.055.223.135.438.2.657l0,.01a9.693,9.693,0,0,1,3.384-.006" transform="translate(-32.864 -41.037)" fill="#fad499"/>
        <path id="Trazado_138653" data-name="Trazado 138653" d="M60.911,77.253c-.07-.219-.149-.434-.2-.657-.135-.546-.095-.609.453-.621s1.07-.011,1.605,0c1.4.023,1.323-.237,1.532,1.283a.9.9,0,0,1,.15.053c-.043-.358-.09-.716-.129-1.074-.029-.268-.139-.388-.438-.383-1.047.018-2.1.014-3.142,0-.291,0-.44.039-.309.376.136.353.241.718.36,1.078a.786.786,0,0,1,.123-.047l0-.01" transform="translate(-32.561 -40.903)" fill="#fad499"/>
        <path id="Trazado_138654" data-name="Trazado 138654" d="M61.536,78.736l.014.047h3.377c0-.019-.005-.035-.007-.053a9.671,9.671,0,0,0-3.384.006" transform="translate(-33.183 -42.376)" fill="#fad499"/>
        <path id="Trazado_138655" data-name="Trazado 138655" d="M68.887,78.954h.143a.86.86,0,0,0-.15-.053c0,.018,0,.034.007.053" transform="translate(-37.143 -42.547)" fill="#fad499"/>
        <path id="Trazado_138656" data-name="Trazado 138656" d="M61.391,78.914a.766.766,0,0,0-.123.047h.137l-.014-.047" transform="translate(-33.039 -42.554)" fill="#fad499"/>
      </g>
    </g>
  </g>
</svg>
