<svg xmlns="http://www.w3.org/2000/svg" xmlns:xlink="http://www.w3.org/1999/xlink" width="123" height="123" viewBox="0 0 123 123">
  <defs>
    <clipPath id="clip-path">
      <rect id="Rectángulo_38271" data-name="Rectángulo 38271" width="47.932" height="76.545" fill="none"/>
    </clipPath>
  </defs>
  <g id="Grupo_159219" data-name="Grupo 159219" transform="translate(-420 -1641.58)">
    <circle id="Elipse_4854" data-name="Elipse 4854" cx="61.5" cy="61.5" r="61.5" transform="translate(420 1641.58)" fill="#a6bbff"/>
    <g id="Grupo_161139" data-name="Grupo 161139" transform="translate(458 1664.58)">
      <g id="Grupo_161139-2" data-name="Grupo 161139" clip-path="url(#clip-path)">
        <path id="Trazado_140358" data-name="Trazado 140358" d="M16.549,70.983A6.53,6.53,0,0,1,12.1,76.145a6.21,6.21,0,0,1-6.94-1.789,47.549,47.549,0,0,1-3.916-4.985A7.319,7.319,0,0,1,3.062,59.354c.181-.131.37-.251.6-.4a8.172,8.172,0,0,1-2.259-3.2,9.577,9.577,0,0,1,.268-6.427,18.614,18.614,0,0,1,9.1-11.042l.689-.381a19.309,19.309,0,0,1-3.222-4.932,17.241,17.241,0,0,1,3.726-19,16.924,16.924,0,0,1,11.145-4.88c1.613-.076,2.984-.527,3.734-2.1a2.657,2.657,0,0,0-1.563-3.908,1.728,1.728,0,0,0-2.367,1.414,1.458,1.458,0,0,1-1.661,1.244,1.487,1.487,0,0,1-1.287-1.642A4.282,4.282,0,0,1,22.945.283c.247-.084.55-.038.736-.283h1.794a8.858,8.858,0,0,1,2.457,1.094A5.8,5.8,0,0,1,29.1,9.036c-.343.5-.415.669.278.9A17.08,17.08,0,0,1,40.9,28.827a16.78,16.78,0,0,1-3.849,8.424c-.175.208-.346.418-.549.664a20.337,20.337,0,0,1,4.285,2.877,18.4,18.4,0,0,1,6.158,11.434,6.992,6.992,0,0,1-2.113,6.189,5.107,5.107,0,0,1-.625.455A7.453,7.453,0,0,1,47.9,66.121a7.178,7.178,0,0,1-1.6,3.87c-.982,1.254-1.956,2.514-2.944,3.762A6.465,6.465,0,0,1,36.5,76.326a6.384,6.384,0,0,1-4.993-4.984c-.032-.12-.066-.239-.1-.359-.636-1.544-.084-2.962.475-4.373.5-1.273,1.022-2.54,1.526-3.812a7.927,7.927,0,0,1,2.754-3.639,1.281,1.281,0,0,0,.593-1.131c-.009-.722,0-1.443-.007-2.165a.7.7,0,0,0-.778-.784c-.224,0-.447-.007-.672-.007H12.676c-.2,0-.4.007-.6,0-.579-.01-.881.246-.875.849.006.572.011,1.145,0,1.717-.014.506.212.721.713.719.921,0,1.842,0,2.763,0q4.48,0,8.961,0a4.589,4.589,0,0,1,1.618.223,1.651,1.651,0,0,1,.011,3.134,4.471,4.471,0,0,1-1.617.23q-4.293,0-8.587,0c-.82,0-.842.033-.541.782.556,1.386,1.1,2.778,1.675,4.155a11.956,11.956,0,0,1,.666,2.6c.1.564-.282.989-.312,1.5" transform="translate(0)"/>
        <path id="Trazado_140359" data-name="Trazado 140359" d="M33.649,156.8a8.051,8.051,0,0,0-.748-4.488c-.61-1.411-1.141-2.856-1.764-4.26-.227-.511-.157-.6.381-.6,3.211.019,6.421.011,9.631.007a5.649,5.649,0,0,0,.965-.068,1.445,1.445,0,0,0,.025-2.846,5.312,5.312,0,0,0-.964-.072c-4.082,0-8.163-.029-12.244.019-.791.009-.972-.229-.9-.948.062-.641.005-1.293.016-1.94.012-.819.192-.992,1.026-1.016.124,0,.249,0,.373,0H52.736c1.3,0,1.383.087,1.385,1.408a3.613,3.613,0,0,0,0,.373c.145,1.4.018,2.615-1.434,3.439a4.842,4.842,0,0,0-1.8,2.507c-.677,1.625-1.355,3.25-1.987,4.893a6.96,6.96,0,0,0-.39,3.589c-.129-.2-.226-.551-.5-.106-.165.272-.337.539-.506.808-.161.166-.371.126-.563.116a1.318,1.318,0,0,0-1.257.66,2.729,2.729,0,0,1-2.667,1.29c-1.442-.059-2.888-.014-4.332-.015a1.9,1.9,0,0,1-1.677-.655,2.86,2.86,0,0,0-2.362-1.4c-.169-.269-.341-.536-.506-.808-.27-.445-.366-.1-.5.106" transform="translate(-17.1 -85.82)" fill="#f1eafe"/>
        <path id="Trazado_140360" data-name="Trazado 140360" d="M43.816,183.808c1.108-.279,1.516-.135,2.106.838a1.933,1.933,0,0,0,1.784,1.006q2.539-.011,5.077,0a1.931,1.931,0,0,0,1.784-1.007c.59-.972,1-1.117,2.106-.837a1.579,1.579,0,0,1,.462,2.34,4.446,4.446,0,0,1-3.906,2.463c-1.987.075-3.982.075-5.969,0a4.446,4.446,0,0,1-3.906-2.463,1.579,1.579,0,0,1,.462-2.34" transform="translate(-26.264 -112.122)"/>
        <path id="Trazado_140361" data-name="Trazado 140361" d="M39.337,30.894A14.157,14.157,0,1,1,25.179,45.06,14.213,14.213,0,0,1,39.337,30.894" transform="translate(-15.37 -18.858)" fill="#fecb9b"/>
        <path id="Trazado_140362" data-name="Trazado 140362" d="M10.09,116.091a15.3,15.3,0,0,1,2.309-6.658,15.655,15.655,0,0,1,7.213-6.139.878.878,0,0,1,.942.073q9.566,5.975,19.152.015a.862.862,0,0,1,.939-.1,15.719,15.719,0,0,1,9.483,12.153,4.5,4.5,0,0,1-3.246,5.04c-.532.138-.789.053-.724-.574a13.525,13.525,0,0,0,0-1.492,3.559,3.559,0,0,0-1.726-3.044.9.9,0,0,1-.477-.895,8.414,8.414,0,0,0-.069-1.486,1.4,1.4,0,0,0-1.413-1.18,1.444,1.444,0,0,0-1.432,1.166,3.431,3.431,0,0,0-.063.517c-.065,1.28-.064,1.28-1.384,1.28-6.472,0-12.944-.009-19.416.013-.646,0-.973-.113-.868-.837a2.974,2.974,0,0,0-.071-.961,1.4,1.4,0,0,0-1.49-1.17,1.29,1.29,0,0,0-1.343,1.232,3.364,3.364,0,0,1-1.418,3.118c-.937.731-.906,1.976-.887,3.118.025,1.459-.122,1.563-1.448.91a4.424,4.424,0,0,1-2.565-4.1" transform="translate(-6.159 -62.986)" fill="#fecb9b"/>
        <path id="Trazado_140363" data-name="Trazado 140363" d="M7.728,161.1a4.422,4.422,0,0,1,3.351-4.473,4.2,4.2,0,0,1,4.877,2.24,58.993,58.993,0,0,1,2.235,5.515,3.611,3.611,0,0,1-6.076,3.537,48.883,48.883,0,0,1-3.757-4.82,3.6,3.6,0,0,1-.631-2" transform="translate(-4.717 -95.535)" fill="#fecb9b"/>
        <path id="Trazado_140364" data-name="Trazado 140364" d="M98.752,160.788a4.461,4.461,0,0,1-1.021,2.9c-1,1.3-2.006,2.6-3.038,3.875a3.645,3.645,0,0,1-6.3-3.577c.6-1.6,1.237-3.194,1.926-4.76a4.371,4.371,0,0,1,8.3.609,8.008,8.008,0,0,1,.13.956" transform="translate(-53.795 -95.523)" fill="#fecb9b"/>
        <path id="Trazado_140365" data-name="Trazado 140365" d="M76.424,153.57a1.468,1.468,0,1,1,.008-2.935,1.467,1.467,0,1,1-.008,2.935" transform="translate(-45.743 -91.95)" fill="#010101"/>
        <path id="Trazado_140366" data-name="Trazado 140366" d="M54.312,83.959a5.514,5.514,0,0,1-4.115-1.79,1.524,1.524,0,0,1-.134-2.245,1.449,1.449,0,0,1,2.18.107,2.674,2.674,0,0,0,2.978.766,3.163,3.163,0,0,0,1.082-.771,1.474,1.474,0,0,1,2.185-.1,1.524,1.524,0,0,1-.135,2.245,5.512,5.512,0,0,1-4.041,1.789" transform="translate(-30.296 -48.516)"/>
        <path id="Trazado_140367" data-name="Trazado 140367" d="M43.925,64.065a1.454,1.454,0,0,1-2.249,1.178.98.98,0,0,0-1.264-.005,1.4,1.4,0,0,1-1.884-.243,1.488,1.488,0,0,1,.014-1.974,3.486,3.486,0,0,1,4.983-.011,1.753,1.753,0,0,1,.4,1.055" transform="translate(-23.294 -37.826)"/>
        <path id="Trazado_140368" data-name="Trazado 140368" d="M73.088,61.9a3.5,3.5,0,0,1,2.334.944,1.467,1.467,0,0,1,.213,2.015,1.4,1.4,0,0,1-1.978.317.933.933,0,0,0-1.2,0,1.39,1.39,0,0,1-1.929-.274,1.481,1.481,0,0,1,.12-2.017,3.487,3.487,0,0,1,2.442-.99" transform="translate(-42.843 -37.787)"/>
      </g>
    </g>
  </g>
</svg>
