<svg xmlns="http://www.w3.org/2000/svg" xmlns:xlink="http://www.w3.org/1999/xlink" width="123" height="123" viewBox="0 0 123 123">
  <defs>
    <clipPath id="clip-path">
      <rect id="Rectángulo_38275" data-name="Rectángulo 38275" width="82.517" height="66.159" fill="none"/>
    </clipPath>
  </defs>
  <g id="Grupo_160973" data-name="Grupo 160973" transform="translate(-420 -1641.58)">
    <circle id="Elipse_4854" data-name="Elipse 4854" cx="61.5" cy="61.5" r="61.5" transform="translate(420 1641.58)" fill="#a6bbff"/>
    <g id="Grupo_161143" data-name="Grupo 161143" transform="translate(442.774 1665.58)">
      <g id="Grupo_161143-2" data-name="Grupo 161143" clip-path="url(#clip-path)">
        <path id="Trazado_140432" data-name="Trazado 140432" d="M82.516,66.1a1.892,1.892,0,0,1-1.27.815c-.754.161-1.075-.314-1.288-.907a3.04,3.04,0,0,1-.087-1.038c0-1.663.016-3.326-.007-4.989a4.6,4.6,0,0,0-2.274-4.092,11.62,11.62,0,0,0-7.482-1.96,9.3,9.3,0,0,0-3.142.949,12.826,12.826,0,0,1-9.318.816,24.681,24.681,0,0,1-2.6-1.065,9.375,9.375,0,0,0-7.805.131,12.941,12.941,0,0,1-12-.039,10.369,10.369,0,0,0-5.268-.786,12.364,12.364,0,0,0-3.653,1.2,12.06,12.06,0,0,1-10.375-.093c-4.079-1.953-7.809-1.3-11.4,1.138a4.206,4.206,0,0,0-1.879,3.566c-.048,2.684-.092,5.372.006,8.053a8.6,8.6,0,0,0,8.594,8.215q11.156.008,22.313-.007,18.728-.005,37.456,0a8.513,8.513,0,0,0,7.9-4.762,4.064,4.064,0,0,1,.462-.754,1.124,1.124,0,0,1,1.624-.224c.763.646.874,1.017.447,1.873-2.046,4.1-5.344,6.451-9.937,6.511-8.753.113-17.508.039-26.262.04q-16.918,0-33.836,0A11.212,11.212,0,0,1,.254,69.764,10.4,10.4,0,0,1,0,67.449c.007-2.5-.015-4.995.007-7.491A7.163,7.163,0,0,1,4,53.369a14.011,14.011,0,0,1,8.434-2.107,12.324,12.324,0,0,1,4.226,1.207,10.3,10.3,0,0,0,9.937-.348.7.7,0,0,0,.37-.473,14.3,14.3,0,0,1,2.442-4.672.484.484,0,0,0,.018-.689C26.2,41.5,25.287,36.13,25.492,30.494a4.632,4.632,0,1,1,9.247.527,18.785,18.785,0,0,0,1.343,8.264,10.873,10.873,0,0,0,.611,1.218c.743,1.27.98,1.346,2.369.945.536-.155.257-.541.228-.787a17.025,17.025,0,0,1,.52-6.538A16.493,16.493,0,0,1,56.681,22.189a19.488,19.488,0,0,1,17.7,15.343A16.792,16.792,0,0,1,71.916,50.6c-.1.156-.2.319-.288.481-.009.016.012.048.039.141a14.222,14.222,0,0,1,6.708,2.067,7.236,7.236,0,0,1,4.01,5.219c.013.065.087.118.132.177Z" transform="translate(0 -12.553)"/>
        <path id="Trazado_140433" data-name="Trazado 140433" d="M67.969,94.779a9.446,9.446,0,0,1,5.556.878,12.471,12.471,0,0,0,11.456.015,9.456,9.456,0,0,1,8.538-.019,12.639,12.639,0,0,0,11.534,0,9.553,9.553,0,0,1,8.613.053q.906.431,1.79.91a4.752,4.752,0,0,1,2.641,4.454c.006,1.745.031,3.491-.011,5.236a1.457,1.457,0,0,0,1.16,1.669,22.674,22.674,0,0,1-.215,3.351,1.271,1.271,0,0,0-1.7.761,8.819,8.819,0,0,1-8.584,5.252q-18.208-.027-36.417-.008c-.268,0-.535-.021-.8-.032a1.742,1.742,0,0,1-.81-.861,28.215,28.215,0,0,1-2.8-7.852,42.81,42.81,0,0,1-.788-10.8,16.355,16.355,0,0,1,.29-2.313c.06-.341.17-.621.558-.686" transform="translate(-37.998 -53.611)" fill="#a2ddfd"/>
        <path id="Trazado_140434" data-name="Trazado 140434" d="M8.363,56.9a6.282,6.282,0,0,1,6.3-6.119c6.371.045,10.381,3.863,11.659,9.79a2.358,2.358,0,0,1-.829,2.459,2.286,2.286,0,0,1-2.558.388,8.289,8.289,0,0,0-4.566-.53,37.119,37.119,0,0,1-3.766.3A6.191,6.191,0,0,1,8.363,56.9" transform="translate(-4.736 -28.764)"/>
        <path id="Trazado_140435" data-name="Trazado 140435" d="M18.011,6.968c-1.165-.33-1.448-.774-1.192-1.933A5.916,5.916,0,0,1,21.044.311a6.013,6.013,0,0,1,6.308,1.553c4.563,4.531,4.616,10.272,1.246,15.3a2.382,2.382,0,0,1-4.132-.245c-.906-2.191-2.623-3.54-4.351-4.937-.886-.716-.981-1.035-.592-1.981a1.091,1.091,0,0,1,1.757-.365,15.343,15.343,0,0,1,4.972,4.956c.108.2.133.543.417.532.255-.01.328-.324.441-.529A8.668,8.668,0,0,0,25.6,3.809a3.675,3.675,0,0,0-3.777-1,3.452,3.452,0,0,0-2.442,2.836c-.22,1.037-.505,1.294-1.372,1.32" transform="translate(-9.478 0)"/>
        <path id="Trazado_140436" data-name="Trazado 140436" d="M19.682,10.137a1.56,1.56,0,0,0,1.184-1.431,3.484,3.484,0,0,1,2.476-2.9,3.771,3.771,0,0,1,3.889.841,8.962,8.962,0,0,1,1.005,12.3,9.368,9.368,0,0,0-2.186-3.339,37.236,37.236,0,0,0-2.94-2.5c-.734-.59-1.15-.562-1.917.051a5.685,5.685,0,0,1-1.512-3.031" transform="translate(-11.149 -3.169)" fill="#7acdf9"/>
        <path id="Trazado_140437" data-name="Trazado 140437" d="M33.136,94.813c-.389.207-.284.594-.339.925a34.488,34.488,0,0,0-.159,8.155,35.487,35.487,0,0,0,1.472,7.764,20.342,20.342,0,0,0,2.58,5.674c-2.335.011-4.67.029-7,.032q-7.411.008-14.821,0c-5.52-.008-9.274-3.785-9.276-9.318q0-3.464,0-6.927A4.848,4.848,0,0,1,8.28,96.6a11.634,11.634,0,0,1,7.192-1.837,9.329,9.329,0,0,1,3.079.865A12.455,12.455,0,0,0,30.3,95.616a7.678,7.678,0,0,1,2.84-.8" transform="translate(-3.165 -53.644)" fill="#7acdf9"/>
        <path id="Trazado_140438" data-name="Trazado 140438" d="M111.037,35.78a66.972,66.972,0,0,1,12.139,10.35,88.691,88.691,0,0,1,7.471,9.655,1,1,0,0,1-.014,1.257c-1.243,2.179-3.359,3.009-5.566,3.721a7.943,7.943,0,0,0-.217-2.484,2.733,2.733,0,0,1-.4-1.188,1.515,1.515,0,0,1,.391-.689,2.841,2.841,0,0,0-4.029-3.945,1.083,1.083,0,0,0-.4,1.409c.275.493.763.606,1.394.3.411-.2.8-.487,1.246-.069s.381.809-.183,1.449c-.363.245-.726.065-1.08-.018a2.562,2.562,0,0,0-2.827.8,2.794,2.794,0,0,0-.245,3.027c.158.368.388.7.524,1.08.055.154.171.392-.185.355a5.8,5.8,0,0,1-.9-.307,13.516,13.516,0,0,0-8.043-1.476c-.4.052-.482-.287-.611-.528a17.615,17.615,0,0,1-2.082-7.13,23.284,23.284,0,0,1-.15-2.648,3.516,3.516,0,0,1,.268-1.411c.157-.245.429-.3.673-.395a2.621,2.621,0,0,0,1.659-3.347,2.091,2.091,0,0,1-.177-.852.963.963,0,0,1,.477-.519.887.887,0,0,1,1.047.093.785.785,0,0,1,.225.943c-.055.151-.142.287-.2.437-.2.519-.222,1.018.33,1.331a.98.98,0,0,0,1.335-.367,2.645,2.645,0,0,0,.412-2.856,2.721,2.721,0,0,0-2.312-1.735c-.536-.065-1.062.1-1.6.049-.32-.147-.317-.425-.228-.686A18.006,18.006,0,0,1,110.651,36c.081-.137.189-.267.386-.217" transform="translate(-60.758 -20.261)" fill="#fed3bd"/>
        <path id="Trazado_140439" data-name="Trazado 140439" d="M118.867,28.349a14.843,14.843,0,0,1,9.691.468,16.871,16.871,0,0,1,10.894,15.878,13.085,13.085,0,0,1-.857,4.56c-1.357-1.962-2.767-3.778-4.16-5.608a68.41,68.41,0,0,0-15.81-14.53.539.539,0,0,1-.1-.121c-.121-.337.173-.458.337-.646" transform="translate(-67.125 -15.716)" fill="#8daee1"/>
        <path id="Trazado_140440" data-name="Trazado 140440" d="M84.1,81.014a9.422,9.422,0,0,1-7.856.1,13.954,13.954,0,0,0-7.808-1.481,11.618,11.618,0,0,1,3.4-4.7,11.839,11.839,0,0,1,6.228-2.763c.314-.041.592-.122.737.346A19.3,19.3,0,0,0,84,80.8a.975.975,0,0,1,.107.215" transform="translate(-38.767 -40.859)" fill="#fed3bd"/>
        <path id="Trazado_140441" data-name="Trazado 140441" d="M71.485,50.754A15.206,15.206,0,0,0,68.1,52.871c-.408.355-.485-.029-.625-.247a20.026,20.026,0,0,1-2.685-7,27.969,27.969,0,0,1-.488-6.477,2.235,2.235,0,1,1,4.431.116,20.74,20.74,0,0,0,1.837,9.843c.267.552.594,1.075.912,1.645" transform="translate(-36.414 -20.781)" fill="#febe9d"/>
        <path id="Trazado_140442" data-name="Trazado 140442" d="M101.287,55.46a18.985,18.985,0,0,0,2.019,11.124,1.463,1.463,0,0,0,.433.66,1.923,1.923,0,0,1-2.46-.545c-4.427-4.451-6.178-9.686-4.821-15.878a3.461,3.461,0,0,1,.2-.513c.4.116.3.461.316.729a4.3,4.3,0,0,0,3.425,4.1c.3.076.648.06.888.32" transform="translate(-54.383 -28.497)" fill="#febe9d"/>
        <path id="Trazado_140443" data-name="Trazado 140443" d="M102.136,52.612a4.5,4.5,0,0,1-4.516-4.534c0-.211.044-.433-.112-.617a3.279,3.279,0,0,1,.434-1.129,3.486,3.486,0,0,1,4.148-.65,1.381,1.381,0,0,1,.739.592c-.181,1.1.529,1.527,1.4,1.825,1.081,2.205.2,4.105-2.094,4.513" transform="translate(-55.232 -25.65)" fill="#eca0aa"/>
        <path id="Trazado_140444" data-name="Trazado 140444" d="M138.825,82.429c.154.668.574,1.231.677,1.937a3.767,3.767,0,0,1-.191,1.768,8.8,8.8,0,0,1-6.01.029c.075-.535-.36-.868-.522-1.312a3.4,3.4,0,0,1-.322-1.922,2.745,2.745,0,0,1,3.752-2.218c.274.073.533.268.836.1a.472.472,0,0,1,.108.364c.043.872.331,1.151,1.214,1.182.155.006.316-.038.457.069" transform="translate(-75.004 -45.633)" fill="#eca0aa"/>
        <path id="Trazado_140445" data-name="Trazado 140445" d="M103.319,39.229a3.325,3.325,0,0,0-4.578.148c-.192.155-.2-.015-.23-.138a13.178,13.178,0,0,1,5.166-6.338.526.526,0,0,1,.708-.011c.555.409,1.129.791,1.7,1.184a18.98,18.98,0,0,0-1.716,3.779.321.321,0,0,0,.123.421c-.212.535-.707.724-1.168.955" transform="translate(-55.8 -18.555)" fill="#febe9d"/>
        <path id="Trazado_140446" data-name="Trazado 140446" d="M118.353,29.138c0,.275-.249.418-.337.646-.171-.1-.5-.186-.406-.378.116-.238.457-.272.743-.268" transform="translate(-66.61 -16.505)" fill="#658cc6"/>
        <path id="Trazado_140447" data-name="Trazado 140447" d="M140.1,122a13.247,13.247,0,0,1,5.189,1.25c1.047.5,1.2,1.607.334,2.149a1.593,1.593,0,0,1-1.6-.056,9,9,0,0,0-4.1-.9,9.979,9.979,0,0,0-4.178.946c-1.158.547-2,.007-1.932-1.161a.984.984,0,0,1,.6-.878,13.5,13.5,0,0,1,5.7-1.35" transform="translate(-75.789 -69.106)" fill="#7acdf9"/>
        <path id="Trazado_140448" data-name="Trazado 140448" d="M87.171,118.873a11.572,11.572,0,0,1-5.328-1.145,1.33,1.33,0,0,1-.723-1.789c.279-.615.946-.781,1.723-.423a9.837,9.837,0,0,0,8.515.039c.855-.384,1.5-.261,1.8.375a1.36,1.36,0,0,1-.774,1.843,14.519,14.519,0,0,1-3.046.95,9.49,9.49,0,0,1-2.168.151" transform="translate(-45.881 -65.328)" fill="#7acdf9"/>
        <path id="Trazado_140449" data-name="Trazado 140449" d="M27.025,64.349c-2.311-1.144-4.735-.81-7.154-.565-.639.065-1.281.13-1.922.142a3.77,3.77,0,0,1-4.014-3.7A3.846,3.846,0,0,1,17.75,56.36c4.774-.037,8.231,2.544,9.328,7.781.01.046-.024.1-.053.208" transform="translate(-7.893 -31.925)" fill="#a2ddfd"/>
        <path id="Trazado_140450" data-name="Trazado 140450" d="M35.23,119.412a11.1,11.1,0,0,1,5.08,1.1c.858.377,1.206,1.025.926,1.68-.323.754-1.063.949-1.967.534a9.954,9.954,0,0,0-8.453.016c-.881.381-1.525.184-1.827-.523-.281-.659,0-1.239.858-1.649a11.14,11.14,0,0,1,5.383-1.155" transform="translate(-16.36 -67.633)" fill="#a2ddfd"/>
        <path id="Trazado_140451" data-name="Trazado 140451" d="M141.266,77.776a1.283,1.283,0,0,1-1.528-.167,1.253,1.253,0,0,1-.251-1.448c.327-.346.639-.723.228-1.178-.384-.427-.75-.144-1.129.1a1.167,1.167,0,0,1-1.635-.271,1.234,1.234,0,0,1,.218-1.661,3.08,3.08,0,0,1,4.569,4.082c-.142.192-.314.363-.472.544" transform="translate(-77.444 -40.979)" fill="#010000"/>
        <path id="Trazado_140452" data-name="Trazado 140452" d="M109.491,46.225a4.6,4.6,0,0,1,1.168-.955c2.17-.544,3.828.31,4.259,2.222a2.873,2.873,0,0,1-.883,2.855,1.109,1.109,0,0,1-1.542.05,1.122,1.122,0,0,1-.33-1.446c.2-.442.744-.85.14-1.318-.55-.427-.922.116-1.333.37-1.314-.011-1.77-.559-1.479-1.777" transform="translate(-61.973 -25.552)"/>
        <path id="Trazado_140453" data-name="Trazado 140453" d="M122.979,68.549a3.821,3.821,0,0,1-3.7-3.792c0-.863.447-1.419,1.163-1.441.68-.02,1.168.483,1.253,1.292.11,1.047.449,1.394,1.493,1.528q1.373.176,1.286,1.307c-.055.719-.62,1.138-1.494,1.106" transform="translate(-67.564 -35.865)"/>
      </g>
    </g>
  </g>
</svg>
