<svg xmlns="http://www.w3.org/2000/svg" xmlns:xlink="http://www.w3.org/1999/xlink" width="123" height="123" viewBox="0 0 123 123">
  <defs>
    <clipPath id="clip-path">
      <rect id="Rectángulo_38270" data-name="Rectángulo 38270" width="69.785" height="69.787" fill="none"/>
    </clipPath>
  </defs>
  <g id="Grupo_159218" data-name="Grupo 159218" transform="translate(-420 -1641.58)">
    <path id="Trazado_140326" data-name="Trazado 140326" d="M61.5,0A61.5,61.5,0,1,1,0,61.5,61.5,61.5,0,0,1,61.5,0Z" transform="translate(420 1641.58)" fill="#a6bbff"/>
    <g id="Grupo_161138" data-name="Grupo 161138" transform="translate(446.108 1668.187)">
      <g id="Grupo_161138-2" data-name="Grupo 161138" clip-path="url(#clip-path)">
        <path id="Trazado_140352" data-name="Trazado 140352" d="M35.3,0A2.873,2.873,0,0,1,36.34,1.111c.714,1.235,1.448,2.46,2.191,3.678a5.89,5.89,0,0,0,8.236,2.222c1.331-.728,2.646-1.484,3.975-2.217,1.272-.7,2.252-.114,2.278,1.347.03,1.7.025,3.408.116,5.107A5.769,5.769,0,0,0,58.5,16.634c1.722.094,3.449.086,5.174.121,1.414.028,2,1.013,1.316,2.253-.718,1.311-1.456,2.61-2.18,3.918A5.9,5.9,0,0,0,65.075,31.3c1.264.756,2.535,1.5,3.8,2.259a1.42,1.42,0,0,1-.019,2.661c-1.262.758-2.532,1.5-3.8,2.259a5.906,5.906,0,0,0-2.236,8.386c.726,1.306,1.463,2.607,2.181,3.917a1.383,1.383,0,0,1-1.282,2.231c-1.725.037-3.452.028-5.174.118a5.769,5.769,0,0,0-5.408,5.412c-.09,1.7-.084,3.4-.116,5.107-.027,1.449-1.019,2.022-2.3,1.315-1.308-.723-2.606-1.463-3.916-2.182A5.877,5.877,0,0,0,38.521,65c-.788,1.3-1.552,2.609-2.341,3.905a1.386,1.386,0,0,1-2.574.014c-.8-1.316-1.577-2.647-2.378-3.963a5.888,5.888,0,0,0-8.244-2.182c-1.327.736-2.646,1.485-3.976,2.215-1.24.68-2.225.1-2.252-1.318-.032-1.7-.026-3.408-.116-5.107a5.76,5.76,0,0,0-5.458-5.433c-1.7-.088-3.4-.08-5.106-.114C4.7,52.989,4.111,52,4.765,50.8c.739-1.351,1.508-2.685,2.246-4.037A5.893,5.893,0,0,0,4.79,38.53c-1.219-.742-2.443-1.477-3.678-2.192A2.857,2.857,0,0,1,0,35.3v-.818a1.655,1.655,0,0,1,.95-1.156c1.216-.709,2.414-1.448,3.626-2.166a5.866,5.866,0,0,0,3.08-4.632,5.349,5.349,0,0,0-.576-2.965c-.587-1.179-1.267-2.308-1.9-3.463-.218-.4-.442-.794-.632-1.206a1.524,1.524,0,0,1,1.4-2.3c.748-.039,1.5-.037,2.247,0a29.348,29.348,0,0,0,3.4-.175,5.677,5.677,0,0,0,4.878-5.233c.079-1.724.085-3.446.127-5.169A1.528,1.528,0,0,1,18.95,4.579c1.284.631,2.524,1.346,3.758,2.067A5.905,5.905,0,0,0,28.3,7.2,5.654,5.654,0,0,0,30.856,5.03C31.719,3.7,32.51,2.316,33.321.949A1.668,1.668,0,0,1,34.478,0Z"/>
        <path id="Trazado_140353" data-name="Trazado 140353" d="M65.138,53.843c-1.056,0-1.986-.058-2.906.01a8.645,8.645,0,0,0-8.359,8.768c-.021.77,0,1.541,0,2.371a4.638,4.638,0,0,1-1.31-.635,10.46,10.46,0,0,0-4.425-1.633,8.482,8.482,0,0,0-7.955,3.64c-.507.692-.914,1.46-1.361,2.2-.4.654-.389.653-.806-.027a23.286,23.286,0,0,0-1.726-2.687,8.645,8.645,0,0,0-10.649-2.218c-.824.428-1.63.891-2.446,1.335-.034.019-.086,0-.259,0,0-.974.066-1.949-.011-2.914a8.618,8.618,0,0,0-8.739-8.231c-.77-.02-1.541,0-2.458,0,.416-.759.765-1.425,1.142-2.075a8.71,8.71,0,0,0-2.755-11.85,20.929,20.929,0,0,0-1.928-1.148c-.6-.311-.441-.479.026-.755a16.215,16.215,0,0,0,3.361-2.3,8.656,8.656,0,0,0,1.679-9.925c-.449-.912-.96-1.793-1.521-2.837.823,0,1.553.007,2.282,0a8.911,8.911,0,0,0,4.562-1.159,8.648,8.648,0,0,0,4.405-7.718c.017-.747,0-1.5,0-2.4.807.451,1.5.844,2.2,1.23a8.659,8.659,0,0,0,10.089-.926,9.822,9.822,0,0,0,1.9-2.3,10.287,10.287,0,0,1,1.273-1.97,14.265,14.265,0,0,1,1.259,2,8.818,8.818,0,0,0,2.661,2.872,8.525,8.525,0,0,0,8.971.5c.824-.411,1.619-.879,2.537-1.38,0,.866-.014,1.611,0,2.355a8.72,8.72,0,0,0,8.944,8.9c.725.013,1.45,0,2.324,0l-1.227,2.206a8.711,8.711,0,0,0,3.069,11.869c.582.353,1.158.716,1.752,1.045.4.22.532.358.025.633-.736.4-1.454.84-2.151,1.3A8.619,8.619,0,0,0,63.651,51.1c.442.885.942,1.74,1.487,2.741" transform="translate(-3.537 -3.489)" fill="#fe8649"/>
        <path id="Trazado_140354" data-name="Trazado 140354" d="M23.4,45.471A22.1,22.1,0,1,1,45.569,67.606,22.079,22.079,0,0,1,23.4,45.471" transform="translate(-10.621 -10.619)"/>
        <path id="Trazado_140355" data-name="Trazado 140355" d="M47.826,28.417A19.364,19.364,0,1,1,28.419,47.651,19.371,19.371,0,0,1,47.826,28.417" transform="translate(-12.899 -12.898)" fill="#fec265"/>
        <path id="Trazado_140356" data-name="Trazado 140356" d="M89.71,55.108a13.108,13.108,0,0,1-.151,2.246,1.415,1.415,0,0,1-1.5,1.421,1.362,1.362,0,0,1-1.214-1.708,14.211,14.211,0,0,0-2.207-9.795c-.159-.247-.345-.478-.5-.727a1.365,1.365,0,1,1,2.233-1.571,16.617,16.617,0,0,1,3.069,7.032,14.712,14.712,0,0,1,.275,3.1" transform="translate(-38.065 -20.135)"/>
        <path id="Trazado_140357" data-name="Trazado 140357" d="M78.453,41.226A1.334,1.334,0,0,1,77.1,39.9a1.378,1.378,0,0,1,1.363-1.4,1.394,1.394,0,0,1,1.364,1.341,1.348,1.348,0,0,1-1.37,1.385" transform="translate(-34.992 -17.474)" fill="#010100"/>
      </g>
    </g>
  </g>
</svg>
