<svg xmlns="http://www.w3.org/2000/svg" xmlns:xlink="http://www.w3.org/1999/xlink" width="123" height="123" viewBox="0 0 123 123">
  <defs>
    <clipPath id="clip-path">
      <rect id="Rectángulo_38276" data-name="Rectángulo 38276" width="73.248" height="75.789" fill="none"/>
    </clipPath>
  </defs>
  <g id="Grupo_160976" data-name="Grupo 160976" transform="translate(-419.508 -1642.027)">
    <circle id="Elipse_4854" data-name="Elipse 4854" cx="61.5" cy="61.5" r="61.5" transform="translate(419.508 1642.027)" fill="#a6bbff"/>
    <g id="Grupo_161144" data-name="Grupo 161144" transform="translate(444.508 1665.027)">
      <g id="Grupo_161144-2" data-name="Grupo 161144" clip-path="url(#clip-path)">
        <path id="Trazado_140454" data-name="Trazado 140454" d="M62.894,48.525c.8.087,1.056.6,1.054,1.334-.007,2.343,0,4.686-.005,7.029,0,1.005-.378,1.377-1.4,1.38-2.614.009-5.228,0-7.842,0h-.8c-.007.082-.031.148-.011.167,2.236,2.09,3,4.841,3.49,7.722.206,1.205.229,1.2,1.437,1.2q6.585,0,13.17,0c1.243,0,1.541.327,1.577,1.574A6.71,6.71,0,0,1,72.513,73.3a5.746,5.746,0,0,1-4.867,2.485q-7.806.012-15.612,0-20.976,0-41.952,0a5.8,5.8,0,0,1-5.907-4.591,9.672,9.672,0,0,1-.1-2.873c.049-.65.519-.957,1.342-.958q5.1-.006,10.21,0c1.282,0,2.565-.014,3.847.008.394.007.563-.1.622-.512.088-.625.149-1.3.869-1.6,1.258-.171,1.8.373,1.608,1.617-.072.462-.167.921-.275,1.376-.279,1.17-.706,1.525-1.9,1.536-1.773.017-3.547,0-5.321.006-1.106,0-1.131.028-1.135,1.1,0,.567.016,1.134,0,1.7-.019.537.211.754.744.748,1.034-.012,2.069,0,3.1,0,2.044,0,4.089.008,6.133,0,1.443-.007,1.94-.493,2-1.953.034-.886-.008-1.774.017-2.66s.486-1.473,1.19-1.518a1.472,1.472,0,0,1,1.424,1.423c.085.809,0,1.624.048,2.437a6.778,6.778,0,0,1-.134,1.615c-.076.44.1.654.551.649.172,0,.345.005.517.005H48.143c1.089,0,1.082-.011.95-1.071a22.049,22.049,0,0,1-.044-3.54,1.875,1.875,0,0,1,.186-.711,1.319,1.319,0,0,1,1.362-.8,1.287,1.287,0,0,1,1.068,1.162c.075.859.024,1.722.029,2.584a5.085,5.085,0,0,0,.15,1.462,1.425,1.425,0,0,0,1.41.895c3.252.042,6.5.017,9.756.017.473,0,.661-.231.672-.676.019-.764.006-1.528.008-2.291,0-.574-.392-.591-.814-.592-2.02,0-4.041.012-6.06-.006a1.5,1.5,0,0,1-1.434-1.353c-.273-1.3-.561-2.6-.826-3.905a8.109,8.109,0,0,0-8.062-6.588,1.387,1.387,0,0,1-.222,0c-.921-.151-1.392.172-1.8,1.1a6.161,6.161,0,0,1-10.027,1.985,5.5,5.5,0,0,1-1.45-2.292.969.969,0,0,0-1.187-.795,8.114,8.114,0,0,0-6.734,2.563A14.536,14.536,0,0,0,23.6,62.607c-.464.7-.97.829-1.593.463-.706-.608-.794-.993-.39-1.794a11.149,11.149,0,0,1,2.226-2.969c-.323-.015-.529-.033-.735-.033q-3.847,0-7.694,0c-1.5,0-1.743-.251-1.744-1.777q0-7.361.008-14.722a1.4,1.4,0,0,0-.484-1.14,7.254,7.254,0,0,1-2.152-7.6,3.768,3.768,0,0,1,2.136-2.5.76.76,0,0,0,.5-.835c-.005-2.786-.05-5.575.032-8.359A22.394,22.394,0,0,1,31.8.41,7.81,7.81,0,0,0,33.849,0h1.036a1.132,1.132,0,0,0,.888,0h6.069a1.132,1.132,0,0,0,.888,0h.888c1,.194,2,.366,2.986.586A22.431,22.431,0,0,1,63.629,18.6a43.248,43.248,0,0,1,.314,6.856c.013,1.454.007,2.908,0,4.363,0,.289.028.5.344.638a4.206,4.206,0,0,1,2.545,3.7,7.323,7.323,0,0,1-2.382,6.463,1.4,1.4,0,0,0-.513,1.2c.038.96-.03,1.924.023,2.883a1.366,1.366,0,0,1-1.09,1.634,1.178,1.178,0,0,1-1.316-1.056,10.5,10.5,0,0,1-.093-1.693c-.027-.328.2-.79-.326-.927a1.13,1.13,0,0,0-1.233.714,17.605,17.605,0,0,1-.929,2.173,16.077,16.077,0,0,1-13.036,9,1.993,1.993,0,0,0-.293.036c-.231.063-.546.074-.531.4.015.347.342.322.57.309a13.822,13.822,0,0,1,4.454.544,3.3,3.3,0,0,0,.883.058q4.73,0,9.46,0c.946,0,.986-.043.989-1.012.005-1.552,0-3.1,0-4.656a2.069,2.069,0,0,1,.341-1.336c.271-.343.6-.6,1.082-.361" transform="translate(-1.959)"/>
        <path id="Trazado_140455" data-name="Trazado 140455" d="M78.668,0a.672.672,0,0,1-.888,0Z" transform="translate(-37.896)" fill="#212121"/>
        <path id="Trazado_140456" data-name="Trazado 140456" d="M65.1,0a.672.672,0,0,1-.888,0Z" transform="translate(-31.286)" fill="#212121"/>
        <path id="Trazado_140457" data-name="Trazado 140457" d="M37.6,125.875c-.016-.787-.027-1.573-.052-2.36-.026-.81-.445-1.308-1.093-1.322-.671-.015-1.112.5-1.121,1.355-.012,1.011.011,2.022-.007,3.032a1.609,1.609,0,0,1-1.829,1.81c-3.279.006-6.557-.008-9.836.013-.494,0-.7-.094-.67-.637a22.56,22.56,0,0,0,0-2.587c-.036-.6.118-.8.753-.788,2.021.043,4.043.018,6.065.015.976,0,1.258-.232,1.463-1.183.1-.481.2-.964.3-1.446.253-1.262-.1-1.7-1.359-1.691a.921.921,0,0,0,.775-.976,6.769,6.769,0,0,1,.259-1.216,1.309,1.309,0,0,0,1.641-.851,8.262,8.262,0,0,1,8.132-4.484c.178.276-.013.47-.164.655a11.034,11.034,0,0,0-2.132,5.672c-.289,2.1-.484,4.209-.752,6.311-.033.259.063.623-.369.679" transform="translate(-11.2 -54.825)" fill="#c5cfd9"/>
        <path id="Trazado_140458" data-name="Trazado 140458" d="M101.639,88.742c-.909.167-1.185.489-1.19,1.463-.01,1.776-.021,3.553.008,5.329.008.547-.1.78-.722.774-3.478-.03-6.957-.013-10.435-.017a2.264,2.264,0,0,1-.656-.079,13.119,13.119,0,0,0-4.383-.509c-.324.011-.686.113-.716-.461-.029-.555.3-.615.674-.641a15.068,15.068,0,0,0,3.9-.765A16.009,16.009,0,0,0,98.483,83.363a2.078,2.078,0,0,1,1.782-.79c.225.086.174.276.176.435.008.666-.005,1.332.007,2,.016.939.253,1.245,1.165,1.546q.013,1.095.026,2.19" transform="translate(-40.704 -40.217)" fill="#544f57"/>
        <path id="Trazado_140459" data-name="Trazado 140459" d="M122.564,9.112a1.088,1.088,0,0,1-1.087,1.077c-.664.029-1.331.029-2,0-.363-.013-.472.116-.459.466.023.615.021,1.232,0,1.848-.025.794-.475,1.255-1.164,1.231-.659-.024-1.035-.465-1.05-1.25a12.237,12.237,0,0,1,.008-1.477c.063-.62-.09-.911-.786-.823a10.038,10.038,0,0,1-1.624.007A1.1,1.1,0,1,1,114.322,8a17.839,17.839,0,0,1,1.994-.013c.386.014.519-.109.5-.5-.03-.615-.019-1.232,0-1.848a1.09,1.09,0,0,1,1.052-1.183,1.13,1.13,0,0,1,1.157,1.175,12.82,12.82,0,0,1,0,1.625c-.044.548.086.8.7.736a10.2,10.2,0,0,1,1.7,0,1.137,1.137,0,0,1,1.145,1.119" transform="translate(-55.186 -2.171)"/>
        <path id="Trazado_140460" data-name="Trazado 140460" d="M131.971,99.393c-1.454,0-1.453,0-1.454,1.467a9.259,9.259,0,0,1-.021,1.034,1.056,1.056,0,0,1-1.123,1.034,1.035,1.035,0,0,1-1.062-1.087c-.032-.639-.035-1.283-.006-1.922.021-.435-.147-.551-.557-.532-.615.029-1.233.024-1.848,0a1.052,1.052,0,0,1-1.134-1.092,1.083,1.083,0,0,1,1.132-1.111,10.8,10.8,0,0,1,1.7,0c.627.067.751-.2.709-.751a13.763,13.763,0,0,1,0-1.626,1.1,1.1,0,1,1,2.2-.035,14.33,14.33,0,0,1,0,1.848c-.035.481.147.588.586.56.565-.036,1.134-.023,1.7-.005.792.025,1.269.479,1.244,1.155-.024.657-.466,1.034-1.252,1.06-.271.009-.543,0-.814,0" transform="translate(-60.789 -45.624)"/>
        <path id="Trazado_140461" data-name="Trazado 140461" d="M5.746,44.354c0,1.366,0,1.366,1.391,1.366.37,0,.741-.022,1.109.012a1.081,1.081,0,0,1,1.031,1.13,1.065,1.065,0,0,1-1.085,1.071c-.64.026-1.283.033-1.922,0-.433-.024-.551.134-.531.545.029.615.025,1.233,0,1.848a1.1,1.1,0,1,1-2.2.029c-.036-.664-.025-1.331-.007-2,.008-.316-.092-.433-.417-.422-.64.021-1.282.018-1.922,0A1.1,1.1,0,0,1,0,46.813a1.106,1.106,0,0,1,1.162-1.087c.64-.023,1.282-.028,1.922,0,.37.017.464-.113.449-.463-.027-.591-.02-1.183,0-1.775.021-.8.451-1.3,1.1-1.312s1.088.494,1.114,1.288c.01.3,0,.592,0,.888" transform="translate(0 -20.551)"/>
        <path id="Trazado_140462" data-name="Trazado 140462" d="M50.7,45.386c2.476-.629,4.98-1.147,7.422-1.91a43.421,43.421,0,0,0,12-5.378c1.078-.745,1.071-.753,1.785.316a20.605,20.605,0,0,0,6.9,6.867,5.569,5.569,0,0,0,1.262.6c.71.185.838.591.829,1.273-.041,3.057-.014,6.114-.018,9.171a13.885,13.885,0,0,1-11.724,14.02,10.486,10.486,0,0,1-1.1.085c-1.866.118-3.734.019-5.6.052a3.391,3.391,0,0,0-.516,0c-2.37.414-4.2-.71-5.893-2.124a14.965,14.965,0,0,1-5.092-8.107,1.308,1.308,0,0,1-.055-.725c.127-.266.4-.338.628-.477,1.256-.776,1.233-1.933-.043-2.692-.324-.193-.769-.228-.927-.659a1.117,1.117,0,0,1,.065-.806c.237-.259.535-.185.829-.153a5.09,5.09,0,0,0,5.141-2.5,1.58,1.58,0,0,0,.266-.759.857.857,0,0,0-.5-.972.872.872,0,0,0-1.054.308c-.211.243-.344.54-.53.8a3.349,3.349,0,0,1-3.554,1.2c-.347-.113-.636-.273-.706-.673-.1-2.028-.033-4.055-.036-6.082a.993.993,0,0,1,.225-.681" transform="translate(-24.585 -18.305)" fill="#fecabd"/>
        <path id="Trazado_140463" data-name="Trazado 140463" d="M59.346,4.319a73.54,73.54,0,0,1,8.644.148A19.475,19.475,0,0,1,78.168,8.842a19.943,19.943,0,0,1,6.994,11.44,15.25,15.25,0,0,1,.4,3.29c0,2.664.006,5.328.008,7.992a.949.949,0,0,1-.992.965c-.332-.024-.215-.282-.217-.444-.013-.913-.007-1.825-.007-2.738a1.2,1.2,0,0,0-.89-1.292c-3.386-.926-5.644-3.3-7.669-5.964a22.865,22.865,0,0,1-1.893-3c-.586-1.087-1.225-1.187-2.159-.355a27.81,27.81,0,0,1-8.425,4.815,69.26,69.26,0,0,1-9.671,2.932,1.946,1.946,0,0,1-.368.018,4.358,4.358,0,0,1-.177-2.456c.157-2.009.119-4.028.407-6.032A32.908,32.908,0,0,1,56.589,7.133a17.147,17.147,0,0,1,1.233-1.926,1.861,1.861,0,0,1,1.523-.887" transform="translate(-25.829 -2.078)" fill="#544f57"/>
        <path id="Trazado_140464" data-name="Trazado 140464" d="M51.168,125.841a17.07,17.07,0,0,0,.45-3.156c.366-2.606.392-5.275,1.489-7.74a6.294,6.294,0,0,1,1.194-1.924.7.7,0,0,0,.284-.5c.761-.195,1.121.021,1.386.858a5.978,5.978,0,0,0,11.333-.129c.2-.646.478-.774,1.111-.793a9,9,0,0,1,6.326,2,9.36,9.36,0,0,1,3.075,5.967c.158.946.4,1.877.568,2.822a1.228,1.228,0,0,0,1.069,1.142c2.117.11,4.234.021,6.352.047.823.01.824,0,.824.847,0,.542-.019,1.085.006,1.626.02.416-.184.579-.555.624a5.528,5.528,0,0,1-.664.029q-4.916,0-9.832,0a1.681,1.681,0,0,1-1.131-.245,16.123,16.123,0,0,1-.126-3.455c-.035-1.145-.343-1.678-1.075-1.7-.769-.026-1.181.542-1.146,1.707a15.313,15.313,0,0,0,.227,4.185c.066.215.011.326-.231.308-.1-.008-.2,0-.3,0H51.336c-.146,0-.292-.016-.505-.029a8.906,8.906,0,0,0,.337-2.487" transform="translate(-24.766 -54.791)" fill="#e6ebf0"/>
        <path id="Trazado_140465" data-name="Trazado 140465" d="M46.749,4.371c-1.354.446-1.871,1.679-2.481,2.764a26.953,26.953,0,0,0-2.836,8.94,45.9,45.9,0,0,0-.635,6.8c-.021,1.223-.1,2.452-.114,3.68A37.877,37.877,0,0,1,35.5,27.582a45.047,45.047,0,0,1-5.93.611,1.117,1.117,0,0,0-1.168,1.239c-.017.837.01,1.676-.014,2.513-.006.214.182.663-.248.588-.341-.059-.9.007-.947-.6-.006-.074,0-.148,0-.222.006-2.932-.114-5.872.05-8.8a19.019,19.019,0,0,1,4.248-10.891,20.023,20.023,0,0,1,9.334-6.6,18.923,18.923,0,0,1,5.922-1.051" transform="translate(-13.232 -2.13)" fill="#454045"/>
        <path id="Trazado_140466" data-name="Trazado 140466" d="M42.941,66.887a14.886,14.886,0,0,0,6.867,9.957,6.193,6.193,0,0,0,3.757,1c2.141-.075,4.287,0,6.431.005a3.407,3.407,0,0,1-1.316.109c-3.552,0-7.1.013-10.657-.011A13.861,13.861,0,0,1,34.141,66.4a12.275,12.275,0,0,1-.208-2.2c-.023-3.207-.012-6.414-.01-9.621,0-.274-.109-.6.375-.629,2.807-.18,5.568-.7,8.341-1.138q0,3.488,0,6.976c-.634.158-.809-.425-1.146-.729a6.457,6.457,0,0,1-.535-.793.878.878,0,0,0-1.225-.315.888.888,0,0,0-.342,1.227,4.929,4.929,0,0,0,2.332,2.47c.328.162.784.175.925.626l-.008.912c-.319.277-.694.174-1.055.15a4.313,4.313,0,0,0-2.613.581,1.3,1.3,0,0,0-.007,2.43,4.57,4.57,0,0,0,3.12.575c.285-.044.567-.191.859-.035" transform="translate(-16.524 -25.731)" fill="#e9ab9c"/>
        <path id="Trazado_140467" data-name="Trazado 140467" d="M41.017,95.8a16.969,16.969,0,0,1-3.532.584c-3.177-.055-6.356-.033-9.534-.005-.59.005-.749-.172-.746-.752q.035-6.171,0-12.342c0-.552.1-.663.712-.6.928.1,1.188.6,1.49,1.382A15.861,15.861,0,0,0,40.526,94.183a.707.707,0,0,1,.18.119c.326.452.159,1.006.311,1.493" transform="translate(-13.255 -40.277)" fill="#454045"/>
        <path id="Trazado_140468" data-name="Trazado 140468" d="M68.951,112a3.734,3.734,0,0,1-4.482-3.346c-.042-.664.007-1.332-.028-2-.021-.405.138-.491.511-.489q3.292.022,6.584,0c.364,0,.558.068.513.483-.037.341-.026.688-.036,1.032a1.245,1.245,0,0,1-.913.208c-1.159.006-2.317-.006-3.476.005-.809.008-.954.173-.83.981A3.731,3.731,0,0,0,68.951,112" transform="translate(-31.396 -51.726)" fill="#e9ab9c"/>
        <path id="Trazado_140469" data-name="Trazado 140469" d="M70.937,113.417a1.444,1.444,0,0,1-1.319-.633,5.054,5.054,0,0,1-1.1-2.9c-.039-.6.13-.817.766-.8,1.57.045,3.141.016,4.712.017.149,2.305-1.044,3.987-3.061,4.316" transform="translate(-33.382 -53.148)" fill="#fecabd"/>
        <path id="Trazado_140470" data-name="Trazado 140470" d="M25.716,70.93c-2.988-.349-5.169-3.993-4.074-6.705a2.045,2.045,0,0,1,3.9.49,3.869,3.869,0,0,0-2.321-.13c-.764.243-1.156.772-.991,1.4.173.658.719.938,1.516.776A1.4,1.4,0,0,1,25.582,68.2a18.591,18.591,0,0,0,.134,2.727" transform="translate(-10.405 -30.69)" fill="#e9ab9c"/>
        <path id="Trazado_140471" data-name="Trazado 140471" d="M114.038,64.707a2.048,2.048,0,0,1,2.091-1.717,1.98,1.98,0,0,1,1.949,1.691,5.327,5.327,0,0,1-3.664,6.19c-.458.133-.579.047-.5-.409a13.076,13.076,0,0,0,.095-2.213,1.4,1.4,0,0,1,1.869-1.477,1.146,1.146,0,0,0,1.356-.475A1,1,0,0,0,117.109,65a2.235,2.235,0,0,0-1.562-.55,5.541,5.541,0,0,0-1.509.255" transform="translate(-55.491 -30.69)" fill="#e9ab9c"/>
        <path id="Trazado_140472" data-name="Trazado 140472" d="M96.9,138.623c3.8,0,7.594-.008,11.39.016.556,0,.765-.157.7-.71-.081-.677.3-1.549-.161-1.989-.418-.4-1.27-.111-1.931-.119-1.43-.017-2.86,0-4.29-.009-.238,0-.5.076-.707-.117,2.242-.009,4.485-.009,6.727-.035.413-.005.494.161.486.524-.022,1.01-.03,2.021-.014,3.032.006.364-.125.456-.471.455-3.426-.011-6.853,0-10.279-.015a1.418,1.418,0,0,1-1.45-1.033" transform="translate(-47.211 -66.097)" fill="#c5cfd9"/>
        <path id="Trazado_140473" data-name="Trazado 140473" d="M8.667,137.471a4,4,0,0,1-.188-.461c-.332-1.22-.253-1.322,1-1.322,1.205,0,2.411.015,3.615-.008.407-.008.569.1.547.529-.042.809-.035,1.62-.049,2.43a5.088,5.088,0,0,1-4.6-.878,1.648,1.648,0,0,0-.328-.289" transform="translate(-4.05 -66.106)" fill="#fecabd"/>
        <path id="Trazado_140474" data-name="Trazado 140474" d="M125.047,138.643c-.015-.858-.024-1.716-.048-2.574-.008-.287.1-.385.389-.383,1.5.01,3,.013,4.5,0,.343,0,.418.14.4.44a2.428,2.428,0,0,1-.326,1.333c-.908,1.268-3.737,1.735-4.907,1.185" transform="translate(-60.903 -66.109)" fill="#fecabd"/>
        <path id="Trazado_140475" data-name="Trazado 140475" d="M9,139.173c.651.2,1.154.683,1.807.906a10.4,10.4,0,0,0,3.121.261c.091,1.036.09,1.006-.921,1.042-1.789.066-3.243-.434-4.006-2.21" transform="translate(-4.387 -67.809)" fill="#e8ab9c"/>
        <path id="Trazado_140476" data-name="Trazado 140476" d="M125.054,140.328a7.109,7.109,0,0,0,4.907-1.185,3.354,3.354,0,0,1-3.023,2.205,8.065,8.065,0,0,1-.958.013c-1.023,0-1.023,0-.925-1.033" transform="translate(-60.91 -67.794)" fill="#e8ab9c"/>
        <path id="Trazado_140477" data-name="Trazado 140477" d="M53.81,106.851c-.657-.383-.15-1.007-.311-1.493.95.1,1.881.34,2.843.353.421.006.572.234.56.67-.014.518-.346.437-.658.441q-1.218.016-2.435.028" transform="translate(-26.048 -51.333)" fill="#524e55"/>
        <path id="Trazado_140478" data-name="Trazado 140478" d="M85.287,67a5.375,5.375,0,0,1-4.8-2.944c-.405-.756-.262-1.421.329-1.742s1.212-.087,1.616.672a3.12,3.12,0,0,0,5.625-.016c.391-.752,1.024-.987,1.629-.652a1.153,1.153,0,0,1,.347,1.677,5.374,5.374,0,0,1-4.747,3" transform="translate(-39.104 -30.29)"/>
        <path id="Trazado_140479" data-name="Trazado 140479" d="M47.566,66.834a5.7,5.7,0,0,1-3.339-2.8c-.38-.769-.248-1.413.351-1.727s1.211-.071,1.615.676a2.706,2.706,0,0,0,1.364,1.366,3.015,3.015,0,0,0,4.008-.958c.113-.189.21-.387.324-.576a1.124,1.124,0,0,1,1.5-.519,1.109,1.109,0,0,1,.472,1.522,5.283,5.283,0,0,1-3.741,3.043,6.826,6.826,0,0,1-2.559-.026" transform="translate(-21.444 -30.291)"/>
        <path id="Trazado_140480" data-name="Trazado 140480" d="M67.081,82.711a5.269,5.269,0,0,1-4.746-2.973,1.138,1.138,0,0,1,.405-1.71c.6-.3,1.158-.071,1.554.672a3.131,3.131,0,0,0,5.628.022c.417-.781,1-1.011,1.61-.672a1.16,1.16,0,0,1,.345,1.731,5.284,5.284,0,0,1-4.8,2.93" transform="translate(-30.268 -37.954)"/>
        <path id="Trazado_140481" data-name="Trazado 140481" d="M46.723,76.672a4.629,4.629,0,0,1-4.168-.417,1.473,1.473,0,0,1,.1-2.735,4.264,4.264,0,0,1,2.882-.569,5.778,5.778,0,0,0,.885.018c.364.189.744.352,1.087.573a1.554,1.554,0,0,1-.049,2.817,5.729,5.729,0,0,1-.735.313" transform="translate(-20.306 -35.516)" fill="#e38fb6"/>
        <path id="Trazado_140482" data-name="Trazado 140482" d="M92.212,76.965a4.3,4.3,0,0,1-2.553-.792,1.474,1.474,0,0,1,.024-2.524,4.9,4.9,0,0,1,5.066-.109c1.243.831,1.222,2.038-.073,2.795a4.588,4.588,0,0,1-2.464.631" transform="translate(-43.343 -35.513)" fill="#e38fb6"/>
        <path id="Trazado_140483" data-name="Trazado 140483" d="M68.96,68.073c.64,0,1.281-.016,1.921,0A1.058,1.058,0,0,1,72.013,69.1a1.07,1.07,0,0,1-1.063,1.174q-2.031.058-4.064,0a1.1,1.1,0,1,1,.079-2.194c.665-.021,1.33,0,2,0" transform="translate(-32.071 -33.164)" fill="#010100"/>
      </g>
    </g>
  </g>
</svg>
