<svg xmlns="http://www.w3.org/2000/svg" xmlns:xlink="http://www.w3.org/1999/xlink" width="123" height="123" viewBox="0 0 123 123">
  <defs>
    <clipPath id="clip-path">
      <rect id="Rectángulo_38274" data-name="Rectángulo 38274" width="67.935" height="66.846" fill="none"/>
    </clipPath>
  </defs>
  <g id="Grupo_160972" data-name="Grupo 160972" transform="translate(-420.016 -1641.895)">
    <circle id="Elipse_4854" data-name="Elipse 4854" cx="61.5" cy="61.5" r="61.5" transform="translate(420.016 1641.895)" fill="#a6bbff"/>
    <g id="Grupo_161142" data-name="Grupo 161142" transform="translate(448.016 1669.895)">
      <g id="Grupo_161142-2" data-name="Grupo 161142" clip-path="url(#clip-path)">
        <path id="Trazado_140397" data-name="Trazado 140397" d="M54.46,11.594a12.647,12.647,0,0,0-9.932,4.5,17.735,17.735,0,0,0-3.712,6.375c-.121.355-.157.574-.612.285A3.217,3.217,0,0,0,38.27,22.3c-.274.016-.4-.034-.419-.363-.037-.561.058-.812.725-.774,1.171.068,1.516-.33,1.517-1.521,0-1.624,0-3.248,0-4.872,0-.282.037-.6-.169-.8-.357-.336-.2-.638-.066-.992a11.245,11.245,0,0,0-.623-9.725A6.114,6.114,0,0,0,32.669.135a8.468,8.468,0,0,0-3.276,1.6c-.254.173-.457.311-.8.114A15.689,15.689,0,0,0,20.71,0,12.62,12.62,0,0,0,10.065,5.136a9.59,9.59,0,0,1-3.314,2.7A10.439,10.439,0,0,1,1.5,8.928a1.3,1.3,0,0,0-1.371.606c-.309.569-.029,1.018.28,1.472Q1.158,12.1,1.88,13.2a7.54,7.54,0,0,0,6.607,3.692c.344,0,.436.09.428.42-.018.882-.017,1.764,0,2.645a1.122,1.122,0,0,0,1.207,1.22,2.97,2.97,0,0,0,.556,0c.439-.068.5.162.465.52-.029.3.107.6-.449.616a3.887,3.887,0,1,0-.027,7.771c.327.011.47.046.491.439a13.169,13.169,0,0,0,6.32,10.9.63.63,0,0,1,.351.6q-.029,1.739,0,3.48c0,.319-.094.428-.413.488-.886.168-1.761.4-2.643.589a57.56,57.56,0,0,1-6.109,1.29c-4.561.487-7.545,3.619-7.549,8.2q0,4.56,0,9.119c0,1.34.3,1.648,1.619,1.648H46.375c1.146,0,1.512-.356,1.513-1.476,0-3.179,0-6.358,0-9.536a7,7,0,0,0-.166-1.658,8.276,8.276,0,0,0-.924-2.587.619.619,0,0,1-.076-.747,17.763,17.763,0,0,1,4.564-5.893,85.871,85.871,0,0,1,7.519-5.11c4.884-3.285,7.862-7.723,8.47-13.617.934-9.055-5.975-14.446-12.82-14.625M41.8,47.559c-.123.477-.306.495-.715.437-2.911-.414-5.738-1.224-8.613-1.811-1.3-.265-1.292-.3-1.292-1.644q0-.417,0-.834c-.385-1.445.3-2.242,1.45-3.1a12.77,12.77,0,0,0,5.21-9.989c.022-.4.083-.6.534-.536a2.423,2.423,0,0,0,1.16-.168c.319-.116.434-.106.473.27a71.962,71.962,0,0,0,1.934,8.508,18.451,18.451,0,0,1-.142,8.866" transform="translate(0 0)"/>
        <path id="Trazado_140398" data-name="Trazado 140398" d="M130.7,111.441a6.682,6.682,0,1,1-6.648,6.714,6.7,6.7,0,0,1,6.648-6.714" transform="translate(-69.479 -62.416)"/>
        <path id="Trazado_140399" data-name="Trazado 140399" d="M130.475,145.668c0,1.193,0,1.166-1.2,1.018a11.492,11.492,0,0,1-5.42-2.115c-.343-.248-.336-.394-.077-.678.358-.392.6-1.009,1.033-1.181.474-.189.86.461,1.312.7a8.44,8.44,0,0,0,3.621,1.072c.682.022.815.27.733.84a2.463,2.463,0,0,0,0,.347" transform="translate(-69.221 -79.912)"/>
        <path id="Trazado_140400" data-name="Trazado 140400" d="M114.972,117.865c-1.171,0-1.146,0-1-1.158a11.564,11.564,0,0,1,2.1-5.428c.251-.349.41-.4.731-.1.384.366,1.019.61,1.17,1.039.161.457-.478.86-.72,1.317a8.25,8.25,0,0,0-1.058,3.555c-.026.691-.241.89-.87.777a1.981,1.981,0,0,0-.347,0" transform="translate(-63.794 -62.159)"/>
        <path id="Trazado_140401" data-name="Trazado 140401" d="M52.627,50.393a83.619,83.619,0,0,1-.116,9.306A11.06,11.06,0,0,1,42.276,69.3a11.148,11.148,0,0,1-11.9-11.125q.02-3.893.025-7.786a1.181,1.181,0,0,1,.919-.227q10.2-.009,20.391,0a1.181,1.181,0,0,1,.919.227" transform="translate(-17.012 -28.095)" fill="#f4caa0"/>
        <path id="Trazado_140402" data-name="Trazado 140402" d="M50.35,127.466H31.843c-2.806,0-5.613-.01-8.419.01-.473,0-.681-.048-.677-.618q.042-6.749,0-13.5c0-.454.141-.587.567-.737,1.425-.5,2.662-.573,3.414,1.045a13.968,13.968,0,0,0,21.831-1.034.753.753,0,0,1,.963-.365,17.213,17.213,0,0,0,2.369.532c.568.084.53.3.345.72Q49.9,118.9,47.581,124.286c-.564,1.306-.418,1.656.908,2.227.63.271,1.257.552,1.885.828l-.025.124" transform="translate(-12.74 -62.85)" fill="#46aed9"/>
        <path id="Trazado_140403" data-name="Trazado 140403" d="M95.76,45.832c.072-5.022,1.875-9.536,6.307-12.656,6.342-4.464,15.675-.324,16.568,7.382.692,5.966-1.744,10.69-6.45,14.284a14.1,14.1,0,0,1-6.481,2.833c-3.532.538-5.849-.562-7.717-3.635a16.1,16.1,0,0,1-2.227-8.209" transform="translate(-53.634 -17.553)" fill="#fefefe"/>
        <path id="Trazado_140404" data-name="Trazado 140404" d="M10.4,13.734A12.38,12.38,0,0,0,15.6,11.388c1.387-1.016,2.246-2.517,3.494-3.655A9.848,9.848,0,0,1,25.56,5.093a15.083,15.083,0,0,1,5.819.663A11.118,11.118,0,0,1,33.929,7a1.308,1.308,0,0,0,1.713-.04c.556-.414,1.148-.78,1.728-1.161a3.925,3.925,0,0,1,5.765,1.443,8.864,8.864,0,0,1,1.081,4.945,2.271,2.271,0,0,1-1.189,1.1,4.556,4.556,0,0,1-2.249.618c-2.146-.016-4.287.094-6.431.153a1.239,1.239,0,0,1-.986-.2c.094-.519.2-1.036.279-1.557.059-.368-.076-.582-.488-.532-.068.008-.139,0-.208,0-.461.011-1-.122-1.359.075-.342.188-.219.792-.346,1.2a6.607,6.607,0,0,1-.378.814,1.927,1.927,0,0,1-.975.33c-1.249.057-2.5.04-3.748.008-.23-.006-.539.019-.58-.348.1-.517.2-1.033.286-1.552.061-.371-.083-.577-.49-.527-.068.008-.138,0-.207,0a3.254,3.254,0,0,0-1.355.073c-.344.187-.215.791-.348,1.193a2.411,2.411,0,0,1-.5.969,7.487,7.487,0,0,1-2.385.3,30.145,30.145,0,0,0-4.213.861,6.748,6.748,0,0,1-5.315-.514c-.339-.183-.8-.353-.623-.918" transform="translate(-5.805 -2.839)" fill="#4d2817"/>
        <path id="Trazado_140405" data-name="Trazado 140405" d="M38.614,38.814c-4.2,0-8.391-.01-12.586.012-.557,0-.793-.113-.748-.718.053-.714.026-1.436.007-2.154-.009-.359.114-.5.48-.486.532.022,1.066.005,1.6.005q11.925,0,23.85-.012c.609,0,.885.116.818.789a11.031,11.031,0,0,0,0,1.875c.04.547-.139.7-.693.7-4.242-.022-8.483-.012-12.725-.012" transform="translate(-14.156 -19.861)" fill="#1a326e"/>
        <path id="Trazado_140406" data-name="Trazado 140406" d="M12.033,114.355v.622c0,4.333-.014,8.666.016,13,0,.6-.169.726-.728.7-1.064-.047-2.132-.029-3.2-.006-.4.009-.562-.051-.557-.514.025-2.85-.01-5.7.022-8.551a5.439,5.439,0,0,1,4.445-5.253" transform="translate(-4.237 -64.049)" fill="#f4caa0"/>
        <path id="Trazado_140407" data-name="Trazado 140407" d="M54.445,101.846c.007,1.111.005,2.222.03,3.332a.712.712,0,0,1-.332.627,6.835,6.835,0,0,1-8.256,0,.713.713,0,0,1-.337-.625c.026-1.11.023-2.221.03-3.332a1.54,1.54,0,0,1,1.014.128,11.941,11.941,0,0,0,6.991-.042c.273-.083.55-.288.859-.089" transform="translate(-25.512 -56.995)" fill="#f4caa0"/>
        <path id="Trazado_140408" data-name="Trazado 140408" d="M89,117.424c.084.039.167.079.251.115.762.329,1.516.681,2.291.977.368.14.359.293.221.607q-2.03,4.662-4.03,9.339c-.143.334-.258.467-.644.276-.722-.359-1.467-.675-2.22-.963-.365-.14-.367-.288-.226-.612,1.355-3.108,2.692-6.223,4.036-9.336.068-.157.077-.37.32-.4" transform="translate(-47.359 -65.767)" fill="#fefefe"/>
        <path id="Trazado_140409" data-name="Trazado 140409" d="M60.882,22.919c2.49.03,4.975-.19,7.467-.159a4.884,4.884,0,0,0,3.388-1.512,9.248,9.248,0,0,1-1,3.706.579.579,0,0,1-.613.336c-3.5-.007-6.991,0-10.622,0a11.158,11.158,0,0,0,1.381-2.367" transform="translate(-33.326 -11.901)" fill="#3b1e12"/>
        <path id="Trazado_140410" data-name="Trazado 140410" d="M99.806,91.142a8.315,8.315,0,0,0,6.249,2.388c-.713.644-1.375,1.2-1.988,1.8a20.151,20.151,0,0,0-4.011,5.625c-.139.288-.206.65-.667.362-.306-.191-.729-.178-.511-.8a20.732,20.732,0,0,0,.928-9.375" transform="translate(-55.346 -51.047)" fill="#fefefe"/>
        <path id="Trazado_140411" data-name="Trazado 140411" d="M52.633,49.265H30.4c-.058-1.117-.058-1.117,1.026-1.117H51.607c1.084,0,1.084,0,1.026,1.117" transform="translate(-17.018 -26.967)" fill="#d8b38d"/>
        <path id="Trazado_140412" data-name="Trazado 140412" d="M50.531,109.522l2.567.567c-3.86,5.576-13.387,6.607-18.537.029l2.64-.6c-.333,1.47.7,2.088,1.637,2.726a9.061,9.061,0,0,0,11.024-.737,2.1,2.1,0,0,0,.669-1.98" transform="translate(-19.357 -61.337)" fill="#46aed9"/>
        <path id="Trazado_140413" data-name="Trazado 140413" d="M8.873,24.765a.942.942,0,0,0,.6.7,6.7,6.7,0,0,0,5.279.542,21.115,21.115,0,0,1,6.653-.972,4.01,4.01,0,0,1-3.643,2.2c-1.1.08-2.218.026-3.328.012a1.1,1.1,0,0,0-1.228.882c-.076.342-.249.378-.53.382a5.174,5.174,0,0,1-4.37-2.248c-.276-.363-.754-.85-.669-1.146.122-.428.821-.166,1.232-.357" transform="translate(-4.274 -13.871)" fill="#3b1e12"/>
        <path id="Trazado_140414" data-name="Trazado 140414" d="M54.484,99.2a12.611,12.611,0,0,1-4.638.834,12.876,12.876,0,0,1-4.226-.831V97.046a13.278,13.278,0,0,0,8.864,0Z" transform="translate(-25.551 -54.353)" fill="#d8b38d"/>
        <path id="Trazado_140415" data-name="Trazado 140415" d="M95.4,136.346l3.569-8.276.126.022v3.354c0,1.459-.018,2.919.011,4.377.009.434-.111.548-.539.534-1.017-.033-2.036-.011-3.168-.011" transform="translate(-53.43 -71.73)" fill="#f4caa0"/>
        <path id="Trazado_140416" data-name="Trazado 140416" d="M43.18,25.024c.2.231.469.148.71.145a33.622,33.622,0,0,0,4.592-.135,4.244,4.244,0,0,1-3.856,2.358c-.895.049-1.794.009-2.8.009a11.642,11.642,0,0,0,1.355-2.376" transform="translate(-23.426 -14.016)" fill="#3b1e12"/>
        <path id="Trazado_140417" data-name="Trazado 140417" d="M22.476,57.441q0,.449,0,.9c0,.768-.11.853-.874.689a1.7,1.7,0,0,1-1.335-1.9,1.766,1.766,0,0,1,1.922-1.421c.266.029.291.142.288.348-.006.461,0,.923,0,1.384" transform="translate(-11.339 -31.196)" fill="#f4caa0"/>
        <path id="Trazado_140418" data-name="Trazado 140418" d="M88.184,57.461A1.568,1.568,0,0,1,86.45,59.08c-.3-.009-.4-.091-.39-.393q.026-1.284,0-2.57c-.006-.3.079-.387.386-.4a1.567,1.567,0,0,1,1.738,1.739" transform="translate(-48.201 -31.208)" fill="#f4caa0"/>
        <path id="Trazado_140419" data-name="Trazado 140419" d="M129.5,122.653a4.435,4.435,0,0,1,6.454-5.468A4.462,4.462,0,0,1,137.915,122a1.768,1.768,0,0,1-.28.627c-.882,1.462-3.866,2.453-6.145,1.445a4.677,4.677,0,0,1-1.991-1.421" transform="translate(-72.336 -65.252)" fill="#c8f264"/>
        <path id="Trazado_140420" data-name="Trazado 140420" d="M129.943,130.453c.567.3,1.025.762,1.611,1.048a5.524,5.524,0,0,0,6.246-.87,3.091,3.091,0,0,1,.278-.2,4.3,4.3,0,0,1-5.393,2.563,4.194,4.194,0,0,1-2.742-2.539" transform="translate(-72.779 -73.051)" fill="#acd055"/>
        <path id="Trazado_140421" data-name="Trazado 140421" d="M46.947,73.5c.652-.168.92-.033,1.049.575a2.392,2.392,0,0,0,2.368,1.876,2.541,2.541,0,0,0,2.458-1.889c.062-.2-.113-.585.282-.605a8.525,8.525,0,0,1,1.382.039c.148.016.068.242.06.368a4.183,4.183,0,0,1-8.318.047c-.084-.849.572-.293.719-.41" transform="translate(-25.887 -41.125)"/>
        <path id="Trazado_140422" data-name="Trazado 140422" d="M67.821,58.332a1.947,1.947,0,1,1-1.942-1.952,1.966,1.966,0,0,1,1.942,1.952" transform="translate(-35.805 -31.578)"/>
        <path id="Trazado_140423" data-name="Trazado 140423" d="M40.534,56.379a1.947,1.947,0,1,1-1.925,1.969,1.966,1.966,0,0,1,1.925-1.969" transform="translate(-21.625 -31.577)"/>
        <path id="Trazado_140424" data-name="Trazado 140424" d="M109.688,41.009c-.221.5-.42,1-.654,1.474-.15.3-.15.48.221.608.543.188,1.123.685,1.581.582.422-.1.521-.9.714-1.41.162-.426.329-.494.758-.3,1.512.677,1.548.671.873,2.149-.231.5-.089.678.359.836.476.168,1,.623,1.383.514.4-.117.5-.831.662-1.3.188-.548.423-.62.947-.374,1.384.648,1.417.632.78,2.017-.231.5-.217.713.358.934,1.433.552,1.4.58.827,2-.2.509-.4.681-.925.388-.436-.243-1.038-.639-1.365-.5-.345.148-.408.878-.672,1.307-.323.525-.142.711.37.912,1.423.559,1.371.565.826,2.008-.228.6-.477.564-.951.358-1.4-.609-1.392-.589-2.017.81-.209.467-.223.731.347.9.482.143,1.175.3,1.319.643s-.33.9-.469,1.385c-.165.571-.409.594-.925.356-1.385-.638-1.422-.618-1.991.788-.21.519-.418.687-.933.367-.425-.264-1.171-.279-1.289-.679-.112-.378.272-.937.514-1.375.258-.467.172-.683-.338-.825s-1.029-.682-1.446-.472c-.353.177-.476.854-.652,1.327-.15.4-.31.56-.744.314-.474-.269-1.255-.3-1.411-.734-.133-.374.289-.976.528-1.445.2-.39.121-.557-.283-.689-.52-.17-1.083-.641-1.512-.531-.41.1-.5.874-.684,1.364-.17.458-.38.456-.749.265-.47-.243-1.182-.33-1.38-.7s.269-.959.511-1.417c.233-.439.064-.584-.328-.739-1.031-.408-2.043-.864-3.071-1.279-.322-.13-.4-.246-.26-.606.655-1.66.64-1.667,2.256-.98.7.3,1.409.583,2.1.906.308.145.421.062.557-.226.778-1.646.785-1.641-.873-2.337-.66-.278-1.311-.578-1.98-.832-.342-.13-.456-.251-.3-.637.662-1.637.649-1.643,2.283-.956.681.286,1.375.548,2.04.869.353.171.486.075.609-.252.212-.562.717-1.178.6-1.645-.09-.354-.952-.521-1.479-.754-.7-.308-1.4-.609-2.1-.894-.3-.12-.38-.251-.218-.563.265-.511.346-1.287.749-1.508.42-.231,1.025.333,1.55.544.621.25,1.246.5,1.844.8.48.241.784.249.943-.354a9.954,9.954,0,0,1,.426-1.022c.106-.273.212-.422.545-.248.428.224.891.382,1.332.584.127.058.344.063.293.289" transform="translate(-55.14 -22.438)"/>
        <path id="Trazado_140425" data-name="Trazado 140425" d="M73.663,9.831A4.856,4.856,0,0,1,71.484,9.4a.833.833,0,0,1-.575-.635.681.681,0,0,1,.481-.7A5.514,5.514,0,0,1,76,8.091a.675.675,0,0,1,.453.645.791.791,0,0,1-.547.656,4.745,4.745,0,0,1-2.242.439" transform="translate(-39.712 -4.244)" fill="#60321d"/>
        <path id="Trazado_140426" data-name="Trazado 140426" d="M68.285,60.457a.248.248,0,0,1-.289.229c-.139-.012-.272-.084-.248-.257a.25.25,0,0,1,.282-.233.263.263,0,0,1,.256.261" transform="translate(-37.943 -33.714)" fill="#d6b28d"/>
        <path id="Trazado_140427" data-name="Trazado 140427" d="M42.969,60.428a.239.239,0,0,1-.255.256.235.235,0,0,1-.282-.224.247.247,0,0,1,.25-.266c.16-.014.246.088.287.234" transform="translate(-23.765 -33.713)" fill="#d6b28d"/>
        <path id="Trazado_140428" data-name="Trazado 140428" d="M121.209,52.348c-.267.6-.527,1.2-.787,1.787-.116.264-.271.066-.395.022-1.8-.628-1.786-.622-1.025-2.374.178-.41.355-.447.712-.263.389.2.8.361,1.2.534.143.062.328.076.294.293" transform="translate(-66.378 -28.797)" fill="#fdfdfd"/>
        <path id="Trazado_140429" data-name="Trazado 140429" d="M130.414,56.389c-.233.542-.476,1.115-.725,1.684a.207.207,0,0,1-.29.1c-.086-.032-.167-.078-.253-.111-1.721-.671-1.782-.86-.823-2.462.092-.154.16-.283.363-.2.529.228,1.056.46,1.586.685.128.054.174.135.142.3" transform="translate(-71.524 -31.016)" fill="#fdfdfd"/>
        <path id="Trazado_140430" data-name="Trazado 140430" d="M117.1,61.666c-.276.642-.491,1.231-.78,1.779-.164.309-.44.031-.6-.062-.472-.276-1.333-.227-1.374-.8a3.7,3.7,0,0,1,.681-1.708c.158-.3.425-.021.6.065a4.956,4.956,0,0,1,1.471.722" transform="translate(-64.045 -34.022)" fill="#fdfdfd"/>
        <path id="Trazado_140431" data-name="Trazado 140431" d="M126.337,65.578c-.3.685-.405,1.484-.853,1.8s-1.077-.333-1.644-.509c-.14-.044-.446-.055-.346-.315.23-.6.51-1.179.771-1.765.046-.1.118-.109.221-.064.566.25,1.135.492,1.7.74.084.037.162.087.149.11" transform="translate(-69.156 -36.239)" fill="#fdfdfd"/>
      </g>
    </g>
  </g>
</svg>
