<svg xmlns="http://www.w3.org/2000/svg" xmlns:xlink="http://www.w3.org/1999/xlink" width="123" height="123" viewBox="0 0 123 123">
  <defs>
    <clipPath id="clip-path">
      <rect id="Rectángulo_38273" data-name="Rectángulo 38273" width="34" height="94.354" fill="none"/>
    </clipPath>
  </defs>
  <g id="Grupo_160971" data-name="Grupo 160971" transform="translate(-420.016 -1641.895)">
    <circle id="Elipse_4854" data-name="Elipse 4854" cx="61.5" cy="61.5" r="61.5" transform="translate(420.016 1641.895)" fill="#a6bbff"/>
    <g id="Grupo_161141" data-name="Grupo 161141" transform="translate(464.016 1655.895)">
      <g id="Grupo_161141-2" data-name="Grupo 161141" clip-path="url(#clip-path)">
        <path id="Trazado_140386" data-name="Trazado 140386" d="M24.17,0a3.018,3.018,0,0,1,1.79,3.262c-.074,1.439-.008,2.885-.018,4.328-.011,1.666-.474,2.3-2.086,2.782a.485.485,0,0,0-.425.565c.015,1.32-.022,2.642.02,3.96a2.551,2.551,0,0,0,1.678,2.219A15.973,15.973,0,0,1,32.38,24.31a13.924,13.924,0,0,1,1.56,6.278q.021,9.533.007,19.067a7.994,7.994,0,0,1-.795,3.374,6.754,6.754,0,0,0,.035,6.431,8.04,8.04,0,0,1,.774,3.93c-.012,7.768-.139,15.539.038,23.3a7.622,7.622,0,0,1-11.393,6.654,1.649,1.649,0,0,0-1.853,0,7.6,7.6,0,0,1-7.718-.1,1.229,1.229,0,0,0-1.45-.015A7.76,7.76,0,0,1,.508,89.73a6.754,6.754,0,0,1-.495-2.6Q.021,75.015.014,62.9a7.611,7.611,0,0,1,.843-3.637A6.284,6.284,0,0,0,.9,53.191,9.031,9.031,0,0,1,.013,49.1C.03,43.084-.036,37.066.031,31.049.1,24.836,3.115,20.326,8.45,17.357c1.469-.817,2.274-1.769,2.092-3.474a13.018,13.018,0,0,1-.007-1.749c.027-.933.182-1.791-1.2-2.052-.926-.176-1.291-1.165-1.3-2.124-.018-1.842-.007-3.684,0-5.526A2.715,2.715,0,0,1,9.8,0h2.579a1.411,1.411,0,0,1,1.134,1.417,1.6,1.6,0,0,1-1.6,1.566c-.781.052-.966.435-.933,1.124.036.759,0,1.521.01,2.282a1.123,1.123,0,0,0,.266.93,1.361,1.361,0,0,0,.889.158c3.187-.01,6.375.033,9.562-.025,1.15-.02,1.245-.119,1.26-1.277.009-.7-.022-1.411.007-2.114.031-.749-.283-1.074-1.032-1.02a5.865,5.865,0,0,1-1.01-.013c-.784.011-1.569.031-2.352-.012a1.706,1.706,0,0,1-1.8-1.55A1.413,1.413,0,0,1,17.906,0Z" transform="translate(0)"/>
        <path id="Trazado_140387" data-name="Trazado 140387" d="M28.228,117.642a4.832,4.832,0,0,1-3.3-.884,2.9,2.9,0,0,0-3.578.018,4.892,4.892,0,0,1-5.7.036,3.065,3.065,0,0,0-3.739,0,5.033,5.033,0,0,1-7.046-1.4,3.706,3.706,0,0,1-.595-2q.01-12.294,0-24.587a5.387,5.387,0,0,1,.654-2.465,8.685,8.685,0,0,0,.039-8.049c-.078-.167-.149-.337-.233-.5-.276-.543-.147-.732.491-.726,2.977.027,5.955.012,8.933.011,2.271,0,4.543.009,6.814,0,1.188-.006,1.567-.306,1.926-1.431a5.077,5.077,0,0,1,3.677,0c.355,1.11.735,1.4,1.879,1.433.542.014,1.084.02,1.626.029.4.561.05,1.064-.149,1.558a8.866,8.866,0,0,0-.88,3.163,7.915,7.915,0,0,0,.749,3.741,10.029,10.029,0,0,1,.92,4.465q.016,11.219.005,22.435a7.022,7.022,0,0,1-1.207,4.169,2.283,2.283,0,0,1-1.282.983" transform="translate(-1.478 -26.107)" fill="#685e68"/>
        <path id="Trazado_140388" data-name="Trazado 140388" d="M26.552,66.946H22.875c-.2-1.025-.849-1.36-1.86-1.355-5.279.027-10.558,0-15.837.024-.665,0-.966-.086-.959-.879.042-4.572.022-9.146.018-13.719,0-.477-.066-.856.676-.853,8.441.03,16.881.022,25.322.024a1.341,1.341,0,0,1,.182.025,1.56,1.56,0,0,1,.3,1.212q.012,6.429,0,12.858c0,1.221-.084,1.271-1.3,1.283a10.6,10.6,0,0,0-1.74.044,1.6,1.6,0,0,0-1.117,1.339" transform="translate(-1.463 -17.386)" fill="#e84444"/>
        <path id="Trazado_140389" data-name="Trazado 140389" d="M30.268,42.065l-25.281.027c-.061,0-.123-.006-.184,0-.427.04-.523-.171-.459-.557A12.171,12.171,0,0,1,7.43,34.907a1.662,1.662,0,0,1,.9-.085c5.977-.006,11.955.01,17.932-.02a2.19,2.19,0,0,1,1.939.971,11.89,11.89,0,0,1,2.23,4.893,1.479,1.479,0,0,1-.163,1.4" transform="translate(-1.5 -12.062)" fill="#685e68"/>
        <path id="Trazado_140390" data-name="Trazado 140390" d="M40.941,118.584a5.757,5.757,0,0,0,2.191-4.639q.06-11.727,0-23.454a9.74,9.74,0,0,0-1-4.146,7.2,7.2,0,0,1-.024-6.206,4.81,4.81,0,0,0,.671-2.069c.552-.007,1.106.016,1.655-.025.68-.052.682.237.461.745a13.524,13.524,0,0,0-1.068,3.588,7.9,7.9,0,0,0,.725,4.548,8.438,8.438,0,0,1,.827,3.722c-.023,7.7-.085,15.4.027,23.094a4.7,4.7,0,0,1-4.47,4.842" transform="translate(-14.19 -27.049)" fill="#554e56"/>
        <path id="Trazado_140391" data-name="Trazado 140391" d="M26.3,25.423H14.656c.48-.282.8-.462,1.109-.651a5.084,5.084,0,0,0,2.6-4.384c.048-1.287.02-2.578.008-3.867,0-.352.027-.57.48-.558,1.562.041,3.126.044,4.689.062a1.583,1.583,0,0,1,.257,1.136c.007,1.287.04,2.575-.008,3.86a3.959,3.959,0,0,0,1.623,3.33c.357.3.9.463.889,1.07" transform="translate(-5.08 -5.533)" fill="#f2eff2"/>
        <path id="Trazado_140392" data-name="Trazado 140392" d="M19.028,2.064h3.639c.286,1.123.636,1.4,1.78,1.415.7.008,1.4.02,2.107.031a.91.91,0,0,1,.274.663c.05,1.134.052,2.268,0,3.4-.021.475-.182.8-.772.794-3.1-.024-6.191,0-9.287-.021a.485.485,0,0,1-.169-.07,28.013,28.013,0,0,1-.1-4.436c-.01-.548.478-.341.765-.353,1.153-.051,1.485-.305,1.767-1.422" transform="translate(-5.704 -0.715)" fill="#e74444"/>
        <path id="Trazado_140393" data-name="Trazado 140393" d="M40.109,65.612A3.842,3.842,0,0,1,42,65.487c.71.03.874-.233.87-.9-.027-4.789-.015-9.579-.017-14.369,2.235-.12,2.235-.12,2.235,2.1,0,4.141-.014,8.282.014,12.422,0,.667-.14.921-.858.891-1.378-.057-2.759-.016-4.139-.015" transform="translate(-13.902 -17.39)" fill="#d73131"/>
        <path id="Trazado_140394" data-name="Trazado 140394" d="M31.012,25.411c-.637-.722-1.569-1.108-2.1-1.971a3.6,3.6,0,0,1-.658-1.943q0-2.741,0-5.483c2.215-.206,2.215-.206,2.215,1.956,0,.733-.01,1.466,0,2.2a5.166,5.166,0,0,0,2.723,4.658c.264.153.533.3.8.45.011.007,0,.056-.008.134Z" transform="translate(-9.791 -5.521)" fill="#e1dde1"/>
        <path id="Trazado_140395" data-name="Trazado 140395" d="M31.914,42.013a10.539,10.539,0,0,0-2.831-6.778,1.423,1.423,0,0,0-1.258-.378q-9.375,0-18.749,0c.269-.313.632-.171.949-.171,6.749-.006,13.5.007,20.246-.007a1.553,1.553,0,0,1,1.388.664,13.241,13.241,0,0,1,2.589,6.008c.095.548-.046.73-.587.7-.581-.035-1.164-.024-1.747-.033" transform="translate(-3.146 -12.011)" fill="#544d55"/>
        <path id="Trazado_140396" data-name="Trazado 140396" d="M16.676,9.02c2.944,0,5.89-.055,8.832.014.98.023,1.2-.3,1.143-1.194-.074-1.191-.021-2.391-.022-3.587,2.346-.122,2.367-.122,2.336,2.181-.012.876.395,1.993-.194,2.563-.542.525-1.639.155-2.489.162-2.913.025-5.826.014-8.739,0-.29,0-.616.125-.868-.142" transform="translate(-5.78 -1.46)" fill="#d73131"/>
      </g>
    </g>
  </g>
</svg>
