<svg xmlns="http://www.w3.org/2000/svg" xmlns:xlink="http://www.w3.org/1999/xlink" width="123" height="123" viewBox="0 0 123 123">
  <defs>
    <clipPath id="clip-path">
      <rect id="Rectángulo_38272" data-name="Rectángulo 38272" width="71.719" height="71.702" fill="none"/>
    </clipPath>
  </defs>
  <g id="Grupo_159220" data-name="Grupo 159220" transform="translate(-420 -1641.58)">
    <circle id="Elipse_4854" data-name="Elipse 4854" cx="61.5" cy="61.5" r="61.5" transform="translate(420 1641.58)" fill="#a6bbff"/>
    <g id="Grupo_161140" data-name="Grupo 161140" transform="translate(446 1667.581)">
      <g id="Grupo_161140-2" data-name="Grupo 161140" clip-path="url(#clip-path)">
        <path id="Trazado_140369" data-name="Trazado 140369" d="M35.82,74.72H1.763c-1.428,0-1.756-.327-1.756-1.75Q.006,61.543,0,50.116a3.254,3.254,0,0,1,.315-1.435Q3.829,41.245,7.33,33.8a5.933,5.933,0,0,1,8.5-2.822c.468.254.6.11.823-.261,1.893-3.18,3.883-6.306,5.689-9.535A6.03,6.03,0,0,1,31.9,19.569c.442.451.546-.05.7-.239q4.452-5.375,8.874-10.775A6.34,6.34,0,0,1,45.534,6,5.92,5.92,0,0,1,51.4,8.474q4.272,5.564,8.553,11.121Q65.574,26.9,71.2,34.2a2.314,2.314,0,0,1,.52,1.5Q71.7,54.411,71.71,73.12c0,1.218-.384,1.6-1.608,1.6H35.82m3.325-14.779c-.213-.145-.309-.22-.414-.28A65.126,65.126,0,0,0,23.956,53.4,35.755,35.755,0,0,0,3.1,53.811c-.371.118-.718.159-.716.741q.04,8.621.007,17.241c0,.419.109.546.538.545q11.083-.018,22.167,0a.725.725,0,0,0,.711-.4,30.175,30.175,0,0,1,7.858-8.486,45.036,45.036,0,0,1,5.482-3.508M28.387,72.329h.524q19.9,0,39.8.011c.483,0,.619-.119.617-.612q-.027-7.765,0-15.532c0-.514-.164-.609-.633-.591-2.263.089-4.523.2-6.78.413A60.627,60.627,0,0,0,44.5,60.091a37.412,37.412,0,0,0-13.96,9.45,19.826,19.826,0,0,0-2.148,2.788M14.01,49.6a9.992,9.992,0,0,0,2-.029,12.148,12.148,0,0,0,1.932-.776c2.7-1.079,5.388-2.184,8.1-3.22,5.34-2.037,10.763-3.833,16.245-5.45.324-.1.818-.072.4-.679q-3.315-4.829-6.585-9.689c-.258-.383-.435-.345-.742-.077q-1.04.907-2.125,1.763a3.393,3.393,0,0,1-4.4.16,1.882,1.882,0,0,0-2.7,0,3.407,3.407,0,0,1-4.406-.162c-.469-.369-.944-.736-1.374-1.148-.366-.352-.544-.253-.769.142-.567.993-1.159,1.973-1.76,2.946A1.2,1.2,0,0,1,16,33.842c-.346-.2-.677-.418-1.02-.621a3.627,3.627,0,0,0-5.52,1.668c-2.24,4.742-4.46,9.493-6.7,14.233a3.988,3.988,0,0,0-.375,1.643c-.019.658.164.721.762.542A40.738,40.738,0,0,1,14.01,49.6M68.246,34.354c-.158-.231-.273-.417-.405-.59q-4.1-5.322-8.194-10.643-1.844-2.4-3.679-4.8c-.63-.821-.629-.822-1.334-.117-.282.281-.559.567-.846.843a3.571,3.571,0,0,1-4.819.371c-.668-.477-1.328-.967-1.967-1.482a.51.51,0,0,0-.766-.011q-1.077.862-2.21,1.655a3.5,3.5,0,0,1-4.413-.173A21.182,21.182,0,0,1,37.863,17.9c-.473-.487-.728-.346-1.088.114-.858,1.1-1.733,2.184-2.658,3.224a.867.867,0,0,0-.056,1.281q5.271,7.694,10.5,15.416c.117.172.174.422.508.47q.768-2.593,1.536-5.188c.407-1.382.8-2.766,1.214-4.147A1.171,1.171,0,0,1,49,28.121a1.184,1.184,0,0,1,1.182.953c.059.19.109.383.165.573.7,2.383,1.408,4.764,2.094,7.151.125.436.283.579.769.447,1.077-.294,2.17-.533,3.268-.738a.839.839,0,0,0,.754-.68c.4-1.359.835-2.706,1.24-4.062.2-.658.463-1.24,1.263-1.254.756-.013,1.056.512,1.286,1.139.393,1.073.833,2.129,1.232,3.2.109.293.226.48.579.419,1.78-.306,3.562-.6,5.409-.915M20.8,50.193c.3.1.414.142.529.164a48.7,48.7,0,0,1,6.19,1.633,68.722,68.722,0,0,1,13.633,6.32.967.967,0,0,0,1.023.176A42.854,42.854,0,0,1,47.4,56.492a.517.517,0,0,0,.419-.587c-.015-1.518-.021-3.036,0-4.554.007-.429-.128-.548-.548-.541-1.318.024-2.637.015-3.956.007-1.188-.007-1.677-.652-1.349-1.786.606-2.1,1.225-4.2,1.834-6.295.052-.177.215-.355.03-.569A228.117,228.117,0,0,0,20.8,50.193m48.516-5.254c0-2.56-.01-5.122.009-7.682,0-.49-.092-.618-.614-.521-1.537.287-3.08.559-4.633.724-.786.084-.7.343-.48.91,1.057,2.677,2.078,5.368,3.107,8.057.5,1.31.019,2-1.4,2-1.194,0-2.388.034-3.58-.013-.6-.024-.822.106-.792.756a36.874,36.874,0,0,1,0,3.728c-.04.718.221.819.84.744a61.054,61.054,0,0,1,6.843-.4c.62-.005.718-.22.712-.767-.026-2.511-.011-5.022-.011-7.533M51.276,17.789a1.215,1.215,0,0,0,.472-.175c.659-.6,1.293-1.232,1.935-1.853.218-.211.026-.361-.087-.509-1.453-1.89-2.867-3.813-4.38-5.656A3.489,3.489,0,0,0,43.8,9.539c-1.605,1.863-3.133,3.792-4.708,5.681-.225.27-.239.421.05.65.6.479,1.173,1,1.758,1.5a1.323,1.323,0,0,0,1.988.093c.92-.677,1.829-1.37,2.746-2.051.828-.615,1.149-.612,1.992.013q1.317.977,2.625,1.965a1.628,1.628,0,0,0,1.028.4m-23.493,2.46a3.529,3.529,0,0,0-3.067,1.689c-1.125,1.817-2.2,3.666-3.316,5.49-.193.316-.184.5.121.738.573.438,1.115.916,1.667,1.379a1.245,1.245,0,0,0,1.641.1c.619-.416,1.248-.818,1.861-1.243a1.274,1.274,0,0,1,1.589-.009c.614.423,1.245.822,1.861,1.242a1.213,1.213,0,0,0,1.581-.034c.811-.658,1.605-1.338,2.416-2,.236-.192.28-.345.092-.616-1.248-1.8-2.455-3.624-3.727-5.4a3.384,3.384,0,0,0-2.72-1.335M44.626,48.428h.8c2.387,0,4.774-.021,7.161.014.629.009.8-.075.6-.748-1.153-3.8-2.26-7.611-3.382-11.418q-.362-1.226-.724-2.452l-.158,0c-1.423,4.838-2.847,9.676-4.3,14.6M59.975,35.591l-.167.011-3.2,10.412h7.376L59.975,35.591M55.9,48.43c.044.18.071.3.1.416.37,1.409-.055,1.971-1.495,1.973-1.269,0-2.539.013-3.807-.007-.385-.006-.519.1-.511.5.023,1.269.018,2.539,0,3.807,0,.378.053.544.495.427a58.357,58.357,0,0,1,7.376-1.47c.344-.045.514-.167.508-.564-.023-1.542-.013-3.086-.006-4.628,0-.286-.035-.47-.395-.46-.742.021-1.486.006-2.27.006m-1.335-4.422.145.006q.716-2.3,1.431-4.607c.1-.313-.007-.4-.33-.319-.674.174-1.35.34-2.033.469-.387.073-.476.195-.35.593.405,1.278.762,2.571,1.138,3.858" transform="translate(0 -3.018)" fill="#020201"/>
        <path id="Trazado_140370" data-name="Trazado 140370" d="M15.942,0a6.864,6.864,0,0,1,4.6,1.97,1.337,1.337,0,0,0,1.032.432,4.765,4.765,0,1,1,.027,9.53,1.435,1.435,0,0,0-1.091.472,7.123,7.123,0,0,1-9.786-.038,1.331,1.331,0,0,0-1.031-.43A4.768,4.768,0,1,1,9.672,2.4a1.315,1.315,0,0,0,1.04-.409A7.253,7.253,0,0,1,15.942,0M9.688,4.763A2.424,2.424,0,0,0,7.546,6.091a2.235,2.235,0,0,0,.232,2.524,2.209,2.209,0,0,0,2.378.88,1.466,1.466,0,0,1,1.65.506,4.727,4.727,0,0,0,7.683-.017A1.392,1.392,0,0,1,21,9.464,2.378,2.378,0,0,0,23.569,5.81a2.341,2.341,0,0,0-2.557-.939A1.322,1.322,0,0,1,19.5,4.361a4.779,4.779,0,0,0-7.74.022,1.258,1.258,0,0,1-1.449.5c-.215-.055-.437-.083-.624-.117" transform="translate(-2.487 -0.001)" fill="#030303"/>
        <path id="Trazado_140371" data-name="Trazado 140371" d="M63.126,6.146a1.187,1.187,0,0,1-.929,1.1,7.441,7.441,0,0,0-1.429.616,2.364,2.364,0,0,0-1.225,1.766c-.127.828-.565,1.263-1.232,1.216a1.19,1.19,0,0,1-1.173-1.207,2.49,2.49,0,0,0-1.67-2.016c-.359-.165-.743-.274-1.106-.432a1.188,1.188,0,0,1,.788-2.242,7.026,7.026,0,0,1,2.813,1.463c.315.288.481.247.776-.016a7.19,7.19,0,0,1,2.819-1.453,1.2,1.2,0,0,1,1.569,1.208" transform="translate(-27.264 -2.485)" fill="#060606"/>
        <path id="Trazado_140372" data-name="Trazado 140372" d="M131.252,18.294a1.2,1.2,0,0,1-.881,1.094,8.368,8.368,0,0,0-1.431.61,2.378,2.378,0,0,0-1.265,1.817c-.111.779-.541,1.184-1.185,1.19a1.183,1.183,0,0,1-1.2-1.17,2.373,2.373,0,0,0-1.38-1.9c-.484-.244-1.01-.406-1.5-.637a1.146,1.146,0,0,1-.626-1.485,1.166,1.166,0,0,1,1.445-.733,7.112,7.112,0,0,1,2.708,1.347c.392.338.628.439,1.07.03a6.531,6.531,0,0,1,2.7-1.363,1.2,1.2,0,0,1,1.554,1.2" transform="translate(-61.939 -8.667)" fill="#060606"/>
        <path id="Trazado_140373" data-name="Trazado 140373" d="M41.614,107.737a45.036,45.036,0,0,0-5.482,3.508,30.189,30.189,0,0,0-7.858,8.486.723.723,0,0,1-.711.4q-11.083-.015-22.167,0c-.429,0-.538-.126-.537-.545q.019-8.62-.007-17.241c0-.582.345-.623.715-.741a35.755,35.755,0,0,1,20.858-.412A65.116,65.116,0,0,1,41.2,107.457c.106.06.2.136.414.28" transform="translate(-2.469 -50.815)" fill="#b0bc6f"/>
        <path id="Trazado_140374" data-name="Trazado 140374" d="M57.811,123.817a19.862,19.862,0,0,1,2.148-2.788,37.406,37.406,0,0,1,13.96-9.45,60.627,60.627,0,0,1,17.423-4.073c2.257-.21,4.517-.325,6.78-.413.469-.018.635.077.633.591q-.03,7.765,0,15.532c0,.493-.135.612-.617.611q-19.9-.019-39.8-.01h-.525" transform="translate(-29.424 -54.506)" fill="#ceda8b"/>
        <path id="Trazado_140375" data-name="Trazado 140375" d="M16.476,74a40.757,40.757,0,0,0-10.868,1.71c-.6.18-.781.117-.762-.541a3.987,3.987,0,0,1,.375-1.643c2.244-4.74,4.463-9.491,6.7-14.233a3.627,3.627,0,0,1,5.52-1.668c.343.2.674.425,1.02.62a1.2,1.2,0,0,0,1.835-.462c.6-.972,1.194-1.952,1.76-2.945.226-.4.4-.495.77-.143A17.788,17.788,0,0,0,24.2,55.841,3.405,3.405,0,0,0,28.61,56a1.882,1.882,0,0,1,2.7,0,3.393,3.393,0,0,0,4.4-.16q1.084-.854,2.125-1.763c.307-.268.484-.306.742.077q3.272,4.858,6.585,9.689c.417.606-.078.583-.4.679-5.482,1.617-10.905,3.413-16.245,5.45-2.715,1.036-5.4,2.141-8.1,3.22a12.147,12.147,0,0,1-1.932.776,9.993,9.993,0,0,1-2,.029" transform="translate(-2.466 -27.419)" fill="#699b71"/>
        <path id="Trazado_140376" data-name="Trazado 140376" d="M103.285,46.448c-1.847.312-3.629.609-5.409.916-.354.06-.47-.127-.579-.42-.4-1.071-.839-2.127-1.232-3.2-.23-.627-.53-1.152-1.286-1.139-.8.014-1.067.6-1.263,1.254-.4,1.357-.844,2.7-1.24,4.062a.838.838,0,0,1-.754.68c-1.1.2-2.191.444-3.268.738-.486.133-.643-.011-.768-.447-.686-2.387-1.395-4.768-2.095-7.151-.056-.191-.106-.383-.164-.573a1.184,1.184,0,0,0-1.182-.954,1.172,1.172,0,0,0-1.181.952c-.41,1.381-.807,2.766-1.215,4.147q-.765,2.595-1.536,5.187c-.333-.048-.39-.3-.508-.47q-5.252-7.709-10.5-15.416a.868.868,0,0,1,.056-1.281c.925-1.04,1.8-2.127,2.658-3.224.36-.46.615-.6,1.088-.115A21.009,21.009,0,0,0,74.653,31.5a3.5,3.5,0,0,0,4.413.173q1.131-.79,2.21-1.654a.51.51,0,0,1,.766.01c.639.515,1.3,1.005,1.967,1.482a3.571,3.571,0,0,0,4.818-.371c.287-.276.565-.562.847-.844.706-.7.7-.7,1.334.118q1.838,2.4,3.678,4.8,4.1,5.323,8.195,10.643c.133.172.247.359.405.589" transform="translate(-35.039 -15.112)" fill="#5e8b65"/>
        <path id="Trazado_140377" data-name="Trazado 140377" d="M42.368,87.755a228,228,0,0,1,23.024-8.026c.184.215.021.392-.03.569-.609,2.1-1.228,4.195-1.833,6.3-.328,1.134.161,1.779,1.348,1.786,1.319.008,2.638.017,3.957-.007.42-.008.555.111.548.541-.025,1.518-.018,3.036,0,4.554a.516.516,0,0,1-.419.587,42.864,42.864,0,0,0-5.217,1.995.968.968,0,0,1-1.023-.176,68.678,68.678,0,0,0-13.632-6.32,48.723,48.723,0,0,0-6.19-1.633c-.115-.022-.226-.069-.529-.164" transform="translate(-21.564 -40.579)" fill="#9ea964"/>
        <path id="Trazado_140378" data-name="Trazado 140378" d="M132.476,76.84c0,2.511-.014,5.022.011,7.533.006.548-.092.762-.712.767a61.051,61.051,0,0,0-6.843.4c-.618.075-.88-.026-.84-.744a36.867,36.867,0,0,0,0-3.727c-.03-.651.193-.781.792-.757,1.191.048,2.386.016,3.58.013,1.418,0,1.9-.691,1.4-2-1.029-2.688-2.05-5.38-3.107-8.057-.223-.567-.306-.826.48-.91,1.553-.165,3.1-.438,4.633-.724.522-.1.618.031.614.521-.02,2.561-.009,5.121-.009,7.682" transform="translate(-63.157 -34.918)" fill="#9faa64"/>
        <path id="Trazado_140379" data-name="Trazado 140379" d="M91.618,20.222a1.625,1.625,0,0,1-1.028-.4q-1.307-.989-2.625-1.965c-.843-.626-1.164-.629-1.992-.014-.917.682-1.826,1.374-2.746,2.052a1.323,1.323,0,0,1-1.988-.093c-.586-.5-1.156-1.02-1.758-1.5-.289-.23-.274-.381-.05-.65,1.575-1.889,3.1-3.819,4.708-5.681a3.489,3.489,0,0,1,5.421.056c1.512,1.842,2.926,3.766,4.38,5.656.113.148.305.3.087.508-.642.621-1.276,1.251-1.935,1.853a1.216,1.216,0,0,1-.472.176" transform="translate(-40.342 -5.45)" fill="#86c58f"/>
        <path id="Trazado_140380" data-name="Trazado 140380" d="M49.831,35.093a3.385,3.385,0,0,1,2.72,1.334c1.272,1.78,2.479,3.607,3.727,5.4a.381.381,0,0,1-.092.616c-.811.659-1.6,1.339-2.416,2a1.214,1.214,0,0,1-1.581.034c-.616-.42-1.247-.819-1.861-1.242a1.274,1.274,0,0,0-1.589.01c-.613.425-1.242.827-1.861,1.243a1.245,1.245,0,0,1-1.641-.1c-.553-.464-1.095-.942-1.668-1.38-.3-.233-.314-.421-.121-.738,1.114-1.825,2.19-3.672,3.316-5.49a3.528,3.528,0,0,1,3.066-1.689" transform="translate(-22.048 -17.861)" fill="#86c58f"/>
        <path id="Trazado_140381" data-name="Trazado 140381" d="M90.882,77.343l4.3-14.6.158,0q.362,1.226.724,2.452c1.122,3.807,2.229,7.62,3.382,11.418.2.673.033.757-.6.748-2.386-.034-4.774-.014-7.161-.014h-.8" transform="translate(-46.256 -31.932)" fill="#86c48f"/>
        <path id="Trazado_140382" data-name="Trazado 140382" d="M118.649,66.336l4.008,10.424h-7.376l3.2-10.412.167-.011" transform="translate(-58.674 -33.763)" fill="#86c48f"/>
        <path id="Trazado_140383" data-name="Trazado 140383" d="M107.927,92.475c.783,0,1.527.014,2.269-.006.359-.01.4.174.395.46-.007,1.543-.017,3.086.006,4.629.006.4-.164.519-.508.564a58.324,58.324,0,0,0-7.376,1.47c-.443.117-.5-.049-.5-.427.016-1.269.021-2.539,0-3.807-.007-.4.127-.507.511-.5,1.269.021,2.538.009,3.807.007,1.441,0,1.866-.564,1.5-1.973-.03-.117-.057-.236-.1-.416" transform="translate(-52.024 -47.064)" fill="#9ea964"/>
        <path id="Trazado_140384" data-name="Trazado 140384" d="M109.894,78.347c-.376-1.287-.733-2.58-1.138-3.858-.126-.4-.037-.52.35-.593.683-.129,1.36-.295,2.033-.469.324-.083.428.005.33.319q-.712,2.3-1.431,4.607l-.145-.006" transform="translate(-55.326 -37.357)" fill="#9aa561"/>
        <path id="Trazado_140385" data-name="Trazado 140385" d="M12.149,7.246c.187.034.409.062.624.117a1.258,1.258,0,0,0,1.449-.5,4.779,4.779,0,0,1,7.74-.022,1.322,1.322,0,0,0,1.511.511,2.376,2.376,0,1,1-.012,4.593,1.392,1.392,0,0,0-1.512.52,4.727,4.727,0,0,1-7.683.017,1.466,1.466,0,0,0-1.65-.506,2.209,2.209,0,0,1-2.378-.88,2.235,2.235,0,0,1-.232-2.524,2.424,2.424,0,0,1,2.142-1.328" transform="translate(-4.948 -2.483)" fill="#a1d1f4"/>
      </g>
    </g>
  </g>
</svg>
