<svg xmlns="http://www.w3.org/2000/svg" xmlns:xlink="http://www.w3.org/1999/xlink" width="123" height="123" viewBox="0 0 123 123">
  <defs>
    <clipPath id="clip-path">
      <rect id="Rectángulo_38280" data-name="Rectángulo 38280" width="59.116" height="70.403" fill="none"/>
    </clipPath>
  </defs>
  <g id="Grupo_160985" data-name="Grupo 160985" transform="translate(-419.525 -1641.565)">
    <circle id="Elipse_4854" data-name="Elipse 4854" cx="61.5" cy="61.5" r="61.5" transform="translate(419.525 1641.565)" fill="#a6bbff"/>
    <g id="Grupo_161148" data-name="Grupo 161148" transform="translate(451.525 1667.565)">
      <g id="Grupo_161148-2" data-name="Grupo 161148" clip-path="url(#clip-path)">
        <path id="Trazado_140532" data-name="Trazado 140532" d="M7.273,4.676c-.161-.537-.1-1.051.444-1.288C10.241,2.3,12.656.941,15.359.3A2.753,2.753,0,0,0,16.506,0h2.749c.551.145,1.134.064,1.68.247A5.347,5.347,0,0,1,24.5,3.864a.94.94,0,0,0,1.077.769c2.68-.028,5.36-.024,8.04,0a.863.863,0,0,0,.986-.7A5.4,5.4,0,0,1,38.132.264C38.609.1,39.125.157,39.6,0h2.75a5.979,5.979,0,0,0,1.56.332,34.392,34.392,0,0,1,5.914,2.325c1.8.772,3.553,1.682,5.384,2.378,3.258,1.237,4.175,3.954,3.84,6.934a24.913,24.913,0,0,1-3.67,9.733,22.866,22.866,0,0,1-3.274,4.474,4.421,4.421,0,0,1-2.4,1.366c-.465.082-.553.331-.62.723-.542,3.13-1.07,6.263-1.666,9.383a17.343,17.343,0,0,1-2.583,6.3c-.166.253-.289.439-.037.762a33.319,33.319,0,0,1,5.932,13.275,51.412,51.412,0,0,1,1.235,11.1c.006.511-.072.961-.61,1.186-.679.284-1.23-.034-1.467-.85a1.106,1.106,0,0,1-.16-.722,57.322,57.322,0,0,0-.8-8.254A36.5,36.5,0,0,0,45.539,50.1a10.729,10.729,0,0,1-1.468,1.768,1.294,1.294,0,0,1-1.712.389,1.226,1.226,0,0,1-.246-.221,1.207,1.207,0,0,1,.154-1.78,19.47,19.47,0,0,0,1.546-1.837,1.4,1.4,0,0,0-.466-1.879c-.29-.155-.416.1-.568.244a20.973,20.973,0,0,1-2.288,2.071,18.436,18.436,0,0,1-22.507-.5c-.559-.442-1.024-.982-1.534-1.475-.532-.514-.586-.512-1.027.108-.239.335-.448.693-.692,1.024a.8.8,0,0,0,.144,1.2,19.844,19.844,0,0,0,9.506,5.368,20.4,20.4,0,0,0,12.795-.861c.509-.211.984-.49,1.491-.7.838-.35,1.288-.179,1.739.646.115.907,0,1.166-.883,1.635a19.484,19.484,0,0,1-6.579,2.084,10.209,10.209,0,0,1-1.639.155c-.342-.009-.49.159-.472.512.042.823.007,1.648.021,2.473,0,.253-.006.53.332.589a.647.647,0,0,0,.769-.3c.152-.282.276-.579.437-.856a4.021,4.021,0,0,1,7.179,3.607,1.467,1.467,0,0,0,0,1.3,3.924,3.924,0,0,1-.438,4.034,1.092,1.092,0,0,1-.631.5c-1.894,1.348-3.283,1.355-5.144.024a2.349,2.349,0,0,1-1.241-1.469.959.959,0,0,0-1.045-.671c-1.026.03-2.054.023-3.08,0a.885.885,0,0,0-.945.607,2.478,2.478,0,0,1-1.272,1.53c-1.861,1.332-3.259,1.326-5.143-.024-.424-.105-.613-.456-.813-.79a3.812,3.812,0,0,1-.278-3.682,1.546,1.546,0,0,0-.007-1.364,4.031,4.031,0,0,1,7.275-3.47c.159.252.251.541.421.788a.643.643,0,0,0,.737.227c.3-.064.3-.312.308-.542.011-.8,0-1.6,0-2.406,0-.426-.191-.6-.622-.631a22.631,22.631,0,0,1-13.2-5.377c-.247-.206-.471-.435-.7-.66-.564-.557-.6-.553-.915.147a33.864,33.864,0,0,0-1.634,4.448,44.061,44.061,0,0,0-1.683,10.35c-.037.821-.13,1.642-.125,2.466a.707.707,0,0,1-.152.515.991.991,0,0,1-1.125.951.978.978,0,0,1-.947-1.125c.076-7.3,1.282-14.336,4.762-20.855a22.83,22.83,0,0,1,2.352-3.618c.178-.221.309-.383.091-.7a20.54,20.54,0,0,1-3.091-8.635c-.388-2.439-.841-4.867-1.263-7.3-.049-.281-.107-.474-.476-.539a4.836,4.836,0,0,1-2.91-1.813,29.574,29.574,0,0,1-6.419-12.8A8.418,8.418,0,0,1,.392,8.491a5.074,5.074,0,0,1,2.381-2.9c.805-.458,1.175-.387,1.761.325A.862.862,0,0,1,4.3,7.239c-2.246,1.326-2.309,3.369-1.822,5.538A27.9,27.9,0,0,0,8.466,24.464a2.576,2.576,0,0,0,1.38.857A1.728,1.728,0,0,0,12.106,24c1.344-4.568,2.725-9.126,4.03-13.705a7.555,7.555,0,0,1,5.212-5.281c.926-.318,1-.5.4-1.318A3.986,3.986,0,0,0,18.4,2.251a12.286,12.286,0,0,0-5.382,1.208C11.639,4.066,10.263,4.69,8.88,5.3c-.85.374-1.348.162-1.606-.622" transform="translate(0)" fill="#060606"/>
        <path id="Trazado_140533" data-name="Trazado 140533" d="M9.427,6.816c.576.731.779.78,1.635.417,1.892-.8,3.716-1.774,5.67-2.425a9.731,9.731,0,0,1,5-.466,3.42,3.42,0,0,1,2.686,2c.23.517.156.734-.438.874a7.419,7.419,0,0,0-4.971,3.8,16.11,16.11,0,0,0-1.051,3.253c-1.185,3.961-2.4,7.913-3.492,11.9a2.077,2.077,0,0,1-3.211,1.192,4.952,4.952,0,0,1-1.365-1.339A28.474,28.474,0,0,1,4.439,14.9a7.149,7.149,0,0,1-.081-3.131A3.068,3.068,0,0,1,5.93,9.556a1.225,1.225,0,0,0,.758-1.5L9.427,6.816" transform="translate(-2.154 -2.14)" fill="#be7645"/>
        <path id="Trazado_140534" data-name="Trazado 140534" d="M18.888,122.187a43.169,43.169,0,0,1,3.843-18.779c.635.568,1.218,1.128,1.84,1.64a22.065,22.065,0,0,0,12.859,5.073c.593.039.791.209.753.809-.054.844,0,1.694-.02,2.541,0,.236.144.646-.313.6-.414-.044-.967.321-1.211-.367a4.023,4.023,0,0,0-2.9-2.764,3.581,3.581,0,0,0-3.85,1.352,3.679,3.679,0,0,0-.442,4.18.993.993,0,0,1,0,1.047c-.809,1.553-.51,3.122.826,4.653l-11.385.018" transform="translate(-9.641 -52.783)" fill="#f4a16a"/>
        <path id="Trazado_140535" data-name="Trazado 140535" d="M74.121,106.142l.136.13a7.874,7.874,0,0,1,1.174,2.751,45.823,45.823,0,0,1,1.936,10.489c.061.981.1,1.96.113,2.941.009.749.07.807.835.814.868.008,1.736-.012,2.6.011.272.007.612-.088.747.3l-11.267-.01a3.908,3.908,0,0,0,.7-4.9.568.568,0,0,1,.039-.619,3.891,3.891,0,0,0-2.782-5.787,4.017,4.017,0,0,0-4.265,2.637,1.142,1.142,0,0,1-1.405.571c-.2-.083-.18-.243-.18-.4,0-1.031.009-2.061-.012-3.091-.012-.6.435-.426.726-.445a20.489,20.489,0,0,0,8.2-2.269,1.164,1.164,0,0,0,.74-1.486c-.024-.065-.057-.158-.017-.2a5.916,5.916,0,0,1,1.98-1.443" transform="translate(-31.899 -54.179)" fill="#f4a16a"/>
        <path id="Trazado_140536" data-name="Trazado 140536" d="M93.932,121.339a16.894,16.894,0,0,0-3.2-.1c-1.386-.045-1.18.179-1.192-1.208a45.562,45.562,0,0,0-2.31-14c-.221-.669-.473-1.327-.711-1.991a1.149,1.149,0,0,0,1.578-.33c.541-.643,1.106-1.266,1.7-1.943a42.857,42.857,0,0,1,4.249,19.6.177.177,0,0,1-.118-.022" transform="translate(-44.164 -51.944)" fill="#e58d53"/>
        <path id="Trazado_140537" data-name="Trazado 140537" d="M52.648,139.379a4.686,4.686,0,0,0,1.235-1.934.418.418,0,0,1,.469-.366c1.391.017,2.784.012,4.175,0,.234,0,.376.048.445.3a4.715,4.715,0,0,0,1.258,2H52.648" transform="translate(-26.873 -69.97)" fill="#f3a16a"/>
        <path id="Trazado_140538" data-name="Trazado 140538" d="M52.263,48.186a9.891,9.891,0,0,0-5.691-3.815,9.694,9.694,0,0,0-2.453-.235,40.4,40.4,0,0,0-5.762.14,9.492,9.492,0,0,0-7.806,7.834,1.251,1.251,0,0,1-.064.187c-.3-.087-.436-.345-.608-.545A16.928,16.928,0,0,1,26.051,43.3c-.462-2.775-.954-5.545-1.456-8.314-.059-.328-.017-.485.286-.644a3.941,3.941,0,0,0,1.958-2.6c1.316-4.592,2.675-9.171,4.026-13.752a5.425,5.425,0,0,1,5.148-3.919q6.083-.053,12.166,0A5.148,5.148,0,0,1,52.3,16.067a32.4,32.4,0,0,1,.961,4.7c.431,2.246.848,4.5,1.066,6.776a62.561,62.561,0,0,1,.358,7.185,1.768,1.768,0,0,1-.025.342c-.033.152-.033.361-.217.389-.245.037-.234-.226-.328-.364a4.63,4.63,0,0,0-3.584-3.736,4.437,4.437,0,0,0-5.21,3.926,1.138,1.138,0,0,0,.24.965.817.817,0,0,0,1.357-.273,2.794,2.794,0,0,0,.127-.672,2.676,2.676,0,0,1,5.286-.121c.045.2.076.405.131.6a.844.844,0,0,0,1.316.583c.178-.087.32-.277.557-.2a2.754,2.754,0,0,1,.176,1.866c-.164,1.888-.354,3.774-.677,5.645a19.8,19.8,0,0,1-.965,3.638c-.126.335-.222.708-.609.868" transform="translate(-12.543 -7.168)" fill="#f4a16a"/>
        <path id="Trazado_140539" data-name="Trazado 140539" d="M79.345,4.233a12.887,12.887,0,0,1,5.1,1.2c2.731,1.226,5.444,2.5,8.214,3.63,2.146.877,2.983,2.27,2.633,4.947a24.867,24.867,0,0,1-3.969,9.769,20.12,20.12,0,0,1-2.076,2.813,2.894,2.894,0,0,1-2.035,1.142,1.791,1.791,0,0,1-2-1.4q-1.727-5.812-3.439-11.63c-.22-.745-.455-1.485-.661-2.233a7.169,7.169,0,0,0-5.466-5.221c-.649-.175-.682-.4-.444-.925C75.9,4.8,77.232,4.386,78.727,4.236c.2-.021.412,0,.618,0" transform="translate(-38.317 -2.157)" fill="#be7645"/>
        <path id="Trazado_140540" data-name="Trazado 140540" d="M83.105,37.048l.234.477a61.669,61.669,0,0,0-.228-6.317c-.122-1.609-.3-3.2-.58-4.791-.389-2.231-.789-4.461-1.166-6.695a5.32,5.32,0,0,1-.194-1.547,3.3,3.3,0,0,1,.939,1.561c1.407,4.776,2.831,9.546,4.213,14.329a3.834,3.834,0,0,0,1.836,2.366c.215.125.436.188.364.548-.711,3.585-1.125,7.228-2.032,10.773a15.311,15.311,0,0,1-3.464,6.319c-.071.081-.131.2-.32.161A10.706,10.706,0,0,0,81.134,50.3a16.562,16.562,0,0,0,1.5-5.28,44.229,44.229,0,0,0,.58-6.085c0-.219.075-.462-.128-.644a.94.94,0,0,1,.021-1.239" transform="translate(-41.414 -9.278)" fill="#e58d53"/>
        <path id="Trazado_140541" data-name="Trazado 140541" d="M57.136,100.036c-.6.615-1.411.969-1.963,1.639-.583-.724-.851-.78-1.7-.356a20.728,20.728,0,0,1-23.836-3.945c-.51-.516-.555-.871-.133-1.421.443-.577.789-1.227,1.283-1.773a18.26,18.26,0,0,0,27.365.018.6.6,0,0,1,.151.116c1.276,1.882,1.361,1.166-.038,3.057a8.131,8.131,0,0,1-.911,1.027,1.124,1.124,0,0,0-.22,1.639" transform="translate(-14.914 -48.073)" fill="#f44c5a"/>
        <path id="Trazado_140542" data-name="Trazado 140542" d="M43.853,129.018a1.856,1.856,0,0,1,.484-1.163c.805-.916.8-1.047-.019-2.007a1.758,1.758,0,0,1-.43-1.529,1.847,1.847,0,0,1,1.807-1.574,2.111,2.111,0,0,1,1.823,1.855c.128,1.247.314,1.415,1.577,1.415q2.92,0,5.84,0c1.1,0,1.354-.241,1.445-1.339a2.048,2.048,0,0,1,1.91-1.9,2,2,0,0,1,1.777,2.011,1.787,1.787,0,0,1-.6,1.19c-.657.679-.654,1.068-.02,1.759a1.853,1.853,0,0,1,.388,2.311,1.827,1.827,0,0,1-2.025.8,2.036,2.036,0,0,1-1.427-1.892c-.054-.908-.367-1.235-1.268-1.241q-3.161-.02-6.321,0c-.919.006-1.2.321-1.27,1.307a2.059,2.059,0,0,1-1.924,1.959,1.911,1.911,0,0,1-1.744-1.96" transform="translate(-22.384 -62.653)" fill="#f2f2fe"/>
        <path id="Trazado_140543" data-name="Trazado 140543" d="M66.669,81.031a7.427,7.427,0,0,1,4.577,6.963.589.589,0,0,1-.308.491,16.281,16.281,0,0,1-7.966,3.05c-.393.043-.532-.07-.5-.471a10.434,10.434,0,0,0,0-1.372c-.056-.9-.077-1.744.977-2.18.364-.15.556-.589.76-.951.606-1.074,1.21-2.149,1.837-3.21a3.588,3.588,0,0,0,.625-2.319" transform="translate(-31.877 -41.361)" fill="#fef2a6"/>
        <path id="Trazado_140544" data-name="Trazado 140544" d="M45.09,81.151a3.781,3.781,0,0,0,.663,2.308c.62,1.04,1.214,2.1,1.8,3.154A3.11,3.11,0,0,0,48.931,88a.544.544,0,0,1,.366.576c-.016.869-.025,1.74,0,2.61.013.411-.178.442-.5.407a16.123,16.123,0,0,1-7.857-2.971.6.6,0,0,1-.266-.509,7.506,7.506,0,0,1,4.411-6.963" transform="translate(-20.759 -41.422)" fill="#fef2a6"/>
        <path id="Trazado_140545" data-name="Trazado 140545" d="M57.151,79.721c.686,0,1.372-.015,2.058,0a.975.975,0,0,1,.91,1.517c-.658,1.227-1.343,2.442-2.068,3.631a1.044,1.044,0,0,1-1.94-.025q-.966-1.657-1.9-3.332c-.61-1.089-.208-1.786,1.022-1.8.64,0,1.28,0,1.921,0" transform="translate(-27.526 -40.69)" fill="#be7545"/>
        <path id="Trazado_140546" data-name="Trazado 140546" d="M40.147,48.865a4.594,4.594,0,0,1,4.536,4.5,1,1,0,0,1-.942,1.124,1.025,1.025,0,0,1-1.116-1.041,2.53,2.53,0,0,0-2.476-2.518,2.474,2.474,0,0,0-2.537,2.446,1.108,1.108,0,0,1-1.2,1.107c-.633-.09-.934-.546-.868-1.324a4.594,4.594,0,0,1,4.6-4.292" transform="translate(-18.14 -24.942)" fill="#060606"/>
        <path id="Trazado_140547" data-name="Trazado 140547" d="M75.67,52.7l-.021,1.239a1.108,1.108,0,0,1-1.248.491c-.55-.153-.688-.571-.751-1.094a2.514,2.514,0,0,0-5.025.1,1.025,1.025,0,0,1-1.118,1.033,1,1,0,0,1-.94-1.123,4.569,4.569,0,0,1,8.926-1.311c.07.217.118.441.177.661" transform="translate(-33.978 -24.926)" fill="#060606"/>
      </g>
    </g>
  </g>
</svg>
