<svg xmlns="http://www.w3.org/2000/svg" xmlns:xlink="http://www.w3.org/1999/xlink" width="123" height="123" viewBox="0 0 123 123">
  <defs>
    <clipPath id="clip-path">
      <rect id="Rectángulo_38278" data-name="Rectángulo 38278" width="86.936" height="67.574" fill="none"/>
    </clipPath>
  </defs>
  <g id="Grupo_160980" data-name="Grupo 160980" transform="translate(-419.516 -1641.565)">
    <circle id="Elipse_4854" data-name="Elipse 4854" cx="61.5" cy="61.5" r="61.5" transform="translate(419.516 1641.565)" fill="#a6bbff"/>
    <g id="Grupo_161146" data-name="Grupo 161146" transform="translate(438.516 1669.565)">
      <g id="Grupo_161146-2" data-name="Grupo 161146" clip-path="url(#clip-path)">
        <path id="Trazado_140496" data-name="Trazado 140496" d="M79.869,47.886c1.042.286,1.041,1.173,1.048,1.974,0,.62.192.779.8.83a5.923,5.923,0,0,1,5.022,4.378c.049.18-.015.405.193.529v1.868a10.02,10.02,0,0,1-.855,2.2,5.921,5.921,0,0,1-4.982,2.9c-.243.01-.488,0-.768,0,2.786,4.826-.825,10.08-6.264,9.467a14.623,14.623,0,0,1,.817,2.092A5.975,5.975,0,0,1,68.894,81.4q-14.77.027-29.541.006-8.191,0-16.383,0a19.8,19.8,0,0,1-12.309-4.1A10.3,10.3,0,0,0,4.047,75.1c-.877.017-1.755.022-2.631,0a1.287,1.287,0,0,1-1.41-1.437q-.011-12.35,0-24.7c0-.995.493-1.424,1.566-1.454a28.75,28.75,0,0,0,4.655-.188,9.891,9.891,0,0,0,4.009-1.725,32.679,32.679,0,0,1,2.747-1.835A1.389,1.389,0,0,1,15,44.049c.448.685.457,1.353-.187,1.78-2.393,1.585-4.607,3.5-7.534,4.136a16.327,16.327,0,0,1-3.457.281c-.948,0-1.027.079-1.028,1.01q-.007,10.015,0,20.03c0,.975.073,1.065,1.083,1.036a13.02,13.02,0,0,1,8.529,2.8,17.029,17.029,0,0,0,2.144,1.37,15.957,15.957,0,0,0,7.7,2.084c11.14.049,22.281.024,33.421.017,2.387,0,3.832-1.431,3.643-3.558a3.048,3.048,0,0,0-2.721-2.7c-.818-.058-1.64,0-2.46-.028-4.01.032-8.02.014-12.031.01a3.315,3.315,0,0,1-.839-.1,1.657,1.657,0,0,1-1.324-1.374c-.073-.664.274-1.163,1.065-1.534a8.238,8.238,0,0,1,1.184-.034c6.384.013,12.768-.024,19.152-.023a4.978,4.978,0,0,0,2.855-.629,3.069,3.069,0,0,0,1.315-3.476,3.157,3.157,0,0,0-2.834-2.313c-.76-.077-1.525-.007-2.287-.038-2.455.041-4.909.014-7.363.014a2.785,2.785,0,0,1-.506-.04,1.531,1.531,0,0,1-1.307-1.446,1.5,1.5,0,0,1,1.154-1.483,3.691,3.691,0,0,1,1.092-.1c1.946.009,3.893-.029,5.837.018,2.9,0,5.806.027,8.708-.008a3.107,3.107,0,0,0,3.21-3.6,3.009,3.009,0,0,0-2.72-2.677c-.815-.056-1.634,0-2.452-.021q-11.884.017-23.768,0a2.809,2.809,0,0,1-1.558-.322,1.393,1.393,0,0,1-.768-1.48,1.441,1.441,0,0,1,1.336-1.215,8.926,8.926,0,0,1,1.018-.023q9.507,0,19.014,0a7.692,7.692,0,0,0,1.937-.189,3.156,3.156,0,0,0,.3-6.022,5.441,5.441,0,0,0-1.922-.26q-11.969,0-23.938,0c-.311,0-.623.008-.934-.007A1.549,1.549,0,0,1,35.177,42.8a1.514,1.514,0,0,1,.8-1.711c.709-.468,1.465-.858,2.2-1.284.9-.527,1.836-1.008,2.71-1.587a3.13,3.13,0,0,0,1.182-4.334A3.2,3.2,0,0,0,37.562,32.8q-8.417,4.858-16.834,9.715a5.268,5.268,0,0,1-1.21.608,1.222,1.222,0,0,1-1.65-.961,1.485,1.485,0,0,1,.881-1.727c5.824-3.346,11.628-6.727,17.455-10.066a5.891,5.891,0,0,1,8.262,2.048c.268.415.433.342.762.147,1.214-.719,2.442-1.414,3.666-2.116a5.9,5.9,0,0,1,7.163.486,1.1,1.1,0,0,0,.849.237,10.071,10.071,0,0,1,5.364.919c.428.21.652.024.966-.189a7.418,7.418,0,0,1,11.719,6.716.808.808,0,0,0,.421.816,13.28,13.28,0,0,1,2.906,2.949c.669.93.657,1.293-.065,2.166a1.127,1.127,0,0,1-1.76-.114,37.51,37.51,0,0,0-3.532-3.5,2.525,2.525,0,0,1-.728-2.4,4.659,4.659,0,0,0-5.54-5.169,4.506,4.506,0,0,0-2.043.982,2.933,2.933,0,0,1-3.4.343,7.491,7.491,0,0,0-9.45,2.383,7,7,0,0,0-1.2,2.691c-.258,1.111-.213,1.167.907,1.168q4.709,0,9.418,0a13.6,13.6,0,0,1,2.954.206,6.179,6.179,0,0,1,4.327,8.528c-.328.736-.328.742.433.775a5.8,5.8,0,0,1,3.28,1.235A6.313,6.313,0,0,1,73.5,59.665,10.793,10.793,0,0,0,78.033,52.2a9.723,9.723,0,0,0,.092-2.78c-.156-1.056.526-1.6,1.744-1.531" transform="translate(0 -13.833)"/>
        <path id="Trazado_140497" data-name="Trazado 140497" d="M43.386,71.745a1.225,1.225,0,0,0-.979,1.456c.135.807.729,1.073,1.488,1.072q5.748,0,11.5,0c.336,0,.672.035,1.007.054a2.525,2.525,0,0,1-.512,2.527A4.735,4.735,0,0,1,51.728,79.2q-16.785-.016-33.57,0a5.693,5.693,0,0,1-1.5-.248,8.266,8.266,0,0,1-2.076-1.289,12.937,12.937,0,0,0-8.66-2.835c-1.136.033-1.137,0-1.137-1.168,0-6.84.011-13.68-.017-20.519,0-.684.191-.855.845-.822a13.2,13.2,0,0,0,9.2-2.994,14.652,14.652,0,0,1,1.635-1.052c.934-.563,1.069-.878.788-1.945.773-.432,1.553-.856,2.317-1.3.229-.134.509-.255.547-.583.684.954,1.155,1.059,2.211.45Q31.012,39.878,39.7,34.86a3.432,3.432,0,1,1,3.545,5.874c-1.553.923-3.122,1.819-4.694,2.71-.636.36-1.147.789-.94,1.6.216.847.876.979,1.654.978q12.605-.019,25.211,0a3.444,3.444,0,0,1,3.267,5.092,3.574,3.574,0,0,1-3.41,1.805c-4.216-.01-8.432,0-12.648,0-2.66,0-5.319-.008-7.979.007a1.249,1.249,0,0,0-1.338,1.232,1.317,1.317,0,0,0,1.223,1.29,3.407,3.407,0,0,0,.423.016c.2,0,.4,0,.594,0q11.333,0,22.665,0c.338,0,.676.027,1.014.041.453,1.072-.126,1.926-.685,2.706a4.908,4.908,0,0,1-3.5,2.125c-.251.03-.5.1-.749.128A1.489,1.489,0,0,0,61.9,61.749a.752.752,0,0,1-.254.516c-2.146.011-4.292.03-6.437.029a1.419,1.419,0,0,0-1.421.721,1.261,1.261,0,0,0,1.267,1.824c2.287.017,4.575,0,6.863.007.254,0,.507.018.761.028.278.293.172.635.111.964A5,5,0,0,1,58.355,69.8,2.478,2.478,0,0,0,55.95,71.34c-.183.466-.579.37-.936.371q-5.391,0-10.782,0a3.893,3.893,0,0,0-.846.03" transform="translate(-2.24 -16.114)" fill="#fecbbb"/>
        <path id="Trazado_140498" data-name="Trazado 140498" d="M125.7,36.324a4.8,4.8,0,0,1,5.706,5.241,2.781,2.781,0,0,0,1.278,2.97,9.871,9.871,0,0,1,2.553,2.571,1.435,1.435,0,0,0,1.96.608,14.817,14.817,0,0,1,1.057,2.882c.074.408.436.263.6.456-1.247.071-1.645.537-1.518,1.779a11.278,11.278,0,0,1-5.381,10.579c1.777-3.154,1.488-5.936-1.123-8.366.067-.651.333-1.253.462-1.889A12.093,12.093,0,0,0,126.872,40.6a2.728,2.728,0,0,1-1.223-2.586c.062-.56-.05-1.13.056-1.691" transform="translate(-58.985 -16.998)" fill="#64b4f5"/>
        <path id="Trazado_140499" data-name="Trazado 140499" d="M134.344,18.452a5.444,5.444,0,0,1,10.889-.008,5.444,5.444,0,1,1-10.889.008" transform="translate(-63.077 -6.112)"/>
        <path id="Trazado_140500" data-name="Trazado 140500" d="M128.588,4.523A4.381,4.381,0,0,1,124.1,8.859a4.43,4.43,0,1,1,4.485-4.337" transform="translate(-56.214 0)"/>
        <path id="Trazado_140501" data-name="Trazado 140501" d="M111.125,36.431a4.629,4.629,0,0,1,.162,2.239,1.667,1.667,0,0,0,.719,1.5,12.444,12.444,0,0,1,5.2,8.752,12.622,12.622,0,0,1-.655,5.828,1.712,1.712,0,0,1-.3.4,6.36,6.36,0,0,0-4.373-1.23,8.731,8.731,0,0,0,.963-2.759,5.98,5.98,0,0,0-6.082-6.7c-3.788-.025-7.576-.031-11.363.014-.808.01-.895-.207-.78-.944A7.77,7.77,0,0,1,105.405,37.6c1.436.652,2.6.7,3.791-.395a2.97,2.97,0,0,1,1.928-.776" transform="translate(-44.405 -17.105)" fill="#baddfa"/>
        <path id="Trazado_140502" data-name="Trazado 140502" d="M27.184,114.323c11.61,0,23.221-.043,34.831.031a4.879,4.879,0,0,0,4.908-4.654c.761-.013,1.525-.073,2.283-.029a3.346,3.346,0,0,1,3.183,3.415,3.414,3.414,0,0,1-3.208,3.415c-.169.012-.34.007-.509.007q-16.539,0-33.078-.006a16.232,16.232,0,0,1-8.41-2.178" transform="translate(-12.763 -51.484)" fill="#fe8a65"/>
        <path id="Trazado_140503" data-name="Trazado 140503" d="M115.269,116.49a6.257,6.257,0,0,0,.015-6.857c1.282,0,2.406,0,3.53,0,1.5,0,3-.034,4.495.021a3.414,3.414,0,0,1-.02,6.824c-2.628.045-5.257.011-8.02.011" transform="translate(-54.121 -51.47)" fill="#fe8965"/>
        <path id="Trazado_140504" data-name="Trazado 140504" d="M131.782,98.664c-1.475,0-2.693-.011-3.909.005-.507.007-.587-.119-.326-.572a5.788,5.788,0,0,0,.631-4.018c-.063-.356.019-.432.34-.474a19.628,19.628,0,0,0,5.221-1.655,3.392,3.392,0,0,1,3.643.685,3.406,3.406,0,0,1-1.621,5.936,31.07,31.07,0,0,1-3.979.093" transform="translate(-59.817 -43.048)" fill="#fe8965"/>
        <path id="Trazado_140505" data-name="Trazado 140505" d="M77.563,98.744c.274-.227.6-.114.9-.115q5.3-.014,10.606,0c.449,0,.732-.023.92-.58a2.114,2.114,0,0,1,2.079-1.456,4.779,4.779,0,0,0,4.787-4.719,10.492,10.492,0,0,1,2.953.113,3.414,3.414,0,0,1-.349,6.669,5.49,5.49,0,0,1-.844.071q-10.525.013-21.051.017" transform="translate(-36.417 -43.113)" fill="#fe8964"/>
        <path id="Trazado_140506" data-name="Trazado 140506" d="M111.98,80.977c.045-1.4.423-1.87,1.822-2.029a5.15,5.15,0,0,0,4.43-2.934,3.854,3.854,0,0,0,.394-1.8c.788-.01,1.579-.064,2.365-.021a3.409,3.409,0,0,1-.043,6.8c-2.989.041-5.979,0-8.968-.014" transform="translate(-52.576 -34.827)" fill="#fe8965"/>
        <path id="Trazado_140507" data-name="Trazado 140507" d="M89.86,34.518a13.684,13.684,0,0,0-2.274,1.641,10.189,10.189,0,0,0-3.235,6.61c-.049.526-.206.706-.756.693-1.719-.038-3.439-.014-5.392-.014.411-.271.647-.43.888-.583a5.9,5.9,0,0,0,2.928-4.692.792.792,0,0,1,.451-.721c1.571-.886,3.123-1.808,4.7-2.692a2.807,2.807,0,0,1,2.695-.243" transform="translate(-36.717 -16.096)" fill="#fe8965"/>
        <path id="Trazado_140508" data-name="Trazado 140508" d="M145.69,81a14.079,14.079,0,0,0,3.334-6.458c.1-.482.416-.369.7-.352a3.413,3.413,0,0,1-.114,6.8c-1.236.051-2.475.01-3.925.01" transform="translate(-68.404 -34.822)" fill="#fe8965"/>
        <path id="Trazado_140509" data-name="Trazado 140509" d="M79.541,89.6c-.847,0-1.694.014-2.54,0a1.269,1.269,0,1,1,0-2.532q2.582-.036,5.164,0a1.269,1.269,0,1,1,0,2.533c-.875.018-1.75,0-2.625,0" transform="translate(-35.517 -40.868)"/>
        <path id="Trazado_140510" data-name="Trazado 140510" d="M139.145,20.687a2.84,2.84,0,0,1,2.923-2.867,2.893,2.893,0,0,1,2.87,2.86,2.952,2.952,0,0,1-2.905,2.935,2.9,2.9,0,0,1-2.888-2.928" transform="translate(-65.331 -8.367)" fill="#baddfa"/>
        <path id="Trazado_140511" data-name="Trazado 140511" d="M126.457,8.567a1.881,1.881,0,0,1-1.925-1.837,1.915,1.915,0,0,1,1.855-1.924,1.873,1.873,0,0,1,1.906,1.853,1.84,1.84,0,0,1-1.836,1.908" transform="translate(-58.47 -2.256)" fill="#baddf9"/>
      </g>
    </g>
  </g>
</svg>
