<svg xmlns="http://www.w3.org/2000/svg" xmlns:xlink="http://www.w3.org/1999/xlink" width="189" height="122" viewBox="0 0 189 122">
  <defs>
    <clipPath id="clip-path">
      <rect id="Rect치ngulo_38281" data-name="Rect치ngulo 38281" width="57.134" height="93.822" fill="none"/>
    </clipPath>
  </defs>
  <g id="Grupo_158880" data-name="Grupo 158880" transform="translate(-600 -8276)">
    <rect id="Rect치ngulo_37701" data-name="Rect치ngulo 37701" width="189" height="122" transform="translate(600 8276)" fill="#a6bbff"/>
    <g id="Grupo_161149" data-name="Grupo 161149" transform="translate(666 8290)">
      <g id="Grupo_161149-2" data-name="Grupo 161149" clip-path="url(#clip-path)">
        <path id="Trazado_140548" data-name="Trazado 140548" d="M48.9,0A4.384,4.384,0,0,1,52.18,4.849c-.027.42.178.544.532.7a6.909,6.909,0,0,1,4.414,6.756q.018,34.629,0,69.258a6.852,6.852,0,0,1-4.378,6.683.8.8,0,0,0-.569.867c-.054,3.232-1.579,4.706-4.83,4.706q-18.32,0-36.641,0c-2.928,0-4.542-1.546-4.606-4.467-.011-.5-.174-.647-.628-.769A6.973,6.973,0,0,1,0,81.423Q0,46.931,0,12.44A7,7,0,0,1,5.516,5.213c.35-.1.6-.134.577-.612A4.335,4.335,0,0,1,9.327,0Z" transform="translate(0)"/>
        <path id="Trazado_140549" data-name="Trazado 140549" d="M18.421,86.67a1.513,1.513,0,0,0-1.389-1.377c-1.129-.043-2.261-.063-3.386,0-.8.045-1.034-.314-1.038-1.006,0-.274-.009-.549-.009-.824q0-27.427.006-54.855a2.438,2.438,0,0,1,.274-1.677c2.348-.011,4.7-.03,7.045-.031q11.348-.006,22.7,0c1.281,0,1.582-.224,1.977-1.437a2.846,2.846,0,0,1,2.719,0c.311,1.146.672,1.431,1.87,1.433,2.869,0,5.74.029,8.608-.018.717-.011.844.215.843.875q-.026,28.348,0,56.7c0,.761-.253.888-.936.886q-17.31-.029-34.619-.013c-1.292,0-1.55.187-1.934,1.35a3.23,3.23,0,0,1-2.73,0" transform="translate(-4.303 -8.588)" fill="#fecc95"/>
        <path id="Trazado_140550" data-name="Trazado 140550" d="M47.309,20.944l-2.719,0a1.683,1.683,0,0,0-1.369-1.411c-7.771.047-15.543.007-23.314.02q-3.108,0-6.217,0c-.936,0-1.044-.091-1.075-1.038a22.447,22.447,0,0,1,.018-3.107,4.078,4.078,0,0,1,1.919-3.434c.3-.012.609-.034.913-.034,12.788,0,25.578.041,38.365-.037,2.581-.016,4.95,1.594,4.8,4.824a12.739,12.739,0,0,0,.009,1.922c.086.8-.258.954-.986.944-2.838-.038-5.677-.02-8.515-.012-1.2,0-1.476.223-1.826,1.367" transform="translate(-4.298 -4.069)" fill="#fe6243"/>
        <path id="Trazado_140551" data-name="Trazado 140551" d="M10.023,27.844q0,28.526,0,57.052c0,1.216,0,1.2,1.246,1.223a15.528,15.528,0,0,1,2.905.087c-3.113.011-6.225.014-9.338.038-.442,0-.615-.158-.582-.586.014-.182,0-.366,0-.549q0-28.121-.023-56.243c0-.92.265-1.117,1.119-1.073,1.553.08,3.111.041,4.668.052" transform="translate(-1.448 -9.501)" fill="#fea633"/>
        <path id="Trazado_140552" data-name="Trazado 140552" d="M18.413,118.654l2.73,0c.365,1.215.665,1.439,1.965,1.439q17.22,0,34.439-.021c.885,0,1.221.211,1.085,1.1-.06.389,0,.794-.025,1.189a4.151,4.151,0,0,1-4.4,4.162q-14.152.013-28.3,0c-3.785,0-7.57-.022-11.356-.034a3.421,3.421,0,0,1-1.706-2.453,6.593,6.593,0,0,1,.032-3.912l3.712-.031c1.171-.011,1.539-.3,1.825-1.443" transform="translate(-4.296 -40.572)" fill="#fe6243"/>
        <path id="Trazado_140553" data-name="Trazado 140553" d="M55.854,4.378c.928.4,1.1.823.848,2.037a1.591,1.591,0,0,1-.895.09q-16.39.007-32.78,0c-1.107,0-1.46-.472-1.152-1.525.124-.425.353-.7.842-.669.152.011.305,0,.458,0q15.932,0,31.864,0a2.106,2.106,0,0,1,.815.061" transform="translate(-7.443 -1.473)" fill="#c3c2c7"/>
        <path id="Trazado_140554" data-name="Trazado 140554" d="M56.721,135.01c.254,1.212.079,1.631-.849,2.036a1.76,1.76,0,0,1-.724.061q-16.023,0-32.047,0c-.964,0-1.235-.243-1.273-1.119-.037-.856.163-1.071,1.035-1.072q16.572,0,33.145,0a1.142,1.142,0,0,1,.712.092" transform="translate(-7.463 -46.129)" fill="#c3c2c7"/>
        <path id="Trazado_140555" data-name="Trazado 140555" d="M11.7,11.991A6.83,6.83,0,0,0,10,17.383c.1,2.1.022,2.108,2.114,2.108q13.627,0,27.254,0c.332,0,.665.038,1,.057-.274.017-.546.049-.819.049q-17.12,0-34.241.014c-.805,0-1.165-.157-1.079-1.043.1-1,0-2.018.109-3.015A4.038,4.038,0,0,1,8.31,11.966c1.128-.023,2.256.014,3.385.024" transform="translate(-1.441 -4.089)" fill="#fe3501"/>
        <path id="Trazado_140556" data-name="Trazado 140556" d="M10,120.879a16.184,16.184,0,0,1,0,1.638,5.975,5.975,0,0,0,1.678,4.727c-1.156.009-2.313.051-3.468.02A4.091,4.091,0,0,1,4.29,123.61c-.32-2.761-.32-2.764,2.422-2.76,1.1,0,2.191.019,3.286.029" transform="translate(-1.418 -41.323)" fill="#fe3501"/>
        <path id="Trazado_140557" data-name="Trazado 140557" d="M53.026,4.343c-.4.013-.792.036-1.188.036q-15.7,0-31.392-.007c-.693,0-1.165.066-1.208.934-.041.817.177,1.083,1.048,1.081q16.794-.04,33.589-.007c-.321.27-.7.126-1.05.126q-19.085,0-38.17-.031c-.365,0-.967.37-1.114-.379a1.413,1.413,0,0,1,.9-1.773,2.858,2.858,0,0,1,.811-.089q18.49-.015,36.98-.017c.267,0,.553-.07.792.126" transform="translate(-4.615 -1.438)" fill="#abaab0"/>
        <path id="Trazado_140558" data-name="Trazado 140558" d="M53.888,134.981l-33.588.013c-1.07,0-1.108.061-1.033,1.15.041.6.29.9.918.838a6.3,6.3,0,0,1,.64,0q15.513,0,31.026,0c.4,0,.792.024,1.188.036-.24.2-.525.127-.792.127q-18.49,0-36.98-.016c-1.271,0-1.71-.444-1.728-1.591-.008-.515.147-.688.672-.682,1.891.02,3.783-.008,5.674-.008q16.567,0,33.135.005c.288,0,.611-.127.867.128" transform="translate(-4.629 -46.101)" fill="#abaab0"/>
        <path id="Trazado_140559" data-name="Trazado 140559" d="M45.284,37.03c.557-1.066.934-1.256,2.036-.96.94.253,1.887.5,2.8.827a1.413,1.413,0,0,1,.693,2.4,25.468,25.468,0,0,1-6.425,6.267c5.789,4.228,8.834,9.858,8.582,17.058a18.439,18.439,0,0,1-6.3,13.457A19.43,19.43,0,1,1,23.141,45.34a22.228,22.228,0,0,1-6.664-8.334,2.157,2.157,0,0,1-.34-1.3,1.276,1.276,0,0,1,1.117-1.174c3.96-.6,7.9-.785,11.69.871A16.172,16.172,0,0,1,32.2,37.479c.1-1.349.195-2.583.287-3.817.057-.761.1-1.523.172-2.282a1.342,1.342,0,0,1,1.51-1.347,1.321,1.321,0,0,1,1.25,1.506c-.059,1.4-.178,2.8-.273,4.2-.03.447-.066.894-.109,1.466a14.279,14.279,0,0,1,4.971-1.789c1.644-.257,2.112-.019,2.556,1.3a1.369,1.369,0,0,1-1.387,1.619,13.168,13.168,0,0,0-3.1.782,6.338,6.338,0,0,0-2.364,1.527,2.148,2.148,0,0,0-.69,2.241A2.306,2.306,0,0,0,36.8,44.3a5.832,5.832,0,0,0,2.893-.126c2.848-.624,4.962-2.389,6.871-4.466.4-.44.236-.625-.264-.823-1.091-.432-1.308-.882-1.014-1.858" transform="translate(-4.838 -10.268)"/>
        <path id="Trazado_140560" data-name="Trazado 140560" d="M55.943,40.5c-.09,1.113.554,1.624,1.536,1.794.6.1.552.3.218.683-2.31,2.624-4.9,4.761-8.567,5.134a5.27,5.27,0,0,1-2.079-.192,2.26,2.26,0,0,1-1.021-3.851,8.349,8.349,0,0,1,4.4-2.274,4.268,4.268,0,0,1,1.081-.174,1.58,1.58,0,0,0,1.709-1.437l2.722.318" transform="translate(-15.498 -13.741)" fill="#00b839"/>
        <path id="Trazado_140561" data-name="Trazado 140561" d="M18.367,69.506a16.5,16.5,0,0,1,8.613-14.12,1.9,1.9,0,0,1,1.548-.226A6,6,0,0,0,34.3,54.115c.183-.157.307-.243.527-.047,2.1,1.872,4.551,1.79,7.073,1.229a1.732,1.732,0,0,1,1.379.2,19.263,19.263,0,0,1,3.8,2.99c.388.4.494.625-.061,1.019Q34.073,68.694,21.164,77.93c-.472.338-.626.2-.857-.242a17.64,17.64,0,0,1-1.941-8.182" transform="translate(-6.28 -18.449)" fill="#fe9711"/>
        <path id="Trazado_140562" data-name="Trazado 140562" d="M51.369,65.2a15.731,15.731,0,0,1,1.476,13.848c-2.333,6.39-6.868,10.414-13.709,11.278-5.628.711-10.425-1.277-14.337-5.391-.363-.383-.373-.608.1-.9.623-.382,1.171-1.091,1.814-1.175s1.019.832,1.561,1.256c4.115,3.221,8.671,4.178,13.571,2.293,4.952-1.905,7.805-5.672,8.684-10.9a12.636,12.636,0,0,0-1.364-7.974c-.227-.447-.211-.676.22-.947.667-.42,1.294-.9,1.987-1.391" transform="translate(-8.389 -22.295)" fill="#fea633"/>
        <path id="Trazado_140563" data-name="Trazado 140563" d="M22.584,40.625c3.2-.122,6.244-.272,9.006,1.426a7.963,7.963,0,0,1,2.4,2.083,2.339,2.339,0,0,1,.341,2.724,2.53,2.53,0,0,1-2.681,1.167,10.023,10.023,0,0,1-6.818-4.017,20.051,20.051,0,0,1-2.245-3.384" transform="translate(-7.722 -13.868)" fill="#00b839"/>
        <path id="Trazado_140564" data-name="Trazado 140564" d="M37.9,82.777c-.159,2.365-.324,4.728-.469,7.091-.027.443-.274.4-.555.322a10.774,10.774,0,0,1-4.891-2.719c-.257-.251-.38-.434,0-.7,1.9-1.324,3.781-2.668,5.672-4,.038-.026.114,0,.238.009" transform="translate(-10.856 -28.298)" fill="#ed8600"/>
        <path id="Trazado_140565" data-name="Trazado 140565" d="M48.273,81.079c2.347.388,4.508.748,6.669,1.1.38.061.536.206.384.607A11.126,11.126,0,0,1,52.86,86.7c-.2.2-.361.317-.576.012-1.3-1.835-2.607-3.665-4.01-5.636" transform="translate(-16.506 -27.724)" fill="#ed8600"/>
        <path id="Trazado_140566" data-name="Trazado 140566" d="M48.973,74.728c1.985-1.416,3.751-2.663,5.5-3.935.363-.263.534-.257.721.177a10.8,10.8,0,0,1,.978,4.341c0,.338-.011.613-.484.533-2.16-.366-4.323-.72-6.715-1.116" transform="translate(-16.746 -24.146)" fill="#ec8600"/>
        <path id="Trazado_140567" data-name="Trazado 140567" d="M48.978,89.858a9.41,9.41,0,0,1-3.75,1.2c-.242.027-.6.147-.572-.33.126-2,.257-4.008.583-6.1l3.739,5.224" transform="translate(-15.269 -28.94)" fill="#ec8600"/>
        <path id="Trazado_140568" data-name="Trazado 140568" d="M25.845,69.376a1.036,1.036,0,0,1-1.1-1.086,1.01,1.01,0,0,1,1.073-1.113,1.023,1.023,0,0,1,1.114,1.082,1.044,1.044,0,0,1-1.086,1.118" transform="translate(-8.461 -22.97)" fill="#040200"/>
        <path id="Trazado_140569" data-name="Trazado 140569" d="M31.914,69.375a1.03,1.03,0,0,1-1.052-1.114,1.006,1.006,0,0,1,1.1-1.084,1.02,1.02,0,0,1,1.085,1.109,1.047,1.047,0,0,1-1.134,1.089" transform="translate(-10.553 -22.97)" fill="#040300"/>
        <path id="Trazado_140570" data-name="Trazado 140570" d="M27.777,72.872a1.037,1.037,0,0,1,1.059-1.153,1.094,1.094,0,1,1-1.059,1.153" transform="translate(-9.498 -24.523)" fill="#020100"/>
      </g>
    </g>
  </g>
</svg>
