<svg xmlns="http://www.w3.org/2000/svg" xmlns:xlink="http://www.w3.org/1999/xlink" width="189" height="122" viewBox="0 0 189 122">
  <defs>
    <clipPath id="clip-path">
      <rect id="Rect치ngulo_38284" data-name="Rect치ngulo 38284" width="81.806" height="100.923" fill="none"/>
    </clipPath>
  </defs>
  <g id="Grupo_160995" data-name="Grupo 160995" transform="translate(-600 -8276)">
    <rect id="Rect치ngulo_37701" data-name="Rect치ngulo 37701" width="189" height="122" transform="translate(600 8276)" fill="#a6bbff"/>
    <g id="Grupo_161151" data-name="Grupo 161151" transform="translate(654 8287)">
      <g id="Grupo_161151-2" data-name="Grupo 161151" clip-path="url(#clip-path)">
        <path id="Trazado_140595" data-name="Trazado 140595" d="M65.34,9.183A4.225,4.225,0,0,1,68.5,13.856c-.026.405.172.524.513.676a6.658,6.658,0,0,1,4.253,6.512q.017,33.373,0,66.746a6.6,6.6,0,0,1-4.219,6.44.77.77,0,0,0-.549.836C68.44,98.181,66.97,99.6,63.837,99.6H28.526c-2.823,0-4.377-1.491-4.439-4.306-.011-.479-.167-.623-.605-.74a6.72,6.72,0,0,1-5.269-6.9q-.006-33.241,0-66.481a6.745,6.745,0,0,1,5.312-6.964c.338-.093.579-.129.557-.589A4.178,4.178,0,0,1,27.2,9.183Z" transform="translate(-4.238 -2.137)"/>
        <path id="Trazado_140596" data-name="Trazado 140596" d="M34.236,89.264A1.458,1.458,0,0,0,32.9,87.937c-1.088-.041-2.179-.061-3.263,0-.77.043-1-.3-1-.969,0-.265-.008-.529-.008-.794q0-26.432.005-52.865a2.352,2.352,0,0,1,.263-1.617c2.263-.011,4.526-.028,6.789-.03q10.936-.006,21.873,0c1.235,0,1.525-.216,1.905-1.385a2.74,2.74,0,0,1,2.62,0c.3,1.1.648,1.38,1.8,1.381,2.765,0,5.531.028,8.3-.017.69-.011.813.207.812.842q-.024,27.321,0,54.64c0,.733-.244.855-.9.854q-16.682-.026-33.363-.012c-1.245,0-1.495.18-1.864,1.3a3.114,3.114,0,0,1-2.631,0" transform="translate(-6.659 -6.969)" fill="#fecc95"/>
        <path id="Trazado_140597" data-name="Trazado 140597" d="M62.079,27.736l-2.621,0a1.62,1.62,0,0,0-1.318-1.36c-7.49.045-14.98.007-22.469.018q-3,0-5.992,0c-.9,0-1.005-.088-1.035-1A21.534,21.534,0,0,1,28.66,22.4a3.93,3.93,0,0,1,1.849-3.31c.294-.012.587-.033.88-.033,12.325,0,24.65.04,36.974-.035,2.487-.015,4.77,1.536,4.623,4.649A12.231,12.231,0,0,0,73,25.52c.082.774-.249.919-.951.909-2.734-.036-5.471-.019-8.206-.012-1.157,0-1.422.216-1.76,1.318" transform="translate(-6.656 -4.427)" fill="#fe6243"/>
        <path id="Trazado_140598" data-name="Trazado 140598" d="M27.288,32.206q0,27.491,0,54.982c0,1.172,0,1.152,1.2,1.178a14.907,14.907,0,0,1,2.8.084c-3,.01-6,.014-9,.037-.425,0-.592-.152-.561-.565.014-.175,0-.353,0-.529q0-27.1-.022-54.2c0-.886.255-1.076,1.079-1.034,1.5.076,3,.039,4.5.05" transform="translate(-5.053 -7.483)" fill="#fea633"/>
        <path id="Trazado_140599" data-name="Trazado 140599" d="M34.232,107.259l2.631,0c.351,1.171.64,1.387,1.894,1.387q16.595,0,33.19-.021c.852,0,1.177.2,1.045,1.059-.058.374,0,.765-.024,1.146a4,4,0,0,1-4.239,4.01q-13.638.012-27.276,0c-3.648,0-7.3-.021-10.943-.033a3.3,3.3,0,0,1-1.644-2.364,6.352,6.352,0,0,1,.031-3.77l3.577-.03c1.129-.01,1.483-.29,1.759-1.39" transform="translate(-6.655 -24.964)" fill="#fe6243"/>
        <path id="Trazado_140600" data-name="Trazado 140600" d="M69.051,12.811c.895.389,1.063.793.817,1.963a1.53,1.53,0,0,1-.862.087q-15.795.007-31.59,0c-1.067,0-1.408-.455-1.111-1.469.12-.41.341-.678.812-.645.146.011.294,0,.441,0q15.354,0,30.708,0a2.027,2.027,0,0,1,.786.058" transform="translate(-8.426 -2.966)" fill="#c3c2c7"/>
        <path id="Trazado_140601" data-name="Trazado 140601" d="M69.879,120.792c.245,1.168.076,1.572-.819,1.962a1.689,1.689,0,0,1-.7.059q-15.441,0-30.883,0c-.93,0-1.19-.234-1.227-1.079-.035-.825.157-1.033,1-1.033q15.972,0,31.943,0a1.1,1.1,0,0,1,.686.088" transform="translate(-8.437 -28.091)" fill="#c3c2c7"/>
        <path id="Trazado_140602" data-name="Trazado 140602" d="M28.9,19.1a6.585,6.585,0,0,0-1.63,5.2c.1,2.028.021,2.032,2.037,2.032q13.133,0,26.265,0c.32,0,.64.036.958.055-.263.016-.526.047-.788.047q-16.5,0-33,.014c-.776,0-1.123-.151-1.04-1.006.094-.963,0-1.944.105-2.9a3.893,3.893,0,0,1,3.83-3.46c1.086-.022,2.174.014,3.262.024" transform="translate(-5.049 -4.438)" fill="#fe3501"/>
        <path id="Trazado_140603" data-name="Trazado 140603" d="M27.277,109.1a15.466,15.466,0,0,1,0,1.578,5.756,5.756,0,0,0,1.617,4.555c-1.114.009-2.23.05-3.342.019a3.943,3.943,0,0,1-3.773-3.521c-.308-2.661-.308-2.663,2.335-2.659,1.056,0,2.111.018,3.167.028" transform="translate(-5.036 -25.387)" fill="#fe3501"/>
        <path id="Trazado_140604" data-name="Trazado 140604" d="M67.46,12.791c-.381.012-.763.035-1.145.035q-15.126,0-30.254-.008c-.668,0-1.122.064-1.164.9-.039.787.17,1.043,1.01,1.042q16.185-.039,32.37-.008c-.309.261-.677.122-1.012.122q-18.392,0-36.785-.03c-.352,0-.932.357-1.073-.365a1.361,1.361,0,0,1,.869-1.709,2.77,2.77,0,0,1,.782-.085q17.819-.014,35.639-.017c.258,0,.533-.068.763.122" transform="translate(-6.835 -2.946)" fill="#abaab0"/>
        <path id="Trazado_140605" data-name="Trazado 140605" d="M68.285,120.775q-16.185.006-32.37.013c-1.031,0-1.068.058-1,1.109.04.576.28.87.885.807a6.122,6.122,0,0,1,.617,0q14.95,0,29.9,0c.381,0,.763.023,1.144.035-.23.19-.506.123-.763.123q-17.819,0-35.638-.015c-1.224,0-1.648-.428-1.665-1.532-.008-.5.141-.664.648-.658,1.822.02,3.646-.008,5.468-.008q15.967,0,31.934.005c.278,0,.588-.123.836.123" transform="translate(-6.843 -28.074)" fill="#abaab0"/>
        <path id="Trazado_140606" data-name="Trazado 140606" d="M59.91,40.752c.537-1.027.9-1.211,1.962-.925.906.244,1.818.479,2.7.8a1.361,1.361,0,0,1,.668,2.311,24.546,24.546,0,0,1-6.191,6.039c5.579,4.075,8.513,9.5,8.271,16.439a17.766,17.766,0,0,1-6.067,12.969A18.725,18.725,0,1,1,38.57,48.76a21.423,21.423,0,0,1-6.422-8.032,2.069,2.069,0,0,1-.328-1.254A1.228,1.228,0,0,1,32.9,38.342c3.816-.577,7.612-.757,11.266.839a15.554,15.554,0,0,1,3.136,2c.1-1.3.187-2.489.276-3.678.055-.733.094-1.468.166-2.2a1.293,1.293,0,0,1,1.455-1.3,1.274,1.274,0,0,1,1.2,1.451c-.057,1.351-.172,2.7-.263,4.05-.029.431-.064.861-.105,1.413A13.758,13.758,0,0,1,54.823,39.2c1.584-.247,2.036-.018,2.463,1.249a1.319,1.319,0,0,1-1.337,1.561,12.688,12.688,0,0,0-2.986.753,6.1,6.1,0,0,0-2.279,1.472,2.068,2.068,0,0,0-.665,2.159,2.221,2.221,0,0,0,1.712,1.37,5.622,5.622,0,0,0,2.788-.122,12.78,12.78,0,0,0,6.622-4.3c.389-.424.228-.6-.254-.793-1.052-.417-1.261-.85-.977-1.792" transform="translate(-6.96 -7.914)"/>
        <path id="Trazado_140607" data-name="Trazado 140607" d="M65.907,42.706c-.087,1.073.534,1.565,1.48,1.729.578.1.532.293.21.659-2.227,2.528-4.726,4.587-8.256,4.946a5.068,5.068,0,0,1-2-.185,2.178,2.178,0,0,1-.984-3.711A8.047,8.047,0,0,1,60.6,43.953a4.115,4.115,0,0,1,1.041-.168A1.521,1.521,0,0,0,63.283,42.4l2.624.306" transform="translate(-12.957 -9.868)" fill="#00b839"/>
        <path id="Trazado_140608" data-name="Trazado 140608" d="M33.391,68.767a15.9,15.9,0,0,1,8.3-13.608,1.831,1.831,0,0,1,1.492-.218,5.78,5.78,0,0,0,5.561-1.007c.176-.151.3-.236.508-.046,2.025,1.8,4.386,1.725,6.816,1.185a1.67,1.67,0,0,1,1.33.2,18.6,18.6,0,0,1,3.663,2.881c.374.384.476.6-.059.982Q48.526,67.984,36.087,76.886c-.456.325-.6.19-.826-.232a17,17,0,0,1-1.871-7.886" transform="translate(-7.772 -12.517)" fill="#fe9711"/>
        <path id="Trazado_140609" data-name="Trazado 140609" d="M64.35,63.076a15.16,15.16,0,0,1,1.422,13.346C63.524,82.58,59.154,86.458,52.56,87.291c-5.424.685-10.046-1.231-13.816-5.2-.351-.369-.36-.586.093-.865.6-.368,1.128-1.051,1.748-1.132s.981.8,1.5,1.211c3.966,3.1,8.358,4.027,13.079,2.21a12.821,12.821,0,0,0,8.369-10.505,12.178,12.178,0,0,0-1.314-7.684c-.219-.43-.2-.651.212-.912.642-.405,1.248-.869,1.915-1.341" transform="translate(-8.958 -14.681)" fill="#fea633"/>
        <path id="Trazado_140610" data-name="Trazado 140610" d="M36.877,42.771c3.081-.117,6.018-.262,8.678,1.374a7.669,7.669,0,0,1,2.312,2.008,2.255,2.255,0,0,1,.328,2.626A2.437,2.437,0,0,1,45.612,49.9a9.657,9.657,0,0,1-6.572-3.871,19.318,19.318,0,0,1-2.164-3.262" transform="translate(-8.583 -9.94)" fill="#00b839"/>
        <path id="Trazado_140611" data-name="Trazado 140611" d="M50.383,77.606c-.153,2.28-.312,4.556-.452,6.833-.026.427-.263.382-.534.311a10.378,10.378,0,0,1-4.714-2.62c-.248-.242-.367-.418,0-.677,1.829-1.276,3.644-2.571,5.467-3.855.036-.025.11,0,.229.008" transform="translate(-10.346 -18.058)" fill="#ed8600"/>
        <path id="Trazado_140612" data-name="Trazado 140612" d="M58.11,76.2c2.263.374,4.344.72,6.427,1.057.366.059.516.2.37.585A10.722,10.722,0,0,1,62.53,81.62c-.189.193-.348.3-.555.012C60.722,79.862,59.463,78.1,58.11,76.2" transform="translate(-13.525 -17.735)" fill="#ed8600"/>
        <path id="Trazado_140613" data-name="Trazado 140613" d="M58.689,71.515c1.913-1.364,3.615-2.566,5.3-3.792.349-.254.515-.248.7.17a10.438,10.438,0,0,1,.942,4.183c0,.325-.01.591-.466.514-2.082-.353-4.166-.694-6.472-1.076" transform="translate(-13.66 -15.722)" fill="#ec8600"/>
        <path id="Trazado_140614" data-name="Trazado 140614" d="M59.286,84.174a9.074,9.074,0,0,1-3.614,1.16c-.233.026-.58.141-.552-.318.122-1.932.248-3.863.562-5.877l3.6,5.035" transform="translate(-12.829 -18.419)" fill="#ec8600"/>
        <path id="Trazado_140615" data-name="Trazado 140615" d="M39.723,66.829a1,1,0,0,1-1.061-1.047A.973.973,0,0,1,39.7,64.709a.985.985,0,0,1,1.073,1.043,1.007,1.007,0,0,1-1.047,1.077" transform="translate(-8.998 -15.061)" fill="#040200"/>
        <path id="Trazado_140616" data-name="Trazado 140616" d="M44.733,66.827a.993.993,0,0,1-1.014-1.074.971.971,0,0,1,1.06-1.045.983.983,0,0,1,1.046,1.07,1.009,1.009,0,0,1-1.093,1.05" transform="translate(-10.175 -15.061)" fill="#040300"/>
        <path id="Trazado_140617" data-name="Trazado 140617" d="M41.169,69.575a1,1,0,0,1,1.022-1.111,1.055,1.055,0,1,1-1.022,1.111" transform="translate(-9.582 -15.934)" fill="#020100"/>
        <path id="Trazado_140618" data-name="Trazado 140618" d="M89.787,23.836H81v-.879a10.852,10.852,0,0,1,.509-3.641,8.07,8.07,0,0,1,1.514-2.555,46.7,46.7,0,0,1,4.52-4.069q1.874-1.526,1.873-2.8a2.58,2.58,0,0,0-.751-1.977,3.227,3.227,0,0,0-2.277-.705A3.663,3.663,0,0,0,83.672,8.3,6.371,6.371,0,0,0,82.3,12.091l-8.97-1.109a12.217,12.217,0,0,1,3.595-7.965Q80.053,0,86.527,0a14.23,14.23,0,0,1,8.137,2.1,8.748,8.748,0,0,1,4.208,7.583,7.317,7.317,0,0,1-1.086,3.792,18.686,18.686,0,0,1-4.439,4.462A11.906,11.906,0,0,0,90.4,20.911a6.075,6.075,0,0,0-.613,2.925M80.7,26.171h9.41v8.3H80.7Z" transform="translate(-17.066)" fill="#fe0000"/>
        <path id="Trazado_140619" data-name="Trazado 140619" d="M9.086,97.245h8.786v.879a10.851,10.851,0,0,1-.509,3.641,8.075,8.075,0,0,1-1.515,2.555,46.7,46.7,0,0,1-4.52,4.069q-1.872,1.526-1.873,2.8a2.58,2.58,0,0,0,.752,1.977,3.225,3.225,0,0,0,2.277.705,3.662,3.662,0,0,0,2.716-1.087,6.366,6.366,0,0,0,1.376-3.791l8.971,1.109a12.218,12.218,0,0,1-3.6,7.965q-3.133,3.016-9.606,3.017a14.233,14.233,0,0,1-8.138-2.1A8.748,8.748,0,0,1,0,111.394,7.316,7.316,0,0,1,1.086,107.6a18.692,18.692,0,0,1,4.439-4.462,11.92,11.92,0,0,0,2.948-2.971,6.085,6.085,0,0,0,.612-2.925m9.086-2.335H8.762v-8.3h9.41Z" transform="translate(0 -20.158)" fill="#fe0000"/>
      </g>
    </g>
  </g>
</svg>
