<svg xmlns="http://www.w3.org/2000/svg" xmlns:xlink="http://www.w3.org/1999/xlink" width="189" height="122" viewBox="0 0 189 122">
  <defs>
    <clipPath id="clip-path">
      <rect id="Rectángulo_38283" data-name="Rectángulo 38283" width="99.007" height="99.007" fill="none"/>
    </clipPath>
  </defs>
  <g id="Grupo_160994" data-name="Grupo 160994" transform="translate(-600 -8276)">
    <rect id="Rectángulo_37701" data-name="Rectángulo 37701" width="189" height="122" transform="translate(600 8276)" fill="#a6bbff"/>
    <g id="Grupo_161150" data-name="Grupo 161150" transform="translate(648.207 8287.496)">
      <g id="Grupo_161150-2" data-name="Grupo 161150" clip-path="url(#clip-path)">
        <path id="Trazado_140571" data-name="Trazado 140571" d="M89.785,22.813A3.5,3.5,0,0,1,92.4,26.69c-.022.336.143.435.425.561a5.523,5.523,0,0,1,3.528,5.4q.014,27.683,0,55.367a5.478,5.478,0,0,1-3.5,5.343.639.639,0,0,0-.455.693c-.043,2.584-1.263,3.762-3.861,3.762H59.247c-2.341,0-3.631-1.236-3.682-3.571-.008-.4-.139-.517-.5-.614A5.575,5.575,0,0,1,50.692,87.9q0-27.574,0-55.147A5.6,5.6,0,0,1,55.1,26.981c.28-.077.481-.107.462-.489a3.466,3.466,0,0,1,2.586-3.678Z" transform="translate(-24.023 -10.812)"/>
        <path id="Trazado_140572" data-name="Trazado 140572" d="M67.939,97.138a1.209,1.209,0,0,0-1.111-1.1c-.9-.034-1.808-.05-2.707,0-.639.036-.826-.251-.83-.8,0-.219-.007-.439-.007-.659q0-21.926,0-43.852a1.949,1.949,0,0,1,.219-1.341c1.877-.008,3.754-.024,5.632-.025q9.072,0,18.144,0c1.024,0,1.265-.179,1.58-1.149a2.275,2.275,0,0,1,2.174,0c.248.916.537,1.144,1.5,1.146,2.294,0,4.588.023,6.882-.014.573-.009.674.172.674.7q-.021,22.662,0,45.325c0,.609-.2.71-.749.709q-13.838-.023-27.676-.01c-1.033,0-1.239.149-1.546,1.079a2.582,2.582,0,0,1-2.182,0" transform="translate(-29.987 -22.715)" fill="#fecc95"/>
        <path id="Trazado_140573" data-name="Trazado 140573" d="M91.031,41.944l-2.174,0a1.345,1.345,0,0,0-1.094-1.128c-6.212.037-12.425.006-18.638.016q-2.485,0-4.97,0c-.748,0-.834-.073-.859-.83a17.944,17.944,0,0,1,.014-2.484,3.26,3.26,0,0,1,1.534-2.746c.244-.009.487-.027.73-.027,10.223,0,20.447.033,30.67-.029a3.549,3.549,0,0,1,3.836,3.857,10.181,10.181,0,0,0,.007,1.536c.068.642-.206.762-.789.754-2.269-.031-4.538-.016-6.807-.009-.96,0-1.18.178-1.46,1.093" transform="translate(-29.98 -16.451)" fill="#fe6243"/>
        <path id="Trazado_140574" data-name="Trazado 140574" d="M59.552,50.647q0,22.8,0,45.609c0,.972,0,.956,1,.977a12.416,12.416,0,0,1,2.323.069c-2.489.008-4.977.012-7.465.031-.353,0-.492-.126-.465-.468.011-.145,0-.292,0-.439q0-22.481-.018-44.962c0-.735.211-.893.895-.858,1.242.064,2.487.033,3.731.042" transform="translate(-26.031 -23.981)" fill="#fea633"/>
        <path id="Trazado_140575" data-name="Trazado 140575" d="M67.929,141.468l2.182,0c.291.971.531,1.151,1.571,1.151q13.766,0,27.531-.017c.708,0,.976.168.867.878-.048.311,0,.634-.02.951a3.319,3.319,0,0,1-3.516,3.327q-11.313.01-22.626,0c-3.026,0-6.052-.018-9.078-.027a2.735,2.735,0,0,1-1.364-1.961,5.27,5.27,0,0,1,.026-3.127l2.968-.025c.936-.008,1.23-.241,1.459-1.154" transform="translate(-29.977 -67.046)" fill="#fe6243"/>
        <path id="Trazado_140576" data-name="Trazado 140576" d="M99.706,27.177c.742.322.882.658.678,1.628a1.272,1.272,0,0,1-.715.072q-13.1.006-26.205,0c-.885,0-1.167-.378-.921-1.219.1-.34.283-.562.673-.534.122.008.244,0,.366,0q12.736,0,25.473,0a1.684,1.684,0,0,1,.652.048" transform="translate(-34.34 -12.853)" fill="#c3c2c7"/>
        <path id="Trazado_140577" data-name="Trazado 140577" d="M100.411,157.8c.2.968.063,1.3-.679,1.628a1.408,1.408,0,0,1-.579.049q-12.81,0-25.619,0c-.771,0-.987-.195-1.017-.895-.029-.684.13-.856.828-.857q13.248,0,26.5,0a.913.913,0,0,1,.569.074" transform="translate(-34.366 -74.748)" fill="#c3c2c7"/>
        <path id="Trazado_140578" data-name="Trazado 140578" d="M60.885,34.8a5.46,5.46,0,0,0-1.353,4.311c.08,1.682.018,1.686,1.69,1.686q10.894,0,21.787,0c.266,0,.531.03.8.045-.219.014-.437.039-.654.039q-13.686,0-27.373.011c-.644,0-.932-.125-.863-.834.078-.8,0-1.613.087-2.41a3.228,3.228,0,0,1,3.176-2.869c.9-.018,1.8.012,2.706.019" transform="translate(-26.021 -16.48)" fill="#fe3501"/>
        <path id="Trazado_140579" data-name="Trazado 140579" d="M59.515,143.687a13.093,13.093,0,0,1,0,1.309,4.777,4.777,0,0,0,1.341,3.779c-.924.007-1.849.041-2.772.016a3.272,3.272,0,0,1-3.13-2.921c-.256-2.207-.256-2.209,1.936-2.206.876,0,1.751.015,2.628.023" transform="translate(-25.989 -68.086)" fill="#fe3501"/>
        <path id="Trazado_140580" data-name="Trazado 140580" d="M95.786,27.128c-.317.01-.633.029-.95.029q-12.548,0-25.1-.006c-.554,0-.931.053-.966.747-.033.653.142.866.838.864q13.426-.032,26.852-.006c-.257.216-.561.1-.84.1q-15.257,0-30.514-.025c-.292,0-.773.3-.891-.3a1.129,1.129,0,0,1,.721-1.418,2.285,2.285,0,0,1,.649-.071q14.782-.012,29.563-.014c.214,0,.442-.056.633.1" transform="translate(-30.42 -12.804)" fill="#abaab0"/>
        <path id="Trazado_140581" data-name="Trazado 140581" d="M96.484,157.762l-26.851.011c-.855,0-.886.049-.826.92.033.479.232.722.734.67a5.032,5.032,0,0,1,.512,0q12.4,0,24.8,0c.316,0,.633.019.95.029-.191.157-.42.1-.633.1q-14.782,0-29.563-.013c-1.016,0-1.367-.355-1.381-1.271-.006-.411.117-.55.537-.545,1.512.016,3.024-.006,4.536-.006q13.244,0,26.489,0c.23,0,.488-.1.693.1" transform="translate(-30.439 -74.708)" fill="#abaab0"/>
        <path id="Trazado_140582" data-name="Trazado 140582" d="M89.729,58.439c.446-.852.747-1,1.628-.768.752.2,1.508.4,2.239.661a1.129,1.129,0,0,1,.554,1.916,20.359,20.359,0,0,1-5.136,5.01c4.628,3.38,7.062,7.881,6.861,13.636a14.74,14.74,0,0,1-5.033,10.758A15.533,15.533,0,1,1,72.027,65.081,17.77,17.77,0,0,1,66.7,58.419a1.724,1.724,0,0,1-.272-1.041,1.02,1.02,0,0,1,.893-.939c3.165-.478,6.314-.628,9.346.7a12.928,12.928,0,0,1,2.6,1.662c.081-1.078.156-2.065.229-3.051.045-.608.077-1.217.137-1.824a1.073,1.073,0,0,1,1.207-1.077,1.056,1.056,0,0,1,1,1.2c-.047,1.121-.142,2.239-.218,3.359-.024.357-.053.714-.087,1.172a11.415,11.415,0,0,1,3.974-1.43c1.314-.205,1.689-.015,2.043,1.036a1.094,1.094,0,0,1-1.109,1.295,10.527,10.527,0,0,0-2.477.625,5.067,5.067,0,0,0-1.89,1.22,1.717,1.717,0,0,0-.552,1.791,1.844,1.844,0,0,0,1.42,1.137,4.663,4.663,0,0,0,2.313-.1,10.6,10.6,0,0,0,5.493-3.57c.322-.351.189-.5-.211-.658-.872-.346-1.045-.7-.811-1.486" transform="translate(-30.729 -25.043)"/>
        <path id="Trazado_140583" data-name="Trazado 140583" d="M104.5,63.253c-.072.89.443,1.3,1.228,1.434.479.083.441.243.174.546-1.847,2.1-3.92,3.806-6.848,4.1a4.213,4.213,0,0,1-1.662-.154,1.807,1.807,0,0,1-.816-3.079,6.675,6.675,0,0,1,3.519-1.818,3.412,3.412,0,0,1,.864-.139A1.263,1.263,0,0,0,102.327,63l2.176.254" transform="translate(-45.503 -29.857)" fill="#00b839"/>
        <path id="Trazado_140584" data-name="Trazado 140584" d="M69.057,89.2a13.191,13.191,0,0,1,6.886-11.288,1.518,1.518,0,0,1,1.238-.181,4.793,4.793,0,0,0,4.613-.835c.146-.125.246-.195.421-.038,1.679,1.5,3.638,1.431,5.654.983a1.385,1.385,0,0,1,1.1.163,15.4,15.4,0,0,1,3.039,2.39c.31.318.395.5-.049.814Q81.612,88.55,71.293,95.934c-.378.27-.5.157-.685-.193A14.1,14.1,0,0,1,69.057,89.2" transform="translate(-32.728 -36.382)" fill="#fe9711"/>
        <path id="Trazado_140585" data-name="Trazado 140585" d="M96.676,88.014a12.576,12.576,0,0,1,1.18,11.071c-1.865,5.108-5.49,8.325-10.96,9.016a12.976,12.976,0,0,1-11.461-4.31c-.29-.306-.3-.486.078-.717.5-.306.935-.872,1.449-.94s.814.665,1.248,1A10.9,10.9,0,0,0,96,96.258a10.1,10.1,0,0,0-1.091-6.374c-.181-.357-.168-.54.176-.757.533-.336,1.035-.721,1.589-1.112" transform="translate(-35.651 -41.712)" fill="#fea633"/>
        <path id="Trazado_140586" data-name="Trazado 140586" d="M73.273,63.424c2.556-.1,4.991-.217,7.2,1.14a6.366,6.366,0,0,1,1.917,1.666,1.87,1.87,0,0,1,.273,2.178,2.022,2.022,0,0,1-2.143.933,8.013,8.013,0,0,1-5.451-3.211,16.029,16.029,0,0,1-1.795-2.706" transform="translate(-34.726 -30.033)" fill="#00b839"/>
        <path id="Trazado_140587" data-name="Trazado 140587" d="M87.357,105.586c-.127,1.891-.259,3.779-.375,5.668-.022.354-.219.317-.443.258a8.613,8.613,0,0,1-3.91-2.174c-.206-.2-.3-.347,0-.561,1.517-1.058,3.023-2.133,4.535-3.2.03-.021.091,0,.19.007" transform="translate(-39.069 -50.033)" fill="#ed8600"/>
        <path id="Trazado_140588" data-name="Trazado 140588" d="M98.962,103.892c1.876.31,3.6.6,5.331.877.3.049.428.165.307.485a8.894,8.894,0,0,1-1.972,3.134c-.157.16-.288.253-.461.009-1.039-1.467-2.084-2.93-3.206-4.505" transform="translate(-46.901 -49.237)" fill="#ed8600"/>
        <path id="Trazado_140589" data-name="Trazado 140589" d="M99.663,96.716c1.587-1.132,3-2.128,4.4-3.145.29-.21.427-.206.577.142a8.637,8.637,0,0,1,.782,3.47c0,.27-.008.49-.387.426-1.727-.292-3.456-.576-5.368-.892" transform="translate(-47.233 -44.279)" fill="#ec8600"/>
        <path id="Trazado_140590" data-name="Trazado 140590" d="M98.8,111.624a7.523,7.523,0,0,1-3,.962c-.193.022-.481.117-.457-.264.1-1.6.206-3.2.466-4.875l2.989,4.176" transform="translate(-45.186 -50.923)" fill="#ec8600"/>
        <path id="Trazado_140591" data-name="Trazado 140591" d="M76.313,91.748a.828.828,0,0,1-.88-.869.807.807,0,0,1,.858-.89.818.818,0,0,1,.891.865.835.835,0,0,1-.869.894" transform="translate(-35.75 -42.649)" fill="#040200"/>
        <path id="Trazado_140592" data-name="Trazado 140592" d="M82.392,91.748a.823.823,0,0,1-.841-.891.8.8,0,0,1,.88-.867.815.815,0,0,1,.867.887.837.837,0,0,1-.906.871" transform="translate(-38.649 -42.649)" fill="#040300"/>
        <path id="Trazado_140593" data-name="Trazado 140593" d="M78.466,95.454a.83.83,0,0,1,.847-.922.875.875,0,1,1-.847.922" transform="translate(-37.187 -44.801)" fill="#020100"/>
        <path id="Trazado_140594" data-name="Trazado 140594" d="M49.5,99.007a49.5,49.5,0,1,1,49.5-49.5,49.559,49.559,0,0,1-49.5,49.5m0-94.272A44.769,44.769,0,1,0,94.273,49.5,44.82,44.82,0,0,0,49.5,4.735" fill="#fe0000"/>
        <rect id="Rectángulo_38282" data-name="Rectángulo 38282" width="4.734" height="97.407" transform="translate(15.589 15.156) rotate(-45)" fill="#fe0000"/>
      </g>
    </g>
  </g>
</svg>
