<svg xmlns="http://www.w3.org/2000/svg" xmlns:xlink="http://www.w3.org/1999/xlink" width="123" height="123" viewBox="0 0 123 123">
  <defs>
    <clipPath id="clip-path">
      <rect id="Rectángulo_38277" data-name="Rectángulo 38277" width="57.177" height="71.455" fill="none"/>
    </clipPath>
  </defs>
  <g id="Grupo_160978" data-name="Grupo 160978" transform="translate(-420 -1641.58)">
    <path id="Trazado_140327" data-name="Trazado 140327" d="M61.5,0A61.5,61.5,0,1,1,0,61.5,61.5,61.5,0,0,1,61.5,0Z" transform="translate(420 1641.58)" fill="#a6bbff"/>
    <g id="Grupo_161145" data-name="Grupo 161145" transform="translate(453.411 1667.353)">
      <g id="Grupo_161145-2" data-name="Grupo 161145" clip-path="url(#clip-path)">
        <path id="Trazado_140484" data-name="Trazado 140484" d="M.851,71.455A1.693,1.693,0,0,1,0,69.778Q.027,53.316,0,36.853a2.172,2.172,0,0,1,.7-1.66q11.824-11.8,23.637-23.611a.8.8,0,0,0,.16-1.2,15.636,15.636,0,0,0-11.84-7.734c-.9-.129-1.8-.174-2.706-.222-.371-.02-.5-.14-.448-.493a2.354,2.354,0,0,0,0-.348c0-1.648,0-1.664,1.648-1.541A19.446,19.446,0,0,1,22.359,4.208a16.762,16.762,0,0,1,3.9,4.505c.284.482.474.662,1.065.326a5.269,5.269,0,0,1,4.249-.463,43.723,43.723,0,0,1,17.47,9.73,25.467,25.467,0,0,1,7.32,13.415,42.965,42.965,0,0,1,.807,9.9c-.068,7.789-.027,15.579-.019,23.368a6.24,6.24,0,0,1-2.434,5.286,8.986,8.986,0,0,1-2.677,1.176Z" transform="translate(0 0)" fill="#020100"/>
        <path id="Trazado_140485" data-name="Trazado 140485" d="M58.974,46.867a7.54,7.54,0,0,0-4.885-1.186q-22.315.017-44.631.007H8.753l21.531-21.53a21.931,21.931,0,0,1,.806,2.829c.118.454-.231.486-.513.568a8.007,8.007,0,0,0-4.72,3.566A8.316,8.316,0,1,0,34.1,27.3c-.429-.067-.6-.214-.682-.61a21.868,21.868,0,0,0-1.239-4.268c-.123-.289-.007-.418.213-.562a3.489,3.489,0,0,1,3.066-.424A44.976,44.976,0,0,1,45.736,26a33.234,33.234,0,0,1,6.981,5.507,22.023,22.023,0,0,1,4.621,7.79,30.447,30.447,0,0,1,1.637,7.566" transform="translate(-4.326 -10.505)" fill="#874d00"/>
        <path id="Trazado_140486" data-name="Trazado 140486" d="M30.784,107.855q-12.656,0-25.312.016c-.653,0-.808-.183-.786-.805.048-1.324.032-2.65,0-3.975-.009-.427.106-.547.539-.546q7.217.023,14.434,0c.537,0,.542.247.521.628a3.637,3.637,0,0,0,1.873,3.687,3.549,3.549,0,0,0,5.242-2.93c.069-1.372.069-1.372,1.458-1.372q13.772,0,27.543-.016c.656,0,.812.188.789.809-.047,1.254-.053,2.512,0,3.765.028.644-.2.756-.786.755q-12.761-.028-25.521-.013" transform="translate(-2.315 -50.679)" fill="#d3c7b7"/>
        <path id="Trazado_140487" data-name="Trazado 140487" d="M30.844,122.509c-8.458,0-16.917-.009-25.375.017-.661,0-.809-.2-.781-.81.048-1.067.047-2.139,0-3.206-.025-.585.093-.8.743-.779,1.531.056,3.067.018,4.6.018q23.075,0,46.149,0c1,0,.882-.123.888.893.007,1.046-.03,2.093.014,3.137.024.568-.127.747-.723.743-4.09-.027-8.179-.014-12.269-.014H30.844" transform="translate(-2.315 -58.186)" fill="#ce9d76"/>
        <path id="Trazado_140488" data-name="Trazado 140488" d="M56.759,76.63c-2.106,0-4.174,0-6.241,0-1.357,0-1.753.388-1.756,1.711,0,.6.011,1.209,0,1.814a1.8,1.8,0,1,1-3.6.008c-.018-.6,0-1.209-.006-1.813,0-1.331-.4-1.719-1.758-1.72H32.442c-.372,0-.744,0-1.116,0-1.175.018-1.65.492-1.656,1.653,0,.628.01,1.256-.007,1.883a1.109,1.109,0,0,1-1.218,1.208c-.65.016-1.3-.008-1.952.009-1.089.028-1.569.517-1.572,1.6,0,2.162,0,4.325,0,6.487,0,.906-.443,1.459-1.138,1.44-.806-.022-1.229-.508-1.229-1.442q0-5.615,0-11.231c0-1.15-.443-1.6-1.6-1.6q-3.138-.009-6.276,0c-1.192,0-1.616.437-1.619,1.638,0,1,.016,2-.008,3a1.218,1.218,0,0,1-1.025,1.3,1.131,1.131,0,0,1-1.215-.617,1.151,1.151,0,0,1-.122-.674c-.006-1,.005-2-.006-3-.012-1.169-.488-1.642-1.662-1.651-1.255-.009-2.511-.016-3.766.006-.419.007-.555-.122-.566-.553-.043-1.828-.058-1.828,1.793-1.828q23.327,0,46.655,0a3.78,3.78,0,0,1,3.3,1.593,1.461,1.461,0,0,1,.328.785" transform="translate(-2.309 -36.699)" fill="#693b00"/>
        <path id="Trazado_140489" data-name="Trazado 140489" d="M64.289,90.846c-4.716,0-9.431-.011-14.147.014-.606,0-.843-.137-.766-.766.061-.5-.147-1.14.093-1.5.267-.4.949-.126,1.447-.177a3.56,3.56,0,0,0,3.228-3.637c.03-1.106.03-1.106,1.1-1.106H63.89c.962,0,.964,0,.972.944a4.178,4.178,0,1,0,8.35.21c.048-1.154.048-1.154,1.182-1.154,1.371,0,2.742.016,4.112-.009.459-.008.657.089.65.6-.027,2.022-.031,4.044.006,6.064.011.571-.3.509-.655.509q-7.108,0-14.217,0" transform="translate(-24.391 -41.353)" fill="#ce9d75"/>
        <path id="Trazado_140490" data-name="Trazado 140490" d="M30.78,131.869q12.654,0,25.308,0c.219,0,.526-.117.639.09s-.118.425-.241.616a3.51,3.51,0,0,1-3.112,1.659c-2.347.014-4.694,0-7.041,0q-20.393,0-40.786.019c-.728,0-.888-.2-.865-.889.051-1.5.015-1.5,1.487-1.5H30.78" transform="translate(-2.313 -65.161)" fill="#874d00"/>
        <path id="Trazado_140491" data-name="Trazado 140491" d="M51.694,38a5.926,5.926,0,0,1,4.876,6.581,5.947,5.947,0,0,1-11.832-.433A5.909,5.909,0,0,1,49.276,38.1a18.589,18.589,0,0,1,.175,2.762c-.02.4.082.56.533.567,1.9.032,1.9.049,1.832-1.866-.019-.506-.078-1.01-.122-1.565" transform="translate(-22.101 -18.779)" fill="#fe0000"/>
        <path id="Trazado_140492" data-name="Trazado 140492" d="M12.433,90.844c-2.346,0-4.692-.014-7.038.011-.516.006-.722-.087-.71-.672.041-1.974.028-3.949.006-5.924-.006-.447.1-.613.574-.593.834.037,1.672.026,2.508,0,.393-.011.533.121.521.518-.02.7-.022,1.395.018,2.09a3.532,3.532,0,0,0,3.367,3.36,3.571,3.571,0,0,0,3.668-2.961,11.757,11.757,0,0,0,.069-2.433c-.011-.474.154-.585.6-.576q1.811.039,3.623,0c.417-.009.562.1.557.539q-.035,3.031,0,6.063c.006.464-.131.588-.584.584-2.392-.02-4.784-.009-7.177-.009" transform="translate(-2.316 -41.35)" fill="#ce9d75"/>
        <path id="Trazado_140493" data-name="Trazado 140493" d="M88.07,50.147c-.191.041-.244-.124-.293-.363a15.169,15.169,0,0,0-6.128-9.229c-.28-.209-.371-.378-.143-.666a3.87,3.87,0,0,0,.255-.414c.78-1.3.79-1.312,1.952-.362A17.434,17.434,0,0,1,90.09,49.2c.108.511.009.652-.488.687a15.387,15.387,0,0,0-1.533.263" transform="translate(-40.22 -19.001)" fill="#fefefe"/>
        <path id="Trazado_140494" data-name="Trazado 140494" d="M73.13,32.292c-.3.592-.624,1.231-.965,1.859-.062.114-.208.043-.313-.009l-.432-.219c-1.828-.912-1.822-.909-.768-2.651.136-.224.221-.3.472-.165.591.315,1.2.6,1.795.9.086.045.225.075.211.284" transform="translate(-34.565 -15.341)" fill="#fefdfd"/>
        <path id="Trazado_140495" data-name="Trazado 140495" d="M48.355,47.114a4.01,4.01,0,0,0,.487,0c.454-.056.663.041.751.587a1.91,1.91,0,0,0,1.814,1.722c.372.037.534.182.491.569a7.533,7.533,0,0,0-.006.835c0,1.079,0,1.079-1.058.936a4.626,4.626,0,0,1-3.68-4.235c0-.29.046-.433.366-.41.277.02.556,0,.835,0Z" transform="translate(-23.306 -23.277)" fill="#fefefe"/>
      </g>
    </g>
  </g>
</svg>
