<svg xmlns="http://www.w3.org/2000/svg" xmlns:xlink="http://www.w3.org/1999/xlink" width="123" height="123" viewBox="0 0 123 123">
  <defs>
    <clipPath id="clip-path">
      <rect id="Rectángulo_38279" data-name="Rectángulo 38279" width="63.492" height="76.622" fill="none"/>
    </clipPath>
  </defs>
  <g id="Grupo_160984" data-name="Grupo 160984" transform="translate(-419.508 -1641.565)">
    <path id="Trazado_140328" data-name="Trazado 140328" d="M61.5,0A61.5,61.5,0,1,1,0,61.5,61.5,61.5,0,0,1,61.5,0Z" transform="translate(419.508 1641.565)" fill="#a6bbff"/>
    <g id="Grupo_161147" data-name="Grupo 161147" transform="translate(449.508 1664.566)">
      <g id="Grupo_161147-2" data-name="Grupo 161147" clip-path="url(#clip-path)">
        <path id="Trazado_140512" data-name="Trazado 140512" d="M44.757,85.2c.181.855-.214,1.326-.976,1.68a29.741,29.741,0,0,1-10.527,2.807c-.118.009-.253-.024-.306.133H28.01a8.89,8.89,0,0,0-2.374-.418A30.6,30.6,0,0,1,.538,64.768,29.907,29.907,0,0,1,8,38.524a29.744,29.744,0,0,1,16.676-9.533,30.6,30.6,0,0,1,16.826,1.33,1.3,1.3,0,0,1,1,1.388,1.15,1.15,0,0,1-1.636.989c-1.351-.345-2.646-.875-4.021-1.158A28.324,28.324,0,0,0,5.838,45.786,27.427,27.427,0,0,0,2.6,56.976,28.035,28.035,0,0,0,4.583,69.782a27.655,27.655,0,0,0,5.206,8.235,28.24,28.24,0,0,0,10.377,7.275,28.644,28.644,0,0,0,9.086,1.971,27.836,27.836,0,0,0,13.357-2.572,2.276,2.276,0,0,1,1.221-.281c.483.059.865.241.928.794" transform="translate(0 -13.202)"/>
        <path id="Trazado_140513" data-name="Trazado 140513" d="M46.741,87.193c-.64-.757-.979-.839-1.945-.382a27.061,27.061,0,0,1-11.463,2.707,28,28,0,0,1-21.619-9.279A27.057,27.057,0,0,1,4.772,66.416,27.773,27.773,0,0,1,9.7,44.457,28.292,28.292,0,0,1,36.463,32.9a30.638,30.638,0,0,1,6.145,1.515c1.02.353,1.389.193,1.88-.718a.745.745,0,0,0,1.088.451,2.882,2.882,0,0,1,1.008,3.041c-.435,1.352-.958,2.672-1.4,4.02a2.054,2.054,0,0,1-.62,1.163c-.545-.012-.855.429-1.273.663a.8.8,0,0,1-.166-.33c-.261-.767-.65-1-1.418-.733a14.721,14.721,0,0,0-5.172,2.915A8.9,8.9,0,0,0,33.808,49,7.151,7.151,0,0,0,35.6,56.189c2.611,2.916,6.047,4.2,9.822,4.735a25.646,25.646,0,0,0,7.66-.2,6.44,6.44,0,0,1,7.451,6.384,11.211,11.211,0,0,1-1.152,4.31,29.02,29.02,0,0,1-6.4,9.835,20.524,20.524,0,0,1-3.24,2.757A2.269,2.269,0,0,0,48.453,86.1a9.008,9.008,0,0,0-1.711,1.094" transform="translate(-1.985 -15.191)" fill="#e4e8e9"/>
        <path id="Trazado_140514" data-name="Trazado 140514" d="M75.606,27.092c.695-1.93,1.385-3.861,2.09-5.787a.492.492,0,0,0-.047-.546,11.037,11.037,0,0,1-1.012-1.8c-1.651-5,1.565-10.077,5.659-12a55.331,55.331,0,0,0,6.149-3A7.508,7.508,0,0,0,91.54.722,1.1,1.1,0,0,1,92.655,0,1.156,1.156,0,0,1,93.7.832a46.787,46.787,0,0,1,1.568,4.81,1.214,1.214,0,0,1-.8,1.553,1.121,1.121,0,0,1-1.506-.788,18.006,18.006,0,0,1-.738-2.378c-.424.4-.767.818-1.192,1.155A33.472,33.472,0,0,1,84.3,8.734a8.64,8.64,0,0,0-5.378,5.731,5.345,5.345,0,0,0,.649,4.723,1.8,1.8,0,0,0,.46.484c1.035.687,1.285.582,1.537-.617.288-1.367.559-2.737.859-4.1a1.376,1.376,0,0,1,2.033-1.134c.749.535.656,1.305.5,2.037-.3,1.388-.534,2.789-.871,4.168-.053.218-.1.438-.133.659-.042.252-.08.517.212.646a.538.538,0,0,0,.7-.272c.684-1.01,1.332-2.044,1.987-3.073.347-.546.68-1.1,1.078-1.615.543-.7,1.143-.84,1.744-.453a1.258,1.258,0,0,1,.447,1.873c-.694,1.208-1.477,2.364-2.246,3.527-.845,1.277-.659,1.68.873,1.889a1.883,1.883,0,0,0,1.072-.263,6.867,6.867,0,0,0,3.837-4.868,18.009,18.009,0,0,0,.193-6.824,4.192,4.192,0,0,1-.043-1.19,1.034,1.034,0,0,1,1.072-.974c.966.091,1.227.371,1.358,1.33a21.615,21.615,0,0,1-.169,8.158A9.072,9.072,0,0,1,90.032,25.5a1.215,1.215,0,0,0-.717.778q-3.739,8.03-7.486,16.057c-.3.645-.64,1.2-1.495,1.036a1.087,1.087,0,0,1-.952-1.548c.367-1.248.37-1.256-.85-1.73-.857-.334-1.695-.717-2.554-1.046-1.614-.665-1.614-.665-2.282.945-.475,1.144-.94,1.378-1.99,1a1.4,1.4,0,0,1-.517-1.893c.926-2.6,1.835-5.2,2.757-7.8q.61-1.721,1.23-3.438c.1-.278.149-.585.429-.761" transform="translate(-33.046 0)"/>
        <path id="Trazado_140515" data-name="Trazado 140515" d="M73.7,93.948a1.313,1.313,0,0,1,.589-1.785,28.476,28.476,0,0,0,7.951-8.523,22.876,22.876,0,0,0,3.246-7.966,6.172,6.172,0,0,0-7.022-6.918,23.7,23.7,0,0,1-10.154-.236c-3.267-.874-6.211-2.318-8.255-5.148-2.505-3.468-1.784-7.427,1.059-10.3a15.472,15.472,0,0,1,5.633-3.419c1.038-.4,1.98.124,1.835,1.215.124.722-.461.873-.917,1.055a15.3,15.3,0,0,0-4.044,2.213,7.113,7.113,0,0,0-2.345,3.208,4.861,4.861,0,0,0,.651,4.406,9.674,9.674,0,0,0,3.847,3.219,13.876,13.876,0,0,0,3.113,1.139,17.726,17.726,0,0,0,4.354.558,1.131,1.131,0,0,1,.845.214,17.277,17.277,0,0,0,3.86-.351,8.519,8.519,0,0,1,9.892,8.787,13.587,13.587,0,0,1-1.123,4.312A31.1,31.1,0,0,1,75.494,94.109a1.261,1.261,0,0,1-1.8-.161" transform="translate(-27.228 -23.04)"/>
        <path id="Trazado_140516" data-name="Trazado 140516" d="M101.976,8.16l1.3-1.441c.291.959.54,1.7.736,2.445a1.323,1.323,0,0,0,1.467,1.156l.41,1.9c-.888.429-1.034.7-.871,1.878a21.887,21.887,0,0,1,.252,4.1,11.174,11.174,0,0,1-1.314,5.309,7.935,7.935,0,0,1-2.326,2.384,3.014,3.014,0,0,1-3.527.043c-.414-.228-.138-.391-.029-.562.882-1.388,1.776-2.767,2.661-4.152a3.911,3.911,0,0,0,.358-.652,1.031,1.031,0,0,0-.466-1.353,1.014,1.014,0,0,0-1.36.183,3.828,3.828,0,0,0-.444.6c-.934,1.443-1.87,2.884-2.788,4.338-.232.367-.4.615-.927.39-.494-.21-.443-.461-.353-.867.377-1.7.722-3.409,1.077-5.114a1.528,1.528,0,0,0-.423-1.7c-.38-.26-.129-.527.006-.772a15.2,15.2,0,0,1,2.047-2.746c1.56-1.737,3.034-3.546,4.512-5.353" transform="translate(-44.06 -3.126)" fill="#f93f68"/>
        <path id="Trazado_140517" data-name="Trazado 140517" d="M82.722,77.676a16.677,16.677,0,0,1-5.382-.62c-.306-.136-.286-.391-.195-.633.436-1.165.881-2.327,1.365-3.474.055-.132.136-.275.332-.215,1.237.492,2.47.992,3.713,1.47.3.117.391.258.231.551-.106.194-.186.4-.274.607-.417.962-.265,1.392.643,1.839-.3.02-.4.214-.433.475" transform="translate(-35.866 -33.834)" fill="#915c44"/>
        <path id="Trazado_140518" data-name="Trazado 140518" d="M79.2,108.177a5.407,5.407,0,1,1,5.409-5.424,5.448,5.448,0,0,1-5.409,5.424" transform="translate(-34.315 -45.3)"/>
        <path id="Trazado_140519" data-name="Trazado 140519" d="M52.832,111a5.415,5.415,0,1,1-5.493,5.239A5.393,5.393,0,0,1,52.832,111" transform="translate(-22.024 -51.642)"/>
        <path id="Trazado_140520" data-name="Trazado 140520" d="M33.192,45.494a5.417,5.417,0,1,1-5.409,5.429,5.456,5.456,0,0,1,5.409-5.429" transform="translate(-12.926 -21.167)"/>
        <path id="Trazado_140521" data-name="Trazado 140521" d="M23.673,75.515a5.407,5.407,0,1,1-5.381-5.451,5.461,5.461,0,0,1,5.381,5.451" transform="translate(-5.983 -32.599)"/>
        <path id="Trazado_140522" data-name="Trazado 140522" d="M33.271,102.864a5.413,5.413,0,1,1-5.241-5.487,5.39,5.39,0,0,1,5.241,5.487" transform="translate(-10.443 -45.305)"/>
        <path id="Trazado_140523" data-name="Trazado 140523" d="M87.327,43.605c1.521.608,3.041,1.221,4.566,1.82.3.116.349.244.211.54q-2.9,6.178-5.777,12.367c-.142.3-.255.414-.6.261-1.206-.529-2.427-1.022-3.642-1.528-.527-.394-.151-.834-.007-1.2.817-2.084,1.621-4.174,2.452-6.252.72-1.8,1.39-3.623,2.149-5.408.113-.266.1-.769.652-.6" transform="translate(-38.063 -20.272)" fill="#fbb55f"/>
        <path id="Trazado_140524" data-name="Trazado 140524" d="M97.417,9.414a13.729,13.729,0,0,1-2,2.736A49.421,49.421,0,0,0,91,17.614c-.128.213-.305.4-.145.672-1.014-.289-1.568.036-1.784,1.063-.349,1.656-.72,3.308-1.017,4.973-.1.54-.273.494-.669.338a4.047,4.047,0,0,1-2.47-4.149,8.242,8.242,0,0,1,4.968-7.179c2.036-.988,4.155-1.806,6.1-2.985.488-.3.96-.62,1.44-.932" transform="translate(-39.501 -4.38)" fill="#df2f5e"/>
        <path id="Trazado_140525" data-name="Trazado 140525" d="M85.787,42.792c-.308.009-.316.277-.392.471q-2.4,6.073-4.791,12.15c-.1.259-.294.542-.063.839a.214.214,0,0,1-.074,0c-.657-.283-1.606-.4-1.889-.9-.3-.521.33-1.318.565-1.988,1.284-3.676,2.6-7.341,3.871-11.021.186-.538.368-.645.874-.381.611.319,1.264.557,1.9.83" transform="translate(-36.523 -19.459)" fill="#e1994b"/>
        <path id="Trazado_140526" data-name="Trazado 140526" d="M71.964,75.286a2.437,2.437,0,0,0,.3-1.174c.887.251,1.3.063,1.624-.758.2-.5.391-1.011.54-1.53.122-.427.32-.484.695-.292.435.222.891.4,1.339.6-.619,1.238-1.02,2.565-1.556,3.836a.49.49,0,0,0,.054.487,10.545,10.545,0,0,1-2.993-1.168" transform="translate(-33.482 -33.232)" fill="#7b4935"/>
        <path id="Trazado_140527" data-name="Trazado 140527" d="M81.177,107.873a3.1,3.1,0,0,1-3.117-3.14,3.138,3.138,0,0,1,3.128-3.144,3.2,3.2,0,0,1,3.147,3.154,3.163,3.163,0,0,1-3.158,3.129" transform="translate(-36.319 -47.266)" fill="#47c87e"/>
        <path id="Trazado_140528" data-name="Trazado 140528" d="M57.832,118.393a3.159,3.159,0,0,1-3.118,3.15,3.191,3.191,0,0,1-3.163-3.121,3.144,3.144,0,0,1,3.172-3.16,3.111,3.111,0,0,1,3.109,3.132" transform="translate(-23.985 -53.627)" fill="#fbb55f"/>
        <path id="Trazado_140529" data-name="Trazado 140529" d="M35.284,49.769a3.092,3.092,0,0,1,3.03,3.219,3.15,3.15,0,0,1-3.145,3.059,3.2,3.2,0,0,1-3.13-3.174,3.14,3.14,0,0,1,3.246-3.1" transform="translate(-14.906 -23.156)" fill="#53bbe8"/>
        <path id="Trazado_140530" data-name="Trazado 140530" d="M20.26,74.368a3.145,3.145,0,0,1,3.131,3.144,3.2,3.2,0,0,1-3.169,3.134,3.159,3.159,0,0,1-3.112-3.173,3.1,3.1,0,0,1,3.15-3.105" transform="translate(-7.961 -34.601)" fill="#f93f68"/>
        <path id="Trazado_140531" data-name="Trazado 140531" d="M32.954,104.745a3.107,3.107,0,0,1-3.127,3.127,3.17,3.17,0,0,1-3.149-3.142,3.213,3.213,0,0,1,3.164-3.142,3.138,3.138,0,0,1,3.112,3.157" transform="translate(-12.412 -47.265)" fill="#566368"/>
      </g>
    </g>
  </g>
</svg>
