<svg xmlns="http://www.w3.org/2000/svg" xmlns:xlink="http://www.w3.org/1999/xlink" width="173" height="104" viewBox="0 0 173 104">
  <defs>
    <clipPath id="clip-path">
      <rect id="Rect치ngulo_38296" data-name="Rect치ngulo 38296" width="98.898" height="98.959" fill="none"/>
    </clipPath>
  </defs>
  <g id="Grupo_157516" data-name="Grupo 157516" transform="translate(-313 -2773)">
    <rect id="Rect치ngulo_36142" data-name="Rect치ngulo 36142" width="173" height="104" transform="translate(313 2773)" fill="#e1e8ff"/>
    <g id="Grupo_161194" data-name="Grupo 161194" transform="translate(349.102 2773)">
      <g id="Grupo_161194-2" data-name="Grupo 161194" clip-path="url(#clip-path)">
        <path id="Trazado_140741" data-name="Trazado 140741" d="M49.341,93.009a19.854,19.854,0,0,0-6.14-5.376,3.666,3.666,0,0,1-.68-1.666,29.992,29.992,0,0,0-2.508-7.874,2.142,2.142,0,0,0-.563-.874,13.682,13.682,0,0,1-1.5,2.044c-1.021.877-1.6.762-1.976-.555a12.291,12.291,0,0,0-4.495-6.667,1.11,1.11,0,0,0-1.675.085,8.079,8.079,0,0,1-5.244,2.357c-1.07.045-1.435-.208-1.442-1.282a8.98,8.98,0,0,0-2.287-5.888,4.7,4.7,0,0,0-.382-.433c-1.167-1.08-1.308-1.061-2.287.217a9.923,9.923,0,0,1-4.922,3.4c-1.008.331-1.406.116-1.773-.88a22.88,22.88,0,0,0-1.176-2.952.9.9,0,0,0-1.325-.493c-1.492.6-3.035,1.054-4.562,1.555-1.1.362-1.422.2-1.785-.914A15.834,15.834,0,0,1,2.37,57.97c.015-.062.033-.124.048-.187.347-1.422.313-1.456-1.158-1.461-.432,0-.914.172-1.261-.262v-.386c.4-5.414,6.329-9.384,11.047-9.158,1.767.085,1.967-.255,1.484-1.964-.114-.4-.308-.776-.455-1.167-.311-.831-.042-1.328.823-1.443a39.4,39.4,0,0,1,8.269-.1,21.769,21.769,0,0,1,4.743.768,14.484,14.484,0,0,1,7.381,5.1,14.666,14.666,0,0,0-.279-3.6c-.186-1.138.262-1.484,1.367-1.167,1.058.3,1.922,1.017,2.965,1.342a25.774,25.774,0,0,1,8.9,8.609,23.724,23.724,0,0,1,3.034,7.345,19.512,19.512,0,0,1,.234,2.48c-.028.46.266.836.332,1.272.045,9.005.016,18.009.016,27.014a2.97,2.97,0,0,1-.521,2" transform="translate(0 -19.973)" fill="#884b9c"/>
        <path id="Trazado_140742" data-name="Trazado 140742" d="M68.634,24.789c-.739-1.945-1.494-3.885-2.214-5.838a14.239,14.239,0,0,1-.845-6.053c.054-.717.2-1.029,1.029-.684a20.927,20.927,0,0,0,5.168,1.354c-.255-1.136-.55-2.172-.708-3.23A7.164,7.164,0,0,1,71.526,6c.344-.7.7-.977,1.441-.4a7.062,7.062,0,0,0,2.56,1.06c.674.183,1.038.1,1.232-.676a12.526,12.526,0,0,1,1.857-4.1,10.473,10.473,0,0,1,2-1.894H81A9.815,9.815,0,0,1,84.88,5.988c.209.744.55.894,1.239.71a7.935,7.935,0,0,0,2.735-1.151c.6-.445.89-.226,1.182.311a7.376,7.376,0,0,1,.51,4.7,10.5,10.5,0,0,1-.54,2.241c-.3.809.077.8.651.689a23.089,23.089,0,0,0,4.353-1.214c.878-.362.993-.061,1.057.73a16.056,16.056,0,0,1-1.3,7.232c-.586,1.492-1.152,2.993-1.728,4.489.144.648-.395.815-.779,1.061a24.327,24.327,0,0,0-7.962,8.328,21.571,21.571,0,0,0-2.661,7.176c-.093.519-.071,1.106-.6,1.451a.334.334,0,0,1-.39-.14,23.968,23.968,0,0,0-11.2-17.288c-.269-.175-.535-.353-.8-.529" transform="translate(-31.409)" fill="#efc319"/>
        <path id="Trazado_140743" data-name="Trazado 140743" d="M94.987,63.052c.993-7.543,4.909-13.2,11.181-17.341.293-.193.582-.393.873-.589,1.026-.457,2.054-.91,3.077-1.373.64-.291.869-.171.693.575a23.376,23.376,0,0,0-.549,3.9,1.547,1.547,0,0,0,.307,1.144,19.225,19.225,0,0,1,2.591-2.972,15.216,15.216,0,0,1,8.864-3.608,47.031,47.031,0,0,1,9.145-.02c.667.065.969.155.536.888a6.257,6.257,0,0,0-.745,3.059c-.018.6.164.819.852.752a11.177,11.177,0,0,1,12.055,7.812c.31.971.265,1.031-.761,1.021-.417,0-.836-.014-1.253,0-1.159.029-1.178.052-.81,1.116a15.383,15.383,0,0,1,.139,9.661c-.228.765-.434,1.041-1.3.65-1.691-.765-3.583-1.02-5.23-1.927-.4-.219-.558.017-.736.326a14.655,14.655,0,0,0-1.6,3.792c-.194.788-.489.853-1.2.617a9.684,9.684,0,0,1-5.375-4.261c-.335-.55-.57-.7-1.177-.249a10.066,10.066,0,0,0-4.057,7.707c-.064.815-.274.913-1.057.784a8.4,8.4,0,0,1-5.22-2.808.71.71,0,0,0-1.126-.124,13.428,13.428,0,0,0-4.027,4.306,12.361,12.361,0,0,0-1.4,3.569c-.122.637-.347.622-.8.23a6.057,6.057,0,0,1-1.954-3.542,29.445,29.445,0,0,0-3.9,11.911,20.01,20.01,0,0,0-6.091,5.365c-.023.031-.115.011-.175.016.029-.287.082-.572.083-.858q.006-13.692,0-27.385c0-.321-.022-.642-.034-.963.052-.392-.1-.814.181-1.171" transform="translate(-45.414 -20.394)" fill="#e88592"/>
        <path id="Trazado_140744" data-name="Trazado 140744" d="M98.847,109.56c-.187-1.339-.69-1.554-1.983-1.515a1.856,1.856,0,0,0-1.278.6c-.636.638-1.322,1.22-2.012,1.8a20.247,20.247,0,0,1-10.811,4.691,149.9,149.9,0,0,1-15.289.805,24.4,24.4,0,0,0-11.911,3.078,18.035,18.035,0,0,0-5.38,4.154c-.252.269-.264.761-.749.816-.274.023-.338-.194-.484-.366A15.367,15.367,0,0,0,43.2,119a20.706,20.706,0,0,0-6.082-2.345,44.087,44.087,0,0,0-9.281-.908c-3.434-.087-6.866-.044-10.3-.371a22.563,22.563,0,0,1-14.135-6.548c-1.467-1.446-2.815-1.114-3.406.8v4.052c.194.33.076.69.093,1.036.11,2.13.111,4.27.378,6.386a50.1,50.1,0,0,0,2.643,10.847c1.892,5.209,4.538,9.931,8.867,13.545a20.535,20.535,0,0,0,10.71,4.907c1.013.128,2.039.128,3.059.172a47.43,47.43,0,0,0,10.323-.479,53.71,53.71,0,0,0,11.757-3.681,3.611,3.611,0,0,1,3.13,0,47.048,47.048,0,0,0,23.425,4.119,19.693,19.693,0,0,0,3.6-.434A23.633,23.633,0,0,0,92.343,139a47.075,47.075,0,0,0,6.12-18.75,88.4,88.4,0,0,0,.435-10.114,3.8,3.8,0,0,0-.051-.573M42.313,137.7a27.643,27.643,0,0,1-8.948,1.563,21.854,21.854,0,0,1-16.736-7.641,1.629,1.629,0,0,1,.074-2.609c4.022-2.925,8.343-5.076,13.507-4.76,4.16.254,7.3,2.389,9.879,5.5a25.826,25.826,0,0,1,3.324,5.284,1.737,1.737,0,0,1-1.1,2.667m39.82-6.024a21.647,21.647,0,0,1-16.473,7.585,28.649,28.649,0,0,1-8.961-1.485c-1.593-.53-1.955-1.455-1.2-2.966a24.263,24.263,0,0,1,4.412-6.39A12.967,12.967,0,0,1,72.19,124.5a22.63,22.63,0,0,1,9.666,4.3,1.732,1.732,0,0,1,.276,2.872" transform="translate(0 -51.727)" fill="#24ad5f"/>
        <path id="Trazado_140745" data-name="Trazado 140745" d="M18.34,132.643a1.7,1.7,0,0,1-2.335,1.6,16.67,16.67,0,0,1-5.719-3.828,1.662,1.662,0,0,1-.023-2.277,1.613,1.613,0,0,1,2.334-.167,19.313,19.313,0,0,0,4.866,3.237,1.572,1.572,0,0,1,.877,1.434" transform="translate(-4.708 -61.131)" fill="#efc319"/>
        <path id="Trazado_140746" data-name="Trazado 140746" d="M170.359,127.6a1.665,1.665,0,0,1,1.532,1,1.572,1.572,0,0,1-.256,1.8,16.67,16.67,0,0,1-5.806,3.883,1.64,1.64,0,0,1-2.105-.874,1.619,1.619,0,0,1,.788-2.206,18.453,18.453,0,0,0,4.781-3.21,1.656,1.656,0,0,1,1.067-.4" transform="translate(-78.389 -61.155)" fill="#efc319"/>
        <path id="Trazado_140747" data-name="Trazado 140747" d="M18.088,143.971a1.69,1.69,0,1,1-1.73,1.688,1.714,1.714,0,0,1,1.73-1.688" transform="translate(-7.84 -69.002)" fill="#eec319"/>
        <path id="Trazado_140748" data-name="Trazado 140748" d="M170.245,145.706a1.7,1.7,0,1,1-1.683-1.734,1.717,1.717,0,0,1,1.683,1.734" transform="translate(-79.961 -69.002)" fill="#eec319"/>
        <path id="Trazado_140749" data-name="Trazado 140749" d="M29.492,168.559a1.68,1.68,0,1,1,1.713,1.692,1.7,1.7,0,0,1-1.713-1.692" transform="translate(-14.135 -79.966)" fill="#eec319"/>
        <path id="Trazado_140750" data-name="Trazado 140750" d="M155.478,170.251a1.7,1.7,0,1,1,1.676-1.73,1.7,1.7,0,0,1-1.676,1.73" transform="translate(-73.71 -79.966)" fill="#eec319"/>
        <path id="Trazado_140751" data-name="Trazado 140751" d="M23.031,158.735a1.693,1.693,0,1,1-1.741-1.648,1.664,1.664,0,0,1,1.741,1.648" transform="translate(-9.416 -75.288)" fill="#eec319"/>
        <path id="Trazado_140752" data-name="Trazado 140752" d="M165.313,157.089a1.672,1.672,0,1,1-1.724,1.666,1.671,1.671,0,0,1,1.724-1.666" transform="translate(-78.404 -75.289)" fill="#eec319"/>
        <path id="Trazado_140753" data-name="Trazado 140753" d="M30,62.194A31.051,31.051,0,0,1,53.842,74.3a35.068,35.068,0,0,1,2.537,3.628c.689,1.116.563,2.159-.322,2.711-.917.572-1.836.248-2.541-.918a28.243,28.243,0,0,0-19.67-13.714,29.639,29.639,0,0,0-5.557-.469c-1.34,0-2.01-.561-2.016-1.65s.643-1.645,2-1.691c.577-.019,1.156,0,1.734,0" transform="translate(-12.592 -29.805)" fill="#3d324c"/>
        <path id="Trazado_140754" data-name="Trazado 140754" d="M94.859,81.874a1.647,1.647,0,0,1-.181,1.171,1.986,1.986,0,0,1-.161-1.224l.343.053" transform="translate(-45.286 -39.215)" fill="#dda469"/>
        <path id="Trazado_140755" data-name="Trazado 140755" d="M94.991,36.977c0,.8.03,1.6-.008,2.4a1.724,1.724,0,0,1-1.762,1.761A1.7,1.7,0,0,1,91.543,39.4c-.039-1.632-.044-3.267.008-4.9A1.775,1.775,0,0,1,93.3,32.69a1.826,1.826,0,0,1,1.682,1.789c.006.064.009.128.009.192q0,1.152,0,2.305" transform="translate(-43.86 -15.667)" fill="#f19b1f"/>
        <path id="Trazado_140756" data-name="Trazado 140756" d="M95.008,18.941c0,1.675-.581,2.515-1.739,2.511s-1.733-.839-1.733-2.518.548-2.519,1.691-2.556c1.172-.039,1.78.837,1.781,2.563" transform="translate(-43.871 -7.849)" fill="#f19c1f"/>
        <path id="Trazado_140757" data-name="Trazado 140757" d="M132.205,61.818c.4.021.888.012,1.363.08a1.825,1.825,0,0,1,1.776,1.988,1.9,1.9,0,0,1-2.156,1.617,24.67,24.67,0,0,0-9.371,1.316,28.661,28.661,0,0,0-15.331,12.129c-.228.349-.433.718-.693,1.042a1.734,1.734,0,0,1-2.459.5,1.773,1.773,0,0,1-.451-2.471,35.938,35.938,0,0,1,3.529-4.931A31.373,31.373,0,0,1,127.245,62.3a33.908,33.908,0,0,1,4.961-.48" transform="translate(-50.121 -29.628)" fill="#802d40"/>
      </g>
    </g>
  </g>
</svg>
