<svg xmlns="http://www.w3.org/2000/svg" xmlns:xlink="http://www.w3.org/1999/xlink" width="173" height="116" viewBox="0 0 173 116">
  <defs>
    <clipPath id="clip-path">
      <rect id="Rect치ngulo_38295" data-name="Rect치ngulo 38295" width="85.93" height="105.643" fill="none"/>
    </clipPath>
  </defs>
  <g id="Grupo_157513" data-name="Grupo 157513" transform="translate(-313 -2639)">
    <rect id="Rect치ngulo_36141" data-name="Rect치ngulo 36141" width="173" height="116" transform="translate(313 2639)" fill="#e1e8ff"/>
    <g id="Grupo_161193" data-name="Grupo 161193" transform="translate(350 2642.799)">
      <g id="Grupo_161193-2" data-name="Grupo 161193" clip-path="url(#clip-path)">
        <path id="Trazado_140705" data-name="Trazado 140705" d="M90.3,84.645l3.678.05a1.9,1.9,0,0,1,.388,1.47q.012,8.439,0,16.876a2.35,2.35,0,0,1-.246,1.3,2.2,2.2,0,0,1-1.684.373c-2.482.017-4.965-.006-7.447.013-1.233.009-1.339.13-1.368,1.325-.016.629.019,1.259-.025,1.889.043.6.015,1.192.024,1.789.02,1.341.106,1.437,1.489,1.444,2.908.012,5.816-.014,8.724.014a10.092,10.092,0,0,1,3.219.182,1.885,1.885,0,0,1,.629,1.806,14.48,14.48,0,0,1-2.545,8.177,4.221,4.221,0,0,0-.809,2.592c.032,2.526.016,5.053.006,7.58a1.862,1.862,0,0,1-.352,1.471q-15.757.008-31.513.034c-.814,0-.882-.33-.876-.984.026-2.98,0-5.96.022-8.94a2.3,2.3,0,0,0-.51-1.527,14.41,14.41,0,0,1-2.924-7.136,10.972,10.972,0,0,1,2.612-9.41,2.691,2.691,0,0,0,.66-1.836q0-8.474,0-16.949a2.543,2.543,0,0,1,.292-1.629c1.274-.554,2.61-.175,3.914-.257a3.872,3.872,0,0,1,1.361.123,2.13,2.13,0,0,1,1,1.387c.327.861.831,1.639,1.136,2.507.215,1.776.056,3.561.1,5.342.028,1.16.019,1.162,1.108.8a2.56,2.56,0,0,1,1.084-.21c.591.09.7.611.9,1.036,1.772,3.693,3.445,7.431,5.173,11.145a.873.873,0,0,0,.326.472c.437-.08.476-.51.612-.816,1.656-3.706,3.528-7.31,5.187-11.015.148-.329.213-.727.6-.906a3.1,3.1,0,0,1,1.283.341c.937.328.972.3,1-.726a47.429,47.429,0,0,1,.1-4.8c.512-1.218,1.024-2.437,1.641-3.607.186-.353.325-.749.73-.935a1.321,1.321,0,0,1,1.294.151" transform="translate(-18.837 -27.384)" fill="#354766"/>
        <path id="Trazado_140706" data-name="Trazado 140706" d="M90.395,57.262l-1.439.057a3.273,3.273,0,0,1-2,.3c-.141,0-.282,0-.423,0-1.544-.068-1.721-.225-1.73-1.751-.01-1.959-.045-3.919.023-5.879a15.983,15.983,0,0,1,.092-3.127c.312-.77,1.08-1,1.708-1.356a3.269,3.269,0,0,0,1.811-3.261c-.094-4.425-.032-8.851-.033-13.278a4.66,4.66,0,0,1,.2-1.735c.039-.142-.256-.065-.107-.058-.618,1.781-1.93,1.988-3.524,1.554a3.045,3.045,0,0,1-1.916-2.842,2.686,2.686,0,0,1,1.686-2.61c1.984-.465,3.147-.024,3.844,1.377a11.405,11.405,0,0,1-.111-3.411,4.791,4.791,0,0,0-2.625-4.749c-4.553-2.771-9.145-5.478-13.694-8.256-1.221-.745-1.236-.745-2.1.456-2.416,3.358-4.806,6.735-7.217,10.1a3.726,3.726,0,0,1-.861,1.02,1.24,1.24,0,0,1-.334.14c-1.109-.005-2.221.355-3.327-.02C58,14.47,59.4,9.581,63.248,5.577A17.475,17.475,0,0,1,76.212.018c3.116-.018,6.23-.166,9.274.869a17.931,17.931,0,0,1,12.2,16.934q0,15.208,0,30.416A8.864,8.864,0,0,1,90.671,57.1a1.127,1.127,0,0,0-.276.163" transform="translate(-18.927 0)" fill="#79432a"/>
        <path id="Trazado_140707" data-name="Trazado 140707" d="M111.3,133.157c.01-3.2.034-6.408.018-9.611a2.935,2.935,0,0,1,.594-1.839,13.31,13.31,0,0,0,2.573-9.975c.129-1.217.08-2.438.1-3.658-.038-.7-.039-1.409-.009-2.111.036-.828-.338-1.1-1.129-1.108-.714-.007-1.494.223-2.118-.359q-.015-9.818-.031-19.636a10.176,10.176,0,0,1,7.1,1.726,8.341,8.341,0,0,1,3.639,6.832c.07,12.894.024,25.79.047,38.684,0,.814-.2,1.1-1.055,1.088-3.241-.052-6.484-.029-9.726-.034" transform="translate(-36.15 -27.549)" fill="#d5d5d3"/>
        <path id="Trazado_140708" data-name="Trazado 140708" d="M57.3,87.191q0,8.656.007,17.313a1.62,1.62,0,0,1-.362,1.234,11.8,11.8,0,0,0-3.222,9.195,3.394,3.394,0,0,1-.027.444c-.288-.313-.184-.7-.2-1.067a3.705,3.705,0,0,0-.159-1.167c-.558,1.523-1.107,3.049-1.679,4.566-1.255,3.329-2.335,6.722-3.742,9.994-.669-1.161-.415-2.475-.52-3.7-.407-4.747-.716-9.5-1.138-14.25a8.39,8.39,0,0,1-.019-.893c-.04-2.33-.049-4.659,0-6.988-.08-1.795.188-3.606-.252-5.383-.3-1.135-1.4-1.759-1.807-2.83a1.371,1.371,0,0,1,.369-.976,1.242,1.242,0,0,1,.511-.181c1.714-.061,3.427,0,5.14-.034a6.674,6.674,0,0,0,6.3-4.206c.187-.4.162-.991.8-1.067" transform="translate(-14.35 -28.32)" fill="#d5d5d3"/>
        <path id="Trazado_140709" data-name="Trazado 140709" d="M42.542,119.143c.291,3.462.672,6.921.845,10.389.14,2.813.577,5.607.506,8.432a5.92,5.92,0,0,1-5,4.447,6.208,6.208,0,0,1-6.948-4.613,3.719,3.719,0,0,1-.139-1.1q0-8.776.007-17.551a1.845,1.845,0,0,1,1.361-.361q4-.017,8,0a1.885,1.885,0,0,1,1.365.354" transform="translate(-10.331 -38.581)" fill="#dfdfdd"/>
        <path id="Trazado_140710" data-name="Trazado 140710" d="M30.659,91.8l-.469.072c-.714.525-1.551.154-2.315.319-5.179.018-10.357.009-15.536.006a2.387,2.387,0,0,1-1.608-.323c-1.772-.163-3.566.167-5.33-.263A7.3,7.3,0,0,1,.012,85.456c-.073-.689.19-.794.789-.792,3.308.011,6.616-.014,9.924-.025,1.169-.593,2.416-.223,3.627-.3q7.1-.071,14.2,0c1.2-.026,2.4-.039,3.6,0a17.739,17.739,0,0,1,3.418.114c.613.311.491.857.4,1.361A7.291,7.291,0,0,1,30.659,91.8" transform="translate(0 -27.38)" fill="#49648d"/>
        <path id="Trazado_140711" data-name="Trazado 140711" d="M67.143,71.78l-1.407-.055a9.316,9.316,0,0,1-3.562-3.116,18.364,18.364,0,0,1-4.314-12.017,59.106,59.106,0,0,1,.074-6.011,1.692,1.692,0,0,1,.186-.321q.023-2.789.048-5.578a7.969,7.969,0,0,1,3.433.045c.656.545.406,1.3.419,1.972A15.942,15.942,0,0,0,69.59,60.172c.53.313,1.165.544,1.352,1.246a20.435,20.435,0,0,1,.065,3.022c.065,1.974.036,3.947.022,5.921-.01,1.472-.192,1.633-1.681,1.7-.138,0-.278,0-.416,0a3.02,3.02,0,0,1-1.79-.288" transform="translate(-18.78 -14.454)" fill="#743b20"/>
        <path id="Trazado_140712" data-name="Trazado 140712" d="M37.345,100.355c.737,1.4.345,2.906.437,4.366.026.408,0,.818,0,1.228a1.713,1.713,0,0,1-1.25.361q-4.116.023-8.231,0a1.841,1.841,0,0,1-1.263-.333,10.5,10.5,0,0,1-7.152-1.822,7.556,7.556,0,0,1-2.731-3.55,1.782,1.782,0,0,1,1.462-.376c5.875-.014,11.75,0,17.625-.012a6.779,6.779,0,0,1,1.1.136" transform="translate(-5.572 -32.552)" fill="#fdc8a2"/>
        <path id="Trazado_140713" data-name="Trazado 140713" d="M31.793,108.737l10.744-.029q0,3.581,0,7.163l-10.729.007-.016-7.141" transform="translate(-10.327 -35.309)" fill="#eaeae8"/>
        <path id="Trazado_140714" data-name="Trazado 140714" d="M36.935,98.827c-.363.392-.839.222-1.263.223q-9.462.026-18.926.028a6.409,6.409,0,0,1-.853-3.564H33.137c.716.174,1.5.2,2,.869a8.541,8.541,0,0,1,1.8,2.445" transform="translate(-5.162 -31.024)" fill="#fdbf93"/>
        <path id="Trazado_140715" data-name="Trazado 140715" d="M60.164,39.943a17.949,17.949,0,0,1-3.554-.244c-2.076-1.055-3.535-2.574-3.581-5.041-.048-2.57,1.421-4.165,3.581-5.262a16.579,16.579,0,0,1,3.559-.232,1.681,1.681,0,0,1,.365,1.346q.024,4.044,0,8.089a1.667,1.667,0,0,1-.369,1.344" transform="translate(-17.224 -9.473)" fill="#fdb683"/>
        <path id="Trazado_140716" data-name="Trazado 140716" d="M31.763,53.068l12.089,0a.594.594,0,0,1-.064.627,47.115,47.115,0,0,1-3.367,4.887,1.284,1.284,0,0,1-.34.113c-1.346.109-2.7.02-4.042.069-.433.059-.679-.217-.9-.522-1.155-1.611-2.362-3.186-3.43-4.859a.346.346,0,0,1,.053-.31" transform="translate(-10.295 -17.235)" fill="#dfdfdd"/>
        <path id="Trazado_140717" data-name="Trazado 140717" d="M9.262,58.649,5.316,53.063H17.384a.514.514,0,0,1-.022.529,40.263,40.263,0,0,1-3.44,5,1.339,1.339,0,0,1-.356.108,25.037,25.037,0,0,1-4.3-.051" transform="translate(-1.727 -17.235)" fill="#dfdfdd"/>
        <path id="Trazado_140718" data-name="Trazado 140718" d="M19.483,79.138h-3.6q.008-5.7.016-11.392a4.587,4.587,0,0,1,3.643-.018,1.71,1.71,0,0,1,.28,1.055q.036,4.608,0,9.217a1.485,1.485,0,0,1-.341,1.138" transform="translate(-5.159 -21.879)" fill="#dfdfdd"/>
        <path id="Trazado_140719" data-name="Trazado 140719" d="M44.725,58.373c.935-1.89,2.358-3.473,3.359-5.321l5.782-.022v.248a29.321,29.321,0,0,1-3.289,4.882,1.338,1.338,0,0,1-.843.515,33.693,33.693,0,0,1-4,.061,1.152,1.152,0,0,1-1.007-.364" transform="translate(-14.527 -17.225)" fill="#d5d5d3"/>
        <path id="Trazado_140720" data-name="Trazado 140720" d="M18.215,58.384c.935-1.89,2.358-3.473,3.359-5.321l5.811,0c0,.063,0,.126,0,.19-1.151,1.987-2.2,4.054-4.153,5.429a33.381,33.381,0,0,1-4.009.062,1.153,1.153,0,0,1-1.009-.364" transform="translate(-5.916 -17.235)" fill="#d5d5d3"/>
        <path id="Trazado_140721" data-name="Trazado 140721" d="M17.035,60.943l5.33.078c.147.33-.059.577-.223.81-.767,1.089-1.557,2.163-2.32,3.254a1.12,1.12,0,0,1-.776.577H15.477a5.271,5.271,0,0,1-.895-1.337,7.842,7.842,0,0,1,2.229-3.308l.223-.073" transform="translate(-4.736 -19.795)" fill="#dd4132"/>
        <path id="Trazado_140722" data-name="Trazado 140722" d="M15.7,61.017,13.47,64.325l-2.31-3.116c1.5-.485,3.026-.14,4.539-.192" transform="translate(-3.625 -19.796)" fill="#f25244"/>
        <path id="Trazado_140723" data-name="Trazado 140723" d="M74.066,84.916l.264-.017a52.958,52.958,0,0,1,7.376,2.756,3.234,3.234,0,0,0,2.553.006A52.57,52.57,0,0,1,91.635,84.9l.277.019a5.719,5.719,0,0,1,.055,4.131v6.419a9.984,9.984,0,0,1-2.712-.98c-.416.312-.787.026-1.149-.113-1.354-.519-2.7-1.051-4.038-1.619a2.66,2.66,0,0,0-2.148-.008,41.9,41.9,0,0,1-5.2,1.963,4.511,4.511,0,0,0-1.795.558c-.606.28-.923.252-.9-.578.047-2.086.012-4.173.01-6.26-.329-1.176-.67-2.353.035-3.519" transform="translate(-23.923 -27.576)" fill="#2e3e51"/>
        <path id="Trazado_140724" data-name="Trazado 140724" d="M78.2,98.162a51.242,51.242,0,0,1,6.1-2.606c.341-.149.643.12.945.235,1.834.706,3.66,1.43,5.489,2.148a1.129,1.129,0,0,1-.192.845q-2.872,6.047-5.745,12.095c-.074.154-.1.37-.42.427L78.2,98.162" transform="translate(-25.398 -31.023)" fill="#d5d5d3"/>
        <path id="Trazado_140725" data-name="Trazado 140725" d="M50.545,84.912h7.162q0,.77-.009,1.539c-.345.19-.284.581-.394.872a7.072,7.072,0,0,1-6.763,4.709c-1.712,0-3.423-.022-5.134-.034.591-.768,1.58-.9,2.317-1.463a7.229,7.229,0,0,0,2.821-5.623" transform="translate(-14.749 -27.58)" fill="#425b82"/>
        <path id="Trazado_140726" data-name="Trazado 140726" d="M109.7,119.156c.011.957.026,1.915.033,2.873,0,.321.08.694-.419.735-4.285-.013-8.57-.047-12.854-.02-.809,0-1.151-.16-1.061-1.032.087-.849.041-1.711.053-2.568a1.917,1.917,0,0,1,1.479-.355q5.647-.017,11.295,0a1.9,1.9,0,0,1,1.475.368" transform="translate(-30.982 -38.581)" fill="#f88400"/>
        <path id="Trazado_140727" data-name="Trazado 140727" d="M109.644,117.537,95.4,117.525c-.032-1.146-.481-2.6.147-3.349.6-.712,2.1-.2,3.2-.22,2.454-.044,4.909-.034,7.363-.047.924.012,1.851.061,2.773.024.639-.025.847.209.813.83-.049.923-.033,1.849-.045,2.774" transform="translate(-30.925 -36.962)" fill="#feb431"/>
        <path id="Trazado_140728" data-name="Trazado 140728" d="M100.751,89.051q-.027-2.066-.055-4.132l2.039-.027a28.456,28.456,0,0,1-1.984,4.159" transform="translate(-32.707 -27.574)" fill="#d5d3cf"/>
        <path id="Trazado_140729" data-name="Trazado 140729" d="M73.408,84.917q-.017,1.759-.035,3.519A21.781,21.781,0,0,1,71.628,84.9l1.78.015" transform="translate(-23.265 -27.577)" fill="#d6d1cc"/>
        <path id="Trazado_140730" data-name="Trazado 140730" d="M63.587,35.97q0-5.39,0-10.779V25.2a2.139,2.139,0,0,1,.826-.327,7.547,7.547,0,0,0,5.255-3.623c.826-1.194,1.639-2.4,2.516-3.555.681-.9,1.018-.967,1.982-.4,3.691,2.17,7.314,4.46,11.037,6.57,1.808,1.024,2.174,2.47,1.93,4.3a.922.922,0,0,1-.487.818c-2.173.991-2.173,3.369,0,4.965a.957.957,0,0,1,.5.925,23.778,23.778,0,0,1-1.332,10.085,20.074,20.074,0,0,1-7,9.033,9.825,9.825,0,0,1-6.246-1.72A18.411,18.411,0,0,1,66.193,46.5,17.45,17.45,0,0,1,63.587,35.97" transform="translate(-20.647 -5.499)" fill="#fdc8a2"/>
        <path id="Trazado_140731" data-name="Trazado 140731" d="M91.96,81.288c-2.685,1.267-5.49,2.242-8.231,3.373a.882.882,0,0,1-.742.045c-2.769-1.16-5.614-2.135-8.332-3.421,1.5-.063,1.492-.063,1.5-1.551.007-1.953.022-3.905.034-5.857.452-.288.765.071,1.109.248a12.314,12.314,0,0,0,12.029,0c.342-.18.656-.537,1.109-.25.011,1.952.025,3.9.032,5.857.005,1.5,0,1.5,1.495,1.554" transform="translate(-24.249 -23.96)" fill="#fdc8a2"/>
        <path id="Trazado_140732" data-name="Trazado 140732" d="M86.663,27a7.385,7.385,0,0,0,.16-3.3c-.043-.648-.784-.891-1.254-1.182-3.937-2.434-7.911-4.807-11.871-7.2-.512-.31-.806-.069-1.1.347-1.045,1.481-2.1,2.957-3.17,4.417A7,7,0,0,1,63.6,23.21c2.843-4,5.694-7.986,8.517-12,.333-.473.569-.519,1.057-.221Q80.927,15.719,88.7,20.4a3.348,3.348,0,0,1,1.712,2.726c.1,1.8.027,3.606.027,5.521-1.182-1.767-1.975-2.1-3.778-1.653" transform="translate(-20.659 -3.51)" fill="#fdbf93"/>
        <path id="Trazado_140733" data-name="Trazado 140733" d="M86.147,61.229c.631-1,1.721-1.505,2.5-2.359a20.042,20.042,0,0,0,5.374-11.233c.226-1.788.093-3.559.185-5.335a1.688,1.688,0,0,0-.221-.963c1.78.442,2.614.1,3.794-1.661v7.555c0,3.016-.02,6.032.016,9.048a1.583,1.583,0,0,1-.728,1.5q-1.443.942-2.884,1.886c-.073.129-.135.284-.265.35a12.53,12.53,0,0,1-7.4,1.44.616.616,0,0,1-.369-.23" transform="translate(-27.981 -12.888)" fill="#fdbf92"/>
        <path id="Trazado_140734" data-name="Trazado 140734" d="M83.147,70.843a16.033,16.033,0,0,0,8.035-1.56l-.016,3.134A12.877,12.877,0,0,1,86.7,74.263c-3.3.37-6.52.4-9.363-1.706a1.409,1.409,0,0,0-.415-.14q0-1.57-.009-3.14a19.527,19.527,0,0,0,6.237,1.566" transform="translate(-24.981 -22.502)" fill="#fdb684"/>
        <path id="Trazado_140735" data-name="Trazado 140735" d="M43.431,96.383l-2-.869h2.213a1.342,1.342,0,0,1-.216.87" transform="translate(-13.458 -31.024)" fill="#fdfdfc"/>
        <path id="Trazado_140736" data-name="Trazado 140736" d="M42.4,79.139q.007-5.7.015-11.393a4.335,4.335,0,0,1,3.569,0q.008,5.7.015,11.393H42.4" transform="translate(-13.77 -21.88)" fill="#dfdfdd"/>
        <path id="Trazado_140737" data-name="Trazado 140737" d="M45.556,65.661H41.987a5.3,5.3,0,0,1-.895-1.337,7.844,7.844,0,0,1,2.229-3.309l.223-.072,5.333.083-3.323,4.635" transform="translate(-13.347 -19.795)" fill="#dd4132"/>
        <path id="Trazado_140738" data-name="Trazado 140738" d="M42.21,61.017l-2.229,3.308-2.31-3.116c1.5-.485,3.026-.14,4.539-.192" transform="translate(-12.236 -19.796)" fill="#f25244"/>
        <path id="Trazado_140739" data-name="Trazado 140739" d="M81.558,50.386a1.636,1.636,0,0,1,1.962,1.068c.49,1.144,2.4.983,2.9-.211a1.262,1.262,0,0,1,1.537-.858c.111.009.223,0,.335,0,2.283,0,2.408.2,1.4,2.261a5.31,5.31,0,0,1-5.431,3.1,5.758,5.758,0,0,1-4.675-4.374c-.166-.733.046-1.067.823-.993.3.028.6,0,1.145,0" transform="translate(-25.834 -16.36)" fill="#f6a368"/>
        <path id="Trazado_140740" data-name="Trazado 140740" d="M74.19,34.49a2.812,2.812,0,0,1,2.754,2.639,2.741,2.741,0,0,1-2.662,2.725,2.665,2.665,0,0,1-2.687-2.681,2.5,2.5,0,0,1,2.6-2.684" transform="translate(-23.254 -11.203)" fill="#7a432a"/>
      </g>
    </g>
  </g>
</svg>
