<svg id="Grupo_161152" data-name="Grupo 161152" xmlns="http://www.w3.org/2000/svg" xmlns:xlink="http://www.w3.org/1999/xlink" width="131.698" height="198.394" viewBox="0 0 131.698 198.394">
  <defs>
    <clipPath id="clip-path">
      <rect id="Rectángulo_38287" data-name="Rectángulo 38287" width="3.231" height="3.245" fill="none"/>
    </clipPath>
    <clipPath id="clip-path-2">
      <rect id="Rectángulo_38288" data-name="Rectángulo 38288" width="0.624" height="1.286" fill="none"/>
    </clipPath>
    <clipPath id="clip-path-3">
      <rect id="Rectángulo_38289" data-name="Rectángulo 38289" width="2.244" height="3.885" fill="none"/>
    </clipPath>
    <clipPath id="clip-path-4">
      <rect id="Rectángulo_38290" data-name="Rectángulo 38290" width="1.067" height="1.551" fill="none"/>
    </clipPath>
  </defs>
  <g id="Grupo_161177" data-name="Grupo 161177">
    <path id="Trazado_140620" data-name="Trazado 140620" d="M163.817,233.041l-12.545,12.48-9.254-9.707-.814.777,9.27,9.724-14.746,14.67.793.8L151.25,247.13,168.3,265.008Zm-.8,2.385L166.7,261.7l-14.647-15.363Z" transform="translate(-109.677 -93.832)" fill="#8a5632"/>
    <path id="Trazado_140621" data-name="Trazado 140621" d="M165.466,233.433l-12.545,12.48-9.254-9.707-.814.777,9.27,9.724-14.746,14.671.793.8L152.9,247.522,169.944,265.4Zm-.8,2.385,3.681,26.273L153.7,246.728Z" transform="translate(-112.311 -93.99)" fill="#704629"/>
    <path id="Trazado_140622" data-name="Trazado 140622" d="M131.18,218.112l11.442,66.4h2.626l-6.565-66.587Z" transform="translate(-83.912 -87.745)" fill="#c47b48"/>
    <path id="Trazado_140623" data-name="Trazado 140623" d="M188.579,209.648,177.137,281.1h-2.626l6.565-71.651Z" transform="translate(-153.129 -84.332)" fill="#c47b48"/>
    <g id="Grupo_161174" data-name="Grupo 161174">
      <g id="Grupo_161176" data-name="Grupo 161176">
        <path id="Trazado_140624" data-name="Trazado 140624" d="M144.405,125.809c0,8.483,38.026,14.375,34.122,21.031a42.213,42.213,0,0,1-36.935,20.89,44.454,44.454,0,1,1,0-88.907c24.551,0,2.814,22.434,2.814,46.986" transform="translate(-97.138 -31.737)" fill="#fadd7e"/>
        <path id="Trazado_140625" data-name="Trazado 140625" d="M53.683,66.737a.218.218,0,0,0,.075-.013.225.225,0,0,0,.138-.287,10.25,10.25,0,0,0-9.005-7.184.225.225,0,0,0,0,.45,9.79,9.79,0,0,1,8.58,6.883.224.224,0,0,0,.212.15" transform="translate(59.107 -23.858)" fill="#9fa4c9"/>
        <path id="Trazado_140627" data-name="Trazado 140627" d="M59.124,41.6V58.547A16.438,16.438,0,0,1,57.6,65.47a16.438,16.438,0,0,0-1.529,6.923V77.7A1.764,1.764,0,0,1,54.3,79.465h-5.41A1.764,1.764,0,0,1,47.129,77.7V72.393A16.438,16.438,0,0,0,45.6,65.47a16.438,16.438,0,0,1-1.529-6.923V41.6Z" transform="translate(54.246 -16.749)" fill="#fcc095"/>
        <path id="Trazado_140628" data-name="Trazado 140628" d="M55.254,85.346a.353.353,0,0,0,.353-.353V79.686a17.969,17.969,0,0,1,1.659-7.517,15.125,15.125,0,0,0,1.4-6.329V59.71H46.434v6.13a15.125,15.125,0,0,0,1.4,6.329,17.97,17.97,0,0,1,1.66,7.517v5.307a.353.353,0,0,0,.352.353Z" transform="translate(53.295 -24.042)" fill="#d97f3f"/>
        <rect id="Rectángulo_38285" data-name="Rectángulo 38285" width="12.289" height="5.88" transform="translate(99.67 29.788)" fill="#ffe9d9"/>
        <path id="Trazado_140629" data-name="Trazado 140629" d="M53.389,86.243a.745.745,0,1,0,.745-.744.745.745,0,0,0-.745.744" transform="translate(52.926 -34.425)" fill="#f79148"/>
        <path id="Trazado_140630" data-name="Trazado 140630" d="M54.834,90.576a.353.353,0,1,0,.353-.353.353.353,0,0,0-.353.353" transform="translate(51.402 -36.327)" fill="#f79148"/>
        <path id="Trazado_140631" data-name="Trazado 140631" d="M59.23,79.6a.666.666,0,1,0,.667-.667.666.666,0,0,0-.667.667" transform="translate(43.752 -31.783)" fill="#f79148"/>
        <path id="Trazado_140632" data-name="Trazado 140632" d="M57,76.31a.392.392,0,1,0,.392-.392A.392.392,0,0,0,57,76.31" transform="translate(47.865 -30.568)" fill="#f79148"/>
        <path id="Trazado_140633" data-name="Trazado 140633" d="M50.5,71.139a.47.47,0,1,0,.47-.47.47.47,0,0,0-.47.47" transform="translate(58.086 -28.454)" fill="#f79148"/>
        <path id="Trazado_140634" data-name="Trazado 140634" d="M49.255,60.272a.431.431,0,1,0,.431-.431.431.431,0,0,0-.431.431" transform="translate(60.156 -24.094)" fill="#f79148"/>
        <path id="Trazado_140635" data-name="Trazado 140635" d="M60.345,67.238a1.1,1.1,0,1,0,1.1-1.1,1.1,1.1,0,0,0-1.1,1.1" transform="translate(41.109 -26.631)" fill="#f79148"/>
        <path id="Trazado_140636" data-name="Trazado 140636" d="M62.773,71.23A.431.431,0,1,0,63.2,70.8a.431.431,0,0,0-.431.431" transform="translate(38.563 -28.507)" fill="#f79148"/>
        <path id="Trazado_140637" data-name="Trazado 140637" d="M55.818,96.861a.666.666,0,1,0,.667-.666.667.667,0,0,0-.667.666" transform="translate(49.203 -38.732)" fill="#f79148"/>
        <path id="Trazado_140639" data-name="Trazado 140639" d="M30.529,219.512c-1.676,3.352-2,6.233,5.024,43.359-1.119-3.622,6.674,17.162,6.674,17.162s5.857,3,5.176,3.405-12.055.272-13.076-.885-3.133-6.606-6.061-7.9c.272,1.839.885,7.764.885,7.764a4.145,4.145,0,0,1-1.566-.068,66,66,0,0,0-2.724-11.987c-1.158-3.269,0-5.585,1.226-7.9s-8.518-32.842-12.4-37.337c-2.932-26.394,16.842-5.614,16.842-5.614" transform="translate(84.238 -85.255)" fill="#fb8b76"/>
        <path id="Trazado_140640" data-name="Trazado 140640" d="M25.787,315.217a14.111,14.111,0,0,0,5.552-.9c.772.4,5.7,2.974,5.072,3.351-.681.409-12.055.272-13.076-.885s-3.133-6.606-6.061-7.9c.272,1.839.885,7.764.885,7.764a4.145,4.145,0,0,1-1.566-.068,66.023,66.023,0,0,0-2.725-11.987c-1.148-3.24-.02-5.543,1.194-7.839,1.17,5.671,8.088,18.086,10.725,18.463" transform="translate(95.231 -119.485)" fill="#381d1d"/>
        <path id="Trazado_140641" data-name="Trazado 140641" d="M73.48,270.662l-.032.061s2.262-1.8,3.156-8.233,1.609-25.2,2.323-30.386l14.478,2.681s-10.854,27.662-10.472,36.028c.822,1.777,6.687,17.42,6.687,17.42s5.857,3,5.176,3.4-12.055.272-13.076-.885-3.133-6.606-6.061-7.9c.272,1.839.885,7.764.885,7.764a4.144,4.144,0,0,1-1.566-.068,66.013,66.013,0,0,0-2.724-11.987c-1.158-3.269,0-5.585,1.226-7.9" transform="translate(1.968 -93.455)" fill="#fb8b76"/>
        <path id="Trazado_140642" data-name="Trazado 140642" d="M84.173,315.217a14.111,14.111,0,0,0,5.552-.9c.772.4,5.7,2.974,5.072,3.351-.681.409-12.055.272-13.076-.885s-3.133-6.606-6.061-7.9c.272,1.839.885,7.764.885,7.764a4.145,4.145,0,0,1-1.566-.068,66.023,66.023,0,0,0-2.725-11.987c-1.148-3.24-.02-5.543,1.194-7.839,1.17,5.671,8.088,18.086,10.725,18.463" transform="translate(1.967 -119.485)" fill="#381d1d"/>
        <path id="Trazado_140643" data-name="Trazado 140643" d="M89.5,220.446l-2.32,18.713H67.078c.774-12.991,5.877-37.735,5.877-37.735l12.836-.155Z" transform="translate(10.124 -81.04)" fill="#9e1c2f"/>
        <path id="Trazado_140644" data-name="Trazado 140644" d="M53.891,159.568s44.849,3.866,46.086,5.1,3.712,2.475,5.877,10.517,11.29,45.313,11.29,45.313H93.636l-5.413-33.868a1.577,1.577,0,0,1-1.7-.774c-2.629.928-9.743-1.237-21.961-.773s-32.476.155-36.961-7.733-.735-22.424-.735-22.424Z" transform="translate(7.383 -62.38)" fill="#b32035"/>
        <path id="Trazado_140645" data-name="Trazado 140645" d="M158.308,153.9v3.364c-7.191,1.159-20.994.928-27.025-4.64.348-2.435.464-3.422.464-3.422Z" transform="translate(-97.035 -60.074)" fill="#851726"/>
        <path id="Trazado_140646" data-name="Trazado 140646" d="M49.07,136.252c1.991-1.163,3.847-4.643,4.833-4.874s6.031-2.784,6.321-3.306,1.45,1.276-.29,3.248-1.8,2.262-.406,2.435,7.888,1.74,7.539,2.61a2.354,2.354,0,0,1-2.493,1.508c-1.218-.174-.58.29-.522.87s-1.392.928-1.8,1.972a5.851,5.851,0,0,1-4.407,3.015c-2.2.232-8.815-1.093-8.815-1.093Z" transform="translate(43.327 -51.53)" fill="#fb8b76"/>
        <path id="Trazado_140647" data-name="Trazado 140647" d="M68.47,112.025c7.887,7.075,25.749,5.625,26.561,4.7,0,0,.232-1.334.232-1.682,0,0,10.787.116,16.006.116s10.206-.29,11.309-1.044c.174-.058,3.306-.116,3.306-.116l.232-6.147s-2.553-.522-3.073-.522-2.9-1.624-4.409-2.03c-.174-.058,5.974-8.989,7.714-12s5.8-10.439,5.974-12.817l1.856-2.493a31.344,31.344,0,0,1-4.871-4.929s-9.887,10.4-13.049,13.976c-3.518,3.982-4.582,6.785-4.987,8a1.271,1.271,0,0,0-1.334.464S95.669,69.922,95.38,69.516s-.406-1.392.522-3.19-4.64-6.205-5.278-6.727l-8.235-2.726a33.4,33.4,0,0,0-4,2.088c-.116.29.232,1.218.058,1.392-.406.348-7.713,5.162-10.206,9.4S65.165,81.637,66.325,89.06s2.842,20.3,2.146,22.965" transform="translate(-33.758 -22.899)" fill="#fff"/>
        <path id="Trazado_140648" data-name="Trazado 140648" d="M110.585,3.107c-5.749,1.321-9.168,9.789-6.759,15.227s3.5,8.7,1.4,10.644-2.564,4.273.233,5.361a2.2,2.2,0,0,1,.544-2.1,2.353,2.353,0,0,1,.233,2.1,10.7,10.7,0,0,0,3.885.7,19.578,19.578,0,0,1,1.087-2.486,11.29,11.29,0,0,0-.233,2.176h2.564s7.459-.466,8.08-.466a18.38,18.38,0,0,1,5.283,1.01,4.46,4.46,0,0,1,.427-2.8,4.7,4.7,0,0,0,.039,2.8,4.607,4.607,0,0,0,2.292.622c1.088-.932.233-2.913.233-2.913.932,1.01.349,2.991.349,2.991a3.579,3.579,0,0,0,3.03-3.69c1.049,2.292-.582,3.38-.582,3.38a29.736,29.736,0,0,0,4.079.466c-.777-1.049,1.36-3.535,1.36-3.535a5.246,5.246,0,0,0,0,3.5,10.537,10.537,0,0,0,3.069-.349c-1.864-2.253-1.321-3.652.467-6.526s1.864-7.847-3.186-9.867-6.914-4.506-6.759-9.012S130.551.544,125.967,0c-2.564,1.165-3.5,1.243-7.769.932a12.653,12.653,0,0,0-7.614,2.175" transform="translate(-64.628)" fill="#381d1d"/>
        <path id="Trazado_140649" data-name="Trazado 140649" d="M128.1,44.616c-.373-1.226-1.136-.815-3.5-1.253s-6.729-2.855-6.351-5.157c2.331-2.33,3.234-6.526,3.234-10.4s.612-4.02.612-4.02c3.321-1.108,1.137-5.944.758-8.362A7.085,7.085,0,0,1,127.9,7.966c2.621,2.156,5.594,4.487,7.282,7.692.059,1.281-.349,2.156.175,3.088s4.312,4.021,4.254,4.429-1.748,1.4-2.011,1.894a.847.847,0,0,0,.2,1.194c.379.583.087,1.195-.7,1.806.08.229-.509.849-.133,1.243a.751.751,0,0,1,.231.505,2.337,2.337,0,0,1-.369,1.446c-.2.175-.728-.2-.787.67s.708,2.166.213,2.661a5.379,5.379,0,0,1-4.021.582c-1.631-.379-2.244-.694-2.679-.029-1.165,1.778-1.953,5.536-1.34,6.614s1.11,1.177.64,2.563c-.487,1.44-.448,1.308-.757.292" transform="translate(-70.54 -3.207)" fill="#fb8b76"/>
        <path id="Trazado_140650" data-name="Trazado 140650" d="M124.077,41.349l2.1-.131.318.238c.08.229-.509.849-.133,1.243a.881.881,0,0,1,.185.286l-.036.016-1.159-.174-2.044-.638-.968-.695Z" transform="translate(-59.933 -16.596)" fill="#fff"/>
        <path id="Trazado_140651" data-name="Trazado 140651" d="M125.776,38.517c.02.016.038.032.06.046.379.582.087,1.195-.7,1.806a11.007,11.007,0,0,1-4.157.039,30.722,30.722,0,0,0,4.8-1.891" transform="translate(-58.573 -15.509)" fill="#b3313e"/>
        <path id="Trazado_140652" data-name="Trazado 140652" d="M131.275,26.069c.057.581.324,1.029.6,1s.447-.519.389-1.1-.324-1.029-.6-1-.447.519-.389,1.1" transform="translate(-70.986 -10.053)" fill="#381d1d"/>
        <path id="Trazado_140653" data-name="Trazado 140653" d="M129.859,25.635a.14.14,0,0,0,.125-.078c.7-1.419,1.082-1.557,1.2-1.547.149.008.26.226.327.407a.138.138,0,0,0,.085.084.141.141,0,0,0,.119-.013,1.621,1.621,0,0,0,.725-.964.14.14,0,0,0-.274-.059,1.364,1.364,0,0,1-.462.691c-.132-.271-.3-.414-.506-.425-.407-.027-.882.519-1.468,1.7a.14.14,0,0,0,.063.188.145.145,0,0,0,.062.014" transform="translate(-70.238 -9.404)" fill="#381d1d"/>
        <path id="Trazado_140654" data-name="Trazado 140654" d="M130.294,21.913a6.788,6.788,0,0,1,3.846-2.894c-1.2-.893-2.525-.641-3.846,2.894" transform="translate(-72.275 -7.482)" fill="#381d1d"/>
        <path id="Trazado_140655" data-name="Trazado 140655" d="M131.031,18.711c-.524-.5-.883-.437-.883-.437.524-.291.719-.233.883.437" transform="translate(-69.08 -7.291)" fill="#381d1d"/>
        <path id="Trazado_140656" data-name="Trazado 140656" d="M149.224,35.96a2.51,2.51,0,1,1-1.287-3.308,2.509,2.509,0,0,1,1.287,3.308" transform="translate(-96.009 -13.061)" fill="#fb8b76"/>
        <g id="Grupo_161157" data-name="Grupo 161157" transform="translate(49.176 20.617)" style="mix-blend-mode: multiply;isolation: isolate">
          <g id="Grupo_161156" data-name="Grupo 161156" transform="translate(0)">
            <g id="Grupo_161155" data-name="Grupo 161155" clip-path="url(#clip-path)">
              <path id="Trazado_140657" data-name="Trazado 140657" d="M148.349,34.656a1.689,1.689,0,0,0-2.223.865l.2.09a1.465,1.465,0,0,1,1.929-.75,1.445,1.445,0,0,1,.309.191,1.418,1.418,0,0,0-.731,2.708l.09-.2a1.2,1.2,0,0,1,.924-2.208,1.46,1.46,0,0,1,.159,1.444l.2.09a1.689,1.689,0,0,0-.865-2.223" transform="translate(-146.126 -34.513)" fill="#fbc4ba"/>
            </g>
          </g>
        </g>
        <path id="Trazado_140658" data-name="Trazado 140658" d="M122.855,35.717c.036.054-.1.016-.326.167s-.455.437-.492.382a.887.887,0,0,1,.36-.579.343.343,0,0,1,.458.03" transform="translate(-56.061 -14.34)" fill="#381d1d"/>
        <g id="Grupo_161160" data-name="Grupo 161160" transform="translate(65.352 21.147)" style="mix-blend-mode: multiply;isolation: isolate">
          <g id="Grupo_161159" data-name="Grupo 161159" transform="translate(0)">
            <g id="Grupo_161158" data-name="Grupo 161158" clip-path="url(#clip-path-2)">
              <path id="Trazado_140659" data-name="Trazado 140659" d="M123.931,36.686a.079.079,0,0,1-.02,0,.64.64,0,0,1-.436-.369.911.911,0,0,1,.108-.864.1.1,0,1,1,.179.105.717.717,0,0,0-.1.674.435.435,0,0,0,.288.251.1.1,0,0,1-.02.205" transform="translate(-123.41 -35.4)" fill="#fbc4ba"/>
            </g>
          </g>
        </g>
        <g id="Grupo_161163" data-name="Grupo 161163" transform="translate(52.554 24.069)" style="mix-blend-mode: multiply;isolation: isolate">
          <g id="Grupo_161162" data-name="Grupo 161162" transform="translate(0)">
            <g id="Grupo_161161" data-name="Grupo 161161" clip-path="url(#clip-path-3)">
              <path id="Trazado_140660" data-name="Trazado 140660" d="M144.194,44.178a.17.17,0,0,1-.122-.051,8.977,8.977,0,0,1-1.943-3.612.173.173,0,1,1,.331-.1,8.813,8.813,0,0,0,1.856,3.466.172.172,0,0,1,0,.244.17.17,0,0,1-.122.051" transform="translate(-142.123 -40.293)" fill="#fbc4ba"/>
            </g>
          </g>
        </g>
        <path id="Trazado_140661" data-name="Trazado 140661" d="M111.863,42.3l.216-.413a2.844,2.844,0,0,1-1.279-1.935,4.894,4.894,0,0,1,1.237-4.123,7.345,7.345,0,0,0,1.612-6.221c-.5-2-2.081-3.618-4.558-4.684l-1.06-.453c-5.048-2.15-6.937-2.954-7.951-8.291l-.458.087c1.06,5.582,3.158,6.475,8.226,8.634l1.059.452c2.339,1.006,3.823,2.517,4.291,4.37a6.879,6.879,0,0,1-1.526,5.818,5.341,5.341,0,0,0-1.327,4.509,3.352,3.352,0,0,0,1.518,2.251" transform="translate(-33.637 -6.516)" fill="#381d1d"/>
        <path id="Trazado_140662" data-name="Trazado 140662" d="M112.419,39.852l.165-.436a2.843,2.843,0,0,1-1.5-1.766,4.893,4.893,0,0,1,.729-4.242,7.344,7.344,0,0,0,.848-6.371c-.743-1.923-2.5-3.34-5.091-4.1l-1.107-.321c-5.271-1.523-7.243-2.093-8.9-7.269l-.444.142c1.728,5.413,3.918,6.045,9.21,7.575l1.105.321c2.444.716,4.1,2.036,4.787,3.819a6.879,6.879,0,0,1-.811,5.96,5.338,5.338,0,0,0-.772,4.637,3.351,3.351,0,0,0,1.78,2.051" transform="translate(-31.369 -6.179)" fill="#381d1d"/>
        <path id="Trazado_140663" data-name="Trazado 140663" d="M126.516,43.393a2.338,2.338,0,0,1-.369,1.446.215.215,0,0,1-.093.044,17.6,17.6,0,0,1-3.793-3.2,10.341,10.341,0,0,0,4.024,1.2.755.755,0,0,1,.231.506" transform="translate(-59.853 -16.783)" fill="#c73546"/>
        <path id="Trazado_140664" data-name="Trazado 140664" d="M134.418,74.874a.228.228,0,0,0,.1-.022.232.232,0,0,0,.109-.31A8.349,8.349,0,0,1,134.16,72a6.035,6.035,0,0,0-.537-2.531.537.537,0,0,0-.552-.286c-.612.109-1.041,1.545-1.2,2.158a.232.232,0,0,0,.449.115,3.568,3.568,0,0,1,.83-1.816.252.252,0,0,1,.088.092,6.05,6.05,0,0,1,.458,2.308,8.6,8.6,0,0,0,.51,2.706.231.231,0,0,0,.21.131" transform="translate(-73.724 -27.852)" fill="#ebc99e"/>
        <path id="Trazado_140665" data-name="Trazado 140665" d="M144.432,74.377a.234.234,0,0,0,.087-.017.231.231,0,0,0,.143-.192c.238-2.435.768-4.615,1.134-4.664.149.078.19.86.215,1.327.059,1.1.131,2.476.988,2.886a.232.232,0,0,0,.2-.419c-.608-.291-.673-1.511-.725-2.492-.044-.821-.075-1.414-.371-1.659a.468.468,0,0,0-.368-.1c-.869.115-1.311,3.026-1.49,4.658-.428-.318-.969-.663-1.573-1.048a20.819,20.819,0,0,1-5.824-4.909.232.232,0,0,0-.375.274,21.19,21.19,0,0,0,5.949,5.026,19.006,19.006,0,0,1,1.86,1.277.235.235,0,0,0,.15.055" transform="translate(-89.132 -27.239)" fill="#ebc99e"/>
        <path id="Trazado_140666" data-name="Trazado 140666" d="M119.728,113.214a.232.232,0,0,0,.223-.17,60.666,60.666,0,0,1,2.815-6.8c1.334-2.934,2.486-5.468,2.529-6.4.033-.71-.8-2.446-2.284-5.454-1.907-3.873-4.279-8.695-4.6-11.746a.228.228,0,0,0-.254-.207.232.232,0,0,0-.207.254c.327,3.135,2.72,8,4.644,11.9,1.165,2.366,2.265,4.6,2.237,5.227-.038.843-1.283,3.582-2.487,6.23a60.783,60.783,0,0,0-2.839,6.864.232.232,0,0,0,.161.286.251.251,0,0,0,.063.008" transform="translate(-56.057 -33.193)" fill="#ebc99e"/>
        <path id="Trazado_140667" data-name="Trazado 140667" d="M132.362,98.627l.029,0a.232.232,0,0,0,.2-.259A34.144,34.144,0,0,0,130.9,92.5c-1.121-3.248-2.39-6.93-2.254-9.558a.232.232,0,0,0-.22-.244.229.229,0,0,0-.244.219c-.14,2.719,1.145,6.445,2.278,9.734a33.932,33.932,0,0,1,1.667,5.772.232.232,0,0,0,.23.2" transform="translate(-69.464 -33.297)" fill="#ebc99e"/>
        <path id="Trazado_140668" data-name="Trazado 140668" d="M128.149,125.172a.232.232,0,0,0,.217-.148,37.763,37.763,0,0,0,1.791-7.629.232.232,0,1,0-.46-.063,37.124,37.124,0,0,1-1.765,7.525.233.233,0,0,0,.134.3.224.224,0,0,0,.083.015" transform="translate(-66.876 -47.161)" fill="#ebc99e"/>
        <path id="Trazado_140669" data-name="Trazado 140669" d="M137.691,87.148a.7.7,0,1,0,.7-.7.7.7,0,0,0-.7.7" transform="translate(-81.637 -34.809)" fill="#ebc99e"/>
        <path id="Trazado_140670" data-name="Trazado 140670" d="M132.642,104.688a.7.7,0,1,0,.7-.7.7.7,0,0,0-.7.7" transform="translate(-73.572 -41.871)" fill="#ebc99e"/>
        <path id="Trazado_140671" data-name="Trazado 140671" d="M131.413,121.645a.7.7,0,1,0,.7-.7.7.7,0,0,0-.7.7" transform="translate(-71.609 -48.699)" fill="#ebc99e"/>
        <path id="Trazado_140672" data-name="Trazado 140672" d="M80.929,143.845a.7.7,0,1,0,.7-.7.7.7,0,0,0-.7.7" transform="translate(9.032 -57.638)" fill="#ebc99e"/>
        <path id="Trazado_140673" data-name="Trazado 140673" d="M161.682,80.6a.233.233,0,0,0,.217-.313c-2.3-6.157-5.825-9.33-10.477-9.43a.232.232,0,0,0-.01.464c4.444.1,7.826,3.167,10.052,9.128a.232.232,0,0,0,.217.151" transform="translate(-112.53 -28.529)" fill="#ebc99e"/>
        <path id="Trazado_140674" data-name="Trazado 140674" d="M120.788,128.654a.232.232,0,0,0,.232-.223l.232-6.147a.232.232,0,0,0-.193-.237l-3.038-.516a39.865,39.865,0,0,0-4.18-1.912c-1.161-.369-18.334-3.18-22.338-2.419a1.58,1.58,0,0,0-.825-.671,1.428,1.428,0,0,0-1.039.093c-.976-2.14-8.661-19.031-10.33-23.768a.232.232,0,1,0-.438.154c1.781,5.055,10.361,23.84,10.447,24.029a.232.232,0,0,0,.329.1,1.1,1.1,0,0,1,.888-.17,1.2,1.2,0,0,1,.639.589.23.23,0,0,0,.266.128c3.6-.871,21.092,2,22.261,2.373a41.125,41.125,0,0,1,4.139,1.9.25.25,0,0,0,.069.023l2.873.487-.224,5.944a.232.232,0,0,0,.223.241h.009" transform="translate(-28.661 -37.324)" fill="#ebc99e"/>
        <path id="Trazado_140675" data-name="Trazado 140675" d="M85.381,147.777a.231.231,0,0,0,.23-.206,28.8,28.8,0,0,0,0-5.444.237.237,0,0,0-.254-.207.233.233,0,0,0-.207.254,28.391,28.391,0,0,1,0,5.344.232.232,0,0,0,.2.256l.026,0" transform="translate(3.091 -57.143)" fill="#ebc99e"/>
        <path id="Trazado_140676" data-name="Trazado 140676" d="M68.542,92.422a.7.7,0,1,0-.131-.975.7.7,0,0,0,.131.975" transform="translate(29.256 -36.71)" fill="#ebc99e"/>
        <path id="Trazado_140677" data-name="Trazado 140677" d="M74.147,93.492a.232.232,0,0,0,.161-.4,28.885,28.885,0,0,0-4.328-3.3.232.232,0,1,0-.243.4,28.3,28.3,0,0,1,4.249,3.24.232.232,0,0,0,.161.065" transform="translate(23.725 -36.14)" fill="#ebc99e"/>
        <path id="Trazado_140678" data-name="Trazado 140678" d="M155.8,138.5c.39,0,.643,0,.691-.005a.231.231,0,0,0,.228-.236.235.235,0,0,0-.236-.228c-.061,0-6.041.1-7.533-.78-1.208-.716-12.321-15.107-18.028-22.617a.232.232,0,0,0-.37.281c.676.889,16.574,21.795,18.161,22.735,1.3.77,5.429.849,7.087.849" transform="translate(-94.983 -46.119)" fill="#ebc99e"/>
        <path id="Trazado_140679" data-name="Trazado 140679" d="M101.485,126.29a.231.231,0,0,0,.228-.192,18.49,18.49,0,0,0,.186-5.081.619.619,0,0,1,.277-.292.879.879,0,0,1,.649-.006c.021.06.053.163.084.263a17.257,17.257,0,0,0,1.348,3.214.232.232,0,1,0,.409-.219,16.815,16.815,0,0,1-1.314-3.133,1.675,1.675,0,0,0-.174-.453.227.227,0,0,0-.108-.079,1.373,1.373,0,0,0-1.11,0,1.072,1.072,0,0,0-.524.614.233.233,0,0,0-.006.109,18.122,18.122,0,0,1-.174,4.982.232.232,0,0,0,.189.268.219.219,0,0,0,.039,0" transform="translate(-25.481 -48.396)" fill="#ebc99e"/>
        <g id="Grupo_161166" data-name="Grupo 161166" transform="translate(101.318 83.327)" style="mix-blend-mode: multiply;isolation: isolate">
          <g id="Grupo_161165" data-name="Grupo 161165" transform="translate(0)">
            <g id="Grupo_161164" data-name="Grupo 161164" clip-path="url(#clip-path-4)">
              <path id="Trazado_140680" data-name="Trazado 140680" d="M62.925,139.492c.29.464.087,1.392-.464,1.508,1.218.29,1.421-.957.464-1.508" transform="translate(-62.461 -139.492)" fill="#fbc4ba"/>
            </g>
          </g>
        </g>
        <g id="Grupo_161169" data-name="Grupo 161169" transform="translate(100.429 86.284)" style="mix-blend-mode: multiply;isolation: isolate">
          <g id="Grupo_161168" data-name="Grupo 161168" transform="translate(0)">
            <g id="Grupo_161167" data-name="Grupo 161167" clip-path="url(#clip-path-4)">
              <path id="Trazado_140681" data-name="Trazado 140681" d="M64.414,144.443c.29.464.087,1.392-.464,1.508,1.218.29,1.421-.957.464-1.508" transform="translate(-63.95 -144.443)" fill="#fbc4ba"/>
            </g>
          </g>
        </g>
        <g id="Grupo_161172" data-name="Grupo 161172" transform="translate(99.675 89.097)" style="mix-blend-mode: multiply;isolation: isolate">
          <g id="Grupo_161171" data-name="Grupo 161171" transform="translate(0)">
            <g id="Grupo_161170" data-name="Grupo 161170" clip-path="url(#clip-path-4)">
              <path id="Trazado_140682" data-name="Trazado 140682" d="M65.676,149.152c.29.464.087,1.392-.464,1.508,1.218.29,1.421-.957.464-1.508" transform="translate(-65.212 -149.152)" fill="#fbc4ba"/>
            </g>
          </g>
        </g>
        <path id="Trazado_140683" data-name="Trazado 140683" d="M64.308,73s2.3-3.8,1.851-5.515a10.363,10.363,0,0,1,.224-6.2,14.222,14.222,0,0,0,.9-4.555c.9.149,1.867,1.717,1.195,4.779S70.042,76.74,70.042,76.74l-.863,1.185S64.772,74.777,64.308,73" transform="translate(31.24 -22.841)" fill="#fb8b76"/>
      </g>
    </g>
  </g>
</svg>
