<svg xmlns="http://www.w3.org/2000/svg" xmlns:xlink="http://www.w3.org/1999/xlink" width="173" height="101" viewBox="0 0 173 101">
  <defs>
    <clipPath id="clip-path">
      <rect id="Rect치ngulo_38297" data-name="Rect치ngulo 38297" width="42.185" height="89" fill="none"/>
    </clipPath>
  </defs>
  <g id="Grupo_161199" data-name="Grupo 161199" transform="translate(-313 -2995)">
    <rect id="Rect치ngulo_36124" data-name="Rect치ngulo 36124" width="173" height="101" transform="translate(313 2995)" fill="#e1e8ff"/>
    <g id="Grupo_161195" data-name="Grupo 161195" transform="translate(378 3001)">
      <g id="Grupo_161195-2" data-name="Grupo 161195" clip-path="url(#clip-path)">
        <path id="Trazado_140758" data-name="Trazado 140758" d="M108.238,311.122c-.123-.237-.375-.4-.38-.7-.121-.344.084-.445.349-.384,2.087.483,3.916-.456,5.795-1.064,1.181-.382,2.309-.917,3.451-1.409a4.512,4.512,0,0,0,2.51-2.145.483.483,0,0,1,.278-.2c.682.516.391,1.072.016,1.571a7.991,7.991,0,0,1-3.62,2.422c-1.631.66-3.353,1.04-5.026,1.569-.264.084-.576.08-.764.34Z" transform="translate(-78.467 -222.121)" fill="#57bfea"/>
        <path id="Trazado_140759" data-name="Trazado 140759" d="M54.529,189.582a106.351,106.351,0,0,0-4.179-11.434,15.728,15.728,0,0,1-.959-4.044,12.743,12.743,0,0,0-.853-4.053c-1.754-3.556-2.943-7.394-5.226-10.688-.013-.019-.053-.02-.081-.029-1.274-1.383-2.385-2.9-3.6-4.331a20.338,20.338,0,0,0-2.013-2.274,7.946,7.946,0,0,1-2.877-5.467,6.227,6.227,0,0,1,.685-2.566c.215-.346.326-.773.746-.961a1.23,1.23,0,0,1,.977.246c1.576.928,3.354.981,5.1,1.2.668.085.731-.527,1.048-.826.056.032.082.045.107.06.383.233.042.964.626,1a3.907,3.907,0,0,0,1.156-.337c.81-.218,1.635-.362,2.457-.517a1.018,1.018,0,0,1,.981.162,3.369,3.369,0,0,1-.143.85,1,1,0,0,0,.224,1.3c.409.4.231,1.047.406,1.569a126.416,126.416,0,0,1,3.718,14.237c.372,1.767,1.344,3.43,1.453,5.242a61.751,61.751,0,0,0,1.3,7.588c.433,2.327.948,4.639,1.444,6.954a12.915,12.915,0,0,0,2.359,4.681,3.944,3.944,0,0,1-2.521,2.638c-.789.224-1.61.513-2.332-.2" transform="translate(-25.28 -104.581)" fill="#425a6b"/>
        <path id="Trazado_140760" data-name="Trazado 140760" d="M52.209,74.668a15.33,15.33,0,0,0-4.956,1.154,8.37,8.37,0,0,1-.37-1.344c.08.8-.3.957-.993.886-1.986-.2-3.994-.286-5.7-1.521a.5.5,0,0,0-.5-.052c-.07-.224.074-.387.168-.558a14.124,14.124,0,0,0,1.408-3.661,7.531,7.531,0,0,0-.41-3.894c-.007-.028-.025-.062-.015-.084,1.011-2.511,1.7-5.159,3.185-7.467a.909.909,0,0,1,.452-.39.692.692,0,0,0,.565-.589,8.249,8.249,0,0,0,.238-4.439A2.5,2.5,0,0,0,41.645,51.1a.811.811,0,0,1-.89.152.441.441,0,0,1,.03-.562,3.668,3.668,0,0,0,.6-3.108.338.338,0,0,1,.215-.141,7.882,7.882,0,0,1,4.525,2.368,1.8,1.8,0,0,0,.848.837A3.968,3.968,0,0,1,49.1,53a17.455,17.455,0,0,0,2.065,3.37,3.683,3.683,0,0,1,.7,2.268,14.8,14.8,0,0,0,.171,3.7,7.732,7.732,0,0,1,.717,4.43c-.006.14-.077.277-.032.423-.277.421-.046.872.033,1.255.383,1.859-.1,3.752.29,5.607.141.673-.663.262-.841.616" transform="translate(-28.871 -34.523)" fill="#e7e9e7"/>
        <path id="Trazado_140761" data-name="Trazado 140761" d="M12.559,157.041a7.893,7.893,0,0,0,1.645,4.005c.9.974,1.911,1.846,2.717,2.908,1.3,1.71,2.9,3.189,3.955,5.085-.575,1.51-1.18,3.01-1.716,4.534a21.15,21.15,0,0,1-2.472,5.234c-2.48,3.534-3.925,7.577-5.754,11.432a19.6,19.6,0,0,0-1.419,4.355c-.153.72.077,1.509-.132,2.254A3.188,3.188,0,0,1,5.037,198q-.5-.343-1.016-.654c.471-1.381.788-2.805,1.157-4.209,1.186-4.514,2.4-9.054,4.65-13.2a27.6,27.6,0,0,0,3.565-15.159,5.426,5.426,0,0,0-.55-2.339c-.476-.32-.46-.894-.695-1.34a6.194,6.194,0,0,1,.411-4.057" transform="translate(-2.926 -114.286)" fill="#344a5e"/>
        <path id="Trazado_140762" data-name="Trazado 140762" d="M21.826,98.731a11.777,11.777,0,0,0-.2,4.1,3.869,3.869,0,0,1,.2,1.986,9.946,9.946,0,0,1-.725,3.358c-.035.106-.055.286-.183.233-.849-.354-1.946.313-2.642-.645-.99.245-.612-1.141-1.419-1.2-.177-.013-.095-.516-.036-.8a10.53,10.53,0,0,1,1.283-3.385,9.615,9.615,0,0,0,1.038-4.16A94.633,94.633,0,0,1,21.17,86.019c.224-.922.331-1.873.492-2.811a15.627,15.627,0,0,1,1.177-5.435,1.313,1.313,0,0,1,.665-.656,5.428,5.428,0,0,1,2.4-.134,2.49,2.49,0,0,1,1.889.918,1.032,1.032,0,0,1,.092,1.348,15.224,15.224,0,0,0-2.26,4.562c-.4,1.108-.89,2.183-1.34,3.273a.483.483,0,0,1,.042.416c-.848,1.882-.723,3.935-1.027,5.91A11.351,11.351,0,0,1,22.5,96.12a10.751,10.751,0,0,0-.677,2.611" transform="translate(-12.193 -55.976)" fill="#f4b44c"/>
        <path id="Trazado_140763" data-name="Trazado 140763" d="M28.721,40.546a3.332,3.332,0,0,0-1.039,2.112c-.289,1.255-.556,2.515-.832,3.773a4.98,4.98,0,0,1-1.313-2.693l-.23.433a.919.919,0,0,1-.126-.84,2.82,2.82,0,0,0-.3-2.079,4.362,4.362,0,0,1-.076-2.475,1.592,1.592,0,0,0-.19-1.327l-.61,2.985a6.175,6.175,0,0,1,.279-3.31,14.59,14.59,0,0,0,.421-6.011,5.294,5.294,0,0,1,.64-3.093,3.071,3.071,0,0,1,1.915-1.64.721.721,0,0,1,.7.509,4.6,4.6,0,0,0,1.406,4.056,1.6,1.6,0,0,1,.619,1.268,2.717,2.717,0,0,1-.3,2.91,7.845,7.845,0,0,0-.4.751c.031.252-.017.479-.313.5-.208.013-.145-.247-.221-.33a21.471,21.471,0,0,0-1.26,5.264c.236-.485.48-1,1.188-.974a.133.133,0,0,1,.045.214" transform="translate(-17.381 -19.199)" fill="#425a6b"/>
        <path id="Trazado_140764" data-name="Trazado 140764" d="M37.273,6.387a9.39,9.39,0,0,1,.565-3.3A3.891,3.891,0,0,1,39.6,1.031a6.729,6.729,0,0,1,7.82.455c.392.367.687.727.2,1.229-.646,0-1.006.248-.984.974.02.646-.487,1.028-.927,1.392a4.459,4.459,0,0,0-1.6,1.881c-.143.405-.422.421-.723.114A3.348,3.348,0,0,0,42.78,6.6c-1.129-.712-1.537-.528-1.752.792A4.191,4.191,0,0,0,41.2,9.268a1.58,1.58,0,0,1-1.12,2.028c-1.772-.406-2.433-1.443-2.139-2.663a1.8,1.8,0,0,0,.011-.94c-.14-.479-.662-.762-.675-1.306" transform="translate(-27.121 0.001)" fill="#425a6b"/>
        <path id="Trazado_140765" data-name="Trazado 140765" d="M85.79,78.22c-.352-.637-.083-1.334-.194-1.995-.161-.953-.327-1.905-.491-2.858,2.746-1.1,4.693-3.2,6.6-5.336.256-.288.173-.654.2-1a10.725,10.725,0,0,1,.119-2.148A4.286,4.286,0,0,1,93.619,62.6c.354.323.079.68.053,1.045.482.125,1.1-.359,1.469.426.226.478.956.645,1.088,1.267.041.192.22.273.272.4.222.548.764,1.166.118,1.7-2.909,2.4-4.858,5.714-7.74,8.139-1.037.873-2.059,1.764-3.088,2.647" transform="translate(-61.935 -45.553)" fill="#fed05c"/>
        <path id="Trazado_140766" data-name="Trazado 140766" d="M50.509,14.078c-.008-.421-.148-.867.316-1.175.506-.335.945-.082,1.373.137a3.244,3.244,0,0,1,1.254,1.024c.2-1.392,1.316-1.926,2.148-2.7a1.259,1.259,0,0,0,.441-1.056c-.026-.982.261-1.146,1.206-.792a5.4,5.4,0,0,1,.725,2.99,3.6,3.6,0,0,0,.7,1.829c.231.47.383.866-.3,1.069a.531.531,0,0,0-.361.541c-.03.754-.361,1.455-.355,2.222.007,1.017-.582,1.435-1.59,1.206-.224-.051-.455-.073-.683-.108a13.891,13.891,0,0,1-4.533-4.156,1.269,1.269,0,0,1-.336-1.03" transform="translate(-36.738 -6.8)" fill="#fed05c"/>
        <path id="Trazado_140767" data-name="Trazado 140767" d="M107.334,305.674a3.339,3.339,0,0,0,4.335-2.017c.1-.295.194-.464.518-.423a12.563,12.563,0,0,0,5.37.41,3.993,3.993,0,0,1,2.3.126A3.609,3.609,0,0,1,117.811,306a35.677,35.677,0,0,1-7.972,2.87,3.838,3.838,0,0,1-1.8-.022c-.18-.049-.452-.255-.564.122a1.512,1.512,0,0,1-.084-1.255,3.743,3.743,0,0,0-.058-2.039" transform="translate(-78.084 -220.672)" fill="#e7e9e7"/>
        <path id="Trazado_140768" data-name="Trazado 140768" d="M1.718,303.756c.213.106.405-.132.687.079,1.516,1.135,2.612,1.084,4.085-.09.2-.16.395-.326.592-.49.643.523,1.29,1.042,1.929,1.57a14.331,14.331,0,0,0,4.112,1.918c.491.195,1,.373.91,1.062a3.124,3.124,0,0,1-2.622.869,51.334,51.334,0,0,1-8.29-1.207A3.139,3.139,0,0,1,.856,305.9c.283-.717.984-1.265.862-2.145" transform="translate(-0.623 -220.692)" fill="#e7e9e7"/>
        <path id="Trazado_140769" data-name="Trazado 140769" d="M47.392,26.733A13.557,13.557,0,0,0,51.8,31.456c.179.132.444.17.458.462-.959.7-1.1,1.794-1.389,2.819-.608-.146-.994-.641-1.492-.96a10.7,10.7,0,0,0-3.054-1.309,2.14,2.14,0,0,1,.2-1.858,1.447,1.447,0,0,0,.922-1.951c-.131-.632-.459-1.273-.06-1.926" transform="translate(-33.622 -19.455)" fill="#f4b44c"/>
        <path id="Trazado_140770" data-name="Trazado 140770" d="M.233,312.974c1.669,1.65,3.9,1.659,6,2.03,1.185.209,2.409.193,3.594.4a5.794,5.794,0,0,0,3.584-.526c-.753,1.34-2.12,1.374-3.388,1.524-1.9.225-3.721-.375-5.556-.751a12.38,12.38,0,0,1-3.644-1.057c-.906-.5-1-.65-.589-1.62" transform="translate(0 -227.765)" fill="#57bfea"/>
        <path id="Trazado_140771" data-name="Trazado 140771" d="M36.5,23.462l.827,1.019c-.085.271-.247.387-.529.262q-.286-.242-.57-.485c.1-.264-.247-.677.272-.8" transform="translate(-26.346 -17.074)" fill="#e97664"/>
        <path id="Trazado_140772" data-name="Trazado 140772" d="M34.861,174.07l-.2-1.986a4.861,4.861,0,0,1,.481,1.3l-.278.684" transform="translate(-25.222 -125.233)" fill="#e5dac7"/>
        <path id="Trazado_140773" data-name="Trazado 140773" d="M38.052,64.033c-.7.139-.968.732-1.3,1.316a11.963,11.963,0,0,1,1.406-6.081c.028.3.05.518.082.863l.371-.59a1.1,1.1,0,0,0,.635-.217,2.772,2.772,0,0,1,4.221,2.138,13.376,13.376,0,0,1-.225,3.734,1.993,1.993,0,0,1-.537,1.065c-.182.2-.282.111-.309-.123,0-1.343-.252-1.61-1.916-2.04a6.331,6.331,0,0,0-2.431-.065" transform="translate(-26.712 -42.865)" fill="#f2f2f2"/>
        <path id="Trazado_140774" data-name="Trazado 140774" d="M41.653,77.176a3.11,3.11,0,0,1,2.431.065,6.782,6.782,0,0,0-2.431.114c0-.06,0-.12,0-.179" transform="translate(-30.313 -56.008)" fill="#81857b"/>
      </g>
    </g>
  </g>
</svg>
