<svg xmlns="http://www.w3.org/2000/svg" xmlns:xlink="http://www.w3.org/1999/xlink" width="173" height="116" viewBox="0 0 173 116">
  <defs>
    <clipPath id="clip-path">
      <rect id="Rect치ngulo_38298" data-name="Rect치ngulo 38298" width="123.746" height="99.148" fill="none"/>
    </clipPath>
  </defs>
  <g id="Grupo_161123" data-name="Grupo 161123" transform="translate(-313 -2639)">
    <rect id="Rect치ngulo_36141" data-name="Rect치ngulo 36141" width="173" height="116" transform="translate(313 2639)" fill="#e1e8ff"/>
    <g id="Grupo_161197" data-name="Grupo 161197" transform="translate(338 2647)">
      <g id="Grupo_161196" data-name="Grupo 161196" clip-path="url(#clip-path)">
        <path id="Trazado_140775" data-name="Trazado 140775" d="M255.891,63.469c-1.137,3.22-3.644,4.346-6.816,4.5a7.312,7.312,0,0,0-2.733.867,1.554,1.554,0,0,1-2.216-1.5,15.4,15.4,0,0,1,2.658-7.751,4.855,4.855,0,0,1,5.041-2.1,4.548,4.548,0,0,1,3.83,3.409,1.839,1.839,0,0,0,.235.4Z" transform="translate(-132.146 -31.066)" fill="#9fd8e6"/>
        <path id="Trazado_140776" data-name="Trazado 140776" d="M40.706,127.9c1.2-.454,2.436-.1,3.652-.19a10.72,10.72,0,0,1,6,1.422,17.1,17.1,0,0,0,15.757,0,19,19,0,0,1,6-1.679,4.71,4.71,0,0,1,.8-.105,19.6,19.6,0,0,1,8.52,1.922,17.092,17.092,0,0,0,15.161.043,31.821,31.821,0,0,1,3.6-1.38c1.191-.266,2.4-.41,3.608-.584a18.843,18.843,0,0,1,5.616.777,35.3,35.3,0,0,1,5.011,2.23,1.773,1.773,0,0,1,.926.713c2.9,1.965,5.862,1.823,8.867.243q2.082-1.1,4.187-2.146a4.611,4.611,0,0,1,6.883,4.243c-.158,7.968-.026,15.94-.076,23.911-.032,5.115-5.062,10.148-10.181,10.525-2.7.2-5.384.161-8.074.163q-46.313.036-92.625.025a3.973,3.973,0,0,1-2.236-.22,1.623,1.623,0,0,1,1.354-.35q18.057-.014,36.116,0a1.983,1.983,0,0,1,.825.121,43.037,43.037,0,0,1-13.177-7.359,25.254,25.254,0,0,1-7.834-11.946c-.839-2.743-.469-3.231,2.414-3.027a16.592,16.592,0,0,1,6.018,1.648,18.684,18.684,0,0,0,15.005.805,5.929,5.929,0,0,0,1.919-1,1.287,1.287,0,0,0,.477-1.7,1.392,1.392,0,0,0-1.648-.694,10.069,10.069,0,0,0-1.591.565,15.508,15.508,0,0,1-12.437-.462,20.7,20.7,0,0,0-9.2-2.146c-1.67.031-1.858-.2-1.883-1.881A29.417,29.417,0,0,1,40.5,129.653a2.572,2.572,0,0,0,.206-1.755" transform="translate(-11.965 -68.93)" fill="#9fd8e6"/>
        <path id="Trazado_140777" data-name="Trazado 140777" d="M28.741,128.558c.99-.032.632.6.454,1.028a34.2,34.2,0,0,0-1.964,6.8,29.64,29.64,0,0,0-.407,5.384c0,.641.258.86.866.827,3.833-.205,7.3.96,10.783,2.483a14.817,14.817,0,0,0,12.489-.294,1.923,1.923,0,0,1,2.155.058c1.12.893.96,2.265-.4,3.041a15.19,15.19,0,0,1-4.989,1.707A20.164,20.164,0,0,1,34.9,147.5a14.047,14.047,0,0,0-6.79-1.293c-1.012.025-.877.682-.735,1.247a24.829,24.829,0,0,0,3.033,7.3c3.458,5.474,8.485,8.975,14.279,11.554,1.528.68,3.063,1.343,4.6,2.154H10.138c-4.43-.215-8.979-4.323-9.883-8.922A14.059,14.059,0,0,1,0,156.793c.016-7.649,0-15.3.01-22.946a4.546,4.546,0,0,1,6.778-4.122c1.5.765,3.013,1.525,4.509,2.306a8.332,8.332,0,0,0,8.172.039c2.557-1.326,5.047-2.857,7.965-3.336.433-.071.871-.118,1.306-.176" transform="translate(0 -69.59)" fill="#7ccadc"/>
        <path id="Trazado_140778" data-name="Trazado 140778" d="M140.71,3.3a36.135,36.135,0,0,1,14.979,4.923c9.648,5.773,15.865,14.054,18,25.191a30.3,30.3,0,0,1-.912,14.906c-.083.267-.148.541-.221.811a4.8,4.8,0,0,1-.62,2.126c-.168.36-.364.717-.868.634a15.544,15.544,0,0,1-4.147-5.706,31.234,31.234,0,0,1-3.375-11.147,7.046,7.046,0,0,0-.162-.973,13.339,13.339,0,0,1-3.242,2.359c-1.181.6-1.625.5-2.536-.486a10.2,10.2,0,0,1-1.228-1.788,38.61,38.61,0,0,1-4.036-9.4,12.817,12.817,0,0,1-.6-4.044c.033-.674-.15-.939-.919-.722C145.734,21.407,140.635,21,135.54,20a7.512,7.512,0,0,1-1.156-.348,1.846,1.846,0,0,1-1.411-2.414c.18-1.19.708-2.286,1.065-3.667a43.654,43.654,0,0,1-7.97,1.137c-1.067-.067-2.167.258-3.192-.276-.121-.652.433-.623.732-.567,2.4.452,3.8-1.009,5.353-2.492a38.619,38.619,0,0,1,9.277-6.627A7.763,7.763,0,0,0,140.71,3.3" transform="translate(-66.506 -1.784)" fill="#404656"/>
        <path id="Trazado_140779" data-name="Trazado 140779" d="M83.241,87.9c-3.438.358-6.373,2.262-9.636,3.137A15.771,15.771,0,0,1,63.573,90.6c-2.672-1.052-5.265-2.3-8.149-2.684.448-1.235.887-2.474,1.346-3.7.283-.757-.326-.9-.769-1.113a23.671,23.671,0,0,1-13.151-18.09c-.3-2.47-.588-4.947.233-7.375a5.893,5.893,0,0,1,5.476-3.793,6.229,6.229,0,0,1,5.68,4.726c.339,1.663-.085,3.306.167,4.992a11.979,11.979,0,0,0,9.63,9.808,2.916,2.916,0,0,0,3-1.676c.486-.055.574.366.745.654a45.186,45.186,0,0,0,13.5,13.987A6.74,6.74,0,0,1,83.241,87.9" transform="translate(-23.031 -29.139)" fill="#f7dbcb"/>
        <path id="Trazado_140780" data-name="Trazado 140780" d="M107.585,71.046a31.708,31.708,0,0,1-4.926-3.384A43.032,43.032,0,0,1,92.385,56.471c-.339-.541-.668-1.088-1-1.632a28.245,28.245,0,0,1-3.857-14.556,31.831,31.831,0,0,1,1.164-6.943,1.318,1.318,0,0,1,.083-.71,27.532,27.532,0,0,1,5.4-8.922,2.533,2.533,0,0,1,1.46-1.008,41.4,41.4,0,0,0,7.262,1.623.914.914,0,0,1,.739.34c1.126.405,2.305.08,3.448.252.26.344.036.614-.164.853a36.774,36.774,0,0,0-5.047,7.72,1.157,1.157,0,0,1-.652.672c-1.235-.089-2.4-.539-3.671-.542a5.168,5.168,0,0,0-5.108,6.522,8.8,8.8,0,0,0,5.251,5.885c.454.2,1.062.186,1.241.814a10.817,10.817,0,0,0,.134,3.826c.993,7.144,4.249,13.272,8.587,18.9.33.428.844.794.633,1.465l-.7.013" transform="translate(-47.376 -12.287)" fill="#efccb8"/>
        <path id="Trazado_140781" data-name="Trazado 140781" d="M42.7,5.763A5.971,5.971,0,0,1,46.86.276a6.038,6.038,0,0,1,6.627,2.249,17.582,17.582,0,0,1,3.2,9.31c.116,1.332-1.262,2.485-2.4,1.864-2.1-1.148-4.413-1.071-6.612-1.613A6.542,6.542,0,0,1,42.7,5.763" transform="translate(-23.114 0)" fill="#9fd8e6"/>
        <path id="Trazado_140782" data-name="Trazado 140782" d="M12.076,92.721a5.549,5.549,0,0,1,3.83-5.523,6.025,6.025,0,0,1,6.636,1.88,16.228,16.228,0,0,1,3.331,9.607,1.767,1.767,0,0,1-2.78,1.682,10.14,10.14,0,0,0-4.5-1.123,6.542,6.542,0,0,1-6.517-6.522" transform="translate(-6.537 -47.021)" fill="#9fd8e6"/>
        <path id="Trazado_140783" data-name="Trazado 140783" d="M112.882,13.873a25.509,25.509,0,0,1-8.061-1.756c-.494-.452-.032-.754.212-1.015a5.074,5.074,0,0,1,1.91-1.337,32.015,32.015,0,0,1,14.3-6.426,30.636,30.636,0,0,1,9.587-.33c.334.606-.221.673-.537.82a41.034,41.034,0,0,0-8.615,5.393,31,31,0,0,0-3.891,3.551,2.832,2.832,0,0,1-2.62,1.085,19.528,19.528,0,0,0-2.281.014" transform="translate(-56.623 -1.499)" fill="#353947"/>
        <path id="Trazado_140784" data-name="Trazado 140784" d="M94.041,15.923c-.622.861-1.809,1.212-2.123,2.351a18.806,18.806,0,0,0-4.93,6.36c-.731,1.314-1.308,2.713-1.954,4.074a8.728,8.728,0,0,1-4.071-5.961A6.56,6.56,0,0,1,83.6,15.63a8.143,8.143,0,0,1,8.252-.69c.741.3,1.462.654,2.192.983" transform="translate(-43.721 -7.656)" fill="#f7dbcb"/>
        <path id="Trazado_140785" data-name="Trazado 140785" d="M219.865,105.911c.862-.694.81-1.861,1.4-2.7a13.023,13.023,0,0,1,3.4,4.268,7.221,7.221,0,0,1-1.773,8.825A8.411,8.411,0,0,1,218.6,118l-5.771-2.646c.4-1.066,1.446-1.566,2.156-2.358a31.328,31.328,0,0,0,4.584-6.719.941.941,0,0,1,.294-.37" transform="translate(-115.209 -55.871)" fill="#efccb8"/>
        <path id="Trazado_140786" data-name="Trazado 140786" d="M164.847,63.289c-.245,1.654-1.333,2.9-2.208,4.2a19.925,19.925,0,0,1-4.825,5.25,28.314,28.314,0,0,0-5.78-.744c-.115-.334.122-.514.314-.712,2.695-2.788,2.709-6.132.052-9-.454-.49-1.061-.869-1.231-1.583.263-1.061,1.249-1.645,1.711-2.581.212-.429.558-.79.765-1.227a1.447,1.447,0,0,0-2.375-1.654c-.914,1.206-2.041,2.3-2.385,3.861a.7.7,0,0,1-.254.4c-.964.019-1.9-.228-2.865-.26-4-.133-6.936,3.3-4.86,7.851a8.9,8.9,0,0,0,6.428,5.01c.382.09.817.039,1.1.4-2.686.9-5.126,2.477-7.98,2.918A17.058,17.058,0,0,1,129.9,74.064a19.392,19.392,0,0,0-8.8-2.07c-.83-1.171-1.655-2.347-2.492-3.514a38.57,38.57,0,0,1-6.844-15.464c-.278-1.485-.386-3-.563-4.505-.041-.351.043-.646.472-.689.457-.425.978-.17,1.487-.159,3.176.069,5.661-1.3,6.072-4.652a6.3,6.3,0,0,0-.889-3.8,4.845,4.845,0,0,1-.718-1.376c.661-1.034,1.728-1.743,2.3-2.856a3.279,3.279,0,0,1,.285-.385c.9-1.263.919-2.238.064-2.855-.749-.54-1.523-.219-2.462.986-.664.853-1.22,1.778-1.848,2.656-.81.836-1.358.333-1.865-.368a34.515,34.515,0,0,1,5.563-8.6,1.94,1.94,0,0,0,.239-.533,41.984,41.984,0,0,0,8.505-1.4,21.55,21.55,0,0,0-1.473,4.464,1.413,1.413,0,0,0,1.164,1.869c5.826,1.469,11.644,1.826,17.534-.009-.027,5.162,2.016,9.742,4.448,14.2.269.493.579.966.9,1.431,1.36,1.995,1.562,2.026,3.619.69a18.179,18.179,0,0,0,2.732-2.355c.715,7,2.881,13.274,7.524,18.528" transform="translate(-60.192 -13.249)" fill="#f7dbcb"/>
        <path id="Trazado_140787" data-name="Trazado 140787" d="M185.156,101.158c.478.86,1.355,1.364,1.918,2.15,2.375,3.322,2.02,6.207-1.149,9.3l-3.6.506c-4.187.031-8.774-4.287-8.513-8.43a5.243,5.243,0,0,1,4.644-5.1,7.474,7.474,0,0,1,4.128.444,7.6,7.6,0,0,0,2.57,1.131" transform="translate(-94.083 -53.86)" fill="#f7b7bc"/>
        <path id="Trazado_140788" data-name="Trazado 140788" d="M169.813,187.894a20.166,20.166,0,0,1-7.839-2.026,15.324,15.324,0,0,0-13.467-.2c-1.3.572-2.224.364-2.786-.689-.486-.91-.08-1.89,1.18-2.492a18.378,18.378,0,0,1,16.472.017,15.309,15.309,0,0,0,13.659.264c1.343-.619,2.329-.27,2.851.956.4.939-.113,1.764-1.45,2.332a19.185,19.185,0,0,1-8.619,1.841" transform="translate(-78.773 -97.731)" fill="#7ccadc"/>
        <path id="Trazado_140789" data-name="Trazado 140789" d="M110.091,49.21a10.146,10.146,0,0,1,1.8,3.993,5.441,5.441,0,0,1-4.409,6.211,17.345,17.345,0,0,1-3.429-.042,14.824,14.824,0,0,1-3.776-2.009c-2.023-1.823-3.49-4.013-3.107-6.8.533-3.881,3.889-5.189,7.245-4.628a15.913,15.913,0,0,1,2.059.627c.555.051.97,1.023,1.65.25a3.918,3.918,0,0,0,1.97,2.4" transform="translate(-52.565 -24.799)" fill="#f7b7bc"/>
        <path id="Trazado_140790" data-name="Trazado 140790" d="M143.249,72.971a7.4,7.4,0,0,1,1.987-5.038,3.3,3.3,0,0,1,3.946-.918,16.167,16.167,0,0,1,5.81,4.012,3.309,3.309,0,0,1,.416,4.418,7.08,7.08,0,0,1-5.37,3.687,5.86,5.86,0,0,1-6.789-6.161" transform="translate(-77.543 -36.116)" fill="#404656"/>
        <path id="Trazado_140791" data-name="Trazado 140791" d="M123.09,45.554c-1.671-.407-1.943-.738-1.97-2.4.736-1.092,1.437-2.211,2.22-3.268a1.789,1.789,0,1,1,2.93,2.05c-.949,1.292-1.514,2.947-3.179,3.613" transform="translate(-65.564 -21.144)" fill="#404656"/>
        <path id="Trazado_140792" data-name="Trazado 140792" d="M195.522,95.656a2.041,2.041,0,0,1-2.57-1.131c.091-2.159,1.582-3.518,2.939-4.889a1.482,1.482,0,0,1,1.992.213,1.572,1.572,0,0,1,.429,2.067,14.092,14.092,0,0,1-2.79,3.74" transform="translate(-104.448 -48.358)" fill="#404656"/>
      </g>
    </g>
  </g>
</svg>
