<svg xmlns="http://www.w3.org/2000/svg" xmlns:xlink="http://www.w3.org/1999/xlink" width="173" height="101" viewBox="0 0 173 101">
  <defs>
    <clipPath id="clip-path">
      <rect id="Rect치ngulo_38300" data-name="Rect치ngulo 38300" width="70.708" height="80.901" fill="none"/>
    </clipPath>
  </defs>
  <g id="Grupo_161130" data-name="Grupo 161130" transform="translate(-313 -2995)">
    <rect id="Rect치ngulo_36124" data-name="Rect치ngulo 36124" width="173" height="101" transform="translate(313 2995)" fill="#e1e8ff"/>
    <g id="Grupo_161200" data-name="Grupo 161200" transform="translate(364 3005)">
      <g id="Grupo_161200-2" data-name="Grupo 161200" clip-path="url(#clip-path)">
        <path id="Trazado_140815" data-name="Trazado 140815" d="M48.9,38.833a15.2,15.2,0,0,1-7.79,11.875,2.131,2.131,0,0,0-.824.616c4.733.392,8.05,2.847,10.4,6.836A32.147,32.147,0,0,1,53.5,65.375a35.288,35.288,0,0,0,3.01,6.59,19.91,19.91,0,0,1,2.521,8,10.074,10.074,0,0,1,.1,2.376c-.09.573-.328.784-.951.775-2.455-.038-4.911-.006-7.367,0l-.106-.087a36.461,36.461,0,0,1-.481-4.32,16.569,16.569,0,0,0-2.137-6.45,8.622,8.622,0,0,1-1.342-4.18,8.553,8.553,0,0,0-3.058-6.2c-.4-.346-.864-.891-1.479-.336-.393.354-.209.833.537,1.469A7.594,7.594,0,0,1,45.328,68.6a9.165,9.165,0,0,0,1.378,4.182A16.816,16.816,0,0,1,48.878,82.9a.43.43,0,0,1-.173.21L18.983,83.1q-4.326,0-8.651,0a1.01,1.01,0,0,1-.243-.794,19.073,19.073,0,0,1,1.253-7.471,11.8,11.8,0,0,1,1.047-1.963,9.384,9.384,0,0,0,1.455-4.521,7.028,7.028,0,0,1,2.321-5.078,4.312,4.312,0,0,0,.7-.75.741.741,0,0,0-.016-1.017c-.33-.344-.686-.218-.994.04a8.561,8.561,0,0,0-3.41,6.107,9.916,9.916,0,0,1-1.5,4.763,17.2,17.2,0,0,0-2.29,9.7c.008.559.257.766.788.746a1.047,1.047,0,0,1,.88.241,1.981,1.981,0,0,1-1.489.143,73.36,73.36,0,0,0-7.865-.127c-.745-.009-.949-.194-.969-.955A20.131,20.131,0,0,1,2.929,71.432,42.831,42.831,0,0,0,6.56,62.417,17.7,17.7,0,0,1,11.2,54.656,12.31,12.31,0,0,1,18.892,51.3c-.757-.5-1.415-.921-2.051-1.369a15.413,15.413,0,0,1-6.454-9.719c-.108-.514.238-1.266-.6-1.5a84.421,84.421,0,0,0,.453-8.97c-.037-1.2-.307-2.371-.271-3.57.4-.585.01-1.16-.09-1.7-.954-5.142-.333-9.981,2.788-14.3a14.97,14.97,0,0,1,7.187-5.279,24.565,24.565,0,0,1,6.218-1.368,2.528,2.528,0,0,0,2.127.638,7.616,7.616,0,0,1,3.508.651,5.644,5.644,0,0,1,3.525,5.231,16.191,16.191,0,0,1-.008,2.227,4.294,4.294,0,0,1-6.355,3.519,2.424,2.424,0,0,1-1.249-2.448,2.38,2.38,0,0,1,1.733-2.218c.272-.091.564-.1.833-.2.369-.138.708-.352.634-.8-.078-.469-.454-.61-.9-.608a3.978,3.978,0,0,0-3.493,2.494,4.121,4.121,0,0,0,3.8,5.685c3.163.087,5.05-.955,6.06-3.586,1.182-3.075.517-7.917-2.606-9.889-.25-.158-.576-.3-.568-.685,6.4.669,11.833,2.947,14.838,9.1a18.026,18.026,0,0,1,1.365,11.173,8.932,8.932,0,0,0-.248,2.37,9.152,9.152,0,0,1-.135,2.968,32.3,32.3,0,0,0,.166,6.319c.072.886.062,1.768.05,2.653a1.025,1.025,0,0,1-.249.711" transform="translate(0 -2.418)" fill="#fecdc6"/>
        <path id="Trazado_140816" data-name="Trazado 140816" d="M90.039,1.116a8.84,8.84,0,0,1,3.609,10.115,6.051,6.051,0,0,1-8.2,3.923,4.3,4.3,0,0,1-2.567-4.817,4.2,4.2,0,0,1,3.9-3.484c.644-.048,1.15.117,1.287.82.117.6-.313,1.017-1.1,1.121a2.273,2.273,0,0,0-2.223,2.345A2.456,2.456,0,0,0,86.929,13.6a4.114,4.114,0,0,0,5.033-4.015,10.748,10.748,0,0,0-.089-2.732c-.57-2.929-2.665-4.659-5.88-4.875a12.111,12.111,0,0,0-1.626-.011A1.151,1.151,0,0,1,82.995,1.1C83.066.33,83.529.061,84.257.02a11.84,11.84,0,0,1,5.782,1.1" transform="translate(-56.926 0)" fill="#383844"/>
        <path id="Trazado_140817" data-name="Trazado 140817" d="M155.7,88.27c.154-2.767-.478-5.508-.312-8.269a16.687,16.687,0,0,1,.48-4.383c2.66-.82,5.19,1.156,5.151,4.23a12.03,12.03,0,0,1-1.115,5.118,5.933,5.933,0,0,1-4.2,3.3" transform="translate(-106.799 -51.854)" fill="#e78b89"/>
        <path id="Trazado_140818" data-name="Trazado 140818" d="M20.85,75.6a5.359,5.359,0,0,1,.484,2.808,77.886,77.886,0,0,1-.295,9.258c-.01.269-.1.432-.371.474-2.843-.854-4.043-3.026-4.613-5.72a18.25,18.25,0,0,1-.218-2.8A3.943,3.943,0,0,1,20.85,75.6" transform="translate(-10.883 -51.856)" fill="#e78a88"/>
        <path id="Trazado_140819" data-name="Trazado 140819" d="M200.663,38.072a7.911,7.911,0,0,1,2.835.569,1.706,1.706,0,0,1,1.158,2.036,1.747,1.747,0,0,1-1.758,1.341,5.356,5.356,0,0,1-1.946-.205,23.528,23.528,0,0,0-5.363-.954c-.284-.02-.605,0-.673-.377-.056-.315.209-.433.417-.582a9.359,9.359,0,0,1,5.33-1.827" transform="translate(-133.986 -26.172)" fill="#7aadec"/>
        <path id="Trazado_140820" data-name="Trazado 140820" d="M183.542,15.115a1.813,1.813,0,0,1,1.494,1.009,1.525,1.525,0,0,1-.241,1.819,6.039,6.039,0,0,1-2.168,1.5A19.261,19.261,0,0,0,178.1,22c-.194.152-.415.34-.692.154a.521.521,0,0,1-.162-.62,8.429,8.429,0,0,1,5.96-6.347c.11-.028.222-.048.332-.071" transform="translate(-121.823 -10.391)" fill="#7aadec"/>
        <path id="Trazado_140821" data-name="Trazado 140821" d="M157.928,257.493a3.2,3.2,0,0,1-2.1,0l.055-.058a2.111,2.111,0,0,1,2,.006Z" transform="translate(-107.118 -176.796)" fill="#fecdc6"/>
        <path id="Trazado_140822" data-name="Trazado 140822" d="M70.819,112.81a3.854,3.854,0,0,1-2.067-6.595,9.956,9.956,0,0,1,15.157-.06,3.819,3.819,0,0,1,1.006,4.009,3.682,3.682,0,0,1-3.141,2.66,1.681,1.681,0,0,1-.2-1.153,3.171,3.171,0,0,0-1.483-2.749,7.216,7.216,0,0,0-6.951-.628,3.567,3.567,0,0,0-2.244,3.695c.012.275.143.567-.076.822" transform="translate(-46.448 -70.589)" fill="#383844"/>
        <path id="Trazado_140823" data-name="Trazado 140823" d="M77.651,123.312c-.65-2.689.915-4.838,3.887-5.252a8.271,8.271,0,0,1,3.388.173c2.767.773,3.821,2.228,3.681,5.092-1.959.13-3.9-.2-5.863-.172a40.89,40.89,0,0,1-5.094.158" transform="translate(-53.279 -81.092)" fill="#f85d85"/>
        <path id="Trazado_140824" data-name="Trazado 140824" d="M142.464,209.5l-2-.006a25.18,25.18,0,0,0-.7-6.593,10.908,10.908,0,0,0-1.362-3.21,11.6,11.6,0,0,1-1.739-5.548,6.489,6.489,0,0,0-2.611-4.7c-.669-.523-.837-1.085-.431-1.6a.88.88,0,0,1,1.347-.151,7.528,7.528,0,0,1,3.445,5.3,20.548,20.548,0,0,0,2.45,7.348,15.722,15.722,0,0,1,1.459,6.781,14.274,14.274,0,0,1,.141,2.381" transform="translate(-91.705 -128.859)" fill="#e78b89"/>
        <path id="Trazado_140825" data-name="Trazado 140825" d="M28.856,209.47c-1.917-.024-1.926-.024-1.9-1.942a16.982,16.982,0,0,1,2.676-9.466,7.371,7.371,0,0,0,1.085-3.814,8.99,8.99,0,0,1,3.608-6.612.84.84,0,0,1,1.344.093.953.953,0,0,1-.164,1.432,7.641,7.641,0,0,0-2.822,4.548c-.114.646-.1,1.3-.187,1.948a9.4,9.4,0,0,1-1.451,3.794,14.82,14.82,0,0,0-2.053,6.348,29.831,29.831,0,0,0-.134,3.666l0,0" transform="translate(-18.527 -128.788)" fill="#e78b89"/>
        <path id="Trazado_140826" data-name="Trazado 140826" d="M77.917,164.138a11.632,11.632,0,0,1-7.537-2.977,1.422,1.422,0,0,1-.18-.183c-.176-.224-.44-.5-.3-.75.191-.339.515-.025.745.05a22.2,22.2,0,0,0,14.393-.187c.251-.088.6-.443.823-.072.14.236-.164.51-.361.715a10.773,10.773,0,0,1-7.586,3.4" transform="translate(-48.026 -109.888)" fill="#e78b89"/>
        <path id="Trazado_140827" data-name="Trazado 140827" d="M61.075,77.826c-.2-.56-.291-1.063.206-1.45s.968-.15,1.429.1a7.86,7.86,0,0,1,3.178,2.783c.318.527.605,1.09.092,1.645s-1.031.252-1.553-.022a8.174,8.174,0,0,0-6.921-.661.96.96,0,1,1-.67-1.795,9.542,9.542,0,0,1,4.24-.6" transform="translate(-38.586 -52.361)" fill="#383844"/>
        <path id="Trazado_140828" data-name="Trazado 140828" d="M105.1,77.793a9.764,9.764,0,0,1,3.959.494c.816.307,1.158.81.891,1.377-.326.693-.872.684-1.517.453a7.99,7.99,0,0,0-6.3.518c-.258.121-.507.261-.76.393a.932.932,0,0,1-1.18-.144.953.953,0,0,1-.163-1.182,7.136,7.136,0,0,1,4.034-3.508c.82-.324,1.309.434,1.039,1.6" transform="translate(-68.668 -52.326)" fill="#383844"/>
        <path id="Trazado_140829" data-name="Trazado 140829" d="M41.147,102.379a3.113,3.113,0,0,1-1.956-.58,1.623,1.623,0,0,1-.137-2.682,3.359,3.359,0,0,1,4.409.316,1.475,1.475,0,0,1-.331,2.39,3.1,3.1,0,0,1-1.985.556" transform="translate(-26.405 -67.67)" fill="#feaaaa"/>
        <path id="Trazado_140830" data-name="Trazado 140830" d="M132.886,102.349a2.886,2.886,0,0,1-1.578-.343,1.744,1.744,0,0,1-1.167-1.532,1.825,1.825,0,0,1,1.159-1.659,3.346,3.346,0,0,1,3.035-.094,1.738,1.738,0,0,1,1.285,1.709,1.944,1.944,0,0,1-1.417,1.726,2.687,2.687,0,0,1-1.317.192" transform="translate(-89.462 -67.646)" fill="#feaaaa"/>
      </g>
    </g>
  </g>
</svg>
