<svg xmlns="http://www.w3.org/2000/svg" xmlns:xlink="http://www.w3.org/1999/xlink" width="173" height="104" viewBox="0 0 173 104">
  <defs>
    <clipPath id="clip-path">
      <rect id="Rect치ngulo_38301" data-name="Rect치ngulo 38301" width="76.539" height="94.708" fill="none"/>
    </clipPath>
  </defs>
  <g id="Grupo_161132" data-name="Grupo 161132" transform="translate(-313 -2773)">
    <rect id="Rect치ngulo_36142" data-name="Rect치ngulo 36142" width="173" height="104" transform="translate(313 2773)" fill="#e1e8ff"/>
    <g id="Grupo_161201" data-name="Grupo 161201" transform="translate(361 2778)">
      <g id="Grupo_161201-2" data-name="Grupo 161201" clip-path="url(#clip-path)">
        <path id="Trazado_140831" data-name="Trazado 140831" d="M117.9,118.98l-1.1-1.319c-.091-.448.261-.664.506-.919.639-.667,1.3-1.311,1.955-1.966a3.111,3.111,0,0,0,.258-.264c1.06-1.348.354-2.913.525-4.37.086-.733-.519-1.062-1.01-1.431-.689-.518-1.361-1.059-2.042-1.588-1.075-.835-1.073-1.617-.047-2.485.73-.617,1.5-1.178,2.255-1.766.555-.434.5-.762-.031-1.14-.78-.552-1.513-1.165-2.265-1.754a1.342,1.342,0,0,1-.013-2.371c.778-.654,1.6-1.257,2.4-1.878.49-.377.437-.647-.018-.992-.736-.559-1.474-1.117-2.185-1.706-1.195-.991-1.172-1.695.035-2.682.715-.585,1.449-1.148,2.188-1.7a1.775,1.775,0,0,0,.758-1.58c-.028-2.033.015-4.067-.021-6.1A1.943,1.943,0,0,1,121.4,78.92a16.268,16.268,0,0,0,9.842-10.945,16.456,16.456,0,0,0-3.971-16.527,10.639,10.639,0,0,1-1.737-1.9,2.155,2.155,0,0,1,.55-1.818,16.893,16.893,0,0,1,9.406,13.5,17.21,17.21,0,0,1-11.185,18.141.834.834,0,0,0-.638.944c.025,2.311-.009,4.623.023,6.933a1.686,1.686,0,0,1-.772,1.555c-.88.621-1.72,1.3-2.566,1.965-.83.653-.835,1.193-.008,1.864.67.543,1.365,1.054,2.044,1.584.973.759.978,1.251,0,2.045-.644.525-1.309,1.025-1.962,1.539-.932.735-.938,1.208,0,1.968.694.562,1.416,1.09,2.112,1.648.757.607.758,1.2,0,1.813-.743.6-1.517,1.16-2.255,1.765s-.729,1.157,0,1.741c.865.693,1.741,1.374,2.636,2.027a2.063,2.063,0,0,1,.79,1.554,6.223,6.223,0,0,1-2.682,6.449,19.319,19.319,0,0,0-2.2,2.213Z" transform="translate(-59.084 -24.272)" fill="#e9a849"/>
        <path id="Trazado_140832" data-name="Trazado 140832" d="M109.729,47.516a16.867,16.867,0,0,1,6.317,10.777,17.058,17.058,0,0,1-5.078,15.283,16.472,16.472,0,0,1-5.623,3.593,1.346,1.346,0,0,0-.967,1.457c.018,2.187-.008,4.374.016,6.561a1.409,1.409,0,0,1-.638,1.392c-.866.573-1.645,1.275-2.471,1.908-1.03.789-1.072,1.34-.068,2.2.885.755,1.8,1.471,2.735,2.17.348.261.356.408.013.664-.958.713-1.9,1.451-2.847,2.174-.879.669-.88,1.343-.009,2s1.7,1.3,2.558,1.952c.527.4.651.726-.012,1.179-.96.655-1.857,1.4-2.768,2.128a1.042,1.042,0,0,0,.078,1.729c.886.706,1.786,1.4,2.71,2.054a1.814,1.814,0,0,1,.737,1.375,6.269,6.269,0,0,1-2.719,6.6,5.653,5.653,0,0,0-.809.877c-1-1.047-1.978-2.106-2.992-3.134a1.718,1.718,0,0,1-.379-1.367c0-10.756-.009-21.511.023-32.267,0-.884-.2-1.372-1.109-1.537a9.515,9.515,0,0,1-1.472-.517,8.45,8.45,0,0,1-3.393-1.974A17.045,17.045,0,0,1,87.6,70.329c-.094-.163-.2-.319-.3-.475a17.062,17.062,0,0,1-2.4-9.58,14.721,14.721,0,0,1,.383-2.86,17.859,17.859,0,0,1,3.009-6.636A17.226,17.226,0,0,1,96.32,44.7a12.683,12.683,0,0,1,5.226-1.063,19.689,19.689,0,0,1,4.791,1.535,2.019,2.019,0,0,1,.889.627,1.99,1.99,0,0,1-.16,1.333,16.973,16.973,0,0,1-2.03,4.083,1.169,1.169,0,0,1-.831.654,7.538,7.538,0,0,0-2.182-.21,4.42,4.42,0,0,0-4.045,4.162c-.018.336-.008.673,0,1.009a4,4,0,0,0,1.4,2.633,4.393,4.393,0,0,0,5.651.573,4.594,4.594,0,0,0,1.74-5.6,4.629,4.629,0,0,1-.3-.769,1.152,1.152,0,0,1,.31-.841,19.944,19.944,0,0,0,2.4-4.566c.109-.29.105-.7.561-.748" transform="translate(-43.166 -22.192)" fill="#ebb75e"/>
        <path id="Trazado_140833" data-name="Trazado 140833" d="M46.421,77.205a16.393,16.393,0,0,1-9.592-2.46.787.787,0,0,0-1.165.166q-5.932,5.97-11.9,11.9c-.485.48-.418.747.034,1.166.835.775,1.628,1.6,2.425,2.414A3.406,3.406,0,1,1,21.4,95.2c-.86-.84-1.712-1.689-2.547-2.554-.3-.314-.508-.437-.875-.048-.931.986-1.9,1.938-2.874,2.881-.325.315-.3.528.012.829q1.328,1.286,2.618,2.614a3.4,3.4,0,1,1-4.8,4.831c-.886-.858-1.762-1.726-2.611-2.621-.334-.352-.54-.346-.876,0-1.135,1.175-2.3,2.324-3.46,3.472a3.482,3.482,0,0,1-4.977.138,3.371,3.371,0,0,1,.154-4.948Q15.9,85.04,30.662,70.306a1.076,1.076,0,0,0,.252-1.56A16.973,16.973,0,0,1,30.493,51.9a2.763,2.763,0,0,0,.446-1.1,10.358,10.358,0,0,1,1.945-2.658,16.891,16.891,0,0,1,10.1-5.449c1.466-.225,2.97-.6,4.454,0,.312.457-.143.584-.367.743a21.144,21.144,0,0,0-6.39,7.373,3.385,3.385,0,0,0-.453,1.291c-.684.867-1.68,1.453-2.212,2.459a6.791,6.791,0,0,0-1.263,2.6,9.24,9.24,0,0,0,2.084,9.264,3.72,3.72,0,0,1,.686.861,20.542,20.542,0,0,0,6.046,8.937c.327.286.817.455.852,1" transform="translate(0 -21.544)" fill="#f5df7f"/>
        <path id="Trazado_140834" data-name="Trazado 140834" d="M62.244,26.815a23.932,23.932,0,0,1-1.973,2.436,20.935,20.935,0,0,1-2.527-8.314,19.515,19.515,0,0,1,38.863-3.547,19.971,19.971,0,0,1-.274,6.067l-.437,1.868A26.659,26.659,0,0,1,92.753,31.4a6.536,6.536,0,0,1-1.7,2.156,19.5,19.5,0,0,1-4.663,3.438,1.815,1.815,0,0,1-1.123.353,4.17,4.17,0,0,1-1.352-2.582.822.822,0,0,1,.431-.455,17.68,17.68,0,0,0,5.672-4.453c.119-.131.216-.307.44-.275a14.454,14.454,0,0,0,2.843-5.924,3.009,3.009,0,0,1,.119-1.411,15.638,15.638,0,0,0-1.1-9.141c-2.664-5.785-7.142-9.214-13.553-9.922A15.614,15.614,0,0,0,65.711,7.767,15.576,15.576,0,0,0,60.82,18.81a16.037,16.037,0,0,0,1.307,7.207.966.966,0,0,1,.116.8" transform="translate(-29.331 0)" fill="#5e6b75"/>
        <path id="Trazado_140835" data-name="Trazado 140835" d="M87.185,103.077a21.342,21.342,0,0,1-6.906-9.205,3.235,3.235,0,0,1-.119-.623c.419-.072.687.226.988.419A10.32,10.32,0,0,0,84.6,95.16a1.826,1.826,0,0,1,.744.343,20.148,20.148,0,0,0,7.208,6.481,13.421,13.421,0,0,1-5.368,1.093" transform="translate(-40.764 -47.415)" fill="#ebcc61"/>
        <path id="Trazado_140836" data-name="Trazado 140836" d="M89.015,43.287a15.753,15.753,0,0,1,5.542,1.49,18.234,18.234,0,0,0-7.822,5.92,2.336,2.336,0,0,1-.925.392,8.643,8.643,0,0,0-3.37,1.19c-.249.149-.5.393-.841.237-.172-1.122.67-1.836,1.148-2.661a20.24,20.24,0,0,1,6.269-6.567" transform="translate(-41.485 -22.013)" fill="#ebcc61"/>
        <path id="Trazado_140837" data-name="Trazado 140837" d="M75.767,66.892a15.225,15.225,0,0,0,4.445,2.335l-.374,2.885a20.042,20.042,0,0,1-5.359-2.629,4.826,4.826,0,0,1,1.289-2.592" transform="translate(-37.875 -34.017)" fill="#5e6b75"/>
        <path id="Trazado_140838" data-name="Trazado 140838" d="M118.947,44.022a15.877,15.877,0,0,1,5.822.694,3.958,3.958,0,0,1-.3,1.308,22.006,22.006,0,0,0-5.518-2" transform="translate(-60.489 -22.365)" fill="#e9a94b"/>
      </g>
    </g>
  </g>
</svg>
