<svg xmlns="http://www.w3.org/2000/svg" xmlns:xlink="http://www.w3.org/1999/xlink" width="173" height="104" viewBox="0 0 173 104">
  <defs>
    <clipPath id="clip-path">
      <rect id="Rect치ngulo_38299" data-name="Rect치ngulo 38299" width="99.227" height="82.619" fill="none"/>
    </clipPath>
  </defs>
  <g id="Grupo_161126" data-name="Grupo 161126" transform="translate(-313 -2773)">
    <rect id="Rect치ngulo_36142" data-name="Rect치ngulo 36142" width="173" height="104" transform="translate(313 2773)" fill="#e1e8ff"/>
    <g id="Grupo_161198" data-name="Grupo 161198" transform="translate(349.887 2783.69)">
      <g id="Grupo_161198-2" data-name="Grupo 161198" clip-path="url(#clip-path)">
        <path id="Trazado_140793" data-name="Trazado 140793" d="M236.891,3.073l-3.125,5.246c-.34.212-.624.026-.87-.166-1.027-.8-2.039-1.621-3.053-2.438a.772.772,0,0,1-.375-.725c1.036-1.353,2.027-2.743,3.12-4.048a2.377,2.377,0,0,1,4.033.4c.079.13.18.247.271.37Z" transform="translate(-137.664 0)" fill="#b47f5f"/>
        <path id="Trazado_140794" data-name="Trazado 140794" d="M151.343,12.473a20.513,20.513,0,0,0,4.3,3.329c-1.244,2.069-2.61,4.075-3.7,6.222a14.429,14.429,0,0,1-6.768,6.482c-2.157,1.077-4.183,2.415-6.312,3.552a1.091,1.091,0,0,0-.616,1.437q1.413,6.445,2.79,12.9c.3,1.411.571,2.828.855,4.243a.435.435,0,0,1-.4.156,39.127,39.127,0,0,0-4.354-.064,2.071,2.071,0,0,1-1.744-.822c-2.9-3.507-5.827-6.992-8.728-10.5a4.515,4.515,0,0,0-5-1.625c-2.733.89-5.433,1.875-8.193,2.677a14.858,14.858,0,0,1-4.2.605c-2.808-.005-5.617,0-8.425,0a4.474,4.474,0,0,1-1.344-.1.585.585,0,0,1-.244-.173c-.069-.338.223-.416.414-.562,1.668-1.265,1.623-2.81-.12-4a1.877,1.877,0,0,1-.226-.176.223.223,0,0,1-.064-.162c0-.06.009-.09.02-.09,2.678-.01,5.357-.094,8.031-.008a12.5,12.5,0,0,0,5.7-1.174c3.459-1.569,6.974-3.016,10.466-4.513a1.312,1.312,0,0,1,.783.512,2.094,2.094,0,0,0,2.391.439,1.957,1.957,0,0,0,1.261-1.961,1.167,1.167,0,0,1,.235-.9c1.923-1.042,3.984-1.779,5.98-2.658,3.268-1.44,6.562-2.818,9.853-4.2a3.642,3.642,0,0,0,1.416-1.27q2.973-3.8,5.952-7.591" transform="translate(-59.54 -7.483)" fill="#fe999e"/>
        <path id="Trazado_140795" data-name="Trazado 140795" d="M178.921,107.505l.416.053a12.571,12.571,0,0,1,.6,2.73,4.908,4.908,0,0,1-1.562,4.193c-2.881,2.869-5.725,5.775-8.644,8.6a1.314,1.314,0,0,0-.271,1.871c2.577,5.046,5.095,10.122,7.632,15.189-.084.483-.5.555-.86.651-1.585.419-3.179.807-4.772,1.193-.337.082-.7.19-.974-.164q-4.031-7.434-8.069-14.865a5.311,5.311,0,0,1-.394-4.646c.149-.4.59-.674.483-1.171.035-.559.5-.865.775-1.279,2.5-3.813,5.112-7.549,7.623-11.355.314-.477.581-1.019,1.224-1.159,2.263.214,4.532.1,6.8.154" transform="translate(-96.986 -64.405)" fill="#6f6571"/>
        <path id="Trazado_140796" data-name="Trazado 140796" d="M136.019,107.458q-4.243,6.327-8.483,12.655a3.612,3.612,0,0,1-.821.923c-1.317.869-2.6,1.791-3.958,2.593a11,11,0,0,0-3.274,3.066c-3.958,5.369-7.973,10.7-11.968,16.038a1.945,1.945,0,0,1-1.567.159c-.793-.1-1.586-.183-2.37-.333-.5-.234-1.206.006-1.545-.632-.107-.4.151-.672.332-.97,3.588-5.9,7.253-11.747,10.749-17.7a23.321,23.321,0,0,1,6.048-6.3c3.768-2.983,7.507-6,11.262-9a2.818,2.818,0,0,1,1.441-.741c1.055-.074,2.109-.038,3.164-.032a1.312,1.312,0,0,1,.989.272" transform="translate(-61.2 -64.298)" fill="#5d5360"/>
        <path id="Trazado_140797" data-name="Trazado 140797" d="M4.445,111.326q5.824-1.84,11.646-3.684a2.12,2.12,0,0,0,.96-.408.55.55,0,0,1,.336-.087q4.629.03,9.257-.042a26.326,26.326,0,0,1,4.334,1.827c3.192,1.433,6.372,2.893,9.556,4.344.317.145.676.24.821.617.036.63-.423.909-.869,1.165a4.6,4.6,0,0,1-2.514.58,7.6,7.6,0,0,0-5.705,1.909,5.288,5.288,0,0,1-6.091,1.008,6.254,6.254,0,0,0-5.079-.032,10.689,10.689,0,0,1-1.579.458,4.045,4.045,0,0,1-3.341-.5,10.47,10.47,0,0,1-1.412-1.017,6.645,6.645,0,0,0-5.06-1.8c-2.594.162-4.168-1.2-5.348-3.262-.2-.358-.457-.761.088-1.077" transform="translate(-2.47 -64.258)" fill="#fedf7d"/>
        <path id="Trazado_140798" data-name="Trazado 140798" d="M68.221,162.73c.293.6.976.184,1.369.524-.16.356.166.43.347.57.781.6,1.592,1.164,2.354,1.789a1.215,1.215,0,0,1,.4,1.743,11.436,11.436,0,0,1-7.239-.187c-1.289-.532-1.9-1.973-2.775-3.032-2.381-2.874-4.707-5.794-7.062-8.689-.194-.238-.352-.566-.754-.517-1.032-1.277-2.025-2.586-3.1-3.829a1.586,1.586,0,0,1-.447-.838q-2.586-3.227-5.171-6.457c-.219-.274-.406-.572-.608-.86.168-.42.563-.5.93-.6a6.792,6.792,0,0,1,3.985.034,13.553,13.553,0,0,0,3.651.825c.509.087.708.52.967.881,4.227,5.9,8.4,11.834,12.642,17.717a2.963,2.963,0,0,1,.509.925" transform="translate(-27.32 -85.233)" fill="#e1a875"/>
        <path id="Trazado_140799" data-name="Trazado 140799" d="M61.556,56.857c0,.046-.008.091-.01.137a1.176,1.176,0,0,1-1.057.348c-3.379,0-6.758.045-10.137-.016-2.255.031-4.511.045-6.766,0-1.438.031-2.876.024-4.315.008a1.8,1.8,0,0,1-1.5-.482,3.084,3.084,0,0,1-1.383-1.886,2.444,2.444,0,0,1,2.261-2.89c.775-.06.871-.362.85-1-.046-1.379-.031-2.761-.041-4.141a.992.992,0,0,1,.281-.88,15.176,15.176,0,0,1,3.67-4.029,7.863,7.863,0,0,0,2.5-2.447,4.911,4.911,0,0,1-2.518,8.762c-1.242.638-2.272-.1-3.437-.562-.023,1.127-.022,2.207,0,3.288.014.573.416.622.866.662.848.075,1.739-.229,2.541.272q8.511.009,17.022.02c.385,0,.77.027,1.156.042l.01.131c-.209.256-.512.222-.793.26a2.286,2.286,0,0,0-2.025,2.075c-.008.747.9,2.141,2.029,2.079a.862.862,0,0,1,.79.256" transform="translate(-21.808 -23.742)" fill="#e1a875"/>
        <path id="Trazado_140800" data-name="Trazado 140800" d="M26.953,128.692a5.066,5.066,0,0,1-3.232-.507,7.217,7.217,0,0,0-5.5.119c-2.336,1-4.279.292-6.049-1.335a5.9,5.9,0,0,0-4.5-1.589,5.337,5.337,0,0,1-5.587-3.236,6.363,6.363,0,0,0-1.325-1.761c-1.151-1.147-1-1.871.494-2.484.234-.1.481-.162.722-.242-.049.149-.166.314-.136.444A5.562,5.562,0,0,0,6.5,121.7a8.372,8.372,0,0,1,4.739.977c.887.571,1.71,1.243,2.564,1.866a3.582,3.582,0,0,0,3.3.477,6.323,6.323,0,0,0,.644-.2,8.592,8.592,0,0,1,6.992.1,4.183,4.183,0,0,0,4.409-.851c.4-.316.817-.623,1.208-.954a6.722,6.722,0,0,1,4.491-1.4,6.009,6.009,0,0,0,3-.512c.423-.236.856-.466.921-1.024a1.6,1.6,0,0,1,1.269,2.393,4.3,4.3,0,0,1-3.189,2.821,11.091,11.091,0,0,1-2.783.258,4.993,4.993,0,0,0-3.322,1.095,17.207,17.207,0,0,1-2.522,1.781c-.4.2-.8.465-1.266.164" transform="translate(0 -70.588)" fill="#feefae"/>
        <path id="Trazado_140801" data-name="Trazado 140801" d="M48.7,162.562c1.166,1.385,2.327,2.774,3.5,4.152a.4.4,0,0,1,.042.515c-1.755,2.057-3.488,4.134-5.281,6.157a1.083,1.083,0,0,0-.2,1.425c.628,1.268,1.178,2.575,1.737,3.875.368.855.094,1.268-.835,1.324-2.783.167-3.654-.333-4.891-2.808q-.691-1.383-1.378-2.768a1.725,1.725,0,0,1,.143-1.907q3.586-4.978,7.159-9.964" transform="translate(-24.706 -97.529)" fill="#d0996e"/>
        <path id="Trazado_140802" data-name="Trazado 140802" d="M143.639,27.393c-.6-.325-.521-.807-.305-1.323a5.578,5.578,0,0,1,7.773-2.664,6.192,6.192,0,0,1,3.071,4.234,2.345,2.345,0,0,1-1.243,2.995c-1.464.534-2.657-.126-3.816-.886a3.715,3.715,0,0,1-.829-.8,3.576,3.576,0,0,0-3.5-1.322c-.4.052-.837.19-1.147-.236" transform="translate(-85.897 -13.629)" fill="#643c3e"/>
        <path id="Trazado_140803" data-name="Trazado 140803" d="M47.152,36.924a2.241,2.241,0,0,1-1.21,1.761A16.734,16.734,0,0,0,40.7,44.28a1.136,1.136,0,0,1-1.55-.715,5.51,5.51,0,0,1-.544-4.1,3.552,3.552,0,0,1,2.359-3.321A7.167,7.167,0,0,1,45.3,35.21a1.832,1.832,0,0,1,1.855,1.714" transform="translate(-23.047 -21.093)" fill="#785353"/>
        <path id="Trazado_140804" data-name="Trazado 140804" d="M37.831,82.761a39.818,39.818,0,0,0,5.766.194c.284.428.034.814-.127,1.184-1.1,2.543-2.161,5.106-3.2,7.677a1.229,1.229,0,0,1-1.451.923,15.007,15.007,0,0,1-2.2-.1c-.058,0-.115-.006-.173-.01q.691-4.934,1.383-9.868" transform="translate(-21.867 -49.652)" fill="#fec150"/>
        <path id="Trazado_140805" data-name="Trazado 140805" d="M144.337,34.27c.413.208.823.012,1.221-.043a3.584,3.584,0,0,1,3.565,1.383,5.3,5.3,0,0,0,4.51,1.9l-.016.224c-.436,1.586-2.516,2.6-3.71,2.69a.708.708,0,0,1-.534-.178,4.888,4.888,0,0,1-5.028-5.211c0-.255-.005-.511-.008-.766" transform="translate(-86.595 -20.505)" fill="#b47f5f"/>
        <path id="Trazado_140806" data-name="Trazado 140806" d="M35.017,32.417a5.448,5.448,0,0,0-2.359,3.321c-.157-.61-.595-.188-.869-.194a3.321,3.321,0,0,1-3.261-2.866A3.254,3.254,0,0,1,31,29.037a3.292,3.292,0,0,1,3.82,2.049,4.168,4.168,0,0,1,.194,1.331" transform="translate(-17.101 -17.366)" fill="#966a5b"/>
        <path id="Trazado_140807" data-name="Trazado 140807" d="M185.527,200.354c-.2,1.09-.994,1.333-1.935,1.336-2.033.008-4.067,0-6.1.007-.643,0-1.276-.052-1.577-.7-.333-.712.094-1.225.614-1.665.147-.124.3-.242.448-.362a2.711,2.711,0,0,1,1.4-.3c1.936,0,3.872-.01,5.808.006,1.45.012,1.553.154,1.342,1.677" transform="translate(-105.469 -119.191)" fill="#f3dab2"/>
        <path id="Trazado_140808" data-name="Trazado 140808" d="M156.926,45.583a5.381,5.381,0,0,0,4.244-2.512c.554,1.148.914,2.383,1.579,3.481a7.851,7.851,0,0,1-.026,1.529,2.408,2.408,0,0,1-3.958,1.178,9.729,9.729,0,0,1-.686-.8l-1.153-2.878" transform="translate(-94.148 -25.84)" fill="#9e6e50"/>
        <path id="Trazado_140809" data-name="Trazado 140809" d="M187.3,194.749c-.071-1.4.309-1.367-1.427-1.368q-3.561,0-7.122-.012c.555-.878,1.625-1.321,1.987-2.361a25.727,25.727,0,0,0,4.646-1.027,3.816,3.816,0,0,0,1.96-.653,19.275,19.275,0,0,1-.043,5.421" transform="translate(-107.24 -113.587)" fill="#f4eacc"/>
        <path id="Trazado_140810" data-name="Trazado 140810" d="M48.323,63.413c-.968,0-1.936-.017-2.9.015-.556.018-.827-.128-.809-.751.036-1.288.011-2.578.011-4.072a5.526,5.526,0,0,0,3.728,1.149q-.013,1.83-.027,3.659" transform="translate(-26.764 -35.16)" fill="#d0996e"/>
        <path id="Trazado_140811" data-name="Trazado 140811" d="M108.075,199.134a1.682,1.682,0,0,0-.9-1.842,29.455,29.455,0,0,1-2.4-1.77c-.5-.38-.207-.459.194-.491l4.045.413a8.041,8.041,0,0,0-.16,2.452c-.039.561-.105,1.091-.786,1.238" transform="translate(-62.705 -117.009)" fill="#f3dab2"/>
        <path id="Trazado_140812" data-name="Trazado 140812" d="M163.613,87.8q-3.677-5.888-7.351-11.776c-.272-.436-.525-.883-.787-1.325,1.892-.687,4.031.37,5.208,1.822,2.1,2.591,4.253,5.14,6.386,7.7.78.938,1.611,1.837,2.329,2.819a1.447,1.447,0,0,0,1.292.639,30.082,30.082,0,0,1,4.521.1l-7.115.06-4.483-.047" transform="translate(-93.277 -44.686)" fill="#fe8085"/>
        <path id="Trazado_140813" data-name="Trazado 140813" d="M94.718,75.775c-1.906-.015-3.094-.912-3.094-2.335s1.191-2.326,3.092-2.334a2.392,2.392,0,0,1,0,4.669" transform="translate(-54.97 -42.66)" fill="#b47f5f"/>
        <path id="Trazado_140814" data-name="Trazado 140814" d="M50.664,83.254,46.54,92.928a1.494,1.494,0,0,1-.831.2c-2.7,0-5.41,0-8.115,0-.252,0-.523.05-.714-.189,2.051.337,3.437-.122,4.1-2.443a73.741,73.741,0,0,1,2.874-7.242l6.808.008" transform="translate(-22.126 -49.943)" fill="#fecf64"/>
      </g>
    </g>
  </g>
</svg>
